<?xml version="1.0" encoding="UTF-8"?>
<!DOCTYPE svg>
<svg data-animation-duration="10s" preserveAspectRatio="xMidYMid meet" version="1.1" viewBox="-50 -50 100 100" xmlns:xlink="http://www.w3.org/1999/xlink" xmlns="http://www.w3.org/2000/svg"><defs><clipPath id="svg-12-a-mask"><polygon class="svg-12-a-polygon" points="0,-30 21.21320343017578,-21.21320343017578 30,-1.8369703053475314e-15 21.21320343017578,21.21320343017578 3.673940610695063e-15,30 -21.21320343017578,21.21320343017578 -30,5.510910280767884e-15 -21.21320343017578,-21.21320343017578"/></clipPath></defs><style>/* <![CDATA[ */ @keyframes svg-12-a-moving-poly-anim{0%,to{transform:translate(0,-15%)}12.5%{transform:translate(10.60660171508789%,-10.60660171508789%)}25%{transform:translate(15%,-9.184851526737657e-16%)}37.5%{transform:translate(10.60660171508789%,10.60660171508789%)}50%{transform:translate(1.8369703053475314e-15%,15%)}62.5%{transform:translate(-10.60660171508789%,10.60660171508789%)}75%{transform:translate(-15%,2.755455140383942e-15%)}87.5%{transform:translate(-10.60660171508789%,-10.60660171508789%)}}.svg-12-a-polygon{fill:none;stroke:#000;stroke-width:2}.svg-12-a-inner-polygon{stroke-width:2;animation:svg-12-a-moving-poly-anim 10s linear infinite} /* ]]> */</style><g class="svg-12-a-g" clip-path="url(#svg-12-a-mask)"><polygon class="svg-12-a-polygon svg-12-a-inner-polygon" points="0,-30 21.21320343017578,-21.21320343017578 30,-1.8369703053475314e-15 21.21320343017578,21.21320343017578 3.673940610695063e-15,30 -21.21320343017578,21.21320343017578 -30,5.510910280767884e-15 -21.21320343017578,-21.21320343017578" style="animation-delay: -0s"/><polygon class="svg-12-a-polygon svg-12-a-inner-polygon" points="0,-30 21.21320343017578,-21.21320343017578 30,-1.8369703053475314e-15 21.21320343017578,21.21320343017578 3.673940610695063e-15,30 -21.21320343017578,21.21320343017578 -30,5.510910280767884e-15 -21.21320343017578,-21.21320343017578" style="animation-delay: -2.5s"/><polygon class="svg-12-a-polygon svg-12-a-inner-polygon" points="0,-30 21.21320343017578,-21.21320343017578 30,-1.8369703053475314e-15 21.21320343017578,21.21320343017578 3.673940610695063e-15,30 -21.21320343017578,21.21320343017578 -30,5.510910280767884e-15 -21.21320343017578,-21.21320343017578" style="animation-delay: -5s"/><polygon class="svg-12-a-polygon svg-12-a-inner-polygon" points="0,-30 21.21320343017578,-21.21320343017578 30,-1.8369703053475314e-15 21.21320343017578,21.21320343017578 3.673940610695063e-15,30 -21.21320343017578,21.21320343017578 -30,5.510910280767884e-15 -21.21320343017578,-21.21320343017578" style="animation-delay: -7.5s"/></g><polygon class="svg-12-a-polygon svg-12-a-outer-polygon" points="0,-30 21.21320343017578,-21.21320343017578 30,-1.8369703053475314e-15 21.21320343017578,21.21320343017578 3.673940610695063e-15,30 -21.21320343017578,21.21320343017578 -30,5.510910280767884e-15 -21.21320343017578,-21.21320343017578"/><title>ANIMATION 12 - VARIATION A</title><desc><p>Created by <a href="http://andrew.wang-hoyer.com" target="_blank" rel="noopener">Andrew Wang-Hoyer</a>.</p></desc></svg>
