<?xml version="1.0" encoding="UTF-8"?>
<!DOCTYPE svg>
<svg data-animation-duration="20s" preserveAspectRatio="xMidYMid meet" version="1.1" viewBox="-50 -50 100 100" xmlns:xlink="http://www.w3.org/1999/xlink" xmlns="http://www.w3.org/2000/svg"><style>/* <![CDATA[ */ @keyframes svg-12-c-moving-poly-anim{0%,to{transform:translate(0,-15%)}6.666666666666667%{transform:translate(6.101049423217773%,-13.703181266784668%)}13.333333333333334%{transform:translate(11.147171974182129%,-10.036959648132324%)}20%{transform:translate(14.265848159790039%,-4.635254859924316%)}26.666666666666668%{transform:translate(14.917828559875488%,1.5679270029067993%)}33.333333333333336%{transform:translate(12.990381240844727%,7.5%)}40%{transform:translate(8.816778182983398%,12.135254859924316%)}46.666666666666664%{transform:translate(3.1186752319335938%,14.67221450805664%)}53.333333333333336%{transform:translate(-3.1186752319335938%,14.67221450805664%)}60%{transform:translate(-8.816778182983398%,12.135254859924316%)}66.66666666666667%{transform:translate(-12.990381240844727%,7.5%)}73.33333333333333%{transform:translate(-14.917828559875488%,1.5679270029067993%)}80%{transform:translate(-14.265848159790039%,-4.635254859924316%)}86.66666666666667%{transform:translate(-11.147171974182129%,-10.036959648132324%)}93.33333333333333%{transform:translate(-6.101049423217773%,-13.703181266784668%)}}.svg-12-c-polygon{fill:none;stroke:#000;stroke-width:2}.svg-12-c-inner-polygon{stroke-width:2;animation:svg-12-c-moving-poly-anim 20s linear infinite} /* ]]> */</style><polygon class="svg-12-c-polygon svg-12-c-inner-polygon" points="0,-30 12.202098846435547,-27.406362533569336 22.294343948364258,-20.07391929626465 28.531696319580078,-9.270509719848633 29.835657119750977,3.1358540058135986 25.980762481689453,15 17.633556365966797,24.270509719848633 6.2373504638671875,29.34442901611328 -6.2373504638671875,29.34442901611328 -17.633556365966797,24.270509719848633 -25.980762481689453,15 -29.835657119750977,3.1358540058135986 -28.531696319580078,-9.270509719848633 -22.294343948364258,-20.07391929626465 -12.202098846435547,-27.406362533569336" style="animation-delay: -0s"/><polygon class="svg-12-c-polygon svg-12-c-inner-polygon" points="0,-30 12.202098846435547,-27.406362533569336 22.294343948364258,-20.07391929626465 28.531696319580078,-9.270509719848633 29.835657119750977,3.1358540058135986 25.980762481689453,15 17.633556365966797,24.270509719848633 6.2373504638671875,29.34442901611328 -6.2373504638671875,29.34442901611328 -17.633556365966797,24.270509719848633 -25.980762481689453,15 -29.835657119750977,3.1358540058135986 -28.531696319580078,-9.270509719848633 -22.294343948364258,-20.07391929626465 -12.202098846435547,-27.406362533569336" style="animation-delay: -4s"/><polygon class="svg-12-c-polygon svg-12-c-inner-polygon" points="0,-30 12.202098846435547,-27.406362533569336 22.294343948364258,-20.07391929626465 28.531696319580078,-9.270509719848633 29.835657119750977,3.1358540058135986 25.980762481689453,15 17.633556365966797,24.270509719848633 6.2373504638671875,29.34442901611328 -6.2373504638671875,29.34442901611328 -17.633556365966797,24.270509719848633 -25.980762481689453,15 -29.835657119750977,3.1358540058135986 -28.531696319580078,-9.270509719848633 -22.294343948364258,-20.07391929626465 -12.202098846435547,-27.406362533569336" style="animation-delay: -8s"/><polygon class="svg-12-c-polygon svg-12-c-inner-polygon" points="0,-30 12.202098846435547,-27.406362533569336 22.294343948364258,-20.07391929626465 28.531696319580078,-9.270509719848633 29.835657119750977,3.1358540058135986 25.980762481689453,15 17.633556365966797,24.270509719848633 6.2373504638671875,29.34442901611328 -6.2373504638671875,29.34442901611328 -17.633556365966797,24.270509719848633 -25.980762481689453,15 -29.835657119750977,3.1358540058135986 -28.531696319580078,-9.270509719848633 -22.294343948364258,-20.07391929626465 -12.202098846435547,-27.406362533569336" style="animation-delay: -12s"/><polygon class="svg-12-c-polygon svg-12-c-inner-polygon" points="0,-30 12.202098846435547,-27.406362533569336 22.294343948364258,-20.07391929626465 28.531696319580078,-9.270509719848633 29.835657119750977,3.1358540058135986 25.980762481689453,15 17.633556365966797,24.270509719848633 6.2373504638671875,29.34442901611328 -6.2373504638671875,29.34442901611328 -17.633556365966797,24.270509719848633 -25.980762481689453,15 -29.835657119750977,3.1358540058135986 -28.531696319580078,-9.270509719848633 -22.294343948364258,-20.07391929626465 -12.202098846435547,-27.406362533569336" style="animation-delay: -16s"/><polygon class="svg-12-c-polygon svg-12-c-outer-polygon" points="0,-30 12.202098846435547,-27.406362533569336 22.294343948364258,-20.07391929626465 28.531696319580078,-9.270509719848633 29.835657119750977,3.1358540058135986 25.980762481689453,15 17.633556365966797,24.270509719848633 6.2373504638671875,29.34442901611328 -6.2373504638671875,29.34442901611328 -17.633556365966797,24.270509719848633 -25.980762481689453,15 -29.835657119750977,3.1358540058135986 -28.531696319580078,-9.270509719848633 -22.294343948364258,-20.07391929626465 -12.202098846435547,-27.406362533569336"/><title>ANIMATION 12 - VARIATION C</title><desc><p>Created by <a href="http://andrew.wang-hoyer.com" target="_blank" rel="noopener">Andrew Wang-Hoyer</a>.</p></desc></svg>
