<?xml version="1.0" encoding="UTF-8"?>
<!DOCTYPE svg>
<svg data-animation-duration="10s" preserveAspectRatio="xMidYMid meet" version="1.1" viewBox="-50 -50 100 100" xmlns:xlink="http://www.w3.org/1999/xlink" xmlns="http://www.w3.org/2000/svg"><defs><clipPath id="svg-15-b-outer-mask"><polygon class="svg-15-b-polygon" points="0,-40 40,-2.4492935992912173e-15 4.8985871985824346e-15,40 -40,7.347880374357178e-15"/></clipPath><g class="svg-15-b-g" id="svg-15-b-line-group"><line class="svg-15-b-line svg-15-b-radial-line" style="animation-delay: -0s" x1="0" x2="30" y1="-40" y2="-1.836970199468413e-15"/><line class="svg-15-b-line" x1="0" x2="0" y1="-10" y2="-40"/><line class="svg-15-b-line svg-15-b-radial-line" style="animation-delay: -3.3333333333333335s" x1="0" x2="30" y1="-40" y2="-1.836970199468413e-15"/><line class="svg-15-b-line" x1="0" x2="0" y1="-10" y2="-40"/><line class="svg-15-b-line svg-15-b-radial-line" style="animation-delay: -6.666666666666667s" x1="0" x2="30" y1="-40" y2="-1.836970199468413e-15"/><line class="svg-15-b-line" x1="0" x2="0" y1="-10" y2="-40"/></g></defs><style>/* <![CDATA[ */ @keyframes svg-15-b-line-anim{0%{transform:scale(1.4)}to{transform:scale(.15)}}.svg-15-b-line,.svg-15-b-polygon{fill:none;stroke:#000;stroke-width:1}.svg-15-b-radial-line{animation:svg-15-b-line-anim 10s linear infinite} /* ]]> */</style><g class="svg-15-b-g" clip-path="url(#svg-15-b-outer-mask)"><use class="svg-15-b-use" href="#svg-15-b-line-group" transform="rotate(0, 0, 0)"/><use class="svg-15-b-use" href="#svg-15-b-line-group" transform="rotate(90, 0, 0)"/><use class="svg-15-b-use" href="#svg-15-b-line-group" transform="rotate(180, 0, 0)"/><use class="svg-15-b-use" href="#svg-15-b-line-group" transform="rotate(270, 0, 0)"/></g><polygon class="svg-15-b-polygon" points="0,-10 10,-6.123233998228043e-16 1.2246467996456087e-15,10 -10,1.8369700935892946e-15" style="fill: white"/><polygon class="svg-15-b-polygon" points="0,-40 40,-2.4492935992912173e-15 4.8985871985824346e-15,40 -40,7.347880374357178e-15"/><title>ANIMATION 15 - VARIATION B</title><desc><p>Created by <a href="http://andrew.wang-hoyer.com" target="_blank" rel="noopener">Andrew Wang-Hoyer</a>.</p></desc></svg>
