<?xml version="1.0" encoding="UTF-8"?>
<!DOCTYPE svg><svg data-animation-duration="10s" preserveAspectRatio="xMidYMid meet" version="1.1" viewBox="-50 -50 100 100" xmlns:xlink="http://www.w3.org/1999/xlink" xmlns="http://www.w3.org/2000/svg"><defs><clipPath id="svg-15-c-outer-mask"><polygon class="svg-15-c-polygon" points="0,-40 38.04226303100586,-12.360679626464844 23.511409759521484,32.360679626464844 -23.511409759521484,32.360679626464844 -38.04226303100586,-12.360679626464844"/></clipPath><g class="svg-15-c-g" id="svg-15-c-line-group"><line class="svg-15-c-line svg-15-c-radial-line" style="animation-delay: -0s" x1="0" x2="28.531697273254395" y1="-40" y2="-9.270509719848633"/><line class="svg-15-c-line" x1="0" x2="0" y1="-10" y2="-40"/><line class="svg-15-c-line svg-15-c-radial-line" style="animation-delay: -3.3333333333333335s" x1="0" x2="28.531697273254395" y1="-40" y2="-9.270509719848633"/><line class="svg-15-c-line" x1="0" x2="0" y1="-10" y2="-40"/><line class="svg-15-c-line svg-15-c-radial-line" style="animation-delay: -6.666666666666667s" x1="0" x2="28.531697273254395" y1="-40" y2="-9.270509719848633"/><line class="svg-15-c-line" x1="0" x2="0" y1="-10" y2="-40"/></g></defs><style>/* <![CDATA[ */ @keyframes svg-15-c-line-anim{0%{transform:scale(1.4)}to{transform:scale(.15)}}.svg-15-c-line,.svg-15-c-polygon{fill:none;stroke:#000;stroke-width:1}.svg-15-c-radial-line{animation:svg-15-c-line-anim 10s linear infinite} /* ]]> */</style><g class="svg-15-c-g" clip-path="url(#svg-15-c-outer-mask)"><use class="svg-15-c-use" href="#svg-15-c-line-group" transform="rotate(0, 0, 0)"/><use class="svg-15-c-use" href="#svg-15-c-line-group" transform="rotate(72, 0, 0)"/><use class="svg-15-c-use" href="#svg-15-c-line-group" transform="rotate(144, 0, 0)"/><use class="svg-15-c-use" href="#svg-15-c-line-group" transform="rotate(216, 0, 0)"/><use class="svg-15-c-use" href="#svg-15-c-line-group" transform="rotate(288, 0, 0)"/></g><polygon class="svg-15-c-polygon" points="0,-10 9.510565757751465,-3.090169906616211 5.877852439880371,8.090169906616211 -5.877852439880371,8.090169906616211 -9.510565757751465,-3.090169906616211" style="fill: white"/><polygon class="svg-15-c-polygon" points="0,-40 38.04226303100586,-12.360679626464844 23.511409759521484,32.360679626464844 -23.511409759521484,32.360679626464844 -38.04226303100586,-12.360679626464844"/><title>ANIMATION 15 - VARIATION C</title><desc><p>Created by <a href="http://andrew.wang-hoyer.com" target="_blank" rel="noopener">Andrew Wang-Hoyer</a>.</p></desc></svg>
