<?xml version="1.0" encoding="UTF-8"?>
<!DOCTYPE svg>
<svg
  data-animation-duration="10s"
  viewBox="-50 -50 100 100"
>
  <title>
    ANIMATION 15 - VARIATION D
  </title>
  <desc>
    <p>See this animation in action here: <a href="https://andrew.wang-hoyer.com/experiments/svg-animations/15/d" target="_blank" rel="noopener">https://andrew.wang-hoyer.com/experiments/svg-animations/15/d</a>.</p>
    <p>Generator source code : <a href="https://github.com/ndrwhr/svg-animation-src/tree/master/site/_svgs/generators/animations/15/d.js" target="_blank" rel="noopener">https://github.com/ndrwhr/svg-animation-src/tree/master/site/_svgs/generators/animations/15/d.js</a>.</p>
    <p>All generated files and source code are released under the following license:</p>
    <p>MIT License</p>
    <p>Copyright (c) 2018-present Andrew Hoyer</p>
    <p>Permission is hereby granted, free of charge, to any person obtaining a copy of this software and associated documentation files (the &quot;Software&quot;), to deal in the Software without restriction, including without limitation the rights to use, copy, modify, merge, publish, distribute, sublicense, and/or sell copies of the Software, and to permit persons to whom the Software is furnished to do so, subject to the following conditions:</p>
    <p>The above copyright notice and this permission notice shall be included in all copies or substantial portions of the Software.</p>
    <p>THE SOFTWARE IS PROVIDED &quot;AS IS&quot;, WITHOUT WARRANTY OF ANY KIND, EXPRESS OR IMPLIED, INCLUDING BUT NOT LIMITED TO THE WARRANTIES OF MERCHANTABILITY, FITNESS FOR A PARTICULAR PURPOSE AND NONINFRINGEMENT. IN NO EVENT SHALL THE AUTHORS OR COPYRIGHT HOLDERS BE LIABLE FOR ANY CLAIM, DAMAGES OR OTHER LIABILITY, WHETHER IN AN ACTION OF CONTRACT, TORT OR OTHERWISE, ARISING FROM, OUT OF OR IN CONNECTION WITH THE SOFTWARE OR THE USE OR OTHER DEALINGS IN THE SOFTWARE.</p>
  </desc>
  <defs>
    <clipPath
      id="svg-15-d-outer-mask"
    >
      <polygon
        class="svg-15-d-polygon"
        points="0,-40 12.360679626464844,-38.04226303100586 23.511409759521484,-32.360679626464844 32.360679626464844,-23.511409759521484 38.04226303100586,-12.360679626464844 40,-2.4492935992912173e-15 38.04226303100586,12.360679626464844 32.360679626464844,23.511409759521484 23.511409759521484,32.360679626464844 12.360679626464844,38.04226303100586 4.8985871985824346e-15,40 -12.360679626464844,38.04226303100586 -23.511409759521484,32.360679626464844 -32.360679626464844,23.511409759521484 -38.04226303100586,12.360679626464844 -40,7.347880374357178e-15 -38.04226303100586,-12.360679626464844 -32.360679626464844,-23.511409759521484 -23.511409759521484,-32.360679626464844 -12.360679626464844,-38.04226303100586"
      />
    </clipPath>
    <g
      class="svg-15-d-g"
      id="svg-15-d-line-group"
    >
      <line
        class="svg-15-d-line svg-15-d-radial-line"
        style="animation-delay: -0s"
        x1="0"
        x2="11.7426456451416"
        y1="-40"
        y2="-36.140149879455564"
      />
      <line
        class="svg-15-d-line"
        x1="0"
        x2="0"
        y1="-10"
        y2="-40"
      />
      <line
        class="svg-15-d-line svg-15-d-radial-line"
        style="animation-delay: -2s"
        x1="0"
        x2="11.7426456451416"
        y1="-40"
        y2="-36.140149879455564"
      />
      <line
        class="svg-15-d-line"
        x1="0"
        x2="0"
        y1="-10"
        y2="-40"
      />
      <line
        class="svg-15-d-line svg-15-d-radial-line"
        style="animation-delay: -4s"
        x1="0"
        x2="11.7426456451416"
        y1="-40"
        y2="-36.140149879455564"
      />
      <line
        class="svg-15-d-line"
        x1="0"
        x2="0"
        y1="-10"
        y2="-40"
      />
      <line
        class="svg-15-d-line svg-15-d-radial-line"
        style="animation-delay: -6s"
        x1="0"
        x2="11.7426456451416"
        y1="-40"
        y2="-36.140149879455564"
      />
      <line
        class="svg-15-d-line"
        x1="0"
        x2="0"
        y1="-10"
        y2="-40"
      />
      <line
        class="svg-15-d-line svg-15-d-radial-line"
        style="animation-delay: -8s"
        x1="0"
        x2="11.7426456451416"
        y1="-40"
        y2="-36.140149879455564"
      />
      <line
        class="svg-15-d-line"
        x1="0"
        x2="0"
        y1="-10"
        y2="-40"
      />
    </g>
  </defs>
  <style>
    /* <![CDATA[ */
      .svg-15-d-polygon, .svg-15-d-line {
        fill: none;
        stroke: black;
        stroke-width: 1;
      }
      
      .svg-15-d-radial-line {
        animation: svg-15-d-line-anim 10s linear infinite;
      }
      
      @keyframes svg-15-d-line-anim {
        from {
          transform: scale(1.4);
        }
      
        to {
          transform: scale(.15);
        }
      }
      
    /* ]]> */
  </style>
  <g
    class="svg-15-d-g"
    clip-path="url(#svg-15-d-outer-mask)"
  >
    <use
      class="svg-15-d-use"
      href="#svg-15-d-line-group"
      transform="rotate(0, 0, 0)"
    />
    <use
      class="svg-15-d-use"
      href="#svg-15-d-line-group"
      transform="rotate(18, 0, 0)"
    />
    <use
      class="svg-15-d-use"
      href="#svg-15-d-line-group"
      transform="rotate(36, 0, 0)"
    />
    <use
      class="svg-15-d-use"
      href="#svg-15-d-line-group"
      transform="rotate(54, 0, 0)"
    />
    <use
      class="svg-15-d-use"
      href="#svg-15-d-line-group"
      transform="rotate(72, 0, 0)"
    />
    <use
      class="svg-15-d-use"
      href="#svg-15-d-line-group"
      transform="rotate(90, 0, 0)"
    />
    <use
      class="svg-15-d-use"
      href="#svg-15-d-line-group"
      transform="rotate(108, 0, 0)"
    />
    <use
      class="svg-15-d-use"
      href="#svg-15-d-line-group"
      transform="rotate(126, 0, 0)"
    />
    <use
      class="svg-15-d-use"
      href="#svg-15-d-line-group"
      transform="rotate(144, 0, 0)"
    />
    <use
      class="svg-15-d-use"
      href="#svg-15-d-line-group"
      transform="rotate(162, 0, 0)"
    />
    <use
      class="svg-15-d-use"
      href="#svg-15-d-line-group"
      transform="rotate(180, 0, 0)"
    />
    <use
      class="svg-15-d-use"
      href="#svg-15-d-line-group"
      transform="rotate(198, 0, 0)"
    />
    <use
      class="svg-15-d-use"
      href="#svg-15-d-line-group"
      transform="rotate(216, 0, 0)"
    />
    <use
      class="svg-15-d-use"
      href="#svg-15-d-line-group"
      transform="rotate(234, 0, 0)"
    />
    <use
      class="svg-15-d-use"
      href="#svg-15-d-line-group"
      transform="rotate(252, 0, 0)"
    />
    <use
      class="svg-15-d-use"
      href="#svg-15-d-line-group"
      transform="rotate(270, 0, 0)"
    />
    <use
      class="svg-15-d-use"
      href="#svg-15-d-line-group"
      transform="rotate(288, 0, 0)"
    />
    <use
      class="svg-15-d-use"
      href="#svg-15-d-line-group"
      transform="rotate(306, 0, 0)"
    />
    <use
      class="svg-15-d-use"
      href="#svg-15-d-line-group"
      transform="rotate(324, 0, 0)"
    />
    <use
      class="svg-15-d-use"
      href="#svg-15-d-line-group"
      transform="rotate(342, 0, 0)"
    />
  </g>
  <polygon
    class="svg-15-d-polygon"
    points="0,-10 3.090169906616211,-9.510565757751465 5.877852439880371,-8.090169906616211 8.090169906616211,-5.877852439880371 9.510565757751465,-3.090169906616211 10,-6.123233998228043e-16 9.510565757751465,3.090169906616211 8.090169906616211,5.877852439880371 5.877852439880371,8.090169906616211 3.090169906616211,9.510565757751465 1.2246467996456087e-15,10 -3.090169906616211,9.510565757751465 -5.877852439880371,8.090169906616211 -8.090169906616211,5.877852439880371 -9.510565757751465,3.090169906616211 -10,1.8369700935892946e-15 -9.510565757751465,-3.090169906616211 -8.090169906616211,-5.877852439880371 -5.877852439880371,-8.090169906616211 -3.090169906616211,-9.510565757751465"
    style="fill: white"
  />
  <polygon
    class="svg-15-d-polygon"
    points="0,-40 12.360679626464844,-38.04226303100586 23.511409759521484,-32.360679626464844 32.360679626464844,-23.511409759521484 38.04226303100586,-12.360679626464844 40,-2.4492935992912173e-15 38.04226303100586,12.360679626464844 32.360679626464844,23.511409759521484 23.511409759521484,32.360679626464844 12.360679626464844,38.04226303100586 4.8985871985824346e-15,40 -12.360679626464844,38.04226303100586 -23.511409759521484,32.360679626464844 -32.360679626464844,23.511409759521484 -38.04226303100586,12.360679626464844 -40,7.347880374357178e-15 -38.04226303100586,-12.360679626464844 -32.360679626464844,-23.511409759521484 -23.511409759521484,-32.360679626464844 -12.360679626464844,-38.04226303100586"
  />
</svg>
