<?xml version="1.0" encoding="UTF-8"?>
<!DOCTYPE svg>
<svg data-animation-duration="3s" preserveAspectRatio="xMidYMid meet" version="1.1" viewBox="-50 -50 100 100" xmlns:xlink="http://www.w3.org/1999/xlink" xmlns="http://www.w3.org/2000/svg"><defs><clipPath clip-path="undefined" id="svg-24-a-clip-1" transform="rotate(0)"><circle class="svg-24-a-circle" cx="14" cy="0" r="20"/></clipPath><clipPath clip-path="url(#svg-24-a-clip-1)" id="svg-24-a-clip-2" transform="rotate(180)"><circle class="svg-24-a-circle" cx="14" cy="0" r="20"/></clipPath></defs><style>/* <![CDATA[ */ @keyframes svg-24-a-main-animation{0%{transform:translate(0,0)}to{transform:translate(-12%,0)}}.svg-24-a-circle{stroke:#000;stroke-width:.2;fill:none;animation:svg-24-a-main-animation 3s cubic-bezier(.5,0,.5,1) alternate infinite}.svg-24-a-clip-circle{fill:#000}.svg-24-a-line{stroke:#000;stroke-width:.2} /* ]]> */</style><g class="svg-24-a-g" clip-path="url(#svg-24-a-clip-2)"><g class="svg-24-a-g" transform="rotate(-10)"><line class="svg-24-a-line" x1="-50" x2="50" y1="-50" y2="-50"/><line class="svg-24-a-line" x1="-50" x2="50" y1="-49" y2="-49"/><line class="svg-24-a-line" x1="-50" x2="50" y1="-48" y2="-48"/><line class="svg-24-a-line" x1="-50" x2="50" y1="-47" y2="-47"/><line class="svg-24-a-line" x1="-50" x2="50" y1="-46" y2="-46"/><line class="svg-24-a-line" x1="-50" x2="50" y1="-45" y2="-45"/><line class="svg-24-a-line" x1="-50" x2="50" y1="-44" y2="-44"/><line class="svg-24-a-line" x1="-50" x2="50" y1="-43" y2="-43"/><line class="svg-24-a-line" x1="-50" x2="50" y1="-42" y2="-42"/><line class="svg-24-a-line" x1="-50" x2="50" y1="-41" y2="-41"/><line class="svg-24-a-line" x1="-50" x2="50" y1="-40" y2="-40"/><line class="svg-24-a-line" x1="-50" x2="50" y1="-39" y2="-39"/><line class="svg-24-a-line" x1="-50" x2="50" y1="-38" y2="-38"/><line class="svg-24-a-line" x1="-50" x2="50" y1="-37" y2="-37"/><line class="svg-24-a-line" x1="-50" x2="50" y1="-36" y2="-36"/><line class="svg-24-a-line" x1="-50" x2="50" y1="-35" y2="-35"/><line class="svg-24-a-line" x1="-50" x2="50" y1="-34" y2="-34"/><line class="svg-24-a-line" x1="-50" x2="50" y1="-33" y2="-33"/><line class="svg-24-a-line" x1="-50" x2="50" y1="-32" y2="-32"/><line class="svg-24-a-line" x1="-50" x2="50" y1="-31" y2="-31"/><line class="svg-24-a-line" x1="-50" x2="50" y1="-30" y2="-30"/><line class="svg-24-a-line" x1="-50" x2="50" y1="-29" y2="-29"/><line class="svg-24-a-line" x1="-50" x2="50" y1="-28" y2="-28"/><line class="svg-24-a-line" x1="-50" x2="50" y1="-27" y2="-27"/><line class="svg-24-a-line" x1="-50" x2="50" y1="-26" y2="-26"/><line class="svg-24-a-line" x1="-50" x2="50" y1="-25" y2="-25"/><line class="svg-24-a-line" x1="-50" x2="50" y1="-24" y2="-24"/><line class="svg-24-a-line" x1="-50" x2="50" y1="-23" y2="-23"/><line class="svg-24-a-line" x1="-50" x2="50" y1="-22" y2="-22"/><line class="svg-24-a-line" x1="-50" x2="50" y1="-21" y2="-21"/><line class="svg-24-a-line" x1="-50" x2="50" y1="-20" y2="-20"/><line class="svg-24-a-line" x1="-50" x2="50" y1="-19" y2="-19"/><line class="svg-24-a-line" x1="-50" x2="50" y1="-18" y2="-18"/><line class="svg-24-a-line" x1="-50" x2="50" y1="-17" y2="-17"/><line class="svg-24-a-line" x1="-50" x2="50" y1="-16" y2="-16"/><line class="svg-24-a-line" x1="-50" x2="50" y1="-15" y2="-15"/><line class="svg-24-a-line" x1="-50" x2="50" y1="-14" y2="-14"/><line class="svg-24-a-line" x1="-50" x2="50" y1="-13" y2="-13"/><line class="svg-24-a-line" x1="-50" x2="50" y1="-12" y2="-12"/><line class="svg-24-a-line" x1="-50" x2="50" y1="-11" y2="-11"/><line class="svg-24-a-line" x1="-50" x2="50" y1="-10" y2="-10"/><line class="svg-24-a-line" x1="-50" x2="50" y1="-9" y2="-9"/><line class="svg-24-a-line" x1="-50" x2="50" y1="-8" y2="-8"/><line class="svg-24-a-line" x1="-50" x2="50" y1="-7" y2="-7"/><line class="svg-24-a-line" x1="-50" x2="50" y1="-6" y2="-6"/><line class="svg-24-a-line" x1="-50" x2="50" y1="-5" y2="-5"/><line class="svg-24-a-line" x1="-50" x2="50" y1="-4" y2="-4"/><line class="svg-24-a-line" x1="-50" x2="50" y1="-3" y2="-3"/><line class="svg-24-a-line" x1="-50" x2="50" y1="-2" y2="-2"/><line class="svg-24-a-line" x1="-50" x2="50" y1="-1" y2="-1"/><line class="svg-24-a-line" x1="-50" x2="50" y1="0" y2="0"/><line class="svg-24-a-line" x1="-50" x2="50" y1="1" y2="1"/><line class="svg-24-a-line" x1="-50" x2="50" y1="2" y2="2"/><line class="svg-24-a-line" x1="-50" x2="50" y1="3" y2="3"/><line class="svg-24-a-line" x1="-50" x2="50" y1="4" y2="4"/><line class="svg-24-a-line" x1="-50" x2="50" y1="5" y2="5"/><line class="svg-24-a-line" x1="-50" x2="50" y1="6" y2="6"/><line class="svg-24-a-line" x1="-50" x2="50" y1="7" y2="7"/><line class="svg-24-a-line" x1="-50" x2="50" y1="8" y2="8"/><line class="svg-24-a-line" x1="-50" x2="50" y1="9" y2="9"/><line class="svg-24-a-line" x1="-50" x2="50" y1="10" y2="10"/><line class="svg-24-a-line" x1="-50" x2="50" y1="11" y2="11"/><line class="svg-24-a-line" x1="-50" x2="50" y1="12" y2="12"/><line class="svg-24-a-line" x1="-50" x2="50" y1="13" y2="13"/><line class="svg-24-a-line" x1="-50" x2="50" y1="14" y2="14"/><line class="svg-24-a-line" x1="-50" x2="50" y1="15" y2="15"/><line class="svg-24-a-line" x1="-50" x2="50" y1="16" y2="16"/><line class="svg-24-a-line" x1="-50" x2="50" y1="17" y2="17"/><line class="svg-24-a-line" x1="-50" x2="50" y1="18" y2="18"/><line class="svg-24-a-line" x1="-50" x2="50" y1="19" y2="19"/><line class="svg-24-a-line" x1="-50" x2="50" y1="20" y2="20"/><line class="svg-24-a-line" x1="-50" x2="50" y1="21" y2="21"/><line class="svg-24-a-line" x1="-50" x2="50" y1="22" y2="22"/><line class="svg-24-a-line" x1="-50" x2="50" y1="23" y2="23"/><line class="svg-24-a-line" x1="-50" x2="50" y1="24" y2="24"/><line class="svg-24-a-line" x1="-50" x2="50" y1="25" y2="25"/><line class="svg-24-a-line" x1="-50" x2="50" y1="26" y2="26"/><line class="svg-24-a-line" x1="-50" x2="50" y1="27" y2="27"/><line class="svg-24-a-line" x1="-50" x2="50" y1="28" y2="28"/><line class="svg-24-a-line" x1="-50" x2="50" y1="29" y2="29"/><line class="svg-24-a-line" x1="-50" x2="50" y1="30" y2="30"/><line class="svg-24-a-line" x1="-50" x2="50" y1="31" y2="31"/><line class="svg-24-a-line" x1="-50" x2="50" y1="32" y2="32"/><line class="svg-24-a-line" x1="-50" x2="50" y1="33" y2="33"/><line class="svg-24-a-line" x1="-50" x2="50" y1="34" y2="34"/><line class="svg-24-a-line" x1="-50" x2="50" y1="35" y2="35"/><line class="svg-24-a-line" x1="-50" x2="50" y1="36" y2="36"/><line class="svg-24-a-line" x1="-50" x2="50" y1="37" y2="37"/><line class="svg-24-a-line" x1="-50" x2="50" y1="38" y2="38"/><line class="svg-24-a-line" x1="-50" x2="50" y1="39" y2="39"/><line class="svg-24-a-line" x1="-50" x2="50" y1="40" y2="40"/><line class="svg-24-a-line" x1="-50" x2="50" y1="41" y2="41"/><line class="svg-24-a-line" x1="-50" x2="50" y1="42" y2="42"/><line class="svg-24-a-line" x1="-50" x2="50" y1="43" y2="43"/><line class="svg-24-a-line" x1="-50" x2="50" y1="44" y2="44"/><line class="svg-24-a-line" x1="-50" x2="50" y1="45" y2="45"/><line class="svg-24-a-line" x1="-50" x2="50" y1="46" y2="46"/><line class="svg-24-a-line" x1="-50" x2="50" y1="47" y2="47"/><line class="svg-24-a-line" x1="-50" x2="50" y1="48" y2="48"/><line class="svg-24-a-line" x1="-50" x2="50" y1="49" y2="49"/></g></g><g class="svg-24-a-g" transform="rotate(0)"><circle class="svg-24-a-circle" cx="14" cy="0" r="20"/></g><g class="svg-24-a-g" transform="rotate(180)"><circle class="svg-24-a-circle" cx="14" cy="0" r="20"/></g><title>ANIMATION 24 - VARIATION A</title><desc><p>Created by <a href="http://andrew.wang-hoyer.com" target="_blank" rel="noopener">Andrew Wang-Hoyer</a>.</p><p>Based on <a href="https://www.dailyminimal.com/post/116562808399/ap15-183-a-new-geometric-design-every-day" target="_blank" rel="noopener">AP15-183</a> by <a href="https://www.designbypierre.io/" target="_blank" rel="noopener">Pierre Voisin</a> at <a href="https://www.dailyminimal.com/" target="_blank" rel="noopener">DAILYMINIMAL</a>.</p></desc></svg>
