<?xml version="1.0" encoding="UTF-8"?>
<!DOCTYPE svg>
<svg data-animation-duration="2s" preserveAspectRatio="xMidYMid meet" version="1.1" viewBox="-50 -50 100 100" xmlns:xlink="http://www.w3.org/1999/xlink" xmlns="http://www.w3.org/2000/svg"><defs><clipPath id="svg-35-a-main-clip"><rect class="svg-35-a-rect" height="100" width="78.25180805870446" x="-39.12590402935223" y="-50"/></clipPath></defs><style>/* <![CDATA[ */ @keyframes svg-35-a-main-anim{0%{transform:rotate(-12deg)}to{transform:rotate(12deg)}}.svg-35-a-line{stroke:#000;stroke-width:.2;animation:svg-35-a-main-anim 1s ease-in-out alternate infinite} /* ]]> */</style><g class="svg-35-a-g" clip-path="url(#svg-35-a-main-clip)"><g class="svg-35-a-g" transform="translate(0, -35)"><line class="svg-35-a-line" style="animation-delay: -1.9000000000000001s" x1="0" x2="40" y1="0" y2="0"/></g><g class="svg-35-a-g" transform="translate(0, -35) scale(-1, 1)"><line class="svg-35-a-line" style="animation-delay: -1.9000000000000001s" x1="0" x2="40" y1="0" y2="0"/></g><g class="svg-35-a-g" transform="translate(0, -31.5)"><line class="svg-35-a-line" style="animation-delay: -1.8s" x1="0" x2="40" y1="0" y2="0"/></g><g class="svg-35-a-g" transform="translate(0, -31.5) scale(-1, 1)"><line class="svg-35-a-line" style="animation-delay: -1.8s" x1="0" x2="40" y1="0" y2="0"/></g><g class="svg-35-a-g" transform="translate(0, -28)"><line class="svg-35-a-line" style="animation-delay: -1.7000000000000002s" x1="0" x2="40" y1="0" y2="0"/></g><g class="svg-35-a-g" transform="translate(0, -28) scale(-1, 1)"><line class="svg-35-a-line" style="animation-delay: -1.7000000000000002s" x1="0" x2="40" y1="0" y2="0"/></g><g class="svg-35-a-g" transform="translate(0, -24.5)"><line class="svg-35-a-line" style="animation-delay: -1.6s" x1="0" x2="40" y1="0" y2="0"/></g><g class="svg-35-a-g" transform="translate(0, -24.5) scale(-1, 1)"><line class="svg-35-a-line" style="animation-delay: -1.6s" x1="0" x2="40" y1="0" y2="0"/></g><g class="svg-35-a-g" transform="translate(0, -21)"><line class="svg-35-a-line" style="animation-delay: -1.5s" x1="0" x2="40" y1="0" y2="0"/></g><g class="svg-35-a-g" transform="translate(0, -21) scale(-1, 1)"><line class="svg-35-a-line" style="animation-delay: -1.5s" x1="0" x2="40" y1="0" y2="0"/></g><g class="svg-35-a-g" transform="translate(0, -17.5)"><line class="svg-35-a-line" style="animation-delay: -1.4000000000000001s" x1="0" x2="40" y1="0" y2="0"/></g><g class="svg-35-a-g" transform="translate(0, -17.5) scale(-1, 1)"><line class="svg-35-a-line" style="animation-delay: -1.4000000000000001s" x1="0" x2="40" y1="0" y2="0"/></g><g class="svg-35-a-g" transform="translate(0, -14)"><line class="svg-35-a-line" style="animation-delay: -1.3s" x1="0" x2="40" y1="0" y2="0"/></g><g class="svg-35-a-g" transform="translate(0, -14) scale(-1, 1)"><line class="svg-35-a-line" style="animation-delay: -1.3s" x1="0" x2="40" y1="0" y2="0"/></g><g class="svg-35-a-g" transform="translate(0, -10.5)"><line class="svg-35-a-line" style="animation-delay: -1.2000000000000002s" x1="0" x2="40" y1="0" y2="0"/></g><g class="svg-35-a-g" transform="translate(0, -10.5) scale(-1, 1)"><line class="svg-35-a-line" style="animation-delay: -1.2000000000000002s" x1="0" x2="40" y1="0" y2="0"/></g><g class="svg-35-a-g" transform="translate(0, -7)"><line class="svg-35-a-line" style="animation-delay: -1.1s" x1="0" x2="40" y1="0" y2="0"/></g><g class="svg-35-a-g" transform="translate(0, -7) scale(-1, 1)"><line class="svg-35-a-line" style="animation-delay: -1.1s" x1="0" x2="40" y1="0" y2="0"/></g><g class="svg-35-a-g" transform="translate(0, -3.5)"><line class="svg-35-a-line" style="animation-delay: -1s" x1="0" x2="40" y1="0" y2="0"/></g><g class="svg-35-a-g" transform="translate(0, -3.5) scale(-1, 1)"><line class="svg-35-a-line" style="animation-delay: -1s" x1="0" x2="40" y1="0" y2="0"/></g><g class="svg-35-a-g" transform="translate(0, 0)"><line class="svg-35-a-line" style="animation-delay: -0.9s" x1="0" x2="40" y1="0" y2="0"/></g><g class="svg-35-a-g" transform="translate(0, 0) scale(-1, 1)"><line class="svg-35-a-line" style="animation-delay: -0.9s" x1="0" x2="40" y1="0" y2="0"/></g><g class="svg-35-a-g" transform="translate(0, 3.5)"><line class="svg-35-a-line" style="animation-delay: -0.8s" x1="0" x2="40" y1="0" y2="0"/></g><g class="svg-35-a-g" transform="translate(0, 3.5) scale(-1, 1)"><line class="svg-35-a-line" style="animation-delay: -0.8s" x1="0" x2="40" y1="0" y2="0"/></g><g class="svg-35-a-g" transform="translate(0, 7)"><line class="svg-35-a-line" style="animation-delay: -0.7000000000000001s" x1="0" x2="40" y1="0" y2="0"/></g><g class="svg-35-a-g" transform="translate(0, 7) scale(-1, 1)"><line class="svg-35-a-line" style="animation-delay: -0.7000000000000001s" x1="0" x2="40" y1="0" y2="0"/></g><g class="svg-35-a-g" transform="translate(0, 10.5)"><line class="svg-35-a-line" style="animation-delay: -0.6000000000000001s" x1="0" x2="40" y1="0" y2="0"/></g><g class="svg-35-a-g" transform="translate(0, 10.5) scale(-1, 1)"><line class="svg-35-a-line" style="animation-delay: -0.6000000000000001s" x1="0" x2="40" y1="0" y2="0"/></g><g class="svg-35-a-g" transform="translate(0, 14)"><line class="svg-35-a-line" style="animation-delay: -0.5s" x1="0" x2="40" y1="0" y2="0"/></g><g class="svg-35-a-g" transform="translate(0, 14) scale(-1, 1)"><line class="svg-35-a-line" style="animation-delay: -0.5s" x1="0" x2="40" y1="0" y2="0"/></g><g class="svg-35-a-g" transform="translate(0, 17.5)"><line class="svg-35-a-line" style="animation-delay: -0.4s" x1="0" x2="40" y1="0" y2="0"/></g><g class="svg-35-a-g" transform="translate(0, 17.5) scale(-1, 1)"><line class="svg-35-a-line" style="animation-delay: -0.4s" x1="0" x2="40" y1="0" y2="0"/></g><g class="svg-35-a-g" transform="translate(0, 21)"><line class="svg-35-a-line" style="animation-delay: -0.30000000000000004s" x1="0" x2="40" y1="0" y2="0"/></g><g class="svg-35-a-g" transform="translate(0, 21) scale(-1, 1)"><line class="svg-35-a-line" style="animation-delay: -0.30000000000000004s" x1="0" x2="40" y1="0" y2="0"/></g><g class="svg-35-a-g" transform="translate(0, 24.5)"><line class="svg-35-a-line" style="animation-delay: -0.2s" x1="0" x2="40" y1="0" y2="0"/></g><g class="svg-35-a-g" transform="translate(0, 24.5) scale(-1, 1)"><line class="svg-35-a-line" style="animation-delay: -0.2s" x1="0" x2="40" y1="0" y2="0"/></g><g class="svg-35-a-g" transform="translate(0, 28)"><line class="svg-35-a-line" style="animation-delay: -0.1s" x1="0" x2="40" y1="0" y2="0"/></g><g class="svg-35-a-g" transform="translate(0, 28) scale(-1, 1)"><line class="svg-35-a-line" style="animation-delay: -0.1s" x1="0" x2="40" y1="0" y2="0"/></g><g class="svg-35-a-g" transform="translate(0, 31.5)"><line class="svg-35-a-line" style="animation-delay: -0s" x1="0" x2="40" y1="0" y2="0"/></g><g class="svg-35-a-g" transform="translate(0, 31.5) scale(-1, 1)"><line class="svg-35-a-line" style="animation-delay: -0s" x1="0" x2="40" y1="0" y2="0"/></g></g><title>ANIMATION 35 - VARIATION A</title><desc><p>Created by <a href="http://andrew.wang-hoyer.com" target="_blank" rel="noopener">Andrew Wang-Hoyer</a>.</p></desc></svg>
