<?xml version="1.0" encoding="UTF-8"?>
<!DOCTYPE svg><svg data-animation-duration="2s" preserveAspectRatio="xMidYMid meet" version="1.1" viewBox="-50 -50 100 100" xmlns:xlink="http://www.w3.org/1999/xlink" xmlns="http://www.w3.org/2000/svg"><defs><clipPath id="svg-35-b-right-clip"><rect class="svg-35-b-rect" height="100" width="39.12590402935223" x="0" y="-50"/></clipPath><clipPath id="svg-35-b-left-clip"><rect class="svg-35-b-rect" height="100" width="39.12590402935223" x="-39.12590402935223" y="-50"/></clipPath></defs><style>/* <![CDATA[ */ @keyframes svg-35-b-main-anim{0%{transform:rotate(-12deg)}to{transform:rotate(12deg)}}.svg-35-b-line{stroke:#000;stroke-width:.2;animation:svg-35-b-main-anim 1s ease-in-out alternate infinite} /* ]]> */</style><g class="svg-35-b-g" clip-path="url(#svg-35-b-right-clip)"><g class="svg-35-b-g" transform="translate(39.12590402935223, -35)"><line class="svg-35-b-line" style="animation-delay: -1.9000000000000001s" x1="-40" x2="0" y1="0" y2="0"/></g><g class="svg-35-b-g" transform="translate(39.12590402935223, -31.5)"><line class="svg-35-b-line" style="animation-delay: -1.8s" x1="-40" x2="0" y1="0" y2="0"/></g><g class="svg-35-b-g" transform="translate(39.12590402935223, -28)"><line class="svg-35-b-line" style="animation-delay: -1.7000000000000002s" x1="-40" x2="0" y1="0" y2="0"/></g><g class="svg-35-b-g" transform="translate(39.12590402935223, -24.5)"><line class="svg-35-b-line" style="animation-delay: -1.6s" x1="-40" x2="0" y1="0" y2="0"/></g><g class="svg-35-b-g" transform="translate(39.12590402935223, -21)"><line class="svg-35-b-line" style="animation-delay: -1.5s" x1="-40" x2="0" y1="0" y2="0"/></g><g class="svg-35-b-g" transform="translate(39.12590402935223, -17.5)"><line class="svg-35-b-line" style="animation-delay: -1.4000000000000001s" x1="-40" x2="0" y1="0" y2="0"/></g><g class="svg-35-b-g" transform="translate(39.12590402935223, -14)"><line class="svg-35-b-line" style="animation-delay: -1.3s" x1="-40" x2="0" y1="0" y2="0"/></g><g class="svg-35-b-g" transform="translate(39.12590402935223, -10.5)"><line class="svg-35-b-line" style="animation-delay: -1.2000000000000002s" x1="-40" x2="0" y1="0" y2="0"/></g><g class="svg-35-b-g" transform="translate(39.12590402935223, -7)"><line class="svg-35-b-line" style="animation-delay: -1.1s" x1="-40" x2="0" y1="0" y2="0"/></g><g class="svg-35-b-g" transform="translate(39.12590402935223, -3.5)"><line class="svg-35-b-line" style="animation-delay: -1s" x1="-40" x2="0" y1="0" y2="0"/></g><g class="svg-35-b-g" transform="translate(39.12590402935223, 0)"><line class="svg-35-b-line" style="animation-delay: -0.9s" x1="-40" x2="0" y1="0" y2="0"/></g><g class="svg-35-b-g" transform="translate(39.12590402935223, 3.5)"><line class="svg-35-b-line" style="animation-delay: -0.8s" x1="-40" x2="0" y1="0" y2="0"/></g><g class="svg-35-b-g" transform="translate(39.12590402935223, 7)"><line class="svg-35-b-line" style="animation-delay: -0.7000000000000001s" x1="-40" x2="0" y1="0" y2="0"/></g><g class="svg-35-b-g" transform="translate(39.12590402935223, 10.5)"><line class="svg-35-b-line" style="animation-delay: -0.6000000000000001s" x1="-40" x2="0" y1="0" y2="0"/></g><g class="svg-35-b-g" transform="translate(39.12590402935223, 14)"><line class="svg-35-b-line" style="animation-delay: -0.5s" x1="-40" x2="0" y1="0" y2="0"/></g><g class="svg-35-b-g" transform="translate(39.12590402935223, 17.5)"><line class="svg-35-b-line" style="animation-delay: -0.4s" x1="-40" x2="0" y1="0" y2="0"/></g><g class="svg-35-b-g" transform="translate(39.12590402935223, 21)"><line class="svg-35-b-line" style="animation-delay: -0.30000000000000004s" x1="-40" x2="0" y1="0" y2="0"/></g><g class="svg-35-b-g" transform="translate(39.12590402935223, 24.5)"><line class="svg-35-b-line" style="animation-delay: -0.2s" x1="-40" x2="0" y1="0" y2="0"/></g><g class="svg-35-b-g" transform="translate(39.12590402935223, 28)"><line class="svg-35-b-line" style="animation-delay: -0.1s" x1="-40" x2="0" y1="0" y2="0"/></g><g class="svg-35-b-g" transform="translate(39.12590402935223, 31.5)"><line class="svg-35-b-line" style="animation-delay: -0s" x1="-40" x2="0" y1="0" y2="0"/></g></g><g class="svg-35-b-g" clip-path="url(#svg-35-b-left-clip)"><g class="svg-35-b-g" transform="translate(-39.12590402935223, -35) scale(-1, 1)"><line class="svg-35-b-line" style="animation-delay: -1.9000000000000001s" x1="-40" x2="0" y1="0" y2="0"/></g><g class="svg-35-b-g" transform="translate(-39.12590402935223, -31.5) scale(-1, 1)"><line class="svg-35-b-line" style="animation-delay: -1.8s" x1="-40" x2="0" y1="0" y2="0"/></g><g class="svg-35-b-g" transform="translate(-39.12590402935223, -28) scale(-1, 1)"><line class="svg-35-b-line" style="animation-delay: -1.7000000000000002s" x1="-40" x2="0" y1="0" y2="0"/></g><g class="svg-35-b-g" transform="translate(-39.12590402935223, -24.5) scale(-1, 1)"><line class="svg-35-b-line" style="animation-delay: -1.6s" x1="-40" x2="0" y1="0" y2="0"/></g><g class="svg-35-b-g" transform="translate(-39.12590402935223, -21) scale(-1, 1)"><line class="svg-35-b-line" style="animation-delay: -1.5s" x1="-40" x2="0" y1="0" y2="0"/></g><g class="svg-35-b-g" transform="translate(-39.12590402935223, -17.5) scale(-1, 1)"><line class="svg-35-b-line" style="animation-delay: -1.4000000000000001s" x1="-40" x2="0" y1="0" y2="0"/></g><g class="svg-35-b-g" transform="translate(-39.12590402935223, -14) scale(-1, 1)"><line class="svg-35-b-line" style="animation-delay: -1.3s" x1="-40" x2="0" y1="0" y2="0"/></g><g class="svg-35-b-g" transform="translate(-39.12590402935223, -10.5) scale(-1, 1)"><line class="svg-35-b-line" style="animation-delay: -1.2000000000000002s" x1="-40" x2="0" y1="0" y2="0"/></g><g class="svg-35-b-g" transform="translate(-39.12590402935223, -7) scale(-1, 1)"><line class="svg-35-b-line" style="animation-delay: -1.1s" x1="-40" x2="0" y1="0" y2="0"/></g><g class="svg-35-b-g" transform="translate(-39.12590402935223, -3.5) scale(-1, 1)"><line class="svg-35-b-line" style="animation-delay: -1s" x1="-40" x2="0" y1="0" y2="0"/></g><g class="svg-35-b-g" transform="translate(-39.12590402935223, 0) scale(-1, 1)"><line class="svg-35-b-line" style="animation-delay: -0.9s" x1="-40" x2="0" y1="0" y2="0"/></g><g class="svg-35-b-g" transform="translate(-39.12590402935223, 3.5) scale(-1, 1)"><line class="svg-35-b-line" style="animation-delay: -0.8s" x1="-40" x2="0" y1="0" y2="0"/></g><g class="svg-35-b-g" transform="translate(-39.12590402935223, 7) scale(-1, 1)"><line class="svg-35-b-line" style="animation-delay: -0.7000000000000001s" x1="-40" x2="0" y1="0" y2="0"/></g><g class="svg-35-b-g" transform="translate(-39.12590402935223, 10.5) scale(-1, 1)"><line class="svg-35-b-line" style="animation-delay: -0.6000000000000001s" x1="-40" x2="0" y1="0" y2="0"/></g><g class="svg-35-b-g" transform="translate(-39.12590402935223, 14) scale(-1, 1)"><line class="svg-35-b-line" style="animation-delay: -0.5s" x1="-40" x2="0" y1="0" y2="0"/></g><g class="svg-35-b-g" transform="translate(-39.12590402935223, 17.5) scale(-1, 1)"><line class="svg-35-b-line" style="animation-delay: -0.4s" x1="-40" x2="0" y1="0" y2="0"/></g><g class="svg-35-b-g" transform="translate(-39.12590402935223, 21) scale(-1, 1)"><line class="svg-35-b-line" style="animation-delay: -0.30000000000000004s" x1="-40" x2="0" y1="0" y2="0"/></g><g class="svg-35-b-g" transform="translate(-39.12590402935223, 24.5) scale(-1, 1)"><line class="svg-35-b-line" style="animation-delay: -0.2s" x1="-40" x2="0" y1="0" y2="0"/></g><g class="svg-35-b-g" transform="translate(-39.12590402935223, 28) scale(-1, 1)"><line class="svg-35-b-line" style="animation-delay: -0.1s" x1="-40" x2="0" y1="0" y2="0"/></g><g class="svg-35-b-g" transform="translate(-39.12590402935223, 31.5) scale(-1, 1)"><line class="svg-35-b-line" style="animation-delay: -0s" x1="-40" x2="0" y1="0" y2="0"/></g></g><title>ANIMATION 35 - VARIATION B</title><desc><p>Created by <a href="http://andrew.wang-hoyer.com" target="_blank" rel="noopener">Andrew Wang-Hoyer</a>.</p></desc></svg>
