<?xml version="1.0" encoding="UTF-8"?>
<!DOCTYPE svg><svg data-animation-duration="2s" preserveAspectRatio="xMidYMid meet" version="1.1" viewBox="-50 -50 100 100" xmlns:xlink="http://www.w3.org/1999/xlink" xmlns="http://www.w3.org/2000/svg"><defs><clipPath id="svg-35-c-right-clip"><rect class="svg-35-c-rect" height="100" width="38.252190238521415" x="0" y="-50"/></clipPath><clipPath id="svg-35-c-left-clip"><rect class="svg-35-c-rect" height="100" width="38.252190238521415" x="-38.252190238521415" y="-50"/></clipPath></defs><style>/* <![CDATA[ */ @keyframes svg-35-c-main-anim{0%{transform:rotate(-17deg)}to{transform:rotate(17deg)}}.svg-35-c-line{stroke:#000;stroke-width:.2;animation:svg-35-c-main-anim 1s ease-in-out alternate infinite} /* ]]> */</style><g class="svg-35-c-g" clip-path="url(#svg-35-c-right-clip)"><g class="svg-35-c-g" transform="translate(19.126095119260707, -35)"><line class="svg-35-c-line" style="animation-delay: -1.9000000000000001s" x1="-20" x2="20" y1="0" y2="0"/></g><g class="svg-35-c-g" transform="translate(19.126095119260707, -31.5)"><line class="svg-35-c-line" style="animation-delay: -1.8s" x1="-20" x2="20" y1="0" y2="0"/></g><g class="svg-35-c-g" transform="translate(19.126095119260707, -28)"><line class="svg-35-c-line" style="animation-delay: -1.7000000000000002s" x1="-20" x2="20" y1="0" y2="0"/></g><g class="svg-35-c-g" transform="translate(19.126095119260707, -24.5)"><line class="svg-35-c-line" style="animation-delay: -1.6s" x1="-20" x2="20" y1="0" y2="0"/></g><g class="svg-35-c-g" transform="translate(19.126095119260707, -21)"><line class="svg-35-c-line" style="animation-delay: -1.5s" x1="-20" x2="20" y1="0" y2="0"/></g><g class="svg-35-c-g" transform="translate(19.126095119260707, -17.5)"><line class="svg-35-c-line" style="animation-delay: -1.4000000000000001s" x1="-20" x2="20" y1="0" y2="0"/></g><g class="svg-35-c-g" transform="translate(19.126095119260707, -14)"><line class="svg-35-c-line" style="animation-delay: -1.3s" x1="-20" x2="20" y1="0" y2="0"/></g><g class="svg-35-c-g" transform="translate(19.126095119260707, -10.5)"><line class="svg-35-c-line" style="animation-delay: -1.2000000000000002s" x1="-20" x2="20" y1="0" y2="0"/></g><g class="svg-35-c-g" transform="translate(19.126095119260707, -7)"><line class="svg-35-c-line" style="animation-delay: -1.1s" x1="-20" x2="20" y1="0" y2="0"/></g><g class="svg-35-c-g" transform="translate(19.126095119260707, -3.5)"><line class="svg-35-c-line" style="animation-delay: -1s" x1="-20" x2="20" y1="0" y2="0"/></g><g class="svg-35-c-g" transform="translate(19.126095119260707, 0)"><line class="svg-35-c-line" style="animation-delay: -0.9s" x1="-20" x2="20" y1="0" y2="0"/></g><g class="svg-35-c-g" transform="translate(19.126095119260707, 3.5)"><line class="svg-35-c-line" style="animation-delay: -0.8s" x1="-20" x2="20" y1="0" y2="0"/></g><g class="svg-35-c-g" transform="translate(19.126095119260707, 7)"><line class="svg-35-c-line" style="animation-delay: -0.7000000000000001s" x1="-20" x2="20" y1="0" y2="0"/></g><g class="svg-35-c-g" transform="translate(19.126095119260707, 10.5)"><line class="svg-35-c-line" style="animation-delay: -0.6000000000000001s" x1="-20" x2="20" y1="0" y2="0"/></g><g class="svg-35-c-g" transform="translate(19.126095119260707, 14)"><line class="svg-35-c-line" style="animation-delay: -0.5s" x1="-20" x2="20" y1="0" y2="0"/></g><g class="svg-35-c-g" transform="translate(19.126095119260707, 17.5)"><line class="svg-35-c-line" style="animation-delay: -0.4s" x1="-20" x2="20" y1="0" y2="0"/></g><g class="svg-35-c-g" transform="translate(19.126095119260707, 21)"><line class="svg-35-c-line" style="animation-delay: -0.30000000000000004s" x1="-20" x2="20" y1="0" y2="0"/></g><g class="svg-35-c-g" transform="translate(19.126095119260707, 24.5)"><line class="svg-35-c-line" style="animation-delay: -0.2s" x1="-20" x2="20" y1="0" y2="0"/></g><g class="svg-35-c-g" transform="translate(19.126095119260707, 28)"><line class="svg-35-c-line" style="animation-delay: -0.1s" x1="-20" x2="20" y1="0" y2="0"/></g><g class="svg-35-c-g" transform="translate(19.126095119260707, 31.5)"><line class="svg-35-c-line" style="animation-delay: -0s" x1="-20" x2="20" y1="0" y2="0"/></g></g><g class="svg-35-c-g" clip-path="url(#svg-35-c-left-clip)"><g class="svg-35-c-g" transform="translate(-19.126095119260707, -35) scale(-1, 1)"><line class="svg-35-c-line" style="animation-delay: -1.9000000000000001s" x1="-20" x2="20" y1="0" y2="0"/></g><g class="svg-35-c-g" transform="translate(-19.126095119260707, -31.5) scale(-1, 1)"><line class="svg-35-c-line" style="animation-delay: -1.8s" x1="-20" x2="20" y1="0" y2="0"/></g><g class="svg-35-c-g" transform="translate(-19.126095119260707, -28) scale(-1, 1)"><line class="svg-35-c-line" style="animation-delay: -1.7000000000000002s" x1="-20" x2="20" y1="0" y2="0"/></g><g class="svg-35-c-g" transform="translate(-19.126095119260707, -24.5) scale(-1, 1)"><line class="svg-35-c-line" style="animation-delay: -1.6s" x1="-20" x2="20" y1="0" y2="0"/></g><g class="svg-35-c-g" transform="translate(-19.126095119260707, -21) scale(-1, 1)"><line class="svg-35-c-line" style="animation-delay: -1.5s" x1="-20" x2="20" y1="0" y2="0"/></g><g class="svg-35-c-g" transform="translate(-19.126095119260707, -17.5) scale(-1, 1)"><line class="svg-35-c-line" style="animation-delay: -1.4000000000000001s" x1="-20" x2="20" y1="0" y2="0"/></g><g class="svg-35-c-g" transform="translate(-19.126095119260707, -14) scale(-1, 1)"><line class="svg-35-c-line" style="animation-delay: -1.3s" x1="-20" x2="20" y1="0" y2="0"/></g><g class="svg-35-c-g" transform="translate(-19.126095119260707, -10.5) scale(-1, 1)"><line class="svg-35-c-line" style="animation-delay: -1.2000000000000002s" x1="-20" x2="20" y1="0" y2="0"/></g><g class="svg-35-c-g" transform="translate(-19.126095119260707, -7) scale(-1, 1)"><line class="svg-35-c-line" style="animation-delay: -1.1s" x1="-20" x2="20" y1="0" y2="0"/></g><g class="svg-35-c-g" transform="translate(-19.126095119260707, -3.5) scale(-1, 1)"><line class="svg-35-c-line" style="animation-delay: -1s" x1="-20" x2="20" y1="0" y2="0"/></g><g class="svg-35-c-g" transform="translate(-19.126095119260707, 0) scale(-1, 1)"><line class="svg-35-c-line" style="animation-delay: -0.9s" x1="-20" x2="20" y1="0" y2="0"/></g><g class="svg-35-c-g" transform="translate(-19.126095119260707, 3.5) scale(-1, 1)"><line class="svg-35-c-line" style="animation-delay: -0.8s" x1="-20" x2="20" y1="0" y2="0"/></g><g class="svg-35-c-g" transform="translate(-19.126095119260707, 7) scale(-1, 1)"><line class="svg-35-c-line" style="animation-delay: -0.7000000000000001s" x1="-20" x2="20" y1="0" y2="0"/></g><g class="svg-35-c-g" transform="translate(-19.126095119260707, 10.5) scale(-1, 1)"><line class="svg-35-c-line" style="animation-delay: -0.6000000000000001s" x1="-20" x2="20" y1="0" y2="0"/></g><g class="svg-35-c-g" transform="translate(-19.126095119260707, 14) scale(-1, 1)"><line class="svg-35-c-line" style="animation-delay: -0.5s" x1="-20" x2="20" y1="0" y2="0"/></g><g class="svg-35-c-g" transform="translate(-19.126095119260707, 17.5) scale(-1, 1)"><line class="svg-35-c-line" style="animation-delay: -0.4s" x1="-20" x2="20" y1="0" y2="0"/></g><g class="svg-35-c-g" transform="translate(-19.126095119260707, 21) scale(-1, 1)"><line class="svg-35-c-line" style="animation-delay: -0.30000000000000004s" x1="-20" x2="20" y1="0" y2="0"/></g><g class="svg-35-c-g" transform="translate(-19.126095119260707, 24.5) scale(-1, 1)"><line class="svg-35-c-line" style="animation-delay: -0.2s" x1="-20" x2="20" y1="0" y2="0"/></g><g class="svg-35-c-g" transform="translate(-19.126095119260707, 28) scale(-1, 1)"><line class="svg-35-c-line" style="animation-delay: -0.1s" x1="-20" x2="20" y1="0" y2="0"/></g><g class="svg-35-c-g" transform="translate(-19.126095119260707, 31.5) scale(-1, 1)"><line class="svg-35-c-line" style="animation-delay: -0s" x1="-20" x2="20" y1="0" y2="0"/></g></g><title>ANIMATION 35 - VARIATION C</title><desc><p>Created by <a href="http://andrew.wang-hoyer.com" target="_blank" rel="noopener">Andrew Wang-Hoyer</a>.</p></desc></svg>
