<?xml version="1.0" encoding="UTF-8"?>
<!DOCTYPE svg>
<svg data-animation-duration="3s" preserveAspectRatio="xMidYMid meet" version="1.1" viewBox="-50 -50 100 100" xmlns:xlink="http://www.w3.org/1999/xlink" xmlns="http://www.w3.org/2000/svg"><style>/* <![CDATA[ */ @keyframes svg-29-b-main-anim{0%{transform:scale(.05,1)}to{transform:scale(1,1)}}.svg-29-b-rect{stroke:#fff;stroke-width:.3;fill:#000;animation:svg-29-b-main-anim 3s ease-in-out alternate infinite} /* ]]> */</style><defs><g class="svg-29-b-g" id="svg-29-b-main-shape" transform="scale(-1, 1) translate(-30, 0)"><rect class="svg-29-b-rect" height="1.5" style="animation-delay: -0s" width="30" x="0" y="0"/><rect class="svg-29-b-rect" height="1.5" style="animation-delay: -0.225s" width="30" x="0" y="1.5"/><rect class="svg-29-b-rect" height="1.5" style="animation-delay: -0.45s" width="30" x="0" y="3"/><rect class="svg-29-b-rect" height="1.5" style="animation-delay: -0.675s" width="30" x="0" y="4.5"/><rect class="svg-29-b-rect" height="1.5" style="animation-delay: -0.9s" width="30" x="0" y="6"/><rect class="svg-29-b-rect" height="1.5" style="animation-delay: -1.125s" width="30" x="0" y="7.5"/><rect class="svg-29-b-rect" height="1.5" style="animation-delay: -1.35s" width="30" x="0" y="9"/><rect class="svg-29-b-rect" height="1.5" style="animation-delay: -1.575s" width="30" x="0" y="10.5"/><rect class="svg-29-b-rect" height="1.5" style="animation-delay: -1.8s" width="30" x="0" y="12"/><rect class="svg-29-b-rect" height="1.5" style="animation-delay: -2.025s" width="30" x="0" y="13.5"/><rect class="svg-29-b-rect" height="1.5" style="animation-delay: -2.25s" width="30" x="0" y="15"/><rect class="svg-29-b-rect" height="1.5" style="animation-delay: -2.475s" width="30" x="0" y="16.5"/><rect class="svg-29-b-rect" height="1.5" style="animation-delay: -2.7s" width="30" x="0" y="18"/><rect class="svg-29-b-rect" height="1.5" style="animation-delay: -2.925s" width="30" x="0" y="19.5"/><rect class="svg-29-b-rect" height="1.5" style="animation-delay: -3.15s" width="30" x="0" y="21"/><rect class="svg-29-b-rect" height="1.5" style="animation-delay: -3.375s" width="30" x="0" y="22.5"/><rect class="svg-29-b-rect" height="1.5" style="animation-delay: -3.6s" width="30" x="0" y="24"/><rect class="svg-29-b-rect" height="1.5" style="animation-delay: -3.825s" width="30" x="0" y="25.5"/><rect class="svg-29-b-rect" height="1.5" style="animation-delay: -4.05s" width="30" x="0" y="27"/><rect class="svg-29-b-rect" height="1.5" style="animation-delay: -4.275s" width="30" x="0" y="28.5"/></g></defs><g class="svg-29-b-g" transform="translate(0, -15)"><use class="svg-29-b-use" href="#svg-29-b-main-shape" transform="scale(1, 1) skewY(30) translate(0, -17.32050807568877)"/><use class="svg-29-b-use" href="#svg-29-b-main-shape" transform="scale(-1, 1) skewY(30) translate(0, -17.32050807568877)"/><use class="svg-29-b-use" href="#svg-29-b-main-shape" transform="scale(1, 1) skewY(-30) translate(0, 17.32050807568877)"/><use class="svg-29-b-use" href="#svg-29-b-main-shape" transform="scale(-1, 1) skewY(-30) translate(0, 17.32050807568877)"/></g><title>ANIMATION 29 - VARIATION B</title><desc><p>Created by <a href="http://andrew.wang-hoyer.com" target="_blank" rel="noopener">Andrew Wang-Hoyer</a>.</p></desc></svg>
