<?xml version="1.0" encoding="UTF-8"?>
<!DOCTYPE svg>
<svg data-animation-duration="3s" preserveAspectRatio="xMidYMid meet" version="1.1" viewBox="-50 -50 100 100" xmlns:xlink="http://www.w3.org/1999/xlink" xmlns="http://www.w3.org/2000/svg"><style>/* <![CDATA[ */ @keyframes svg-29-c-main-anim{0%{transform:scale(1,-.05)}to{transform:scale(1,-1)}}.svg-29-c-rect{stroke:#fff;stroke-width:.3;fill:#000;animation:svg-29-c-main-anim 3s ease-in-out alternate infinite;xanimation-play-state:paused} /* ]]> */</style><g class="svg-29-c-g" transform="translate(0, 15)"><g class="svg-29-c-g" transform="scale(1, 1) skewY(30) translate(0, -17.32050807568877)"><g class="svg-29-c-g" transform="scale(-1, 1) translate(-30, 0)"><rect class="svg-29-c-rect" height="30" style="animation-delay: -0s" width="1.5" x="0" y="0"/><rect class="svg-29-c-rect" height="30" style="animation-delay: -0.225s" width="1.5" x="1.5" y="0"/><rect class="svg-29-c-rect" height="30" style="animation-delay: -0.45s" width="1.5" x="3" y="0"/><rect class="svg-29-c-rect" height="30" style="animation-delay: -0.675s" width="1.5" x="4.5" y="0"/><rect class="svg-29-c-rect" height="30" style="animation-delay: -0.9s" width="1.5" x="6" y="0"/><rect class="svg-29-c-rect" height="30" style="animation-delay: -1.125s" width="1.5" x="7.5" y="0"/><rect class="svg-29-c-rect" height="30" style="animation-delay: -1.35s" width="1.5" x="9" y="0"/><rect class="svg-29-c-rect" height="30" style="animation-delay: -1.575s" width="1.5" x="10.5" y="0"/><rect class="svg-29-c-rect" height="30" style="animation-delay: -1.8s" width="1.5" x="12" y="0"/><rect class="svg-29-c-rect" height="30" style="animation-delay: -2.025s" width="1.5" x="13.5" y="0"/><rect class="svg-29-c-rect" height="30" style="animation-delay: -2.25s" width="1.5" x="15" y="0"/><rect class="svg-29-c-rect" height="30" style="animation-delay: -2.475s" width="1.5" x="16.5" y="0"/><rect class="svg-29-c-rect" height="30" style="animation-delay: -2.7s" width="1.5" x="18" y="0"/><rect class="svg-29-c-rect" height="30" style="animation-delay: -2.925s" width="1.5" x="19.5" y="0"/><rect class="svg-29-c-rect" height="30" style="animation-delay: -3.15s" width="1.5" x="21" y="0"/><rect class="svg-29-c-rect" height="30" style="animation-delay: -3.375s" width="1.5" x="22.5" y="0"/><rect class="svg-29-c-rect" height="30" style="animation-delay: -3.6s" width="1.5" x="24" y="0"/><rect class="svg-29-c-rect" height="30" style="animation-delay: -3.825s" width="1.5" x="25.5" y="0"/><rect class="svg-29-c-rect" height="30" style="animation-delay: -4.05s" width="1.5" x="27" y="0"/><rect class="svg-29-c-rect" height="30" style="animation-delay: -4.275s" width="1.5" x="28.5" y="0"/></g></g><g class="svg-29-c-g" transform="scale(-1, 1) skewY(30) translate(0, -17.32050807568877)"><g class="svg-29-c-g" transform="scale(-1, 1) translate(-30, 0)"><rect class="svg-29-c-rect" height="30" style="animation-delay: -0s" width="1.5" x="0" y="0"/><rect class="svg-29-c-rect" height="30" style="animation-delay: -0.225s" width="1.5" x="1.5" y="0"/><rect class="svg-29-c-rect" height="30" style="animation-delay: -0.45s" width="1.5" x="3" y="0"/><rect class="svg-29-c-rect" height="30" style="animation-delay: -0.675s" width="1.5" x="4.5" y="0"/><rect class="svg-29-c-rect" height="30" style="animation-delay: -0.9s" width="1.5" x="6" y="0"/><rect class="svg-29-c-rect" height="30" style="animation-delay: -1.125s" width="1.5" x="7.5" y="0"/><rect class="svg-29-c-rect" height="30" style="animation-delay: -1.35s" width="1.5" x="9" y="0"/><rect class="svg-29-c-rect" height="30" style="animation-delay: -1.575s" width="1.5" x="10.5" y="0"/><rect class="svg-29-c-rect" height="30" style="animation-delay: -1.8s" width="1.5" x="12" y="0"/><rect class="svg-29-c-rect" height="30" style="animation-delay: -2.025s" width="1.5" x="13.5" y="0"/><rect class="svg-29-c-rect" height="30" style="animation-delay: -2.25s" width="1.5" x="15" y="0"/><rect class="svg-29-c-rect" height="30" style="animation-delay: -2.475s" width="1.5" x="16.5" y="0"/><rect class="svg-29-c-rect" height="30" style="animation-delay: -2.7s" width="1.5" x="18" y="0"/><rect class="svg-29-c-rect" height="30" style="animation-delay: -2.925s" width="1.5" x="19.5" y="0"/><rect class="svg-29-c-rect" height="30" style="animation-delay: -3.15s" width="1.5" x="21" y="0"/><rect class="svg-29-c-rect" height="30" style="animation-delay: -3.375s" width="1.5" x="22.5" y="0"/><rect class="svg-29-c-rect" height="30" style="animation-delay: -3.6s" width="1.5" x="24" y="0"/><rect class="svg-29-c-rect" height="30" style="animation-delay: -3.825s" width="1.5" x="25.5" y="0"/><rect class="svg-29-c-rect" height="30" style="animation-delay: -4.05s" width="1.5" x="27" y="0"/><rect class="svg-29-c-rect" height="30" style="animation-delay: -4.275s" width="1.5" x="28.5" y="0"/></g></g><g class="svg-29-c-g" transform="scale(1, 1) skewY(-30) translate(0, 17.32050807568877)"><g class="svg-29-c-g" transform="scale(-1, 1) translate(-30, 0)"><rect class="svg-29-c-rect" height="30" style="animation-delay: -0s" width="1.5" x="0" y="0"/><rect class="svg-29-c-rect" height="30" style="animation-delay: -0.225s" width="1.5" x="1.5" y="0"/><rect class="svg-29-c-rect" height="30" style="animation-delay: -0.45s" width="1.5" x="3" y="0"/><rect class="svg-29-c-rect" height="30" style="animation-delay: -0.675s" width="1.5" x="4.5" y="0"/><rect class="svg-29-c-rect" height="30" style="animation-delay: -0.9s" width="1.5" x="6" y="0"/><rect class="svg-29-c-rect" height="30" style="animation-delay: -1.125s" width="1.5" x="7.5" y="0"/><rect class="svg-29-c-rect" height="30" style="animation-delay: -1.35s" width="1.5" x="9" y="0"/><rect class="svg-29-c-rect" height="30" style="animation-delay: -1.575s" width="1.5" x="10.5" y="0"/><rect class="svg-29-c-rect" height="30" style="animation-delay: -1.8s" width="1.5" x="12" y="0"/><rect class="svg-29-c-rect" height="30" style="animation-delay: -2.025s" width="1.5" x="13.5" y="0"/><rect class="svg-29-c-rect" height="30" style="animation-delay: -2.25s" width="1.5" x="15" y="0"/><rect class="svg-29-c-rect" height="30" style="animation-delay: -2.475s" width="1.5" x="16.5" y="0"/><rect class="svg-29-c-rect" height="30" style="animation-delay: -2.7s" width="1.5" x="18" y="0"/><rect class="svg-29-c-rect" height="30" style="animation-delay: -2.925s" width="1.5" x="19.5" y="0"/><rect class="svg-29-c-rect" height="30" style="animation-delay: -3.15s" width="1.5" x="21" y="0"/><rect class="svg-29-c-rect" height="30" style="animation-delay: -3.375s" width="1.5" x="22.5" y="0"/><rect class="svg-29-c-rect" height="30" style="animation-delay: -3.6s" width="1.5" x="24" y="0"/><rect class="svg-29-c-rect" height="30" style="animation-delay: -3.825s" width="1.5" x="25.5" y="0"/><rect class="svg-29-c-rect" height="30" style="animation-delay: -4.05s" width="1.5" x="27" y="0"/><rect class="svg-29-c-rect" height="30" style="animation-delay: -4.275s" width="1.5" x="28.5" y="0"/></g></g><g class="svg-29-c-g" transform="scale(-1, 1) skewY(-30) translate(0, 17.32050807568877)"><g class="svg-29-c-g" transform="scale(-1, 1) translate(-30, 0)"><rect class="svg-29-c-rect" height="30" style="animation-delay: -0s" width="1.5" x="0" y="0"/><rect class="svg-29-c-rect" height="30" style="animation-delay: -0.225s" width="1.5" x="1.5" y="0"/><rect class="svg-29-c-rect" height="30" style="animation-delay: -0.45s" width="1.5" x="3" y="0"/><rect class="svg-29-c-rect" height="30" style="animation-delay: -0.675s" width="1.5" x="4.5" y="0"/><rect class="svg-29-c-rect" height="30" style="animation-delay: -0.9s" width="1.5" x="6" y="0"/><rect class="svg-29-c-rect" height="30" style="animation-delay: -1.125s" width="1.5" x="7.5" y="0"/><rect class="svg-29-c-rect" height="30" style="animation-delay: -1.35s" width="1.5" x="9" y="0"/><rect class="svg-29-c-rect" height="30" style="animation-delay: -1.575s" width="1.5" x="10.5" y="0"/><rect class="svg-29-c-rect" height="30" style="animation-delay: -1.8s" width="1.5" x="12" y="0"/><rect class="svg-29-c-rect" height="30" style="animation-delay: -2.025s" width="1.5" x="13.5" y="0"/><rect class="svg-29-c-rect" height="30" style="animation-delay: -2.25s" width="1.5" x="15" y="0"/><rect class="svg-29-c-rect" height="30" style="animation-delay: -2.475s" width="1.5" x="16.5" y="0"/><rect class="svg-29-c-rect" height="30" style="animation-delay: -2.7s" width="1.5" x="18" y="0"/><rect class="svg-29-c-rect" height="30" style="animation-delay: -2.925s" width="1.5" x="19.5" y="0"/><rect class="svg-29-c-rect" height="30" style="animation-delay: -3.15s" width="1.5" x="21" y="0"/><rect class="svg-29-c-rect" height="30" style="animation-delay: -3.375s" width="1.5" x="22.5" y="0"/><rect class="svg-29-c-rect" height="30" style="animation-delay: -3.6s" width="1.5" x="24" y="0"/><rect class="svg-29-c-rect" height="30" style="animation-delay: -3.825s" width="1.5" x="25.5" y="0"/><rect class="svg-29-c-rect" height="30" style="animation-delay: -4.05s" width="1.5" x="27" y="0"/><rect class="svg-29-c-rect" height="30" style="animation-delay: -4.275s" width="1.5" x="28.5" y="0"/></g></g></g><title>ANIMATION 29 - VARIATION C</title><desc><p>Created by <a href="http://andrew.wang-hoyer.com" target="_blank" rel="noopener">Andrew Wang-Hoyer</a>.</p></desc></svg>
