<?xml version="1.0" encoding="UTF-8"?>
<!DOCTYPE svg><svg data-animation-duration="3s" preserveAspectRatio="xMidYMid meet" version="1.1" viewBox="-50 -50 100 100" xmlns:xlink="http://www.w3.org/1999/xlink" xmlns="http://www.w3.org/2000/svg"><style>/* <![CDATA[ */ @keyframes svg-47-a-anim{0%{transform:scaleY(1)}to{transform:scaleY(-.25)}}.svg-47-a-polygon{fill:#000;stroke:none;animation:svg-47-a-anim 3s ease-in-out alternate infinite;transform:scaleY(-.5)} /* ]]> */</style><g class="svg-47-a-g" transform="rotate(0)"><polygon class="svg-47-a-polygon" points="0,0 -1.5703926086425781,-39.96916198730469 1.5703926086425781,-39.96916198730469" style="transform-origin: 0% -39.96916198730469%; animation-delay: 0s"/></g><g class="svg-47-a-g" transform="rotate(4.5)"><polygon class="svg-47-a-polygon" points="0,0 -1.5703926086425781,-39.96916198730469 1.5703926086425781,-39.96916198730469" style="transform-origin: 0% -39.96916198730469%; animation-delay: -0.15000000000000002s"/></g><g class="svg-47-a-g" transform="rotate(9)"><polygon class="svg-47-a-polygon" points="0,0 -1.5703926086425781,-39.96916198730469 1.5703926086425781,-39.96916198730469" style="transform-origin: 0% -39.96916198730469%; animation-delay: -0.30000000000000004s"/></g><g class="svg-47-a-g" transform="rotate(13.5)"><polygon class="svg-47-a-polygon" points="0,0 -1.5703926086425781,-39.96916198730469 1.5703926086425781,-39.96916198730469" style="transform-origin: 0% -39.96916198730469%; animation-delay: -0.44999999999999996s"/></g><g class="svg-47-a-g" transform="rotate(18)"><polygon class="svg-47-a-polygon" points="0,0 -1.5703926086425781,-39.96916198730469 1.5703926086425781,-39.96916198730469" style="transform-origin: 0% -39.96916198730469%; animation-delay: -0.6000000000000001s"/></g><g class="svg-47-a-g" transform="rotate(22.5)"><polygon class="svg-47-a-polygon" points="0,0 -1.5703926086425781,-39.96916198730469 1.5703926086425781,-39.96916198730469" style="transform-origin: 0% -39.96916198730469%; animation-delay: -0.75s"/></g><g class="svg-47-a-g" transform="rotate(27)"><polygon class="svg-47-a-polygon" points="0,0 -1.5703926086425781,-39.96916198730469 1.5703926086425781,-39.96916198730469" style="transform-origin: 0% -39.96916198730469%; animation-delay: -0.8999999999999999s"/></g><g class="svg-47-a-g" transform="rotate(31.5)"><polygon class="svg-47-a-polygon" points="0,0 -1.5703926086425781,-39.96916198730469 1.5703926086425781,-39.96916198730469" style="transform-origin: 0% -39.96916198730469%; animation-delay: -1.0499999999999998s"/></g><g class="svg-47-a-g" transform="rotate(36)"><polygon class="svg-47-a-polygon" points="0,0 -1.5703926086425781,-39.96916198730469 1.5703926086425781,-39.96916198730469" style="transform-origin: 0% -39.96916198730469%; animation-delay: -1.2000000000000002s"/></g><g class="svg-47-a-g" transform="rotate(40.5)"><polygon class="svg-47-a-polygon" points="0,0 -1.5703926086425781,-39.96916198730469 1.5703926086425781,-39.96916198730469" style="transform-origin: 0% -39.96916198730469%; animation-delay: -1.35s"/></g><g class="svg-47-a-g" transform="rotate(45)"><polygon class="svg-47-a-polygon" points="0,0 -1.5703926086425781,-39.96916198730469 1.5703926086425781,-39.96916198730469" style="transform-origin: 0% -39.96916198730469%; animation-delay: -1.5s"/></g><g class="svg-47-a-g" transform="rotate(49.50000000000001)"><polygon class="svg-47-a-polygon" points="0,0 -1.5703926086425781,-39.96916198730469 1.5703926086425781,-39.96916198730469" style="transform-origin: 0% -39.96916198730469%; animation-delay: -1.6500000000000001s"/></g><g class="svg-47-a-g" transform="rotate(54)"><polygon class="svg-47-a-polygon" points="0,0 -1.5703926086425781,-39.96916198730469 1.5703926086425781,-39.96916198730469" style="transform-origin: 0% -39.96916198730469%; animation-delay: -1.7999999999999998s"/></g><g class="svg-47-a-g" transform="rotate(58.5)"><polygon class="svg-47-a-polygon" points="0,0 -1.5703926086425781,-39.96916198730469 1.5703926086425781,-39.96916198730469" style="transform-origin: 0% -39.96916198730469%; animation-delay: -1.9500000000000002s"/></g><g class="svg-47-a-g" transform="rotate(63)"><polygon class="svg-47-a-polygon" points="0,0 -1.5703926086425781,-39.96916198730469 1.5703926086425781,-39.96916198730469" style="transform-origin: 0% -39.96916198730469%; animation-delay: -2.0999999999999996s"/></g><g class="svg-47-a-g" transform="rotate(67.5)"><polygon class="svg-47-a-polygon" points="0,0 -1.5703926086425781,-39.96916198730469 1.5703926086425781,-39.96916198730469" style="transform-origin: 0% -39.96916198730469%; animation-delay: -2.25s"/></g><g class="svg-47-a-g" transform="rotate(72)"><polygon class="svg-47-a-polygon" points="0,0 -1.5703926086425781,-39.96916198730469 1.5703926086425781,-39.96916198730469" style="transform-origin: 0% -39.96916198730469%; animation-delay: -2.4000000000000004s"/></g><g class="svg-47-a-g" transform="rotate(76.5)"><polygon class="svg-47-a-polygon" points="0,0 -1.5703926086425781,-39.96916198730469 1.5703926086425781,-39.96916198730469" style="transform-origin: 0% -39.96916198730469%; animation-delay: -2.55s"/></g><g class="svg-47-a-g" transform="rotate(81)"><polygon class="svg-47-a-polygon" points="0,0 -1.5703926086425781,-39.96916198730469 1.5703926086425781,-39.96916198730469" style="transform-origin: 0% -39.96916198730469%; animation-delay: -2.7s"/></g><g class="svg-47-a-g" transform="rotate(85.5)"><polygon class="svg-47-a-polygon" points="0,0 -1.5703926086425781,-39.96916198730469 1.5703926086425781,-39.96916198730469" style="transform-origin: 0% -39.96916198730469%; animation-delay: -2.8499999999999996s"/></g><g class="svg-47-a-g" transform="rotate(90)"><polygon class="svg-47-a-polygon" points="0,0 -1.5703926086425781,-39.96916198730469 1.5703926086425781,-39.96916198730469" style="transform-origin: 0% -39.96916198730469%; animation-delay: -3s"/></g><g class="svg-47-a-g" transform="rotate(94.5)"><polygon class="svg-47-a-polygon" points="0,0 -1.5703926086425781,-39.96916198730469 1.5703926086425781,-39.96916198730469" style="transform-origin: 0% -39.96916198730469%; animation-delay: -3.1500000000000004s"/></g><g class="svg-47-a-g" transform="rotate(99.00000000000001)"><polygon class="svg-47-a-polygon" points="0,0 -1.5703926086425781,-39.96916198730469 1.5703926086425781,-39.96916198730469" style="transform-origin: 0% -39.96916198730469%; animation-delay: -3.3000000000000003s"/></g><g class="svg-47-a-g" transform="rotate(103.49999999999999)"><polygon class="svg-47-a-polygon" points="0,0 -1.5703926086425781,-39.96916198730469 1.5703926086425781,-39.96916198730469" style="transform-origin: 0% -39.96916198730469%; animation-delay: -3.4499999999999997s"/></g><g class="svg-47-a-g" transform="rotate(108)"><polygon class="svg-47-a-polygon" points="0,0 -1.5703926086425781,-39.96916198730469 1.5703926086425781,-39.96916198730469" style="transform-origin: 0% -39.96916198730469%; animation-delay: -3.5999999999999996s"/></g><g class="svg-47-a-g" transform="rotate(112.5)"><polygon class="svg-47-a-polygon" points="0,0 -1.5703926086425781,-39.96916198730469 1.5703926086425781,-39.96916198730469" style="transform-origin: 0% -39.96916198730469%; animation-delay: -3.75s"/></g><g class="svg-47-a-g" transform="rotate(117)"><polygon class="svg-47-a-polygon" points="0,0 -1.5703926086425781,-39.96916198730469 1.5703926086425781,-39.96916198730469" style="transform-origin: 0% -39.96916198730469%; animation-delay: -3.9000000000000004s"/></g><g class="svg-47-a-g" transform="rotate(121.5)"><polygon class="svg-47-a-polygon" points="0,0 -1.5703926086425781,-39.96916198730469 1.5703926086425781,-39.96916198730469" style="transform-origin: 0% -39.96916198730469%; animation-delay: -4.050000000000001s"/></g><g class="svg-47-a-g" transform="rotate(126)"><polygon class="svg-47-a-polygon" points="0,0 -1.5703926086425781,-39.96916198730469 1.5703926086425781,-39.96916198730469" style="transform-origin: 0% -39.96916198730469%; animation-delay: -4.199999999999999s"/></g><g class="svg-47-a-g" transform="rotate(130.5)"><polygon class="svg-47-a-polygon" points="0,0 -1.5703926086425781,-39.96916198730469 1.5703926086425781,-39.96916198730469" style="transform-origin: 0% -39.96916198730469%; animation-delay: -4.35s"/></g><g class="svg-47-a-g" transform="rotate(135)"><polygon class="svg-47-a-polygon" points="0,0 -1.5703926086425781,-39.96916198730469 1.5703926086425781,-39.96916198730469" style="transform-origin: 0% -39.96916198730469%; animation-delay: -4.5s"/></g><g class="svg-47-a-g" transform="rotate(139.5)"><polygon class="svg-47-a-polygon" points="0,0 -1.5703926086425781,-39.96916198730469 1.5703926086425781,-39.96916198730469" style="transform-origin: 0% -39.96916198730469%; animation-delay: -4.65s"/></g><g class="svg-47-a-g" transform="rotate(144)"><polygon class="svg-47-a-polygon" points="0,0 -1.5703926086425781,-39.96916198730469 1.5703926086425781,-39.96916198730469" style="transform-origin: 0% -39.96916198730469%; animation-delay: -4.800000000000001s"/></g><g class="svg-47-a-g" transform="rotate(148.5)"><polygon class="svg-47-a-polygon" points="0,0 -1.5703926086425781,-39.96916198730469 1.5703926086425781,-39.96916198730469" style="transform-origin: 0% -39.96916198730469%; animation-delay: -4.949999999999999s"/></g><g class="svg-47-a-g" transform="rotate(153)"><polygon class="svg-47-a-polygon" points="0,0 -1.5703926086425781,-39.96916198730469 1.5703926086425781,-39.96916198730469" style="transform-origin: 0% -39.96916198730469%; animation-delay: -5.1s"/></g><g class="svg-47-a-g" transform="rotate(157.5)"><polygon class="svg-47-a-polygon" points="0,0 -1.5703926086425781,-39.96916198730469 1.5703926086425781,-39.96916198730469" style="transform-origin: 0% -39.96916198730469%; animation-delay: -5.25s"/></g><g class="svg-47-a-g" transform="rotate(162)"><polygon class="svg-47-a-polygon" points="0,0 -1.5703926086425781,-39.96916198730469 1.5703926086425781,-39.96916198730469" style="transform-origin: 0% -39.96916198730469%; animation-delay: -5.4s"/></g><g class="svg-47-a-g" transform="rotate(166.5)"><polygon class="svg-47-a-polygon" points="0,0 -1.5703926086425781,-39.96916198730469 1.5703926086425781,-39.96916198730469" style="transform-origin: 0% -39.96916198730469%; animation-delay: -5.550000000000001s"/></g><g class="svg-47-a-g" transform="rotate(171)"><polygon class="svg-47-a-polygon" points="0,0 -1.5703926086425781,-39.96916198730469 1.5703926086425781,-39.96916198730469" style="transform-origin: 0% -39.96916198730469%; animation-delay: -5.699999999999999s"/></g><g class="svg-47-a-g" transform="rotate(175.5)"><polygon class="svg-47-a-polygon" points="0,0 -1.5703926086425781,-39.96916198730469 1.5703926086425781,-39.96916198730469" style="transform-origin: 0% -39.96916198730469%; animation-delay: -5.85s"/></g><g class="svg-47-a-g" transform="rotate(180)"><polygon class="svg-47-a-polygon" points="0,0 -1.5703926086425781,-39.96916198730469 1.5703926086425781,-39.96916198730469" style="transform-origin: 0% -39.96916198730469%; animation-delay: -6s"/></g><g class="svg-47-a-g" transform="rotate(184.5)"><polygon class="svg-47-a-polygon" points="0,0 -1.5703926086425781,-39.96916198730469 1.5703926086425781,-39.96916198730469" style="transform-origin: 0% -39.96916198730469%; animation-delay: -6.1499999999999995s"/></g><g class="svg-47-a-g" transform="rotate(189)"><polygon class="svg-47-a-polygon" points="0,0 -1.5703926086425781,-39.96916198730469 1.5703926086425781,-39.96916198730469" style="transform-origin: 0% -39.96916198730469%; animation-delay: -6.300000000000001s"/></g><g class="svg-47-a-g" transform="rotate(193.5)"><polygon class="svg-47-a-polygon" points="0,0 -1.5703926086425781,-39.96916198730469 1.5703926086425781,-39.96916198730469" style="transform-origin: 0% -39.96916198730469%; animation-delay: -6.449999999999999s"/></g><g class="svg-47-a-g" transform="rotate(198.00000000000003)"><polygon class="svg-47-a-polygon" points="0,0 -1.5703926086425781,-39.96916198730469 1.5703926086425781,-39.96916198730469" style="transform-origin: 0% -39.96916198730469%; animation-delay: -6.6000000000000005s"/></g><g class="svg-47-a-g" transform="rotate(202.49999999999997)"><polygon class="svg-47-a-polygon" points="0,0 -1.5703926086425781,-39.96916198730469 1.5703926086425781,-39.96916198730469" style="transform-origin: 0% -39.96916198730469%; animation-delay: -6.75s"/></g><g class="svg-47-a-g" transform="rotate(206.99999999999997)"><polygon class="svg-47-a-polygon" points="0,0 -1.5703926086425781,-39.96916198730469 1.5703926086425781,-39.96916198730469" style="transform-origin: 0% -39.96916198730469%; animation-delay: -6.8999999999999995s"/></g><g class="svg-47-a-g" transform="rotate(211.5)"><polygon class="svg-47-a-polygon" points="0,0 -1.5703926086425781,-39.96916198730469 1.5703926086425781,-39.96916198730469" style="transform-origin: 0% -39.96916198730469%; animation-delay: -7.050000000000001s"/></g><g class="svg-47-a-g" transform="rotate(216)"><polygon class="svg-47-a-polygon" points="0,0 -1.5703926086425781,-39.96916198730469 1.5703926086425781,-39.96916198730469" style="transform-origin: 0% -39.96916198730469%; animation-delay: -7.199999999999999s"/></g><g class="svg-47-a-g" transform="rotate(220.5)"><polygon class="svg-47-a-polygon" points="0,0 -1.5703926086425781,-39.96916198730469 1.5703926086425781,-39.96916198730469" style="transform-origin: 0% -39.96916198730469%; animation-delay: -7.3500000000000005s"/></g><g class="svg-47-a-g" transform="rotate(225)"><polygon class="svg-47-a-polygon" points="0,0 -1.5703926086425781,-39.96916198730469 1.5703926086425781,-39.96916198730469" style="transform-origin: 0% -39.96916198730469%; animation-delay: -7.5s"/></g><g class="svg-47-a-g" transform="rotate(229.49999999999997)"><polygon class="svg-47-a-polygon" points="0,0 -1.5703926086425781,-39.96916198730469 1.5703926086425781,-39.96916198730469" style="transform-origin: 0% -39.96916198730469%; animation-delay: -7.6499999999999995s"/></g><g class="svg-47-a-g" transform="rotate(234)"><polygon class="svg-47-a-polygon" points="0,0 -1.5703926086425781,-39.96916198730469 1.5703926086425781,-39.96916198730469" style="transform-origin: 0% -39.96916198730469%; animation-delay: -7.800000000000001s"/></g><g class="svg-47-a-g" transform="rotate(238.50000000000003)"><polygon class="svg-47-a-polygon" points="0,0 -1.5703926086425781,-39.96916198730469 1.5703926086425781,-39.96916198730469" style="transform-origin: 0% -39.96916198730469%; animation-delay: -7.949999999999999s"/></g><g class="svg-47-a-g" transform="rotate(243)"><polygon class="svg-47-a-polygon" points="0,0 -1.5703926086425781,-39.96916198730469 1.5703926086425781,-39.96916198730469" style="transform-origin: 0% -39.96916198730469%; animation-delay: -8.100000000000001s"/></g><g class="svg-47-a-g" transform="rotate(247.49999999999997)"><polygon class="svg-47-a-polygon" points="0,0 -1.5703926086425781,-39.96916198730469 1.5703926086425781,-39.96916198730469" style="transform-origin: 0% -39.96916198730469%; animation-delay: -8.25s"/></g><g class="svg-47-a-g" transform="rotate(252)"><polygon class="svg-47-a-polygon" points="0,0 -1.5703926086425781,-39.96916198730469 1.5703926086425781,-39.96916198730469" style="transform-origin: 0% -39.96916198730469%; animation-delay: -8.399999999999999s"/></g><g class="svg-47-a-g" transform="rotate(256.5)"><polygon class="svg-47-a-polygon" points="0,0 -1.5703926086425781,-39.96916198730469 1.5703926086425781,-39.96916198730469" style="transform-origin: 0% -39.96916198730469%; animation-delay: -8.55s"/></g><g class="svg-47-a-g" transform="rotate(261)"><polygon class="svg-47-a-polygon" points="0,0 -1.5703926086425781,-39.96916198730469 1.5703926086425781,-39.96916198730469" style="transform-origin: 0% -39.96916198730469%; animation-delay: -8.7s"/></g><g class="svg-47-a-g" transform="rotate(265.5)"><polygon class="svg-47-a-polygon" points="0,0 -1.5703926086425781,-39.96916198730469 1.5703926086425781,-39.96916198730469" style="transform-origin: 0% -39.96916198730469%; animation-delay: -8.850000000000001s"/></g><g class="svg-47-a-g" transform="rotate(270)"><polygon class="svg-47-a-polygon" points="0,0 -1.5703926086425781,-39.96916198730469 1.5703926086425781,-39.96916198730469" style="transform-origin: 0% -39.96916198730469%; animation-delay: -9s"/></g><g class="svg-47-a-g" transform="rotate(274.5)"><polygon class="svg-47-a-polygon" points="0,0 -1.5703926086425781,-39.96916198730469 1.5703926086425781,-39.96916198730469" style="transform-origin: 0% -39.96916198730469%; animation-delay: -9.149999999999999s"/></g><g class="svg-47-a-g" transform="rotate(279)"><polygon class="svg-47-a-polygon" points="0,0 -1.5703926086425781,-39.96916198730469 1.5703926086425781,-39.96916198730469" style="transform-origin: 0% -39.96916198730469%; animation-delay: -9.3s"/></g><g class="svg-47-a-g" transform="rotate(283.49999999999994)"><polygon class="svg-47-a-polygon" points="0,0 -1.5703926086425781,-39.96916198730469 1.5703926086425781,-39.96916198730469" style="transform-origin: 0% -39.96916198730469%; animation-delay: -9.45s"/></g><g class="svg-47-a-g" transform="rotate(288)"><polygon class="svg-47-a-polygon" points="0,0 -1.5703926086425781,-39.96916198730469 1.5703926086425781,-39.96916198730469" style="transform-origin: 0% -39.96916198730469%; animation-delay: -9.600000000000001s"/></g><g class="svg-47-a-g" transform="rotate(292.50000000000006)"><polygon class="svg-47-a-polygon" points="0,0 -1.5703926086425781,-39.96916198730469 1.5703926086425781,-39.96916198730469" style="transform-origin: 0% -39.96916198730469%; animation-delay: -9.75s"/></g><g class="svg-47-a-g" transform="rotate(297)"><polygon class="svg-47-a-polygon" points="0,0 -1.5703926086425781,-39.96916198730469 1.5703926086425781,-39.96916198730469" style="transform-origin: 0% -39.96916198730469%; animation-delay: -9.899999999999999s"/></g><g class="svg-47-a-g" transform="rotate(301.5)"><polygon class="svg-47-a-polygon" points="0,0 -1.5703926086425781,-39.96916198730469 1.5703926086425781,-39.96916198730469" style="transform-origin: 0% -39.96916198730469%; animation-delay: -10.05s"/></g><g class="svg-47-a-g" transform="rotate(306)"><polygon class="svg-47-a-polygon" points="0,0 -1.5703926086425781,-39.96916198730469 1.5703926086425781,-39.96916198730469" style="transform-origin: 0% -39.96916198730469%; animation-delay: -10.2s"/></g><g class="svg-47-a-g" transform="rotate(310.5)"><polygon class="svg-47-a-polygon" points="0,0 -1.5703926086425781,-39.96916198730469 1.5703926086425781,-39.96916198730469" style="transform-origin: 0% -39.96916198730469%; animation-delay: -10.350000000000001s"/></g><g class="svg-47-a-g" transform="rotate(315)"><polygon class="svg-47-a-polygon" points="0,0 -1.5703926086425781,-39.96916198730469 1.5703926086425781,-39.96916198730469" style="transform-origin: 0% -39.96916198730469%; animation-delay: -10.5s"/></g><g class="svg-47-a-g" transform="rotate(319.5)"><polygon class="svg-47-a-polygon" points="0,0 -1.5703926086425781,-39.96916198730469 1.5703926086425781,-39.96916198730469" style="transform-origin: 0% -39.96916198730469%; animation-delay: -10.649999999999999s"/></g><g class="svg-47-a-g" transform="rotate(324)"><polygon class="svg-47-a-polygon" points="0,0 -1.5703926086425781,-39.96916198730469 1.5703926086425781,-39.96916198730469" style="transform-origin: 0% -39.96916198730469%; animation-delay: -10.8s"/></g><g class="svg-47-a-g" transform="rotate(328.5)"><polygon class="svg-47-a-polygon" points="0,0 -1.5703926086425781,-39.96916198730469 1.5703926086425781,-39.96916198730469" style="transform-origin: 0% -39.96916198730469%; animation-delay: -10.95s"/></g><g class="svg-47-a-g" transform="rotate(333)"><polygon class="svg-47-a-polygon" points="0,0 -1.5703926086425781,-39.96916198730469 1.5703926086425781,-39.96916198730469" style="transform-origin: 0% -39.96916198730469%; animation-delay: -11.100000000000001s"/></g><g class="svg-47-a-g" transform="rotate(337.49999999999994)"><polygon class="svg-47-a-polygon" points="0,0 -1.5703926086425781,-39.96916198730469 1.5703926086425781,-39.96916198730469" style="transform-origin: 0% -39.96916198730469%; animation-delay: -11.25s"/></g><g class="svg-47-a-g" transform="rotate(342)"><polygon class="svg-47-a-polygon" points="0,0 -1.5703926086425781,-39.96916198730469 1.5703926086425781,-39.96916198730469" style="transform-origin: 0% -39.96916198730469%; animation-delay: -11.399999999999999s"/></g><g class="svg-47-a-g" transform="rotate(346.50000000000006)"><polygon class="svg-47-a-polygon" points="0,0 -1.5703926086425781,-39.96916198730469 1.5703926086425781,-39.96916198730469" style="transform-origin: 0% -39.96916198730469%; animation-delay: -11.55s"/></g><g class="svg-47-a-g" transform="rotate(351)"><polygon class="svg-47-a-polygon" points="0,0 -1.5703926086425781,-39.96916198730469 1.5703926086425781,-39.96916198730469" style="transform-origin: 0% -39.96916198730469%; animation-delay: -11.7s"/></g><g class="svg-47-a-g" transform="rotate(355.49999999999994)"><polygon class="svg-47-a-polygon" points="0,0 -1.5703926086425781,-39.96916198730469 1.5703926086425781,-39.96916198730469" style="transform-origin: 0% -39.96916198730469%; animation-delay: -11.850000000000001s"/></g><title>ANIMATION 47 - VARIATION A</title><desc><p>Created by <a href="http://andrew.wang-hoyer.com" target="_blank" rel="noopener">Andrew Wang-Hoyer</a>.</p></desc></svg>
