<?xml version="1.0" encoding="UTF-8"?>
<!DOCTYPE svg>
<svg data-animation-duration="2s" preserveAspectRatio="xMidYMid meet" version="1.1" viewBox="-50 -50 100 100" xmlns:xlink="http://www.w3.org/1999/xlink" xmlns="http://www.w3.org/2000/svg"><style>/* <![CDATA[ */ @keyframes svg-10-b-line-group-anim{0%{transform:translate(0,-60%)}to{transform:translate(0,-56%)}}.svg-10-b-polyline{fill:none}.svg-10-b-line,.svg-10-b-polyline{stroke:#000;stroke-width:2}.svg-10-b-outer-line-group{animation:svg-10-b-line-group-anim 2s linear infinite}.svg-10-b-base-poly{stroke:#000;stroke-width:2;fill:none} /* ]]> */</style><defs><clipPath id="svg-10-b-upper-clip-path"><polygon class="svg-10-b-polygon" points="0,-30 25.980762481689453,-15 0,0 -25.980762481689453,-15"/></clipPath><g class="svg-10-b-g" id="svg-10-b-line-group" transform="skewY(30)"><line class="svg-10-b-line" x1="-50" x2="50" y1="0" y2="0"/><line class="svg-10-b-line" x1="-50" x2="50" y1="4" y2="4"/><line class="svg-10-b-line" x1="-50" x2="50" y1="8" y2="8"/><line class="svg-10-b-line" x1="-50" x2="50" y1="12" y2="12"/><line class="svg-10-b-line" x1="-50" x2="50" y1="16" y2="16"/><line class="svg-10-b-line" x1="-50" x2="50" y1="20" y2="20"/><line class="svg-10-b-line" x1="-50" x2="50" y1="24" y2="24"/><line class="svg-10-b-line" x1="-50" x2="50" y1="28" y2="28"/><line class="svg-10-b-line" x1="-50" x2="50" y1="32" y2="32"/><line class="svg-10-b-line" x1="-50" x2="50" y1="36" y2="36"/><line class="svg-10-b-line" x1="-50" x2="50" y1="40" y2="40"/><line class="svg-10-b-line" x1="-50" x2="50" y1="44" y2="44"/><line class="svg-10-b-line" x1="-50" x2="50" y1="48" y2="48"/><line class="svg-10-b-line" x1="-50" x2="50" y1="52" y2="52"/><line class="svg-10-b-line" x1="-50" x2="50" y1="56" y2="56"/><line class="svg-10-b-line" x1="-50" x2="50" y1="60" y2="60"/></g><g class="svg-10-b-g" clip-path="url(#svg-10-b-upper-clip-path)" id="svg-10-b-moving-line-group"><g class="svg-10-b-g svg-10-b-outer-line-group"><use class="svg-10-b-use" href="#svg-10-b-line-group"/></g></g></defs><use class="svg-10-b-use" href="#svg-10-b-moving-line-group" transform="rotate(0, 0, 0)"/><use class="svg-10-b-use" href="#svg-10-b-moving-line-group" transform="rotate(120, 0, 0)"/><use class="svg-10-b-use" href="#svg-10-b-moving-line-group" transform="rotate(240, 0, 0)"/><polygon class="svg-10-b-polygon svg-10-b-base-poly" points="0,-30 25.980762481689453,-15 25.980762481689453,15 3.673940610695063e-15,30 -25.980762481689453,15 -25.980762481689453,-15"/><line class="svg-10-b-line" x1="0" x2="3.673940610695063e-15" y1="0" y2="30"/><polyline class="svg-10-b-polyline" points="25.980762481689453,-15 0,0 -25.980762481689453,-15"/><title>ANIMATION 10 - VARIATION B</title><desc><p>Created by <a href="http://andrew.wang-hoyer.com" target="_blank" rel="noopener">Andrew Wang-Hoyer</a>.</p></desc></svg>
