<?xml version="1.0" encoding="UTF-8"?>
<!DOCTYPE svg><svg data-animation-duration="2s" preserveAspectRatio="xMidYMid meet" version="1.1" viewBox="-100 -100 200 200" xmlns:xlink="http://www.w3.org/1999/xlink" xmlns="http://www.w3.org/2000/svg"><style>/* <![CDATA[ */ @keyframes svg-05-b-first-circle{0%{transform:translate(0,0)}to{transform:translate(0,2.272727272727273%)}}@keyframes svg-05-b-second-circle{0%{transform:translate(2.272727272727273%,2.272727272727273%)}to{transform:translate(-2.272727272727273%,-2.272727272727273%)}}.svg-05-b-circle:nth-child(1){fill:none;stroke:#000;stroke-width:.5}.svg-05-b-circle:nth-child(2){fill:#000;stroke:none}.svg-05-b-circle:nth-child(1){animation:svg-05-b-first-circle 2s ease-in-out alternate infinite}.svg-05-b-circle:nth-child(2){animation:svg-05-b-second-circle 2s ease-in-out alternate infinite} /* ]]> */</style><g class="svg-05-b-g"><circle class="svg-05-b-circle" cx="-81.81818389892578" cy="-81.81818389892578" r="2"/><circle class="svg-05-b-circle" cx="-81.81818389892578" cy="-81.81818389892578" r="2"/></g><g class="svg-05-b-g"><circle class="svg-05-b-circle" cx="-81.81818389892578" cy="-63.6363639831543" r="2"/><circle class="svg-05-b-circle" cx="-81.81818389892578" cy="-63.6363639831543" r="2"/></g><g class="svg-05-b-g"><circle class="svg-05-b-circle" cx="-81.81818389892578" cy="-45.45454406738281" r="2"/><circle class="svg-05-b-circle" cx="-81.81818389892578" cy="-45.45454406738281" r="2"/></g><g class="svg-05-b-g"><circle class="svg-05-b-circle" cx="-81.81818389892578" cy="-27.272727966308594" r="2"/><circle class="svg-05-b-circle" cx="-81.81818389892578" cy="-27.272727966308594" r="2"/></g><g class="svg-05-b-g"><circle class="svg-05-b-circle" cx="-81.81818389892578" cy="-9.090909004211426" r="2"/><circle class="svg-05-b-circle" cx="-81.81818389892578" cy="-9.090909004211426" r="2"/></g><g class="svg-05-b-g"><circle class="svg-05-b-circle" cx="-81.81818389892578" cy="9.090909004211426" r="2"/><circle class="svg-05-b-circle" cx="-81.81818389892578" cy="9.090909004211426" r="2"/></g><g class="svg-05-b-g"><circle class="svg-05-b-circle" cx="-81.81818389892578" cy="27.272727966308594" r="2"/><circle class="svg-05-b-circle" cx="-81.81818389892578" cy="27.272727966308594" r="2"/></g><g class="svg-05-b-g"><circle class="svg-05-b-circle" cx="-81.81818389892578" cy="45.45454406738281" r="2"/><circle class="svg-05-b-circle" cx="-81.81818389892578" cy="45.45454406738281" r="2"/></g><g class="svg-05-b-g"><circle class="svg-05-b-circle" cx="-81.81818389892578" cy="63.6363639831543" r="2"/><circle class="svg-05-b-circle" cx="-81.81818389892578" cy="63.6363639831543" r="2"/></g><g class="svg-05-b-g"><circle class="svg-05-b-circle" cx="-81.81818389892578" cy="81.81818389892578" r="2"/><circle class="svg-05-b-circle" cx="-81.81818389892578" cy="81.81818389892578" r="2"/></g><g class="svg-05-b-g"><circle class="svg-05-b-circle" cx="-63.6363639831543" cy="-81.81818389892578" r="2"/><circle class="svg-05-b-circle" cx="-63.6363639831543" cy="-81.81818389892578" r="2"/></g><g class="svg-05-b-g"><circle class="svg-05-b-circle" cx="-63.6363639831543" cy="-63.6363639831543" r="2"/><circle class="svg-05-b-circle" cx="-63.6363639831543" cy="-63.6363639831543" r="2"/></g><g class="svg-05-b-g"><circle class="svg-05-b-circle" cx="-63.6363639831543" cy="-45.45454406738281" r="2"/><circle class="svg-05-b-circle" cx="-63.6363639831543" cy="-45.45454406738281" r="2"/></g><g class="svg-05-b-g"><circle class="svg-05-b-circle" cx="-63.6363639831543" cy="-27.272727966308594" r="2"/><circle class="svg-05-b-circle" cx="-63.6363639831543" cy="-27.272727966308594" r="2"/></g><g class="svg-05-b-g"><circle class="svg-05-b-circle" cx="-63.6363639831543" cy="-9.090909004211426" r="2"/><circle class="svg-05-b-circle" cx="-63.6363639831543" cy="-9.090909004211426" r="2"/></g><g class="svg-05-b-g"><circle class="svg-05-b-circle" cx="-63.6363639831543" cy="9.090909004211426" r="2"/><circle class="svg-05-b-circle" cx="-63.6363639831543" cy="9.090909004211426" r="2"/></g><g class="svg-05-b-g"><circle class="svg-05-b-circle" cx="-63.6363639831543" cy="27.272727966308594" r="2"/><circle class="svg-05-b-circle" cx="-63.6363639831543" cy="27.272727966308594" r="2"/></g><g class="svg-05-b-g"><circle class="svg-05-b-circle" cx="-63.6363639831543" cy="45.45454406738281" r="2"/><circle class="svg-05-b-circle" cx="-63.6363639831543" cy="45.45454406738281" r="2"/></g><g class="svg-05-b-g"><circle class="svg-05-b-circle" cx="-63.6363639831543" cy="63.6363639831543" r="2"/><circle class="svg-05-b-circle" cx="-63.6363639831543" cy="63.6363639831543" r="2"/></g><g class="svg-05-b-g"><circle class="svg-05-b-circle" cx="-63.6363639831543" cy="81.81818389892578" r="2"/><circle class="svg-05-b-circle" cx="-63.6363639831543" cy="81.81818389892578" r="2"/></g><g class="svg-05-b-g"><circle class="svg-05-b-circle" cx="-45.45454406738281" cy="-81.81818389892578" r="2"/><circle class="svg-05-b-circle" cx="-45.45454406738281" cy="-81.81818389892578" r="2"/></g><g class="svg-05-b-g"><circle class="svg-05-b-circle" cx="-45.45454406738281" cy="-63.6363639831543" r="2"/><circle class="svg-05-b-circle" cx="-45.45454406738281" cy="-63.6363639831543" r="2"/></g><g class="svg-05-b-g"><circle class="svg-05-b-circle" cx="-45.45454406738281" cy="-45.45454406738281" r="2"/><circle class="svg-05-b-circle" cx="-45.45454406738281" cy="-45.45454406738281" r="2"/></g><g class="svg-05-b-g"><circle class="svg-05-b-circle" cx="-45.45454406738281" cy="-27.272727966308594" r="2"/><circle class="svg-05-b-circle" cx="-45.45454406738281" cy="-27.272727966308594" r="2"/></g><g class="svg-05-b-g"><circle class="svg-05-b-circle" cx="-45.45454406738281" cy="-9.090909004211426" r="2"/><circle class="svg-05-b-circle" cx="-45.45454406738281" cy="-9.090909004211426" r="2"/></g><g class="svg-05-b-g"><circle class="svg-05-b-circle" cx="-45.45454406738281" cy="9.090909004211426" r="2"/><circle class="svg-05-b-circle" cx="-45.45454406738281" cy="9.090909004211426" r="2"/></g><g class="svg-05-b-g"><circle class="svg-05-b-circle" cx="-45.45454406738281" cy="27.272727966308594" r="2"/><circle class="svg-05-b-circle" cx="-45.45454406738281" cy="27.272727966308594" r="2"/></g><g class="svg-05-b-g"><circle class="svg-05-b-circle" cx="-45.45454406738281" cy="45.45454406738281" r="2"/><circle class="svg-05-b-circle" cx="-45.45454406738281" cy="45.45454406738281" r="2"/></g><g class="svg-05-b-g"><circle class="svg-05-b-circle" cx="-45.45454406738281" cy="63.6363639831543" r="2"/><circle class="svg-05-b-circle" cx="-45.45454406738281" cy="63.6363639831543" r="2"/></g><g class="svg-05-b-g"><circle class="svg-05-b-circle" cx="-45.45454406738281" cy="81.81818389892578" r="2"/><circle class="svg-05-b-circle" cx="-45.45454406738281" cy="81.81818389892578" r="2"/></g><g class="svg-05-b-g"><circle class="svg-05-b-circle" cx="-27.272727966308594" cy="-81.81818389892578" r="2"/><circle class="svg-05-b-circle" cx="-27.272727966308594" cy="-81.81818389892578" r="2"/></g><g class="svg-05-b-g"><circle class="svg-05-b-circle" cx="-27.272727966308594" cy="-63.6363639831543" r="2"/><circle class="svg-05-b-circle" cx="-27.272727966308594" cy="-63.6363639831543" r="2"/></g><g class="svg-05-b-g"><circle class="svg-05-b-circle" cx="-27.272727966308594" cy="-45.45454406738281" r="2"/><circle class="svg-05-b-circle" cx="-27.272727966308594" cy="-45.45454406738281" r="2"/></g><g class="svg-05-b-g"><circle class="svg-05-b-circle" cx="-27.272727966308594" cy="-27.272727966308594" r="2"/><circle class="svg-05-b-circle" cx="-27.272727966308594" cy="-27.272727966308594" r="2"/></g><g class="svg-05-b-g"><circle class="svg-05-b-circle" cx="-27.272727966308594" cy="-9.090909004211426" r="2"/><circle class="svg-05-b-circle" cx="-27.272727966308594" cy="-9.090909004211426" r="2"/></g><g class="svg-05-b-g"><circle class="svg-05-b-circle" cx="-27.272727966308594" cy="9.090909004211426" r="2"/><circle class="svg-05-b-circle" cx="-27.272727966308594" cy="9.090909004211426" r="2"/></g><g class="svg-05-b-g"><circle class="svg-05-b-circle" cx="-27.272727966308594" cy="27.272727966308594" r="2"/><circle class="svg-05-b-circle" cx="-27.272727966308594" cy="27.272727966308594" r="2"/></g><g class="svg-05-b-g"><circle class="svg-05-b-circle" cx="-27.272727966308594" cy="45.45454406738281" r="2"/><circle class="svg-05-b-circle" cx="-27.272727966308594" cy="45.45454406738281" r="2"/></g><g class="svg-05-b-g"><circle class="svg-05-b-circle" cx="-27.272727966308594" cy="63.6363639831543" r="2"/><circle class="svg-05-b-circle" cx="-27.272727966308594" cy="63.6363639831543" r="2"/></g><g class="svg-05-b-g"><circle class="svg-05-b-circle" cx="-27.272727966308594" cy="81.81818389892578" r="2"/><circle class="svg-05-b-circle" cx="-27.272727966308594" cy="81.81818389892578" r="2"/></g><g class="svg-05-b-g"><circle class="svg-05-b-circle" cx="-9.090909004211426" cy="-81.81818389892578" r="2"/><circle class="svg-05-b-circle" cx="-9.090909004211426" cy="-81.81818389892578" r="2"/></g><g class="svg-05-b-g"><circle class="svg-05-b-circle" cx="-9.090909004211426" cy="-63.6363639831543" r="2"/><circle class="svg-05-b-circle" cx="-9.090909004211426" cy="-63.6363639831543" r="2"/></g><g class="svg-05-b-g"><circle class="svg-05-b-circle" cx="-9.090909004211426" cy="-45.45454406738281" r="2"/><circle class="svg-05-b-circle" cx="-9.090909004211426" cy="-45.45454406738281" r="2"/></g><g class="svg-05-b-g"><circle class="svg-05-b-circle" cx="-9.090909004211426" cy="-27.272727966308594" r="2"/><circle class="svg-05-b-circle" cx="-9.090909004211426" cy="-27.272727966308594" r="2"/></g><g class="svg-05-b-g"><circle class="svg-05-b-circle" cx="-9.090909004211426" cy="-9.090909004211426" r="2"/><circle class="svg-05-b-circle" cx="-9.090909004211426" cy="-9.090909004211426" r="2"/></g><g class="svg-05-b-g"><circle class="svg-05-b-circle" cx="-9.090909004211426" cy="9.090909004211426" r="2"/><circle class="svg-05-b-circle" cx="-9.090909004211426" cy="9.090909004211426" r="2"/></g><g class="svg-05-b-g"><circle class="svg-05-b-circle" cx="-9.090909004211426" cy="27.272727966308594" r="2"/><circle class="svg-05-b-circle" cx="-9.090909004211426" cy="27.272727966308594" r="2"/></g><g class="svg-05-b-g"><circle class="svg-05-b-circle" cx="-9.090909004211426" cy="45.45454406738281" r="2"/><circle class="svg-05-b-circle" cx="-9.090909004211426" cy="45.45454406738281" r="2"/></g><g class="svg-05-b-g"><circle class="svg-05-b-circle" cx="-9.090909004211426" cy="63.6363639831543" r="2"/><circle class="svg-05-b-circle" cx="-9.090909004211426" cy="63.6363639831543" r="2"/></g><g class="svg-05-b-g"><circle class="svg-05-b-circle" cx="-9.090909004211426" cy="81.81818389892578" r="2"/><circle class="svg-05-b-circle" cx="-9.090909004211426" cy="81.81818389892578" r="2"/></g><g class="svg-05-b-g"><circle class="svg-05-b-circle" cx="9.090909004211426" cy="-81.81818389892578" r="2"/><circle class="svg-05-b-circle" cx="9.090909004211426" cy="-81.81818389892578" r="2"/></g><g class="svg-05-b-g"><circle class="svg-05-b-circle" cx="9.090909004211426" cy="-63.6363639831543" r="2"/><circle class="svg-05-b-circle" cx="9.090909004211426" cy="-63.6363639831543" r="2"/></g><g class="svg-05-b-g"><circle class="svg-05-b-circle" cx="9.090909004211426" cy="-45.45454406738281" r="2"/><circle class="svg-05-b-circle" cx="9.090909004211426" cy="-45.45454406738281" r="2"/></g><g class="svg-05-b-g"><circle class="svg-05-b-circle" cx="9.090909004211426" cy="-27.272727966308594" r="2"/><circle class="svg-05-b-circle" cx="9.090909004211426" cy="-27.272727966308594" r="2"/></g><g class="svg-05-b-g"><circle class="svg-05-b-circle" cx="9.090909004211426" cy="-9.090909004211426" r="2"/><circle class="svg-05-b-circle" cx="9.090909004211426" cy="-9.090909004211426" r="2"/></g><g class="svg-05-b-g"><circle class="svg-05-b-circle" cx="9.090909004211426" cy="9.090909004211426" r="2"/><circle class="svg-05-b-circle" cx="9.090909004211426" cy="9.090909004211426" r="2"/></g><g class="svg-05-b-g"><circle class="svg-05-b-circle" cx="9.090909004211426" cy="27.272727966308594" r="2"/><circle class="svg-05-b-circle" cx="9.090909004211426" cy="27.272727966308594" r="2"/></g><g class="svg-05-b-g"><circle class="svg-05-b-circle" cx="9.090909004211426" cy="45.45454406738281" r="2"/><circle class="svg-05-b-circle" cx="9.090909004211426" cy="45.45454406738281" r="2"/></g><g class="svg-05-b-g"><circle class="svg-05-b-circle" cx="9.090909004211426" cy="63.6363639831543" r="2"/><circle class="svg-05-b-circle" cx="9.090909004211426" cy="63.6363639831543" r="2"/></g><g class="svg-05-b-g"><circle class="svg-05-b-circle" cx="9.090909004211426" cy="81.81818389892578" r="2"/><circle class="svg-05-b-circle" cx="9.090909004211426" cy="81.81818389892578" r="2"/></g><g class="svg-05-b-g"><circle class="svg-05-b-circle" cx="27.272727966308594" cy="-81.81818389892578" r="2"/><circle class="svg-05-b-circle" cx="27.272727966308594" cy="-81.81818389892578" r="2"/></g><g class="svg-05-b-g"><circle class="svg-05-b-circle" cx="27.272727966308594" cy="-63.6363639831543" r="2"/><circle class="svg-05-b-circle" cx="27.272727966308594" cy="-63.6363639831543" r="2"/></g><g class="svg-05-b-g"><circle class="svg-05-b-circle" cx="27.272727966308594" cy="-45.45454406738281" r="2"/><circle class="svg-05-b-circle" cx="27.272727966308594" cy="-45.45454406738281" r="2"/></g><g class="svg-05-b-g"><circle class="svg-05-b-circle" cx="27.272727966308594" cy="-27.272727966308594" r="2"/><circle class="svg-05-b-circle" cx="27.272727966308594" cy="-27.272727966308594" r="2"/></g><g class="svg-05-b-g"><circle class="svg-05-b-circle" cx="27.272727966308594" cy="-9.090909004211426" r="2"/><circle class="svg-05-b-circle" cx="27.272727966308594" cy="-9.090909004211426" r="2"/></g><g class="svg-05-b-g"><circle class="svg-05-b-circle" cx="27.272727966308594" cy="9.090909004211426" r="2"/><circle class="svg-05-b-circle" cx="27.272727966308594" cy="9.090909004211426" r="2"/></g><g class="svg-05-b-g"><circle class="svg-05-b-circle" cx="27.272727966308594" cy="27.272727966308594" r="2"/><circle class="svg-05-b-circle" cx="27.272727966308594" cy="27.272727966308594" r="2"/></g><g class="svg-05-b-g"><circle class="svg-05-b-circle" cx="27.272727966308594" cy="45.45454406738281" r="2"/><circle class="svg-05-b-circle" cx="27.272727966308594" cy="45.45454406738281" r="2"/></g><g class="svg-05-b-g"><circle class="svg-05-b-circle" cx="27.272727966308594" cy="63.6363639831543" r="2"/><circle class="svg-05-b-circle" cx="27.272727966308594" cy="63.6363639831543" r="2"/></g><g class="svg-05-b-g"><circle class="svg-05-b-circle" cx="27.272727966308594" cy="81.81818389892578" r="2"/><circle class="svg-05-b-circle" cx="27.272727966308594" cy="81.81818389892578" r="2"/></g><g class="svg-05-b-g"><circle class="svg-05-b-circle" cx="45.45454406738281" cy="-81.81818389892578" r="2"/><circle class="svg-05-b-circle" cx="45.45454406738281" cy="-81.81818389892578" r="2"/></g><g class="svg-05-b-g"><circle class="svg-05-b-circle" cx="45.45454406738281" cy="-63.6363639831543" r="2"/><circle class="svg-05-b-circle" cx="45.45454406738281" cy="-63.6363639831543" r="2"/></g><g class="svg-05-b-g"><circle class="svg-05-b-circle" cx="45.45454406738281" cy="-45.45454406738281" r="2"/><circle class="svg-05-b-circle" cx="45.45454406738281" cy="-45.45454406738281" r="2"/></g><g class="svg-05-b-g"><circle class="svg-05-b-circle" cx="45.45454406738281" cy="-27.272727966308594" r="2"/><circle class="svg-05-b-circle" cx="45.45454406738281" cy="-27.272727966308594" r="2"/></g><g class="svg-05-b-g"><circle class="svg-05-b-circle" cx="45.45454406738281" cy="-9.090909004211426" r="2"/><circle class="svg-05-b-circle" cx="45.45454406738281" cy="-9.090909004211426" r="2"/></g><g class="svg-05-b-g"><circle class="svg-05-b-circle" cx="45.45454406738281" cy="9.090909004211426" r="2"/><circle class="svg-05-b-circle" cx="45.45454406738281" cy="9.090909004211426" r="2"/></g><g class="svg-05-b-g"><circle class="svg-05-b-circle" cx="45.45454406738281" cy="27.272727966308594" r="2"/><circle class="svg-05-b-circle" cx="45.45454406738281" cy="27.272727966308594" r="2"/></g><g class="svg-05-b-g"><circle class="svg-05-b-circle" cx="45.45454406738281" cy="45.45454406738281" r="2"/><circle class="svg-05-b-circle" cx="45.45454406738281" cy="45.45454406738281" r="2"/></g><g class="svg-05-b-g"><circle class="svg-05-b-circle" cx="45.45454406738281" cy="63.6363639831543" r="2"/><circle class="svg-05-b-circle" cx="45.45454406738281" cy="63.6363639831543" r="2"/></g><g class="svg-05-b-g"><circle class="svg-05-b-circle" cx="45.45454406738281" cy="81.81818389892578" r="2"/><circle class="svg-05-b-circle" cx="45.45454406738281" cy="81.81818389892578" r="2"/></g><g class="svg-05-b-g"><circle class="svg-05-b-circle" cx="63.6363639831543" cy="-81.81818389892578" r="2"/><circle class="svg-05-b-circle" cx="63.6363639831543" cy="-81.81818389892578" r="2"/></g><g class="svg-05-b-g"><circle class="svg-05-b-circle" cx="63.6363639831543" cy="-63.6363639831543" r="2"/><circle class="svg-05-b-circle" cx="63.6363639831543" cy="-63.6363639831543" r="2"/></g><g class="svg-05-b-g"><circle class="svg-05-b-circle" cx="63.6363639831543" cy="-45.45454406738281" r="2"/><circle class="svg-05-b-circle" cx="63.6363639831543" cy="-45.45454406738281" r="2"/></g><g class="svg-05-b-g"><circle class="svg-05-b-circle" cx="63.6363639831543" cy="-27.272727966308594" r="2"/><circle class="svg-05-b-circle" cx="63.6363639831543" cy="-27.272727966308594" r="2"/></g><g class="svg-05-b-g"><circle class="svg-05-b-circle" cx="63.6363639831543" cy="-9.090909004211426" r="2"/><circle class="svg-05-b-circle" cx="63.6363639831543" cy="-9.090909004211426" r="2"/></g><g class="svg-05-b-g"><circle class="svg-05-b-circle" cx="63.6363639831543" cy="9.090909004211426" r="2"/><circle class="svg-05-b-circle" cx="63.6363639831543" cy="9.090909004211426" r="2"/></g><g class="svg-05-b-g"><circle class="svg-05-b-circle" cx="63.6363639831543" cy="27.272727966308594" r="2"/><circle class="svg-05-b-circle" cx="63.6363639831543" cy="27.272727966308594" r="2"/></g><g class="svg-05-b-g"><circle class="svg-05-b-circle" cx="63.6363639831543" cy="45.45454406738281" r="2"/><circle class="svg-05-b-circle" cx="63.6363639831543" cy="45.45454406738281" r="2"/></g><g class="svg-05-b-g"><circle class="svg-05-b-circle" cx="63.6363639831543" cy="63.6363639831543" r="2"/><circle class="svg-05-b-circle" cx="63.6363639831543" cy="63.6363639831543" r="2"/></g><g class="svg-05-b-g"><circle class="svg-05-b-circle" cx="63.6363639831543" cy="81.81818389892578" r="2"/><circle class="svg-05-b-circle" cx="63.6363639831543" cy="81.81818389892578" r="2"/></g><g class="svg-05-b-g"><circle class="svg-05-b-circle" cx="81.81818389892578" cy="-81.81818389892578" r="2"/><circle class="svg-05-b-circle" cx="81.81818389892578" cy="-81.81818389892578" r="2"/></g><g class="svg-05-b-g"><circle class="svg-05-b-circle" cx="81.81818389892578" cy="-63.6363639831543" r="2"/><circle class="svg-05-b-circle" cx="81.81818389892578" cy="-63.6363639831543" r="2"/></g><g class="svg-05-b-g"><circle class="svg-05-b-circle" cx="81.81818389892578" cy="-45.45454406738281" r="2"/><circle class="svg-05-b-circle" cx="81.81818389892578" cy="-45.45454406738281" r="2"/></g><g class="svg-05-b-g"><circle class="svg-05-b-circle" cx="81.81818389892578" cy="-27.272727966308594" r="2"/><circle class="svg-05-b-circle" cx="81.81818389892578" cy="-27.272727966308594" r="2"/></g><g class="svg-05-b-g"><circle class="svg-05-b-circle" cx="81.81818389892578" cy="-9.090909004211426" r="2"/><circle class="svg-05-b-circle" cx="81.81818389892578" cy="-9.090909004211426" r="2"/></g><g class="svg-05-b-g"><circle class="svg-05-b-circle" cx="81.81818389892578" cy="9.090909004211426" r="2"/><circle class="svg-05-b-circle" cx="81.81818389892578" cy="9.090909004211426" r="2"/></g><g class="svg-05-b-g"><circle class="svg-05-b-circle" cx="81.81818389892578" cy="27.272727966308594" r="2"/><circle class="svg-05-b-circle" cx="81.81818389892578" cy="27.272727966308594" r="2"/></g><g class="svg-05-b-g"><circle class="svg-05-b-circle" cx="81.81818389892578" cy="45.45454406738281" r="2"/><circle class="svg-05-b-circle" cx="81.81818389892578" cy="45.45454406738281" r="2"/></g><g class="svg-05-b-g"><circle class="svg-05-b-circle" cx="81.81818389892578" cy="63.6363639831543" r="2"/><circle class="svg-05-b-circle" cx="81.81818389892578" cy="63.6363639831543" r="2"/></g><g class="svg-05-b-g"><circle class="svg-05-b-circle" cx="81.81818389892578" cy="81.81818389892578" r="2"/><circle class="svg-05-b-circle" cx="81.81818389892578" cy="81.81818389892578" r="2"/></g><title>ANIMATION 05 - VARIATION B</title><desc><p>Created by <a href="http://andrew.wang-hoyer.com" target="_blank" rel="noopener">Andrew Wang-Hoyer</a>.</p></desc></svg>
