<?xml version="1.0" encoding="UTF-8"?>
<!DOCTYPE svg>
<svg data-animation-duration="1s" preserveAspectRatio="xMidYMid meet" version="1.1" viewBox="-100 -100 200 200" xmlns:xlink="http://www.w3.org/1999/xlink" xmlns="http://www.w3.org/2000/svg"><style>/* <![CDATA[ */ @keyframes svg-05-c-first-circle{0%{transform:scale(1)}to{transform:scale(1.05)}}.svg-05-c-circle:nth-child(1){fill:none;stroke:#000;stroke-width:.5;transform-origin:0 0}.svg-05-c-circle:nth-child(2){fill:#000;stroke:none}.svg-05-c-circle:nth-child(1){animation:svg-05-c-first-circle 1s ease-out alternate infinite} /* ]]> */</style><g class="svg-05-c-g"><circle class="svg-05-c-circle" cx="-81.81818389892578" cy="-81.81818389892578" r="2"/><circle class="svg-05-c-circle" cx="-81.81818389892578" cy="-81.81818389892578" r="2"/></g><g class="svg-05-c-g"><circle class="svg-05-c-circle" cx="-81.81818389892578" cy="-63.6363639831543" r="2"/><circle class="svg-05-c-circle" cx="-81.81818389892578" cy="-63.6363639831543" r="2"/></g><g class="svg-05-c-g"><circle class="svg-05-c-circle" cx="-81.81818389892578" cy="-45.45454406738281" r="2"/><circle class="svg-05-c-circle" cx="-81.81818389892578" cy="-45.45454406738281" r="2"/></g><g class="svg-05-c-g"><circle class="svg-05-c-circle" cx="-81.81818389892578" cy="-27.272727966308594" r="2"/><circle class="svg-05-c-circle" cx="-81.81818389892578" cy="-27.272727966308594" r="2"/></g><g class="svg-05-c-g"><circle class="svg-05-c-circle" cx="-81.81818389892578" cy="-9.090909004211426" r="2"/><circle class="svg-05-c-circle" cx="-81.81818389892578" cy="-9.090909004211426" r="2"/></g><g class="svg-05-c-g"><circle class="svg-05-c-circle" cx="-81.81818389892578" cy="9.090909004211426" r="2"/><circle class="svg-05-c-circle" cx="-81.81818389892578" cy="9.090909004211426" r="2"/></g><g class="svg-05-c-g"><circle class="svg-05-c-circle" cx="-81.81818389892578" cy="27.272727966308594" r="2"/><circle class="svg-05-c-circle" cx="-81.81818389892578" cy="27.272727966308594" r="2"/></g><g class="svg-05-c-g"><circle class="svg-05-c-circle" cx="-81.81818389892578" cy="45.45454406738281" r="2"/><circle class="svg-05-c-circle" cx="-81.81818389892578" cy="45.45454406738281" r="2"/></g><g class="svg-05-c-g"><circle class="svg-05-c-circle" cx="-81.81818389892578" cy="63.6363639831543" r="2"/><circle class="svg-05-c-circle" cx="-81.81818389892578" cy="63.6363639831543" r="2"/></g><g class="svg-05-c-g"><circle class="svg-05-c-circle" cx="-81.81818389892578" cy="81.81818389892578" r="2"/><circle class="svg-05-c-circle" cx="-81.81818389892578" cy="81.81818389892578" r="2"/></g><g class="svg-05-c-g"><circle class="svg-05-c-circle" cx="-63.6363639831543" cy="-81.81818389892578" r="2"/><circle class="svg-05-c-circle" cx="-63.6363639831543" cy="-81.81818389892578" r="2"/></g><g class="svg-05-c-g"><circle class="svg-05-c-circle" cx="-63.6363639831543" cy="-63.6363639831543" r="2"/><circle class="svg-05-c-circle" cx="-63.6363639831543" cy="-63.6363639831543" r="2"/></g><g class="svg-05-c-g"><circle class="svg-05-c-circle" cx="-63.6363639831543" cy="-45.45454406738281" r="2"/><circle class="svg-05-c-circle" cx="-63.6363639831543" cy="-45.45454406738281" r="2"/></g><g class="svg-05-c-g"><circle class="svg-05-c-circle" cx="-63.6363639831543" cy="-27.272727966308594" r="2"/><circle class="svg-05-c-circle" cx="-63.6363639831543" cy="-27.272727966308594" r="2"/></g><g class="svg-05-c-g"><circle class="svg-05-c-circle" cx="-63.6363639831543" cy="-9.090909004211426" r="2"/><circle class="svg-05-c-circle" cx="-63.6363639831543" cy="-9.090909004211426" r="2"/></g><g class="svg-05-c-g"><circle class="svg-05-c-circle" cx="-63.6363639831543" cy="9.090909004211426" r="2"/><circle class="svg-05-c-circle" cx="-63.6363639831543" cy="9.090909004211426" r="2"/></g><g class="svg-05-c-g"><circle class="svg-05-c-circle" cx="-63.6363639831543" cy="27.272727966308594" r="2"/><circle class="svg-05-c-circle" cx="-63.6363639831543" cy="27.272727966308594" r="2"/></g><g class="svg-05-c-g"><circle class="svg-05-c-circle" cx="-63.6363639831543" cy="45.45454406738281" r="2"/><circle class="svg-05-c-circle" cx="-63.6363639831543" cy="45.45454406738281" r="2"/></g><g class="svg-05-c-g"><circle class="svg-05-c-circle" cx="-63.6363639831543" cy="63.6363639831543" r="2"/><circle class="svg-05-c-circle" cx="-63.6363639831543" cy="63.6363639831543" r="2"/></g><g class="svg-05-c-g"><circle class="svg-05-c-circle" cx="-63.6363639831543" cy="81.81818389892578" r="2"/><circle class="svg-05-c-circle" cx="-63.6363639831543" cy="81.81818389892578" r="2"/></g><g class="svg-05-c-g"><circle class="svg-05-c-circle" cx="-45.45454406738281" cy="-81.81818389892578" r="2"/><circle class="svg-05-c-circle" cx="-45.45454406738281" cy="-81.81818389892578" r="2"/></g><g class="svg-05-c-g"><circle class="svg-05-c-circle" cx="-45.45454406738281" cy="-63.6363639831543" r="2"/><circle class="svg-05-c-circle" cx="-45.45454406738281" cy="-63.6363639831543" r="2"/></g><g class="svg-05-c-g"><circle class="svg-05-c-circle" cx="-45.45454406738281" cy="-45.45454406738281" r="2"/><circle class="svg-05-c-circle" cx="-45.45454406738281" cy="-45.45454406738281" r="2"/></g><g class="svg-05-c-g"><circle class="svg-05-c-circle" cx="-45.45454406738281" cy="-27.272727966308594" r="2"/><circle class="svg-05-c-circle" cx="-45.45454406738281" cy="-27.272727966308594" r="2"/></g><g class="svg-05-c-g"><circle class="svg-05-c-circle" cx="-45.45454406738281" cy="-9.090909004211426" r="2"/><circle class="svg-05-c-circle" cx="-45.45454406738281" cy="-9.090909004211426" r="2"/></g><g class="svg-05-c-g"><circle class="svg-05-c-circle" cx="-45.45454406738281" cy="9.090909004211426" r="2"/><circle class="svg-05-c-circle" cx="-45.45454406738281" cy="9.090909004211426" r="2"/></g><g class="svg-05-c-g"><circle class="svg-05-c-circle" cx="-45.45454406738281" cy="27.272727966308594" r="2"/><circle class="svg-05-c-circle" cx="-45.45454406738281" cy="27.272727966308594" r="2"/></g><g class="svg-05-c-g"><circle class="svg-05-c-circle" cx="-45.45454406738281" cy="45.45454406738281" r="2"/><circle class="svg-05-c-circle" cx="-45.45454406738281" cy="45.45454406738281" r="2"/></g><g class="svg-05-c-g"><circle class="svg-05-c-circle" cx="-45.45454406738281" cy="63.6363639831543" r="2"/><circle class="svg-05-c-circle" cx="-45.45454406738281" cy="63.6363639831543" r="2"/></g><g class="svg-05-c-g"><circle class="svg-05-c-circle" cx="-45.45454406738281" cy="81.81818389892578" r="2"/><circle class="svg-05-c-circle" cx="-45.45454406738281" cy="81.81818389892578" r="2"/></g><g class="svg-05-c-g"><circle class="svg-05-c-circle" cx="-27.272727966308594" cy="-81.81818389892578" r="2"/><circle class="svg-05-c-circle" cx="-27.272727966308594" cy="-81.81818389892578" r="2"/></g><g class="svg-05-c-g"><circle class="svg-05-c-circle" cx="-27.272727966308594" cy="-63.6363639831543" r="2"/><circle class="svg-05-c-circle" cx="-27.272727966308594" cy="-63.6363639831543" r="2"/></g><g class="svg-05-c-g"><circle class="svg-05-c-circle" cx="-27.272727966308594" cy="-45.45454406738281" r="2"/><circle class="svg-05-c-circle" cx="-27.272727966308594" cy="-45.45454406738281" r="2"/></g><g class="svg-05-c-g"><circle class="svg-05-c-circle" cx="-27.272727966308594" cy="-27.272727966308594" r="2"/><circle class="svg-05-c-circle" cx="-27.272727966308594" cy="-27.272727966308594" r="2"/></g><g class="svg-05-c-g"><circle class="svg-05-c-circle" cx="-27.272727966308594" cy="-9.090909004211426" r="2"/><circle class="svg-05-c-circle" cx="-27.272727966308594" cy="-9.090909004211426" r="2"/></g><g class="svg-05-c-g"><circle class="svg-05-c-circle" cx="-27.272727966308594" cy="9.090909004211426" r="2"/><circle class="svg-05-c-circle" cx="-27.272727966308594" cy="9.090909004211426" r="2"/></g><g class="svg-05-c-g"><circle class="svg-05-c-circle" cx="-27.272727966308594" cy="27.272727966308594" r="2"/><circle class="svg-05-c-circle" cx="-27.272727966308594" cy="27.272727966308594" r="2"/></g><g class="svg-05-c-g"><circle class="svg-05-c-circle" cx="-27.272727966308594" cy="45.45454406738281" r="2"/><circle class="svg-05-c-circle" cx="-27.272727966308594" cy="45.45454406738281" r="2"/></g><g class="svg-05-c-g"><circle class="svg-05-c-circle" cx="-27.272727966308594" cy="63.6363639831543" r="2"/><circle class="svg-05-c-circle" cx="-27.272727966308594" cy="63.6363639831543" r="2"/></g><g class="svg-05-c-g"><circle class="svg-05-c-circle" cx="-27.272727966308594" cy="81.81818389892578" r="2"/><circle class="svg-05-c-circle" cx="-27.272727966308594" cy="81.81818389892578" r="2"/></g><g class="svg-05-c-g"><circle class="svg-05-c-circle" cx="-9.090909004211426" cy="-81.81818389892578" r="2"/><circle class="svg-05-c-circle" cx="-9.090909004211426" cy="-81.81818389892578" r="2"/></g><g class="svg-05-c-g"><circle class="svg-05-c-circle" cx="-9.090909004211426" cy="-63.6363639831543" r="2"/><circle class="svg-05-c-circle" cx="-9.090909004211426" cy="-63.6363639831543" r="2"/></g><g class="svg-05-c-g"><circle class="svg-05-c-circle" cx="-9.090909004211426" cy="-45.45454406738281" r="2"/><circle class="svg-05-c-circle" cx="-9.090909004211426" cy="-45.45454406738281" r="2"/></g><g class="svg-05-c-g"><circle class="svg-05-c-circle" cx="-9.090909004211426" cy="-27.272727966308594" r="2"/><circle class="svg-05-c-circle" cx="-9.090909004211426" cy="-27.272727966308594" r="2"/></g><g class="svg-05-c-g"><circle class="svg-05-c-circle" cx="-9.090909004211426" cy="-9.090909004211426" r="2"/><circle class="svg-05-c-circle" cx="-9.090909004211426" cy="-9.090909004211426" r="2"/></g><g class="svg-05-c-g"><circle class="svg-05-c-circle" cx="-9.090909004211426" cy="9.090909004211426" r="2"/><circle class="svg-05-c-circle" cx="-9.090909004211426" cy="9.090909004211426" r="2"/></g><g class="svg-05-c-g"><circle class="svg-05-c-circle" cx="-9.090909004211426" cy="27.272727966308594" r="2"/><circle class="svg-05-c-circle" cx="-9.090909004211426" cy="27.272727966308594" r="2"/></g><g class="svg-05-c-g"><circle class="svg-05-c-circle" cx="-9.090909004211426" cy="45.45454406738281" r="2"/><circle class="svg-05-c-circle" cx="-9.090909004211426" cy="45.45454406738281" r="2"/></g><g class="svg-05-c-g"><circle class="svg-05-c-circle" cx="-9.090909004211426" cy="63.6363639831543" r="2"/><circle class="svg-05-c-circle" cx="-9.090909004211426" cy="63.6363639831543" r="2"/></g><g class="svg-05-c-g"><circle class="svg-05-c-circle" cx="-9.090909004211426" cy="81.81818389892578" r="2"/><circle class="svg-05-c-circle" cx="-9.090909004211426" cy="81.81818389892578" r="2"/></g><g class="svg-05-c-g"><circle class="svg-05-c-circle" cx="9.090909004211426" cy="-81.81818389892578" r="2"/><circle class="svg-05-c-circle" cx="9.090909004211426" cy="-81.81818389892578" r="2"/></g><g class="svg-05-c-g"><circle class="svg-05-c-circle" cx="9.090909004211426" cy="-63.6363639831543" r="2"/><circle class="svg-05-c-circle" cx="9.090909004211426" cy="-63.6363639831543" r="2"/></g><g class="svg-05-c-g"><circle class="svg-05-c-circle" cx="9.090909004211426" cy="-45.45454406738281" r="2"/><circle class="svg-05-c-circle" cx="9.090909004211426" cy="-45.45454406738281" r="2"/></g><g class="svg-05-c-g"><circle class="svg-05-c-circle" cx="9.090909004211426" cy="-27.272727966308594" r="2"/><circle class="svg-05-c-circle" cx="9.090909004211426" cy="-27.272727966308594" r="2"/></g><g class="svg-05-c-g"><circle class="svg-05-c-circle" cx="9.090909004211426" cy="-9.090909004211426" r="2"/><circle class="svg-05-c-circle" cx="9.090909004211426" cy="-9.090909004211426" r="2"/></g><g class="svg-05-c-g"><circle class="svg-05-c-circle" cx="9.090909004211426" cy="9.090909004211426" r="2"/><circle class="svg-05-c-circle" cx="9.090909004211426" cy="9.090909004211426" r="2"/></g><g class="svg-05-c-g"><circle class="svg-05-c-circle" cx="9.090909004211426" cy="27.272727966308594" r="2"/><circle class="svg-05-c-circle" cx="9.090909004211426" cy="27.272727966308594" r="2"/></g><g class="svg-05-c-g"><circle class="svg-05-c-circle" cx="9.090909004211426" cy="45.45454406738281" r="2"/><circle class="svg-05-c-circle" cx="9.090909004211426" cy="45.45454406738281" r="2"/></g><g class="svg-05-c-g"><circle class="svg-05-c-circle" cx="9.090909004211426" cy="63.6363639831543" r="2"/><circle class="svg-05-c-circle" cx="9.090909004211426" cy="63.6363639831543" r="2"/></g><g class="svg-05-c-g"><circle class="svg-05-c-circle" cx="9.090909004211426" cy="81.81818389892578" r="2"/><circle class="svg-05-c-circle" cx="9.090909004211426" cy="81.81818389892578" r="2"/></g><g class="svg-05-c-g"><circle class="svg-05-c-circle" cx="27.272727966308594" cy="-81.81818389892578" r="2"/><circle class="svg-05-c-circle" cx="27.272727966308594" cy="-81.81818389892578" r="2"/></g><g class="svg-05-c-g"><circle class="svg-05-c-circle" cx="27.272727966308594" cy="-63.6363639831543" r="2"/><circle class="svg-05-c-circle" cx="27.272727966308594" cy="-63.6363639831543" r="2"/></g><g class="svg-05-c-g"><circle class="svg-05-c-circle" cx="27.272727966308594" cy="-45.45454406738281" r="2"/><circle class="svg-05-c-circle" cx="27.272727966308594" cy="-45.45454406738281" r="2"/></g><g class="svg-05-c-g"><circle class="svg-05-c-circle" cx="27.272727966308594" cy="-27.272727966308594" r="2"/><circle class="svg-05-c-circle" cx="27.272727966308594" cy="-27.272727966308594" r="2"/></g><g class="svg-05-c-g"><circle class="svg-05-c-circle" cx="27.272727966308594" cy="-9.090909004211426" r="2"/><circle class="svg-05-c-circle" cx="27.272727966308594" cy="-9.090909004211426" r="2"/></g><g class="svg-05-c-g"><circle class="svg-05-c-circle" cx="27.272727966308594" cy="9.090909004211426" r="2"/><circle class="svg-05-c-circle" cx="27.272727966308594" cy="9.090909004211426" r="2"/></g><g class="svg-05-c-g"><circle class="svg-05-c-circle" cx="27.272727966308594" cy="27.272727966308594" r="2"/><circle class="svg-05-c-circle" cx="27.272727966308594" cy="27.272727966308594" r="2"/></g><g class="svg-05-c-g"><circle class="svg-05-c-circle" cx="27.272727966308594" cy="45.45454406738281" r="2"/><circle class="svg-05-c-circle" cx="27.272727966308594" cy="45.45454406738281" r="2"/></g><g class="svg-05-c-g"><circle class="svg-05-c-circle" cx="27.272727966308594" cy="63.6363639831543" r="2"/><circle class="svg-05-c-circle" cx="27.272727966308594" cy="63.6363639831543" r="2"/></g><g class="svg-05-c-g"><circle class="svg-05-c-circle" cx="27.272727966308594" cy="81.81818389892578" r="2"/><circle class="svg-05-c-circle" cx="27.272727966308594" cy="81.81818389892578" r="2"/></g><g class="svg-05-c-g"><circle class="svg-05-c-circle" cx="45.45454406738281" cy="-81.81818389892578" r="2"/><circle class="svg-05-c-circle" cx="45.45454406738281" cy="-81.81818389892578" r="2"/></g><g class="svg-05-c-g"><circle class="svg-05-c-circle" cx="45.45454406738281" cy="-63.6363639831543" r="2"/><circle class="svg-05-c-circle" cx="45.45454406738281" cy="-63.6363639831543" r="2"/></g><g class="svg-05-c-g"><circle class="svg-05-c-circle" cx="45.45454406738281" cy="-45.45454406738281" r="2"/><circle class="svg-05-c-circle" cx="45.45454406738281" cy="-45.45454406738281" r="2"/></g><g class="svg-05-c-g"><circle class="svg-05-c-circle" cx="45.45454406738281" cy="-27.272727966308594" r="2"/><circle class="svg-05-c-circle" cx="45.45454406738281" cy="-27.272727966308594" r="2"/></g><g class="svg-05-c-g"><circle class="svg-05-c-circle" cx="45.45454406738281" cy="-9.090909004211426" r="2"/><circle class="svg-05-c-circle" cx="45.45454406738281" cy="-9.090909004211426" r="2"/></g><g class="svg-05-c-g"><circle class="svg-05-c-circle" cx="45.45454406738281" cy="9.090909004211426" r="2"/><circle class="svg-05-c-circle" cx="45.45454406738281" cy="9.090909004211426" r="2"/></g><g class="svg-05-c-g"><circle class="svg-05-c-circle" cx="45.45454406738281" cy="27.272727966308594" r="2"/><circle class="svg-05-c-circle" cx="45.45454406738281" cy="27.272727966308594" r="2"/></g><g class="svg-05-c-g"><circle class="svg-05-c-circle" cx="45.45454406738281" cy="45.45454406738281" r="2"/><circle class="svg-05-c-circle" cx="45.45454406738281" cy="45.45454406738281" r="2"/></g><g class="svg-05-c-g"><circle class="svg-05-c-circle" cx="45.45454406738281" cy="63.6363639831543" r="2"/><circle class="svg-05-c-circle" cx="45.45454406738281" cy="63.6363639831543" r="2"/></g><g class="svg-05-c-g"><circle class="svg-05-c-circle" cx="45.45454406738281" cy="81.81818389892578" r="2"/><circle class="svg-05-c-circle" cx="45.45454406738281" cy="81.81818389892578" r="2"/></g><g class="svg-05-c-g"><circle class="svg-05-c-circle" cx="63.6363639831543" cy="-81.81818389892578" r="2"/><circle class="svg-05-c-circle" cx="63.6363639831543" cy="-81.81818389892578" r="2"/></g><g class="svg-05-c-g"><circle class="svg-05-c-circle" cx="63.6363639831543" cy="-63.6363639831543" r="2"/><circle class="svg-05-c-circle" cx="63.6363639831543" cy="-63.6363639831543" r="2"/></g><g class="svg-05-c-g"><circle class="svg-05-c-circle" cx="63.6363639831543" cy="-45.45454406738281" r="2"/><circle class="svg-05-c-circle" cx="63.6363639831543" cy="-45.45454406738281" r="2"/></g><g class="svg-05-c-g"><circle class="svg-05-c-circle" cx="63.6363639831543" cy="-27.272727966308594" r="2"/><circle class="svg-05-c-circle" cx="63.6363639831543" cy="-27.272727966308594" r="2"/></g><g class="svg-05-c-g"><circle class="svg-05-c-circle" cx="63.6363639831543" cy="-9.090909004211426" r="2"/><circle class="svg-05-c-circle" cx="63.6363639831543" cy="-9.090909004211426" r="2"/></g><g class="svg-05-c-g"><circle class="svg-05-c-circle" cx="63.6363639831543" cy="9.090909004211426" r="2"/><circle class="svg-05-c-circle" cx="63.6363639831543" cy="9.090909004211426" r="2"/></g><g class="svg-05-c-g"><circle class="svg-05-c-circle" cx="63.6363639831543" cy="27.272727966308594" r="2"/><circle class="svg-05-c-circle" cx="63.6363639831543" cy="27.272727966308594" r="2"/></g><g class="svg-05-c-g"><circle class="svg-05-c-circle" cx="63.6363639831543" cy="45.45454406738281" r="2"/><circle class="svg-05-c-circle" cx="63.6363639831543" cy="45.45454406738281" r="2"/></g><g class="svg-05-c-g"><circle class="svg-05-c-circle" cx="63.6363639831543" cy="63.6363639831543" r="2"/><circle class="svg-05-c-circle" cx="63.6363639831543" cy="63.6363639831543" r="2"/></g><g class="svg-05-c-g"><circle class="svg-05-c-circle" cx="63.6363639831543" cy="81.81818389892578" r="2"/><circle class="svg-05-c-circle" cx="63.6363639831543" cy="81.81818389892578" r="2"/></g><g class="svg-05-c-g"><circle class="svg-05-c-circle" cx="81.81818389892578" cy="-81.81818389892578" r="2"/><circle class="svg-05-c-circle" cx="81.81818389892578" cy="-81.81818389892578" r="2"/></g><g class="svg-05-c-g"><circle class="svg-05-c-circle" cx="81.81818389892578" cy="-63.6363639831543" r="2"/><circle class="svg-05-c-circle" cx="81.81818389892578" cy="-63.6363639831543" r="2"/></g><g class="svg-05-c-g"><circle class="svg-05-c-circle" cx="81.81818389892578" cy="-45.45454406738281" r="2"/><circle class="svg-05-c-circle" cx="81.81818389892578" cy="-45.45454406738281" r="2"/></g><g class="svg-05-c-g"><circle class="svg-05-c-circle" cx="81.81818389892578" cy="-27.272727966308594" r="2"/><circle class="svg-05-c-circle" cx="81.81818389892578" cy="-27.272727966308594" r="2"/></g><g class="svg-05-c-g"><circle class="svg-05-c-circle" cx="81.81818389892578" cy="-9.090909004211426" r="2"/><circle class="svg-05-c-circle" cx="81.81818389892578" cy="-9.090909004211426" r="2"/></g><g class="svg-05-c-g"><circle class="svg-05-c-circle" cx="81.81818389892578" cy="9.090909004211426" r="2"/><circle class="svg-05-c-circle" cx="81.81818389892578" cy="9.090909004211426" r="2"/></g><g class="svg-05-c-g"><circle class="svg-05-c-circle" cx="81.81818389892578" cy="27.272727966308594" r="2"/><circle class="svg-05-c-circle" cx="81.81818389892578" cy="27.272727966308594" r="2"/></g><g class="svg-05-c-g"><circle class="svg-05-c-circle" cx="81.81818389892578" cy="45.45454406738281" r="2"/><circle class="svg-05-c-circle" cx="81.81818389892578" cy="45.45454406738281" r="2"/></g><g class="svg-05-c-g"><circle class="svg-05-c-circle" cx="81.81818389892578" cy="63.6363639831543" r="2"/><circle class="svg-05-c-circle" cx="81.81818389892578" cy="63.6363639831543" r="2"/></g><g class="svg-05-c-g"><circle class="svg-05-c-circle" cx="81.81818389892578" cy="81.81818389892578" r="2"/><circle class="svg-05-c-circle" cx="81.81818389892578" cy="81.81818389892578" r="2"/></g><title>ANIMATION 05 - VARIATION C</title><desc><p>Created by <a href="http://andrew.wang-hoyer.com" target="_blank" rel="noopener">Andrew Wang-Hoyer</a>.</p></desc></svg>
