<?xml version="1.0" encoding="UTF-8"?>
<!DOCTYPE svg>
<svg data-animation-duration="10s" preserveAspectRatio="xMidYMid meet" version="1.1" viewBox="-100 -100 200 200" xmlns:xlink="http://www.w3.org/1999/xlink" xmlns="http://www.w3.org/2000/svg"><style>/* <![CDATA[ */ @keyframes svg-03-b-rect-group-move{0%{transform:translate(0,-5%)}to{transform:translate(0,5%)}}@keyframes svg-03-b-rect-rotate{0%{transform:rotate(0)}to{transform:rotate(360deg)}}.svg-03-b-rect{stroke:#000;stroke-width:.2;fill:none;animation:svg-03-b-rect-rotate 10s linear infinite}.svg-03-b-rect-group{animation:svg-03-b-rect-group-move 5s ease-in-out alternate infinite}.svg-03-b-outer-group{animation:svg-03-b-rect-rotate 10s ease-in-out alternate infinite} /* ]]> */</style><g class="svg-03-b-g svg-03-b-outer-group"><g class="svg-03-b-g" transform="rotate(0) translate(0, -50)"><g class="svg-03-b-g svg-03-b-rect-group"><rect class="svg-03-b-rect" height="10" width="10" x="-5" y="-5"/></g></g><g class="svg-03-b-g" transform="rotate(14.4) translate(0, -50)"><g class="svg-03-b-g svg-03-b-rect-group"><rect class="svg-03-b-rect" height="10" width="10" x="-5" y="-5"/></g></g><g class="svg-03-b-g" transform="rotate(28.8) translate(0, -50)"><g class="svg-03-b-g svg-03-b-rect-group"><rect class="svg-03-b-rect" height="10" width="10" x="-5" y="-5"/></g></g><g class="svg-03-b-g" transform="rotate(43.2) translate(0, -50)"><g class="svg-03-b-g svg-03-b-rect-group"><rect class="svg-03-b-rect" height="10" width="10" x="-5" y="-5"/></g></g><g class="svg-03-b-g" transform="rotate(57.6) translate(0, -50)"><g class="svg-03-b-g svg-03-b-rect-group"><rect class="svg-03-b-rect" height="10" width="10" x="-5" y="-5"/></g></g><g class="svg-03-b-g" transform="rotate(72) translate(0, -50)"><g class="svg-03-b-g svg-03-b-rect-group"><rect class="svg-03-b-rect" height="10" width="10" x="-5" y="-5"/></g></g><g class="svg-03-b-g" transform="rotate(86.4) translate(0, -50)"><g class="svg-03-b-g svg-03-b-rect-group"><rect class="svg-03-b-rect" height="10" width="10" x="-5" y="-5"/></g></g><g class="svg-03-b-g" transform="rotate(100.8) translate(0, -50)"><g class="svg-03-b-g svg-03-b-rect-group"><rect class="svg-03-b-rect" height="10" width="10" x="-5" y="-5"/></g></g><g class="svg-03-b-g" transform="rotate(115.2) translate(0, -50)"><g class="svg-03-b-g svg-03-b-rect-group"><rect class="svg-03-b-rect" height="10" width="10" x="-5" y="-5"/></g></g><g class="svg-03-b-g" transform="rotate(129.6) translate(0, -50)"><g class="svg-03-b-g svg-03-b-rect-group"><rect class="svg-03-b-rect" height="10" width="10" x="-5" y="-5"/></g></g><g class="svg-03-b-g" transform="rotate(144) translate(0, -50)"><g class="svg-03-b-g svg-03-b-rect-group"><rect class="svg-03-b-rect" height="10" width="10" x="-5" y="-5"/></g></g><g class="svg-03-b-g" transform="rotate(158.4) translate(0, -50)"><g class="svg-03-b-g svg-03-b-rect-group"><rect class="svg-03-b-rect" height="10" width="10" x="-5" y="-5"/></g></g><g class="svg-03-b-g" transform="rotate(172.8) translate(0, -50)"><g class="svg-03-b-g svg-03-b-rect-group"><rect class="svg-03-b-rect" height="10" width="10" x="-5" y="-5"/></g></g><g class="svg-03-b-g" transform="rotate(187.20000000000002) translate(0, -50)"><g class="svg-03-b-g svg-03-b-rect-group"><rect class="svg-03-b-rect" height="10" width="10" x="-5" y="-5"/></g></g><g class="svg-03-b-g" transform="rotate(201.6) translate(0, -50)"><g class="svg-03-b-g svg-03-b-rect-group"><rect class="svg-03-b-rect" height="10" width="10" x="-5" y="-5"/></g></g><g class="svg-03-b-g" transform="rotate(216) translate(0, -50)"><g class="svg-03-b-g svg-03-b-rect-group"><rect class="svg-03-b-rect" height="10" width="10" x="-5" y="-5"/></g></g><g class="svg-03-b-g" transform="rotate(230.4) translate(0, -50)"><g class="svg-03-b-g svg-03-b-rect-group"><rect class="svg-03-b-rect" height="10" width="10" x="-5" y="-5"/></g></g><g class="svg-03-b-g" transform="rotate(244.8) translate(0, -50)"><g class="svg-03-b-g svg-03-b-rect-group"><rect class="svg-03-b-rect" height="10" width="10" x="-5" y="-5"/></g></g><g class="svg-03-b-g" transform="rotate(259.2) translate(0, -50)"><g class="svg-03-b-g svg-03-b-rect-group"><rect class="svg-03-b-rect" height="10" width="10" x="-5" y="-5"/></g></g><g class="svg-03-b-g" transform="rotate(273.6) translate(0, -50)"><g class="svg-03-b-g svg-03-b-rect-group"><rect class="svg-03-b-rect" height="10" width="10" x="-5" y="-5"/></g></g><g class="svg-03-b-g" transform="rotate(288) translate(0, -50)"><g class="svg-03-b-g svg-03-b-rect-group"><rect class="svg-03-b-rect" height="10" width="10" x="-5" y="-5"/></g></g><g class="svg-03-b-g" transform="rotate(302.40000000000003) translate(0, -50)"><g class="svg-03-b-g svg-03-b-rect-group"><rect class="svg-03-b-rect" height="10" width="10" x="-5" y="-5"/></g></g><g class="svg-03-b-g" transform="rotate(316.8) translate(0, -50)"><g class="svg-03-b-g svg-03-b-rect-group"><rect class="svg-03-b-rect" height="10" width="10" x="-5" y="-5"/></g></g><g class="svg-03-b-g" transform="rotate(331.2) translate(0, -50)"><g class="svg-03-b-g svg-03-b-rect-group"><rect class="svg-03-b-rect" height="10" width="10" x="-5" y="-5"/></g></g><g class="svg-03-b-g" transform="rotate(345.6) translate(0, -50)"><g class="svg-03-b-g svg-03-b-rect-group"><rect class="svg-03-b-rect" height="10" width="10" x="-5" y="-5"/></g></g><g class="svg-03-b-g" style="animation-delay: -5s" transform="rotate(0) translate(0, -50)"><g class="svg-03-b-g svg-03-b-rect-group" style="animation-delay: -2.5s"><rect class="svg-03-b-rect" height="10" width="10" x="-5" y="-5"/></g></g><g class="svg-03-b-g" style="animation-delay: -5s" transform="rotate(14.4) translate(0, -50)"><g class="svg-03-b-g svg-03-b-rect-group" style="animation-delay: -2.5s"><rect class="svg-03-b-rect" height="10" width="10" x="-5" y="-5"/></g></g><g class="svg-03-b-g" style="animation-delay: -5s" transform="rotate(28.8) translate(0, -50)"><g class="svg-03-b-g svg-03-b-rect-group" style="animation-delay: -2.5s"><rect class="svg-03-b-rect" height="10" width="10" x="-5" y="-5"/></g></g><g class="svg-03-b-g" style="animation-delay: -5s" transform="rotate(43.2) translate(0, -50)"><g class="svg-03-b-g svg-03-b-rect-group" style="animation-delay: -2.5s"><rect class="svg-03-b-rect" height="10" width="10" x="-5" y="-5"/></g></g><g class="svg-03-b-g" style="animation-delay: -5s" transform="rotate(57.6) translate(0, -50)"><g class="svg-03-b-g svg-03-b-rect-group" style="animation-delay: -2.5s"><rect class="svg-03-b-rect" height="10" width="10" x="-5" y="-5"/></g></g><g class="svg-03-b-g" style="animation-delay: -5s" transform="rotate(72) translate(0, -50)"><g class="svg-03-b-g svg-03-b-rect-group" style="animation-delay: -2.5s"><rect class="svg-03-b-rect" height="10" width="10" x="-5" y="-5"/></g></g><g class="svg-03-b-g" style="animation-delay: -5s" transform="rotate(86.4) translate(0, -50)"><g class="svg-03-b-g svg-03-b-rect-group" style="animation-delay: -2.5s"><rect class="svg-03-b-rect" height="10" width="10" x="-5" y="-5"/></g></g><g class="svg-03-b-g" style="animation-delay: -5s" transform="rotate(100.8) translate(0, -50)"><g class="svg-03-b-g svg-03-b-rect-group" style="animation-delay: -2.5s"><rect class="svg-03-b-rect" height="10" width="10" x="-5" y="-5"/></g></g><g class="svg-03-b-g" style="animation-delay: -5s" transform="rotate(115.2) translate(0, -50)"><g class="svg-03-b-g svg-03-b-rect-group" style="animation-delay: -2.5s"><rect class="svg-03-b-rect" height="10" width="10" x="-5" y="-5"/></g></g><g class="svg-03-b-g" style="animation-delay: -5s" transform="rotate(129.6) translate(0, -50)"><g class="svg-03-b-g svg-03-b-rect-group" style="animation-delay: -2.5s"><rect class="svg-03-b-rect" height="10" width="10" x="-5" y="-5"/></g></g><g class="svg-03-b-g" style="animation-delay: -5s" transform="rotate(144) translate(0, -50)"><g class="svg-03-b-g svg-03-b-rect-group" style="animation-delay: -2.5s"><rect class="svg-03-b-rect" height="10" width="10" x="-5" y="-5"/></g></g><g class="svg-03-b-g" style="animation-delay: -5s" transform="rotate(158.4) translate(0, -50)"><g class="svg-03-b-g svg-03-b-rect-group" style="animation-delay: -2.5s"><rect class="svg-03-b-rect" height="10" width="10" x="-5" y="-5"/></g></g><g class="svg-03-b-g" style="animation-delay: -5s" transform="rotate(172.8) translate(0, -50)"><g class="svg-03-b-g svg-03-b-rect-group" style="animation-delay: -2.5s"><rect class="svg-03-b-rect" height="10" width="10" x="-5" y="-5"/></g></g><g class="svg-03-b-g" style="animation-delay: -5s" transform="rotate(187.20000000000002) translate(0, -50)"><g class="svg-03-b-g svg-03-b-rect-group" style="animation-delay: -2.5s"><rect class="svg-03-b-rect" height="10" width="10" x="-5" y="-5"/></g></g><g class="svg-03-b-g" style="animation-delay: -5s" transform="rotate(201.6) translate(0, -50)"><g class="svg-03-b-g svg-03-b-rect-group" style="animation-delay: -2.5s"><rect class="svg-03-b-rect" height="10" width="10" x="-5" y="-5"/></g></g><g class="svg-03-b-g" style="animation-delay: -5s" transform="rotate(216) translate(0, -50)"><g class="svg-03-b-g svg-03-b-rect-group" style="animation-delay: -2.5s"><rect class="svg-03-b-rect" height="10" width="10" x="-5" y="-5"/></g></g><g class="svg-03-b-g" style="animation-delay: -5s" transform="rotate(230.4) translate(0, -50)"><g class="svg-03-b-g svg-03-b-rect-group" style="animation-delay: -2.5s"><rect class="svg-03-b-rect" height="10" width="10" x="-5" y="-5"/></g></g><g class="svg-03-b-g" style="animation-delay: -5s" transform="rotate(244.8) translate(0, -50)"><g class="svg-03-b-g svg-03-b-rect-group" style="animation-delay: -2.5s"><rect class="svg-03-b-rect" height="10" width="10" x="-5" y="-5"/></g></g><g class="svg-03-b-g" style="animation-delay: -5s" transform="rotate(259.2) translate(0, -50)"><g class="svg-03-b-g svg-03-b-rect-group" style="animation-delay: -2.5s"><rect class="svg-03-b-rect" height="10" width="10" x="-5" y="-5"/></g></g><g class="svg-03-b-g" style="animation-delay: -5s" transform="rotate(273.6) translate(0, -50)"><g class="svg-03-b-g svg-03-b-rect-group" style="animation-delay: -2.5s"><rect class="svg-03-b-rect" height="10" width="10" x="-5" y="-5"/></g></g><g class="svg-03-b-g" style="animation-delay: -5s" transform="rotate(288) translate(0, -50)"><g class="svg-03-b-g svg-03-b-rect-group" style="animation-delay: -2.5s"><rect class="svg-03-b-rect" height="10" width="10" x="-5" y="-5"/></g></g><g class="svg-03-b-g" style="animation-delay: -5s" transform="rotate(302.40000000000003) translate(0, -50)"><g class="svg-03-b-g svg-03-b-rect-group" style="animation-delay: -2.5s"><rect class="svg-03-b-rect" height="10" width="10" x="-5" y="-5"/></g></g><g class="svg-03-b-g" style="animation-delay: -5s" transform="rotate(316.8) translate(0, -50)"><g class="svg-03-b-g svg-03-b-rect-group" style="animation-delay: -2.5s"><rect class="svg-03-b-rect" height="10" width="10" x="-5" y="-5"/></g></g><g class="svg-03-b-g" style="animation-delay: -5s" transform="rotate(331.2) translate(0, -50)"><g class="svg-03-b-g svg-03-b-rect-group" style="animation-delay: -2.5s"><rect class="svg-03-b-rect" height="10" width="10" x="-5" y="-5"/></g></g><g class="svg-03-b-g" style="animation-delay: -5s" transform="rotate(345.6) translate(0, -50)"><g class="svg-03-b-g svg-03-b-rect-group" style="animation-delay: -2.5s"><rect class="svg-03-b-rect" height="10" width="10" x="-5" y="-5"/></g></g></g><title>ANIMATION 03 - VARIATION B</title><desc><p>Created by <a href="http://andrew.wang-hoyer.com" target="_blank" rel="noopener">Andrew Wang-Hoyer</a>.</p></desc></svg>
