<?xml version="1.0" encoding="UTF-8"?>
<!DOCTYPE svg>
<svg data-animation-duration="1s" preserveAspectRatio="xMidYMid meet" version="1.1" viewBox="-50 -50 100 100" xmlns:xlink="http://www.w3.org/1999/xlink" xmlns="http://www.w3.org/2000/svg"><style>/* <![CDATA[ */ @keyframes svg-27-a-main-anim{0%{transform:translate(0,0) rotate(0)}to{transform:translate(2.6666666666666665%,0) rotate(8.88888888888889deg)}}.svg-27-a-polygon{stroke:#000;stroke-width:.1;fill:#fff}.svg-27-a-animation-parent{animation:svg-27-a-main-anim 1s linear infinite} /* ]]> */</style><g class="svg-27-a-g" transform="scale(1, 1) translate(24, 0)"><g class="svg-27-a-g"><polygon class="svg-27-a-polygon" points="0,-20 17.320507049560547,10 -17.320507049560547,10" transform="rotate(80)"/></g></g><g class="svg-27-a-g" transform="scale(-1, 1) translate(24, 0)"><g class="svg-27-a-g"><polygon class="svg-27-a-polygon" points="0,-20 17.320507049560547,10 -17.320507049560547,10" transform="rotate(80)"/></g></g><g class="svg-27-a-g" transform="scale(1, 1) translate(21.333333333333332, 0)"><g class="svg-27-a-g svg-27-a-animation-parent"><polygon class="svg-27-a-polygon" points="0,-20 17.320507049560547,10 -17.320507049560547,10" transform="rotate(71.11111111111111)"/></g></g><g class="svg-27-a-g" transform="scale(-1, 1) translate(21.333333333333332, 0)"><g class="svg-27-a-g svg-27-a-animation-parent"><polygon class="svg-27-a-polygon" points="0,-20 17.320507049560547,10 -17.320507049560547,10" transform="rotate(71.11111111111111)"/></g></g><g class="svg-27-a-g" transform="scale(1, 1) translate(18.666666666666668, 0)"><g class="svg-27-a-g svg-27-a-animation-parent"><polygon class="svg-27-a-polygon" points="0,-20 17.320507049560547,10 -17.320507049560547,10" transform="rotate(62.22222222222222)"/></g></g><g class="svg-27-a-g" transform="scale(-1, 1) translate(18.666666666666668, 0)"><g class="svg-27-a-g svg-27-a-animation-parent"><polygon class="svg-27-a-polygon" points="0,-20 17.320507049560547,10 -17.320507049560547,10" transform="rotate(62.22222222222222)"/></g></g><g class="svg-27-a-g" transform="scale(1, 1) translate(16, 0)"><g class="svg-27-a-g svg-27-a-animation-parent"><polygon class="svg-27-a-polygon" points="0,-20 17.320507049560547,10 -17.320507049560547,10" transform="rotate(53.33333333333333)"/></g></g><g class="svg-27-a-g" transform="scale(-1, 1) translate(16, 0)"><g class="svg-27-a-g svg-27-a-animation-parent"><polygon class="svg-27-a-polygon" points="0,-20 17.320507049560547,10 -17.320507049560547,10" transform="rotate(53.33333333333333)"/></g></g><g class="svg-27-a-g" transform="scale(1, 1) translate(13.333333333333334, 0)"><g class="svg-27-a-g svg-27-a-animation-parent"><polygon class="svg-27-a-polygon" points="0,-20 17.320507049560547,10 -17.320507049560547,10" transform="rotate(44.44444444444444)"/></g></g><g class="svg-27-a-g" transform="scale(-1, 1) translate(13.333333333333334, 0)"><g class="svg-27-a-g svg-27-a-animation-parent"><polygon class="svg-27-a-polygon" points="0,-20 17.320507049560547,10 -17.320507049560547,10" transform="rotate(44.44444444444444)"/></g></g><g class="svg-27-a-g" transform="scale(1, 1) translate(10.666666666666666, 0)"><g class="svg-27-a-g svg-27-a-animation-parent"><polygon class="svg-27-a-polygon" points="0,-20 17.320507049560547,10 -17.320507049560547,10" transform="rotate(35.55555555555556)"/></g></g><g class="svg-27-a-g" transform="scale(-1, 1) translate(10.666666666666666, 0)"><g class="svg-27-a-g svg-27-a-animation-parent"><polygon class="svg-27-a-polygon" points="0,-20 17.320507049560547,10 -17.320507049560547,10" transform="rotate(35.55555555555556)"/></g></g><g class="svg-27-a-g" transform="scale(1, 1) translate(8, 0)"><g class="svg-27-a-g svg-27-a-animation-parent"><polygon class="svg-27-a-polygon" points="0,-20 17.320507049560547,10 -17.320507049560547,10" transform="rotate(26.666666666666664)"/></g></g><g class="svg-27-a-g" transform="scale(-1, 1) translate(8, 0)"><g class="svg-27-a-g svg-27-a-animation-parent"><polygon class="svg-27-a-polygon" points="0,-20 17.320507049560547,10 -17.320507049560547,10" transform="rotate(26.666666666666664)"/></g></g><g class="svg-27-a-g" transform="scale(1, 1) translate(5.333333333333333, 0)"><g class="svg-27-a-g svg-27-a-animation-parent"><polygon class="svg-27-a-polygon" points="0,-20 17.320507049560547,10 -17.320507049560547,10" transform="rotate(17.77777777777778)"/></g></g><g class="svg-27-a-g" transform="scale(-1, 1) translate(5.333333333333333, 0)"><g class="svg-27-a-g svg-27-a-animation-parent"><polygon class="svg-27-a-polygon" points="0,-20 17.320507049560547,10 -17.320507049560547,10" transform="rotate(17.77777777777778)"/></g></g><g class="svg-27-a-g" transform="scale(1, 1) translate(2.6666666666666665, 0)"><g class="svg-27-a-g svg-27-a-animation-parent"><polygon class="svg-27-a-polygon" points="0,-20 17.320507049560547,10 -17.320507049560547,10" transform="rotate(8.88888888888889)"/></g></g><g class="svg-27-a-g" transform="scale(-1, 1) translate(2.6666666666666665, 0)"><g class="svg-27-a-g svg-27-a-animation-parent"><polygon class="svg-27-a-polygon" points="0,-20 17.320507049560547,10 -17.320507049560547,10" transform="rotate(8.88888888888889)"/></g></g><g class="svg-27-a-g" transform="scale(1, 1) translate(0, 0)"><g class="svg-27-a-g svg-27-a-animation-parent"><polygon class="svg-27-a-polygon" points="0,-20 17.320507049560547,10 -17.320507049560547,10" transform="rotate(0)"/></g></g><g class="svg-27-a-g" transform="scale(-1, 1) translate(0, 0)"><g class="svg-27-a-g svg-27-a-animation-parent"><polygon class="svg-27-a-polygon" points="0,-20 17.320507049560547,10 -17.320507049560547,10" transform="rotate(0)"/></g></g><polygon class="svg-27-a-polygon" points="0,-20 17.320507049560547,10 -17.320507049560547,10"/><title>ANIMATION 27 - VARIATION A</title><desc><p>Created by <a href="http://andrew.wang-hoyer.com" target="_blank" rel="noopener">Andrew Wang-Hoyer</a>.</p></desc></svg>
