<?xml version="1.0" encoding="UTF-8"?>
<!DOCTYPE svg><svg data-animation-duration="1s" preserveAspectRatio="xMidYMid meet" version="1.1" viewBox="-50 -50 100 100" xmlns:xlink="http://www.w3.org/1999/xlink" xmlns="http://www.w3.org/2000/svg"><style>/* <![CDATA[ */ @keyframes svg-27-b-main-anim{0%{transform:translate(0,0) rotate(0)}to{transform:translate(2.6666666666666665%,0) rotate(15deg)}}.svg-27-b-polygon{stroke:#000;stroke-width:.1;fill:#fff}.svg-27-b-animation-parent{animation:svg-27-b-main-anim 1s linear infinite} /* ]]> */</style><g class="svg-27-b-g" transform="scale(1, 1) translate(24, 0)"><g class="svg-27-b-g"><polygon class="svg-27-b-polygon" points="0,-20 20,-1.2246467996456087e-15 2.4492935992912173e-15,20 -20,3.673940187178589e-15" transform="rotate(135)"/></g></g><g class="svg-27-b-g" transform="scale(-1, 1) translate(24, 0)"><g class="svg-27-b-g"><polygon class="svg-27-b-polygon" points="0,-20 20,-1.2246467996456087e-15 2.4492935992912173e-15,20 -20,3.673940187178589e-15" transform="rotate(135)"/></g></g><g class="svg-27-b-g" transform="scale(1, 1) translate(21.333333333333332, 0)"><g class="svg-27-b-g svg-27-b-animation-parent"><polygon class="svg-27-b-polygon" points="0,-20 20,-1.2246467996456087e-15 2.4492935992912173e-15,20 -20,3.673940187178589e-15" transform="rotate(120)"/></g></g><g class="svg-27-b-g" transform="scale(-1, 1) translate(21.333333333333332, 0)"><g class="svg-27-b-g svg-27-b-animation-parent"><polygon class="svg-27-b-polygon" points="0,-20 20,-1.2246467996456087e-15 2.4492935992912173e-15,20 -20,3.673940187178589e-15" transform="rotate(120)"/></g></g><g class="svg-27-b-g" transform="scale(1, 1) translate(18.666666666666668, 0)"><g class="svg-27-b-g svg-27-b-animation-parent"><polygon class="svg-27-b-polygon" points="0,-20 20,-1.2246467996456087e-15 2.4492935992912173e-15,20 -20,3.673940187178589e-15" transform="rotate(105)"/></g></g><g class="svg-27-b-g" transform="scale(-1, 1) translate(18.666666666666668, 0)"><g class="svg-27-b-g svg-27-b-animation-parent"><polygon class="svg-27-b-polygon" points="0,-20 20,-1.2246467996456087e-15 2.4492935992912173e-15,20 -20,3.673940187178589e-15" transform="rotate(105)"/></g></g><g class="svg-27-b-g" transform="scale(1, 1) translate(16, 0)"><g class="svg-27-b-g svg-27-b-animation-parent"><polygon class="svg-27-b-polygon" points="0,-20 20,-1.2246467996456087e-15 2.4492935992912173e-15,20 -20,3.673940187178589e-15" transform="rotate(90)"/></g></g><g class="svg-27-b-g" transform="scale(-1, 1) translate(16, 0)"><g class="svg-27-b-g svg-27-b-animation-parent"><polygon class="svg-27-b-polygon" points="0,-20 20,-1.2246467996456087e-15 2.4492935992912173e-15,20 -20,3.673940187178589e-15" transform="rotate(90)"/></g></g><g class="svg-27-b-g" transform="scale(1, 1) translate(13.333333333333334, 0)"><g class="svg-27-b-g svg-27-b-animation-parent"><polygon class="svg-27-b-polygon" points="0,-20 20,-1.2246467996456087e-15 2.4492935992912173e-15,20 -20,3.673940187178589e-15" transform="rotate(75)"/></g></g><g class="svg-27-b-g" transform="scale(-1, 1) translate(13.333333333333334, 0)"><g class="svg-27-b-g svg-27-b-animation-parent"><polygon class="svg-27-b-polygon" points="0,-20 20,-1.2246467996456087e-15 2.4492935992912173e-15,20 -20,3.673940187178589e-15" transform="rotate(75)"/></g></g><g class="svg-27-b-g" transform="scale(1, 1) translate(10.666666666666666, 0)"><g class="svg-27-b-g svg-27-b-animation-parent"><polygon class="svg-27-b-polygon" points="0,-20 20,-1.2246467996456087e-15 2.4492935992912173e-15,20 -20,3.673940187178589e-15" transform="rotate(60)"/></g></g><g class="svg-27-b-g" transform="scale(-1, 1) translate(10.666666666666666, 0)"><g class="svg-27-b-g svg-27-b-animation-parent"><polygon class="svg-27-b-polygon" points="0,-20 20,-1.2246467996456087e-15 2.4492935992912173e-15,20 -20,3.673940187178589e-15" transform="rotate(60)"/></g></g><g class="svg-27-b-g" transform="scale(1, 1) translate(8, 0)"><g class="svg-27-b-g svg-27-b-animation-parent"><polygon class="svg-27-b-polygon" points="0,-20 20,-1.2246467996456087e-15 2.4492935992912173e-15,20 -20,3.673940187178589e-15" transform="rotate(45)"/></g></g><g class="svg-27-b-g" transform="scale(-1, 1) translate(8, 0)"><g class="svg-27-b-g svg-27-b-animation-parent"><polygon class="svg-27-b-polygon" points="0,-20 20,-1.2246467996456087e-15 2.4492935992912173e-15,20 -20,3.673940187178589e-15" transform="rotate(45)"/></g></g><g class="svg-27-b-g" transform="scale(1, 1) translate(5.333333333333333, 0)"><g class="svg-27-b-g svg-27-b-animation-parent"><polygon class="svg-27-b-polygon" points="0,-20 20,-1.2246467996456087e-15 2.4492935992912173e-15,20 -20,3.673940187178589e-15" transform="rotate(30)"/></g></g><g class="svg-27-b-g" transform="scale(-1, 1) translate(5.333333333333333, 0)"><g class="svg-27-b-g svg-27-b-animation-parent"><polygon class="svg-27-b-polygon" points="0,-20 20,-1.2246467996456087e-15 2.4492935992912173e-15,20 -20,3.673940187178589e-15" transform="rotate(30)"/></g></g><g class="svg-27-b-g" transform="scale(1, 1) translate(2.6666666666666665, 0)"><g class="svg-27-b-g svg-27-b-animation-parent"><polygon class="svg-27-b-polygon" points="0,-20 20,-1.2246467996456087e-15 2.4492935992912173e-15,20 -20,3.673940187178589e-15" transform="rotate(15)"/></g></g><g class="svg-27-b-g" transform="scale(-1, 1) translate(2.6666666666666665, 0)"><g class="svg-27-b-g svg-27-b-animation-parent"><polygon class="svg-27-b-polygon" points="0,-20 20,-1.2246467996456087e-15 2.4492935992912173e-15,20 -20,3.673940187178589e-15" transform="rotate(15)"/></g></g><g class="svg-27-b-g" transform="scale(1, 1) translate(0, 0)"><g class="svg-27-b-g svg-27-b-animation-parent"><polygon class="svg-27-b-polygon" points="0,-20 20,-1.2246467996456087e-15 2.4492935992912173e-15,20 -20,3.673940187178589e-15" transform="rotate(0)"/></g></g><g class="svg-27-b-g" transform="scale(-1, 1) translate(0, 0)"><g class="svg-27-b-g svg-27-b-animation-parent"><polygon class="svg-27-b-polygon" points="0,-20 20,-1.2246467996456087e-15 2.4492935992912173e-15,20 -20,3.673940187178589e-15" transform="rotate(0)"/></g></g><polygon class="svg-27-b-polygon" points="0,-20 20,-1.2246467996456087e-15 2.4492935992912173e-15,20 -20,3.673940187178589e-15"/><title>ANIMATION 27 - VARIATION B</title><desc><p>Created by <a href="http://andrew.wang-hoyer.com" target="_blank" rel="noopener">Andrew Wang-Hoyer</a>.</p></desc></svg>
