<?xml version="1.0" encoding="UTF-8"?>
<!DOCTYPE svg><svg data-animation-duration="1s" preserveAspectRatio="xMidYMid meet" version="1.1" viewBox="-50 -50 100 100" xmlns:xlink="http://www.w3.org/1999/xlink" xmlns="http://www.w3.org/2000/svg"><style>/* <![CDATA[ */ @keyframes svg-27-d-main-anim{0%{transform:translate(0,0) rotate(0)}to{transform:translate(2.2222222222222223%,0) rotate(6.666666666666667deg)}}.svg-27-d-polygon{stroke:#000;stroke-width:.1;fill:#fff}.svg-27-d-animation-parent{animation:svg-27-d-main-anim 1s linear infinite} /* ]]> */</style><g class="svg-27-d-g" transform="rotate(0) translate(20, 0)"><g class="svg-27-d-g"><polygon class="svg-27-d-polygon" points="0,-20 17.320507049560547,10 -17.320507049560547,10" transform="rotate(60)"/></g></g><g class="svg-27-d-g" transform="rotate(120) translate(20, 0)"><g class="svg-27-d-g"><polygon class="svg-27-d-polygon" points="0,-20 17.320507049560547,10 -17.320507049560547,10" transform="rotate(60)"/></g></g><g class="svg-27-d-g" transform="rotate(240) translate(20, 0)"><g class="svg-27-d-g"><polygon class="svg-27-d-polygon" points="0,-20 17.320507049560547,10 -17.320507049560547,10" transform="rotate(60)"/></g></g><g class="svg-27-d-g" transform="rotate(0) translate(17.77777777777778, 0)"><g class="svg-27-d-g svg-27-d-animation-parent"><polygon class="svg-27-d-polygon" points="0,-20 17.320507049560547,10 -17.320507049560547,10" transform="rotate(53.33333333333333)"/></g></g><g class="svg-27-d-g" transform="rotate(120) translate(17.77777777777778, 0)"><g class="svg-27-d-g svg-27-d-animation-parent"><polygon class="svg-27-d-polygon" points="0,-20 17.320507049560547,10 -17.320507049560547,10" transform="rotate(53.33333333333333)"/></g></g><g class="svg-27-d-g" transform="rotate(240) translate(17.77777777777778, 0)"><g class="svg-27-d-g svg-27-d-animation-parent"><polygon class="svg-27-d-polygon" points="0,-20 17.320507049560547,10 -17.320507049560547,10" transform="rotate(53.33333333333333)"/></g></g><g class="svg-27-d-g" transform="rotate(0) translate(15.555555555555555, 0)"><g class="svg-27-d-g svg-27-d-animation-parent"><polygon class="svg-27-d-polygon" points="0,-20 17.320507049560547,10 -17.320507049560547,10" transform="rotate(46.666666666666664)"/></g></g><g class="svg-27-d-g" transform="rotate(120) translate(15.555555555555555, 0)"><g class="svg-27-d-g svg-27-d-animation-parent"><polygon class="svg-27-d-polygon" points="0,-20 17.320507049560547,10 -17.320507049560547,10" transform="rotate(46.666666666666664)"/></g></g><g class="svg-27-d-g" transform="rotate(240) translate(15.555555555555555, 0)"><g class="svg-27-d-g svg-27-d-animation-parent"><polygon class="svg-27-d-polygon" points="0,-20 17.320507049560547,10 -17.320507049560547,10" transform="rotate(46.666666666666664)"/></g></g><g class="svg-27-d-g" transform="rotate(0) translate(13.333333333333332, 0)"><g class="svg-27-d-g svg-27-d-animation-parent"><polygon class="svg-27-d-polygon" points="0,-20 17.320507049560547,10 -17.320507049560547,10" transform="rotate(40)"/></g></g><g class="svg-27-d-g" transform="rotate(120) translate(13.333333333333332, 0)"><g class="svg-27-d-g svg-27-d-animation-parent"><polygon class="svg-27-d-polygon" points="0,-20 17.320507049560547,10 -17.320507049560547,10" transform="rotate(40)"/></g></g><g class="svg-27-d-g" transform="rotate(240) translate(13.333333333333332, 0)"><g class="svg-27-d-g svg-27-d-animation-parent"><polygon class="svg-27-d-polygon" points="0,-20 17.320507049560547,10 -17.320507049560547,10" transform="rotate(40)"/></g></g><g class="svg-27-d-g" transform="rotate(0) translate(11.11111111111111, 0)"><g class="svg-27-d-g svg-27-d-animation-parent"><polygon class="svg-27-d-polygon" points="0,-20 17.320507049560547,10 -17.320507049560547,10" transform="rotate(33.333333333333336)"/></g></g><g class="svg-27-d-g" transform="rotate(120) translate(11.11111111111111, 0)"><g class="svg-27-d-g svg-27-d-animation-parent"><polygon class="svg-27-d-polygon" points="0,-20 17.320507049560547,10 -17.320507049560547,10" transform="rotate(33.333333333333336)"/></g></g><g class="svg-27-d-g" transform="rotate(240) translate(11.11111111111111, 0)"><g class="svg-27-d-g svg-27-d-animation-parent"><polygon class="svg-27-d-polygon" points="0,-20 17.320507049560547,10 -17.320507049560547,10" transform="rotate(33.333333333333336)"/></g></g><g class="svg-27-d-g" transform="rotate(0) translate(8.88888888888889, 0)"><g class="svg-27-d-g svg-27-d-animation-parent"><polygon class="svg-27-d-polygon" points="0,-20 17.320507049560547,10 -17.320507049560547,10" transform="rotate(26.666666666666664)"/></g></g><g class="svg-27-d-g" transform="rotate(120) translate(8.88888888888889, 0)"><g class="svg-27-d-g svg-27-d-animation-parent"><polygon class="svg-27-d-polygon" points="0,-20 17.320507049560547,10 -17.320507049560547,10" transform="rotate(26.666666666666664)"/></g></g><g class="svg-27-d-g" transform="rotate(240) translate(8.88888888888889, 0)"><g class="svg-27-d-g svg-27-d-animation-parent"><polygon class="svg-27-d-polygon" points="0,-20 17.320507049560547,10 -17.320507049560547,10" transform="rotate(26.666666666666664)"/></g></g><g class="svg-27-d-g" transform="rotate(0) translate(6.666666666666666, 0)"><g class="svg-27-d-g svg-27-d-animation-parent"><polygon class="svg-27-d-polygon" points="0,-20 17.320507049560547,10 -17.320507049560547,10" transform="rotate(20)"/></g></g><g class="svg-27-d-g" transform="rotate(120) translate(6.666666666666666, 0)"><g class="svg-27-d-g svg-27-d-animation-parent"><polygon class="svg-27-d-polygon" points="0,-20 17.320507049560547,10 -17.320507049560547,10" transform="rotate(20)"/></g></g><g class="svg-27-d-g" transform="rotate(240) translate(6.666666666666666, 0)"><g class="svg-27-d-g svg-27-d-animation-parent"><polygon class="svg-27-d-polygon" points="0,-20 17.320507049560547,10 -17.320507049560547,10" transform="rotate(20)"/></g></g><g class="svg-27-d-g" transform="rotate(0) translate(4.444444444444445, 0)"><g class="svg-27-d-g svg-27-d-animation-parent"><polygon class="svg-27-d-polygon" points="0,-20 17.320507049560547,10 -17.320507049560547,10" transform="rotate(13.333333333333332)"/></g></g><g class="svg-27-d-g" transform="rotate(120) translate(4.444444444444445, 0)"><g class="svg-27-d-g svg-27-d-animation-parent"><polygon class="svg-27-d-polygon" points="0,-20 17.320507049560547,10 -17.320507049560547,10" transform="rotate(13.333333333333332)"/></g></g><g class="svg-27-d-g" transform="rotate(240) translate(4.444444444444445, 0)"><g class="svg-27-d-g svg-27-d-animation-parent"><polygon class="svg-27-d-polygon" points="0,-20 17.320507049560547,10 -17.320507049560547,10" transform="rotate(13.333333333333332)"/></g></g><g class="svg-27-d-g" transform="rotate(0) translate(2.2222222222222223, 0)"><g class="svg-27-d-g svg-27-d-animation-parent"><polygon class="svg-27-d-polygon" points="0,-20 17.320507049560547,10 -17.320507049560547,10" transform="rotate(6.666666666666666)"/></g></g><g class="svg-27-d-g" transform="rotate(120) translate(2.2222222222222223, 0)"><g class="svg-27-d-g svg-27-d-animation-parent"><polygon class="svg-27-d-polygon" points="0,-20 17.320507049560547,10 -17.320507049560547,10" transform="rotate(6.666666666666666)"/></g></g><g class="svg-27-d-g" transform="rotate(240) translate(2.2222222222222223, 0)"><g class="svg-27-d-g svg-27-d-animation-parent"><polygon class="svg-27-d-polygon" points="0,-20 17.320507049560547,10 -17.320507049560547,10" transform="rotate(6.666666666666666)"/></g></g><g class="svg-27-d-g" transform="rotate(0) translate(0, 0)"><g class="svg-27-d-g svg-27-d-animation-parent"><polygon class="svg-27-d-polygon" points="0,-20 17.320507049560547,10 -17.320507049560547,10" transform="rotate(0)"/></g></g><g class="svg-27-d-g" transform="rotate(120) translate(0, 0)"><g class="svg-27-d-g svg-27-d-animation-parent"><polygon class="svg-27-d-polygon" points="0,-20 17.320507049560547,10 -17.320507049560547,10" transform="rotate(0)"/></g></g><g class="svg-27-d-g" transform="rotate(240) translate(0, 0)"><g class="svg-27-d-g svg-27-d-animation-parent"><polygon class="svg-27-d-polygon" points="0,-20 17.320507049560547,10 -17.320507049560547,10" transform="rotate(0)"/></g></g><polygon class="svg-27-d-polygon" points="0,-20 17.320507049560547,10 -17.320507049560547,10"/><title>ANIMATION 27 - VARIATION D</title><desc><p>Created by <a href="http://andrew.wang-hoyer.com" target="_blank" rel="noopener">Andrew Wang-Hoyer</a>.</p></desc></svg>
