<?xml version="1.0" encoding="UTF-8"?>
<!DOCTYPE svg>
<svg data-animation-duration="1.5s" preserveAspectRatio="xMidYMid meet" version="1.1" viewBox="-50 -50 100 100" xmlns:xlink="http://www.w3.org/1999/xlink" xmlns="http://www.w3.org/2000/svg"><style>/* <![CDATA[ */ @keyframes svg-14-b-main-animation{0%{stroke-dashoffset:41.56921876597613}to{stroke-dashoffset:0}}.svg-14-b-line{stroke:#000;stroke-width:.2;stroke-linecap:round;stroke-dasharray:6.928203127662688 13.856406255325377,6.928203127662688 13.856406255325377;animation:svg-14-b-main-animation 1.5s linear infinite} /* ]]> */</style><line class="svg-14-b-line" style="animation-delay: -0s" transform="rotate(0, 0, 0)" x1="0" x2="34.641014099121094" y1="-40" y2="20"/><line class="svg-14-b-line" style="animation-delay: -0.05s" transform="rotate(12, 0, 0)" x1="0" x2="34.641014099121094" y1="-40" y2="20"/><line class="svg-14-b-line" style="animation-delay: -0.1s" transform="rotate(24, 0, 0)" x1="0" x2="34.641014099121094" y1="-40" y2="20"/><line class="svg-14-b-line" style="animation-delay: -0.15s" transform="rotate(36, 0, 0)" x1="0" x2="34.641014099121094" y1="-40" y2="20"/><line class="svg-14-b-line" style="animation-delay: -0.2s" transform="rotate(48, 0, 0)" x1="0" x2="34.641014099121094" y1="-40" y2="20"/><line class="svg-14-b-line" style="animation-delay: -0.25s" transform="rotate(60, 0, 0)" x1="0" x2="34.641014099121094" y1="-40" y2="20"/><line class="svg-14-b-line" style="animation-delay: -0.3s" transform="rotate(72, 0, 0)" x1="0" x2="34.641014099121094" y1="-40" y2="20"/><line class="svg-14-b-line" style="animation-delay: -0.35s" transform="rotate(84, 0, 0)" x1="0" x2="34.641014099121094" y1="-40" y2="20"/><line class="svg-14-b-line" style="animation-delay: -0.4s" transform="rotate(96, 0, 0)" x1="0" x2="34.641014099121094" y1="-40" y2="20"/><line class="svg-14-b-line" style="animation-delay: -0.45s" transform="rotate(108, 0, 0)" x1="0" x2="34.641014099121094" y1="-40" y2="20"/><line class="svg-14-b-line" style="animation-delay: -0.5s" transform="rotate(120, 0, 0)" x1="0" x2="34.641014099121094" y1="-40" y2="20"/><line class="svg-14-b-line" style="animation-delay: -0.55s" transform="rotate(132, 0, 0)" x1="0" x2="34.641014099121094" y1="-40" y2="20"/><line class="svg-14-b-line" style="animation-delay: -0.6s" transform="rotate(144, 0, 0)" x1="0" x2="34.641014099121094" y1="-40" y2="20"/><line class="svg-14-b-line" style="animation-delay: -0.65s" transform="rotate(156, 0, 0)" x1="0" x2="34.641014099121094" y1="-40" y2="20"/><line class="svg-14-b-line" style="animation-delay: -0.7s" transform="rotate(168, 0, 0)" x1="0" x2="34.641014099121094" y1="-40" y2="20"/><line class="svg-14-b-line" style="animation-delay: -0.75s" transform="rotate(180, 0, 0)" x1="0" x2="34.641014099121094" y1="-40" y2="20"/><line class="svg-14-b-line" style="animation-delay: -0.8s" transform="rotate(192, 0, 0)" x1="0" x2="34.641014099121094" y1="-40" y2="20"/><line class="svg-14-b-line" style="animation-delay: -0.85s" transform="rotate(204, 0, 0)" x1="0" x2="34.641014099121094" y1="-40" y2="20"/><line class="svg-14-b-line" style="animation-delay: -0.9s" transform="rotate(216, 0, 0)" x1="0" x2="34.641014099121094" y1="-40" y2="20"/><line class="svg-14-b-line" style="animation-delay: -0.95s" transform="rotate(228, 0, 0)" x1="0" x2="34.641014099121094" y1="-40" y2="20"/><line class="svg-14-b-line" style="animation-delay: -1s" transform="rotate(240, 0, 0)" x1="0" x2="34.641014099121094" y1="-40" y2="20"/><line class="svg-14-b-line" style="animation-delay: -1.05s" transform="rotate(252, 0, 0)" x1="0" x2="34.641014099121094" y1="-40" y2="20"/><line class="svg-14-b-line" style="animation-delay: -1.1s" transform="rotate(264, 0, 0)" x1="0" x2="34.641014099121094" y1="-40" y2="20"/><line class="svg-14-b-line" style="animation-delay: -1.15s" transform="rotate(276, 0, 0)" x1="0" x2="34.641014099121094" y1="-40" y2="20"/><line class="svg-14-b-line" style="animation-delay: -1.2s" transform="rotate(288, 0, 0)" x1="0" x2="34.641014099121094" y1="-40" y2="20"/><line class="svg-14-b-line" style="animation-delay: -1.25s" transform="rotate(300, 0, 0)" x1="0" x2="34.641014099121094" y1="-40" y2="20"/><line class="svg-14-b-line" style="animation-delay: -1.3s" transform="rotate(312, 0, 0)" x1="0" x2="34.641014099121094" y1="-40" y2="20"/><line class="svg-14-b-line" style="animation-delay: -1.35s" transform="rotate(324, 0, 0)" x1="0" x2="34.641014099121094" y1="-40" y2="20"/><line class="svg-14-b-line" style="animation-delay: -1.4s" transform="rotate(336, 0, 0)" x1="0" x2="34.641014099121094" y1="-40" y2="20"/><line class="svg-14-b-line" style="animation-delay: -1.45s" transform="rotate(348, 0, 0)" x1="0" x2="34.641014099121094" y1="-40" y2="20"/><title>ANIMATION 14 - VARIATION B</title><desc><p>Created by <a href="http://andrew.wang-hoyer.com" target="_blank" rel="noopener">Andrew Wang-Hoyer</a>.</p></desc></svg>
