<?xml version="1.0" encoding="UTF-8"?>
<!DOCTYPE svg>
<svg data-animation-duration="2s" preserveAspectRatio="xMidYMid meet" version="1.1" viewBox="-50 -50 100 100" xmlns:xlink="http://www.w3.org/1999/xlink" xmlns="http://www.w3.org/2000/svg"><style>/* <![CDATA[ */ @keyframes svg-34-c-main-anim{0%{transform:scaleY(12.5)}to{transform:scaleY(35)}}.svg-34-c-line{stroke:#000;stroke-width:.3;animation:svg-34-c-main-anim 1s ease-in-out alternate infinite} /* ]]> */</style><g class="svg-34-c-g" transform="translate(-35, 0)"><line class="svg-34-c-line" style="animation-delay: -1.9000000000000001s" x1="0" x2="0" y1="0.5" y2="-0.5"/></g><g class="svg-34-c-g" transform="translate(-31.5, 0)"><line class="svg-34-c-line" style="animation-delay: -1.8s" x1="0" x2="0" y1="0.5" y2="-0.5"/></g><g class="svg-34-c-g" transform="translate(-28, 0)"><line class="svg-34-c-line" style="animation-delay: -1.7000000000000002s" x1="0" x2="0" y1="0.5" y2="-0.5"/></g><g class="svg-34-c-g" transform="translate(-24.5, 0)"><line class="svg-34-c-line" style="animation-delay: -1.6s" x1="0" x2="0" y1="0.5" y2="-0.5"/></g><g class="svg-34-c-g" transform="translate(-21, 0)"><line class="svg-34-c-line" style="animation-delay: -1.5s" x1="0" x2="0" y1="0.5" y2="-0.5"/></g><g class="svg-34-c-g" transform="translate(-17.5, 0)"><line class="svg-34-c-line" style="animation-delay: -1.4000000000000001s" x1="0" x2="0" y1="0.5" y2="-0.5"/></g><g class="svg-34-c-g" transform="translate(-14, 0)"><line class="svg-34-c-line" style="animation-delay: -1.3s" x1="0" x2="0" y1="0.5" y2="-0.5"/></g><g class="svg-34-c-g" transform="translate(-10.5, 0)"><line class="svg-34-c-line" style="animation-delay: -1.2000000000000002s" x1="0" x2="0" y1="0.5" y2="-0.5"/></g><g class="svg-34-c-g" transform="translate(-7, 0)"><line class="svg-34-c-line" style="animation-delay: -1.1s" x1="0" x2="0" y1="0.5" y2="-0.5"/></g><g class="svg-34-c-g" transform="translate(-3.5, 0)"><line class="svg-34-c-line" style="animation-delay: -1s" x1="0" x2="0" y1="0.5" y2="-0.5"/></g><g class="svg-34-c-g" transform="translate(0, 0)"><line class="svg-34-c-line" style="animation-delay: -0.9s" x1="0" x2="0" y1="0.5" y2="-0.5"/></g><g class="svg-34-c-g" transform="translate(3.5, 0)"><line class="svg-34-c-line" style="animation-delay: -0.8s" x1="0" x2="0" y1="0.5" y2="-0.5"/></g><g class="svg-34-c-g" transform="translate(7, 0)"><line class="svg-34-c-line" style="animation-delay: -0.7000000000000001s" x1="0" x2="0" y1="0.5" y2="-0.5"/></g><g class="svg-34-c-g" transform="translate(10.5, 0)"><line class="svg-34-c-line" style="animation-delay: -0.6000000000000001s" x1="0" x2="0" y1="0.5" y2="-0.5"/></g><g class="svg-34-c-g" transform="translate(14, 0)"><line class="svg-34-c-line" style="animation-delay: -0.5s" x1="0" x2="0" y1="0.5" y2="-0.5"/></g><g class="svg-34-c-g" transform="translate(17.5, 0)"><line class="svg-34-c-line" style="animation-delay: -0.4s" x1="0" x2="0" y1="0.5" y2="-0.5"/></g><g class="svg-34-c-g" transform="translate(21, 0)"><line class="svg-34-c-line" style="animation-delay: -0.30000000000000004s" x1="0" x2="0" y1="0.5" y2="-0.5"/></g><g class="svg-34-c-g" transform="translate(24.5, 0)"><line class="svg-34-c-line" style="animation-delay: -0.2s" x1="0" x2="0" y1="0.5" y2="-0.5"/></g><g class="svg-34-c-g" transform="translate(28, 0)"><line class="svg-34-c-line" style="animation-delay: -0.1s" x1="0" x2="0" y1="0.5" y2="-0.5"/></g><g class="svg-34-c-g" transform="translate(31.5, 0)"><line class="svg-34-c-line" style="animation-delay: -0s" x1="0" x2="0" y1="0.5" y2="-0.5"/></g><title>ANIMATION 34 - VARIATION C</title><desc><p>Created by <a href="http://andrew.wang-hoyer.com" target="_blank" rel="noopener">Andrew Wang-Hoyer</a>.</p></desc></svg>
