<?xml version="1.0" encoding="UTF-8"?>
<!DOCTYPE svg><svg data-animation-duration="20s" preserveAspectRatio="xMidYMid meet" version="1.1" viewBox="0 0 100 100" xmlns:xlink="http://www.w3.org/1999/xlink" xmlns="http://www.w3.org/2000/svg"><defs><g class="svg-23-b-g" id="svg-23-b-stripes"><rect class="svg-23-b-rect svg-23-b-stripe" height="2.413793103448276" width="100" x="0" y="15"/><rect class="svg-23-b-rect svg-23-b-stripe" height="2.413793103448276" width="100" x="0" y="19.82758620689655"/><rect class="svg-23-b-rect svg-23-b-stripe" height="2.413793103448276" width="100" x="0" y="24.655172413793103"/><rect class="svg-23-b-rect svg-23-b-stripe" height="2.413793103448276" width="100" x="0" y="29.482758620689655"/><rect class="svg-23-b-rect svg-23-b-stripe" height="2.413793103448276" width="100" x="0" y="34.310344827586206"/><rect class="svg-23-b-rect svg-23-b-stripe" height="2.413793103448276" width="100" x="0" y="39.13793103448276"/><rect class="svg-23-b-rect svg-23-b-stripe" height="2.413793103448276" width="100" x="0" y="43.96551724137931"/><rect class="svg-23-b-rect svg-23-b-stripe" height="2.413793103448276" width="100" x="0" y="48.79310344827586"/><rect class="svg-23-b-rect svg-23-b-stripe" height="2.413793103448276" width="100" x="0" y="53.62068965517241"/><rect class="svg-23-b-rect svg-23-b-stripe" height="2.413793103448276" width="100" x="0" y="58.44827586206897"/><rect class="svg-23-b-rect svg-23-b-stripe" height="2.413793103448276" width="100" x="0" y="63.275862068965516"/><rect class="svg-23-b-rect svg-23-b-stripe" height="2.413793103448276" width="100" x="0" y="68.10344827586206"/><rect class="svg-23-b-rect svg-23-b-stripe" height="2.413793103448276" width="100" x="0" y="72.93103448275862"/><rect class="svg-23-b-rect svg-23-b-stripe" height="2.413793103448276" width="100" x="0" y="77.75862068965517"/><rect class="svg-23-b-rect svg-23-b-stripe" height="2.413793103448276" width="100" x="0" y="82.58620689655172"/></g><clipPath id="svg-23-b-square-mask"><path class="svg-23-b-path" d="M 15,15 L 15,85 L 85,85 L 85,15Z" fill-rule="evenodd"/></clipPath><clipPath id="svg-23-b-circle-mask"><circle class="svg-23-b-circle" cx="50" cy="50" r="30"/></clipPath></defs><style>/* <![CDATA[ */ @keyframes svg-23-b-circle-anim{0%{transform:rotate(0)}to{transform:rotate(180deg)}}.svg-23-b-stripe{fill:#000;stroke:none}.svg-23-b-circle{transform-origin:50% 50%;animation:svg-23-b-circle-anim 20s linear infinite} /* ]]> */</style><g class="svg-23-b-g" clip-path="url(#svg-23-b-square-mask)"><use class="svg-23-b-use" href="#svg-23-b-stripes"/></g><g class="svg-23-b-g" clip-path="url(#svg-23-b-circle-mask)"><g class="svg-23-b-g" transform="rotate(0, 50, 50)"><use class="svg-23-b-use svg-23-b-circle" href="#svg-23-b-stripes"/></g></g><title>ANIMATION 23 - VARIATION B</title><desc><p>Created by <a href="http://andrew.wang-hoyer.com" target="_blank" rel="noopener">Andrew Wang-Hoyer</a>.</p></desc></svg>
