<?xml version="1.0" encoding="UTF-8"?>
<!DOCTYPE svg><svg data-animation-duration="5s" preserveAspectRatio="xMidYMid meet" version="1.1" viewBox="0 0 100 100" xmlns:xlink="http://www.w3.org/1999/xlink" xmlns="http://www.w3.org/2000/svg"><defs><g class="svg-23-d-g" id="svg-23-d-stripes"><rect class="svg-23-d-rect svg-23-d-stripe" height="2.413793103448276" width="100" x="0" y="10.172413793103448"/><rect class="svg-23-d-rect svg-23-d-stripe" height="2.413793103448276" width="100" x="0" y="15"/><rect class="svg-23-d-rect svg-23-d-stripe" height="2.413793103448276" width="100" x="0" y="19.82758620689655"/><rect class="svg-23-d-rect svg-23-d-stripe" height="2.413793103448276" width="100" x="0" y="24.655172413793103"/><rect class="svg-23-d-rect svg-23-d-stripe" height="2.413793103448276" width="100" x="0" y="29.482758620689655"/><rect class="svg-23-d-rect svg-23-d-stripe" height="2.413793103448276" width="100" x="0" y="34.310344827586206"/><rect class="svg-23-d-rect svg-23-d-stripe" height="2.413793103448276" width="100" x="0" y="39.13793103448276"/><rect class="svg-23-d-rect svg-23-d-stripe" height="2.413793103448276" width="100" x="0" y="43.96551724137931"/><rect class="svg-23-d-rect svg-23-d-stripe" height="2.413793103448276" width="100" x="0" y="48.79310344827586"/><rect class="svg-23-d-rect svg-23-d-stripe" height="2.413793103448276" width="100" x="0" y="53.62068965517241"/><rect class="svg-23-d-rect svg-23-d-stripe" height="2.413793103448276" width="100" x="0" y="58.44827586206897"/><rect class="svg-23-d-rect svg-23-d-stripe" height="2.413793103448276" width="100" x="0" y="63.275862068965516"/><rect class="svg-23-d-rect svg-23-d-stripe" height="2.413793103448276" width="100" x="0" y="68.10344827586206"/><rect class="svg-23-d-rect svg-23-d-stripe" height="2.413793103448276" width="100" x="0" y="72.93103448275862"/><rect class="svg-23-d-rect svg-23-d-stripe" height="2.413793103448276" width="100" x="0" y="77.75862068965517"/><rect class="svg-23-d-rect svg-23-d-stripe" height="2.413793103448276" width="100" x="0" y="82.58620689655172"/></g><clipPath id="svg-23-d-square-mask"><path class="svg-23-d-path" d="M 15,15 L 15,85 L 85,85 L 85,15Z" fill-rule="evenodd"/></clipPath><clipPath id="svg-23-d-circle-mask"><circle class="svg-23-d-circle" cx="50" cy="50" r="30"/></clipPath></defs><style>/* <![CDATA[ */ @keyframes svg-23-d-square-anim{0%{transform:translate(0,0)}to{transform:translate(0,4.827586206896552%)}}.svg-23-d-stripe{fill:#000;stroke:none}.svg-23-d-square{animation:svg-23-d-square-anim 5s linear infinite} /* ]]> */</style><g class="svg-23-d-g" clip-path="url(#svg-23-d-square-mask)"><use class="svg-23-d-use svg-23-d-square" href="#svg-23-d-stripes"/></g><g class="svg-23-d-g" clip-path="url(#svg-23-d-circle-mask)"><use class="svg-23-d-use" href="#svg-23-d-stripes"/></g><title>ANIMATION 23 - VARIATION D</title><desc><p>Created by <a href="http://andrew.wang-hoyer.com" target="_blank" rel="noopener">Andrew Wang-Hoyer</a>.</p></desc></svg>
