<?xml version="1.0" encoding="UTF-8"?>
<!DOCTYPE svg><svg data-animation-duration="1s" preserveAspectRatio="xMidYMid meet" version="1.1" viewBox="-50 -50 100 100" xmlns:xlink="http://www.w3.org/1999/xlink" xmlns="http://www.w3.org/2000/svg"><style>/* <![CDATA[ */ @keyframes svg-09-c-rect-anim{0%{transform:translateY(0);height:22.652%}to{transform:translateY(16.989%);height:5.663%}}.svg-09-c-rect{stroke:#000;stroke-width:1;fill:none;animation:svg-09-c-rect-anim 1s ease-in-out alternate infinite} /* ]]> */</style><g class="svg-09-c-g" transform="translate(-35, 0)"><g class="svg-09-c-g" transform="translate(0, 0)"><rect class="svg-09-c-rect" height="22.652" style="animation-delay: -0.9s" width="7" x="-3.5" y="-11.326"/></g><g class="svg-09-c-g" transform="translate(7, 0)"><rect class="svg-09-c-rect" height="22.652" style="animation-delay: -0.8s" width="7" x="-3.5" y="-11.326"/></g><g class="svg-09-c-g" transform="translate(14, 0)"><rect class="svg-09-c-rect" height="22.652" style="animation-delay: -0.7000000000000001s" width="7" x="-3.5" y="-11.326"/></g><g class="svg-09-c-g" transform="translate(21, 0)"><rect class="svg-09-c-rect" height="22.652" style="animation-delay: -0.6000000000000001s" width="7" x="-3.5" y="-11.326"/></g><g class="svg-09-c-g" transform="translate(28, 0)"><rect class="svg-09-c-rect" height="22.652" style="animation-delay: -0.5s" width="7" x="-3.5" y="-11.326"/></g><g class="svg-09-c-g" transform="translate(35, 0)"><rect class="svg-09-c-rect" height="22.652" style="animation-delay: -0.4s" width="7" x="-3.5" y="-11.326"/></g><g class="svg-09-c-g" transform="translate(42, 0)"><rect class="svg-09-c-rect" height="22.652" style="animation-delay: -0.30000000000000004s" width="7" x="-3.5" y="-11.326"/></g><g class="svg-09-c-g" transform="translate(49, 0)"><rect class="svg-09-c-rect" height="22.652" style="animation-delay: -0.2s" width="7" x="-3.5" y="-11.326"/></g><g class="svg-09-c-g" transform="translate(56, 0)"><rect class="svg-09-c-rect" height="22.652" style="animation-delay: -0.1s" width="7" x="-3.5" y="-11.326"/></g><g class="svg-09-c-g" transform="translate(63, 0)"><rect class="svg-09-c-rect" height="22.652" style="animation-delay: -0s" width="7" x="-3.5" y="-11.326"/></g></g><title>ANIMATION 09 - VARIATION C</title><desc><p>Created by <a href="http://andrew.wang-hoyer.com" target="_blank" rel="noopener">Andrew Wang-Hoyer</a>.</p></desc></svg>
