<?xml version="1.0" encoding="UTF-8"?>
<!DOCTYPE svg><svg data-animation-duration="20s" preserveAspectRatio="xMidYMid meet" version="1.1" viewBox="-50 -50 100 100" xmlns:xlink="http://www.w3.org/1999/xlink" xmlns="http://www.w3.org/2000/svg"><style>/* <![CDATA[ */ @keyframes svg-01-d-outer-group{to{transform:rotate(360deg)}0%{transform:rotate(0deg)}}@keyframes svg-01-d-rect{to{transform:rotate(360deg)}0%{transform:rotate(0deg)}}.svg-01-d-rect{stroke-width:.2;stroke:#000;fill:transparent}.svg-01-d-inner-group:nth-child(even) .svg-01-d-rect{transform-origin:0 0;animation:svg-01-d-rect 20s linear infinite}.svg-01-d-inner-group:nth-child(odd) .svg-01-d-rect{transform-origin:0 0;animation:svg-01-d-rect 10s linear reverse infinite}.svg-01-d-outer-group{transform-origin:0 0;animation:svg-01-d-outer-group 15s linear infinite} /* ]]> */</style><g class="svg-01-d-g svg-01-d-outer-group"><g class="svg-01-d-g svg-01-d-inner-group" transform="rotate(0) translate(0 25)"><rect class="svg-01-d-rect" height="25" width="25" x="-12.5" y="-12.5"/></g><g class="svg-01-d-g svg-01-d-inner-group" transform="rotate(22.5) translate(0 25)"><rect class="svg-01-d-rect" height="25" width="25" x="-12.5" y="-12.5"/></g><g class="svg-01-d-g svg-01-d-inner-group" transform="rotate(45) translate(0 25)"><rect class="svg-01-d-rect" height="25" width="25" x="-12.5" y="-12.5"/></g><g class="svg-01-d-g svg-01-d-inner-group" transform="rotate(67.5) translate(0 25)"><rect class="svg-01-d-rect" height="25" width="25" x="-12.5" y="-12.5"/></g><g class="svg-01-d-g svg-01-d-inner-group" transform="rotate(90) translate(0 25)"><rect class="svg-01-d-rect" height="25" width="25" x="-12.5" y="-12.5"/></g><g class="svg-01-d-g svg-01-d-inner-group" transform="rotate(112.5) translate(0 25)"><rect class="svg-01-d-rect" height="25" width="25" x="-12.5" y="-12.5"/></g><g class="svg-01-d-g svg-01-d-inner-group" transform="rotate(135) translate(0 25)"><rect class="svg-01-d-rect" height="25" width="25" x="-12.5" y="-12.5"/></g><g class="svg-01-d-g svg-01-d-inner-group" transform="rotate(157.5) translate(0 25)"><rect class="svg-01-d-rect" height="25" width="25" x="-12.5" y="-12.5"/></g><g class="svg-01-d-g svg-01-d-inner-group" transform="rotate(180) translate(0 25)"><rect class="svg-01-d-rect" height="25" width="25" x="-12.5" y="-12.5"/></g><g class="svg-01-d-g svg-01-d-inner-group" transform="rotate(202.5) translate(0 25)"><rect class="svg-01-d-rect" height="25" width="25" x="-12.5" y="-12.5"/></g><g class="svg-01-d-g svg-01-d-inner-group" transform="rotate(225) translate(0 25)"><rect class="svg-01-d-rect" height="25" width="25" x="-12.5" y="-12.5"/></g><g class="svg-01-d-g svg-01-d-inner-group" transform="rotate(247.5) translate(0 25)"><rect class="svg-01-d-rect" height="25" width="25" x="-12.5" y="-12.5"/></g><g class="svg-01-d-g svg-01-d-inner-group" transform="rotate(270) translate(0 25)"><rect class="svg-01-d-rect" height="25" width="25" x="-12.5" y="-12.5"/></g><g class="svg-01-d-g svg-01-d-inner-group" transform="rotate(292.5) translate(0 25)"><rect class="svg-01-d-rect" height="25" width="25" x="-12.5" y="-12.5"/></g><g class="svg-01-d-g svg-01-d-inner-group" transform="rotate(315) translate(0 25)"><rect class="svg-01-d-rect" height="25" width="25" x="-12.5" y="-12.5"/></g><g class="svg-01-d-g svg-01-d-inner-group" transform="rotate(337.5) translate(0 25)"><rect class="svg-01-d-rect" height="25" width="25" x="-12.5" y="-12.5"/></g></g><title>ANIMATION 01 - VARIATION D</title><desc><p>Created by <a href="http://andrew.wang-hoyer.com" target="_blank" rel="noopener">Andrew Wang-Hoyer</a>.</p></desc></svg>
