<?xml version="1.0" encoding="UTF-8"?>
<!DOCTYPE svg>
<svg
  data-animation-duration="2s"
  viewBox="-50 -50 100 100"
>
  <title>
    ANIMATION 42 - VARIATION A
  </title>
  <desc>
    <p>See this animation in action here: <a href="https://andrew.wang-hoyer.com/experiments/svg-animations/42/a" target="_blank" rel="noopener">https://andrew.wang-hoyer.com/experiments/svg-animations/42/a</a>.</p>
    <p>Generator source code : <a href="https://github.com/ndrwhr/svg-animation-src/tree/master/site/_svgs/generators/animations/42/a.js" target="_blank" rel="noopener">https://github.com/ndrwhr/svg-animation-src/tree/master/site/_svgs/generators/animations/42/a.js</a>.</p>
    <p>All generated files and source code are released under the following license:</p>
    <p>MIT License</p>
    <p>Copyright (c) 2018-present Andrew Hoyer</p>
    <p>Permission is hereby granted, free of charge, to any person obtaining a copy of this software and associated documentation files (the &quot;Software&quot;), to deal in the Software without restriction, including without limitation the rights to use, copy, modify, merge, publish, distribute, sublicense, and/or sell copies of the Software, and to permit persons to whom the Software is furnished to do so, subject to the following conditions:</p>
    <p>The above copyright notice and this permission notice shall be included in all copies or substantial portions of the Software.</p>
    <p>THE SOFTWARE IS PROVIDED &quot;AS IS&quot;, WITHOUT WARRANTY OF ANY KIND, EXPRESS OR IMPLIED, INCLUDING BUT NOT LIMITED TO THE WARRANTIES OF MERCHANTABILITY, FITNESS FOR A PARTICULAR PURPOSE AND NONINFRINGEMENT. IN NO EVENT SHALL THE AUTHORS OR COPYRIGHT HOLDERS BE LIABLE FOR ANY CLAIM, DAMAGES OR OTHER LIABILITY, WHETHER IN AN ACTION OF CONTRACT, TORT OR OTHERWISE, ARISING FROM, OUT OF OR IN CONNECTION WITH THE SOFTWARE OR THE USE OR OTHER DEALINGS IN THE SOFTWARE.</p>
  </desc>
  <style>
    /* <![CDATA[ */
      .svg-42-a-line {
        stroke: black;
        stroke-width: .3;
        transform-origin: 0 0;
        animation: svg-42-a-main-anim 2s cubic-bezier(.5, 0, .5, 1) alternate infinite;
      }
      
      @keyframes svg-42-a-main-anim {
        from {
          transform: scaleX(.4);
        }
      
        to {
          transform: scaleX(1);
        }
      }
      
    /* ]]> */
  </style>
  <g
    class="svg-42-a-g"
    transform="rotate(-90) translate(20, 0)"
  >
    <line
      class="svg-42-a-line"
      style="animation-delay: -4s"
      x1="0"
      x2="20"
      y1="0"
      y2="0"
    />
  </g>
  <g
    class="svg-42-a-g"
    transform="rotate(-86.4) translate(20, 0)"
  >
    <line
      class="svg-42-a-line"
      style="animation-delay: -3.96s"
      x1="0"
      x2="20"
      y1="0"
      y2="0"
    />
  </g>
  <g
    class="svg-42-a-g"
    transform="rotate(-82.8) translate(20, 0)"
  >
    <line
      class="svg-42-a-line"
      style="animation-delay: -3.92s"
      x1="0"
      x2="20"
      y1="0"
      y2="0"
    />
  </g>
  <g
    class="svg-42-a-g"
    transform="rotate(-79.2) translate(20, 0)"
  >
    <line
      class="svg-42-a-line"
      style="animation-delay: -3.88s"
      x1="0"
      x2="20"
      y1="0"
      y2="0"
    />
  </g>
  <g
    class="svg-42-a-g"
    transform="rotate(-75.6) translate(20, 0)"
  >
    <line
      class="svg-42-a-line"
      style="animation-delay: -3.84s"
      x1="0"
      x2="20"
      y1="0"
      y2="0"
    />
  </g>
  <g
    class="svg-42-a-g"
    transform="rotate(-72) translate(20, 0)"
  >
    <line
      class="svg-42-a-line"
      style="animation-delay: -3.8s"
      x1="0"
      x2="20"
      y1="0"
      y2="0"
    />
  </g>
  <g
    class="svg-42-a-g"
    transform="rotate(-68.4) translate(20, 0)"
  >
    <line
      class="svg-42-a-line"
      style="animation-delay: -3.76s"
      x1="0"
      x2="20"
      y1="0"
      y2="0"
    />
  </g>
  <g
    class="svg-42-a-g"
    transform="rotate(-64.8) translate(20, 0)"
  >
    <line
      class="svg-42-a-line"
      style="animation-delay: -3.7199999999999998s"
      x1="0"
      x2="20"
      y1="0"
      y2="0"
    />
  </g>
  <g
    class="svg-42-a-g"
    transform="rotate(-61.2) translate(20, 0)"
  >
    <line
      class="svg-42-a-line"
      style="animation-delay: -3.68s"
      x1="0"
      x2="20"
      y1="0"
      y2="0"
    />
  </g>
  <g
    class="svg-42-a-g"
    transform="rotate(-57.6) translate(20, 0)"
  >
    <line
      class="svg-42-a-line"
      style="animation-delay: -3.64s"
      x1="0"
      x2="20"
      y1="0"
      y2="0"
    />
  </g>
  <g
    class="svg-42-a-g"
    transform="rotate(-54) translate(20, 0)"
  >
    <line
      class="svg-42-a-line"
      style="animation-delay: -3.6s"
      x1="0"
      x2="20"
      y1="0"
      y2="0"
    />
  </g>
  <g
    class="svg-42-a-g"
    transform="rotate(-50.4) translate(20, 0)"
  >
    <line
      class="svg-42-a-line"
      style="animation-delay: -3.56s"
      x1="0"
      x2="20"
      y1="0"
      y2="0"
    />
  </g>
  <g
    class="svg-42-a-g"
    transform="rotate(-46.8) translate(20, 0)"
  >
    <line
      class="svg-42-a-line"
      style="animation-delay: -3.52s"
      x1="0"
      x2="20"
      y1="0"
      y2="0"
    />
  </g>
  <g
    class="svg-42-a-g"
    transform="rotate(-43.199999999999996) translate(20, 0)"
  >
    <line
      class="svg-42-a-line"
      style="animation-delay: -3.48s"
      x1="0"
      x2="20"
      y1="0"
      y2="0"
    />
  </g>
  <g
    class="svg-42-a-g"
    transform="rotate(-39.6) translate(20, 0)"
  >
    <line
      class="svg-42-a-line"
      style="animation-delay: -3.44s"
      x1="0"
      x2="20"
      y1="0"
      y2="0"
    />
  </g>
  <g
    class="svg-42-a-g"
    transform="rotate(-36) translate(20, 0)"
  >
    <line
      class="svg-42-a-line"
      style="animation-delay: -3.4s"
      x1="0"
      x2="20"
      y1="0"
      y2="0"
    />
  </g>
  <g
    class="svg-42-a-g"
    transform="rotate(-32.4) translate(20, 0)"
  >
    <line
      class="svg-42-a-line"
      style="animation-delay: -3.36s"
      x1="0"
      x2="20"
      y1="0"
      y2="0"
    />
  </g>
  <g
    class="svg-42-a-g"
    transform="rotate(-28.799999999999997) translate(20, 0)"
  >
    <line
      class="svg-42-a-line"
      style="animation-delay: -3.32s"
      x1="0"
      x2="20"
      y1="0"
      y2="0"
    />
  </g>
  <g
    class="svg-42-a-g"
    transform="rotate(-25.200000000000003) translate(20, 0)"
  >
    <line
      class="svg-42-a-line"
      style="animation-delay: -3.2800000000000002s"
      x1="0"
      x2="20"
      y1="0"
      y2="0"
    />
  </g>
  <g
    class="svg-42-a-g"
    transform="rotate(-21.599999999999994) translate(20, 0)"
  >
    <line
      class="svg-42-a-line"
      style="animation-delay: -3.24s"
      x1="0"
      x2="20"
      y1="0"
      y2="0"
    />
  </g>
  <g
    class="svg-42-a-g"
    transform="rotate(-18) translate(20, 0)"
  >
    <line
      class="svg-42-a-line"
      style="animation-delay: -3.2s"
      x1="0"
      x2="20"
      y1="0"
      y2="0"
    />
  </g>
  <g
    class="svg-42-a-g"
    transform="rotate(-14.399999999999991) translate(20, 0)"
  >
    <line
      class="svg-42-a-line"
      style="animation-delay: -3.16s"
      x1="0"
      x2="20"
      y1="0"
      y2="0"
    />
  </g>
  <g
    class="svg-42-a-g"
    transform="rotate(-10.799999999999997) translate(20, 0)"
  >
    <line
      class="svg-42-a-line"
      style="animation-delay: -3.12s"
      x1="0"
      x2="20"
      y1="0"
      y2="0"
    />
  </g>
  <g
    class="svg-42-a-g"
    transform="rotate(-7.200000000000003) translate(20, 0)"
  >
    <line
      class="svg-42-a-line"
      style="animation-delay: -3.08s"
      x1="0"
      x2="20"
      y1="0"
      y2="0"
    />
  </g>
  <g
    class="svg-42-a-g"
    transform="rotate(-3.5999999999999943) translate(20, 0)"
  >
    <line
      class="svg-42-a-line"
      style="animation-delay: -3.04s"
      x1="0"
      x2="20"
      y1="0"
      y2="0"
    />
  </g>
  <g
    class="svg-42-a-g"
    transform="rotate(0) translate(20, 0)"
  >
    <line
      class="svg-42-a-line"
      style="animation-delay: -3s"
      x1="0"
      x2="20"
      y1="0"
      y2="0"
    />
  </g>
  <g
    class="svg-42-a-g"
    transform="rotate(3.6000000000000085) translate(20, 0)"
  >
    <line
      class="svg-42-a-line"
      style="animation-delay: -2.96s"
      x1="0"
      x2="20"
      y1="0"
      y2="0"
    />
  </g>
  <g
    class="svg-42-a-g"
    transform="rotate(7.200000000000003) translate(20, 0)"
  >
    <line
      class="svg-42-a-line"
      style="animation-delay: -2.92s"
      x1="0"
      x2="20"
      y1="0"
      y2="0"
    />
  </g>
  <g
    class="svg-42-a-g"
    transform="rotate(10.799999999999997) translate(20, 0)"
  >
    <line
      class="svg-42-a-line"
      style="animation-delay: -2.88s"
      x1="0"
      x2="20"
      y1="0"
      y2="0"
    />
  </g>
  <g
    class="svg-42-a-g"
    transform="rotate(14.400000000000006) translate(20, 0)"
  >
    <line
      class="svg-42-a-line"
      style="animation-delay: -2.84s"
      x1="0"
      x2="20"
      y1="0"
      y2="0"
    />
  </g>
  <g
    class="svg-42-a-g"
    transform="rotate(18) translate(20, 0)"
  >
    <line
      class="svg-42-a-line"
      style="animation-delay: -2.8s"
      x1="0"
      x2="20"
      y1="0"
      y2="0"
    />
  </g>
  <g
    class="svg-42-a-g"
    transform="rotate(21.60000000000001) translate(20, 0)"
  >
    <line
      class="svg-42-a-line"
      style="animation-delay: -2.76s"
      x1="0"
      x2="20"
      y1="0"
      y2="0"
    />
  </g>
  <g
    class="svg-42-a-g"
    transform="rotate(25.200000000000003) translate(20, 0)"
  >
    <line
      class="svg-42-a-line"
      style="animation-delay: -2.7199999999999998s"
      x1="0"
      x2="20"
      y1="0"
      y2="0"
    />
  </g>
  <g
    class="svg-42-a-g"
    transform="rotate(28.799999999999997) translate(20, 0)"
  >
    <line
      class="svg-42-a-line"
      style="animation-delay: -2.6799999999999997s"
      x1="0"
      x2="20"
      y1="0"
      y2="0"
    />
  </g>
  <g
    class="svg-42-a-g"
    transform="rotate(32.400000000000006) translate(20, 0)"
  >
    <line
      class="svg-42-a-line"
      style="animation-delay: -2.6399999999999997s"
      x1="0"
      x2="20"
      y1="0"
      y2="0"
    />
  </g>
  <g
    class="svg-42-a-g"
    transform="rotate(36) translate(20, 0)"
  >
    <line
      class="svg-42-a-line"
      style="animation-delay: -2.6s"
      x1="0"
      x2="20"
      y1="0"
      y2="0"
    />
  </g>
  <g
    class="svg-42-a-g"
    transform="rotate(39.599999999999994) translate(20, 0)"
  >
    <line
      class="svg-42-a-line"
      style="animation-delay: -2.56s"
      x1="0"
      x2="20"
      y1="0"
      y2="0"
    />
  </g>
  <g
    class="svg-42-a-g"
    transform="rotate(43.20000000000002) translate(20, 0)"
  >
    <line
      class="svg-42-a-line"
      style="animation-delay: -2.52s"
      x1="0"
      x2="20"
      y1="0"
      y2="0"
    />
  </g>
  <g
    class="svg-42-a-g"
    transform="rotate(46.80000000000001) translate(20, 0)"
  >
    <line
      class="svg-42-a-line"
      style="animation-delay: -2.48s"
      x1="0"
      x2="20"
      y1="0"
      y2="0"
    />
  </g>
  <g
    class="svg-42-a-g"
    transform="rotate(50.400000000000006) translate(20, 0)"
  >
    <line
      class="svg-42-a-line"
      style="animation-delay: -2.44s"
      x1="0"
      x2="20"
      y1="0"
      y2="0"
    />
  </g>
  <g
    class="svg-42-a-g"
    transform="rotate(54) translate(20, 0)"
  >
    <line
      class="svg-42-a-line"
      style="animation-delay: -2.4s"
      x1="0"
      x2="20"
      y1="0"
      y2="0"
    />
  </g>
  <g
    class="svg-42-a-g"
    transform="rotate(57.599999999999994) translate(20, 0)"
  >
    <line
      class="svg-42-a-line"
      style="animation-delay: -2.3600000000000003s"
      x1="0"
      x2="20"
      y1="0"
      y2="0"
    />
  </g>
  <g
    class="svg-42-a-g"
    transform="rotate(61.20000000000002) translate(20, 0)"
  >
    <line
      class="svg-42-a-line"
      style="animation-delay: -2.3200000000000003s"
      x1="0"
      x2="20"
      y1="0"
      y2="0"
    />
  </g>
  <g
    class="svg-42-a-g"
    transform="rotate(64.80000000000001) translate(20, 0)"
  >
    <line
      class="svg-42-a-line"
      style="animation-delay: -2.2800000000000002s"
      x1="0"
      x2="20"
      y1="0"
      y2="0"
    />
  </g>
  <g
    class="svg-42-a-g"
    transform="rotate(68.4) translate(20, 0)"
  >
    <line
      class="svg-42-a-line"
      style="animation-delay: -2.24s"
      x1="0"
      x2="20"
      y1="0"
      y2="0"
    />
  </g>
  <g
    class="svg-42-a-g"
    transform="rotate(72) translate(20, 0)"
  >
    <line
      class="svg-42-a-line"
      style="animation-delay: -2.2s"
      x1="0"
      x2="20"
      y1="0"
      y2="0"
    />
  </g>
  <g
    class="svg-42-a-g"
    transform="rotate(75.6) translate(20, 0)"
  >
    <line
      class="svg-42-a-line"
      style="animation-delay: -2.16s"
      x1="0"
      x2="20"
      y1="0"
      y2="0"
    />
  </g>
  <g
    class="svg-42-a-g"
    transform="rotate(79.20000000000002) translate(20, 0)"
  >
    <line
      class="svg-42-a-line"
      style="animation-delay: -2.12s"
      x1="0"
      x2="20"
      y1="0"
      y2="0"
    />
  </g>
  <g
    class="svg-42-a-g"
    transform="rotate(82.80000000000001) translate(20, 0)"
  >
    <line
      class="svg-42-a-line"
      style="animation-delay: -2.08s"
      x1="0"
      x2="20"
      y1="0"
      y2="0"
    />
  </g>
  <g
    class="svg-42-a-g"
    transform="rotate(86.4) translate(20, 0)"
  >
    <line
      class="svg-42-a-line"
      style="animation-delay: -2.04s"
      x1="0"
      x2="20"
      y1="0"
      y2="0"
    />
  </g>
  <g
    class="svg-42-a-g"
    transform="rotate(90) translate(20, 0)"
  >
    <line
      class="svg-42-a-line"
      style="animation-delay: -2s"
      x1="0"
      x2="20"
      y1="0"
      y2="0"
    />
  </g>
  <g
    class="svg-42-a-g"
    transform="rotate(93.6) translate(20, 0)"
  >
    <line
      class="svg-42-a-line"
      style="animation-delay: -1.96s"
      x1="0"
      x2="20"
      y1="0"
      y2="0"
    />
  </g>
  <g
    class="svg-42-a-g"
    transform="rotate(97.20000000000002) translate(20, 0)"
  >
    <line
      class="svg-42-a-line"
      style="animation-delay: -1.92s"
      x1="0"
      x2="20"
      y1="0"
      y2="0"
    />
  </g>
  <g
    class="svg-42-a-g"
    transform="rotate(100.80000000000001) translate(20, 0)"
  >
    <line
      class="svg-42-a-line"
      style="animation-delay: -1.88s"
      x1="0"
      x2="20"
      y1="0"
      y2="0"
    />
  </g>
  <g
    class="svg-42-a-g"
    transform="rotate(104.4) translate(20, 0)"
  >
    <line
      class="svg-42-a-line"
      style="animation-delay: -1.8399999999999999s"
      x1="0"
      x2="20"
      y1="0"
      y2="0"
    />
  </g>
  <g
    class="svg-42-a-g"
    transform="rotate(108) translate(20, 0)"
  >
    <line
      class="svg-42-a-line"
      style="animation-delay: -1.7999999999999998s"
      x1="0"
      x2="20"
      y1="0"
      y2="0"
    />
  </g>
  <g
    class="svg-42-a-g"
    transform="rotate(111.6) translate(20, 0)"
  >
    <line
      class="svg-42-a-line"
      style="animation-delay: -1.7599999999999998s"
      x1="0"
      x2="20"
      y1="0"
      y2="0"
    />
  </g>
  <g
    class="svg-42-a-g"
    transform="rotate(115.20000000000002) translate(20, 0)"
  >
    <line
      class="svg-42-a-line"
      style="animation-delay: -1.7200000000000002s"
      x1="0"
      x2="20"
      y1="0"
      y2="0"
    />
  </g>
  <g
    class="svg-42-a-g"
    transform="rotate(118.80000000000001) translate(20, 0)"
  >
    <line
      class="svg-42-a-line"
      style="animation-delay: -1.6800000000000002s"
      x1="0"
      x2="20"
      y1="0"
      y2="0"
    />
  </g>
  <g
    class="svg-42-a-g"
    transform="rotate(122.4) translate(20, 0)"
  >
    <line
      class="svg-42-a-line"
      style="animation-delay: -1.6400000000000001s"
      x1="0"
      x2="20"
      y1="0"
      y2="0"
    />
  </g>
  <g
    class="svg-42-a-g"
    transform="rotate(126) translate(20, 0)"
  >
    <line
      class="svg-42-a-line"
      style="animation-delay: -1.6s"
      x1="0"
      x2="20"
      y1="0"
      y2="0"
    />
  </g>
  <g
    class="svg-42-a-g"
    transform="rotate(129.6) translate(20, 0)"
  >
    <line
      class="svg-42-a-line"
      style="animation-delay: -1.56s"
      x1="0"
      x2="20"
      y1="0"
      y2="0"
    />
  </g>
  <g
    class="svg-42-a-g"
    transform="rotate(133.20000000000002) translate(20, 0)"
  >
    <line
      class="svg-42-a-line"
      style="animation-delay: -1.52s"
      x1="0"
      x2="20"
      y1="0"
      y2="0"
    />
  </g>
  <g
    class="svg-42-a-g"
    transform="rotate(136.8) translate(20, 0)"
  >
    <line
      class="svg-42-a-line"
      style="animation-delay: -1.48s"
      x1="0"
      x2="20"
      y1="0"
      y2="0"
    />
  </g>
  <g
    class="svg-42-a-g"
    transform="rotate(140.4) translate(20, 0)"
  >
    <line
      class="svg-42-a-line"
      style="animation-delay: -1.44s"
      x1="0"
      x2="20"
      y1="0"
      y2="0"
    />
  </g>
  <g
    class="svg-42-a-g"
    transform="rotate(144) translate(20, 0)"
  >
    <line
      class="svg-42-a-line"
      style="animation-delay: -1.4s"
      x1="0"
      x2="20"
      y1="0"
      y2="0"
    />
  </g>
  <g
    class="svg-42-a-g"
    transform="rotate(147.6) translate(20, 0)"
  >
    <line
      class="svg-42-a-line"
      style="animation-delay: -1.3599999999999999s"
      x1="0"
      x2="20"
      y1="0"
      y2="0"
    />
  </g>
  <g
    class="svg-42-a-g"
    transform="rotate(151.20000000000002) translate(20, 0)"
  >
    <line
      class="svg-42-a-line"
      style="animation-delay: -1.3199999999999998s"
      x1="0"
      x2="20"
      y1="0"
      y2="0"
    />
  </g>
  <g
    class="svg-42-a-g"
    transform="rotate(154.8) translate(20, 0)"
  >
    <line
      class="svg-42-a-line"
      style="animation-delay: -1.2799999999999998s"
      x1="0"
      x2="20"
      y1="0"
      y2="0"
    />
  </g>
  <g
    class="svg-42-a-g"
    transform="rotate(158.4) translate(20, 0)"
  >
    <line
      class="svg-42-a-line"
      style="animation-delay: -1.2400000000000002s"
      x1="0"
      x2="20"
      y1="0"
      y2="0"
    />
  </g>
  <g
    class="svg-42-a-g"
    transform="rotate(162) translate(20, 0)"
  >
    <line
      class="svg-42-a-line"
      style="animation-delay: -1.2000000000000002s"
      x1="0"
      x2="20"
      y1="0"
      y2="0"
    />
  </g>
  <g
    class="svg-42-a-g"
    transform="rotate(165.6) translate(20, 0)"
  >
    <line
      class="svg-42-a-line"
      style="animation-delay: -1.1600000000000001s"
      x1="0"
      x2="20"
      y1="0"
      y2="0"
    />
  </g>
  <g
    class="svg-42-a-g"
    transform="rotate(169.2) translate(20, 0)"
  >
    <line
      class="svg-42-a-line"
      style="animation-delay: -1.12s"
      x1="0"
      x2="20"
      y1="0"
      y2="0"
    />
  </g>
  <g
    class="svg-42-a-g"
    transform="rotate(172.8) translate(20, 0)"
  >
    <line
      class="svg-42-a-line"
      style="animation-delay: -1.08s"
      x1="0"
      x2="20"
      y1="0"
      y2="0"
    />
  </g>
  <g
    class="svg-42-a-g"
    transform="rotate(176.40000000000003) translate(20, 0)"
  >
    <line
      class="svg-42-a-line"
      style="animation-delay: -1.04s"
      x1="0"
      x2="20"
      y1="0"
      y2="0"
    />
  </g>
  <g
    class="svg-42-a-g"
    transform="rotate(180) translate(20, 0)"
  >
    <line
      class="svg-42-a-line"
      style="animation-delay: -1s"
      x1="0"
      x2="20"
      y1="0"
      y2="0"
    />
  </g>
  <g
    class="svg-42-a-g"
    transform="rotate(183.60000000000002) translate(20, 0)"
  >
    <line
      class="svg-42-a-line"
      style="animation-delay: -0.96s"
      x1="0"
      x2="20"
      y1="0"
      y2="0"
    />
  </g>
  <g
    class="svg-42-a-g"
    transform="rotate(187.2) translate(20, 0)"
  >
    <line
      class="svg-42-a-line"
      style="animation-delay: -0.9199999999999999s"
      x1="0"
      x2="20"
      y1="0"
      y2="0"
    />
  </g>
  <g
    class="svg-42-a-g"
    transform="rotate(190.8) translate(20, 0)"
  >
    <line
      class="svg-42-a-line"
      style="animation-delay: -0.8799999999999999s"
      x1="0"
      x2="20"
      y1="0"
      y2="0"
    />
  </g>
  <g
    class="svg-42-a-g"
    transform="rotate(194.40000000000003) translate(20, 0)"
  >
    <line
      class="svg-42-a-line"
      style="animation-delay: -0.8399999999999999s"
      x1="0"
      x2="20"
      y1="0"
      y2="0"
    />
  </g>
  <g
    class="svg-42-a-g"
    transform="rotate(198) translate(20, 0)"
  >
    <line
      class="svg-42-a-line"
      style="animation-delay: -0.7999999999999998s"
      x1="0"
      x2="20"
      y1="0"
      y2="0"
    />
  </g>
  <g
    class="svg-42-a-g"
    transform="rotate(201.60000000000002) translate(20, 0)"
  >
    <line
      class="svg-42-a-line"
      style="animation-delay: -0.7599999999999998s"
      x1="0"
      x2="20"
      y1="0"
      y2="0"
    />
  </g>
  <g
    class="svg-42-a-g"
    transform="rotate(205.2) translate(20, 0)"
  >
    <line
      class="svg-42-a-line"
      style="animation-delay: -0.7200000000000002s"
      x1="0"
      x2="20"
      y1="0"
      y2="0"
    />
  </g>
  <g
    class="svg-42-a-g"
    transform="rotate(208.8) translate(20, 0)"
  >
    <line
      class="svg-42-a-line"
      style="animation-delay: -0.6800000000000002s"
      x1="0"
      x2="20"
      y1="0"
      y2="0"
    />
  </g>
  <g
    class="svg-42-a-g"
    transform="rotate(212.40000000000003) translate(20, 0)"
  >
    <line
      class="svg-42-a-line"
      style="animation-delay: -0.6400000000000001s"
      x1="0"
      x2="20"
      y1="0"
      y2="0"
    />
  </g>
  <g
    class="svg-42-a-g"
    transform="rotate(216) translate(20, 0)"
  >
    <line
      class="svg-42-a-line"
      style="animation-delay: -0.6000000000000001s"
      x1="0"
      x2="20"
      y1="0"
      y2="0"
    />
  </g>
  <g
    class="svg-42-a-g"
    transform="rotate(219.60000000000002) translate(20, 0)"
  >
    <line
      class="svg-42-a-line"
      style="animation-delay: -0.56s"
      x1="0"
      x2="20"
      y1="0"
      y2="0"
    />
  </g>
  <g
    class="svg-42-a-g"
    transform="rotate(223.2) translate(20, 0)"
  >
    <line
      class="svg-42-a-line"
      style="animation-delay: -0.52s"
      x1="0"
      x2="20"
      y1="0"
      y2="0"
    />
  </g>
  <g
    class="svg-42-a-g"
    transform="rotate(226.8) translate(20, 0)"
  >
    <line
      class="svg-42-a-line"
      style="animation-delay: -0.48s"
      x1="0"
      x2="20"
      y1="0"
      y2="0"
    />
  </g>
  <g
    class="svg-42-a-g"
    transform="rotate(230.40000000000003) translate(20, 0)"
  >
    <line
      class="svg-42-a-line"
      style="animation-delay: -0.43999999999999995s"
      x1="0"
      x2="20"
      y1="0"
      y2="0"
    />
  </g>
  <g
    class="svg-42-a-g"
    transform="rotate(234) translate(20, 0)"
  >
    <line
      class="svg-42-a-line"
      style="animation-delay: -0.3999999999999999s"
      x1="0"
      x2="20"
      y1="0"
      y2="0"
    />
  </g>
  <g
    class="svg-42-a-g"
    transform="rotate(237.60000000000002) translate(20, 0)"
  >
    <line
      class="svg-42-a-line"
      style="animation-delay: -0.3599999999999999s"
      x1="0"
      x2="20"
      y1="0"
      y2="0"
    />
  </g>
  <g
    class="svg-42-a-g"
    transform="rotate(241.2) translate(20, 0)"
  >
    <line
      class="svg-42-a-line"
      style="animation-delay: -0.31999999999999984s"
      x1="0"
      x2="20"
      y1="0"
      y2="0"
    />
  </g>
  <g
    class="svg-42-a-g"
    transform="rotate(244.8) translate(20, 0)"
  >
    <line
      class="svg-42-a-line"
      style="animation-delay: -0.2799999999999998s"
      x1="0"
      x2="20"
      y1="0"
      y2="0"
    />
  </g>
  <g
    class="svg-42-a-g"
    transform="rotate(248.40000000000003) translate(20, 0)"
  >
    <line
      class="svg-42-a-line"
      style="animation-delay: -0.2400000000000002s"
      x1="0"
      x2="20"
      y1="0"
      y2="0"
    />
  </g>
  <g
    class="svg-42-a-g"
    transform="rotate(252) translate(20, 0)"
  >
    <line
      class="svg-42-a-line"
      style="animation-delay: -0.20000000000000018s"
      x1="0"
      x2="20"
      y1="0"
      y2="0"
    />
  </g>
  <g
    class="svg-42-a-g"
    transform="rotate(255.60000000000002) translate(20, 0)"
  >
    <line
      class="svg-42-a-line"
      style="animation-delay: -0.16000000000000014s"
      x1="0"
      x2="20"
      y1="0"
      y2="0"
    />
  </g>
  <g
    class="svg-42-a-g"
    transform="rotate(259.2) translate(20, 0)"
  >
    <line
      class="svg-42-a-line"
      style="animation-delay: -0.1200000000000001s"
      x1="0"
      x2="20"
      y1="0"
      y2="0"
    />
  </g>
  <g
    class="svg-42-a-g"
    transform="rotate(262.8) translate(20, 0)"
  >
    <line
      class="svg-42-a-line"
      style="animation-delay: -0.08000000000000007s"
      x1="0"
      x2="20"
      y1="0"
      y2="0"
    />
  </g>
  <g
    class="svg-42-a-g"
    transform="rotate(266.40000000000003) translate(20, 0)"
  >
    <line
      class="svg-42-a-line"
      style="animation-delay: -0.040000000000000036s"
      x1="0"
      x2="20"
      y1="0"
      y2="0"
    />
  </g>
</svg>
