<?xml version="1.0" encoding="UTF-8"?>
<!DOCTYPE svg><svg data-animation-duration="3.3333333333333335s" preserveAspectRatio="xMidYMid meet" version="1.1" viewBox="-50 -50 100 100" xmlns:xlink="http://www.w3.org/1999/xlink" xmlns="http://www.w3.org/2000/svg"><style>/* <![CDATA[ */ @keyframes svg-07-a-main-anim{0%{transform:scale(0);stroke-width:3}to{transform:scale(1);stroke-width:.01}}.svg-07-a-polygon{fill:none;stroke:#000;animation:svg-07-a-main-anim 10s linear infinite;xanimation-play-state:paused} /* ]]> */</style><defs><g class="svg-07-a-g" id="svg-07-a-mask-group"/><clipPath id="svg-07-a-mask-0"><path class="svg-07-a-path" d="M0,0 C25,0 50,10 50,50 C10,50 0,25 0,0 Z" fill="black" stroke="none" transform="translate(0.5, 0.5) rotate(-45, -0.5 -0.5) scale(0.8)"/><path class="svg-07-a-path" d="M0,0 C25,0 50,10 50,50 C10,50 0,25 0,0 Z" fill="black" stroke="none" transform="translate(0.5, 0.5) rotate(45, -0.5 -0.5) scale(0.8)"/><path class="svg-07-a-path" d="M0,0 C25,0 50,10 50,50 C10,50 0,25 0,0 Z" fill="black" stroke="none" transform="translate(0.5, 0.5) rotate(135, -0.5 -0.5) scale(0.8)"/><path class="svg-07-a-path" d="M0,0 C25,0 50,10 50,50 C10,50 0,25 0,0 Z" fill="black" stroke="none" transform="translate(0.5, 0.5) rotate(225, -0.5 -0.5) scale(0.8)"/></clipPath></defs><g class="svg-07-a-g" clip-path="url(#svg-07-a-mask-0)"><polygon class="svg-07-a-polygon" points="0,-50 50,-3.06161710499314e-15 6.12323420998628e-15,50 -50,9.184850891462946e-15" style="animation-delay: -0s"/><polygon class="svg-07-a-polygon" points="0,-50 50,-3.06161710499314e-15 6.12323420998628e-15,50 -50,9.184850891462946e-15" style="animation-delay: -3.3333333333333335s"/><polygon class="svg-07-a-polygon" points="0,-50 50,-3.06161710499314e-15 6.12323420998628e-15,50 -50,9.184850891462946e-15" style="animation-delay: -6.666666666666667s"/></g><g class="svg-07-a-g" clip-path="url(#svg-07-a-mask-0)" transform="rotate(45)"><polygon class="svg-07-a-polygon" points="0,-50 50,-3.06161710499314e-15 6.12323420998628e-15,50 -50,9.184850891462946e-15" style="animation-delay: -1.6666666666666667s"/><polygon class="svg-07-a-polygon" points="0,-50 50,-3.06161710499314e-15 6.12323420998628e-15,50 -50,9.184850891462946e-15" style="animation-delay: -5s"/><polygon class="svg-07-a-polygon" points="0,-50 50,-3.06161710499314e-15 6.12323420998628e-15,50 -50,9.184850891462946e-15" style="animation-delay: -8.333333333333334s"/></g><title>ANIMATION 07 - VARIATION A</title><desc><p>Created by <a href="http://andrew.wang-hoyer.com" target="_blank" rel="noopener">Andrew Wang-Hoyer</a>.</p></desc></svg>
