<?xml version="1.0" encoding="UTF-8"?>
<!DOCTYPE svg><svg data-animation-duration="10s" preserveAspectRatio="xMidYMid meet" version="1.1" viewBox="-50 -50 100 100" xmlns:xlink="http://www.w3.org/1999/xlink" xmlns="http://www.w3.org/2000/svg"><style>/* <![CDATA[ */ @keyframes svg-07-c-main-anim{0%{transform:scale(0);stroke-width:3}to{transform:scale(1);stroke-width:.01}}.svg-07-c-circle{stroke:#000;fill:none;animation:svg-07-c-main-anim 10s linear infinite} /* ]]> */</style><defs><g class="svg-07-c-g" id="svg-07-c-mask-group"/><clipPath id="svg-07-c-mask-0"><path class="svg-07-c-path" d="M0,0 C25,0 50,10 50,50 C10,50 0,25 0,0 Z" fill="black" stroke="none" transform="translate(0.5, 0.5) rotate(-45, -0.5 -0.5) scale(0.8)"/><path class="svg-07-c-path" d="M0,0 C25,0 50,10 50,50 C10,50 0,25 0,0 Z" fill="black" stroke="none" transform="translate(0.5, 0.5) rotate(45, -0.5 -0.5) scale(0.8)"/><path class="svg-07-c-path" d="M0,0 C25,0 50,10 50,50 C10,50 0,25 0,0 Z" fill="black" stroke="none" transform="translate(0.5, 0.5) rotate(135, -0.5 -0.5) scale(0.8)"/><path class="svg-07-c-path" d="M0,0 C25,0 50,10 50,50 C10,50 0,25 0,0 Z" fill="black" stroke="none" transform="translate(0.5, 0.5) rotate(225, -0.5 -0.5) scale(0.8)"/></clipPath></defs><g class="svg-07-c-g" clip-path="url(#svg-07-c-mask-0)"><circle class="svg-07-c-circle" cx="0" cy="0" r="50" style="animation-delay: -0s"/><circle class="svg-07-c-circle" cx="0" cy="0" r="50" style="animation-delay: -2s"/><circle class="svg-07-c-circle" cx="0" cy="0" r="50" style="animation-delay: -4s"/><circle class="svg-07-c-circle" cx="0" cy="0" r="50" style="animation-delay: -6s"/><circle class="svg-07-c-circle" cx="0" cy="0" r="50" style="animation-delay: -8s"/></g><g class="svg-07-c-g" clip-path="url(#svg-07-c-mask-0)" transform="rotate(45)"><circle class="svg-07-c-circle" cx="0" cy="0" r="50" style="animation-delay: -1s"/><circle class="svg-07-c-circle" cx="0" cy="0" r="50" style="animation-delay: -3s"/><circle class="svg-07-c-circle" cx="0" cy="0" r="50" style="animation-delay: -5s"/><circle class="svg-07-c-circle" cx="0" cy="0" r="50" style="animation-delay: -7s"/><circle class="svg-07-c-circle" cx="0" cy="0" r="50" style="animation-delay: -9s"/></g><title>ANIMATION 07 - VARIATION C</title><desc><p>Created by <a href="http://andrew.wang-hoyer.com" target="_blank" rel="noopener">Andrew Wang-Hoyer</a>.</p></desc></svg>
