<?xml version="1.0" encoding="UTF-8"?>
<!DOCTYPE svg>
<svg
  data-animation-duration="3s"
  viewBox="-50 -50 100 100"
>
  <title>
    ANIMATION 31 - VARIATION E
  </title>
  <desc>
    <p>See this animation in action here: <a href="https://andrew.wang-hoyer.com/experiments/svg-animations/31/e" target="_blank" rel="noopener">https://andrew.wang-hoyer.com/experiments/svg-animations/31/e</a>.</p>
    <p>Generator source code : <a href="https://github.com/ndrwhr/svg-animation-src/tree/master/site/_svgs/generators/animations/31/e.js" target="_blank" rel="noopener">https://github.com/ndrwhr/svg-animation-src/tree/master/site/_svgs/generators/animations/31/e.js</a>.</p>
    <p>All generated files and source code are released under the following license:</p>
    <p>MIT License</p>
    <p>Copyright (c) 2018-present Andrew Hoyer</p>
    <p>Permission is hereby granted, free of charge, to any person obtaining a copy of this software and associated documentation files (the &quot;Software&quot;), to deal in the Software without restriction, including without limitation the rights to use, copy, modify, merge, publish, distribute, sublicense, and/or sell copies of the Software, and to permit persons to whom the Software is furnished to do so, subject to the following conditions:</p>
    <p>The above copyright notice and this permission notice shall be included in all copies or substantial portions of the Software.</p>
    <p>THE SOFTWARE IS PROVIDED &quot;AS IS&quot;, WITHOUT WARRANTY OF ANY KIND, EXPRESS OR IMPLIED, INCLUDING BUT NOT LIMITED TO THE WARRANTIES OF MERCHANTABILITY, FITNESS FOR A PARTICULAR PURPOSE AND NONINFRINGEMENT. IN NO EVENT SHALL THE AUTHORS OR COPYRIGHT HOLDERS BE LIABLE FOR ANY CLAIM, DAMAGES OR OTHER LIABILITY, WHETHER IN AN ACTION OF CONTRACT, TORT OR OTHERWISE, ARISING FROM, OUT OF OR IN CONNECTION WITH THE SOFTWARE OR THE USE OR OTHER DEALINGS IN THE SOFTWARE.</p>
  </desc>
  <style>
    /* <![CDATA[ */
      .svg-31-e-polyline {
        stroke: black;
        stroke-width: .1;
        fill: none;
        stroke-dasharray: 4%, 4%, 1%, 1%;
        animation: svg-31-e-main-anim 3s linear infinite;
      }
      
      @keyframes svg-31-e-main-anim {
        from {
          stroke-dashoffset: 0;
        }
      
        to {
          stroke-dashoffset: 10%;
        }
      }
      
    /* ]]> */
  </style>
  <polyline
    class="svg-31-e-polyline"
    points="15.082518577575684,22.944456100463867 16.94032096862793,23.038833618164062 22.054100036621094,23.133209228515625 29.158660888671875,23.227584838867188 36.49625015258789,23.32195472717285 42.25138473510742,23.416322708129883 45,23.510684967041016 44.061710357666016,23.605037689208984 39.66817092895508,23.699384689331055 32.905723571777344,23.793720245361328 25.44669532775879,23.888046264648438 19.135644912719727,23.982358932495117 15.533074378967285,24.076658248901367 15.52936840057373,24.17093849182129 19.124528884887695,24.265201568603516 25.42816734313965,24.359445571899414 32.879791259765625,24.45366859436035 39.63482666015625,24.547866821289062 44.020957946777344,24.64203643798828 44.95183563232422,24.736183166503906 42.1958122253418,24.83029556274414 36.433265686035156,24.924375534057617 29.08827018737793,25.018423080444336 21.976303100585938,25.1124324798584 16.855119705200195,25.206401824951172 14.989911079406738,25.30032730102539 16.84031105041504,25.394208908081055 21.946685791015625,25.48804473876953 29.04384422302246,25.58182716369629 36.37403106689453,25.675559997558594 42.121768951416016,25.76923179626465 44.86298370361328,25.86284637451172 43.91729736328125,25.956401824951172 39.516357421875,26.049888610839844 32.74652099609375,26.143308639526367 25.28009796142578,26.236658096313477 18.96165657043457,26.32992935180664 15.351696968078613,26.423126220703125 15.340603828430176,26.5162410736084 18.928377151489258,26.609272003173828 25.224634170532227,26.702211380004883 32.66887283325195,26.795061111450195 39.416526794433594,26.887815475463867 43.795284271240234,26.980470657348633 44.71878433227539,27.073022842407227 41.95539093017578,27.16546630859375 36.18547439575195,27.257801055908203 28.833112716674805,27.350021362304688 21.713775634765625,27.442123413085938 16.585227966308594,27.534099578857422 14.712660789489746,27.625953674316406 16.555702209472656,27.717676162719727 21.654722213745117,27.809263229370117 28.74452781677246,27.900711059570312 36.06736373901367,27.99201774597168 41.80775833129883,28.083175659179688 44.541629791259766,28.17418098449707 43.58860397338867,28.26502799987793 39.18033218383789,28.355716705322266 32.403160095214844,28.446239471435547 24.92940330505371,28.536592483520508 18.6036376953125,28.62677001953125 14.98635482788086,28.716766357421875 14.96794319152832,28.806583404541016 18.54840087890625,28.896207809448242 24.837345123291016,28.985639572143555 32.27427673339844,29.074874877929688 39.01462936401367,29.16390609741211 43.38608169555664,29.25272560119629 44.30228805541992,29.34133529663086 41.53160095214844,29.42972755432129 35.754398345947266,29.517894744873047 28.394750595092773,29.6058349609375 21.268136978149414,29.693538665771484 16.132314682006836,29.781005859375 14.25247573852539,29.86823081970215 16.0882511138916,29.955204010009766 21.180009841918945,30.04192352294922 28.262561798095703,30.128385543823242 35.57814407348633,30.214580535888672 41.3112907409668,30.300506591796875 44.03791809082031,30.386154174804688 43.077659606933594,30.471525192260742 38.66215133666992,30.556608200073242 31.87775421142578,30.641395568847656 24.39677619934082,30.725889205932617 18.063793182373047,30.81007957458496 14.439301490783691,30.893959045410156 14.41368293762207,30.977527618408203 17.986940383911133,31.060773849487305 24.26869010925293,31.14369773864746 31.69843101501465,31.226289749145508 38.43159866333008,31.308544158935547 42.795875549316406,31.390457153320312 43.70491027832031,31.47201919555664 40.927059173583984,31.553232192993164 35.142696380615234,31.634084701538086 27.775894165039062,31.714569091796875 20.642131805419922,31.79468536376953 15.49916934967041,31.874425888061523 13.612195014953613,31.953781127929688 15.440841674804688,32.03274917602539 20.525476455688477,32.111324310302734 27.600910186767578,32.18949890136719 34.90938949584961,32.267269134521484 40.63542938232422,32.344627380371094 43.35496139526367,32.42156982421875 42.387611389160156,32.498085021972656 37.965023040771484,32.57417678833008 31.173547744750977,32.64983367919922 23.685503005981445,32.72504425048828 17.345455169677734,32.79981231689453 13.713906288146973,32.87413024902344 13.681241989135742,32.9479866027832 17.247459411621094,33.02138137817383 23.522174835205078,33.09430694580078 30.94489288330078,33.1667594909668 37.671043395996094,33.23872756958008 42.0283088684082,33.310211181640625 42.930335998535156,33.38119888305664 40.14548873901367,33.45168685913086 34.3541374206543,33.52167510986328 26.980356216430664,33.59115219116211 19.839622497558594,33.66011428833008 14.689695358276367,33.72854995727539 12.795763969421387,33.79646682739258 14.617461204528809,33.86384582519531 19.695158004760742,33.930686950683594 26.76365852355957,33.99698257446289 34.06521224975586,34.0627326965332 39.784339904785156,34.12792205810547 42.49696350097656,34.19255447387695 41.5227165222168,34.256622314453125 37.09323501586914,34.32011413574219 30.294876098632812,34.38302993774414 22.79996109008789,34.44536209106445 16.45305061340332,34.507102966308594 12.81464672088623,34.56825256347656 12.775134086608887,34.62880325317383 16.334514617919922,34.688751220703125 22.602401733398438,34.748085021972656 30.018299102783203,34.80680847167969 36.737640380859375,34.86491012573242 41.088104248046875,34.92237854003906 41.983341217041016,34.979225158691406 39.191715240478516,35.035430908203125 33.393585205078125,35.09099578857422 26.013042449951172,35.14591598510742 18.865554809570312,35.2001838684082 13.708883285522461,35.25379180908203 11.80821704864502,35.30674362182617 13.623190879821777,35.35902786254883 18.694169998168945,35.41063690185547 25.75596809387207,35.46157455444336 33.05082702636719,35.51182556152344 38.763267517089844,35.561397552490234 41.469215393066406,35.61027526855469 40.48830032348633,35.65846252441406 36.05216979980469,35.7059440612793 29.247167587280273,35.752723693847656 21.745615005493164,35.798797607421875 15.392081260681152,35.844154357910156 11.747063636779785,35.8887939453125 11.700948715209961,35.93271255493164 15.25373649597168,35.97590637207031 21.515043258666992,36.018367767333984 28.92436981201172,36.06010055541992 35.63714599609375,36.10108947753906 39.98106384277344,36.141334533691406 40.86976623535156,36.18083572387695 38.07160949707031,36.21958541870117 32.266963958740234,36.2575798034668 24.87991714477539,36.29481887817383 17.725934982299805,36.331295013427734 12.56278133392334,36.36700439453125 10.655643463134766,36.401947021484375 12.464156150817871,36.43611526489258 17.528688430786133,36.46950912475586 24.584047317504883,36.50212097167969 31.872480392456055,36.53395080566406 37.57850646972656,36.564998626708984 40.278053283691406,36.595252990722656 39.29075241088867,36.62471389770508 34.84823989868164,36.65338134765625 28.0368709564209,36.68124771118164 20.52896499633789,36.70831298828125 14.169086456298828,36.73457717895508 10.517739295959473,36.760032653808594 10.465306282043457,36.7846794128418 14.011787414550781,36.80851364135742 20.266801834106445,36.8315315246582 27.669845581054688,36.85373306274414 34.3763542175293,36.87511444091797 38.714012145996094,36.89567565917969 39.59646987915039,36.915409088134766 36.79207992553711,36.934322357177734 30.981220245361328,36.9524040222168 23.58796501159668,36.96965408325195 16.42778968811035,36.9860725402832 11.258453369140625,37.00165939331055 9.345148086547852,37.01641082763672 11.147505760192871,37.03032302856445 16.205896377563477,37.04339599609375 23.255126953125,37.05562973022461 30.537443161010742,37.067020416259766 36.23736572265625,37.077571868896484 38.93082809448242,37.08727264404297 37.937442779541016,37.096134185791016 33.488868713378906,37.104148864746094 26.67145347595215,37.1113166809082 19.15751075744629,37.11763000488281 12.791610717773438,37.123104095458984 9.134254455566406,37.12771987915039 9.075826644897461,37.131492614746094 12.616325378417969,37.1344108581543 18.865371704101562,37.136474609375 26.262460708618164,37.1376953125 32.96302795410156,37.1380615234375 37.29476547241211,37.1375732421875 38.17131042480469,37.136234283447266 35.36102294921875,37.1340446472168 29.54427719116211,37.131004333496094 22.145151138305664,37.127113342285156 14.979120254516602,37.12236785888672 9.803943634033203,37.11677551269531 7.884811878204346,37.11033248901367 9.681357383728027,37.10304260253906 14.733948707580566,37.09489822387695 21.77739715576172,37.08591079711914 29.053943634033203,37.076072692871094 34.74811553955078,37.065391540527344 37.43583679199219,37.053863525390625 36.43672561645508,37.04149627685547 31.98244285583496,37.028282165527344 25.159330368041992,37.01422882080078 17.639707565307617,36.99933624267578 11.268143653869629,36.98360824584961 7.605136871337891,36.967041015625 7.541073799133301,36.949642181396484 11.075953483581543,36.93140411376953 17.319395065307617,36.9123420715332 24.710895538330078,36.892452239990234 31.4058895111084,36.87173080444336 35.73206329345703,36.85018539428711 36.603065490722656,36.827823638916016 33.78725051879883,36.80463790893555 27.964996337890625,36.780635833740234 20.56037139892578,36.755821228027344 13.388861656188965,36.73019790649414 8.208218574523926,36.703758239746094 6.283637523651123,36.676517486572266 8.074748992919922,36.648475646972656 13.121923446655273,36.619632720947266 20.159969329833984,36.589996337890625 27.43113136291504,36.55956268310547 33.119930267333984,36.528343200683594 35.80229568481445,36.496334075927734 34.7978515625,36.46354293823242 30.338247299194336,36.42997360229492 23.50982666015625,36.3956298828125 15.984915733337402,36.360511779785156 9.608078002929688,36.32463455200195 5.939815998077393,36.28798294067383 5.870512008666992,36.250579833984375 9.400169372558594,36.21242141723633 15.638401985168457,36.17351150512695 23.02471351623535,36.133853912353516 29.71453285217285,36.09346008300781 34.035552978515625,36.05232620239258 34.90141296386719,36.01045608520508 32.080474853515625,35.967864990234375 26.253110885620117,35.9245491027832 18.843399047851562,35.88051223754883 11.666813850402832,35.83576965332031 6.481116771697998,35.790313720703125 4.5514960289001465,35.74415969848633 6.337586402893066,35.69730758666992 11.379755020141602,35.64976501464844 18.412813186645508,35.60153579711914 25.679006576538086,35.55262756347656 31.362852096557617,35.50304412841797 34.040283203125,35.45279312133789 33.030921936035156,35.40187454223633 28.56641387939453,35.35030746459961 21.73311424255371,35.2980842590332 14.203335762023926,35.24521255493164 7.821650505065918,35.191707611083984 4.148556709289551,35.1375732421875 4.0744404792785645,35.08280563354492 7.599302768707275,35.02742385864258 13.832757949829102,34.97142791748047 21.214309692382812,34.914825439453125 27.89938735961914,34.85762023925781 32.21568298339844,34.79982376098633 33.076839447021484,34.7414436340332 30.2512149810791,34.68247985839844 24.419179916381836,34.62294387817383 17.00481605529785,34.56284713745117 9.823598861694336,34.50218963623047 4.6332855224609375,34.44097900390625 2.699068069458008,34.37923049926758 4.480579853057861,34.31694030761719 9.5181884765625,34.25412368774414 16.54670524597168,34.1907844543457 23.808372497558594,34.12693405151367 29.487714767456055,34.06257247924805 32.1606559753418,33.997718811035156 31.14682960510254,33.932369232177734 26.677873611450195,33.86653518676758 19.84014129638672,33.800228118896484 12.305952072143555,33.733455657958984 5.919872760772705,33.666221618652344 2.2424051761627197,33.598541259765625 2.1639325618743896,33.53041076660156 5.684457778930664,33.461849212646484 11.913596153259277,33.392860412597656 19.290849685668945,33.323455810546875 25.971649169921875,33.253639221191406 30.283679962158203,33.18341827392578 31.140594482421875,33.11280822753906 28.310745239257812,33.041812896728516 22.47450828552246,32.97043991088867 15.055960655212402,32.89870071411133 7.870576858520508,32.82660675048828 2.6761183738708496,32.75415802001953 0.7377738952636719,32.681373596191406 2.5151779651641846,32.608253479003906 7.548698902130127,32.53480911254883 14.573147773742676,32.46105194091797 21.830766677856445,32.38698959350586 27.506078720092773,32.31262969970703 30.175012588500977,32.23798370361328 29.157190322875977,32.16305923461914 24.684263229370117,32.08786392211914 17.842580795288086,32.01240921020508 10.304460525512695,31.93670654296875 3.9144704341888428,31.860761642456055 0.23311159014701843,31.78458595275879 0.15076696872711182,31.70818328857422 3.667440176010132,31.63157081604004 9.892745971679688,31.55475425720215 17.266185760498047,31.477741241455078 23.943193435668945,31.400543212890625 28.251453399658203,31.323169708251953 29.104616165161133,31.245630264282227 26.271034240722656,31.16793441772461 20.43108558654785,31.0900936126709 13.008844375610352,31.012113571166992 5.819790840148926,30.934005737304688 0.6216800808906555,30.855777740478516 -1.3202942609786987,30.77744483947754 0.4534984529018402,30.699012756347656 5.483429431915283,30.62049102783203 12.50430679321289,30.541887283325195 19.75837516784668,30.46321678161621 25.430160522460938,30.384483337402344 28.0955867767334,30.305700302124023 27.074277877807617,30.226879119873047 22.597881317138672,30.148025512695312 15.752752304077148,30.06915283203125 8.21120548248291,29.990264892578125 1.8178085088729858,29.911378860473633 -1.8669353723526,29.832500457763672 -1.9526435136795044,29.75364112854004 1.5606857538223267,29.674808502197266 7.782668590545654,29.596010208129883 15.152807235717773,29.517263412475586 21.826534271240234,29.438575744628906 26.131534576416016,29.359952926635742 26.981454849243164,29.28140640258789 24.144655227661133,29.20294952392578 18.301509857177734,29.124588012695312 10.876092910766602,29.04633140563965 3.6838836669921875,28.96819305419922 -1.5173604488372803,28.89017677307129 -3.462449073791504,28.812301635742188 -1.6917475461959839,28.73456573486328 3.335113048553467,28.6569881439209 10.352941513061523,28.579578399658203 17.60398292541504,28.502338409423828 23.27275848388672,28.42528533935547 25.935195922851562,28.348424911499023 24.910924911499023,28.271766662597656 20.43158721923828,28.195323944091797 13.583535194396973,28.119102478027344 6.039088249206543,28.043113708496094 -0.3571871817111969,27.96736717224121 -4.044788837432861,27.891870498657227 -4.133333206176758,27.81663703918457 -0.6228174567222595,27.74167251586914 5.596372604370117,27.666988372802734 12.963740348815918,27.592592239379883 19.63471794128418,27.518491744995117 23.936988830566406,27.4447021484375 24.784204483032227,27.371231079101562 21.944719314575195,27.298084259033203 16.098913192749023,27.22527503967285 8.670853614807129,27.152809143066406 1.4760247468948364,27.0806941986084 -3.7278170585632324,27.00894546508789 -5.67548131942749,26.93756675720215 -3.9073338508605957,26.8665714263916 1.116994023323059,26.795963287353516 8.132311820983887,26.725757598876953 15.380865097045898,26.655956268310547 21.04717445373535,26.586572647094727 23.707170486450195,26.517616271972656 22.68047523498535,26.449092864990234 18.1987361907959,26.381010055541992 11.348306655883789,26.31338119506836 3.8015031814575195,26.2462100982666 -2.5971057415008545,26.179508209228516 -6.287020683288574,26.113285064697266 -6.377854347229004,26.047544479370117 -2.869607448577881,25.982297897338867 3.3473377227783203,25.917556762695312 10.712480545043945,25.853321075439453 17.381258010864258,25.789608001708984 21.681350708007812,25.726417541503906 22.526409149169922,25.66376495361328 19.684791564941406,25.601648330688477 13.836870193481445,25.54008674621582 6.406722545623779,25.479084014892578 -0.7901739478111267,25.418643951416016 -5.996061325073242,25.358781814575195 -7.945748329162598,25.299495697021484 -6.179600715637207,25.240802764892578 -1.157251000404358,25.182701110839844 5.856112003326416,25.125205993652344 13.102730751037598,25.06831932067871 18.767131805419922,25.012052536010742 21.42523765563965,24.956411361694336 20.396677017211914,24.90140151977539 15.913095474243164,24.847030639648438 9.060846328735352,24.793306350708008 1.5122450590133667,24.740236282348633 -4.888139247894287,24.687824249267578 -8.579806327819824,24.63608169555664 -8.672369956970215,24.585006713867188 -5.165831089019775,24.534616470336914 1.0494297742843628,24.48491096496582 8.412911415100098,24.435897827148438 15.080047607421875,24.38758087158203 19.378524780273438,24.339969635009766 20.221988677978516,24.293071746826172 17.378801345825195,24.24688720703125 11.52933120727539,24.20142936706543 4.097657203674316,24.15669822692871 -3.1007423400878906,24.112701416015625 -8.30810832977295,24.06944465637207 -10.25925350189209,24.026931762695312 -8.494539260864258,23.985170364379883 -3.4736008644104004,23.94416618347168 3.5383732318878174,23.90392303466797 10.7836275100708,23.86444664001465 16.446683883666992,23.825742721557617 19.103469848632812,23.787813186645508 18.073612213134766,23.75066566467285 13.58875846862793,23.714305877685547 6.735257148742676,23.678735733032227 -0.8145734071731567,23.64396095275879 -7.216162204742432,23.609987258911133 -10.909010887145996,23.57681655883789 -11.002735137939453,23.544452667236328 -7.497330665588379,23.51290512084961 -1.28318452835083,23.48217010498047 6.079207420349121,23.452259063720703 12.745277404785156,23.42317008972168 17.042709350585938,23.39491081237793 17.88515281677246,23.367481231689453 15.04096508026123,23.34088897705078 9.190522193908691,23.315134048461914 1.7578965425491333,23.29022216796875 -5.441431522369385,23.266155242919922 -10.649703979492188,23.242937088012695 -12.601731300354004,23.22056770324707 -10.83787727355957,23.199054718017578 -5.817775249481201,23.17839813232422 1.1933852434158325,23.158599853515625 8.437849998474121,23.139665603637695 14.100140571594238,23.121593475341797 16.756181716918945,23.104389190673828 15.725605010986328,23.088054656982422 11.24005126953125,23.072589874267578 4.385876178741455,23.057998657226562 -3.1646037101745605,23.044282913208008 -9.566821098327637,23.031444549560547 -13.260273933410645,23.01948356628418 -13.354578971862793,23.00840187072754 -9.849733352661133,22.998199462890625 -3.636122703552246,22.98888397216797 3.725757122039795,22.980449676513672 10.391337394714355,22.972902297973633 14.688305854797363,22.966238021850586 15.530306816101074,22.96046257019043 12.685700416564941,22.9555721282959 6.834861755371094,22.95157241821289 -0.5981358289718628,22.94845962524414 -7.797813415527344,22.94623565673828 -13.006412506103516,22.944900512695312 -14.958741188049316,22.944456100463867 -13.195167541503906,22.944900512695312 -8.175320625305176,22.94623565673828 -1.1643918752670288,22.94845962524414 6.079862117767334,22.95157241821289 11.741966247558594,22.9555721282959 14.397845268249512,22.96046257019043 13.367127418518066,22.966238021850586 8.881458282470703,22.972902297973633 2.027191162109375,22.980449676513672 -5.523359298706055,22.98888397216797 -11.925623893737793,22.998199462890625 -15.619099617004395,23.00840187072754 -15.713404655456543,23.01948356628418 -12.208536148071289,23.031444549560547 -5.99487829208374,23.044282913208008 1.3670718669891357,23.057998657226562 8.032745361328125,23.072589874267578 12.329830169677734,23.088054656982422 13.171969413757324,23.104389190673828 10.327527046203613,23.121593475341797 4.476873874664307,23.139665603637695 -2.9559144973754883,23.158599853515625 -10.15535831451416,23.17839813232422 -15.363702774047852,23.199054718017578 -17.315750122070312,23.22056770324707 -15.551873207092285,23.242937088012695 -10.531702041625977,23.266155242919922 -3.5204243659973145,23.29022216796875 3.7242021560668945,23.315134048461914 9.386701583862305,23.34088897705078 12.042999267578125,23.367481231689453 11.012723922729492,23.39491081237793 6.527520179748535,23.42317008972168 -0.32625851035118103,23.452259063720703 -7.876297473907471,23.48217010498047 -14.278026580810547,23.51290512084961 -17.970945358276367,23.544452667236328 -18.06467056274414,23.57681655883789 -14.559196472167969,23.609987258911133 -8.344908714294434,23.64396095275879 -0.982308030128479,23.678735733032227 5.68403959274292,23.714305877685547 9.981821060180664,23.75066566467285 10.824682235717773,23.787813186645508 7.980982780456543,23.825742721557617 2.1310958862304688,23.86444664001465 -5.300902366638184,23.90392303466797 -12.499532699584961,23.94416618347168 -17.707040786743164,23.985170364379883 -19.658227920532227,24.026931762695312 -17.893468856811523,24.06944465637207 -12.872392654418945,24.112701416015625 -5.860186576843262,24.15669822692871 1.3853932619094849,24.20142936706543 7.0488667488098145,24.24688720703125 9.70616340637207,24.293071746826172 8.676909446716309,24.339969635009766 4.1927490234375,24.38758087158203 -2.6599628925323486,24.435897827148438 -10.20891284942627,24.48491096496582 -16.609525680541992,24.534616470336914 -20.301311492919922,24.585006713867188 -20.393875122070312,24.63608169555664 -16.887218475341797,24.687824249267578 -10.671727180480957,24.740236282348633 -3.3078973293304443,24.793306350708008 3.359701633453369,24.847030639648438 7.658756256103516,24.90140151977539 8.502915382385254,24.956411361694336 5.6605353355407715,25.012052536010742 -0.18800711631774902,25.06831932067871 -7.618640422821045,25.125205993652344 -14.815882682800293,25.182701110839844 -20.0219783782959,25.240802764892578 -21.97173309326172,25.299495697021484 -20.205514907836914,25.358781814575195 -15.182957649230957,25.418643951416016 -8.16925048828125,25.479084014892578 -0.9221467971801758,25.54008674621582 4.742876052856445,25.601648330688477 7.401743412017822,25.66376495361328 6.374083518981934,25.726417541503906 1.8915396928787231,25.789608001708984 -4.959532737731934,25.853321075439453 -12.506817817687988,25.917556762695312 -18.905750274658203,25.982297897338867 -22.595827102661133,26.047544479370117 -22.686660766601562,26.113285064697266 -19.178251266479492,26.179508209228516 -12.960986137390137,26.2462100982666 -5.595358371734619,26.31338119506836 1.0740611553192139,26.381010055541992 5.374959468841553,26.449092864990234 6.220983505249023,26.517616271972656 3.3804917335510254,26.586572647094727 -2.4661412239074707,26.655956268310547 -9.894842147827148,26.725757598876953 -17.090129852294922,26.795963287353516 -22.29424476623535,26.8665714263916 -24.242000579833984,26.93756675720215 -22.4737606048584,27.00894546508789 -17.449159622192383,27.0806941986084 -10.433382034301758,27.152809143066406 -3.1841886043548584,27.22527503967285 2.482945680618286,27.298084259033203 5.143948554992676,27.371231079101562 4.118444919586182,27.4447021484375 -0.3619200885295868,27.518491744995117 -7.210792064666748,27.592592239379883 -14.755855560302734,27.666988372802734 -21.152538299560547,27.74167251586914 -24.840347290039062,27.81663703918457 -24.928890228271484,27.891870498657227 -21.41817283630371,27.96736717224121 -15.198569297790527,28.043113708496094 -7.830586910247803,28.119102478027344 -1.1587893962860107,28.195323944091797 3.1445088386535645,28.271766662597656 3.992955446243286,28.348424911499023 1.1549088954925537,28.42528533935547 -4.689258098602295,28.502338409423828 -12.115470886230469,28.579578399658203 -19.30824851989746,28.6569881439209 -24.509830474853516,28.73456573486328 -26.455034255981445,28.812301635742188 -24.68421745300293,28.89017677307129 -19.65701675415039,28.96819305419922 -12.638620376586914,29.04633140563965 -5.386786460876465,29.124588012695312 0.2830105423927307,29.20294952392578 2.946697950363159,29.28140640258789 1.9239007234573364,29.359952926635742 -2.5537359714508057,29.438575744628906 -9.399857521057129,29.517263412475586 -16.942150115966797,29.596010208129883 -23.336044311523438,29.674808502197266 -27.021034240722656,29.75364112854004 -27.10674285888672,29.832500457763672 -23.593168258666992,29.911378860473633 -17.370685577392578,29.990264892578125 -9.999802589416504,30.06915283203125 -3.3250842094421387,30.148025512695312 0.9811577796936035,30.226879119873047 1.8325687646865845,30.305700302124023 -1.002493143081665,30.384483337402344 -6.843653678894043,30.46321678161621 -14.266836166381836,30.541887283325195 -21.456562042236328,30.62049102783203 -26.65507698059082,30.699012756347656 -28.597185134887695,30.77744483947754 -26.823259353637695,30.855777740478516 -21.792924880981445,30.934005737304688 -14.77137279510498,31.012113571166992 -7.51636266708374,31.0900936126709 -1.8433668613433838,31.16793441772461 0.8235378265380859,31.245630264282227 -0.19602040946483612,31.323169708251953 -4.67039680480957,31.400543212890625 -11.513236999511719,31.477741241455078 -19.052227020263672,31.55475425720215 -25.442798614501953,31.63157081604004 -29.124446868896484,31.70818328857422 -29.206790924072266,31.78458595275879 -25.689828872680664,31.860761642456055 -19.463943481445312,31.93670654296875 -12.089634895324707,32.01240921020508 -5.411466598510742,32.08786392211914 -1.1017581224441528,32.16305923461914 -0.2468590885400772,32.23798370361328 -3.078411340713501,32.31262969970703 -8.91604232788086,32.38698959350586 -16.335676193237305,32.46105194091797 -23.521833419799805,32.53480911254883 -28.71675682067871,32.608253479003906 -30.655256271362305,32.681373596191406 -28.877696990966797,32.75415802001953 -23.843711853027344,32.82660675048828 -16.8184871673584,32.89870071411133 -9.559784889221191,32.97043991088867 -3.88307785987854,33.041812896728516 -1.2124415636062622,33.11280822753906 -2.2282466888427734,33.18341827392578 -6.698851108551025,33.253639221191406 -13.537899017333984,33.323455810546875 -21.07308006286621,33.392860412597656 -27.459814071655273,33.461849212646484 -31.13761329650879,33.53041076660156 -31.216083526611328,33.598541259765625 -27.69523048400879,33.666221618652344 -21.46543312072754,33.733455657958984 -14.087191581726074,33.800228118896484 -7.4050750732421875,33.86653518676758 -3.091395378112793,33.932369232177734 -2.2325053215026855,33.997718811035156 -5.0600481033325195,34.06257247924805 -10.893649101257324,34.12693405151367 -18.309234619140625,34.1907844543457 -25.491321563720703,34.25412368774414 -30.682159423828125,34.31694030761719 -32.61655044555664,34.37923049926758 -30.834863662719727,34.44097900390625 -25.79673194885254,34.50218963623047 -18.767343521118164,34.56284713745117 -11.50445556640625,34.62294387817383 -5.823546409606934,34.68247985839844 -3.148685932159424,34.7414436340332 -4.160249710083008,34.79982376098633 -8.626592636108398,34.85762023925781 -15.461362838745117,34.914825439453125 -22.992238998413086,34.97142791748047 -29.37466049194336,35.02742385864258 -33.048118591308594,35.08280563354492 -33.12223434448242,35.1375732421875 -29.597007751464844,35.191707611083984 -23.362815856933594,35.24521255493164 -15.980164527893066,35.2980842590332 -9.29361629486084,35.35030746459961 -4.97548770904541,35.40187454223633 -4.1121296882629395,35.45279312133789 -6.93518590927124,35.50304412841797 -12.764280319213867,35.55262756347656 -20.175342559814453,35.60153579711914 -27.352888107299805,35.64976501464844 -32.53916549682617,35.69730758666992 -34.46897506713867,35.74415969848633 -32.68269729614258,35.790313720703125 -27.639949798583984,35.83576965332031 -20.605928421020508,35.88051223754883 -13.338386535644531,35.9245491027832 -7.652807712554932,35.967864990234375 -4.973259925842285,36.01045608520508 -5.9801177978515625,36.05232620239258 -10.441736221313477,36.09346008300781 -17.271764755249023,36.133853912353516 -24.79788589477539,36.17351150512695 -31.175527572631836,36.21242141723633 -34.84419631958008,36.250579833984375 -34.91349792480469,36.28798294067383 -31.383438110351562,36.32463455200195 -25.144399642944336,36.360511779785156 -17.756879806518555,36.3956298828125 -11.065449714660645,36.42997360229492 -6.7424187660217285,36.46354293823242 -5.874143123626709,36.496334075927734 -8.69226360321045,36.528343200683594 -14.516406059265137,36.55956268310547 -21.922496795654297,36.589996337890625 -29.09505844116211,36.619632720947266 -34.27632522583008,36.648475646972656 -36.20111846923828,36.676517486572266 -34.40979766845703,36.703758239746094 -29.361995697021484,36.73019790649414 -22.322898864746094,36.755821228027344 -15.050270080566406,36.780635833740234 -9.35958480834961,36.80463790893555 -6.67491340637207,36.827823638916016 -7.676631450653076,36.85018539428711 -12.133092880249023,36.87173080444336 -18.95794677734375,36.892452239990234 -26.4788761138916,36.9123420715332 -32.851314544677734,36.93140411376953 -36.51475143432617,36.949642181396484 -36.578819274902344,36.967041015625 -33.04349899291992,36.98360824584961 -26.799190521240234,36.99933624267578 -19.406381607055664,37.01422882080078 -12.709646224975586,37.028282165527344 -8.381295204162598,37.04149627685547 -7.507680416107178,37.053863525390625 -10.320448875427246,37.065391540527344 -16.13922119140625,37.076072692871094 -23.53992462158203,37.08591079711914 -30.70708465576172,37.09489822387695 -35.882938385009766,37.10304260253906 -37.80229187011719,37.11033248901367 -36.005523681640625,37.11677551269531 -30.952255249023438,37.12236785888672 -23.90768051147461,37.127113342285156 -16.629552841186523,37.131004333496094 -10.933354377746582,37.1340446472168 -8.243155479431152,37.136234283447266 -9.239331245422363,37.1375732421875 -13.690235137939453,37.1380615234375 -20.50951385498047,37.1376953125 -28.024852752685547,37.136474609375 -34.391685485839844,37.1344108581543 -38.049503326416016,37.131492614746094 -38.10793685913086,37.12771987915039 -34.56697082519531,37.123104095458984 -28.316993713378906,37.11763000488281 -20.918506622314453,37.1113166809082 -14.216072082519531,37.104148864746094 -9.882012367248535,37.096134185791016 -9.002674102783203,37.08727264404297 -11.809700012207031,37.077571868896484 -17.622718811035156,37.067020416259766 -25.017656326293945,37.05562973022461 -32.17903137207031,37.04339599609375 -37.349082946777344,37.03032302856445 -39.262630462646484,37.01641082763672 -37.46003341674805,37.00165939331055 -32.40092468261719,36.9860725402832 -25.350492477416992,36.96965408325195 -18.066497802734375,36.9524040222168 -12.364415168762207,36.934322357177734 -9.668318748474121,36.915409088134766 -10.65857982635498,36.89567565917969 -15.103558540344238,36.87511444091797 -21.916898727416992,36.85373306274414 -29.426280975341797,36.8315315246582 -35.78714370727539,36.80851364135742 -39.43898391723633,36.7846794128418 -39.49142074584961,36.760032653808594 -35.9444465637207,36.73457717895508 -29.688446044921875,36.70831298828125 -22.28392219543457,36.68124771118164 -15.575440406799316,36.65338134765625 -11.235318183898926,36.62471389770508 -10.349903106689453,36.595252990722656 -13.150840759277344,36.564998626708984 -18.9577579498291,36.53395080566406 -26.34657859802246,36.50212097167969 -33.50182342529297,36.46950912475586 -38.665733337402344,36.43611526489258 -40.573123931884766,36.401947021484375 -38.76435470581055,36.36700439453125 -33.69906997680664,36.331295013427734 -26.642444610595703,36.29481887817383 -19.35224151611328,36.2575798034668 -13.643939971923828,36.21958541870117 -10.941611289978027,36.18083572387695 -11.925629615783691,36.141334533691406 -16.364351272583008,36.10108947753906 -23.171422958374023,36.06010055541992 -30.67452621459961,36.018367767333984 -37.02909851074219,35.97590637207031 -40.67462921142578,35.93271255493164 -40.72074508666992,35.8887939453125 -37.167442321777344,35.844154357910156 -30.90509796142578,35.798797607421875 -23.494216918945312,35.752723693847656 -16.779369354248047,35.7059440612793 -12.432868003845215,35.65846252441406 -11.541064262390137,35.61027526855469 -14.33559799194336,35.561397552490234 -20.13610076904297,35.51182556152344 -27.518495559692383,35.46157455444336 -34.66730499267578,35.41063690185547 -39.82476806640625,35.35902786254883 -41.7256965637207,35.30674362182617 -39.91046142578125,35.25379180908203 -34.838687896728516,35.2001838684082 -27.775569915771484,35.14591598510742 -20.478864669799805,35.09099578857422 -14.764046669006348,35.035430908203125 -12.05518913269043,34.979225158691406 -13.032670021057129,34.92237854003906 -17.464841842651367,34.86491012573242 -24.265352249145508,34.80680847167969 -31.761884689331055,34.748085021972656 -38.1098747253418,34.688751220703125 -41.748817443847656,34.62880325317383 -41.788326263427734,34.56825256347656 -38.22840881347656,34.507102966308594 -31.959442138671875,34.44536209106445 -24.541929244995117,34.38302993774414 -17.820438385009766,34.32011413574219 -13.467281341552734,34.256622314453125 -12.56881046295166,34.19255447387695 -15.356672286987305,34.12792205810547 -21.150487899780273,34.0627326965332 -28.526185989379883,33.99698257446289 -35.66828918457031,33.930686950683594 -40.81904220581055,33.86384582519531 -42.71324920654297,33.79646682739258 -40.891273498535156,33.72854995727539 -35.8127555847168,33.66011428833008 -28.742883682250977,33.59115219116211 -21.439414978027344,33.52167510986328 -15.717823028564453,33.45168685913086 -13.00218391418457,33.38119888305664 -13.972871780395508,33.310211181640625 -18.398242950439453,33.23872756958008 -25.19194221496582,33.1667594909668 -32.68165969848633,33.09430694580078 -39.0228157043457,33.02138137817383 -42.65492248535156,32.9479866027832 -42.68758773803711,32.87413024902344 -39.12081527709961,32.79981231689453 -32.84498596191406,32.72504425048828 -25.42059898376465,32.64983367919922 -18.692224502563477,32.57417678833008 -14.33217716217041,32.498085021972656 -13.426807403564453,32.42156982421875 -16.207761764526367,32.344627380371094 -21.994665145874023,32.267269134521484 -29.363439559936523,32.18949890136719 -36.49861145019531,32.111324310302734 -41.642417907714844,32.03274917602539 -43.5296745300293,31.953781127929688 -41.700748443603516,31.874425888061523 -36.615264892578125,31.79468536376953 -29.538421630859375,31.714569091796875 -22.22797203063965,31.634084701538086 -16.499391555786133,31.553232192993164 -13.776759147644043,31.47201919555664 -14.740442276000977,31.390457153320312 -19.158803939819336,31.308544158935547 -25.945484161376953,31.226289749145508 -33.42817306518555,31.14369773864746 -39.76229476928711,31.060773849487305 -43.387359619140625,30.977527618408203 -43.41297912597656,30.893959045410156 -39.839149475097656,30.81007957458496 -33.55625915527344,30.725889205932617 -26.124805450439453,30.641395568847656 -19.389354705810547,30.556608200073242 -15.022225379943848,30.471525192260742 -14.10976791381836,30.386154174804688 -16.883625030517578,30.300506591796875 -22.663423538208008,30.214580535888672 -30.025089263916016,30.128385543823242 -37.15314483642578,30.04192352294922 -42.28982925415039,29.955204010009766 -44.169960021972656,29.86823081970215 -42.333892822265625,29.781005859375 -37.24127197265625,29.693538665771484 -30.157278060913086,29.6058349609375 -22.839675903320312,29.517894744873047 -17.10393524169922,29.42972755432129 -14.37413501739502,29.34133529663086 -15.330646514892578,29.25272560119629 -19.741830825805664,29.16390609741211 -26.521329879760742,29.074874877929688 -33.996826171875,28.985639572143555 -40.32375717163086,28.896207809448242 -43.941619873046875,28.806583404541016 -43.96003341674805,28.716766357421875 -40.37899398803711,28.62677001953125 -34.088890075683594,28.536592483520508 -26.650209426879883,28.446239471435547 -19.907533645629883,28.355716705322266 -15.533170700073242,28.26502799987793 -14.613475799560547,28.17418098449707 -17.380090713500977,28.083175659179688 -23.15264320373535,27.99201774597168 -30.50705909729004,27.900711059570312 -37.62785720825195,27.809263229370117 -42.75728225708008,27.717676162719727 -44.6301383972168,27.625953674316406 -42.786808013916016,27.534099578857422 -37.68690872192383,27.442123413085938 -30.595640182495117,27.350021362304688 -23.270750045776367,27.257801055908203 -17.52772331237793,27.16546630859375 -14.790630340576172,27.073022842407227 -15.739848136901855,26.980470657348633 -20.14373016357422,26.887815475463867 -26.915925979614258,26.795061111450195 -34.384117126464844,26.702211380004883 -40.703739166259766,26.609272003173828 -44.31428527832031,26.5162410736084 -44.32537841796875,26.423126220703125 -40.73701095581055,26.32992935180664 -34.43958282470703,26.236658096313477 -26.993574142456055,26.143308639526367 -20.243562698364258,26.049888610839844 -15.86186408996582,25.956401824951172 -14.934829711914062,25.86284637451172 -17.694101333618164,25.76923179626465 -23.459308624267578,25.675559997558594 -30.806371688842773,25.58182716369629 -37.91981887817383,25.48804473876953 -43.04188919067383,25.394208908081055 -44.90739440917969,25.30032730102539 -43.056697845458984,25.206401824951172 -37.94943618774414,25.1124324798584 -30.850799560546875,25.018423080444336 -23.518543243408203,24.924375534057617 -17.768146514892578,24.83029556274414 -15.023680686950684,24.736183166503906 -15.965520858764648,24.64203643798828 -20.362028121948242,24.547866821289062 -27.126840591430664,24.45366859436035 -34.587650299072266,24.359445571899414 -40.89988327026367,24.265201568603516 -44.5030517578125,24.17093849182129 -44.506752014160156,24.076658248901367 -40.9109992980957,23.982358932495117 -34.60617446899414,23.888046264648438 -27.15277671813965,23.793720245361328 -20.395374298095703,23.699384689331055 -16.00627899169922,23.605037689208984 -15.071846008300781,23.510684967041016 -17.823719024658203,23.416322708129883 -23.581523895263672,23.32195472717285 -30.921188354492188,23.227584838867188 -38.0272331237793,23.133209228515625 -43.141902923583984,23.038833618164062 -45,22.944456100463867 -43.141902923583984,22.850078582763672 -38.0272331237793,22.75570297241211 -30.921188354492188,22.66132926940918 -23.581523895263672,22.566957473754883 -17.823719024658203,22.47258758544922 -15.071846008300781,22.37822151184082 -16.00627899169922,22.28386116027832 -20.395374298095703,22.189504623413086 -27.15277671813965,22.09515380859375 -34.60617446899414,22.000808715820312 -40.9109992980957,21.906469345092773 -44.506752014160156,21.812135696411133 -44.5030517578125,21.71780776977539 -40.89988327026367,21.623485565185547 -34.587650299072266,21.529170989990234 -27.126840591430664,21.434864044189453 -20.362028121948242,21.340560913085938 -15.965520858764648,21.246261596679688 -15.023680686950684,21.15196990966797 -17.768146514892578,21.057682037353516 -23.518543243408203,20.963401794433594 -30.850799560546875,20.869123458862305 -37.94943618774414,20.77484893798828 -43.056697845458984,20.68057632446289 -44.90739440917969,20.5863094329834 -43.04188919067383,20.492040634155273 -37.91981887817383,20.39777374267578 -30.806371688842773,20.30350685119629 -23.459308624267578,20.209238052368164 -17.694101333618164,20.11496925354004 -14.934829711914062,20.020694732666016 -15.86186408996582,19.926416397094727 -20.243562698364258,19.83213233947754 -26.993574142456055,19.737842559814453 -34.43958282470703,19.643543243408203 -40.73701095581055,19.549236297607422 -44.32537841796875,19.45491600036621 -44.31428527832031,19.360584259033203 -40.703739166259766,19.266237258911133 -34.384117126464844,19.171876907348633 -26.915925979614258,19.077495574951172 -20.14373016357422,18.983097076416016 -15.739848136901855,18.888675689697266 -14.790630340576172,18.794235229492188 -17.52772331237793,18.699766159057617 -23.270750045776367,18.605270385742188 -30.595640182495117,18.510746002197266 -37.68690872192383,18.41619110107422 -42.786808013916016,18.32160186767578 -44.6301383972168,18.22697639465332 -42.75728225708008,18.132314682006836 -37.62785720825195,18.037612915039062 -30.50705909729004,17.942867279052734 -23.15264320373535,17.84807777404785 -17.380090713500977,17.75324058532715 -14.613475799560547,17.658353805541992 -15.533170700073242,17.563413619995117 -19.907533645629883,17.46841812133789 -26.650209426879883,17.373363494873047 -34.088890075683594,17.278249740600586 -40.37899398803711,17.183073043823242 -43.96003341674805,17.087827682495117 -43.941619873046875,16.992515563964844 -40.32375717163086,16.89712905883789 -33.996826171875,16.80167007446289 -26.521329879760742,16.706130981445312 -19.741830825805664,16.610509872436523 -15.330646514892578,16.51480484008789 -14.37413501739502,16.41901397705078 -17.10393524169922,16.323131561279297 -22.839675903320312,16.227155685424805 -30.157278060913086,16.131080627441406 -37.24127197265625,16.034908294677734 -42.333892822265625,15.938629150390625 -44.169960021972656,15.842245101928711 -42.28982925415039,15.745748519897461 -37.15314483642578,15.649138450622559 -30.025089263916016,15.552412033081055 -22.663423538208008,15.455564498901367 -16.883625030517578,15.358591079711914 -14.10976791381836,15.261489868164062 -15.022225379943848,15.16425895690918 -19.389354705810547,15.066889762878418 -26.124805450439453,14.969381332397461 -33.55625915527344,14.871731758117676 -39.839149475097656,14.773935317993164 -43.41297912597656,14.675989151000977 -43.387359619140625,14.577887535095215 -39.76229476928711,14.479629516601562 -33.42817306518555,14.381208419799805 -25.945484161376953,14.282623291015625 -19.158803939819336,14.183868408203125 -14.740442276000977,14.084939956665039 -13.776759147644043,13.985835075378418 -16.499391555786133,13.886547088623047 -22.22797203063965,13.787075996398926 -29.538421630859375,13.687416076660156 -36.615264892578125,13.587563514709473 -41.700748443603516,13.487513542175293 -43.5296745300293,13.387262344360352 -41.642417907714844,13.286806106567383 -36.49861145019531,13.186141014099121 -29.363439559936523,13.085265159606934 -21.994665145874023,12.984169006347656 -16.207761764526367,12.882852554321289 -13.426807403564453,12.781312942504883 -14.33217716217041,12.679543495178223 -18.692224502563477,12.577539443969727 -25.42059898376465,12.475300788879395 -32.84498596191406,12.372818946838379 -39.12081527709961,12.270092964172363 -42.68758773803711,12.1671142578125 -42.65492248535156,12.063885688781738 -39.0228157043457,11.96039867401123 -32.68165969848633,11.856649398803711 -25.19194221496582,11.75263500213623 -18.398242950439453,11.648350715637207 -13.972871780395508,11.543792724609375 -13.00218391418457,11.438957214355469 -15.717823028564453,11.33383846282959 -21.439414978027344,11.228435516357422 -28.742883682250977,11.12274169921875 -35.8127555847168,11.016754150390625 -40.891273498535156,10.910468101501465 -42.71324920654297,10.803881645202637 -40.81904220581055,10.696989059448242 -35.66828918457031,10.589784622192383 -28.526185989379883,10.482268333435059 -21.150487899780273,10.374434471130371 -15.356672286987305,10.266278266906738 -12.56881046295166,10.157797813415527 -13.467281341552734,10.048986434936523 -17.820438385009766,9.93984317779541 -24.541929244995117,9.830363273620605 -31.959442138671875,9.720541000366211 -38.22840881347656,9.610376358032227 -41.788326263427734,9.499861717224121 -41.748817443847656,9.388996124267578 -38.1098747253418,9.277774810791016 -31.761884689331055,9.166194915771484 -24.265352249145508,9.054250717163086 -17.464841842651367,8.941941261291504 -13.032670021057129,8.82926082611084 -12.05518913269043,8.716208457946777 -14.764046669006348,8.602777481079102 -20.478864669799805,8.48896598815918 -27.775569915771484,8.374771118164062 -34.838687896728516,8.260189056396484 -39.91046142578125,8.145216941833496 -41.7256965637207,8.029850959777832 -39.82476806640625,7.91408634185791 -34.66730499267578,7.797922134399414 -27.518495559692383,7.68135404586792 -20.13610076904297,7.5643792152404785 -14.33559799194336,7.446994781494141 -11.541064262390137,7.329197883605957 -12.432868003845215,7.2109856605529785 -16.779369354248047,7.092353343963623 -23.494216918945312,6.973299980163574 -30.90509796142578,6.853821277618408 -37.167442321777344,6.733915328979492 -40.72074508666992,6.613580226898193 -40.67462921142578,6.492812156677246 -37.02909851074219,6.371607303619385 -30.67452621459961,6.249965667724609 -23.171422958374023,6.127882480621338 -16.364351272583008,6.005356788635254 -11.925629615783691,5.882385730743408 -10.941611289978027,5.758965969085693 -13.643939971923828,5.635097026824951 -19.35224151611328,5.510775089263916 -26.642444610595703,5.385998725891113 -33.69906997680664,5.260764122009277 -38.76435470581055,5.135072708129883 -40.573123931884766,5.008918762207031 -38.665733337402344,4.882303237915039 -33.50182342529297,4.755222320556641 -26.34657859802246,4.627674579620361 -18.9577579498291,4.499658107757568 -13.150840759277344,4.37117338180542 -10.349903106689453,4.242216110229492 -11.235318183898926,4.112785816192627 -15.575440406799316,3.982880115509033 -22.28392219543457,3.8524999618530273 -29.688446044921875,3.721641778945923 -35.9444465637207,3.590303421020508 -39.49142074584961,3.458486795425415 -39.43898391723633,3.326188802719116 -35.78714370727539,3.1934094429016113 -29.426280975341797,3.060145854949951 -21.916898727416992,2.9263997077941895 -15.103558540344238,2.7921676635742188 -10.65857982635498,2.657451629638672 -9.668318748474121,2.5222485065460205 -12.364415168762207,2.3865585327148438 -18.066497802734375,2.2503812313079834 -25.350492477416992,2.113715648651123 -32.40092468261719,1.9765629768371582 -37.46003341674805,1.8389217853546143 -39.262630462646484,1.7007907629013062 -37.349082946777344,1.5621726512908936 -32.17903137207031,1.4230645895004272 -25.017656326293945,1.283469557762146 -17.622718811035156,1.143384575843811 -11.809700012207031,1.002811074256897 -9.002674102783203,0.8617506623268127 -9.882012367248535,0.7202016711235046 -14.216072082519531,0.5781642198562622 -20.918506622314453,0.4356426000595093 -28.316993713378906,0.292632520198822 -34.56697082519531,0.14913824200630188 -38.10793685913086,0.005159788765013218 -38.049503326416016,-0.1393028348684311 -34.391685485839844,-0.2842482030391693 -28.024852752685547,-0.42967489361763 -20.50951385498047,-0.5755829215049744 -13.690235137939453,-0.7219693660736084 -9.239331245422363,-0.8688342571258545 -8.243155479431152,-1.0161761045455933 -10.933354377746582,-1.1639935970306396 -16.629552841186523,-1.3122810125350952 -23.90768051147461,-1.4610439538955688 -30.952255249023438,-1.610276699066162 -36.005523681640625,-1.7599765062332153 -37.80229187011719,-1.9101403951644897 -35.882938385009766,-2.0607712268829346 -30.70708465576172,-2.2118635177612305 -23.53992462158203,-2.363416910171509 -16.13922119140625,-2.515425682067871 -10.320448875427246,-2.6678900718688965 -7.507680416107178,-2.8208072185516357 -8.381295204162598,-2.9741742610931396 -12.709646224975586,-3.127990961074829 -19.406381607055664,-3.2822489738464355 -26.799190521240234,-3.436950922012329 -33.04349899291992,-3.592088222503662 -36.578819274902344,-3.747664213180542 -36.51475143432617,-3.903672456741333 -32.851314544677734,-4.060110569000244 -26.4788761138916,-4.216972827911377 -18.95794677734375,-4.374258995056152 -12.133092880249023,-4.531963348388672 -7.676631450653076,-4.6900835037231445 -6.67491340637207,-4.848615646362305 -9.35958480834961,-5.00755500793457 -15.050270080566406,-5.166898250579834 -22.322898864746094,-5.3266425132751465 -29.361995697021484,-5.486784934997559 -34.40979766845703,-5.647317409515381 -36.20111846923828,-5.808236122131348 -34.27632522583008,-5.969539165496826 -29.09505844116211,-6.131223201751709 -21.922496795654297,-6.29327917098999 -14.516406059265137,-6.455705165863037 -8.69226360321045,-6.618494987487793 -5.874143123626709,-6.781648635864258 -6.7424187660217285,-6.945154666900635 -11.065449714660645,-7.109013080596924 -17.756879806518555,-7.273215293884277 -25.144399642944336,-7.437758445739746 -31.383438110351562,-7.602633953094482 -34.91349792480469,-7.767841339111328 -34.84419631958008,-7.933372974395752 -31.175527572631836,-8.099225044250488 -24.79788589477539,-8.265387535095215 -17.271764755249023,-8.431859016418457 -10.441736221313477,-8.598630905151367 -5.9801177978515625,-8.765697479248047 -4.973259925842285,-8.933056831359863 -7.652807712554932,-9.10069751739502 -13.338386535644531,-9.2686185836792 -20.605928421020508,-9.436808586120605 -27.639949798583984,-9.605264663696289 -32.68269729614258,-9.773979187011719 -34.46897506713867,-9.942946434020996 -32.53916549682617,-10.11215877532959 -27.352888107299805,-10.281609535217285 -20.175342559814453,-10.451292991638184 -12.764280319213867,-10.621204376220703 -6.93518590927124,-10.79133129119873 -4.1121296882629395,-10.961670875549316 -4.97548770904541,-11.13221549987793 -9.29361629486084,-11.302958488464355 -15.980164527893066,-11.473893165588379 -23.362815856933594,-11.64500904083252 -29.597007751464844,-11.816302299499512 -33.12223434448242,-11.987760543823242 -33.048118591308594,-12.159380912780762 -29.37466049194336,-12.331154823303223 -22.992238998413086,-12.50307559967041 -15.461362838745117,-12.675132751464844 -8.626592636108398,-12.847322463989258 -4.160249710083008,-13.019633293151855 -3.148685932159424,-13.192057609558105 -5.823546409606934,-13.364587783813477 -11.50445556640625,-13.537216186523438 -18.767343521118164,-13.709936141967773 -25.79673194885254,-13.882735252380371 -30.834863662719727,-14.055609703063965 -32.61655044555664,-14.228548049926758 -30.682159423828125,-14.401545524597168 -25.491321563720703,-14.574588775634766 -18.309234619140625,-14.747672080993652 -10.893649101257324,-14.920783996582031 -5.0600481033325195,-15.09392261505127 -2.2325053215026855,-15.267071723937988 -3.091395378112793,-15.440226554870605 -7.4050750732421875,-15.61337661743164 -14.087191581726074,-15.786514282226562 -21.46543312072754,-15.959626197814941 -27.69523048400879,-16.132713317871094 -31.216083526611328,-16.305753707885742 -31.13761329650879,-16.478748321533203 -27.459814071655273,-16.651683807373047 -21.07308006286621,-16.824552536010742 -13.537899017333984,-16.997339248657227 -6.698851108551025,-17.170042037963867 -2.2282466888427734,-17.342647552490234 -1.2124415636062622,-17.51515007019043 -3.88307785987854,-17.68753433227539 -9.559784889221191,-17.85979461669922 -16.8184871673584,-18.03192138671875 -23.843711853027344,-18.203903198242188 -28.877696990966797,-18.375732421875 -30.655256271362305,-18.54739761352539 -28.71675682067871,-18.718887329101562 -23.521833419799805,-18.890193939208984 -16.335676193237305,-19.061309814453125 -8.91604232788086,-19.232221603393555 -3.078411340713501,-19.40291976928711 -0.2468590885400772,-19.573394775390625 -1.1017581224441528,-19.743637084960938 -5.411466598510742,-19.91363525390625 -12.089634895324707,-20.08338165283203 -19.463943481445312,-20.25286102294922 -25.689828872680664,-20.42207145690918 -29.206790924072266,-20.590993881225586 -29.124446868896484,-20.75962257385254 -25.442798614501953,-20.927947998046875 -19.052227020263672,-21.09596061706543 -11.513236999511719,-21.26364517211914 -4.67039680480957,-21.430994033813477 -0.19602040946483612,-21.597997665405273 0.8235378265380859,-21.764646530151367 -1.8433668613433838,-21.93092918395996 -7.51636266708374,-22.096832275390625 -14.77137279510498,-22.26235008239746 -21.792924880981445,-22.42746925354004 -26.823259353637695,-22.592178344726562 -28.597185134887695,-22.7564697265625 -26.65507698059082,-22.920333862304688 -21.456562042236328,-23.08375358581543 -14.266836166381836,-23.246726989746094 -6.843653678894043,-23.40923500061035 -1.002493143081665,-23.57127571105957 1.8325687646865845,-23.732830047607422 0.9811577796936035,-23.89389419555664 -3.3250842094421387,-24.054454803466797 -9.999802589416504,-24.214502334594727 -17.370685577392578,-24.3740234375 -23.593168258666992,-24.533010482788086 -27.10674285888672,-24.691448211669922 -27.021034240722656,-24.849336624145508 -23.336044311523438,-25.006650924682617 -16.942150115966797,-25.163393020629883 -9.399857521057129,-25.31954574584961 -2.5537359714508057,-25.475101470947266 1.9239007234573364,-25.630043029785156 2.946697950363159,-25.784366607666016 0.2830105423927307,-25.938060760498047 -5.386786460876465,-26.09111213684082 -12.638620376586914,-26.24351692199707 -19.65701675415039,-26.39525604248047 -24.68421745300293,-26.54632568359375 -26.455034255981445,-26.696712493896484 -24.509830474853516,-26.84640121459961 -19.30824851989746,-26.995389938354492 -12.115470886230469,-27.14366340637207 -4.689258098602295,-27.291213989257812 1.1549088954925537,-27.438026428222656 3.992955446243286,-27.58409881591797 3.1445088386535645,-27.729415893554688 -1.1587893962860107,-27.873964309692383 -7.830586910247803,-28.01773452758789 -15.198569297790527,-28.16071891784668 -21.41817283630371,-28.30291175842285 -24.928890228271484,-28.444292068481445 -24.840347290039062,-28.584857940673828 -21.152538299560547,-28.724599838256836 -14.755855560302734,-28.86349868774414 -7.210792064666748,-29.001554489135742 -0.3619200885295868,-29.138751983642578 4.118444919586182,-29.275083541870117 5.143948554992676,-29.410539627075195 2.482945680618286,-29.54510498046875 -3.1841886043548584,-29.67877960205078 -10.433382034301758,-29.811546325683594 -17.449159622192383,-29.943391799926758 -22.4737606048584,-30.074316024780273 -24.242000579833984,-30.204303741455078 -22.29424476623535,-30.33334732055664 -17.090129852294922,-30.46143341064453 -9.894842147827148,-30.588558197021484 -2.4661412239074707,-30.71471405029297 3.3804917335510254,-30.83987808227539 6.220983505249023,-30.96405601501465 5.374959468841553,-31.08723258972168 1.0740611553192139,-31.209394454956055 -5.595358371734619,-31.330535888671875 -12.960986137390137,-31.450653076171875 -19.178251266479492,-31.569730758666992 -22.686660766601562,-31.687761306762695 -22.595827102661133,-31.804738998413086 -18.905750274658203,-31.9206485748291 -12.506817817687988,-32.03548049926758 -4.959532737731934,-32.14923858642578 1.8915396928787231,-32.261905670166016 6.374083518981934,-32.37346649169922 7.401743412017822,-32.48392868041992 4.742876052856445,-32.593265533447266 -0.9221467971801758,-32.701480865478516 -8.16925048828125,-32.80856704711914 -15.182957649230957,-32.91450881958008 -20.205514907836914,-33.01930236816406 -21.97173309326172,-33.12294006347656 -20.0219783782959,-33.225406646728516 -14.815882682800293,-33.32670593261719 -7.618640422821045,-33.42682647705078 -0.18800711631774902,-33.525753021240234 5.6605353355407715,-33.62348175048828 8.502915382385254,-33.72001266479492 7.658756256103516,-33.815330505371094 3.359701633453369,-33.909427642822266 -3.3078973293304443,-34.002296447753906 -10.671727180480957,-34.093936920166016 -16.887218475341797,-34.1843376159668 -20.393875122070312,-34.27348327636719 -20.301311492919922,-34.36138153076172 -16.609525680541992,-34.44801712036133 -10.20891284942627,-34.533382415771484 -2.6599628925323486,-34.61747360229492 4.1927490234375,-34.70028305053711 8.676909446716309,-34.78180694580078 9.70616340637207,-34.862030029296875 7.0488667488098145,-34.94095993041992 1.3853932619094849,-35.018577575683594 -5.860186576843262,-35.09489059448242 -12.872392654418945,-35.16987609863281 -17.893468856811523,-35.2435417175293 -19.658227920532227,-35.31586837768555 -17.707040786743164,-35.38686752319336 -12.499532699584961,-35.45652389526367 -5.300902366638184,-35.52482986450195 2.1310958862304688,-35.59178161621094 7.980982780456543,-35.657371520996094 10.824682235717773,-35.72160339355469 9.981821060180664,-35.78446960449219 5.68403959274292,-35.84595489501953 -0.982308030128479,-35.906063079833984 -8.344908714294434,-35.96479034423828 -14.559196472167969,-36.02212905883789 -18.06467056274414,-36.07807540893555 -17.970945358276367,-36.13262176513672 -14.278026580810547,-36.185768127441406 -7.876297473907471,-36.237510681152344 -0.32625851035118103,-36.287841796875 6.527520179748535,-36.33675765991211 11.012723922729492,-36.384254455566406 12.042999267578125,-36.43033218383789 9.386701583862305,-36.474979400634766 3.7242021560668945,-36.51820755004883 -3.5204243659973145,-36.559993743896484 -10.531702041625977,-36.60034942626953 -15.551873207092285,-36.63926315307617 -17.315750122070312,-36.676734924316406 -15.363702774047852,-36.712764739990234 -10.15535831451416,-36.747344970703125 -2.9559144973754883,-36.78047180175781 4.476873874664307,-36.8121452331543 10.327527046203613,-36.84236526489258 13.171969413757324,-36.87112808227539 12.329830169677734,-36.8984260559082 8.032745361328125,-36.92426300048828 1.3670718669891357,-36.948631286621094 -5.99487829208374,-36.971534729003906 -12.208536148071289,-36.99296951293945 -15.713404655456543,-37.012939453125 -15.619099617004395,-37.031429290771484 -11.925623893737793,-37.04844665527344 -5.523359298706055,-37.063987731933594 2.027191162109375,-37.07805252075195 8.881458282470703,-37.090641021728516 13.367127418518066,-37.10175323486328 14.397845268249512,-37.111385345458984 11.741966247558594,-37.11953353881836 6.079862117767334,-37.12620162963867 -1.1643918752670288,-37.13139343261719 -8.175320625305176,-37.135101318359375 -13.195167541503906,-37.137325286865234 -14.958741188049316,-37.1380615234375 -13.006412506103516,-37.137325286865234 -7.797813415527344,-37.135101318359375 -0.5981358289718628,-37.13139343261719 6.834861755371094,-37.12620162963867 12.685700416564941,-37.11953353881836 15.530306816101074,-37.111385345458984 14.688305854797363,-37.10175323486328 10.391337394714355,-37.090641021728516 3.725757122039795,-37.07805252075195 -3.636122703552246,-37.063987731933594 -9.849733352661133,-37.04844665527344 -13.354578971862793,-37.031429290771484 -13.260273933410645,-37.012939453125 -9.566821098327637,-36.99296951293945 -3.1646037101745605,-36.971534729003906 4.385876178741455,-36.948631286621094 11.24005126953125,-36.92426300048828 15.725605010986328,-36.8984260559082 16.756181716918945,-36.87112808227539 14.100140571594238,-36.84236526489258 8.437849998474121,-36.8121452331543 1.1933852434158325,-36.78047180175781 -5.817775249481201,-36.747344970703125 -10.83787727355957,-36.712764739990234 -12.601731300354004,-36.676734924316406 -10.649703979492188,-36.63926315307617 -5.441431522369385,-36.60034942626953 1.7578965425491333,-36.559993743896484 9.190522193908691,-36.51820755004883 15.04096508026123,-36.474979400634766 17.88515281677246,-36.43033218383789 17.042709350585938,-36.384254455566406 12.745277404785156,-36.33675765991211 6.079207420349121,-36.287841796875 -1.28318452835083,-36.237510681152344 -7.497330665588379,-36.185768127441406 -11.002735137939453,-36.13262176513672 -10.909010887145996,-36.07807540893555 -7.216162204742432,-36.02212905883789 -0.8145734071731567,-35.96479034423828 6.735257148742676,-35.906063079833984 13.58875846862793,-35.84595489501953 18.073612213134766,-35.78446960449219 19.103469848632812,-35.72160339355469 16.446683883666992,-35.657371520996094 10.7836275100708,-35.59178161621094 3.5383732318878174,-35.52482986450195 -3.4736008644104004,-35.45652389526367 -8.494539260864258,-35.38686752319336 -10.25925350189209,-35.31586837768555 -8.30810832977295,-35.2435417175293 -3.1007423400878906,-35.16987609863281 4.097657203674316,-35.09489059448242 11.52933120727539,-35.018577575683594 17.378801345825195,-34.94095993041992 20.221988677978516,-34.862030029296875 19.378524780273438,-34.78180694580078 15.080047607421875,-34.70028305053711 8.412911415100098,-34.61747360229492 1.0494297742843628,-34.533382415771484 -5.165831089019775,-34.44801712036133 -8.672369956970215,-34.36138153076172 -8.579806327819824,-34.27348327636719 -4.888139247894287,-34.1843376159668 1.5122450590133667,-34.093936920166016 9.060846328735352,-34.002296447753906 15.913095474243164,-33.909427642822266 20.396677017211914,-33.815330505371094 21.42523765563965,-33.72001266479492 18.767131805419922,-33.62348175048828 13.102730751037598,-33.525753021240234 5.856112003326416,-33.42682647705078 -1.157251000404358,-33.32670593261719 -6.179600715637207,-33.225406646728516 -7.945748329162598,-33.12294006347656 -5.996061325073242,-33.01930236816406 -0.7901739478111267,-32.91450881958008 6.406722545623779,-32.80856704711914 13.836870193481445,-32.701480865478516 19.684791564941406,-32.593265533447266 22.526409149169922,-32.48392868041992 21.681350708007812,-32.37346649169922 17.381258010864258,-32.261905670166016 10.712480545043945,-32.14923858642578 3.3473377227783203,-32.03548049926758 -2.869607448577881,-31.9206485748291 -6.377854347229004,-31.804738998413086 -6.287020683288574,-31.687761306762695 -2.5971057415008545,-31.569730758666992 3.8015031814575195,-31.450653076171875 11.348306655883789,-31.330535888671875 18.1987361907959,-31.209394454956055 22.68047523498535,-31.08723258972168 23.707170486450195,-30.96405601501465 21.04717445373535,-30.83987808227539 15.380865097045898,-30.71471405029297 8.132311820983887,-30.588558197021484 1.116994023323059,-30.46143341064453 -3.9073338508605957,-30.33334732055664 -5.67548131942749,-30.204303741455078 -3.7278170585632324,-30.074316024780273 1.4760247468948364,-29.943391799926758 8.670853614807129,-29.811546325683594 16.098913192749023,-29.67877960205078 21.944719314575195,-29.54510498046875 24.784204483032227,-29.410539627075195 23.936988830566406,-29.275083541870117 19.63471794128418,-29.138751983642578 12.963740348815918,-29.001554489135742 5.596372604370117,-28.86349868774414 -0.6228174567222595,-28.724599838256836 -4.133333206176758,-28.584857940673828 -4.044788837432861,-28.444292068481445 -0.3571871817111969,-28.30291175842285 6.039088249206543,-28.16071891784668 13.583535194396973,-28.01773452758789 20.43158721923828,-27.873964309692383 24.910924911499023,-27.729415893554688 25.935195922851562,-27.58409881591797 23.27275848388672,-27.438026428222656 17.60398292541504,-27.291213989257812 10.352941513061523,-27.14366340637207 3.335113048553467,-26.995389938354492 -1.6917475461959839,-26.84640121459961 -3.462449073791504,-26.696712493896484 -1.5173604488372803,-26.54632568359375 3.6838836669921875,-26.39525604248047 10.876092910766602,-26.24351692199707 18.301509857177734,-26.09111213684082 24.144655227661133,-25.938060760498047 26.981454849243164,-25.784366607666016 26.131534576416016,-25.630043029785156 21.826534271240234,-25.475101470947266 15.152807235717773,-25.31954574584961 7.782668590545654,-25.163393020629883 1.5606857538223267,-25.006650924682617 -1.9526435136795044,-24.849336624145508 -1.8669353723526,-24.691448211669922 1.8178085088729858,-24.533010482788086 8.21120548248291,-24.3740234375 15.752752304077148,-24.214502334594727 22.597881317138672,-24.054454803466797 27.074277877807617,-23.89389419555664 28.0955867767334,-23.732830047607422 25.430160522460938,-23.57127571105957 19.75837516784668,-23.40923500061035 12.50430679321289,-23.246726989746094 5.483429431915283,-23.08375358581543 0.4534984529018402,-22.920333862304688 -1.3202942609786987,-22.7564697265625 0.6216800808906555,-22.592178344726562 5.819790840148926,-22.42746925354004 13.008844375610352,-22.26235008239746 20.43108558654785,-22.096832275390625 26.271034240722656,-21.93092918395996 29.104616165161133,-21.764646530151367 28.251453399658203,-21.597997665405273 23.943193435668945,-21.430994033813477 17.266185760498047,-21.26364517211914 9.892745971679688,-21.09596061706543 3.667440176010132,-20.927947998046875 0.15076696872711182,-20.75962257385254 0.23311159014701843,-20.590993881225586 3.9144704341888428,-20.42207145690918 10.304460525512695,-20.25286102294922 17.842580795288086,-20.08338165283203 24.684263229370117,-19.91363525390625 29.157190322875977,-19.743637084960938 30.175012588500977,-19.573394775390625 27.506078720092773,-19.40291976928711 21.830766677856445,-19.232221603393555 14.573147773742676,-19.061309814453125 7.548698902130127,-18.890193939208984 2.5151779651641846,-18.718887329101562 0.7377738952636719,-18.54739761352539 2.6761183738708496,-18.375732421875 7.870576858520508,-18.203903198242188 15.055960655212402,-18.03192138671875 22.47450828552246,-17.85979461669922 28.310745239257812,-17.68753433227539 31.140594482421875,-17.51515007019043 30.283679962158203,-17.342647552490234 25.971649169921875,-17.170042037963867 19.290849685668945,-16.997339248657227 11.913596153259277,-16.824552536010742 5.684457778930664,-16.651683807373047 2.1639325618743896,-16.478748321533203 2.2424051761627197,-16.305753707885742 5.919872760772705,-16.132713317871094 12.305952072143555,-15.959626197814941 19.84014129638672,-15.786514282226562 26.677873611450195,-15.61337661743164 31.14682960510254,-15.440226554870605 32.1606559753418,-15.267071723937988 29.487714767456055,-15.09392261505127 23.808372497558594,-14.920783996582031 16.54670524597168,-14.747672080993652 9.5181884765625,-14.574588775634766 4.480579853057861,-14.401545524597168 2.699068069458008,-14.228548049926758 4.6332855224609375,-14.055609703063965 9.823598861694336,-13.882735252380371 17.00481605529785,-13.709936141967773 24.419179916381836,-13.537216186523438 30.2512149810791,-13.364587783813477 33.076839447021484,-13.192057609558105 32.21568298339844,-13.019633293151855 27.89938735961914,-12.847322463989258 21.214309692382812,-12.675132751464844 13.832757949829102,-12.50307559967041 7.599302768707275,-12.331154823303223 4.0744404792785645,-12.159380912780762 4.148556709289551,-11.987760543823242 7.821650505065918,-11.816302299499512 14.203335762023926,-11.64500904083252 21.73311424255371,-11.473893165588379 28.56641387939453,-11.302958488464355 33.030921936035156,-11.13221549987793 34.040283203125,-10.961670875549316 31.362852096557617,-10.79133129119873 25.679006576538086,-10.621204376220703 18.412813186645508,-10.451292991638184 11.379755020141602,-10.281609535217285 6.337586402893066,-10.11215877532959 4.5514960289001465,-9.942946434020996 6.481116771697998,-9.773979187011719 11.666813850402832,-9.605264663696289 18.843399047851562,-9.436808586120605 26.253110885620117,-9.2686185836792 32.080474853515625,-9.10069751739502 34.90141296386719,-8.933056831359863 34.035552978515625,-8.765697479248047 29.71453285217285,-8.598630905151367 23.02471351623535,-8.431859016418457 15.638401985168457,-8.265387535095215 9.400169372558594,-8.099225044250488 5.870512008666992,-7.933372974395752 5.939815998077393,-7.767841339111328 9.608078002929688,-7.602633953094482 15.984915733337402,-7.437758445739746 23.50982666015625,-7.273215293884277 30.338247299194336,-7.109013080596924 34.7978515625,-6.945154666900635 35.80229568481445,-6.781648635864258 33.119930267333984,-6.618494987487793 27.43113136291504,-6.455705165863037 20.159969329833984,-6.29327917098999 13.121923446655273,-6.131223201751709 8.074748992919922,-5.969539165496826 6.283637523651123,-5.808236122131348 8.208218574523926,-5.647317409515381 13.388861656188965,-5.486784934997559 20.56037139892578,-5.3266425132751465 27.964996337890625,-5.166898250579834 33.78725051879883,-5.00755500793457 36.603065490722656,-4.848615646362305 35.73206329345703,-4.6900835037231445 31.4058895111084,-4.531963348388672 24.710895538330078,-4.374258995056152 17.319395065307617,-4.216972827911377 11.075953483581543,-4.060110569000244 7.541073799133301,-3.903672456741333 7.605136871337891,-3.747664213180542 11.268143653869629,-3.592088222503662 17.639707565307617,-3.436950922012329 25.159330368041992,-3.2822489738464355 31.98244285583496,-3.127990961074829 36.43672561645508,-2.9741742610931396 37.43583679199219,-2.8208072185516357 34.74811553955078,-2.6678900718688965 29.053943634033203,-2.515425682067871 21.77739715576172,-2.363416910171509 14.733948707580566,-2.2118635177612305 9.681357383728027,-2.0607712268829346 7.884811878204346,-1.9101403951644897 9.803943634033203,-1.7599765062332153 14.979120254516602,-1.610276699066162 22.145151138305664,-1.4610439538955688 29.54427719116211,-1.3122810125350952 35.36102294921875,-1.1639935970306396 38.17131042480469,-1.0161761045455933 37.29476547241211,-0.8688342571258545 32.96302795410156,-0.7219693660736084 26.262460708618164,-0.5755829215049744 18.865371704101562,-0.42967489361763 12.616325378417969,-0.2842482030391693 9.075826644897461,-0.1393028348684311 9.134254455566406,0.005159788765013218 12.791610717773438,0.14913824200630188 19.15751075744629,0.292632520198822 26.67145347595215,0.4356426000595093 33.488868713378906,0.5781642198562622 37.937442779541016,0.7202016711235046 38.93082809448242,0.8617506623268127 36.23736572265625,1.002811074256897 30.537443161010742,1.143384575843811 23.255126953125,1.283469557762146 16.205896377563477,1.4230645895004272 11.147505760192871,1.5621726512908936 9.345148086547852,1.7007907629013062 11.258453369140625,1.8389217853546143 16.42778968811035,1.9765629768371582 23.58796501159668,2.113715648651123 30.981220245361328,2.2503812313079834 36.79207992553711,2.3865585327148438 39.59646987915039,2.5222485065460205 38.714012145996094,2.657451629638672 34.3763542175293,2.7921676635742188 27.669845581054688,2.9263997077941895 20.266801834106445,3.060145854949951 14.011787414550781,3.1934094429016113 10.465306282043457,3.326188802719116 10.517739295959473,3.458486795425415 14.169086456298828,3.590303421020508 20.52896499633789,3.721641778945923 28.0368709564209,3.8524999618530273 34.84823989868164,3.982880115509033 39.29075241088867,4.112785816192627 40.278053283691406,4.242216110229492 37.57850646972656,4.37117338180542 31.872480392456055,4.499658107757568 24.584047317504883,4.627674579620361 17.528688430786133,4.755222320556641 12.464156150817871,4.882303237915039 10.655643463134766,5.008918762207031 12.56278133392334,5.135072708129883 17.725934982299805,5.260764122009277 24.87991714477539,5.385998725891113 32.266963958740234,5.510775089263916 38.07160949707031,5.635097026824951 40.86976623535156,5.758965969085693 39.98106384277344,5.882385730743408 35.63714599609375,6.005356788635254 28.92436981201172,6.127882480621338 21.515043258666992,6.249965667724609 15.25373649597168,6.371607303619385 11.700948715209961,6.492812156677246 11.747063636779785,6.613580226898193 15.392081260681152,6.733915328979492 21.745615005493164,6.853821277618408 29.247167587280273,6.973299980163574 36.05216979980469,7.092353343963623 40.48830032348633,7.2109856605529785 41.469215393066406,7.329197883605957 38.763267517089844,7.446994781494141 33.05082702636719,7.5643792152404785 25.75596809387207,7.68135404586792 18.694169998168945,7.797922134399414 13.623190879821777,7.91408634185791 11.80821704864502,8.029850959777832 13.708883285522461,8.145216941833496 18.865554809570312,8.260189056396484 26.013042449951172,8.374771118164062 33.393585205078125,8.48896598815918 39.191715240478516,8.602777481079102 41.983341217041016,8.716208457946777 41.088104248046875,8.82926082611084 36.737640380859375,8.941941261291504 30.018299102783203,9.054250717163086 22.602401733398438,9.166194915771484 16.334514617919922,9.277774810791016 12.775134086608887,9.388996124267578 12.81464672088623,9.499861717224121 16.45305061340332,9.610376358032227 22.79996109008789,9.720541000366211 30.294876098632812,9.830363273620605 37.09323501586914,9.93984317779541 41.5227165222168,10.048986434936523 42.49696350097656,10.157797813415527 39.784339904785156,10.266278266906738 34.06521224975586,10.374434471130371 26.76365852355957,10.482268333435059 19.695158004760742,10.589784622192383 14.617461204528809,10.696989059448242 12.795763969421387,10.803881645202637 14.689695358276367,10.910468101501465 19.839622497558594,11.016754150390625 26.980356216430664,11.12274169921875 34.3541374206543,11.228435516357422 40.14548873901367,11.33383846282959 42.930335998535156,11.438957214355469 42.0283088684082,11.543792724609375 37.671043395996094,11.648350715637207 30.94489288330078,11.75263500213623 23.522174835205078,11.856649398803711 17.247459411621094,11.96039867401123 13.681241989135742,12.063885688781738 13.713906288146973,12.1671142578125 17.345455169677734,12.270092964172363 23.685503005981445,12.372818946838379 31.173547744750977,12.475300788879395 37.965023040771484,12.577539443969727 42.387611389160156,12.679543495178223 43.35496139526367,12.781312942504883 40.63542938232422,12.882852554321289 34.90938949584961,12.984169006347656 27.600910186767578,13.085265159606934 20.525476455688477,13.186141014099121 15.440841674804688,13.286806106567383 13.612195014953613,13.387262344360352 15.49916934967041,13.487513542175293 20.642131805419922,13.587563514709473 27.775894165039062,13.687416076660156 35.142696380615234,13.787075996398926 40.927059173583984,13.886547088623047 43.70491027832031,13.985835075378418 42.795875549316406,14.084939956665039 38.43159866333008,14.183868408203125 31.69843101501465,14.282623291015625 24.26869010925293,14.381208419799805 17.986940383911133,14.479629516601562 14.41368293762207,14.577887535095215 14.439301490783691,14.675989151000977 18.063793182373047,14.773935317993164 24.39677619934082,14.871731758117676 31.87775421142578,14.969381332397461 38.66215133666992,15.066889762878418 43.077659606933594,15.16425895690918 44.03791809082031,15.261489868164062 41.3112907409668,15.358591079711914 35.57814407348633,15.455564498901367 28.262561798095703,15.552412033081055 21.180009841918945,15.649138450622559 16.0882511138916,15.745748519897461 14.25247573852539,15.842245101928711 16.132314682006836,15.938629150390625 21.268136978149414,16.034908294677734 28.394750595092773,16.131080627441406 35.754398345947266,16.227155685424805 41.53160095214844,16.323131561279297 44.30228805541992,16.41901397705078 43.38608169555664,16.51480484008789 39.01462936401367,16.610509872436523 32.27427673339844,16.706130981445312 24.837345123291016,16.80167007446289 18.54840087890625,16.89712905883789 14.96794319152832,16.992515563964844 14.98635482788086,17.087827682495117 18.6036376953125,17.183073043823242 24.92940330505371,17.278249740600586 32.403160095214844,17.373363494873047 39.18033218383789,17.46841812133789 43.58860397338867,17.563413619995117 44.541629791259766,17.658353805541992 41.80775833129883,17.75324058532715 36.06736373901367,17.84807777404785 28.74452781677246,17.942867279052734 21.654722213745117,18.037612915039062 16.555702209472656,18.132314682006836 14.712660789489746,18.22697639465332 16.585227966308594,18.32160186767578 21.713775634765625,18.41619110107422 28.833112716674805,18.510746002197266 36.18547439575195,18.605270385742188 41.95539093017578,18.699766159057617 44.71878433227539,18.794235229492188 43.795284271240234,18.888675689697266 39.416526794433594,18.983097076416016 32.66887283325195,19.077495574951172 25.224634170532227,19.171876907348633 18.928377151489258,19.266237258911133 15.340603828430176,19.360584259033203 15.351696968078613,19.45491600036621 18.96165657043457,19.549236297607422 25.28009796142578,19.643543243408203 32.74652099609375,19.737842559814453 39.516357421875,19.83213233947754 43.91729736328125,19.926416397094727 44.86298370361328,20.020694732666016 42.121768951416016,20.11496925354004 36.37403106689453,20.209238052368164 29.04384422302246,20.30350685119629 21.946685791015625,20.39777374267578 16.84031105041504,20.492040634155273 14.989911079406738,20.5863094329834 16.855119705200195,20.68057632446289 21.976303100585938,20.77484893798828 29.08827018737793,20.869123458862305 36.433265686035156,20.963401794433594 42.1958122253418,21.057682037353516 44.95183563232422,21.15196990966797 44.020957946777344,21.246261596679688 39.63482666015625,21.340560913085938 32.879791259765625,21.434864044189453 25.42816734313965,21.529170989990234 19.124528884887695,21.623485565185547 15.52936840057373,21.71780776977539 15.533074378967285,21.812135696411133 19.135644912719727,21.906469345092773 25.44669532775879,22.000808715820312 32.905723571777344,22.09515380859375 39.66817092895508,22.189504623413086 44.061710357666016,22.28386116027832 45,22.37822151184082 42.25138473510742,22.47258758544922 36.49625015258789,22.566957473754883 29.158660888671875,22.66132926940918 22.054100036621094,22.75570297241211 16.94032096862793,22.850078582763672 15.082518577575684,22.944456100463867"
  />
</svg>
