<?xml version="1.0" encoding="UTF-8"?>
<!DOCTYPE svg>
<svg
  data-animation-duration="3s"
  viewBox="-50 -50 100 100"
>
  <title>
    ANIMATION 31 - VARIATION F
  </title>
  <desc>
    <p>See this animation in action here: <a href="https://andrew.wang-hoyer.com/experiments/svg-animations/31/f" target="_blank" rel="noopener">https://andrew.wang-hoyer.com/experiments/svg-animations/31/f</a>.</p>
    <p>Generator source code : <a href="https://github.com/ndrwhr/svg-animation-src/tree/master/site/_svgs/generators/animations/31/f.js" target="_blank" rel="noopener">https://github.com/ndrwhr/svg-animation-src/tree/master/site/_svgs/generators/animations/31/f.js</a>.</p>
    <p>All generated files and source code are released under the following license:</p>
    <p>MIT License</p>
    <p>Copyright (c) 2018-present Andrew Hoyer</p>
    <p>Permission is hereby granted, free of charge, to any person obtaining a copy of this software and associated documentation files (the &quot;Software&quot;), to deal in the Software without restriction, including without limitation the rights to use, copy, modify, merge, publish, distribute, sublicense, and/or sell copies of the Software, and to permit persons to whom the Software is furnished to do so, subject to the following conditions:</p>
    <p>The above copyright notice and this permission notice shall be included in all copies or substantial portions of the Software.</p>
    <p>THE SOFTWARE IS PROVIDED &quot;AS IS&quot;, WITHOUT WARRANTY OF ANY KIND, EXPRESS OR IMPLIED, INCLUDING BUT NOT LIMITED TO THE WARRANTIES OF MERCHANTABILITY, FITNESS FOR A PARTICULAR PURPOSE AND NONINFRINGEMENT. IN NO EVENT SHALL THE AUTHORS OR COPYRIGHT HOLDERS BE LIABLE FOR ANY CLAIM, DAMAGES OR OTHER LIABILITY, WHETHER IN AN ACTION OF CONTRACT, TORT OR OTHERWISE, ARISING FROM, OUT OF OR IN CONNECTION WITH THE SOFTWARE OR THE USE OR OTHER DEALINGS IN THE SOFTWARE.</p>
  </desc>
  <style>
    /* <![CDATA[ */
      .svg-31-f-polyline {
        stroke: black;
        stroke-width: .1;
        fill: none;
        stroke-dasharray: 4%, 4%, 1%, 1%;
        animation: svg-31-f-main-anim 3s linear infinite;
      }
      
      @keyframes svg-31-f-main-anim {
        from {
          stroke-dashoffset: 0;
        }
      
        to {
          stroke-dashoffset: 10%;
        }
      }
      
    /* ]]> */
  </style>
  <polyline
    class="svg-31-f-polyline"
    points="-0.06604910641908646,0 -0.1659402698278427,2.101764678955078 -0.46472612023353577,4.074016571044922 -0.9597517251968384,5.797195911407471 -1.646618127822876,7.170862197875977 -2.5192220211029053,8.121346473693848 -3.5698089599609375,8.607285499572754 -4.789042949676514,8.62260913848877 -6.1660895347595215,8.196727752685547 -7.688711166381836,7.391927242279053 -9.343376159667969,6.2981719970703125 -11.115377426147461,5.025725364685059 -12.988967895507812,3.6961886882781982 -14.947494506835938,2.432661771774292 -16.973546981811523,1.349810004234314 -19.049116134643555,0.5446334481239319 -21.15575408935547,0.08866450935602188 -23.27472496032715,0.022220918908715248 -25.387191772460938,0.35116714239120483 -27.4743709564209,1.0464434623718262 -29.517698287963867,2.0464000701904297 -31.49899673461914,3.261749267578125 -33.40064239501953,4.582744598388672 -35.20571517944336,5.8880133628845215 -36.89814758300781,7.05433988571167 -38.462867736816406,7.96662712097168 -39.88594055175781,8.527233123779297 -41.154685974121094,8.663949012756348 -42.25779342651367,8.335982322692871 -43.1854133605957,7.5374579429626465 -43.92924880981445,6.2981719970703125 -44.48265838623047,4.681519031524658 -44.84064865112305,2.7797741889953613 -44.999996185302734,0.7070810794830322 -44.95921325683594,-1.4092819690704346 -44.71860122680664,-3.4386801719665527 -44.28022384643555,-5.257163047790527 -43.64790725708008,-6.7569780349731445 -42.827186584472656,-7.854800701141357 -41.82527542114258,-8.498037338256836 -40.65099334716797,-8.668689727783203 -39.3146858215332,-8.384495735168457 -37.828125,-7.697239398956299 -36.20443344116211,-6.688381195068359 -34.45793914794922,-5.4623494148254395 -32.60405731201172,-4.13803243637085 -30.659151077270508,-2.8391451835632324 -28.640399932861328,-1.6842410564422607 -26.565629959106445,-0.7771602272987366 -24.453163146972656,-0.1986752599477768 -22.3216552734375,0 -20.189926147460938,-0.1986752599477768 -18.076799392700195,-0.7771602272987366 -16.000930786132812,-1.6842410564422607 -13.980643272399902,-2.8391451835632324 -12.03376293182373,-4.13803243637085 -10.177462577819824,-5.4623494148254395 -8.428112030029297,-6.688381195068359 -6.8011274337768555,-7.697239398956299 -5.310835838317871,-8.384495735168457 -3.9703521728515625,-8.668689727783203 -2.791456699371338,-8.498037338256836 -1.7844955921173096,-7.854800701141357 -0.9582860469818115,-6.7569780349731445 -0.32003888487815857,-5.257163047790527 0.12470488995313644,-3.4386801719665527 0.3721241354942322,-1.4092819690704346 0.4201509654521942,0.7070810794830322 0.26848921179771423,2.7797741889953613 -0.08138283342123032,4.681519031524658 -0.6262255907058716,6.2981719970703125 -1.3610671758651733,7.5374579429626465 -2.2792470455169678,8.335982322692871 -3.3724756240844727,8.663949012756348 -4.630908012390137,8.527233123779297 -6.043229579925537,7.96662712097168 -7.5967607498168945,7.05433988571167 -9.277562141418457,5.8880133628845215 -11.070569038391113,4.582744598388672 -12.959711074829102,3.261749267578125 -14.928070068359375,2.0464000701904297 -16.958017349243164,1.0464434623718262 -19.03137969970703,0.35116714239120483 -21.129594802856445,0.022220918908715248 -23.233877182006836,0.08866450935602188 -25.325387954711914,0.5446334481239319 -27.385395050048828,1.349810004234314 -29.395448684692383,2.432661771774292 -31.33753776550293,3.6961886882781982 -33.19425582885742,5.025725364685059 -34.94894790649414,6.2981719970703125 -36.58586883544922,7.391927242279053 -38.09031295776367,8.196727752685547 -39.4487419128418,8.62260913848877 -40.64892578125,8.607285499572754 -41.68002700805664,8.121346473693848 -42.532711029052734,7.170862197875977 -43.19922637939453,5.797195911407471 -43.6734619140625,4.074016571044922 -43.951019287109375,2.101764678955078 -44.02925109863281,8.278498532846533e-15 -43.90727233886719,-2.101764678955078 -43.58595657348633,-4.074016571044922 -43.06797409057617,-5.797195911407471 -42.35771179199219,-7.170862197875977 -41.46128463745117,-8.121346473693848 -40.38644027709961,-8.607285499572754 -39.14251708984375,-8.62260913848877 -37.7403450012207,-8.196727752685547 -36.192169189453125,-7.391927242279053 -34.51151657104492,-6.2981719970703125 -32.713096618652344,-5.025725364685059 -30.81265640258789,-3.6961886882781982 -28.82685089111328,-2.432661771774292 -26.773086547851562,-1.349810004234314 -24.669374465942383,-0.5446334481239319 -22.53416633605957,-0.08866450935602188 -20.386192321777344,-0.022220918908715248 -18.244293212890625,-0.35116714239120483 -16.127254486083984,-1.0464434623718262 -14.053637504577637,-2.0464000701904297 -12.041620254516602,-3.261749267578125 -10.108826637268066,-4.582744598388672 -8.27217960357666,-5.8880133628845215 -6.547745704650879,-7.05433988571167 -4.950594902038574,-7.96662712097168 -3.4946627616882324,-8.527233123779297 -2.192631721496582,-8.663949012756348 -1.0558159351348877,-8.335982322692871 -0.09406093508005142,-7.5374579429626465 0.6843432188034058,-6.2981719970703125 1.2727357149124146,-4.681519031524658 1.6661440134048462,-2.7797741889953613 1.8613282442092896,-0.7070810794830322 1.8568097352981567,1.4092819690704346 1.6528841257095337,3.4386801719665527 1.2516189813613892,5.257163047790527 0.6568347811698914,6.7569780349731445 -0.12592773139476776,7.854800701141357 -1.0894581079483032,8.498037338256836 -2.2249393463134766,8.668689727783203 -3.522026777267456,8.384495735168457 -4.968938827514648,7.697239398956299 -6.552563190460205,6.688381195068359 -8.25857162475586,5.4623494148254395 -10.07154655456543,4.13803243637085 -11.97512435913086,2.8391451835632324 -13.952127456665039,1.6842410564422607 -15.984731674194336,0.7771602272987366 -18.05461311340332,0.1986752599477768 -20.14312171936035,0 -22.231428146362305,0.1986752599477768 -24.300716400146484,0.7771602272987366 -26.33233070373535,1.6842410564422607 -28.307947158813477,2.8391451835632324 -30.209741592407227,4.13803243637085 -32.020538330078125,5.4623494148254395 -33.723968505859375,6.688381195068359 -35.304622650146484,7.697239398956299 -36.748165130615234,8.384495735168457 -38.04148864746094,8.668689727783203 -39.17280960083008,8.498037338256836 -40.13178253173828,7.854800701141357 -40.90959167480469,6.7569780349731445 -41.499027252197266,5.257163047790527 -41.89455032348633,3.4386801719665527 -42.09233474731445,1.4092819690704346 -42.0903205871582,-0.7070810794830322 -41.88820266723633,-2.7797741889953613 -41.487464904785156,-4.681519031524658 -40.89134979248047,-6.2981719970703125 -40.104827880859375,-7.5374579429626465 -39.13455581665039,-8.335982322692871 -37.988834381103516,-8.663949012756348 -36.67749786376953,-8.527233123779297 -35.21186447143555,-7.96662712097168 -33.604618072509766,-7.05433988571167 -31.86969566345215,-5.8880133628845215 -30.022165298461914,-4.582744598388672 -28.07809066772461,-3.261749267578125 -26.054397583007812,-2.0464000701904297 -23.968713760375977,-1.0464434623718262 -21.839210510253906,-0.35116714239120483 -19.68445587158203,-0.022220918908715248 -17.52322769165039,-0.08866450935602188 -15.374375343322754,-0.5446334481239319 -13.256624221801758,-1.349810004234314 -11.18842601776123,-2.432661771774292 -9.18779182434082,-3.6961886882781982 -7.272130489349365,-5.025725364685059 -5.458096504211426,-6.2981719970703125 -3.7614378929138184,-7.391927242279053 -2.196861505508423,-8.196727752685547 -0.7778988480567932,-8.62260913848877 0.4832117557525635,-8.607285499572754 1.5756350755691528,-8.121346473693848 2.490034818649292,-7.170862197875977 3.218656539916992,-5.797195911407471 3.7553961277008057,-4.074016571044922 4.09585428237915,-2.101764678955078 4.237375736236572,-1.6556997065693066e-14 4.17907190322876,2.101764678955078 3.9218311309814453,4.074016571044922 3.4683072566986084,5.797195911407471 2.8228986263275146,7.170862197875977 1.991708755493164,8.121346473693848 0.9824910759925842,8.607285499572754 -0.19541871547698975,8.62260913848877 -1.5311862230300903,8.196727752685547 -3.0125744342803955,7.391927242279053 -4.626051902770996,6.2981719970703125 -6.3569135665893555,5.025725364685059 -8.189410209655762,3.6961886882781982 -10.106890678405762,2.432661771774292 -12.09194564819336,1.349810004234314 -14.126564979553223,0.5446334481239319 -16.192298889160156,0.08866450935602188 -18.270418167114258,0.022220918908715248 -20.34208106994629,0.35116714239120483 -22.388507843017578,1.0464434623718262 -24.391130447387695,2.0464000701904297 -26.331777572631836,3.261749267578125 -28.192821502685547,4.582744598388672 -29.95734214782715,5.8880133628845215 -31.609275817871094,7.05433988571167 -33.133548736572266,7.96662712097168 -34.516231536865234,8.527233123779297 -35.74463653564453,8.663949012756348 -36.80745315551758,8.335982322692871 -37.69483947753906,7.5374579429626465 -38.398502349853516,6.2981719970703125 -38.911781311035156,4.681519031524658 -39.22970199584961,2.7797741889953613 -39.349037170410156,0.7070810794830322 -39.26829528808594,-1.4092819690704346 -38.9877815246582,-3.4386801719665527 -38.509559631347656,-5.257163047790527 -37.83745193481445,-6.7569780349731445 -36.97699737548828,-7.854800701141357 -35.93541717529297,-8.498037338256836 -34.72151565551758,-8.668689727783203 -33.34564971923828,-8.384495735168457 -31.819591522216797,-7.697239398956299 -30.156463623046875,-6.688381195068359 -28.370588302612305,-5.4623494148254395 -26.477384567260742,-4.13803243637085 -24.493223190307617,-2.8391451835632324 -22.435274124145508,-1.6842410564422607 -20.321367263793945,-0.7771602272987366 -18.169824600219727,-0.1986752599477768 -15.999303817749023,0 -13.828624725341797,-0.1986752599477768 -11.676609992980957,-0.7771602272987366 -9.561917304992676,-1.6842410564422607 -7.502867698669434,-2.8391451835632324 -5.5172905921936035,-4.13803243637085 -3.6223576068878174,-5.4623494148254395 -1.8344389200210571,-6.688381195068359 -0.16895072162151337,-7.697239398956299 1.3597780466079712,-8.384495735168457 2.738633871078491,-8.668689727783203 3.9558348655700684,-8.498037338256836 5.001034736633301,-7.854800701141357 5.865416526794434,-6.7569780349731445 6.5417680740356445,-5.257163047790527 7.0245490074157715,-3.4386801719665527 7.309937000274658,-1.4092819690704346 7.395864009857178,0.7070810794830322 7.282033920288086,2.7797741889953613 6.969924449920654,4.681519031524658 6.46277379989624,6.2981719970703125 5.765555381774902,7.5374579429626465 4.884928226470947,8.335982322692871 3.829180955886841,8.663949012756348 2.608159303665161,8.527233123779297 1.2331764698028564,7.96662712097168 -0.2830865681171417,7.05433988571167 -1.9266935586929321,5.8880133628845215 -3.6825764179229736,4.582744598388672 -5.534669876098633,3.261749267578125 -7.466052055358887,2.0464000701904297 -9.459096908569336,1.0464434623718262 -11.495631217956543,0.35116714239120483 -13.55709171295166,0.022220918908715248 -15.62469482421875,0.08866450935602188 -17.679597854614258,0.5446334481239319 -19.70307731628418,1.349810004234314 -21.676677703857422,2.432661771774292 -23.58238983154297,3.6961886882781982 -25.402809143066406,5.025725364685059 -27.12127685546875,6.2981719970703125 -28.72205352783203,7.391927242279053 -30.1904239654541,8.196727752685547 -31.51286506652832,8.62260913848877 -32.6771354675293,8.607285499572754 -33.67240524291992,8.121346473693848 -34.48933410644531,7.170862197875977 -35.12016677856445,5.797195911407471 -35.55881118774414,4.074016571044922 -35.80085372924805,2.101764678955078 -35.84365463256836,2.4835497292605493e-14 -35.686317443847656,-2.101764678955078 -35.32973098754883,-4.074016571044922 -34.776554107666016,-5.797195911407471 -34.031185150146484,-7.170862197875977 -33.099727630615234,-8.121346473693848 -31.989938735961914,-8.607285499572754 -30.711151123046875,-8.62260913848877 -29.274202346801758,-8.196727752685547 -27.691329956054688,-7.391927242279053 -25.97606658935547,-6.2981719970703125 -24.14311981201172,-5.025725364685059 -22.208236694335938,-3.6961886882781982 -20.18807029724121,-2.432661771774292 -18.100034713745117,-1.349810004234314 -15.962136268615723,-0.5446334481239319 -13.792826652526855,-0.08866450935602188 -11.610837936401367,-0.022220918908715248 -9.43501091003418,-0.35116714239120483 -7.284130096435547,-1.0464434623718262 -5.176760196685791,-2.0464000701904297 -3.131075382232666,-3.261749267578125 -1.1647032499313354,-4.582744598388672 0.7054335474967957,-5.8880133628845215 2.463268518447876,-7.05433988571167 4.0937323570251465,-7.96662712097168 5.582887649536133,-8.527233123779297 6.918052673339844,-8.663949012756348 8.087912559509277,-8.335982322692871 9.082620620727539,-7.5374579429626465 9.893888473510742,-6.2981719970703125 10.51505184173584,-4.681519031524658 10.941141128540039,-2.7797741889953613 11.168915748596191,-0.7070810794830322 11.196894645690918,1.4092819690704346 11.025373458862305,3.4386801719665527 10.656421661376953,5.257163047790527 10.093857765197754,6.7569780349731445 9.343222618103027,7.854800701141357 8.411725044250488,8.498037338256836 7.308183670043945,8.668689727783203 6.042941570281982,8.384495735168457 4.627780914306641,7.697239398956299 3.075812578201294,6.688381195068359 1.401365876197815,5.4623494148254395 -0.38014402985572815,4.13803243637085 -2.252350330352783,2.8391451835632324 -4.198079586029053,1.6842410564422607 -6.199505805969238,0.7771602272987366 -8.238306999206543,0.1986752599477768 -10.295828819274902,0 -12.353248596191406,0.1986752599477768 -14.39174747467041,0.7771602272987366 -16.392667770385742,1.6842410564422607 -18.337690353393555,2.8391451835632324 -20.208988189697266,4.13803243637085 -21.98938751220703,5.4623494148254395 -23.66252326965332,6.688381195068359 -25.212974548339844,7.697239398956299 -26.626420974731445,8.384495735168457 -27.889745712280273,8.668689727783203 -28.991165161132812,8.498037338256836 -29.920339584350586,7.854800701141357 -30.668453216552734,6.7569780349731445 -31.228290557861328,5.257163047790527 -31.594318389892578,3.4386801719665527 -31.762710571289062,1.4092819690704346 -31.731399536132812,-0.7070810794830322 -31.50009536743164,-2.7797741889953613 -31.070270538330078,-4.681519031524658 -30.445173263549805,-6.2981719970703125 -29.62976837158203,-7.5374579429626465 -28.630722045898438,-8.335982322692871 -27.456321716308594,-8.663949012756348 -26.116416931152344,-8.527233123779297 -24.6223201751709,-7.96662712097168 -22.986709594726562,-7.05433988571167 -21.223529815673828,-5.8880133628845215 -19.347848892211914,-4.582744598388672 -17.375730514526367,-3.261749267578125 -15.324095726013184,-2.0464000701904297 -13.210576057434082,-1.0464434623718262 -11.053346633911133,-0.35116714239120483 -8.870966911315918,-0.022220918908715248 -6.682226181030273,-0.08866450935602188 -4.505964756011963,-0.5446334481239319 -2.3609120845794678,-1.349810004234314 -0.265520840883255,-2.432661771774292 1.7621986865997314,-3.6961886882781982 3.704836845397949,-5.025725364685059 5.545740604400635,-6.2981719970703125 7.26915979385376,-7.391927242279053 8.860387802124023,-8.196727752685547 10.305892944335938,-8.62260913848877 11.593436241149902,-8.607285499572754 12.712183952331543,-8.121346473693848 13.652796745300293,-7.170862197875977 14.407522201538086,-5.797195911407471 14.970254898071289,-4.074016571044922 15.336594581604004,-2.101764678955078 15.503888130187988,-3.311399413138613e-14 15.471244812011719,2.101764678955078 15.239553451538086,4.074016571044922 14.8114652633667,5.797195911407471 14.19138240814209,7.170862197875977 13.385405540466309,8.121346473693848 12.401287078857422,8.607285499572754 11.24836540222168,8.62260913848877 9.93747329711914,8.196727752685547 8.480846405029297,7.391927242279053 6.892016887664795,6.2981719970703125 5.185689926147461,5.025725364685059 3.3776135444641113,3.6961886882781982 1.4844399690628052,2.432661771774292 -0.47642284631729126,1.349810004234314 -2.4869654178619385,0.5446334481239319 -4.528736591339111,0.08866450935602188 -6.583008766174316,0.022220918908715248 -8.630941390991211,0.35116714239120483 -10.653749465942383,1.0464434623718262 -12.632871627807617,2.0464000701904297 -14.550134658813477,3.261749267578125 -16.387910842895508,4.582744598388672 -18.12928009033203,5.8880133628845215 -19.7581787109375,7.05433988571167 -21.259532928466797,7.96662712097168 -22.619413375854492,8.527233123779297 -23.825136184692383,8.663949012756348 -24.865386962890625,8.335982322692871 -25.730323791503906,7.5374579429626465 -26.41165542602539,6.2981719970703125 -26.90272331237793,4.681519031524658 -27.19855499267578,2.7797741889953613 -27.295913696289062,0.7070810794830322 -27.193317413330078,-1.4092819690704346 -26.89106559753418,-3.4386801719665527 -26.391225814819336,-5.257163047790527 -25.697622299194336,-6.7569780349731445 -24.8157958984375,-7.854800701141357 -23.752954483032227,-8.498037338256836 -22.51791763305664,-8.668689727783203 -21.121030807495117,-8.384495735168457 -19.574079513549805,-7.697239398956299 -17.890174865722656,-6.688381195068359 -16.083646774291992,-5.4623494148254395 -14.169910430908203,-4.13803243637085 -12.165336608886719,-2.8391451835632324 -10.087099075317383,-1.6842410564422607 -7.953023910522461,-0.7771602272987366 -5.781436443328857,-0.1986752599477768 -3.5909907817840576,0 -1.400510549545288,-0.1986752599477768 0.7711818218231201,-0.7771602272987366 2.9054300785064697,-1.6842410564422607 4.983911991119385,-2.8391451835632324 6.988799095153809,-4.13803243637085 8.90291690826416,-5.4623494148254395 10.709897994995117,-6.688381195068359 12.394325256347656,-7.697239398956299 13.941868782043457,-8.384495735168457 15.339414596557617,-8.668689727783203 16.575180053710938,-8.498037338256836 17.638822555541992,-7.854800701141357 18.52151870727539,-6.7569780349731445 19.216064453125,-5.257163047790527 19.716909408569336,-3.4386801719665527 20.020240783691406,-1.4092819690704346 20.12398338317871,0.7070810794830322 20.027843475341797,2.7797741889953613 19.73329734802246,4.681519031524658 19.24358558654785,6.2981719970703125 18.563678741455078,7.5374579429626465 17.700237274169922,8.335982322692871 16.661550521850586,8.663949012756348 15.4574613571167,8.527233123779297 14.099285125732422,7.96662712097168 12.599699974060059,7.05433988571167 10.97264575958252,5.8880133628845215 9.233186721801758,4.582744598388672 7.397390842437744,3.261749267578125 5.482178211212158,2.0464000701904297 3.505174398422241,1.0464434623718262 1.4845542907714844,0.35116714239120483 -0.5611206293106079,0.022220918908715248 -2.613065719604492,0.08866450935602188 -4.652441501617432,0.5446334481239319 -6.660519123077393,1.349810004234314 -8.618847846984863,2.432661771774292 -10.509417533874512,3.6961886882781982 -12.31482219696045,5.025725364685059 -14.01840877532959,6.2981719970703125 -15.604427337646484,7.391927242279053 -17.05817413330078,8.196727752685547 -18.366117477416992,8.62260913848877 -19.516023635864258,8.607285499572754 -20.497055053710938,8.121346473693848 -21.299877166748047,7.170862197875977 -21.916736602783203,5.797195911407471 -22.341529846191406,4.074016571044922 -22.569860458374023,2.101764678955078 -22.59907341003418,1.2144587635889992e-13 -22.428281784057617,-2.101764678955078 -22.058374404907227,-4.074016571044922 -21.492006301879883,-5.797195911407471 -20.73357582092285,-7.170862197875977 -19.789186477661133,-8.121346473693848 -18.66659927368164,-8.607285499572754 -17.375144958496094,-8.62260913848877 -15.925660133361816,-8.196727752685547 -14.330384254455566,-7.391927242279053 -12.602849006652832,-6.2981719970703125 -10.75776195526123,-5.025725364685059 -8.810870170593262,-3.6961886882781982 -6.778830051422119,-2.432661771774292 -4.679049491882324,-1.349810004234314 -2.5295400619506836,-0.5446334481239319 -0.3487529456615448,-0.08866450935602188 1.8445812463760376,-0.022220918908715248 4.03162145614624,-0.35116714239120483 6.1935811042785645,-1.0464434623718262 8.311898231506348,-2.0464000701904297 10.36839771270752,-3.261749267578125 12.345450401306152,-4.582744598388672 14.226133346557617,-5.8880133628845215 15.994382858276367,-7.05433988571167 17.6351261138916,-7.96662712097168 19.134429931640625,-8.527233123779297 20.47960662841797,-8.663949012756348 21.659343719482422,-8.335982322692871 22.66379737854004,-7.5374579429626465 23.484676361083984,-6.2981719970703125 24.11531639099121,-4.681519031524658 24.550750732421875,-2.7797741889953613 24.787731170654297,-0.7070810794830322 24.824783325195312,1.4092819690704346 24.662202835083008,3.4386801719665527 24.30205535888672,5.257163047790527 23.74816131591797,6.7569780349731445 23.006061553955078,7.854800701141357 22.082963943481445,8.498037338256836 20.987686157226562,8.668689727783203 19.73057746887207,8.384495735168457 18.323410034179688,7.697239398956299 16.7793025970459,6.688381195068359 15.112581253051758,5.4623494148254395 13.338661193847656,4.13803243637085 11.473908424377441,2.8391451835632324 9.53549861907959,1.6842410564422607 7.541255474090576,0.7771602272987366 5.509502410888672,0.1986752599477768 3.458892583847046,0 1.4082480669021606,0.1986752599477768 -0.6236096620559692,0.7771602272987366 -2.6180264949798584,1.6842410564422607 -4.556680679321289,2.8391451835632324 -6.421745777130127,4.13803243637085 -8.196048736572266,5.4623494148254395 -9.863222122192383,6.688381195068359 -11.407852172851562,7.697239398956299 -12.815608978271484,8.384495735168457 -14.073381423950195,8.668689727783203 -15.169387817382812,8.498037338256836 -16.093284606933594,7.854800701141357 -16.836254119873047,6.7569780349731445 -17.39108657836914,5.257163047790527 -17.752243041992188,3.4386801719665527 -17.915903091430664,1.4092819690704346 -17.87999725341797,-0.7070810794830322 -17.64423179626465,-2.7797741889953613 -17.210086822509766,-4.681519031524658 -16.580801010131836,-6.2981719970703125 -15.76134967803955,-7.5374579429626465 -14.758390426635742,-8.335982322692871 -13.580216407775879,-8.663949012756348 -12.236671447753906,-8.527233123779297 -10.739073753356934,-7.96662712097168 -9.100102424621582,-7.05433988571167 -7.333694934844971,-5.8880133628845215 -5.454921722412109,-4.582744598388672 -3.4798500537872314,-3.261749267578125 -1.4254013299942017,-2.0464000701904297 0.6907970905303955,-1.0464434623718262 2.850569248199463,-0.35116714239120483 5.035351753234863,-0.022220918908715248 7.2263593673706055,-0.08866450935602188 9.404749870300293,-0.5446334481239319 11.55179500579834,-1.349810004234314 13.649042129516602,-2.432661771774292 15.678479194641113,-3.6961886882781982 17.622697830200195,-5.025725364685059 19.465044021606445,-6.2981719970703125 21.189769744873047,-7.391927242279053 22.78216552734375,-8.196727752685547 24.228700637817383,-8.62260913848877 25.51713752746582,-8.607285499572754 26.636640548706055,-8.121346473693848 27.57787322998047,-7.170862197875977 28.333080291748047,-5.797195911407471 28.896154403686523,-4.074016571044922 29.2627010345459,-2.101764678955078 29.430063247680664,-4.967099458521099e-14 29.39735221862793,2.101764678955078 29.165451049804688,4.074016571044922 28.737022399902344,5.797195911407471 28.116458892822266,7.170862197875977 27.30986213684082,8.121346473693848 26.324987411499023,8.607285499572754 25.171175003051758,8.62260913848877 23.859249114990234,8.196727752685547 22.40145492553711,7.391927242279053 20.811321258544922,6.2981719970703125 19.103551864624023,5.025725364685059 17.293893814086914,3.6961886882781982 15.399003028869629,2.432661771774292 13.436284065246582,1.349810004234314 11.423749923706055,0.5446334481239319 9.37984848022461,0.08866450935602188 7.323310375213623,0.022220918908715248 5.272973537445068,0.35116714239120483 3.247624158859253,1.0464434623718262 1.2658230066299438,2.0464000701904297 -0.654255211353302,3.261749267578125 -2.4949843883514404,4.582744598388672 -4.239443778991699,5.8880133628845215 -5.871567726135254,7.05433988571167 -7.376287937164307,7.96662712097168 -8.739669799804688,8.527233123779297 -9.949029922485352,8.663949012756348 -10.993056297302246,8.335982322692871 -11.861905097961426,7.5374579429626465 -12.547286033630371,6.2981719970703125 -13.042539596557617,4.681519031524658 -13.342693328857422,2.7797741889953613 -13.444510459899902,0.7070810794830322 -13.34650993347168,-1.4092819690704346 -13.048991203308105,-3.4386801719665527 -12.554021835327148,-5.257163047790527 -11.865424156188965,-6.7569780349731445 -10.988737106323242,-7.854800701141357 -9.931174278259277,-8.498037338256836 -8.701553344726562,-8.668689727783203 -7.310220241546631,-8.384495735168457 -5.768955707550049,-7.697239398956299 -4.090875625610352,-6.688381195068359 -2.29030704498291,-5.4623494148254395 -0.38266807794570923,-4.13803243637085 1.615673303604126,-2.8391451835632324 3.6875431537628174,-1.6842410564422607 5.815113067626953,-0.7771602272987366 7.980060577392578,-0.1986752599477768 10.163729667663574,0 12.347297668457031,-0.1986752599477768 14.511942863464355,-0.7771602272987366 16.639007568359375,-1.6842410564422607 18.71017074584961,-2.8391451835632324 20.707603454589844,-4.13803243637085 22.614133834838867,-5.4623494148254395 24.413389205932617,-6.688381195068359 26.089954376220703,-7.697239398956299 27.62950325012207,-8.384495735168457 29.018917083740234,-8.668689727783203 30.24641990661621,-8.498037338256836 31.301660537719727,-7.854800701141357 32.17582321166992,-6.7569780349731445 32.8616943359375,-5.257163047790527 33.35374069213867,-3.4386801719665527 33.648128509521484,-1.4092819690704346 33.7427978515625,0.7070810794830322 33.637451171875,2.7797741889953613 33.333560943603516,4.681519031524658 32.834373474121094,6.2981719970703125 32.14485549926758,7.5374579429626465 31.271669387817383,8.335982322692871 30.223102569580078,8.663949012756348 29.009002685546875,8.527233123779297 27.64067840576172,7.96662712097168 26.130813598632812,7.05433988571167 24.493345260620117,5.8880133628845215 22.74333953857422,4.582744598388672 20.89686393737793,3.261749267578125 18.970836639404297,2.0464000701904297 16.982887268066406,1.0464434623718262 14.951186180114746,0.35116714239120483 12.894298553466797,0.022220918908715248 10.83100700378418,0.08866450935602188 8.78015422821045,0.5446334481239319 6.760465621948242,1.349810004234314 4.790393352508545,2.432661771774292 2.8879475593566895,3.6961886882781982 1.070535659790039,5.025725364685059 -0.6451900601387024,6.2981719970703125 -2.243480920791626,7.391927242279053 -3.70963191986084,8.196727752685547 -5.030111789703369,8.62260913848877 -6.192683696746826,8.607285499572754 -7.186513423919678,8.121346473693848 -8.002264976501465,7.170862197875977 -8.632186889648438,5.797195911407471 -9.070173263549805,4.074016571044922 -9.311826705932617,2.101764678955078 -9.354494094848633,-2.2103892270675628e-14 -9.197287559509277,-2.101764678955078 -8.841094017028809,-4.074016571044922 -8.28857135772705,-5.797195911407471 -7.5441179275512695,-7.170862197875977 -6.613837242126465,-8.121346473693848 -5.505484580993652,-8.607285499572754 -4.228396892547607,-8.62260913848877 -2.7934088706970215,-8.196727752685547 -1.2127587795257568,-7.391927242279053 0.5000211000442505,-6.2981719970703125 2.3302242755889893,-5.025725364685059 4.262101650238037,-3.6961886882781982 6.278999328613281,-2.432661771774292 8.363508224487305,-1.349810004234314 10.4976167678833,-0.5446334481239319 12.662875175476074,-0.08866450935602188 14.840551376342773,-0.022220918908715248 17.01180648803711,-0.35116714239120483 19.157852172851562,-1.0464434623718262 21.260128021240234,-2.0464000701904297 23.300458908081055,-3.261749267578125 25.261213302612305,-4.582744598388672 27.125473022460938,-5.8880133628845215 28.877168655395508,-7.05433988571167 30.50123405456543,-7.96662712097168 31.98373031616211,-8.527233123779297 33.31197738647461,-8.663949012756348 34.47465515136719,-8.335982322692871 35.46192169189453,-7.5374579429626465 36.26548767089844,-6.2981719970703125 36.87868881225586,-4.681519031524658 37.29655838012695,-2.7797741889953613 37.515846252441406,-0.7070810794830322 37.53508377075195,1.4092819690704346 37.35456085205078,3.4386801719665527 36.976348876953125,5.257163047790527 36.404266357421875,6.7569780349731445 35.64384841918945,7.854800701141357 34.702308654785156,8.498037338256836 33.58846664428711,8.668689727783203 32.31266784667969,8.384495735168457 30.886686325073242,7.697239398956299 29.323640823364258,6.688381195068359 27.637855529785156,5.4623494148254395 25.844749450683594,4.13803243637085 23.960689544677734,2.8391451835632324 22.002845764160156,1.6842410564422607 19.989046096801758,0.7771602272987366 17.9376163482666,0.1986752599477768 15.867205619812012,0 13.796637535095215,0.1986752599477768 11.744734764099121,0.7771602272987366 9.730149269104004,1.6842410564422607 7.771205902099609,2.8391451835632324 5.8857293128967285,4.13803243637085 4.090893268585205,5.4623494148254395 2.4030652046203613,6.688381195068359 0.8376609683036804,7.697239398956299 -0.5909920334815979,8.384495735168457 -1.8697808980941772,8.668689727783203 -2.986924648284912,8.498037338256836 -3.9320785999298096,7.854800701141357 -4.696425914764404,6.7569780349731445 -5.272756099700928,5.257163047790527 -5.655529022216797,3.4386801719665527 -5.840924263000488,1.4092819690704346 -5.826874732971191,-0.7070810794830322 -5.613083839416504,-2.7797741889953613 -5.201031684875488,-4.681519031524658 -4.593957901000977,-6.2981719970703125 -3.796834945678711,-7.5374579429626465 -2.816324234008789,-8.335982322692871 -1.6607155799865723,-8.663949012756348 -0.33985528349876404,-8.527233123779297 1.134942650794983,-7.96662712097168 2.7509963512420654,-7.05433988571167 4.494368076324463,-5.8880133628845215 6.34998893737793,-4.582744598388672 8.301793098449707,-3.261749267578125 10.332857131958008,-2.0464000701904297 12.425555229187012,-1.0464434623718262 14.561710357666016,-0.35116714239120483 16.722761154174805,-0.022220918908715248 18.889921188354492,-0.08866450935602188 21.044349670410156,-0.5446334481239319 23.16731834411621,-1.349810004234314 25.240371704101562,-2.432661771774292 27.245502471923828,-3.6961886882781982 29.165300369262695,-5.025725364685059 30.983112335205078,-6.2981719970703125 32.683189392089844,-7.391927242279053 34.250823974609375,-8.196727752685547 35.6724853515625,-8.62260913848877 36.935935974121094,-8.607285499572754 38.030338287353516,-8.121346473693848 38.946353912353516,-7.170862197875977 39.67623519897461,-5.797195911407471 40.2138786315918,-4.074016571044922 40.554874420166016,-2.101764678955078 40.69657516479492,-6.622798826277226e-14 40.638092041015625,2.101764678955078 40.38031005859375,4.074016571044922 39.92588806152344,5.797195911407471 39.27921676635742,7.170862197875977 38.4464111328125,8.121346473693848 37.43521499633789,8.607285499572754 36.254966735839844,8.62260913848877 34.916500091552734,8.196727752685547 33.43205261230469,7.391927242279053 31.815156936645508,6.2981719970703125 30.08051872253418,5.025725364685059 28.243885040283203,3.6961886882781982 26.32190704345703,2.432661771774292 24.33199691772461,1.349810004234314 22.29216194152832,0.5446334481239319 20.220849990844727,0.08866450935602188 18.136796951293945,0.022220918908715248 16.058839797973633,0.35116714239120483 14.00576114654541,1.0464434623718262 11.996125221252441,2.0464000701904297 10.04810619354248,3.261749267578125 8.179330825805664,4.582744598388672 6.4067206382751465,5.8880133628845215 4.746340274810791,7.05433988571167 3.2132582664489746,7.96662712097168 1.8214114904403687,8.527233123779297 0.583480954170227,8.663949012756348 -0.4892198443412781,8.335982322692871 -1.3868458271026611,7.5374579429626465 -2.101107597351074,6.2981719970703125 -2.625345230102539,4.681519031524658 -2.9545862674713135,2.7797741889953613 -3.085592031478882,0.7070810794830322 -3.0168845653533936,-1.4092819690704346 -2.7487592697143555,-3.4386801719665527 -2.283285140991211,-5.257163047790527 -1.6242835521697998,-6.7569780349731445 -0.777294933795929,-7.854800701141357 0.25046905875205994,-8.498037338256836 1.4501910209655762,-8.668689727783203 2.8115251064300537,-8.384495735168457 4.322690010070801,-7.697239398956299 5.970571994781494,-6.688381195068359 7.740842819213867,-5.4623494148254395 9.618084907531738,-4.13803243637085 11.585930824279785,-2.8391451835632324 13.627205848693848,-1.6842410564422607 15.724082946777344,-0.7771602272987366 17.85824203491211,-0.1986752599477768 20.011024475097656,0 22.163606643676758,-0.1986752599477768 24.297168731689453,-0.7771602272987366 26.393056869506836,-1.6842410564422607 28.43294334411621,-2.8391451835632324 30.39900779724121,-4.13803243637085 32.274070739746094,-5.4623494148254395 34.04176330566406,-6.688381195068359 35.686676025390625,-7.697239398956299 37.19447326660156,-8.384495735168457 38.55204391479492,-8.668689727783203 39.74760055541992,-8.498037338256836 40.77081298828125,-7.854800701141357 41.61284637451172,-6.7569780349731445 42.266502380371094,-5.257163047790527 42.726226806640625,-3.4386801719665527 42.98821258544922,-1.4092819690704346 43.05038833618164,0.7070810794830322 42.91244888305664,2.7797741889953613 42.57588195800781,4.681519031524658 42.04391860961914,6.2981719970703125 41.321537017822266,7.5374579429626465 40.41539764404297,8.335982322692871 39.33378982543945,8.663949012756348 38.086551666259766,8.527233123779297 36.68500900268555,7.96662712097168 35.14183044433594,7.05433988571167 33.4709587097168,5.8880133628845215 31.687463760375977,4.582744598388672 29.807409286499023,3.261749267578125 27.847715377807617,2.0464000701904297 25.82600975036621,1.0464434623718262 23.760469436645508,0.35116714239120483 21.669652938842773,0.022220918908715248 19.57234764099121,0.08866450935602188 17.48739242553711,0.5446334481239319 15.433517456054688,1.349810004234314 13.42917251586914,2.432661771774292 11.492368698120117,3.6961886882781982 9.640514373779297,5.025725364685059 7.890260696411133,6.2981719970703125 6.257358551025391,7.391927242279053 4.756511688232422,8.196727752685547 3.4012527465820312,8.62260913848877 2.2038185596466064,8.607285499572754 1.1750435829162598,8.121346473693848 0.32426387071609497,7.170862197875977 -0.3407668173313141,5.797195911407471 -0.8139451146125793,4.074016571044922 -1.0908724069595337,2.101764678955078 -1.168893814086914,1.5455987726654963e-13 -1.0471220016479492,-2.101764678955078 -0.7264449000358582,-4.074016571044922 -0.20951765775680542,-5.797195911407471 0.4992607533931732,-7.170862197875977 1.3937864303588867,-8.121346473693848 2.4663052558898926,-8.607285499572754 3.7074804306030273,-8.62260913848877 5.106477737426758,-8.196727752685547 6.651059150695801,-7.391927242279053 8.327692031860352,-6.2981719970703125 10.121672630310059,-5.025725364685059 12.01724910736084,-3.6961886882781982 13.997769355773926,-2.432661771774292 16.04582405090332,-1.349810004234314 18.143404006958008,-0.5446334481239319 20.272058486938477,-0.08866450935602188 22.413057327270508,-0.022220918908715248 24.547555923461914,-0.35116714239120483 26.656774520874023,-1.0464434623718262 28.72214698791504,-2.0464000701904297 30.72549819946289,-3.261749267578125 32.64920425415039,-4.582744598388672 34.476341247558594,-5.8880133628845215 36.19084167480469,-7.05433988571167 37.77764129638672,-7.96662712097168 39.22279739379883,-8.527233123779297 40.51362991333008,-8.663949012756348 41.63882827758789,-8.335982322692871 42.58854675292969,-7.5374579429626465 43.354488372802734,-6.2981719970703125 43.93000030517578,-4.681519031524658 44.31010437011719,-2.7797741889953613 44.49156188964844,-0.7070810794830322 44.472900390625,1.4092819690704346 44.2544059753418,3.4386801719665527 43.838157653808594,5.257163047790527 43.22796630859375,6.7569780349731445 42.429378509521484,7.854800701141357 41.44960403442383,8.498037338256836 40.29745101928711,8.668689727783203 38.983280181884766,8.384495735168457 37.518863677978516,7.697239398956299 35.91731262207031,6.688381195068359 34.19295883178711,5.4623494148254395 32.36122131347656,4.13803243637085 30.43846321105957,2.8391451835632324 28.44186019897461,1.6842410564422607 26.389236450195312,0.7771602272987366 24.298917770385742,0.1986752599477768 22.189556121826172,0 20.079975128173828,0.1986752599477768 17.988996505737305,0.7771602272987366 15.935275077819824,1.6842410564422607 13.937134742736816,2.8391451835632324 12.012398719787598,4.13803243637085 10.178243637084961,5.4623494148254395 8.45103645324707,6.688381195068359 6.846193313598633,7.697239398956299 5.378042221069336,8.384495735168457 4.059696197509766,8.668689727783203 2.9029366970062256,8.498037338256836 1.9181088209152222,7.854800701141357 1.1140300035476685,6.7569780349731445 0.4979107677936554,5.257163047790527 0.07529187947511673,3.4386801719665527 -0.1500057727098465,1.4092819690704346 -0.1759144514799118,-0.7070810794830322 -0.0021383315324783325,-2.7797741889953613 0.36984413862228394,-4.681519031524658 0.9367932081222534,-6.2981719970703125 1.6937367916107178,-7.5374579429626465 2.6340138912200928,-8.335982322692871 3.749335289001465,-8.663949012756348 5.029854774475098,-8.527233123779297 6.464259624481201,-7.96662712097168 8.03986644744873,-7.05433988571167 9.742740631103516,-5.8880133628845215 11.55781078338623,-4.582744598388672 13.469012260437012,-3.261749267578125 15.459424018859863,-2.0464000701904297 17.51141929626465,-1.0464434623718262 19.606821060180664,-0.35116714239120483 21.727069854736328,-0.022220918908715248 23.853374481201172,-0.08866450935602188 25.966903686523438,-0.5446334481239319 28.048919677734375,-1.349810004234314 30.080976486206055,-2.432661771774292 32.04505920410156,-3.6961886882781982 33.92376708984375,-5.025725364685059 35.700435638427734,-6.2981719970703125 37.35932540893555,-7.391927242279053 38.88572692871094,-8.196727752685547 40.266109466552734,-8.62260913848877 41.48823547363281,-8.607285499572754 42.541263580322266,-8.121346473693848 43.41587448120117,-7.170862197875977 44.10429763793945,-5.797195911407471 44.600433349609375,-4.074016571044922 44.89988708496094,-2.101764678955078 45,-2.4289175271779984e-13 44.89988708496094,2.101764678955078 44.600433349609375,4.074016571044922 44.10429763793945,5.797195911407471 43.41587448120117,7.170862197875977 42.541263580322266,8.121346473693848 41.48823547363281,8.607285499572754 40.266109466552734,8.62260913848877 38.88572692871094,8.196727752685547 37.35932540893555,7.391927242279053 35.700435638427734,6.2981719970703125 33.92376708984375,5.025725364685059 32.04505920410156,3.6961886882781982 30.080976486206055,2.432661771774292 28.048919677734375,1.349810004234314 25.966903686523438,0.5446334481239319 23.853374481201172,0.08866450935602188 21.727069854736328,0.022220918908715248 19.606821060180664,0.35116714239120483 17.51141929626465,1.0464434623718262 15.459424018859863,2.0464000701904297 13.469012260437012,3.261749267578125 11.55781078338623,4.582744598388672 9.742740631103516,5.8880133628845215 8.03986644744873,7.05433988571167 6.464259624481201,7.96662712097168 5.029854774475098,8.527233123779297 3.749335289001465,8.663949012756348 2.6340138912200928,8.335982322692871 1.6937367916107178,7.5374579429626465 0.9367932081222534,6.2981719970703125 0.36984413862228394,4.681519031524658 -0.0021383315324783325,2.7797741889953613 -0.1759144514799118,0.7070810794830322 -0.1500057727098465,-1.4092819690704346 0.07529187947511673,-3.4386801719665527 0.4979107677936554,-5.257163047790527 1.1140300035476685,-6.7569780349731445 1.9181088209152222,-7.854800701141357 2.9029366970062256,-8.498037338256836 4.059696197509766,-8.668689727783203 5.378042221069336,-8.384495735168457 6.846193313598633,-7.697239398956299 8.45103645324707,-6.688381195068359 10.178243637084961,-5.4623494148254395 12.012398719787598,-4.13803243637085 13.937134742736816,-2.8391451835632324 15.935275077819824,-1.6842410564422607 17.988996505737305,-0.7771602272987366 20.079975128173828,-0.1986752599477768 22.189556121826172,0 24.298917770385742,-0.1986752599477768 26.389236450195312,-0.7771602272987366 28.44186019897461,-1.6842410564422607 30.43846321105957,-2.8391451835632324 32.36122131347656,-4.13803243637085 34.19295883178711,-5.4623494148254395 35.91731262207031,-6.688381195068359 37.518863677978516,-7.697239398956299 38.983280181884766,-8.384495735168457 40.29745101928711,-8.668689727783203 41.44960403442383,-8.498037338256836 42.429378509521484,-7.854800701141357 43.22796630859375,-6.7569780349731445 43.838157653808594,-5.257163047790527 44.2544059753418,-3.4386801719665527 44.472900390625,-1.4092819690704346 44.49156188964844,0.7070810794830322 44.31010437011719,2.7797741889953613 43.93000030517578,4.681519031524658 43.354488372802734,6.2981719970703125 42.58854675292969,7.5374579429626465 41.63882827758789,8.335982322692871 40.51362991333008,8.663949012756348 39.22279739379883,8.527233123779297 37.77764129638672,7.96662712097168 36.19084167480469,7.05433988571167 34.476341247558594,5.8880133628845215 32.64920425415039,4.582744598388672 30.72549819946289,3.261749267578125 28.72214698791504,2.0464000701904297 26.656774520874023,1.0464434623718262 24.547555923461914,0.35116714239120483 22.413057327270508,0.022220918908715248 20.272058486938477,0.08866450935602188 18.143404006958008,0.5446334481239319 16.04582405090332,1.349810004234314 13.997769355773926,2.432661771774292 12.01724910736084,3.6961886882781982 10.121672630310059,5.025725364685059 8.327692031860352,6.2981719970703125 6.651059150695801,7.391927242279053 5.106477737426758,8.196727752685547 3.7074804306030273,8.62260913848877 2.4663052558898926,8.607285499572754 1.3937864303588867,8.121346473693848 0.4992607533931732,7.170862197875977 -0.20951765775680542,5.797195911407471 -0.7264449000358582,4.074016571044922 -1.0471220016479492,2.101764678955078 -1.168893814086914,1.1010102707743451e-14 -1.0908724069595337,-2.101764678955078 -0.8139451146125793,-4.074016571044922 -0.3407668173313141,-5.797195911407471 0.32426387071609497,-7.170862197875977 1.1750435829162598,-8.121346473693848 2.2038185596466064,-8.607285499572754 3.4012527465820312,-8.62260913848877 4.756511688232422,-8.196727752685547 6.257358551025391,-7.391927242279053 7.890260696411133,-6.2981719970703125 9.640514373779297,-5.025725364685059 11.492368698120117,-3.6961886882781982 13.42917251586914,-2.432661771774292 15.433517456054688,-1.349810004234314 17.48739242553711,-0.5446334481239319 19.57234764099121,-0.08866450935602188 21.669652938842773,-0.022220918908715248 23.760469436645508,-0.35116714239120483 25.82600975036621,-1.0464434623718262 27.847715377807617,-2.0464000701904297 29.807409286499023,-3.261749267578125 31.687463760375977,-4.582744598388672 33.4709587097168,-5.8880133628845215 35.14183044433594,-7.05433988571167 36.68500900268555,-7.96662712097168 38.086551666259766,-8.527233123779297 39.33378982543945,-8.663949012756348 40.41539764404297,-8.335982322692871 41.321537017822266,-7.5374579429626465 42.04391860961914,-6.2981719970703125 42.57588195800781,-4.681519031524658 42.91244888305664,-2.7797741889953613 43.05038833618164,-0.7070810794830322 42.98821258544922,1.4092819690704346 42.726226806640625,3.4386801719665527 42.266502380371094,5.257163047790527 41.61284637451172,6.7569780349731445 40.77081298828125,7.854800701141357 39.74760055541992,8.498037338256836 38.55204391479492,8.668689727783203 37.19447326660156,8.384495735168457 35.686676025390625,7.697239398956299 34.04176330566406,6.688381195068359 32.274070739746094,5.4623494148254395 30.39900779724121,4.13803243637085 28.43294334411621,2.8391451835632324 26.393056869506836,1.6842410564422607 24.297168731689453,0.7771602272987366 22.163606643676758,0.1986752599477768 20.011024475097656,0 17.85824203491211,0.1986752599477768 15.724082946777344,0.7771602272987366 13.627205848693848,1.6842410564422607 11.585930824279785,2.8391451835632324 9.618084907531738,4.13803243637085 7.740842819213867,5.4623494148254395 5.970571994781494,6.688381195068359 4.322690010070801,7.697239398956299 2.8115251064300537,8.384495735168457 1.4501910209655762,8.668689727783203 0.25046905875205994,8.498037338256836 -0.777294933795929,7.854800701141357 -1.6242835521697998,6.7569780349731445 -2.283285140991211,5.257163047790527 -2.7487592697143555,3.4386801719665527 -3.0168845653533936,1.4092819690704346 -3.085592031478882,-0.7070810794830322 -2.9545862674713135,-2.7797741889953613 -2.625345230102539,-4.681519031524658 -2.101107597351074,-6.2981719970703125 -1.3868458271026611,-7.5374579429626465 -0.4892198443412781,-8.335982322692871 0.583480954170227,-8.663949012756348 1.8214114904403687,-8.527233123779297 3.2132582664489746,-7.96662712097168 4.746340274810791,-7.05433988571167 6.4067206382751465,-5.8880133628845215 8.179330825805664,-4.582744598388672 10.04810619354248,-3.261749267578125 11.996125221252441,-2.0464000701904297 14.00576114654541,-1.0464434623718262 16.058839797973633,-0.35116714239120483 18.136796951293945,-0.022220918908715248 20.220849990844727,-0.08866450935602188 22.29216194152832,-0.5446334481239319 24.33199691772461,-1.349810004234314 26.32190704345703,-2.432661771774292 28.243885040283203,-3.6961886882781982 30.08051872253418,-5.025725364685059 31.815156936645508,-6.2981719970703125 33.43205261230469,-7.391927242279053 34.916500091552734,-8.196727752685547 36.254966735839844,-8.62260913848877 37.43521499633789,-8.607285499572754 38.4464111328125,-8.121346473693848 39.27921676635742,-7.170862197875977 39.92588806152344,-5.797195911407471 40.38031005859375,-4.074016571044922 40.638092041015625,-2.101764678955078 40.69657516479492,-9.934198917042197e-14 40.554874420166016,2.101764678955078 40.2138786315918,4.074016571044922 39.67623519897461,5.797195911407471 38.946353912353516,7.170862197875977 38.030338287353516,8.121346473693848 36.935935974121094,8.607285499572754 35.6724853515625,8.62260913848877 34.250823974609375,8.196727752685547 32.683189392089844,7.391927242279053 30.983112335205078,6.2981719970703125 29.165300369262695,5.025725364685059 27.245502471923828,3.6961886882781982 25.240371704101562,2.432661771774292 23.16731834411621,1.349810004234314 21.044349670410156,0.5446334481239319 18.889921188354492,0.08866450935602188 16.722761154174805,0.022220918908715248 14.561710357666016,0.35116714239120483 12.425555229187012,1.0464434623718262 10.332857131958008,2.0464000701904297 8.301793098449707,3.261749267578125 6.34998893737793,4.582744598388672 4.494368076324463,5.8880133628845215 2.7509963512420654,7.05433988571167 1.134942650794983,7.96662712097168 -0.33985528349876404,8.527233123779297 -1.6607155799865723,8.663949012756348 -2.816324234008789,8.335982322692871 -3.796834945678711,7.5374579429626465 -4.593957901000977,6.2981719970703125 -5.201031684875488,4.681519031524658 -5.613083839416504,2.7797741889953613 -5.826874732971191,0.7070810794830322 -5.840924263000488,-1.4092819690704346 -5.655529022216797,-3.4386801719665527 -5.272756099700928,-5.257163047790527 -4.696425914764404,-6.7569780349731445 -3.9320785999298096,-7.854800701141357 -2.986924648284912,-8.498037338256836 -1.8697808980941772,-8.668689727783203 -0.5909920334815979,-8.384495735168457 0.8376609683036804,-7.697239398956299 2.4030652046203613,-6.688381195068359 4.090893268585205,-5.4623494148254395 5.8857293128967285,-4.13803243637085 7.771205902099609,-2.8391451835632324 9.730149269104004,-1.6842410564422607 11.744734764099121,-0.7771602272987366 13.796637535095215,-0.1986752599477768 15.867205619812012,0 17.9376163482666,-0.1986752599477768 19.989046096801758,-0.7771602272987366 22.002845764160156,-1.6842410564422607 23.960689544677734,-2.8391451835632324 25.844749450683594,-4.13803243637085 27.637855529785156,-5.4623494148254395 29.323640823364258,-6.688381195068359 30.886686325073242,-7.697239398956299 32.31266784667969,-8.384495735168457 33.58846664428711,-8.668689727783203 34.702308654785156,-8.498037338256836 35.64384841918945,-7.854800701141357 36.404266357421875,-6.7569780349731445 36.976348876953125,-5.257163047790527 37.35456085205078,-3.4386801719665527 37.53508377075195,-1.4092819690704346 37.515846252441406,0.7070810794830322 37.29655838012695,2.7797741889953613 36.87868881225586,4.681519031524658 36.26548767089844,6.2981719970703125 35.46192169189453,7.5374579429626465 34.47465515136719,8.335982322692871 33.31197738647461,8.663949012756348 31.98373031616211,8.527233123779297 30.50123405456543,7.96662712097168 28.877168655395508,7.05433988571167 27.125473022460938,5.8880133628845215 25.261213302612305,4.582744598388672 23.300458908081055,3.261749267578125 21.260128021240234,2.0464000701904297 19.157852172851562,1.0464434623718262 17.01180648803711,0.35116714239120483 14.840551376342773,0.022220918908715248 12.662875175476074,0.08866450935602188 10.4976167678833,0.5446334481239319 8.363508224487305,1.349810004234314 6.278999328613281,2.432661771774292 4.262101650238037,3.6961886882781982 2.3302242755889893,5.025725364685059 0.5000211000442505,6.2981719970703125 -1.2127587795257568,7.391927242279053 -2.7934088706970215,8.196727752685547 -4.228396892547607,8.62260913848877 -5.505484580993652,8.607285499572754 -6.613837242126465,8.121346473693848 -7.5441179275512695,7.170862197875977 -8.28857135772705,5.797195911407471 -8.841094017028809,4.074016571044922 -9.197287559509277,2.101764678955078 -9.354494094848633,1.8767387817419934e-13 -9.311826705932617,-2.101764678955078 -9.070173263549805,-4.074016571044922 -8.632186889648438,-5.797195911407471 -8.002264976501465,-7.170862197875977 -7.186513423919678,-8.121346473693848 -6.192683696746826,-8.607285499572754 -5.030111789703369,-8.62260913848877 -3.70963191986084,-8.196727752685547 -2.243480920791626,-7.391927242279053 -0.6451900601387024,-6.2981719970703125 1.070535659790039,-5.025725364685059 2.8879475593566895,-3.6961886882781982 4.790393352508545,-2.432661771774292 6.760465621948242,-1.349810004234314 8.78015422821045,-0.5446334481239319 10.83100700378418,-0.08866450935602188 12.894298553466797,-0.022220918908715248 14.951186180114746,-0.35116714239120483 16.982887268066406,-1.0464434623718262 18.970836639404297,-2.0464000701904297 20.89686393737793,-3.261749267578125 22.74333953857422,-4.582744598388672 24.493345260620117,-5.8880133628845215 26.130813598632812,-7.05433988571167 27.64067840576172,-7.96662712097168 29.009002685546875,-8.527233123779297 30.223102569580078,-8.663949012756348 31.271669387817383,-8.335982322692871 32.14485549926758,-7.5374579429626465 32.834373474121094,-6.2981719970703125 33.333560943603516,-4.681519031524658 33.637451171875,-2.7797741889953613 33.7427978515625,-0.7070810794830322 33.648128509521484,1.4092819690704346 33.35374069213867,3.4386801719665527 32.8616943359375,5.257163047790527 32.17582321166992,6.7569780349731445 31.301660537719727,7.854800701141357 30.24641990661621,8.498037338256836 29.018917083740234,8.668689727783203 27.62950325012207,8.384495735168457 26.089954376220703,7.697239398956299 24.413389205932617,6.688381195068359 22.614133834838867,5.4623494148254395 20.707603454589844,4.13803243637085 18.71017074584961,2.8391451835632324 16.639007568359375,1.6842410564422607 14.511942863464355,0.7771602272987366 12.347297668457031,0.1986752599477768 10.163729667663574,0 7.980060577392578,0.1986752599477768 5.815113067626953,0.7771602272987366 3.6875431537628174,1.6842410564422607 1.615673303604126,2.8391451835632324 -0.38266807794570923,4.13803243637085 -2.29030704498291,5.4623494148254395 -4.090875625610352,6.688381195068359 -5.768955707550049,7.697239398956299 -7.310220241546631,8.384495735168457 -8.701553344726562,8.668689727783203 -9.931174278259277,8.498037338256836 -10.988737106323242,7.854800701141357 -11.865424156188965,6.7569780349731445 -12.554021835327148,5.257163047790527 -13.048991203308105,3.4386801719665527 -13.34650993347168,1.4092819690704346 -13.444510459899902,-0.7070810794830322 -13.342693328857422,-2.7797741889953613 -13.042539596557617,-4.681519031524658 -12.547286033630371,-6.2981719970703125 -11.861905097961426,-7.5374579429626465 -10.993056297302246,-8.335982322692871 -9.949029922485352,-8.663949012756348 -8.739669799804688,-8.527233123779297 -7.376287937164307,-7.96662712097168 -5.871567726135254,-7.05433988571167 -4.239443778991699,-5.8880133628845215 -2.4949843883514404,-4.582744598388672 -0.654255211353302,-3.261749267578125 1.2658230066299438,-2.0464000701904297 3.247624158859253,-1.0464434623718262 5.272973537445068,-0.35116714239120483 7.323310375213623,-0.022220918908715248 9.37984848022461,-0.08866450935602188 11.423749923706055,-0.5446334481239319 13.436284065246582,-1.349810004234314 15.399003028869629,-2.432661771774292 17.293893814086914,-3.6961886882781982 19.103551864624023,-5.025725364685059 20.811321258544922,-6.2981719970703125 22.40145492553711,-7.391927242279053 23.859249114990234,-8.196727752685547 25.171175003051758,-8.62260913848877 26.324987411499023,-8.607285499572754 27.30986213684082,-8.121346473693848 28.116458892822266,-7.170862197875977 28.737022399902344,-5.797195911407471 29.165451049804688,-4.074016571044922 29.39735221862793,-2.101764678955078 29.430063247680664,4.4207784541351255e-14 29.2627010345459,2.101764678955078 28.896154403686523,4.074016571044922 28.333080291748047,5.797195911407471 27.57787322998047,7.170862197875977 26.636640548706055,8.121346473693848 25.51713752746582,8.607285499572754 24.228700637817383,8.62260913848877 22.78216552734375,8.196727752685547 21.189769744873047,7.391927242279053 19.465044021606445,6.2981719970703125 17.622697830200195,5.025725364685059 15.678479194641113,3.6961886882781982 13.649042129516602,2.432661771774292 11.55179500579834,1.349810004234314 9.404749870300293,0.5446334481239319 7.2263593673706055,0.08866450935602188 5.035351753234863,0.022220918908715248 2.850569248199463,0.35116714239120483 0.6907970905303955,1.0464434623718262 -1.4254013299942017,2.0464000701904297 -3.4798500537872314,3.261749267578125 -5.454921722412109,4.582744598388672 -7.333694934844971,5.8880133628845215 -9.100102424621582,7.05433988571167 -10.739073753356934,7.96662712097168 -12.236671447753906,8.527233123779297 -13.580216407775879,8.663949012756348 -14.758390426635742,8.335982322692871 -15.76134967803955,7.5374579429626465 -16.580801010131836,6.2981719970703125 -17.210086822509766,4.681519031524658 -17.64423179626465,2.7797741889953613 -17.87999725341797,0.7070810794830322 -17.915903091430664,-1.4092819690704346 -17.752243041992188,-3.4386801719665527 -17.39108657836914,-5.257163047790527 -16.836254119873047,-6.7569780349731445 -16.093284606933594,-7.854800701141357 -15.169387817382812,-8.498037338256836 -14.073381423950195,-8.668689727783203 -12.815608978271484,-8.384495735168457 -11.407852172851562,-7.697239398956299 -9.863222122192383,-6.688381195068359 -8.196048736572266,-5.4623494148254395 -6.421745777130127,-4.13803243637085 -4.556680679321289,-2.8391451835632324 -2.6180264949798584,-1.6842410564422607 -0.6236096620559692,-0.7771602272987366 1.4082480669021606,-0.1986752599477768 3.458892583847046,0 5.509502410888672,-0.1986752599477768 7.541255474090576,-0.7771602272987366 9.53549861907959,-1.6842410564422607 11.473908424377441,-2.8391451835632324 13.338661193847656,-4.13803243637085 15.112581253051758,-5.4623494148254395 16.7793025970459,-6.688381195068359 18.323410034179688,-7.697239398956299 19.73057746887207,-8.384495735168457 20.987686157226562,-8.668689727783203 22.082963943481445,-8.498037338256836 23.006061553955078,-7.854800701141357 23.74816131591797,-6.7569780349731445 24.30205535888672,-5.257163047790527 24.662202835083008,-3.4386801719665527 24.824783325195312,-1.4092819690704346 24.787731170654297,0.7070810794830322 24.550750732421875,2.7797741889953613 24.11531639099121,4.681519031524658 23.484676361083984,6.2981719970703125 22.66379737854004,7.5374579429626465 21.659343719482422,8.335982322692871 20.47960662841797,8.663949012756348 19.134429931640625,8.527233123779297 17.6351261138916,7.96662712097168 15.994382858276367,7.05433988571167 14.226133346557617,5.8880133628845215 12.345450401306152,4.582744598388672 10.36839771270752,3.261749267578125 8.311898231506348,2.0464000701904297 6.1935811042785645,1.0464434623718262 4.03162145614624,0.35116714239120483 1.8445812463760376,0.022220918908715248 -0.3487529456615448,0.08866450935602188 -2.5295400619506836,0.5446334481239319 -4.679049491882324,1.349810004234314 -6.778830051422119,2.432661771774292 -8.810870170593262,3.6961886882781982 -10.75776195526123,5.025725364685059 -12.602849006652832,6.2981719970703125 -14.330384254455566,7.391927242279053 -15.925660133361816,8.196727752685547 -17.375144958496094,8.62260913848877 -18.66659927368164,8.607285499572754 -19.789186477661133,8.121346473693848 -20.73357582092285,7.170862197875977 -21.492006301879883,5.797195911407471 -22.058374404907227,4.074016571044922 -22.428281784057617,2.101764678955078 -22.59907341003418,4.412409768616253e-14 -22.569860458374023,-2.101764678955078 -22.341529846191406,-4.074016571044922 -21.916736602783203,-5.797195911407471 -21.299877166748047,-7.170862197875977 -20.497055053710938,-8.121346473693848 -19.516023635864258,-8.607285499572754 -18.366117477416992,-8.62260913848877 -17.05817413330078,-8.196727752685547 -15.604427337646484,-7.391927242279053 -14.01840877532959,-6.2981719970703125 -12.31482219696045,-5.025725364685059 -10.509417533874512,-3.6961886882781982 -8.618847846984863,-2.432661771774292 -6.660519123077393,-1.349810004234314 -4.652441501617432,-0.5446334481239319 -2.613065719604492,-0.08866450935602188 -0.5611206293106079,-0.022220918908715248 1.4845542907714844,-0.35116714239120483 3.505174398422241,-1.0464434623718262 5.482178211212158,-2.0464000701904297 7.397390842437744,-3.261749267578125 9.233186721801758,-4.582744598388672 10.97264575958252,-5.8880133628845215 12.599699974060059,-7.05433988571167 14.099285125732422,-7.96662712097168 15.4574613571167,-8.527233123779297 16.661550521850586,-8.663949012756348 17.700237274169922,-8.335982322692871 18.563678741455078,-7.5374579429626465 19.24358558654785,-6.2981719970703125 19.73329734802246,-4.681519031524658 20.027843475341797,-2.7797741889953613 20.12398338317871,-0.7070810794830322 20.020240783691406,1.4092819690704346 19.716909408569336,3.4386801719665527 19.216064453125,5.257163047790527 18.52151870727539,6.7569780349731445 17.638822555541992,7.854800701141357 16.575180053710938,8.498037338256836 15.339414596557617,8.668689727783203 13.941868782043457,8.384495735168457 12.394325256347656,7.697239398956299 10.709897994995117,6.688381195068359 8.90291690826416,5.4623494148254395 6.988799095153809,4.13803243637085 4.983911991119385,2.8391451835632324 2.9054300785064697,1.6842410564422607 0.7711818218231201,0.7771602272987366 -1.400510549545288,0.1986752599477768 -3.5909907817840576,0 -5.781436443328857,0.1986752599477768 -7.953023910522461,0.7771602272987366 -10.087099075317383,1.6842410564422607 -12.165336608886719,2.8391451835632324 -14.169910430908203,4.13803243637085 -16.083646774291992,5.4623494148254395 -17.890174865722656,6.688381195068359 -19.574079513549805,7.697239398956299 -21.121030807495117,8.384495735168457 -22.51791763305664,8.668689727783203 -23.752954483032227,8.498037338256836 -24.8157958984375,7.854800701141357 -25.697622299194336,6.7569780349731445 -26.391225814819336,5.257163047790527 -26.89106559753418,3.4386801719665527 -27.193317413330078,1.4092819690704346 -27.295913696289062,-0.7070810794830322 -27.19855499267578,-2.7797741889953613 -26.90272331237793,-4.681519031524658 -26.41165542602539,-6.2981719970703125 -25.730323791503906,-7.5374579429626465 -24.865386962890625,-8.335982322692871 -23.825136184692383,-8.663949012756348 -22.619413375854492,-8.527233123779297 -21.259532928466797,-7.96662712097168 -19.7581787109375,-7.05433988571167 -18.12928009033203,-5.8880133628845215 -16.387910842895508,-4.582744598388672 -14.550134658813477,-3.261749267578125 -12.632871627807617,-2.0464000701904297 -10.653749465942383,-1.0464434623718262 -8.630941390991211,-0.35116714239120483 -6.583008766174316,-0.022220918908715248 -4.528736591339111,-0.08866450935602188 -2.4869654178619385,-0.5446334481239319 -0.47642284631729126,-1.349810004234314 1.4844399690628052,-2.432661771774292 3.3776135444641113,-3.6961886882781982 5.185689926147461,-5.025725364685059 6.892016887664795,-6.2981719970703125 8.480846405029297,-7.391927242279053 9.93747329711914,-8.196727752685547 11.24836540222168,-8.62260913848877 12.401287078857422,-8.607285499572754 13.385405540466309,-8.121346473693848 14.19138240814209,-7.170862197875977 14.8114652633667,-5.797195911407471 15.239553451538086,-4.074016571044922 15.471244812011719,-2.101764678955078 15.503888130187988,-1.3245597652554453e-13 15.336594581604004,2.101764678955078 14.970254898071289,4.074016571044922 14.407522201538086,5.797195911407471 13.652796745300293,7.170862197875977 12.712183952331543,8.121346473693848 11.593436241149902,8.607285499572754 10.305892944335938,8.62260913848877 8.860387802124023,8.196727752685547 7.26915979385376,7.391927242279053 5.545740604400635,6.2981719970703125 3.704836845397949,5.025725364685059 1.7621986865997314,3.6961886882781982 -0.265520840883255,2.432661771774292 -2.3609120845794678,1.349810004234314 -4.505964756011963,0.5446334481239319 -6.682226181030273,0.08866450935602188 -8.870966911315918,0.022220918908715248 -11.053346633911133,0.35116714239120483 -13.210576057434082,1.0464434623718262 -15.324095726013184,2.0464000701904297 -17.375730514526367,3.261749267578125 -19.347848892211914,4.582744598388672 -21.223529815673828,5.8880133628845215 -22.986709594726562,7.05433988571167 -24.6223201751709,7.96662712097168 -26.116416931152344,8.527233123779297 -27.456321716308594,8.663949012756348 -28.630722045898438,8.335982322692871 -29.62976837158203,7.5374579429626465 -30.445173263549805,6.2981719970703125 -31.070270538330078,4.681519031524658 -31.50009536743164,2.7797741889953613 -31.731399536132812,0.7070810794830322 -31.762710571289062,-1.4092819690704346 -31.594318389892578,-3.4386801719665527 -31.228290557861328,-5.257163047790527 -30.668453216552734,-6.7569780349731445 -29.920339584350586,-7.854800701141357 -28.991165161132812,-8.498037338256836 -27.889745712280273,-8.668689727783203 -26.626420974731445,-8.384495735168457 -25.212974548339844,-7.697239398956299 -23.66252326965332,-6.688381195068359 -21.98938751220703,-5.4623494148254395 -20.208988189697266,-4.13803243637085 -18.337690353393555,-2.8391451835632324 -16.392667770385742,-1.6842410564422607 -14.39174747467041,-0.7771602272987366 -12.353248596191406,-0.1986752599477768 -10.295828819274902,0 -8.238306999206543,-0.1986752599477768 -6.199505805969238,-0.7771602272987366 -4.198079586029053,-1.6842410564422607 -2.252350330352783,-2.8391451835632324 -0.38014402985572815,-4.13803243637085 1.401365876197815,-5.4623494148254395 3.075812578201294,-6.688381195068359 4.627780914306641,-7.697239398956299 6.042941570281982,-8.384495735168457 7.308183670043945,-8.668689727783203 8.411725044250488,-8.498037338256836 9.343222618103027,-7.854800701141357 10.093857765197754,-6.7569780349731445 10.656421661376953,-5.257163047790527 11.025373458862305,-3.4386801719665527 11.196894645690918,-1.4092819690704346 11.168915748596191,0.7070810794830322 10.941141128540039,2.7797741889953613 10.51505184173584,4.681519031524658 9.893888473510742,6.2981719970703125 9.082620620727539,7.5374579429626465 8.087912559509277,8.335982322692871 6.918052673339844,8.663949012756348 5.582887649536133,8.527233123779297 4.0937323570251465,7.96662712097168 2.463268518447876,7.05433988571167 0.7054335474967957,5.8880133628845215 -1.1647032499313354,4.582744598388672 -3.131075382232666,3.261749267578125 -5.176760196685791,2.0464000701904297 -7.284130096435547,1.0464434623718262 -9.43501091003418,0.35116714239120483 -11.610837936401367,0.022220918908715248 -13.792826652526855,0.08866450935602188 -15.962136268615723,0.5446334481239319 -18.100034713745117,1.349810004234314 -20.18807029724121,2.432661771774292 -22.208236694335938,3.6961886882781982 -24.14311981201172,5.025725364685059 -25.97606658935547,6.2981719970703125 -27.691329956054688,7.391927242279053 -29.274202346801758,8.196727752685547 -30.711151123046875,8.62260913848877 -31.989938735961914,8.607285499572754 -33.099727630615234,8.121346473693848 -34.031185150146484,7.170862197875977 -34.776554107666016,5.797195911407471 -35.32973098754883,4.074016571044922 -35.686317443847656,2.101764678955078 -35.84365463256836,2.207878655293219e-13 -35.80085372924805,-2.101764678955078 -35.55881118774414,-4.074016571044922 -35.12016677856445,-5.797195911407471 -34.48933410644531,-7.170862197875977 -33.67240524291992,-8.121346473693848 -32.6771354675293,-8.607285499572754 -31.51286506652832,-8.62260913848877 -30.1904239654541,-8.196727752685547 -28.72205352783203,-7.391927242279053 -27.12127685546875,-6.2981719970703125 -25.402809143066406,-5.025725364685059 -23.58238983154297,-3.6961886882781982 -21.676677703857422,-2.432661771774292 -19.70307731628418,-1.349810004234314 -17.679597854614258,-0.5446334481239319 -15.62469482421875,-0.08866450935602188 -13.55709171295166,-0.022220918908715248 -11.495631217956543,-0.35116714239120483 -9.459096908569336,-1.0464434623718262 -7.466052055358887,-2.0464000701904297 -5.534669876098633,-3.261749267578125 -3.6825764179229736,-4.582744598388672 -1.9266935586929321,-5.8880133628845215 -0.2830865681171417,-7.05433988571167 1.2331764698028564,-7.96662712097168 2.608159303665161,-8.527233123779297 3.829180955886841,-8.663949012756348 4.884928226470947,-8.335982322692871 5.765555381774902,-7.5374579429626465 6.46277379989624,-6.2981719970703125 6.969924449920654,-4.681519031524658 7.282033920288086,-2.7797741889953613 7.395864009857178,-0.7070810794830322 7.309937000274658,1.4092819690704346 7.0245490074157715,3.4386801719665527 6.5417680740356445,5.257163047790527 5.865416526794434,6.7569780349731445 5.001034736633301,7.854800701141357 3.9558348655700684,8.498037338256836 2.738633871078491,8.668689727783203 1.3597780466079712,8.384495735168457 -0.16895072162151337,7.697239398956299 -1.8344389200210571,6.688381195068359 -3.6223576068878174,5.4623494148254395 -5.5172905921936035,4.13803243637085 -7.502867698669434,2.8391451835632324 -9.561917304992676,1.6842410564422607 -11.676609992980957,0.7771602272987366 -13.828624725341797,0.1986752599477768 -15.999303817749023,0 -18.169824600219727,0.1986752599477768 -20.321367263793945,0.7771602272987366 -22.435274124145508,1.6842410564422607 -24.493223190307617,2.8391451835632324 -26.477384567260742,4.13803243637085 -28.370588302612305,5.4623494148254395 -30.156463623046875,6.688381195068359 -31.819591522216797,7.697239398956299 -33.34564971923828,8.384495735168457 -34.72151565551758,8.668689727783203 -35.93541717529297,8.498037338256836 -36.97699737548828,7.854800701141357 -37.83745193481445,6.7569780349731445 -38.509559631347656,5.257163047790527 -38.9877815246582,3.4386801719665527 -39.26829528808594,1.4092819690704346 -39.349037170410156,-0.7070810794830322 -39.22970199584961,-2.7797741889953613 -38.911781311035156,-4.681519031524658 -38.398502349853516,-6.2981719970703125 -37.69483947753906,-7.5374579429626465 -36.80745315551758,-8.335982322692871 -35.74463653564453,-8.663949012756348 -34.516231536865234,-8.527233123779297 -33.133548736572266,-7.96662712097168 -31.609275817871094,-7.05433988571167 -29.95734214782715,-5.8880133628845215 -28.192821502685547,-4.582744598388672 -26.331777572631836,-3.261749267578125 -24.391130447387695,-2.0464000701904297 -22.388507843017578,-1.0464434623718262 -20.34208106994629,-0.35116714239120483 -18.270418167114258,-0.022220918908715248 -16.192298889160156,-0.08866450935602188 -14.126564979553223,-0.5446334481239319 -12.09194564819336,-1.349810004234314 -10.106890678405762,-2.432661771774292 -8.189410209655762,-3.6961886882781982 -6.3569135665893555,-5.025725364685059 -4.626051902770996,-6.2981719970703125 -3.0125744342803955,-7.391927242279053 -1.5311862230300903,-8.196727752685547 -0.19541871547698975,-8.62260913848877 0.9824910759925842,-8.607285499572754 1.991708755493164,-8.121346473693848 2.8228986263275146,-7.170862197875977 3.4683072566986084,-5.797195911407471 3.9218311309814453,-4.074016571044922 4.17907190322876,-2.101764678955078 4.237375736236572,-3.0911975453309926e-13 4.09585428237915,2.101764678955078 3.7553961277008057,4.074016571044922 3.218656539916992,5.797195911407471 2.490034818649292,7.170862197875977 1.5756350755691528,8.121346473693848 0.4832117557525635,8.607285499572754 -0.7778988480567932,8.62260913848877 -2.196861505508423,8.196727752685547 -3.7614378929138184,7.391927242279053 -5.458096504211426,6.2981719970703125 -7.272130489349365,5.025725364685059 -9.18779182434082,3.6961886882781982 -11.18842601776123,2.432661771774292 -13.256624221801758,1.349810004234314 -15.374375343322754,0.5446334481239319 -17.52322769165039,0.08866450935602188 -19.68445587158203,0.022220918908715248 -21.839210510253906,0.35116714239120483 -23.968713760375977,1.0464434623718262 -26.054397583007812,2.0464000701904297 -28.07809066772461,3.261749267578125 -30.022165298461914,4.582744598388672 -31.86969566345215,5.8880133628845215 -33.604618072509766,7.05433988571167 -35.21186447143555,7.96662712097168 -36.67749786376953,8.527233123779297 -37.988834381103516,8.663949012756348 -39.13455581665039,8.335982322692871 -40.104827880859375,7.5374579429626465 -40.89134979248047,6.2981719970703125 -41.487464904785156,4.681519031524658 -41.88820266723633,2.7797741889953613 -42.0903205871582,0.7070810794830322 -42.09233474731445,-1.4092819690704346 -41.89455032348633,-3.4386801719665527 -41.499027252197266,-5.257163047790527 -40.90959167480469,-6.7569780349731445 -40.13178253173828,-7.854800701141357 -39.17280960083008,-8.498037338256836 -38.04148864746094,-8.668689727783203 -36.748165130615234,-8.384495735168457 -35.304622650146484,-7.697239398956299 -33.723968505859375,-6.688381195068359 -32.020538330078125,-5.4623494148254395 -30.209741592407227,-4.13803243637085 -28.307947158813477,-2.8391451835632324 -26.33233070373535,-1.6842410564422607 -24.300716400146484,-0.7771602272987366 -22.231428146362305,-0.1986752599477768 -20.14312171936035,0 -18.05461311340332,-0.1986752599477768 -15.984731674194336,-0.7771602272987366 -13.952127456665039,-1.6842410564422607 -11.97512435913086,-2.8391451835632324 -10.07154655456543,-4.13803243637085 -8.25857162475586,-5.4623494148254395 -6.552563190460205,-6.688381195068359 -4.968938827514648,-7.697239398956299 -3.522026777267456,-8.384495735168457 -2.2249393463134766,-8.668689727783203 -1.0894581079483032,-8.498037338256836 -0.12592773139476776,-7.854800701141357 0.6568347811698914,-6.7569780349731445 1.2516189813613892,-5.257163047790527 1.6528841257095337,-3.4386801719665527 1.8568097352981567,-1.4092819690704346 1.8613282442092896,0.7070810794830322 1.6661440134048462,2.7797741889953613 1.2727357149124146,4.681519031524658 0.6843432188034058,6.2981719970703125 -0.09406093508005142,7.5374579429626465 -1.0558159351348877,8.335982322692871 -2.192631721496582,8.663949012756348 -3.4946627616882324,8.527233123779297 -4.950594902038574,7.96662712097168 -6.547745704650879,7.05433988571167 -8.27217960357666,5.8880133628845215 -10.108826637268066,4.582744598388672 -12.041620254516602,3.261749267578125 -14.053637504577637,2.0464000701904297 -16.127254486083984,1.0464434623718262 -18.244293212890625,0.35116714239120483 -20.386192321777344,0.022220918908715248 -22.53416633605957,0.08866450935602188 -24.669374465942383,0.5446334481239319 -26.773086547851562,1.349810004234314 -28.82685089111328,2.432661771774292 -30.81265640258789,3.6961886882781982 -32.713096618652344,5.025725364685059 -34.51151657104492,6.2981719970703125 -36.192169189453125,7.391927242279053 -37.7403450012207,8.196727752685547 -39.14251708984375,8.62260913848877 -40.38644027709961,8.607285499572754 -41.46128463745117,8.121346473693848 -42.35771179199219,7.170862197875977 -43.06797409057617,5.797195911407471 -43.58595657348633,4.074016571044922 -43.90727233886719,2.101764678955078 -44.02925109863281,3.9745162998434946e-13 -43.951019287109375,-2.101764678955078 -43.6734619140625,-4.074016571044922 -43.19922637939453,-5.797195911407471 -42.532711029052734,-7.170862197875977 -41.68002700805664,-8.121346473693848 -40.64892578125,-8.607285499572754 -39.4487419128418,-8.62260913848877 -38.09031295776367,-8.196727752685547 -36.58586883544922,-7.391927242279053 -34.94894790649414,-6.2981719970703125 -33.19425582885742,-5.025725364685059 -31.33753776550293,-3.6961886882781982 -29.395448684692383,-2.432661771774292 -27.385395050048828,-1.349810004234314 -25.325387954711914,-0.5446334481239319 -23.233877182006836,-0.08866450935602188 -21.129594802856445,-0.022220918908715248 -19.03137969970703,-0.35116714239120483 -16.958017349243164,-1.0464434623718262 -14.928070068359375,-2.0464000701904297 -12.959711074829102,-3.261749267578125 -11.070569038391113,-4.582744598388672 -9.277562141418457,-5.8880133628845215 -7.5967607498168945,-7.05433988571167 -6.043229579925537,-7.96662712097168 -4.630908012390137,-8.527233123779297 -3.3724756240844727,-8.663949012756348 -2.2792470455169678,-8.335982322692871 -1.3610671758651733,-7.5374579429626465 -0.6262255907058716,-6.2981719970703125 -0.08138283342123032,-4.681519031524658 0.26848921179771423,-2.7797741889953613 0.4201509654521942,-0.7070810794830322 0.3721241354942322,1.4092819690704346 0.12470488995313644,3.4386801719665527 -0.32003888487815857,5.257163047790527 -0.9582860469818115,6.7569780349731445 -1.7844955921173096,7.854800701141357 -2.791456699371338,8.498037338256836 -3.9703521728515625,8.668689727783203 -5.310835838317871,8.384495735168457 -6.8011274337768555,7.697239398956299 -8.428112030029297,6.688381195068359 -10.177462577819824,5.4623494148254395 -12.03376293182373,4.13803243637085 -13.980643272399902,2.8391451835632324 -16.000930786132812,1.6842410564422607 -18.076799392700195,0.7771602272987366 -20.189926147460938,0.1986752599477768 -22.3216552734375,0 -24.453163146972656,0.1986752599477768 -26.565629959106445,0.7771602272987366 -28.640399932861328,1.6842410564422607 -30.659151077270508,2.8391451835632324 -32.60405731201172,4.13803243637085 -34.45793914794922,5.4623494148254395 -36.20443344116211,6.688381195068359 -37.828125,7.697239398956299 -39.3146858215332,8.384495735168457 -40.65099334716797,8.668689727783203 -41.82527542114258,8.498037338256836 -42.827186584472656,7.854800701141357 -43.64790725708008,6.7569780349731445 -44.28022384643555,5.257163047790527 -44.71860122680664,3.4386801719665527 -44.95921325683594,1.4092819690704346 -44.999996185302734,-0.7070810794830322 -44.84064865112305,-2.7797741889953613 -44.48265838623047,-4.681519031524658 -43.92924880981445,-6.2981719970703125 -43.1854133605957,-7.5374579429626465 -42.25779342651367,-8.335982322692871 -41.154685974121094,-8.663949012756348 -39.88594055175781,-8.527233123779297 -38.462867736816406,-7.96662712097168 -36.89814758300781,-7.05433988571167 -35.20571517944336,-5.8880133628845215 -33.40064239501953,-4.582744598388672 -31.49899673461914,-3.261749267578125 -29.517698287963867,-2.0464000701904297 -27.4743709564209,-1.0464434623718262 -25.387191772460938,-0.35116714239120483 -23.27472496032715,-0.022220918908715248 -21.15575408935547,-0.08866450935602188 -19.049116134643555,-0.5446334481239319 -16.973546981811523,-1.349810004234314 -14.947494506835938,-2.432661771774292 -12.988967895507812,-3.6961886882781982 -11.115377426147461,-5.025725364685059 -9.343376159667969,-6.2981719970703125 -7.688711166381836,-7.391927242279053 -6.1660895347595215,-8.196727752685547 -4.789042949676514,-8.62260913848877 -3.5698089599609375,-8.607285499572754 -2.5192220211029053,-8.121346473693848 -1.646618127822876,-7.170862197875977 -0.9597517251968384,-5.797195911407471 -0.46472612023353577,-4.074016571044922 -0.1659402698278427,-2.101764678955078 -0.06604910641908646,-4.857835054355997e-13"
  />
</svg>
