<?xml version="1.0" encoding="UTF-8"?>
<!DOCTYPE svg>
<svg
  data-animation-duration="3s"
  viewBox="-50 -50 100 100"
>
  <title>
    ANIMATION 31 - VARIATION G
  </title>
  <desc>
    <p>See this animation in action here: <a href="https://andrew.wang-hoyer.com/experiments/svg-animations/31/g" target="_blank" rel="noopener">https://andrew.wang-hoyer.com/experiments/svg-animations/31/g</a>.</p>
    <p>Generator source code : <a href="https://github.com/ndrwhr/svg-animation-src/tree/master/site/_svgs/generators/animations/31/g.js" target="_blank" rel="noopener">https://github.com/ndrwhr/svg-animation-src/tree/master/site/_svgs/generators/animations/31/g.js</a>.</p>
    <p>All generated files and source code are released under the following license:</p>
    <p>MIT License</p>
    <p>Copyright (c) 2018-present Andrew Hoyer</p>
    <p>Permission is hereby granted, free of charge, to any person obtaining a copy of this software and associated documentation files (the &quot;Software&quot;), to deal in the Software without restriction, including without limitation the rights to use, copy, modify, merge, publish, distribute, sublicense, and/or sell copies of the Software, and to permit persons to whom the Software is furnished to do so, subject to the following conditions:</p>
    <p>The above copyright notice and this permission notice shall be included in all copies or substantial portions of the Software.</p>
    <p>THE SOFTWARE IS PROVIDED &quot;AS IS&quot;, WITHOUT WARRANTY OF ANY KIND, EXPRESS OR IMPLIED, INCLUDING BUT NOT LIMITED TO THE WARRANTIES OF MERCHANTABILITY, FITNESS FOR A PARTICULAR PURPOSE AND NONINFRINGEMENT. IN NO EVENT SHALL THE AUTHORS OR COPYRIGHT HOLDERS BE LIABLE FOR ANY CLAIM, DAMAGES OR OTHER LIABILITY, WHETHER IN AN ACTION OF CONTRACT, TORT OR OTHERWISE, ARISING FROM, OUT OF OR IN CONNECTION WITH THE SOFTWARE OR THE USE OR OTHER DEALINGS IN THE SOFTWARE.</p>
  </desc>
  <style>
    /* <![CDATA[ */
      .svg-31-g-polyline {
        stroke: black;
        stroke-width: .1;
        fill: none;
        stroke-dasharray: 4%, 4%, 1%, 1%;
        animation: svg-31-g-main-anim 3s linear infinite;
      }
      
      @keyframes svg-31-g-main-anim {
        from {
          stroke-dashoffset: 0;
        }
      
        to {
          stroke-dashoffset: 10%;
        }
      }
      
    /* ]]> */
  </style>
  <polyline
    class="svg-31-g-polyline"
    points="0,-0.8872858285903931 0.21114182472229004,-0.9658010005950928 0.43129289150238037,-1.2006839513778687 0.6693596839904785,-1.5899633169174194 0.9340440630912781,-2.1303656101226807 1.233743667602539,-2.8173511028289795 1.576454758644104,-3.6451454162597656 1.9696794748306274,-4.606793403625488 2.4203360080718994,-5.694214344024658 2.934678792953491,-6.898271560668945 3.5182178020477295,-8.20884895324707 4.175653457641602,-9.614936828613281 4.910811901092529,-11.104723930358887 5.72659158706665,-12.665691375732422 6.624923229217529,-14.284729957580566 7.606728553771973,-15.948236465454102 8.671899795532227,-17.642236709594727 9.819280624389648,-19.35249900817871 11.046664237976074,-21.06464958190918 12.350798606872559,-22.76429557800293 13.727395057678223,-24.43714714050293 15.171163558959961,-26.069129943847656 16.67584228515625,-27.646503448486328 18.234241485595703,-29.155973434448242 19.838300704956055,-30.58480453491211 21.47915267944336,-31.920915603637695 23.147192001342773,-33.15298843383789 24.832157135009766,-34.270545959472656 26.523210525512695,-35.2640495300293 28.20903778076172,-36.12495803833008 29.877944946289062,-36.8458137512207 31.51795768737793,-37.4202766418457 33.11692810058594,-37.84319305419922 34.662635803222656,-38.110618591308594 36.142921447753906,-38.219844818115234 37.545772552490234,-38.16942596435547 38.85944747924805,-37.95915985107422 40.07257843017578,-37.59010696411133 41.17428207397461,-37.06456756591797 42.15427017211914,-36.38603591918945 43.0029411315918,-35.55918884277344 43.71147537231445,-34.58980941772461 44.27191925048828,-33.4847526550293 44.67728042602539,-32.251869201660156 44.92159652709961,-30.89992904663086 45,-29.438541412353516 44.90877151489258,-27.878070831298828 44.645389556884766,-26.229528427124023 44.20857620239258,-24.50447654724121 43.598323822021484,-22.714941024780273 42.815887451171875,-20.87327003479004 41.86383056640625,-18.992048263549805 40.74598693847656,-17.0839786529541 39.46746063232422,-15.161770820617676 38.03460693359375,-13.238019943237305 36.45496368408203,-11.32511043548584 34.737239837646484,-9.435099601745605 32.8912353515625,-7.579617977142334 30.927783966064453,-5.7697625160217285 28.858665466308594,-4.016014099121094 26.696533203125,-2.3281400203704834 24.45481300354004,-0.7151181101799011 22.14760971069336,0.8149383068084717 19.789592742919922,2.2548465728759766 17.395891189575195,3.5984063148498535 14.981975555419922,4.840451240539551 12.563544273376465,5.97688102722168 10.156391143798828,7.0046916007995605 7.776292324066162,7.921991348266602 5.438880443572998,8.72800350189209 3.159520387649536,9.423067092895508 0.9531901478767395,10.008618354797363 -1.1656361818313599,10.487165451049805 -3.1831042766571045,10.86225700378418 -5.086087703704834,11.138433456420898 -6.862292289733887,11.321174621582031 -8.500351905822754,11.416839599609375 -9.989920616149902,11.432594299316406 -11.321749687194824,11.376330375671387 -12.487765312194824,11.256587982177734 -13.481127738952637,11.082454681396484 -14.296287536621094,10.863483428955078 -14.92902660369873,10.609580993652344 -15.37648868560791,10.330909729003906 -15.637201309204102,10.03778076171875 -15.71108627319336,9.740553855895996 -15.599456787109375,9.449519157409668 -15.305001258850098,9.174800872802734 -14.831765174865723,8.926248550415039 -14.185107231140137,8.713335990905762 -13.371661186218262,8.545061111450195 -12.399272918701172,8.429856300354004 -11.276938438415527,8.375496864318848 -10.014725685119629,8.389019966125488 -8.623689651489258,8.476649284362793 -7.115782260894775,8.643728256225586 -5.5037522315979,8.894659996032715 -3.801038980484009,9.232854843139648 -2.0216634273529053,9.660696983337402 -0.18011055886745453,10.17950439453125 1.7087873220443726,10.789512634277344 3.629972219467163,11.48986530303955 5.5682830810546875,12.278611183166504 7.5085768699646,13.152711868286133 9.435853958129883,14.108068466186523 11.335372924804688,15.139549255371094 13.19277286529541,16.241025924682617 14.994182586669922,17.40543556213379 16.726333618164062,18.624828338623047 18.37666130065918,19.89044189453125 19.933399200439453,21.192771911621094 21.38566780090332,22.521669387817383 22.723567962646484,23.866409301757812 23.938230514526367,25.215808868408203 25.021902084350586,26.558317184448242 25.96798324584961,27.882118225097656 26.77107810974121,29.175249099731445 27.427026748657227,30.425703048706055 27.932924270629883,31.621545791625977 28.28713035583496,32.75102233886719 28.489276885986328,33.80267333984375 28.54024314880371,34.765445709228516 28.442148208618164,35.62880325317383 28.19830894470215,36.382808685302734 27.81319808959961,37.01823806762695 27.292396545410156,37.52669143676758 26.642520904541016,37.900634765625 25.871173858642578,38.13352584838867 24.98683738708496,38.219844818115234 23.998807907104492,38.15519332885742 22.917095184326172,37.936302185058594 21.75232696533203,37.561134338378906 20.51564598083496,37.02885437011719 19.218599319458008,36.33990478515625 17.87303924560547,35.4959831237793 16.49099349975586,34.500057220458984 15.084577560424805,33.35634231567383 13.665860176086426,32.07030487060547 12.24676513671875,30.648601531982422 10.838961601257324,29.09906005859375 9.453754425048828,27.43061065673828 8.101985931396484,25.65322494506836 6.793941497802734,23.777856826782227 5.539253234863281,21.81635093688965 4.346820831298828,19.781352996826172 3.2247345447540283,17.686214447021484 2.1802053451538086,15.544903755187988 1.2195069789886475,13.371871948242188 0.3479236662387848,11.181963920593262 -0.4302891194820404,8.990288734436035 -1.1119368076324463,6.81210470199585 -1.694906234741211,4.662693977355957 -2.178175926208496,2.5572450160980225 -2.5618159770965576,0.5107285380363464 -2.8469784259796143,-1.4622228145599365 -3.0358755588531494,-3.3474318981170654 -3.1317503452301025,-5.131294250488281 -3.1388354301452637,-6.8008856773376465 -3.0623035430908203,-8.34406566619873 -2.9082088470458984,-9.749585151672363 -2.683420419692993,-11.007165908813477 -2.3955471515655518,-12.107593536376953 -2.052856683731079,-13.042787551879883 -1.664188027381897,-13.805874824523926 -1.2388577461242676,-14.3912353515625 -0.7865633964538574,-14.794556617736816 -0.31728190183639526,-15.012866973876953 0.1588338017463684,-15.044557571411133 0.6315602660179138,-14.889396667480469 1.0907090902328491,-14.548535346984863 1.526233434677124,-14.024492263793945 1.9283311367034912,-13.321136474609375 2.2875473499298096,-12.443652153015137 2.5948739051818848,-11.398504257202148 2.841841697692871,-10.193377494812012 3.0206139087677,-8.837112426757812 3.124065637588501,-7.339639663696289 3.1458635330200195,-5.711896896362305 3.0805342197418213,-3.9657375812530518 2.923525333404541,-2.113832950592041 2.6712594032287598,-0.16957342624664307 2.321176528930664,1.853042483329773 1.8717687129974365,3.939523220062256 1.3226033449172974,6.074997901916504 0.6743373870849609,8.244338035583496 -0.071278877556324,10.432279586791992 -0.9114096164703369,12.623542785644531 -1.842150330543518,14.802956581115723 -2.858555316925049,16.955577850341797 -3.9546756744384766,19.066808700561523 -5.123607158660889,21.122514724731445 -6.357544898986816,23.109121322631836 -7.647850513458252,25.013736724853516 -8.985127449035645,26.824247360229492 -10.359298706054688,28.529388427734375 -11.759697914123535,30.118858337402344 -13.175162315368652,31.583364486694336 -14.594132423400879,32.914710998535156 -16.0047607421875,34.10585021972656 -17.395009994506836,35.15091323852539 -18.752769470214844,36.04526901245117 -20.06597137451172,36.7855224609375 -21.32269287109375,37.36956024169922 -22.51127052307129,37.79652786254883 -23.62041664123535,38.066829681396484 -24.63932228088379,38.1821174621582 -25.557758331298828,38.14524841308594 -26.366180419921875,37.96024703979492 -27.055824279785156,37.632266998291016 -27.61878776550293,37.16752624511719 -28.048118591308594,36.5732307434082 -28.337881088256836,35.857505798339844 -28.483226776123047,35.029319763183594 -28.480451583862305,34.09836959838867 -28.3270320892334,33.075008392333984 -28.021669387817383,31.970130920410156 -27.56432342529297,30.79507827758789 -26.956201553344727,29.5615177154541 -26.199792861938477,28.28133773803711 -25.298839569091797,26.966535568237305 -24.258333206176758,25.629100799560547 -23.084470748901367,24.280912399291992 -21.784631729125977,22.93362045288086 -20.36731719970703,21.59855079650879 -18.84209632873535,20.28658676147461 -17.219526290893555,19.008081436157227 -15.511091232299805,17.772768020629883 -13.729100227355957,16.589664459228516 -11.886600494384766,15.467000007629395 -9.997272491455078,14.412144660949707 -8.075328826904297,13.431543350219727 -6.135398864746094,12.530667304992676 -4.192409992218018,11.71396541595459 -2.2614715099334717,10.984832763671875 -0.357753723859787,10.345584869384766 1.5036360025405884,9.79744815826416 3.3077752590179443,9.34054946899414 5.040048599243164,8.973931312561035 6.686265468597412,8.695564270019531 8.232779502868652,8.5023775100708 9.666597366333008,8.390292167663574 10.975489616394043,8.354276657104492 12.148088455200195,8.38839340209961 13.173985481262207,8.485869407653809 14.043818473815918,8.639169692993164 14.749346733093262,8.840070724487305 15.283524513244629,9.079754829406738 15.640562057495117,9.348897933959961 15.815967559814453,9.637763977050781 15.806594848632812,9.936312675476074 15.610668182373047,10.234294891357422 15.227797508239746,10.521366119384766 14.6589937210083,10.787187576293945 13.906646728515625,11.021535873413086 12.974522590637207,11.214408874511719 11.867730140686035,11.356125831604004 10.592679977416992,11.437432289123535 9.1570405960083,11.44959831237793 7.569672107696533,11.384506225585938 5.840561866760254,11.23473834991455 3.9807424545288086,10.993661880493164 2.002206325531006,10.655495643615723 -0.08218846470117569,10.21537971496582 -2.258821725845337,9.669431686401367 -4.513415813446045,9.014790534973145 -6.831151962280273,8.249661445617676 -9.196783065795898,7.3733367919921875 -11.59475326538086,6.386221408843994 -14.00932788848877,5.289835453033447 -16.42470359802246,4.086813449859619 -18.825143814086914,2.7808923721313477 -21.195091247558594,1.3768874406814575 -23.5192928314209,-0.11934217065572739 -25.782913208007812,-1.7009339332580566 -27.971654891967773,-3.360079288482666 -30.071855545043945,-5.088080883026123 -32.07059860229492,-6.875426292419434 -33.95580291748047,-8.711864471435547 -35.7163200378418,-10.586494445800781 -37.34199523925781,-12.487852096557617 -38.82375717163086,-14.404011726379395 -40.15367126464844,-16.322689056396484 -41.324989318847656,-18.231346130371094 -42.33218765258789,-20.117298126220703 -43.17101287841797,-21.96783447265625 -43.83848190307617,-23.77031898498535 -44.33290100097656,-25.51230239868164 -44.653865814208984,-27.181655883789062 -44.802242279052734,-28.766645431518555 -44.78013610839844,-30.256065368652344 -44.590877532958984,-31.639328002929688 -44.23896408081055,-32.90656661987305 -43.730003356933594,-34.04872131347656 -43.070655822753906,-35.05762481689453 -42.26856994628906,-35.92609405517578 -41.332279205322266,-36.647972106933594 -40.27114486694336,-37.21821975708008 -39.09524154663086,-37.63294219970703 -37.81527328491211,-37.88943862915039 -36.44245147705078,-37.98624038696289 -34.9884147644043,-37.92313003540039 -33.4650993347168,-37.701133728027344 -31.8846378326416,-37.32255172729492 -30.259239196777344,-36.79092025756836 -28.601091384887695,-36.11099624633789 -26.9222412109375,-35.28873062133789 -25.234495162963867,-34.33122253417969 -23.54930877685547,-33.24665451049805 -21.877685546875,-32.044254302978516 -20.230098724365234,-30.734195709228516 -18.61638069152832,-29.327524185180664 -17.045656204223633,-27.83608627319336 -15.526267051696777,-26.27242088317871 -14.065703392028809,-24.649641036987305 -12.670541763305664,-22.981359481811523 -11.346405029296875,-21.281558990478516 -10.097922325134277,-19.56447410583496 -8.928692817687988,-17.844482421875 -7.841278553009033,-16.1359806060791 -6.837186813354492,-14.453265190124512 -5.916876316070557,-12.810416221618652 -5.07976770401001,-11.22117805480957 -4.324265956878662,-9.698843955993652 -3.6477930545806885,-8.256147384643555 -3.0468273162841797,-6.905147075653076 -2.516956329345703,-5.65714168548584 -2.0529332160949707,-4.522560119628906 -1.6487458944320679,-3.5108790397644043 -1.297689437866211,-2.6305453777313232 -0.9924480319023132,-1.8889033794403076 -0.7251813411712646,-1.2921326160430908 -0.4876159131526947,-0.8451954126358032 -0.2711411714553833,-0.5517972707748413 -0.06690830737352371,-0.41435348987579346 0.13406841456890106,-0.4339686632156372 0.3408091962337494,-0.6104305982589722 0.562265932559967,-0.9422081708908081 0.8072197437286377,-1.4264671802520752 1.0841805934906006,-2.0590922832489014 1.4012893438339233,-2.8347227573394775 1.7662228345870972,-3.7467994689941406 2.1861047744750977,-4.787614822387695 2.667419195175171,-5.948384761810303 3.2159342765808105,-7.219318389892578 3.836627960205078,-8.58969783782959 4.53362512588501,-10.047978401184082 5.310141086578369,-11.581872940063477 6.1684346199035645,-13.178462028503418 7.109767913818359,-14.824304580688477 8.134381294250488,-16.50554656982422 9.241472244262695,-18.208030700683594 10.429184913635254,-19.91742706298828 11.694616317749023,-21.619348526000977 13.033825874328613,-23.29945945739746 14.441856384277344,-24.943605422973633 15.912766456604004,-26.53793716430664 17.43967628479004,-28.06900405883789 19.014808654785156,-29.523880004882812 20.629566192626953,-30.890260696411133 22.274581909179688,-32.15657043457031 23.939807891845703,-33.31205368041992 25.614593505859375,-34.34685134887695 27.287778854370117,-35.252098083496094 28.947790145874023,-36.01996612548828 30.58273696899414,-36.64374923706055 32.18052291870117,-37.1179084777832 33.72895050048828,-37.438079833984375 35.215824127197266,-37.60116958618164 36.62908172607422,-37.60530090332031 37.956886291503906,-37.44987487792969 39.18773651123047,-37.13554000854492 40.310585021972656,-36.664188385009766 41.314937591552734,-36.03892135620117 42.19096374511719,-35.264041900634766 42.929569244384766,-34.344974517822266 43.522525787353516,-33.288230895996094 43.96250915527344,-32.101341247558594 44.243221282958984,-30.792787551879883 44.35942459106445,-29.371915817260742 44.3070182800293,-27.848852157592773 44.08308792114258,-26.23440933227539 43.685951232910156,-24.53998374938965 43.115169525146484,-22.777462005615234 42.37160110473633,-20.9591064453125 41.457374572753906,-19.097442626953125 40.375911712646484,-17.20514678955078 39.13190460205078,-15.294943809509277 37.73130798339844,-13.379485130310059 36.181278228759766,-11.471245765686035 34.49014663696289,-9.582403182983398 32.66737365722656,-7.72474479675293 30.723461151123047,-5.9095659255981445 28.669897079467773,-4.14756441116333 26.519065856933594,-2.4487576484680176 24.284156799316406,-0.8223980665206909 21.979068756103516,0.7231020927429199 19.61830711364746,2.180238723754883 17.216873168945312,3.542477607727051 14.79015064239502,4.8042988777160645 12.35378360748291,5.961242198944092 9.923562049865723,7.009933948516846 7.515292167663574,7.948108196258545 5.144682884216309,8.774616241455078 2.827212333679199,9.489423751831055 0.5780150294303894,10.093603134155273 -1.5882419347763062,10.589308738708496 -3.6574721336364746,10.979744911193848 -5.616281986236572,11.269128799438477 -7.452075004577637,11.46263313293457 -9.153152465820312,11.56633186340332 -10.708805084228516,11.58713150024414 -12.109396934509277,11.53269100189209 -13.346442222595215,11.411345481872559 -14.412667274475098,11.232015609741211 -15.302078247070312,11.004108428955078 -16.00998878479004,10.737428665161133 -16.533077239990234,10.442066192626953 -16.869394302368164,10.12829875946045 -17.01837921142578,9.806486129760742 -16.980871200561523,9.486954689025879 -16.75908851623535,9.179902076721191 -16.356611251831055,8.895284652709961 -15.778355598449707,8.642716407775879 -15.030517578125,8.431370735168457 -14.12053394317627,8.26988410949707 -13.057011604309082,8.166266441345215 -11.849655151367188,8.127817153930664 -10.509186744689941,8.161043167114258 -9.047256469726562,8.271596908569336 -7.476345539093018,8.464205741882324 -5.809661388397217,8.742627143859863 -4.061029434204102,9.109598159790039 -2.244779586791992,9.566802024841309 -0.3756285309791565,10.114849090576172 1.53144109249115,10.753253936767578 3.4613022804260254,11.480440139770508 5.398805618286133,12.29373836517334 7.328902721405029,13.189413070678711 9.23676586151123,14.16268253326416 11.107908248901367,15.207756042480469 12.928296089172363,16.317888259887695 14.684459686279297,17.485429763793945 16.36359977722168,18.701889038085938 17.953685760498047,19.95802116394043 19.44355010986328,21.243886947631836 20.82296371459961,22.548961639404297 22.082721710205078,23.862213134765625 23.214702606201172,25.17222023010254 24.211925506591797,26.467256546020508 25.068605422973633,27.735408782958984 25.780174255371094,28.96468734741211 26.34331703186035,30.143136978149414 26.755983352661133,31.258949279785156 27.017391204833984,32.300567626953125 27.128015518188477,33.25680923461914 27.089574813842773,34.116966247558594 26.904996871948242,34.870906829833984 26.578386306762695,35.50918960571289 26.114965438842773,36.02313232421875 25.521026611328125,36.40493392944336 24.80385398864746,36.64772033691406 23.971656799316406,36.745643615722656 23.033475875854492,36.693946838378906 21.999099731445312,36.48899841308594 20.87896728515625,36.12836837768555 19.684064865112305,35.61083984375 18.42582893371582,34.93643569946289 17.116016387939453,34.10646438598633 15.766621589660645,33.12348556518555 14.38974666595459,31.9913272857666 12.997488021850586,30.715057373046875 11.601836204528809,29.300966262817383 10.214558601379395,27.756513595581055 8.847094535827637,26.090290069580078 7.510456085205078,24.311952590942383 6.215122222900391,22.432157516479492 4.970954895019531,20.462482452392578 3.787106990814209,18.415340423583984 2.6719465255737305,16.30388069152832 1.632983922958374,14.141899108886719 0.6768099665641785,11.943720817565918 -0.19095776975154877,9.72409725189209 -0.9657192230224609,7.498084545135498 -1.6439262628555298,5.280926704406738 -2.223106861114502,3.087934970855713 -2.701878786087036,0.9343672394752502 -3.079953193664551,-1.1646984815597534 -3.358128786087036,-3.194478750228882 -3.5382721424102783,-5.140609264373779 -3.623293161392212,-6.9892578125 -3.617105722427368,-8.727238655090332 -3.524583101272583,-10.342116355895996 -3.3515000343322754,-11.822310447692871 -3.1044700145721436,-13.157183647155762 -2.790872812271118,-14.337137222290039 -2.418775796890259,-15.353680610656738 -1.99684739112854,-16.199508666992188 -1.5342658758163452,-16.868555068969727 -1.0406243801116943,-17.35604476928711 -0.5258296728134155,-17.658533096313477 -1.0290053551809727e-14,-17.773927688598633 0.5266400575637817,-17.701519012451172 1.0438652038574219,-17.441972732543945 1.5415557622909546,-16.997333526611328 2.0098018646240234,-16.371000289916992 2.4390065670013428,-15.567699432373047 2.819985866546631,-14.593454360961914 3.1440653800964355,-13.455526351928711 3.403170108795166,-12.16235637664795 3.589911937713623,-10.723502159118652 3.697666883468628,-9.149554252624512 3.7206497192382812,-7.452048301696777 3.653975248336792,-5.643373966217041 3.49371600151062,-3.7366762161254883 3.2369484901428223,-1.745741367340088 2.8817896842956543,0.31510916352272034 2.4274253845214844,2.431135892868042 1.8741264343261719,4.5873026847839355 1.2232563495635986,6.768394947052002 0.4772673547267914,8.959141731262207 -0.3603129982948303,11.144341468811035 -1.2849066257476807,13.308977127075195 -2.2909188270568848,15.438339233398438 -3.3717827796936035,17.51814079284668 -4.520012855529785,19.534629821777344 -5.727267265319824,21.474689483642578 -6.984418869018555,23.325944900512695 -8.281636238098145,25.076860427856445 -9.608465194702148,26.716812133789062 -10.953927040100098,28.236181259155273 -12.306612968444824,29.626413345336914 -13.654784202575684,30.880077362060547 -14.98648738861084,31.990924835205078 -16.28965187072754,32.953914642333984 -17.552215576171875,33.76525115966797 -18.762222290039062,34.42240524291992 -19.907941818237305,34.92410659790039 -20.977981567382812,35.270355224609375 -21.961389541625977,35.4623908996582 -22.847768783569336,35.502685546875 -23.627365112304688,35.39488220214844 -24.291175842285156,35.143775939941406 -24.831037521362305,34.75524139404297 -25.239702224731445,34.23616027832031 -25.51092529296875,33.5943717956543 -25.6395206451416,32.83856964111328 -25.621429443359375,31.978225708007812 -25.453767776489258,31.023488998413086 -25.134859085083008,29.985078811645508 -24.664270401000977,28.87420654296875 -24.042837142944336,27.702436447143555 -23.272645950317383,26.481597900390625 -22.357065200805664,25.22365951538086 -21.300703048706055,23.940624237060547 -20.109397888183594,22.644418716430664 -18.79017448425293,21.346771240234375 -17.351200103759766,20.059125900268555 -15.801729202270508,18.792518615722656 -14.1520357131958,17.557483673095703 -12.41334056854248,16.36396026611328 -10.597722053527832,15.221203804016113 -8.718026161193848,14.13770866394043 -6.7877726554870605,13.121127128601074 -4.821043491363525,12.178208351135254 -2.832376480102539,11.314741134643555 -0.8366476893424988,10.535505294799805 1.1510446071624756,9.844240188598633 3.115501880645752,9.24360466003418 5.0415472984313965,8.735175132751465 6.914148807525635,8.319430351257324 8.71854019165039,7.995753765106201 10.440342903137207,7.762453556060791 12.065680503845215,7.61678409576416 13.58129596710205,7.5549774169921875 14.974661827087402,7.572293281555176 16.23407745361328,7.663068771362305 17.348772048950195,7.820780277252197 18.30899429321289,8.038114547729492 19.1060848236084,8.30704402923584 19.732566833496094,8.618916511535645 20.182188034057617,8.964539527893066 20.449989318847656,9.33427619934082 20.5323429107666,9.718151092529297 20.426982879638672,10.10594654083252 20.133028030395508,10.487306594848633 19.650991439819336,10.851851463317871 18.98277473449707,11.189277648925781 18.13166046142578,11.489463806152344 17.102285385131836,11.742582321166992 15.900606155395508,11.939192771911621 14.53384780883789,12.07034683227539 13.010457992553711,12.127677917480469 11.340028762817383,12.103490829467773 9.53322982788086,11.990850448608398 7.601719856262207,11.783644676208496 5.5580549240112305,11.476667404174805 3.4155914783477783,11.06566333770752 1.1883766651153564,10.54738998413086 -1.10895836353302,9.91965389251709 -3.4613165855407715,9.181346893310547 -5.853253364562988,8.332457542419434 -8.269096374511719,7.3740949630737305 -10.693071365356445,6.308483600616455 -13.10942268371582,5.138952255249023 -15.502535820007324,3.8699185848236084 -17.857059478759766,2.506855010986328 -20.15802001953125,1.0562520027160645 -22.390945434570312,-0.4744347929954529 -24.541959762573242,-2.0768415927886963 -26.597902297973633,-3.741762161254883 -28.54641342163086,-5.459228992462158 -30.37603187561035,-7.218591213226318 -32.07627487182617,-9.008609771728516 -33.63771057128906,-10.817546844482422 -35.05202865600586,-12.63327407836914 -36.31208038330078,-14.443371772766113 -37.41194534301758,-16.23523712158203 -38.34694290161133,-17.99620819091797 -39.113670349121094,-19.713653564453125 -39.71000289916992,-21.375106811523438 -40.13511276245117,-22.96835708618164 -40.389434814453125,-24.481582641601562 -40.47468185424805,-25.903432846069336 -40.393768310546875,-27.223159790039062 -40.15080261230469,-28.430688858032227 -39.75102615356445,-29.51673126220703 -39.20075607299805,-30.472867965698242 -38.50730895996094,-31.2916259765625 -37.67892837524414,-31.9665470123291 -36.72469711303711,-32.49226379394531 -35.654457092285156,-32.864540100097656 -34.47869873046875,-33.08032989501953 -33.208473205566406,-33.13779830932617 -31.855270385742188,-33.03635787963867 -30.430925369262695,-32.77666473388672 -28.947498321533203,-32.36065673828125 -27.41717529296875,-31.791492462158203 -25.852144241333008,-31.073583602905273 -24.26449203491211,-30.212539672851562 -22.666099548339844,-29.215120315551758 -21.068525314331055,-28.089210510253906 -19.4829158782959,-26.843740463256836 -17.91990852355957,-25.488624572753906 -16.3895320892334,-24.03467559814453 -14.90113639831543,-22.4935359954834 -13.463301658630371,-20.877559661865234 -12.083779335021973,-19.19973373413086 -10.769430160522461,-17.47356414794922 -9.526169776916504,-15.712963104248047 -8.358932495117188,-13.93213939666748 -7.27163028717041,-12.14548397064209 -6.267141342163086,-10.367438316345215 -5.347289085388184,-8.612395286560059 -4.512847423553467,-6.894557476043701 -3.7635443210601807,-5.22783899307251 -3.098083972930908,-3.625736951828003 -2.5141735076904297,-2.1012215614318848 -2.008561849594116,-0.6666311025619507 -1.577087163925171,0.6664336323738098 -1.2147328853607178,1.8872071504592896 -0.915692150592804,2.985844850540161 -0.6734393835067749,3.9535133838653564 -0.48080942034721375,4.78245735168457 -0.3300819396972656,5.466067314147949 -0.21307183802127838,5.998935699462891 -0.12122348695993423,6.3769001960754395 -0.045708976686000824,6.597081184387207 0.022471429780125618,6.657902717590332 0.09238699078559875,6.559106826782227 0.1730736494064331,6.301757335662842 0.2734314203262329,5.88822603225708 0.4021233022212982,5.322177886962891 0.5674759745597839,4.6085357666015625 0.777384340763092,3.7534396648406982 1.039219617843628,2.7641961574554443 1.3597431182861328,1.6492149829864502 1.74502432346344,0.4179379940032959 2.2003681659698486,-0.9192382097244263 2.7302467823028564,-2.351053476333618 3.3382418155670166,-3.8654770851135254 4.026992321014404,-5.449806213378906 4.798155307769775,-7.090775966644287 5.652372360229492,-8.774675369262695 6.589249134063721,-10.487445831298828 7.6073408126831055,-12.214818954467773 8.704153060913086,-13.942420959472656 9.876150131225586,-15.655899047851562 11.118768692016602,-17.341033935546875 12.426456451416016,-18.983871459960938 13.792698860168457,-20.570816040039062 15.210077285766602,-22.08876609802246 16.67032241821289,-23.525197982788086 18.164371490478516,-24.86829376220703 19.682466506958008,-26.10700035095215 21.21420669555664,-27.23116683959961 22.7486515045166,-28.2315731048584 24.2744197845459,-29.100046157836914 25.779781341552734,-29.829492568969727 27.252756118774414,-30.413969039916992 28.681230545043945,-30.848718643188477 30.05306625366211,-31.13020133972168 31.356203079223633,-31.256132125854492 32.57877731323242,-31.2254695892334 33.709228515625,-31.038440704345703 34.73640823364258,-30.696500778198242 35.649696350097656,-30.202350616455078 36.4390869140625,-29.55986785888672 37.09529113769531,-28.774093627929688 37.6098518371582,-27.851167678833008 37.97518539428711,-26.798267364501953 38.184715270996094,-25.6235408782959 38.2328987121582,-24.336030960083008 38.11531448364258,-22.945587158203125 37.82870864868164,-21.462785720825195 37.37104415893555,-19.898805618286133 36.74152374267578,-18.26535415649414 35.94063186645508,-16.574546813964844 34.97012710571289,-14.838801383972168 33.83306121826172,-13.070727348327637 32.53377151489258,-11.283010482788086 31.07784080505371,-9.488301277160645 29.47208595275879,-7.699108600616455 27.724515914916992,-5.927682399749756 25.844274520874023,-4.1859130859375 23.84157371520996,-2.485227584838867 21.72764015197754,-0.8364906311035156 19.514616012573242,0.7500865459442139 17.215486526489258,2.265033483505249 14.843977928161621,3.699694871902466 12.41445541381836,5.0463056564331055 9.941816329956055,6.298050880432129 7.441376686096191,7.4491167068481445 4.928755283355713,8.49473762512207 2.4197518825531006,9.431225776672363 -0.06977158784866333,10.255998611450195 -2.524017810821533,10.967589378356934 -4.927373886108398,11.56564712524414 -7.2645368576049805,12.050934791564941 -9.520628929138184,12.425305366516113 -11.681319236755371,12.691676139831543 -13.732931137084961,12.853991508483887 -15.662556648254395,12.917171478271484 -17.458147048950195,12.887059211730957 -19.10862159729004,12.770352363586426 -20.603946685791016,12.574532508850098 -21.935205459594727,12.307782173156738 -23.094690322875977,11.978900909423828 -24.075942993164062,11.597209930419922 -24.873807907104492,11.172459602355957 -25.484481811523438,10.714722633361816 -25.90552520751953,10.234294891357422 -26.13589096069336,9.741586685180664 -26.175935745239258,9.247016906738281 -26.02739143371582,8.760909080505371 -25.693370819091797,8.293380737304688 -25.17833137512207,7.854241847991943 -24.4880313873291,7.45289421081543 -23.629486083984375,7.098236560821533 -22.610904693603516,6.798568248748779 -21.441621780395508,6.561507225036621 -20.132022857666016,6.3939056396484375 -18.693449020385742,6.30178165435791 -17.138105392456055,6.2902512550354 -15.47896671295166,6.363474369049072 -13.729660987854004,6.524605751037598 -11.904358863830566,6.775758266448975 -10.017661094665527,7.117976188659668 -8.08447551727295,7.551214694976807 -6.119897365570068,8.074335098266602 -4.1390862464904785,8.68510627746582 -2.157142400741577,9.380220413208008 -0.18898868560791016,10.155316352844238 1.7507528066635132,11.005008697509766 3.647873878479004,11.922940254211426 5.4886932373046875,12.90182876586914 7.2601637840271,13.93353271484375 8.949972152709961,15.009119987487793 10.546635627746582,16.11895179748535 12.03958511352539,17.252758026123047 13.4192476272583,18.399742126464844 14.677107810974121,19.548669815063477 15.805782318115234,20.68798065185547 16.799053192138672,21.805883407592773 17.651914596557617,22.890472412109375 18.360607147216797,23.92984390258789 18.92262840270996,24.912189483642578 19.33673858642578,25.82593536376953 19.60296630859375,26.65983009338379 19.722579956054688,27.403059005737305 19.698076248168945,28.045364379882812 19.53312873840332,28.577123641967773 19.232561111450195,28.98946189880371 18.802270889282227,29.27433967590332 18.24917984008789,29.424631118774414 17.581151962280273,29.434206008911133 16.806915283203125,29.297996520996094 15.935973167419434,29.01205825805664 14.97851276397705,28.573612213134766 13.945301055908203,27.98109245300293 12.84758186340332,27.234174728393555 11.696968078613281,26.333789825439453 10.505334854125977,25.282140731811523 9.284701347351074,24.082693099975586 8.047125816345215,22.740156173706055 6.804588317871094,21.260469436645508 5.56888484954834,19.65076446533203 4.351515769958496,17.919313430786133 3.1635847091674805,16.075471878051758 2.015697956085205,14.129624366760254 0.9178695678710938,12.093095779418945 -0.12056645005941391,9.97807788848877 -1.091037631034851,7.797531604766846 -1.9858068227767944,5.56509256362915 -2.79803729057312,3.2949647903442383 -3.5218505859375,1.0018104314804077 -4.152371883392334,-1.2993625402450562 -4.685770511627197,-3.593322277069092 -5.119284152984619,-5.864727973937988 -5.451238632202148,-8.098258972167969 -5.681053161621094,-10.278724670410156 -5.809239864349365,-12.391202926635742 -5.837386608123779,-14.421142578125 -5.768133163452148,-16.354496002197266 -5.60513973236084,-18.177818298339844 -5.353042125701904,-19.878393173217773 -5.017398357391357,-21.444313049316406 -4.6046271324157715,-22.864599227905273 -4.121940612792969,-24.1292724609375 -3.577263832092285,-25.229450225830078 -2.979153871536255,-26.157405853271484 -2.336709499359131,-26.906641006469727 -1.659476399421692,-27.471923828125 -0.9573482275009155,-27.84935760498047 -0.2404649555683136,-28.036388397216797 0.4808916449546814,-28.03183364868164 1.1964037418365479,-27.835891723632812 1.8958232402801514,-27.45013999938965 2.569077491760254,-26.877532958984375 3.2063724994659424,-26.122358322143555 3.7982938289642334,-25.19020652770996 4.3359055519104,-24.08793067932129 4.810841083526611,-22.8236026763916 5.21539306640625,-21.40641212463379 5.542592525482178,-19.84662437438965 5.786285877227783,-18.155481338500977 5.941200256347656,-16.34510612487793 6.003002166748047,-14.428420066833496 5.968348026275635,-12.419020652770996 5.834924221038818,-10.33107852935791 5.60147762298584,-8.179229736328125 5.267836570739746,-5.978439807891846 4.834920883178711,-3.7439024448394775 4.304741859436035,-1.4909045696258545 3.6803927421569824,0.7652884721755981 2.966026544570923,3.00955867767334 2.1668267250061035,5.227053165435791 1.2889646291732788,7.403301239013672 0.33955031633377075,9.524327278137207 -0.6734277009963989,11.576757431030273 -1.7411707639694214,13.547924995422363 -2.8541460037231445,15.4259672164917 -4.002170562744141,17.199907302856445 -5.174501419067383,18.859745025634766 -6.359932899475098,20.396522521972656 -7.546896457672119,21.80238151550293 -8.723566055297852,23.070632934570312 -9.877967834472656,24.19577980041504 -10.998090744018555,25.173566818237305 -12.071996688842773,26.000986099243164 -13.087934494018555,26.676300048828125 -14.03445053100586,27.199031829833984 -14.900498390197754,27.56995964050293 -15.675543785095215,27.791086196899414 -16.349668502807617,27.865623474121094 -16.91366958618164,27.797924041748047 -17.35915184020996,27.59344482421875 -17.67860984802246,27.258691787719727 -17.865510940551758,26.801122665405273 -17.91436767578125,26.229097366333008 -17.82078742980957,25.551769256591797 -17.58154296875,24.779010772705078 -17.194599151611328,23.921297073364258 -16.65915870666504,22.989620208740234 -15.97567367553711,21.995370864868164 -15.145866394042969,20.95022964477539 -14.17271614074707,19.86606216430664 -13.060465812683105,18.754802703857422 -11.81458568572998,17.628339767456055 -10.441749572753906,16.498414993286133 -8.949788093566895,15.376494407653809 -7.347634792327881,14.273691177368164 -5.645267009735107,13.200640678405762 -3.8536300659179688,12.167414665222168 -1.9845564365386963,11.183431625366211 -0.05067739263176918,10.257368087768555 1.9346740245819092,9.397086143493652 3.9575657844543457,8.609563827514648 6.003576278686523,7.9008378982543945 8.057906150817871,7.275947570800781 10.105498313903809,6.7389020919799805 12.131155967712402,6.292643070220947 14.119664192199707,5.939027786254883 16.05591583251953,5.67881965637207 17.92502784729004,5.511682987213135 19.712467193603516,5.436201572418213 21.404172897338867,5.44989538192749 22.986656188964844,5.549249649047852 24.447132110595703,5.729761600494385 25.773609161376953,5.98598575592041 26.954992294311523,6.3115949630737305 27.981182098388672,6.699448585510254 28.843151092529297,7.141666889190674 29.53302001953125,7.6297125816345215 30.04412841796875,8.15447998046875 30.371091842651367,8.706390380859375 30.50984001159668,9.275484085083008 30.45766258239746,9.851531982421875 30.213226318359375,10.424131393432617 29.776596069335938,10.982819557189941 29.149227142333984,11.517170906066895 28.333959579467773,12.016916275024414 27.335004806518555,12.47203540802002 26.15790367126465,12.872868537902832 24.809492111206055,13.21021556854248 23.29783821105957,13.475425720214844 21.63218879699707,13.66049575805664 19.82288932800293,13.758150100708008 17.88131332397461,13.761919021606445 15.819758415222168,13.666210174560547 13.651358604431152,13.466370582580566 11.389979362487793,13.158743858337402 9.050106048583984,12.74070930480957 6.64673376083374,12.21072006225586 4.1952433586120605,11.568327903747559 1.7112857103347778,10.81419849395752 -0.7893406748771667,9.950114250183105 -3.290815591812134,8.978970527648926 -5.7774176597595215,7.904757022857666 -8.233647346496582,6.732532501220703 -10.644343376159668,5.468389987945557 -12.99480152130127,4.1194047927856445 -15.270886421203613,2.6935837268829346 -17.459131240844727,1.1997979879379272 -19.546846389770508,-0.3522888720035553 -21.522207260131836,-1.952303409576416 -23.37433433532715,-3.5892484188079834 -25.093385696411133,-5.251597881317139 -26.670602798461914,-6.927396297454834 -28.0983943939209,-8.604360580444336 -29.37035369873047,-10.269993782043457 -30.481325149536133,-11.9116849899292 -31.427413940429688,-13.51683235168457 -32.20600891113281,-15.07294750213623 -32.815773010253906,-16.567768096923828 -33.25666809082031,-17.9893741607666 -33.529903411865234,-19.326292037963867 -33.63793182373047,-20.567598342895508 -33.58440399169922,-21.703025817871094 -33.374122619628906,-22.72304916381836 -33.01296615600586,-23.618986129760742 -32.50787353515625,-24.383071899414062 -31.866697311401367,-25.0085391998291 -31.09819221496582,-25.489681243896484 -30.211877822875977,-25.821908950805664 -29.217966079711914,-26.001802444458008 -28.12725257873535,-26.027141571044922 -26.95102310180664,-25.896947860717773 -25.700929641723633,-25.61148452758789 -24.388896942138672,-25.172283172607422 -23.02700424194336,-24.582115173339844 -21.62737464904785,-23.84499168395996 -20.20206069946289,-22.96614646911621 -18.762948989868164,-21.95197105407715 -17.321636199951172,-20.80999755859375 -15.88934326171875,-19.548818588256836 -14.476805686950684,-18.178037643432617 -13.09419059753418,-16.708187103271484 -11.751001358032227,-15.150644302368164 -10.456006050109863,-13.517539024353027 -9.217161178588867,-11.821662902832031 -8.041555404663086,-10.076354026794434 -6.935343265533447,-8.295403480529785 -5.903713703155518,-6.492927074432373 -4.950846195220947,-4.683261394500732 -4.079887390136719,-2.8808388710021973 -3.2929368019104004,-1.1000691652297974 -2.591041088104248,0.6447797417640686 -1.9741990566253662,2.3396973609924316 -1.4413785934448242,3.9710519313812256 -0.9905397295951843,5.52570104598999 -0.6186717748641968,6.991103649139404 -0.32183679938316345,8.35542106628418 -0.09522299468517303,9.607621192932129 0.06679348647594452,10.737567901611328 0.17057901620864868,11.73610782623291 0.22316603362560272,12.595144271850586 0.23217011988162994,13.307708740234375 0.2057015299797058,13.86801815032959 0.15227201581001282,14.27152156829834 0.08069786429405212,14.514942169189453 3.205151708344828e-15,14.596302032470703 -0.08069786429405212,14.514942169189453 -0.15227201581001282,14.27152156829834 -0.2057015299797058,13.86801815032959 -0.23217011988162994,13.307708740234375 -0.22316603362560272,12.595144271850586 -0.17057901620864868,11.73610782623291 -0.06679348647594452,10.737567901611328 0.09522299468517303,9.607621192932129 0.32183679938316345,8.35542106628418 0.6186717748641968,6.991103649139404 0.9905397295951843,5.52570104598999 1.4413785934448242,3.9710519313812256 1.9741990566253662,2.3396973609924316 2.591041088104248,0.6447797417640686 3.2929368019104004,-1.1000691652297974 4.079887390136719,-2.8808388710021973 4.950846195220947,-4.683261394500732 5.903713703155518,-6.492927074432373 6.935343265533447,-8.295403480529785 8.041555404663086,-10.076354026794434 9.217161178588867,-11.821662902832031 10.456006050109863,-13.517539024353027 11.751001358032227,-15.150644302368164 13.09419059753418,-16.708187103271484 14.476805686950684,-18.178037643432617 15.88934326171875,-19.548818588256836 17.321636199951172,-20.80999755859375 18.762948989868164,-21.95197105407715 20.20206069946289,-22.96614646911621 21.62737464904785,-23.84499168395996 23.02700424194336,-24.582115173339844 24.388896942138672,-25.172283172607422 25.700929641723633,-25.61148452758789 26.95102310180664,-25.896947860717773 28.12725257873535,-26.027141571044922 29.217966079711914,-26.001802444458008 30.211877822875977,-25.821908950805664 31.09819221496582,-25.489681243896484 31.866697311401367,-25.0085391998291 32.50787353515625,-24.383071899414062 33.01296615600586,-23.618986129760742 33.374122619628906,-22.72304916381836 33.58440399169922,-21.703025817871094 33.63793182373047,-20.567598342895508 33.529903411865234,-19.326292037963867 33.25666809082031,-17.9893741607666 32.815773010253906,-16.567768096923828 32.20600891113281,-15.07294750213623 31.427413940429688,-13.51683235168457 30.481325149536133,-11.9116849899292 29.37035369873047,-10.269993782043457 28.0983943939209,-8.604360580444336 26.670602798461914,-6.927396297454834 25.093385696411133,-5.251597881317139 23.37433433532715,-3.5892484188079834 21.522207260131836,-1.952303409576416 19.546846389770508,-0.3522888720035553 17.459131240844727,1.1997979879379272 15.270886421203613,2.6935837268829346 12.99480152130127,4.1194047927856445 10.644343376159668,5.468389987945557 8.233647346496582,6.732532501220703 5.7774176597595215,7.904757022857666 3.290815591812134,8.978970527648926 0.7893406748771667,9.950114250183105 -1.7112857103347778,10.81419849395752 -4.1952433586120605,11.568327903747559 -6.64673376083374,12.21072006225586 -9.050106048583984,12.74070930480957 -11.389979362487793,13.158743858337402 -13.651358604431152,13.466370582580566 -15.819758415222168,13.666210174560547 -17.88131332397461,13.761919021606445 -19.82288932800293,13.758150100708008 -21.63218879699707,13.66049575805664 -23.29783821105957,13.475425720214844 -24.809492111206055,13.21021556854248 -26.15790367126465,12.872868537902832 -27.335004806518555,12.47203540802002 -28.333959579467773,12.016916275024414 -29.149227142333984,11.517170906066895 -29.776596069335938,10.982819557189941 -30.213226318359375,10.424131393432617 -30.45766258239746,9.851531982421875 -30.50984001159668,9.275484085083008 -30.371091842651367,8.706390380859375 -30.04412841796875,8.15447998046875 -29.53302001953125,7.6297125816345215 -28.843151092529297,7.141666889190674 -27.981182098388672,6.699448585510254 -26.954992294311523,6.3115949630737305 -25.773609161376953,5.98598575592041 -24.447132110595703,5.729761600494385 -22.986656188964844,5.549249649047852 -21.404172897338867,5.44989538192749 -19.712467193603516,5.436201572418213 -17.92502784729004,5.511682987213135 -16.05591583251953,5.67881965637207 -14.119664192199707,5.939027786254883 -12.131155967712402,6.292643070220947 -10.105498313903809,6.7389020919799805 -8.057906150817871,7.275947570800781 -6.003576278686523,7.9008378982543945 -3.9575657844543457,8.609563827514648 -1.9346740245819092,9.397086143493652 0.05067739263176918,10.257368087768555 1.9845564365386963,11.183431625366211 3.8536300659179688,12.167414665222168 5.645267009735107,13.200640678405762 7.347634792327881,14.273691177368164 8.949788093566895,15.376494407653809 10.441749572753906,16.498414993286133 11.81458568572998,17.628339767456055 13.060465812683105,18.754802703857422 14.17271614074707,19.86606216430664 15.145866394042969,20.95022964477539 15.97567367553711,21.995370864868164 16.65915870666504,22.989620208740234 17.194599151611328,23.921297073364258 17.58154296875,24.779010772705078 17.82078742980957,25.551769256591797 17.91436767578125,26.229097366333008 17.865510940551758,26.801122665405273 17.67860984802246,27.258691787719727 17.35915184020996,27.59344482421875 16.91366958618164,27.797924041748047 16.349668502807617,27.865623474121094 15.675543785095215,27.791086196899414 14.900498390197754,27.56995964050293 14.03445053100586,27.199031829833984 13.087934494018555,26.676300048828125 12.071996688842773,26.000986099243164 10.998090744018555,25.173566818237305 9.877967834472656,24.19577980041504 8.723566055297852,23.070632934570312 7.546896457672119,21.80238151550293 6.359932899475098,20.396522521972656 5.174501419067383,18.859745025634766 4.002170562744141,17.199907302856445 2.8541460037231445,15.4259672164917 1.7411707639694214,13.547924995422363 0.6734277009963989,11.576757431030273 -0.33955031633377075,9.524327278137207 -1.2889646291732788,7.403301239013672 -2.1668267250061035,5.227053165435791 -2.966026544570923,3.00955867767334 -3.6803927421569824,0.7652884721755981 -4.304741859436035,-1.4909045696258545 -4.834920883178711,-3.7439024448394775 -5.267836570739746,-5.978439807891846 -5.60147762298584,-8.179229736328125 -5.834924221038818,-10.33107852935791 -5.968348026275635,-12.419020652770996 -6.003002166748047,-14.428420066833496 -5.941200256347656,-16.34510612487793 -5.786285877227783,-18.155481338500977 -5.542592525482178,-19.84662437438965 -5.21539306640625,-21.40641212463379 -4.810841083526611,-22.8236026763916 -4.3359055519104,-24.08793067932129 -3.7982938289642334,-25.19020652770996 -3.2063724994659424,-26.122358322143555 -2.569077491760254,-26.877532958984375 -1.8958232402801514,-27.45013999938965 -1.1964037418365479,-27.835891723632812 -0.4808916449546814,-28.03183364868164 0.2404649555683136,-28.036388397216797 0.9573482275009155,-27.84935760498047 1.659476399421692,-27.471923828125 2.336709499359131,-26.906641006469727 2.979153871536255,-26.157405853271484 3.577263832092285,-25.229450225830078 4.121940612792969,-24.1292724609375 4.6046271324157715,-22.864599227905273 5.017398357391357,-21.444313049316406 5.353042125701904,-19.878393173217773 5.60513973236084,-18.177818298339844 5.768133163452148,-16.354496002197266 5.837386608123779,-14.421142578125 5.809239864349365,-12.391202926635742 5.681053161621094,-10.278724670410156 5.451238632202148,-8.098258972167969 5.119284152984619,-5.864727973937988 4.685770511627197,-3.593322277069092 4.152371883392334,-1.2993625402450562 3.5218505859375,1.0018104314804077 2.79803729057312,3.2949647903442383 1.9858068227767944,5.56509256362915 1.091037631034851,7.797531604766846 0.12056645005941391,9.97807788848877 -0.9178695678710938,12.093095779418945 -2.015697956085205,14.129624366760254 -3.1635847091674805,16.075471878051758 -4.351515769958496,17.919313430786133 -5.56888484954834,19.65076446533203 -6.804588317871094,21.260469436645508 -8.047125816345215,22.740156173706055 -9.284701347351074,24.082693099975586 -10.505334854125977,25.282140731811523 -11.696968078613281,26.333789825439453 -12.84758186340332,27.234174728393555 -13.945301055908203,27.98109245300293 -14.97851276397705,28.573612213134766 -15.935973167419434,29.01205825805664 -16.806915283203125,29.297996520996094 -17.581151962280273,29.434206008911133 -18.24917984008789,29.424631118774414 -18.802270889282227,29.27433967590332 -19.232561111450195,28.98946189880371 -19.53312873840332,28.577123641967773 -19.698076248168945,28.045364379882812 -19.722579956054688,27.403059005737305 -19.60296630859375,26.65983009338379 -19.33673858642578,25.82593536376953 -18.92262840270996,24.912189483642578 -18.360607147216797,23.92984390258789 -17.651914596557617,22.890472412109375 -16.799053192138672,21.805883407592773 -15.805782318115234,20.68798065185547 -14.677107810974121,19.548669815063477 -13.4192476272583,18.399742126464844 -12.03958511352539,17.252758026123047 -10.546635627746582,16.11895179748535 -8.949972152709961,15.009119987487793 -7.2601637840271,13.93353271484375 -5.4886932373046875,12.90182876586914 -3.647873878479004,11.922940254211426 -1.7507528066635132,11.005008697509766 0.18898868560791016,10.155316352844238 2.157142400741577,9.380220413208008 4.1390862464904785,8.68510627746582 6.119897365570068,8.074335098266602 8.08447551727295,7.551214694976807 10.017661094665527,7.117976188659668 11.904358863830566,6.775758266448975 13.729660987854004,6.524605751037598 15.47896671295166,6.363474369049072 17.138105392456055,6.2902512550354 18.693449020385742,6.30178165435791 20.132022857666016,6.3939056396484375 21.441621780395508,6.561507225036621 22.610904693603516,6.798568248748779 23.629486083984375,7.098236560821533 24.4880313873291,7.45289421081543 25.17833137512207,7.854241847991943 25.693370819091797,8.293380737304688 26.02739143371582,8.760909080505371 26.175935745239258,9.247016906738281 26.13589096069336,9.741586685180664 25.90552520751953,10.234294891357422 25.484481811523438,10.714722633361816 24.873807907104492,11.172459602355957 24.075942993164062,11.597209930419922 23.094690322875977,11.978900909423828 21.935205459594727,12.307782173156738 20.603946685791016,12.574532508850098 19.10862159729004,12.770352363586426 17.458147048950195,12.887059211730957 15.662556648254395,12.917171478271484 13.732931137084961,12.853991508483887 11.681319236755371,12.691676139831543 9.520628929138184,12.425305366516113 7.2645368576049805,12.050934791564941 4.927373886108398,11.56564712524414 2.524017810821533,10.967589378356934 0.06977158784866333,10.255998611450195 -2.4197518825531006,9.431225776672363 -4.928755283355713,8.49473762512207 -7.441376686096191,7.4491167068481445 -9.941816329956055,6.298050880432129 -12.41445541381836,5.0463056564331055 -14.843977928161621,3.699694871902466 -17.215486526489258,2.265033483505249 -19.514616012573242,0.7500865459442139 -21.72764015197754,-0.8364906311035156 -23.84157371520996,-2.485227584838867 -25.844274520874023,-4.1859130859375 -27.724515914916992,-5.927682399749756 -29.47208595275879,-7.699108600616455 -31.07784080505371,-9.488301277160645 -32.53377151489258,-11.283010482788086 -33.83306121826172,-13.070727348327637 -34.97012710571289,-14.838801383972168 -35.94063186645508,-16.574546813964844 -36.74152374267578,-18.26535415649414 -37.37104415893555,-19.898805618286133 -37.82870864868164,-21.462785720825195 -38.11531448364258,-22.945587158203125 -38.2328987121582,-24.336030960083008 -38.184715270996094,-25.6235408782959 -37.97518539428711,-26.798267364501953 -37.6098518371582,-27.851167678833008 -37.09529113769531,-28.774093627929688 -36.4390869140625,-29.55986785888672 -35.649696350097656,-30.202350616455078 -34.73640823364258,-30.696500778198242 -33.709228515625,-31.038440704345703 -32.57877731323242,-31.2254695892334 -31.356203079223633,-31.256132125854492 -30.05306625366211,-31.13020133972168 -28.681230545043945,-30.848718643188477 -27.252756118774414,-30.413969039916992 -25.779781341552734,-29.829492568969727 -24.2744197845459,-29.100046157836914 -22.7486515045166,-28.2315731048584 -21.21420669555664,-27.23116683959961 -19.682466506958008,-26.10700035095215 -18.164371490478516,-24.86829376220703 -16.67032241821289,-23.525197982788086 -15.210077285766602,-22.08876609802246 -13.792698860168457,-20.570816040039062 -12.426456451416016,-18.983871459960938 -11.118768692016602,-17.341033935546875 -9.876150131225586,-15.655899047851562 -8.704153060913086,-13.942420959472656 -7.6073408126831055,-12.214818954467773 -6.589249134063721,-10.487445831298828 -5.652372360229492,-8.774675369262695 -4.798155307769775,-7.090775966644287 -4.026992321014404,-5.449806213378906 -3.3382418155670166,-3.8654770851135254 -2.7302467823028564,-2.351053476333618 -2.2003681659698486,-0.9192382097244263 -1.74502432346344,0.4179379940032959 -1.3597431182861328,1.6492149829864502 -1.039219617843628,2.7641961574554443 -0.777384340763092,3.7534396648406982 -0.5674759745597839,4.6085357666015625 -0.4021233022212982,5.322177886962891 -0.2734314203262329,5.88822603225708 -0.1730736494064331,6.301757335662842 -0.09238699078559875,6.559106826782227 -0.022471429780125618,6.657902717590332 0.045708976686000824,6.597081184387207 0.12122348695993423,6.3769001960754395 0.21307183802127838,5.998935699462891 0.3300819396972656,5.466067314147949 0.48080942034721375,4.78245735168457 0.6734393835067749,3.9535133838653564 0.915692150592804,2.985844850540161 1.2147328853607178,1.8872071504592896 1.577087163925171,0.6664336323738098 2.008561849594116,-0.6666311025619507 2.5141735076904297,-2.1012215614318848 3.098083972930908,-3.625736951828003 3.7635443210601807,-5.22783899307251 4.512847423553467,-6.894557476043701 5.347289085388184,-8.612395286560059 6.267141342163086,-10.367438316345215 7.27163028717041,-12.14548397064209 8.358932495117188,-13.93213939666748 9.526169776916504,-15.712963104248047 10.769430160522461,-17.47356414794922 12.083779335021973,-19.19973373413086 13.463301658630371,-20.877559661865234 14.90113639831543,-22.4935359954834 16.3895320892334,-24.03467559814453 17.91990852355957,-25.488624572753906 19.4829158782959,-26.843740463256836 21.068525314331055,-28.089210510253906 22.666099548339844,-29.215120315551758 24.26449203491211,-30.212539672851562 25.852144241333008,-31.073583602905273 27.41717529296875,-31.791492462158203 28.947498321533203,-32.36065673828125 30.430925369262695,-32.77666473388672 31.855270385742188,-33.03635787963867 33.208473205566406,-33.13779830932617 34.47869873046875,-33.08032989501953 35.654457092285156,-32.864540100097656 36.72469711303711,-32.49226379394531 37.67892837524414,-31.9665470123291 38.50730895996094,-31.2916259765625 39.20075607299805,-30.472867965698242 39.75102615356445,-29.51673126220703 40.15080261230469,-28.430688858032227 40.393768310546875,-27.223159790039062 40.47468185424805,-25.903432846069336 40.389434814453125,-24.481582641601562 40.13511276245117,-22.96835708618164 39.71000289916992,-21.375106811523438 39.113670349121094,-19.713653564453125 38.34694290161133,-17.99620819091797 37.41194534301758,-16.23523712158203 36.31208038330078,-14.443371772766113 35.05202865600586,-12.63327407836914 33.63771057128906,-10.817546844482422 32.07627487182617,-9.008609771728516 30.37603187561035,-7.218591213226318 28.54641342163086,-5.459228992462158 26.597902297973633,-3.741762161254883 24.541959762573242,-2.0768415927886963 22.390945434570312,-0.4744347929954529 20.15802001953125,1.0562520027160645 17.857059478759766,2.506855010986328 15.502535820007324,3.8699185848236084 13.10942268371582,5.138952255249023 10.693071365356445,6.308483600616455 8.269096374511719,7.3740949630737305 5.853253364562988,8.332457542419434 3.4613165855407715,9.181346893310547 1.10895836353302,9.91965389251709 -1.1883766651153564,10.54738998413086 -3.4155914783477783,11.06566333770752 -5.5580549240112305,11.476667404174805 -7.601719856262207,11.783644676208496 -9.53322982788086,11.990850448608398 -11.340028762817383,12.103490829467773 -13.010457992553711,12.127677917480469 -14.53384780883789,12.07034683227539 -15.900606155395508,11.939192771911621 -17.102285385131836,11.742582321166992 -18.13166046142578,11.489463806152344 -18.98277473449707,11.189277648925781 -19.650991439819336,10.851851463317871 -20.133028030395508,10.487306594848633 -20.426982879638672,10.10594654083252 -20.5323429107666,9.718151092529297 -20.449989318847656,9.33427619934082 -20.182188034057617,8.964539527893066 -19.732566833496094,8.618916511535645 -19.1060848236084,8.30704402923584 -18.30899429321289,8.038114547729492 -17.348772048950195,7.820780277252197 -16.23407745361328,7.663068771362305 -14.974661827087402,7.572293281555176 -13.58129596710205,7.5549774169921875 -12.065680503845215,7.61678409576416 -10.440342903137207,7.762453556060791 -8.71854019165039,7.995753765106201 -6.914148807525635,8.319430351257324 -5.0415472984313965,8.735175132751465 -3.115501880645752,9.24360466003418 -1.1510446071624756,9.844240188598633 0.8366476893424988,10.535505294799805 2.832376480102539,11.314741134643555 4.821043491363525,12.178208351135254 6.7877726554870605,13.121127128601074 8.718026161193848,14.13770866394043 10.597722053527832,15.221203804016113 12.41334056854248,16.36396026611328 14.1520357131958,17.557483673095703 15.801729202270508,18.792518615722656 17.351200103759766,20.059125900268555 18.79017448425293,21.346771240234375 20.109397888183594,22.644418716430664 21.300703048706055,23.940624237060547 22.357065200805664,25.22365951538086 23.272645950317383,26.481597900390625 24.042837142944336,27.702436447143555 24.664270401000977,28.87420654296875 25.134859085083008,29.985078811645508 25.453767776489258,31.023488998413086 25.621429443359375,31.978225708007812 25.6395206451416,32.83856964111328 25.51092529296875,33.5943717956543 25.239702224731445,34.23616027832031 24.831037521362305,34.75524139404297 24.291175842285156,35.143775939941406 23.627365112304688,35.39488220214844 22.847768783569336,35.502685546875 21.961389541625977,35.4623908996582 20.977981567382812,35.270355224609375 19.907941818237305,34.92410659790039 18.762222290039062,34.42240524291992 17.552215576171875,33.76525115966797 16.28965187072754,32.953914642333984 14.98648738861084,31.990924835205078 13.654784202575684,30.880077362060547 12.306612968444824,29.626413345336914 10.953927040100098,28.236181259155273 9.608465194702148,26.716812133789062 8.281636238098145,25.076860427856445 6.984418869018555,23.325944900512695 5.727267265319824,21.474689483642578 4.520012855529785,19.534629821777344 3.3717827796936035,17.51814079284668 2.2909188270568848,15.438339233398438 1.2849066257476807,13.308977127075195 0.3603129982948303,11.144341468811035 -0.4772673547267914,8.959141731262207 -1.2232563495635986,6.768394947052002 -1.8741264343261719,4.5873026847839355 -2.4274253845214844,2.431135892868042 -2.8817896842956543,0.31510916352272034 -3.2369484901428223,-1.745741367340088 -3.49371600151062,-3.7366762161254883 -3.653975248336792,-5.643373966217041 -3.7206497192382812,-7.452048301696777 -3.697666883468628,-9.149554252624512 -3.589911937713623,-10.723502159118652 -3.403170108795166,-12.16235637664795 -3.1440653800964355,-13.455526351928711 -2.819985866546631,-14.593454360961914 -2.4390065670013428,-15.567699432373047 -2.0098018646240234,-16.371000289916992 -1.5415557622909546,-16.997333526611328 -1.0438652038574219,-17.441972732543945 -0.5266400575637817,-17.701519012451172 -3.087016319652802e-14,-17.773927688598633 0.5258296728134155,-17.658533096313477 1.0406243801116943,-17.35604476928711 1.5342658758163452,-16.868555068969727 1.99684739112854,-16.199508666992188 2.418775796890259,-15.353680610656738 2.790872812271118,-14.337137222290039 3.1044700145721436,-13.157183647155762 3.3515000343322754,-11.822310447692871 3.524583101272583,-10.342116355895996 3.617105722427368,-8.727238655090332 3.623293161392212,-6.9892578125 3.5382721424102783,-5.140609264373779 3.358128786087036,-3.194478750228882 3.079953193664551,-1.1646984815597534 2.701878786087036,0.9343672394752502 2.223106861114502,3.087934970855713 1.6439262628555298,5.280926704406738 0.9657192230224609,7.498084545135498 0.19095776975154877,9.72409725189209 -0.6768099665641785,11.943720817565918 -1.632983922958374,14.141899108886719 -2.6719465255737305,16.30388069152832 -3.787106990814209,18.415340423583984 -4.970954895019531,20.462482452392578 -6.215122222900391,22.432157516479492 -7.510456085205078,24.311952590942383 -8.847094535827637,26.090290069580078 -10.214558601379395,27.756513595581055 -11.601836204528809,29.300966262817383 -12.997488021850586,30.715057373046875 -14.38974666595459,31.9913272857666 -15.766621589660645,33.12348556518555 -17.116016387939453,34.10646438598633 -18.42582893371582,34.93643569946289 -19.684064865112305,35.61083984375 -20.87896728515625,36.12836837768555 -21.999099731445312,36.48899841308594 -23.033475875854492,36.693946838378906 -23.971656799316406,36.745643615722656 -24.80385398864746,36.64772033691406 -25.521026611328125,36.40493392944336 -26.114965438842773,36.02313232421875 -26.578386306762695,35.50918960571289 -26.904996871948242,34.870906829833984 -27.089574813842773,34.116966247558594 -27.128015518188477,33.25680923461914 -27.017391204833984,32.300567626953125 -26.755983352661133,31.258949279785156 -26.34331703186035,30.143136978149414 -25.780174255371094,28.96468734741211 -25.068605422973633,27.735408782958984 -24.211925506591797,26.467256546020508 -23.214702606201172,25.17222023010254 -22.082721710205078,23.862213134765625 -20.82296371459961,22.548961639404297 -19.44355010986328,21.243886947631836 -17.953685760498047,19.95802116394043 -16.36359977722168,18.701889038085938 -14.684459686279297,17.485429763793945 -12.928296089172363,16.317888259887695 -11.107908248901367,15.207756042480469 -9.23676586151123,14.16268253326416 -7.328902721405029,13.189413070678711 -5.398805618286133,12.29373836517334 -3.4613022804260254,11.480440139770508 -1.53144109249115,10.753253936767578 0.3756285309791565,10.114849090576172 2.244779586791992,9.566802024841309 4.061029434204102,9.109598159790039 5.809661388397217,8.742627143859863 7.476345539093018,8.464205741882324 9.047256469726562,8.271596908569336 10.509186744689941,8.161043167114258 11.849655151367188,8.127817153930664 13.057011604309082,8.166266441345215 14.12053394317627,8.26988410949707 15.030517578125,8.431370735168457 15.778355598449707,8.642716407775879 16.356611251831055,8.895284652709961 16.75908851623535,9.179902076721191 16.980871200561523,9.486954689025879 17.01837921142578,9.806486129760742 16.869394302368164,10.12829875946045 16.533077239990234,10.442066192626953 16.00998878479004,10.737428665161133 15.302078247070312,11.004108428955078 14.412667274475098,11.232015609741211 13.346442222595215,11.411345481872559 12.109396934509277,11.53269100189209 10.708805084228516,11.58713150024414 9.153152465820312,11.56633186340332 7.452075004577637,11.46263313293457 5.616281986236572,11.269128799438477 3.6574721336364746,10.979744911193848 1.5882419347763062,10.589308738708496 -0.5780150294303894,10.093603134155273 -2.827212333679199,9.489423751831055 -5.144682884216309,8.774616241455078 -7.515292167663574,7.948108196258545 -9.923562049865723,7.009933948516846 -12.35378360748291,5.961242198944092 -14.79015064239502,4.8042988777160645 -17.216873168945312,3.542477607727051 -19.61830711364746,2.180238723754883 -21.979068756103516,0.7231020927429199 -24.284156799316406,-0.8223980665206909 -26.519065856933594,-2.4487576484680176 -28.669897079467773,-4.14756441116333 -30.723461151123047,-5.9095659255981445 -32.66737365722656,-7.72474479675293 -34.49014663696289,-9.582403182983398 -36.181278228759766,-11.471245765686035 -37.73130798339844,-13.379485130310059 -39.13190460205078,-15.294943809509277 -40.375911712646484,-17.20514678955078 -41.457374572753906,-19.097442626953125 -42.37160110473633,-20.9591064453125 -43.115169525146484,-22.777462005615234 -43.685951232910156,-24.53998374938965 -44.08308792114258,-26.23440933227539 -44.3070182800293,-27.848852157592773 -44.35942459106445,-29.371915817260742 -44.243221282958984,-30.792787551879883 -43.96250915527344,-32.101341247558594 -43.522525787353516,-33.288230895996094 -42.929569244384766,-34.344974517822266 -42.19096374511719,-35.264041900634766 -41.314937591552734,-36.03892135620117 -40.310585021972656,-36.664188385009766 -39.18773651123047,-37.13554000854492 -37.956886291503906,-37.44987487792969 -36.62908172607422,-37.60530090332031 -35.215824127197266,-37.60116958618164 -33.72895050048828,-37.438079833984375 -32.18052291870117,-37.1179084777832 -30.58273696899414,-36.64374923706055 -28.947790145874023,-36.01996612548828 -27.287778854370117,-35.252098083496094 -25.614593505859375,-34.34685134887695 -23.939807891845703,-33.31205368041992 -22.274581909179688,-32.15657043457031 -20.629566192626953,-30.890260696411133 -19.014808654785156,-29.523880004882812 -17.43967628479004,-28.06900405883789 -15.912766456604004,-26.53793716430664 -14.441856384277344,-24.943605422973633 -13.033825874328613,-23.29945945739746 -11.694616317749023,-21.619348526000977 -10.429184913635254,-19.91742706298828 -9.241472244262695,-18.208030700683594 -8.134381294250488,-16.50554656982422 -7.109767913818359,-14.824304580688477 -6.1684346199035645,-13.178462028503418 -5.310141086578369,-11.581872940063477 -4.53362512588501,-10.047978401184082 -3.836627960205078,-8.58969783782959 -3.2159342765808105,-7.219318389892578 -2.667419195175171,-5.948384761810303 -2.1861047744750977,-4.787614822387695 -1.7662228345870972,-3.7467994689941406 -1.4012893438339233,-2.8347227573394775 -1.0841805934906006,-2.0590922832489014 -0.8072197437286377,-1.4264671802520752 -0.562265932559967,-0.9422081708908081 -0.3408091962337494,-0.6104305982589722 -0.13406841456890106,-0.4339686632156372 0.06690830737352371,-0.41435348987579346 0.2711411714553833,-0.5517972707748413 0.4876159131526947,-0.8451954126358032 0.7251813411712646,-1.2921326160430908 0.9924480319023132,-1.8889033794403076 1.297689437866211,-2.6305453777313232 1.6487458944320679,-3.5108790397644043 2.0529332160949707,-4.522560119628906 2.516956329345703,-5.65714168548584 3.0468273162841797,-6.905147075653076 3.6477930545806885,-8.256147384643555 4.324265956878662,-9.698843955993652 5.07976770401001,-11.22117805480957 5.916876316070557,-12.810416221618652 6.837186813354492,-14.453265190124512 7.841278553009033,-16.1359806060791 8.928692817687988,-17.844482421875 10.097922325134277,-19.56447410583496 11.346405029296875,-21.281558990478516 12.670541763305664,-22.981359481811523 14.065703392028809,-24.649641036987305 15.526267051696777,-26.27242088317871 17.045656204223633,-27.83608627319336 18.61638069152832,-29.327524185180664 20.230098724365234,-30.734195709228516 21.877685546875,-32.044254302978516 23.54930877685547,-33.24665451049805 25.234495162963867,-34.33122253417969 26.9222412109375,-35.28873062133789 28.601091384887695,-36.11099624633789 30.259239196777344,-36.79092025756836 31.8846378326416,-37.32255172729492 33.4650993347168,-37.701133728027344 34.9884147644043,-37.92313003540039 36.44245147705078,-37.98624038696289 37.81527328491211,-37.88943862915039 39.09524154663086,-37.63294219970703 40.27114486694336,-37.21821975708008 41.332279205322266,-36.647972106933594 42.26856994628906,-35.92609405517578 43.070655822753906,-35.05762481689453 43.730003356933594,-34.04872131347656 44.23896408081055,-32.90656661987305 44.590877532958984,-31.639328002929688 44.78013610839844,-30.256065368652344 44.802242279052734,-28.766645431518555 44.653865814208984,-27.181655883789062 44.33290100097656,-25.51230239868164 43.83848190307617,-23.77031898498535 43.17101287841797,-21.96783447265625 42.33218765258789,-20.117298126220703 41.324989318847656,-18.231346130371094 40.15367126464844,-16.322689056396484 38.82375717163086,-14.404011726379395 37.34199523925781,-12.487852096557617 35.7163200378418,-10.586494445800781 33.95580291748047,-8.711864471435547 32.07059860229492,-6.875426292419434 30.071855545043945,-5.088080883026123 27.971654891967773,-3.360079288482666 25.782913208007812,-1.7009339332580566 23.5192928314209,-0.11934217065572739 21.195091247558594,1.3768874406814575 18.825143814086914,2.7808923721313477 16.42470359802246,4.086813449859619 14.00932788848877,5.289835453033447 11.59475326538086,6.386221408843994 9.196783065795898,7.3733367919921875 6.831151962280273,8.249661445617676 4.513415813446045,9.014790534973145 2.258821725845337,9.669431686401367 0.08218846470117569,10.21537971496582 -2.002206325531006,10.655495643615723 -3.9807424545288086,10.993661880493164 -5.840561866760254,11.23473834991455 -7.569672107696533,11.384506225585938 -9.1570405960083,11.44959831237793 -10.592679977416992,11.437432289123535 -11.867730140686035,11.356125831604004 -12.974522590637207,11.214408874511719 -13.906646728515625,11.021535873413086 -14.6589937210083,10.787187576293945 -15.227797508239746,10.521366119384766 -15.610668182373047,10.234294891357422 -15.806594848632812,9.936312675476074 -15.815967559814453,9.637763977050781 -15.640562057495117,9.348897933959961 -15.283524513244629,9.079754829406738 -14.749346733093262,8.840070724487305 -14.043818473815918,8.639169692993164 -13.173985481262207,8.485869407653809 -12.148088455200195,8.38839340209961 -10.975489616394043,8.354276657104492 -9.666597366333008,8.390292167663574 -8.232779502868652,8.5023775100708 -6.686265468597412,8.695564270019531 -5.040048599243164,8.973931312561035 -3.3077752590179443,9.34054946899414 -1.5036360025405884,9.79744815826416 0.357753723859787,10.345584869384766 2.2614715099334717,10.984832763671875 4.192409992218018,11.71396541595459 6.135398864746094,12.530667304992676 8.075328826904297,13.431543350219727 9.997272491455078,14.412144660949707 11.886600494384766,15.467000007629395 13.729100227355957,16.589664459228516 15.511091232299805,17.772768020629883 17.219526290893555,19.008081436157227 18.84209632873535,20.28658676147461 20.36731719970703,21.59855079650879 21.784631729125977,22.93362045288086 23.084470748901367,24.280912399291992 24.258333206176758,25.629100799560547 25.298839569091797,26.966535568237305 26.199792861938477,28.28133773803711 26.956201553344727,29.5615177154541 27.56432342529297,30.79507827758789 28.021669387817383,31.970130920410156 28.3270320892334,33.075008392333984 28.480451583862305,34.09836959838867 28.483226776123047,35.029319763183594 28.337881088256836,35.857505798339844 28.048118591308594,36.5732307434082 27.61878776550293,37.16752624511719 27.055824279785156,37.632266998291016 26.366180419921875,37.96024703979492 25.557758331298828,38.14524841308594 24.63932228088379,38.1821174621582 23.62041664123535,38.066829681396484 22.51127052307129,37.79652786254883 21.32269287109375,37.36956024169922 20.06597137451172,36.7855224609375 18.752769470214844,36.04526901245117 17.395009994506836,35.15091323852539 16.0047607421875,34.10585021972656 14.594132423400879,32.914710998535156 13.175162315368652,31.583364486694336 11.759697914123535,30.118858337402344 10.359298706054688,28.529388427734375 8.985127449035645,26.824247360229492 7.647850513458252,25.013736724853516 6.357544898986816,23.109121322631836 5.123607158660889,21.122514724731445 3.9546756744384766,19.066808700561523 2.858555316925049,16.955577850341797 1.842150330543518,14.802956581115723 0.9114096164703369,12.623542785644531 0.071278877556324,10.432279586791992 -0.6743373870849609,8.244338035583496 -1.3226033449172974,6.074997901916504 -1.8717687129974365,3.939523220062256 -2.321176528930664,1.853042483329773 -2.6712594032287598,-0.16957342624664307 -2.923525333404541,-2.113832950592041 -3.0805342197418213,-3.9657375812530518 -3.1458635330200195,-5.711896896362305 -3.124065637588501,-7.339639663696289 -3.0206139087677,-8.837112426757812 -2.841841697692871,-10.193377494812012 -2.5948739051818848,-11.398504257202148 -2.2875473499298096,-12.443652153015137 -1.9283311367034912,-13.321136474609375 -1.526233434677124,-14.024492263793945 -1.0907090902328491,-14.548535346984863 -0.6315602660179138,-14.889396667480469 -0.1588338017463684,-15.044557571411133 0.31728190183639526,-15.012866973876953 0.7865633964538574,-14.794556617736816 1.2388577461242676,-14.3912353515625 1.664188027381897,-13.805874824523926 2.052856683731079,-13.042787551879883 2.3955471515655518,-12.107593536376953 2.683420419692993,-11.007165908813477 2.9082088470458984,-9.749585151672363 3.0623035430908203,-8.34406566619873 3.1388354301452637,-6.8008856773376465 3.1317503452301025,-5.131294250488281 3.0358755588531494,-3.3474318981170654 2.8469784259796143,-1.4622228145599365 2.5618159770965576,0.5107285380363464 2.178175926208496,2.5572450160980225 1.694906234741211,4.662693977355957 1.1119368076324463,6.81210470199585 0.4302891194820404,8.990288734436035 -0.3479236662387848,11.181963920593262 -1.2195069789886475,13.371871948242188 -2.1802053451538086,15.544903755187988 -3.2247345447540283,17.686214447021484 -4.346820831298828,19.781352996826172 -5.539253234863281,21.81635093688965 -6.793941497802734,23.777856826782227 -8.101985931396484,25.65322494506836 -9.453754425048828,27.43061065673828 -10.838961601257324,29.09906005859375 -12.24676513671875,30.648601531982422 -13.665860176086426,32.07030487060547 -15.084577560424805,33.35634231567383 -16.49099349975586,34.500057220458984 -17.87303924560547,35.4959831237793 -19.218599319458008,36.33990478515625 -20.51564598083496,37.02885437011719 -21.75232696533203,37.561134338378906 -22.917095184326172,37.936302185058594 -23.998807907104492,38.15519332885742 -24.98683738708496,38.219844818115234 -25.871173858642578,38.13352584838867 -26.642520904541016,37.900634765625 -27.292396545410156,37.52669143676758 -27.81319808959961,37.01823806762695 -28.19830894470215,36.382808685302734 -28.442148208618164,35.62880325317383 -28.54024314880371,34.765445709228516 -28.489276885986328,33.80267333984375 -28.28713035583496,32.75102233886719 -27.932924270629883,31.621545791625977 -27.427026748657227,30.425703048706055 -26.77107810974121,29.175249099731445 -25.96798324584961,27.882118225097656 -25.021902084350586,26.558317184448242 -23.938230514526367,25.215808868408203 -22.723567962646484,23.866409301757812 -21.38566780090332,22.521669387817383 -19.933399200439453,21.192771911621094 -18.37666130065918,19.89044189453125 -16.726333618164062,18.624828338623047 -14.994182586669922,17.40543556213379 -13.19277286529541,16.241025924682617 -11.335372924804688,15.139549255371094 -9.435853958129883,14.108068466186523 -7.5085768699646,13.152711868286133 -5.5682830810546875,12.278611183166504 -3.629972219467163,11.48986530303955 -1.7087873220443726,10.789512634277344 0.18011055886745453,10.17950439453125 2.0216634273529053,9.660696983337402 3.801038980484009,9.232854843139648 5.5037522315979,8.894659996032715 7.115782260894775,8.643728256225586 8.623689651489258,8.476649284362793 10.014725685119629,8.389019966125488 11.276938438415527,8.375496864318848 12.399272918701172,8.429856300354004 13.371661186218262,8.545061111450195 14.185107231140137,8.713335990905762 14.831765174865723,8.926248550415039 15.305001258850098,9.174800872802734 15.599456787109375,9.449519157409668 15.71108627319336,9.740553855895996 15.637201309204102,10.03778076171875 15.37648868560791,10.330909729003906 14.92902660369873,10.609580993652344 14.296287536621094,10.863483428955078 13.481127738952637,11.082454681396484 12.487765312194824,11.256587982177734 11.321749687194824,11.376330375671387 9.989920616149902,11.432594299316406 8.500351905822754,11.416839599609375 6.862292289733887,11.321174621582031 5.086087703704834,11.138433456420898 3.1831042766571045,10.86225700378418 1.1656361818313599,10.487165451049805 -0.9531901478767395,10.008618354797363 -3.159520387649536,9.423067092895508 -5.438880443572998,8.72800350189209 -7.776292324066162,7.921991348266602 -10.156391143798828,7.0046916007995605 -12.563544273376465,5.97688102722168 -14.981975555419922,4.840451240539551 -17.395891189575195,3.5984063148498535 -19.789592742919922,2.2548465728759766 -22.14760971069336,0.8149383068084717 -24.45481300354004,-0.7151181101799011 -26.696533203125,-2.3281400203704834 -28.858665466308594,-4.016014099121094 -30.927783966064453,-5.7697625160217285 -32.8912353515625,-7.579617977142334 -34.737239837646484,-9.435099601745605 -36.45496368408203,-11.32511043548584 -38.03460693359375,-13.238019943237305 -39.46746063232422,-15.161770820617676 -40.74598693847656,-17.0839786529541 -41.86383056640625,-18.992048263549805 -42.815887451171875,-20.87327003479004 -43.598323822021484,-22.714941024780273 -44.20857620239258,-24.50447654724121 -44.645389556884766,-26.229528427124023 -44.90877151489258,-27.878070831298828 -45,-29.438541412353516 -44.92159652709961,-30.89992904663086 -44.67728042602539,-32.251869201660156 -44.27191925048828,-33.4847526550293 -43.71147537231445,-34.58980941772461 -43.0029411315918,-35.55918884277344 -42.15427017211914,-36.38603591918945 -41.17428207397461,-37.06456756591797 -40.07257843017578,-37.59010696411133 -38.85944747924805,-37.95915985107422 -37.545772552490234,-38.16942596435547 -36.142921447753906,-38.219844818115234 -34.662635803222656,-38.110618591308594 -33.11692810058594,-37.84319305419922 -31.51795768737793,-37.4202766418457 -29.877944946289062,-36.8458137512207 -28.20903778076172,-36.12495803833008 -26.523210525512695,-35.2640495300293 -24.832157135009766,-34.270545959472656 -23.147192001342773,-33.15298843383789 -21.47915267944336,-31.920915603637695 -19.838300704956055,-30.58480453491211 -18.234241485595703,-29.155973434448242 -16.67584228515625,-27.646503448486328 -15.171163558959961,-26.069129943847656 -13.727395057678223,-24.43714714050293 -12.350798606872559,-22.76429557800293 -11.046664237976074,-21.06464958190918 -9.819280624389648,-19.35249900817871 -8.671899795532227,-17.642236709594727 -7.606728553771973,-15.948236465454102 -6.624923229217529,-14.284729957580566 -5.72659158706665,-12.665691375732422 -4.910811901092529,-11.104723930358887 -4.175653457641602,-9.614936828613281 -3.5182178020477295,-8.20884895324707 -2.934678792953491,-6.898271560668945 -2.4203360080718994,-5.694214344024658 -1.9696794748306274,-4.606793403625488 -1.576454758644104,-3.6451454162597656 -1.233743667602539,-2.8173511028289795 -0.9340440630912781,-2.1303656101226807 -0.6693596839904785,-1.5899633169174194 -0.43129289150238037,-1.2006839513778687 -0.21114182472229004,-0.9658010005950928 -1.6344008937040078e-14,-0.8872858285903931"
  />
</svg>
