<?xml version="1.0" encoding="UTF-8"?>
<!DOCTYPE svg>
<svg
  data-animation-duration="3s"
  viewBox="-50 -50 100 100"
>
  <title>
    ANIMATION 31 - VARIATION H
  </title>
  <desc>
    <p>See this animation in action here: <a href="https://andrew.wang-hoyer.com/experiments/svg-animations/31/h" target="_blank" rel="noopener">https://andrew.wang-hoyer.com/experiments/svg-animations/31/h</a>.</p>
    <p>Generator source code : <a href="https://github.com/ndrwhr/svg-animation-src/tree/master/site/_svgs/generators/animations/31/h.js" target="_blank" rel="noopener">https://github.com/ndrwhr/svg-animation-src/tree/master/site/_svgs/generators/animations/31/h.js</a>.</p>
    <p>All generated files and source code are released under the following license:</p>
    <p>MIT License</p>
    <p>Copyright (c) 2018-present Andrew Hoyer</p>
    <p>Permission is hereby granted, free of charge, to any person obtaining a copy of this software and associated documentation files (the &quot;Software&quot;), to deal in the Software without restriction, including without limitation the rights to use, copy, modify, merge, publish, distribute, sublicense, and/or sell copies of the Software, and to permit persons to whom the Software is furnished to do so, subject to the following conditions:</p>
    <p>The above copyright notice and this permission notice shall be included in all copies or substantial portions of the Software.</p>
    <p>THE SOFTWARE IS PROVIDED &quot;AS IS&quot;, WITHOUT WARRANTY OF ANY KIND, EXPRESS OR IMPLIED, INCLUDING BUT NOT LIMITED TO THE WARRANTIES OF MERCHANTABILITY, FITNESS FOR A PARTICULAR PURPOSE AND NONINFRINGEMENT. IN NO EVENT SHALL THE AUTHORS OR COPYRIGHT HOLDERS BE LIABLE FOR ANY CLAIM, DAMAGES OR OTHER LIABILITY, WHETHER IN AN ACTION OF CONTRACT, TORT OR OTHERWISE, ARISING FROM, OUT OF OR IN CONNECTION WITH THE SOFTWARE OR THE USE OR OTHER DEALINGS IN THE SOFTWARE.</p>
  </desc>
  <style>
    /* <![CDATA[ */
      .svg-31-h-polyline {
        stroke: black;
        stroke-width: .1;
        fill: none;
        stroke-dasharray: 4%, 4%, 1%, 1%;
        animation: svg-31-h-main-anim 3s linear infinite;
      }
      
      @keyframes svg-31-h-main-anim {
        from {
          stroke-dashoffset: 0;
        }
      
        to {
          stroke-dashoffset: 10%;
        }
      }
      
    /* ]]> */
  </style>
  <polyline
    class="svg-31-h-polyline"
    points="0.0660199448466301,0 0.16586051881313324,-2.0487172603607178 0.4644950330257416,-4.078622817993164 0.9592698812484741,-6.071071147918701 1.6457884311676025,-8.007750511169434 2.5179502964019775,-9.870843887329102 3.568005084991455,-11.64318561553955 4.786621570587158,-13.308418273925781 6.162971019744873,-14.851133346557617 7.684821128845215,-16.25701141357422 9.338647842407227,-17.5129451751709 11.109752655029297,-18.607162475585938 12.982393264770508,-19.529319763183594 14.93992805480957,-20.27060890197754 16.964954376220703,-20.823820114135742 19.039472579956055,-21.183420181274414 21.145042419433594,-21.3455867767334 23.262941360473633,-21.308256149291992 25.374338150024414,-21.071134567260742 27.460458755493164,-20.635696411132812 29.502750396728516,-20.00518226623535 31.483047485351562,-19.18456268310547 33.383731842041016,-18.180496215820312 35.187889099121094,-17.00126838684082 36.879459381103516,-15.656718254089355 38.443389892578125,-14.158159255981445 39.86574172973633,-12.518263816833496 41.133846282958984,-10.75096321105957 42.236392974853516,-8.871318817138672 43.163543701171875,-6.895390033721924 43.907005310058594,-4.840089797973633 44.46012878417969,-2.7230372428894043 44.81793975830078,-0.5623988509178162 44.97720718383789,1.6232718229293823 44.93644714355469,3.8151986598968506 44.695953369140625,5.994549751281738 44.2578010559082,8.14260482788086 43.62580108642578,10.240920066833496 42.80550003051758,12.27149486541748 41.80409622192383,14.21692943572998 40.63040542602539,16.060577392578125 39.294776916503906,17.786697387695312 37.80896759033203,19.38058853149414 36.186100006103516,20.8287296295166 34.44049072265625,22.118885040283203 32.587547302246094,23.240224838256836 30.643625259399414,24.183420181274414 28.625898361206055,24.940717697143555 26.55217933654785,25.506013870239258 24.44078254699707,25.874916076660156 22.310352325439453,26.044767379760742 20.179702758789062,26.014680862426758 18.06764793395996,25.78554344177246 15.992831230163574,25.360004425048828 13.973566055297852,24.74246597290039 12.027671813964844,23.939023971557617 10.172311782836914,22.957427978515625 8.423848152160645,21.8070068359375 6.79768705368042,20.498594284057617 5.308150291442871,19.044416427612305 3.9683454036712646,17.45800018310547 2.7900471687316895,15.75404167175293 1.7835960388183594,13.948281288146973 0.9578049182891846,12.057364463806152 0.3198810815811157,10.098688125610352 -0.1246374323964119,8.090252876281738 -0.37193137407302856,6.050501346588135 -0.41993385553359985,3.998152017593384 -0.26834893226623535,1.9520353078842163 0.08134590834379196,-0.0690738782286644 0.6259127259254456,-2.046623468399048 1.360382080078125,-3.9624478816986084 2.278096914291382,-5.7989301681518555 3.370771884918213,-7.539157867431641 4.628566741943359,-9.167074203491211 6.040173053741455,-10.667618751525879 7.592916965484619,-12.026861190795898 9.272867202758789,-13.232129096984863 11.06496524810791,-14.272112846374512 12.95315170288086,-15.136974334716797 14.920513153076172,-15.818428993225098 16.949432373046875,-16.309818267822266 19.021743774414062,-16.60617446899414 21.118896484375,-16.704259872436523 23.22211265563965,-16.60260009765625 25.312564849853516,-16.30148696899414 27.37152862548828,-15.802990913391113 29.380563735961914,-15.110930442810059 31.321670532226562,-14.230846405029297 33.17744827270508,-13.169943809509277 34.931251525878906,-11.937037467956543 36.567344665527344,-10.542468070983887 38.07102584838867,-8.998010635375977 39.42876434326172,-7.316773891448975 40.62834167480469,-5.5130791664123535 41.65892028808594,-3.6023356914520264 42.511173248291016,-1.6009031534194946 43.17734909057617,0.47405290603637695 43.651344299316406,2.6047134399414062 43.92876052856445,4.772764682769775 44.006954193115234,6.959560394287109 43.88503646850586,9.14628791809082 43.56388473510742,11.314132690429688 43.046165466308594,13.444450378417969 42.33626174926758,15.518925666809082 41.44028854370117,17.519739151000977 40.36598587036133,19.429729461669922 39.12269592285156,21.23253059387207 37.72123336791992,22.912736892700195 36.17384338378906,24.456024169921875 34.494041442871094,25.84929084777832 32.696533203125,27.08075523376465 30.797054290771484,28.140077590942383 28.812253952026367,29.01844596862793 26.75952911376953,29.708650588989258 24.656883239746094,30.205156326293945 22.522756576538086,30.504138946533203 20.375871658325195,30.603534698486328 18.235057830810547,30.5030460357666 16.119091033935547,30.204151153564453 14.046524047851562,29.7100830078125 12.03552532196045,29.025815963745117 10.103710174560547,28.158002853393555 8.267993927001953,27.11492919921875 6.54443359375,25.906436920166016 4.948091506958008,24.543832778930664 3.4928970336914062,23.03978729248047 2.191525459289551,21.408235549926758 1.0552854537963867,19.664236068725586 0.09401758760213852,17.823843002319336 -0.6839922666549683,15.903970718383789 -1.2720867395401,13.922237396240234 -1.6652958393096924,11.896808624267578 -1.8603811264038086,9.846235275268555 -1.8558650016784668,7.789291858673096 -1.6520426273345947,5.744810104370117 -1.2509807348251343,3.731508731842041 -0.6564977765083313,1.767829179763794 0.12586824595928192,-0.12822821736335754 1.0889105796813965,-1.9392642974853516 2.2238168716430664,-3.6486353874206543 3.520247220993042,-5.2406005859375 4.966426372528076,-6.700462818145752 6.549248695373535,-8.014697074890137 8.254392623901367,-9.171073913574219 10.066450119018555,-10.158763885498047 11.969062805175781,-10.968436241149902 13.945064544677734,-11.592341423034668 15.976639747619629,-12.024378776550293 18.045473098754883,-12.260154724121094 20.132923126220703,-12.297013282775879 22.220172882080078,-12.13407039642334 24.28841209411621,-11.772212028503418 26.318998336791992,-11.214095115661621 28.29361343383789,-10.464113235473633 30.19444465637207,-9.528369903564453 32.00432205200195,-8.4146146774292 33.70689392089844,-7.1321797370910645 35.2867431640625,-5.691896438598633 36.729557037353516,-4.105995178222656 38.02222442626953,-2.3880019187927246 39.15297317504883,-0.5526155829429626 40.1114616394043,1.3844223022460938 40.888877868652344,3.406466484069824 41.47801208496094,5.496117115020752 41.87333297729492,7.635371685028076 42.07101821899414,9.805787086486816 42.06900405883789,11.988645553588867 41.86698913574219,14.165111541748047 41.46645736694336,16.31641387939453 40.87063980102539,18.423994064331055 40.08451843261719,20.469688415527344 39.11473846435547,22.435876846313477 37.96959686279297,24.305646896362305 36.65892791748047,26.06294059753418 35.194034576416016,27.69269561767578 33.58760452270508,29.180978775024414 31.853557586669922,30.515119552612305 30.006961822509766,31.68380355834961 28.063873291015625,32.67719650268555 26.04120635986328,33.48701095581055 23.95657730102539,34.1065788269043 21.828153610229492,34.53094482421875 19.674488067626953,34.75686264038086 17.51435661315918,34.78285217285156 15.366592407226562,34.60921096801758 13.249914169311523,34.238006591796875 11.18276309967041,33.673057556152344 9.18314266204834,32.919898986816406 7.268451690673828,31.98573875427246 5.455336093902588,30.8793888092041 3.7595369815826416,29.611190795898438 2.1957530975341797,28.192914962768555 0.7775091528892517,26.637670516967773 -0.4829626977443695,24.959775924682617 -1.574832797050476,23.174640655517578 -2.488769292831421,21.298625946044922 -3.217021942138672,19.34889030456543 -3.7534894943237305,17.343257904052734 -4.093775272369385,15.300036430358887 -4.235225200653076,13.237871170043945 -4.176950931549072,11.175575256347656 -3.9198405742645264,9.131961822509766 -3.4665462970733643,7.125674247741699 -2.8214645385742188,5.175025463104248 -1.9906957149505615,3.2978334426879883 -0.9819891452789307,1.511262059211731 0.19532403349876404,-0.16832982003688812 1.5304150581359863,-1.7255339622497559 3.0110528469085693,-3.1460301876068115 4.62371301651001,-4.416711807250977 6.353697776794434,-5.52580451965332 8.185266494750977,-6.4629693031311035 10.101775169372559,-7.219393253326416 12.085824966430664,-7.787868976593018 14.119413375854492,-8.162860870361328 16.184101104736328,-8.34054946899414 18.26116943359375,-8.318867683410645 20.331783294677734,-8.097522735595703 22.377172470092773,-7.677990436553955 24.378780364990234,-7.063509941101074 26.318445205688477,-6.25905179977417 28.178546905517578,-5.271273612976074 29.94217300415039,-4.108461856842041 31.59326934814453,-2.780456781387329 33.11677169799805,-1.298567533493042 34.49875259399414,0.3245304822921753 35.72653579711914,2.074906826019287 36.788814544677734,3.937500238418579 37.675750732421875,5.896251678466797 38.379058837890625,7.934248447418213 38.89207458496094,10.033870697021484 39.2098388671875,12.17695426940918 39.32910919189453,14.344943046569824 39.248409271240234,16.51906394958496 38.968040466308594,18.680482864379883 38.49005889892578,20.81048011779785 37.81829071044922,22.890613555908203 36.958274841308594,24.902881622314453 35.91721725463867,26.829883575439453 34.70393371582031,28.65497589111328 33.32876205444336,30.36241340637207 31.803478240966797,31.937501907348633 30.141193389892578,33.36671447753906 28.356224060058594,34.6378173828125 26.463977813720703,35.7399787902832 24.48082160949707,36.663875579833984 22.42391586303711,37.40174865722656 20.311079025268555,37.94750213623047 18.160627365112305,38.29673385620117 15.991204261779785,38.44679641723633 13.821624755859375,38.396793365478516 11.670700073242188,38.147621154785156 9.55707836151123,37.701927185058594 7.499072074890137,37.064109802246094 5.514500141143799,36.24026107788086 3.6205272674560547,35.2381477355957 1.8335140943527222,34.067081451416016 0.16886943578720093,32.7379035949707 -1.3590850830078125,31.262842178344727 -2.7372424602508545,29.655418395996094 -3.953826904296875,27.930334091186523 -4.998497486114502,26.10332679748535 -5.862441539764404,24.191043853759766 -6.538450241088867,22.210880279541016 -7.020987033843994,20.18083953857422 -7.306230068206787,18.11936378479004 -7.39211368560791,16.045169830322266 -7.278341293334961,13.977089881896973 -6.9663896560668945,11.933899879455566 -6.459496021270752,9.934148788452148 -5.762630462646484,7.996006488800049 -4.882449626922607,6.137087345123291 -3.827237129211426,4.374305248260498 -2.6068339347839355,2.7237167358398438 -1.232547640800476,1.2003834247589111 0.28294748067855835,-0.18176588416099548 1.9257220029830933,-1.410056471824646 3.680715560913086,-2.4731810092926025 5.5318708419799805,-3.3612987995147705 7.46227502822876,-4.066125392913818 9.454310417175293,-4.5810041427612305 11.489812850952148,-4.900964736938477 13.5502290725708,-5.022770881652832 15.616785049438477,-4.944944858551025 17.6706485748291,-4.667782783508301 19.69310188293457,-4.193351745605469 21.66570281982422,-3.5254719257354736 23.570449829101562,-2.669680595397949 25.38994598388672,-1.6331865787506104 27.1075439453125,-0.4248022437095642 28.707509994506836,0.9451316595077515 30.17513656616211,2.464839458465576 31.49690818786621,4.121213436126709 32.66059112548828,5.899933338165283 33.65535354614258,7.785589694976807 34.471866607666016,9.761822700500488 35.10238265991211,11.811466217041016 35.540802001953125,13.916701316833496 35.7827262878418,16.05921745300293 35.82550048828125,18.220365524291992 35.668243408203125,20.38133430480957 35.31184005737305,22.5233097076416 34.75894546508789,24.627649307250977 34.013954162597656,26.67603302001953 33.082969665527344,28.65064811706543 31.973739624023438,30.534324645996094 30.695598602294922,32.310707092285156 29.25937843322754,33.964385986328125 27.67730712890625,35.48103713989258 25.962913513183594,36.84755325317383 24.130895614624023,38.052162170410156 22.196992874145508,39.08451843261719 20.17784881591797,39.93581771850586 18.090871810913086,40.59884262084961 15.954054832458496,41.06806182861328 13.785844802856445,41.33964920043945 11.604960441589355,41.41154479980469 9.43023681640625,41.283451080322266 7.280445098876953,40.95683670043945 5.174142360687256,40.43495178222656 3.1294937133789062,39.722755432128906 1.164117693901062,38.826908111572266 -0.7050719261169434,37.75570297241211 -2.4620165824890137,36.51896667480469 -4.0916547775268555,35.128013610839844 -5.5800557136535645,33.59552001953125 -6.914544105529785,31.93541145324707 -8.083810806274414,30.162750244140625 -9.07801628112793,28.293594360351562 -9.888873100280762,26.344858169555664 -10.509721755981445,24.334156036376953 -10.935595512390137,22.279653549194336 -11.163254737854004,20.199905395507812 -11.191219329833984,18.113685607910156 -11.019784927368164,16.039825439453125 -10.651020050048828,13.99704360961914 -10.088741302490234,12.003782272338867 -9.338485717773438,10.078042030334473 -8.40746021270752,8.237222671508789 -7.304477691650391,6.497967720031738 -6.039876461029053,4.876018047332764 -4.62543249130249,3.3860721588134766 -3.0742504596710205,2.041653871536255 -1.4006518125534058,0.8549947142601013 0.3799557685852051,-0.16307660937309265 2.251213788986206,-1.0032291412353516 4.195957660675049,-1.6577129364013672 6.1963701248168945,-2.1204276084899902 8.234138488769531,-2.386977434158325 10.290617942810059,-2.4547085762023926 12.34699535369873,-2.3227345943450928 14.384462356567383,-1.9919425249099731 16.384368896484375,-1.4649866819381714 18.328407287597656,-0.7462637424468994 20.19875717163086,0.1581254005432129 21.978254318237305,1.2404301166534424 23.650541305541992,2.491318941116333 25.20020866394043,3.8999624252319336 26.612937927246094,5.454128265380859 27.87562370300293,7.140292167663574 28.976486206054688,8.943755149841309 29.905189514160156,10.848775863647461 30.652923583984375,12.838709831237793 31.212478637695312,14.896156311035156 31.578319549560547,17.003114700317383 31.746625900268555,19.141141891479492 31.71533203125,21.29151725769043 31.48414421081543,23.43541145324707 31.05453872680664,25.554048538208008 30.42975616455078,27.628873825073242 29.614765167236328,29.641721725463867 28.61622428894043,31.574974060058594 27.442419052124023,33.41171646118164 26.103193283081055,35.13589096069336 24.609851837158203,36.73244094848633 22.97507095336914,38.18742752075195 21.212785720825195,39.488182067871094 19.33805274963379,40.62339782714844 17.366933822631836,41.58322525024414 15.316338539123535,42.35939025878906 13.203888893127441,42.94522476196289 11.047751426696777,43.33576202392578 8.866477966308594,43.52777099609375 6.6788458824157715,43.5197639465332 4.503686904907227,43.31203842163086 2.3597207069396973,42.90666580200195 0.26539063453674316,42.30746078491211 -1.761301875114441,41.519962310791016 -3.702955961227417,40.55137634277344 -5.542927265167236,39.410518646240234 -7.26547384262085,38.107723236083984 -8.85589599609375,36.6547737121582 -10.300668716430664,35.06476593017578 -11.587560653686523,33.352027893066406 -12.705740928649902,31.531963348388672 -13.645877838134766,29.62093734741211 -14.40022087097168,27.636112213134766 -14.962668418884277,25.595304489135742 -15.328822135925293,23.516826629638672 -15.496030807495117,21.41932487487793 -15.463404655456543,19.321613311767578 -15.231829643249512,17.24250030517578 -14.803958892822266,15.20063591003418 -14.184189796447754,13.214329719543457 -13.378621101379395,11.301401138305664 -12.395001411437988,9.47901439666748 -11.242664337158203,7.763528347015381 -9.932435035705566,6.170351505279541 -8.476546287536621,4.713804721832275 -6.888521671295166,3.4069950580596924 -5.183059215545654,2.2616968154907227 -3.3758983612060547,1.2882500886917114 -1.4836838245391846,0.4954677224159241 0.4761858284473419,-0.10944338142871857 2.4857101440429688,-0.5209456086158752 4.526447296142578,-0.7352200150489807 6.579678535461426,-0.7502000331878662 8.62657356262207,-0.5655900239944458 10.648358345031738,-0.1828678548336029 12.626477241516113,0.39472827315330505 14.542768478393555,1.1622284650802612 16.379613876342773,2.112975597381592 18.120101928710938,3.2386839389801025 19.7481746673584,4.529512405395508 21.248769760131836,5.9741530418396 22.607959747314453,7.55993127822876 23.813072204589844,9.272915840148926 24.852798461914062,11.09804630279541 25.717296600341797,13.019265174865723 26.398283004760742,15.019658088684082 26.889102935791016,17.081607818603516 27.184782028198242,19.186946868896484 27.282093048095703,21.31712532043457 27.179548263549805,23.4533634185791 26.877450942993164,25.576831817626953 26.37786293029785,27.668811798095703 25.68461036682129,29.710861206054688 24.80323028564453,31.684974670410156 23.74092674255371,33.57375717163086 22.50651741027832,35.36056137084961 21.11033821105957,37.0296516418457 19.564170837402344,38.56631851196289 17.881118774414062,39.95704650878906 16.075504302978516,41.18960189819336 14.162737846374512,42.253150939941406 12.159178733825684,43.138370513916016 10.08199405670166,43.837501525878906 7.948999881744385,44.34444808959961 5.778512477874756,44.654815673828125 3.5891761779785156,44.76594161987305 1.3998054265975952,44.67694854736328 -0.7707868814468384,44.38872528076172 -2.903954267501831,43.90391159057617 -4.981383323669434,43.22691345214844 -6.985255241394043,42.363834381103516 -8.89840316772461,41.322410583496094 -10.704468727111816,40.11198806762695 -12.388042449951172,38.74339294433594 -13.934802055358887,37.228851318359375 -15.331640243530273,35.58189392089844 -16.566781997680664,33.81721115112305 -17.6298828125,31.950551986694336 -18.512134552001953,29.99855613708496 -19.206327438354492,27.97862434387207 -19.706918716430664,25.90875816345215 -20.010095596313477,23.80739974975586 -20.113786697387695,21.693267822265625 -20.0176944732666,19.585193634033203 -19.723299026489258,17.501953125 -19.23383331298828,15.462099075317383 -18.554271697998047,13.483797073364258 -17.691268920898438,11.584665298461914 -16.653106689453125,9.7816162109375 -15.449627876281738,8.090707778930664 -14.09213924407959,6.527000904083252 -12.593314170837402,5.104425430297852 -10.967083930969238,3.8356568813323975 -9.228506088256836,2.7320027351379395 -7.393640041351318,1.803303599357605 -5.479397296905518,1.057844877243042 -3.503394603729248,0.5022838115692139 -1.4837980270385742,0.1415899693965912 0.5608407258987427,-0.02099868282675743 2.6117465496063232,0.015995483845472336 4.650089263916016,0.25227659940719604 6.657149791717529,0.685778021812439 8.614486694335938,1.3126803636550903 10.504098892211914,2.127445936203003 12.308588981628418,3.1228673458099365 14.011312484741211,4.29013204574585 15.596528053283691,5.618899822235107 17.049537658691406,7.097394943237305 18.35681915283203,8.71251106262207 19.506141662597656,10.44992733001709 20.486677169799805,12.294235229492188 21.289093017578125,14.22907543182373 21.9056396484375,16.237281799316406 22.330219268798828,18.30103874206543 22.558433532714844,20.402029037475586 22.587631225585938,22.5216121673584 22.41692543029785,24.64097023010254 22.047204971313477,26.741296768188477 21.481124877929688,28.803939819335938 20.72307777404785,30.810592651367188 19.77916717529297,32.743431091308594 18.657148361206055,34.58529281616211 17.366348266601562,36.319820404052734 15.917597770690918,37.93160629272461 14.323129653930664,39.40632247924805 12.59646987915039,40.730865478515625 10.752317428588867,41.893463134765625 8.806411743164062,42.88376998901367 6.7754011154174805,43.6929817199707 4.6766839027404785,44.31388473510742 2.5282630920410156,44.74094009399414 0.34858059883117676,44.970333099365234 -1.8436425924301147,45 -4.029574871063232,44.82963562011719 -6.1904401779174805,44.46072006225586 -8.307683944702148,43.8964958190918 -10.363141059875488,43.141929626464844 -12.339192390441895,42.203678131103516 -14.218923568725586,41.09003448486328 -15.986276626586914,39.81082534790039 -17.626188278198242,38.37736892700195 -19.124732971191406,36.802337646484375 -20.469228744506836,35.09966278076172 -21.64836883544922,33.284400939941406 -22.652313232421875,31.372617721557617 -23.472776412963867,29.3812198638916 -24.103097915649414,27.32782745361328 -24.538311004638672,25.230607986450195 -24.775171279907227,23.108110427856445 -24.812206268310547,20.97911262512207 -24.649707794189453,18.862445831298828 -24.28974151611328,16.776830673217773 -23.736129760742188,14.740708351135254 -22.994403839111328,12.772080421447754 -22.071775436401367,10.888346672058105 -20.977052688598633,9.10615062713623 -19.720579147338867,7.441234588623047 -18.314125061035156,5.908297061920166 -16.77079963684082,4.520862102508545 -15.1049222946167,3.2911617755889893 -13.331900596618652,2.230025291442871 -11.468092918395996,1.3467841148376465 -9.530664443969727,0.6491883397102356 -7.537431716918945,0.1433386504650116 -5.506707191467285,-0.16636817157268524 -3.457136392593384,-0.27727842330932617 -1.4075305461883545,-0.18850478529930115 0.6232980489730835,0.09906566888093948 2.6167047023773193,0.5827793478965759 4.55437707901001,1.25823974609375 6.418497562408447,2.1193466186523438 8.191902160644531,3.1583499908447266 9.858230590820312,4.365918159484863 11.402077674865723,5.731222629547119 12.809122085571289,7.242031574249268 14.06625747680664,8.884820938110352 15.16170883178711,10.644891738891602 16.08513641357422,12.506503105163574 16.827730178833008,14.453012466430664 17.382282257080078,16.467018127441406 17.743255615234375,18.530519485473633 17.90683364868164,20.62507438659668 17.87094497680664,22.731966018676758 17.635299682617188,24.832359313964844 17.201374053955078,26.907480239868164 16.572406768798828,28.938777923583984 15.753371238708496,30.9080867767334 14.750919342041016,32.79778289794922 13.573342323303223,34.59096145629883 12.230478286743164,36.27156066894531 10.733638763427734,37.82452392578125 9.095497131347656,39.23591232299805 7.329984664916992,40.49305725097656 5.452163219451904,41.584651947021484 3.4780917167663574,42.5008544921875 1.4246835708618164,43.233375549316406 -0.6904428601264954,43.775569915771484 -2.84912109375,44.12245178222656 -5.032796859741211,44.27079391479492 -7.2226948738098145,44.219120025634766 -9.399982452392578,43.96772003173828 -11.545939445495605,43.5186653137207 -13.64212417602539,42.87576675415039 -15.670533180236816,42.04457473754883 -17.613767623901367,41.032291412353516 -19.455181121826172,39.84772872924805 -21.179031372070312,38.501224517822266 -22.77062225341797,37.00455856323242 -24.2164249420166,35.3708381652832 -25.504207611083984,33.6143798828125 -26.623144149780273,31.75059700012207 -27.563899993896484,29.795846939086914 -28.318723678588867,27.767295837402344 -28.881513595581055,25.682758331298828 -29.247875213623047,23.56055450439453 -29.415151596069336,21.41932487487793 -29.382457733154297,19.277883529663086 -29.15067481994629,17.155046463012695 -28.722461700439453,15.069453239440918 -28.10221290588379,13.039422035217285 -27.2960262298584,11.082769393920898 -26.311649322509766,9.216660499572754 -25.15842056274414,7.457455158233643 -23.84716033935547,5.820562362670898 -22.390104293823242,4.320303440093994 -20.8007755279541,2.969784736633301 -19.093870162963867,1.7807821035385132 -17.28512954711914,0.7636358737945557 -15.39119815826416,-0.07284096628427505 -13.429473876953125,-0.7214409112930298 -11.417959213256836,-1.1766260862350464 -9.375093460083008,-1.4345767498016357 -7.319596767425537,-1.4932262897491455 -5.270298480987549,-1.352278470993042 -3.2459750175476074,-1.0132105350494385 -1.265177607536316,-0.4792605936527252 0.6539281010627747,0.24460217356681824 2.493725061416626,1.1517207622528076 4.237300872802734,2.2338099479675293 5.868597984313965,3.481029510498047 7.372556209564209,4.882071495056152 8.735246658325195,6.424261569976807 9.943994522094727,8.093669891357422 10.987492561340332,9.875235557556152 11.855901718139648,11.752900123596191 12.540934562683105,13.709752082824707 13.035937309265137,15.728174209594727 13.335939407348633,17.78999900817871 13.437705039978027,19.876676559448242 13.339754104614258,21.96942901611328 13.042386054992676,24.049427032470703 12.547667503356934,26.097949981689453 11.859417915344238,28.0965576171875 10.983175277709961,30.027246475219727 9.926148414611816,31.872621536254883 8.697150230407715,33.616031646728516 7.306521892547607,35.24174499511719 5.766038417816162,36.73505783081055 4.088807582855225,38.08244705200195 2.289151430130005,39.27168273925781 0.3824785351753235,40.29193115234375 -1.6148507595062256,41.13386535644531 -3.685671091079712,41.78973388671875 -5.812163352966309,42.25344467163086 -7.976014614105225,42.52058410644531 -10.158577919006348,42.5885124206543 -12.341039657592773,42.45634078979492 -14.50458812713623,42.12495422363281 -16.63057518005371,41.59701156616211 -18.7006893157959,40.87689971923828 -20.697111129760742,39.970726013183594 -22.60267448425293,38.88624572753906 -24.401020050048828,37.632781982421875 -26.07673454284668,36.221168518066406 -27.615503311157227,34.66363525390625 -29.004215240478516,32.97370910644531 -30.231094360351562,31.166088104248047 -31.28580093383789,29.256513595581055 -32.159523010253906,27.261629104614258 -32.84504699707031,25.198837280273438 -33.33684158325195,23.086137771606445 -33.631080627441406,20.941974639892578 -33.725704193115234,18.785064697265625 -33.62040710449219,16.634241104125977 -33.316673278808594,14.508280754089355 -32.8177375793457,12.425737380981445 -32.128570556640625,10.40477466583252 -31.25582504272461,8.4630126953125 -30.20779037475586,6.617364883422852 -28.994304656982422,4.883889198303223 -27.62667465209961,3.27764630317688 -26.11757469177246,1.812567114830017 -24.48093605041504,0.5013271570205688 -22.731815338134766,-0.6447654366493225 -20.886274337768555,-1.6158697605133057 -18.961223602294922,-2.4036998748779297 -16.974279403686523,-3.001598358154297 -14.943609237670898,-3.404594659805298 -12.887763023376465,-3.6094510555267334 -10.825517654418945,-3.6146891117095947 -8.775702476501465,-3.4206044673919678 -6.757037162780762,-3.0292630195617676 -4.787962913513184,-2.4444844722747803 -2.8864805698394775,-1.6718051433563232 -1.0699890851974487,-0.7184326648712158 0.6448675990104675,0.4068209230899811 2.2423489093780518,1.6936159133911133 3.7077572345733643,3.1301772594451904 5.027568340301514,4.703398704528809 6.18955135345459,6.398959636688232 7.182878017425537,8.201452255249023 7.99821662902832,10.094517707824707 8.62781810760498,12.060990333557129 9.065583229064941,14.083052635192871 9.307114601135254,16.142393112182617 9.349760055541992,18.220365524291992 9.192632675170898,20.298160552978516 8.836620330810547,22.35696029663086 8.284377098083496,24.378124237060547 7.540301322937012,26.343338012695312 6.610491752624512,28.234785079956055 5.502700328826904,30.03529930114746 4.226259231567383,31.7285213470459 2.7919981479644775,33.29904556274414 1.2121487855911255,34.73255157470703 -0.49976351857185364,36.01593017578125 -2.3290398120880127,37.13740539550781 -4.2599382400512695,38.086647033691406 -6.275814533233643,38.85483169555664 -8.359267234802246,39.43475341796875 -10.492295265197754,39.82088088989258 -12.65645694732666,40.009395599365234 -14.833030700683594,39.998226165771484 -17.003185272216797,39.787078857421875 -19.148143768310547,39.37743377685547 -21.24935531616211,38.772525787353516 -23.288652420043945,37.97732925415039 -25.248414993286133,36.998497009277344 -27.11172866821289,35.84431838989258 -28.862537384033203,34.524635314941406 -30.485780715942383,33.050750732421875 -31.967525482177734,31.435348510742188 -33.29509735107422,29.692352294921875 -34.45718765258789,27.836824417114258 -35.44395446777344,25.88482666015625 -36.24711608886719,23.853271484375 -36.86000442504883,21.759775161743164 -37.27766418457031,19.62250328063965 -37.49684143066406,17.460012435913086 -37.51606750488281,15.29107666015625 -37.33563995361328,13.134528160095215 -36.95761489868164,11.009086608886719 -36.38582229614258,8.933196067810059 -35.625789642333984,6.924856185913086 -34.68472671508789,5.001468181610107 -33.571449279785156,3.1796772480010986 -32.296295166015625,1.4752241373062134 -30.87103843688965,-0.0971919521689415 -29.30878257751465,-1.524045705795288 -27.623851776123047,-2.793105363845825 -25.831655502319336,-3.8935413360595703 -23.948549270629883,-4.81602144241333 -21.991697311401367,-5.55279541015625 -19.978918075561523,-6.097761631011963 -17.928525924682617,-6.446523666381836 -15.859164237976074,-6.5964274406433105 -13.789645195007324,-6.546584606170654 -11.738780975341797,-6.297882556915283 -9.72521686553955,-5.852973937988281 -7.767265319824219,-5.216254234313965 -5.882743835449219,-4.393825054168701 -4.088817119598389,-3.39343523979187 -2.401843786239624,-2.2244155406951904 -0.8372323513031006,-0.8975947499275208 0.5906969904899597,0.5747961401939392 1.8688380718231201,2.1792328357696533 2.9854159355163574,3.901017665863037 3.930091381072998,5.724410057067871 4.694051265716553,7.632765769958496 5.270089626312256,9.608686447143555 5.6526689529418945,11.634170532226562 5.83797025680542,13.690775871276855 5.823927402496338,15.759785652160645 5.6102447509765625,17.82236671447754 5.19840145111084,19.859745025634766 4.591635227203369,21.853370666503906 3.7949161529541016,23.78507423400879 2.8149020671844482,25.637237548828125 1.6598787307739258,27.392953872680664 0.33968743681907654,29.036161422729492 -1.1343635320663452,30.551799774169922 -2.749598741531372,31.925941467285156 -4.492087364196777,33.145912170410156 -6.346768379211426,34.20040512084961 -8.29758358001709,35.07957458496094 -10.327619552612305,35.77513885498047 -12.419257164001465,36.28044509887695 -14.554330825805664,36.59052276611328 -16.71428680419922,36.70212936401367 -18.880348205566406,36.613792419433594 -21.0336856842041,36.3258056640625 -23.15557861328125,35.84023666381836 -25.227582931518555,35.16090774536133 -27.23169708251953,34.293357849121094 -29.150524139404297,33.244789123535156 -30.96741485595703,32.02402114868164 -32.666629791259766,30.641389846801758 -34.23347091674805,29.108675003051758 -35.65441131591797,27.43897819519043 -36.9172248840332,25.646629333496094 -38.011070251464844,23.747028350830078 -38.9266242980957,21.756542205810547 -39.65613555908203,19.692333221435547 -40.193504333496094,17.572219848632812 -40.53432846069336,15.414517402648926 -40.67595672607422,13.237871170043945 -40.61750411987305,11.061094284057617 -40.3598518371582,8.902998924255371 -39.905662536621094,6.782233715057373 -39.25931930541992,4.717109680175781 -38.42693328857422,2.725447177886963 -37.41625213623047,0.8244110345840454 -36.23659896850586,-0.9696388244628906 -34.898807525634766,-2.6412930488586426 -33.41511535644531,-4.176230430603027 -31.79903793334961,-5.561343193054199 -30.065279006958008,-6.784855842590332 -28.22957420349121,-7.836427211761475 -26.308568954467773,-8.707243919372559 -24.31966781616211,-9.39009952545166 -22.280866622924805,-9.879454612731934 -20.210603713989258,-10.171489715576172 -18.127605438232422,-10.26413631439209 -16.050701141357422,-10.157098770141602 -13.998662948608398,-9.851855278015137 -11.990044593811035,-9.351641654968262 -10.043012619018555,-8.661428451538086 -8.17518424987793,-7.787871837615967 -6.403470993041992,-6.739255905151367 -4.743931770324707,-5.525420665740967 -3.2116262912750244,-4.157674789428711 -1.8204846382141113,-2.648691415786743 -0.5831811428070068,-1.0124001502990723 0.4889763593673706,0.7361382842063904 1.3861476182937622,2.580866575241089 2.1000478267669678,4.5048723220825195 2.6240198612213135,6.490538120269775 2.953094244003296,8.519699096679688 3.084033489227295,10.573803901672363 3.0153608322143555,12.634075164794922 2.7473714351654053,14.681683540344238 2.282133102416992,16.69791030883789 1.6234650611877441,18.66431427001953 0.7769055366516113,20.56289291381836 -0.2503378987312317,22.376251220703125 -1.44945228099823,24.087739944458008 -2.8100967407226562,25.681623458862305 -4.320496559143066,27.143199920654297 -5.967543601989746,28.458948135375977 -7.736917495727539,29.616636276245117 -9.613208770751953,30.605436325073242 -11.580058097839355,31.416017532348633 -13.620299339294434,32.040626525878906 -15.71611499786377,32.47317123413086 -17.849191665649414,32.70924758911133 -20.000883102416992,32.74620819091797 -22.152376174926758,32.58316421508789 -24.28485870361328,32.221004486083984 -26.379684448242188,31.662382125854492 -28.41853904724121,30.911693572998047 -30.38360595703125,29.97504234313965 -32.25771713256836,28.86017608642578 -34.02451705932617,27.576431274414062 -35.66859436035156,26.134634017944336 -37.175628662109375,24.54701805114746 -38.53251266479492,22.82710838317871 -39.72746276855469,20.989601135253906 -40.75015640258789,19.050243377685547 -41.591766357421875,17.025676727294922 -42.245086669921875,14.933302879333496 -42.70458221435547,12.791122436523438 -42.966434478759766,10.617579460144043 -43.0285758972168,8.43139362335205 -42.890708923339844,6.2513957023620605 -42.5543098449707,4.096363544464111 -42.022621154785156,1.9848498106002808 -41.300601959228516,-0.06497859954833984 -40.39492416381836,-2.035503387451172 -39.31386184692383,-3.909811019897461 -38.067256927490234,-5.671842575073242 -36.66642379760742,-7.3065361976623535 -35.124027252197266,-8.799962997436523 -33.454002380371094,-10.139445304870605 -31.671409606933594,-11.313674926757812 -29.792306900024414,-12.312810897827148 -27.83360481262207,-13.12856674194336 -25.812923431396484,-13.75428581237793 -23.748430252075195,-14.184996604919434 -21.658672332763672,-14.417461395263672 -19.562429428100586,-14.450201034545898 -17.478530883789062,-14.283510208129883 -15.42569637298584,-13.919456481933594 -13.42236614227295,-13.361856460571289 -11.486543655395508,-12.616250038146973 -9.635626792907715,-11.689841270446777 -7.886260032653809,-10.591442108154297 -6.254184722900391,-9.33139419555664 -4.754097938537598,-7.92147159576416 -3.3995256423950195,-6.374778747558594 -2.202697992324829,-4.7056379318237305 -1.1744441986083984,-2.929455518722534 -0.32409533858299255,-1.0625908374786377 0.3405984938144684,0.877791702747345 0.8135371208190918,2.8738746643066406 1.0903241634368896,4.907346248626709 1.1683061122894287,6.959560394287109 1.0465959310531616,9.011706352233887 0.7260812520980835,11.044971466064453 0.20941583812236786,13.040711402893066 -0.4990035891532898,14.980613708496094 -1.3930761814117432,16.846858978271484 -2.4650516510009766,18.62228775024414 -3.7055983543395996,20.29053497314453 -5.10388708114624,21.836196899414062 -6.64768648147583,23.244953155517578 -8.323470115661621,24.50369644165039 -10.116541862487793,25.60065269470215 -12.011157989501953,26.525480270385742 -13.99067497253418,27.269371032714844 -16.03769302368164,27.825117111206055 -18.13421058654785,28.187177658081055 -20.26178741455078,28.351741790771484 -22.401700973510742,28.316736221313477 -24.535118103027344,28.08186912536621 -26.643268585205078,27.648618698120117 -28.707595825195312,27.020221710205078 -30.709932327270508,26.201650619506836 -32.63266372680664,25.19956398010254 -34.45887756347656,24.022245407104492 -36.172508239746094,22.67953872680664 -37.75850296020508,21.182750701904297 -39.20292663574219,19.5445556640625 -40.49310302734375,17.778888702392578 -41.617733001708984,15.900808334350586 -42.56697082519531,13.926373481750488 -43.332523345947266,11.87249755859375 -43.90774154663086,9.756800651550293 -44.287654876708984,7.597448348999023 -44.46902084350586,5.412993907928467 -44.45037078857422,3.2222139835357666 -44.23198699951172,1.0439404249191284 -43.815948486328125,-1.1031063795089722 -43.2060661315918,-3.200483798980713 -42.40788650512695,-5.230189800262451 -41.42860412597656,-7.1748247146606445 -40.27703857421875,-9.017742156982422 -38.96352767944336,-10.743200302124023 -37.499855041503906,-12.336502075195312 -35.89911651611328,-13.784120559692383 -34.175636291503906,-15.073823928833008 -32.344825744628906,-16.194782257080078 -30.42304229736328,-17.137662887573242 -28.42745018005371,-17.894716262817383 -26.375865936279297,-18.459840774536133 -24.286605834960938,-18.828638076782227 -22.178314208984375,-18.998455047607422 -20.069801330566406,-18.968402862548828 -17.979881286621094,-18.739370346069336 -15.927200317382812,-18.314006805419922 -13.930070877075195,-17.69671058654785 -12.00631046295166,-16.893579483032227 -10.173084259033203,-15.912365913391113 -8.446751594543457,-14.762398719787598 -6.842721462249756,-13.454506874084473 -5.375313758850098,-12.000920295715332 -4.057635307312012,-10.415164947509766 -2.9014620780944824,-8.711935997009277 -1.9171329736709595,-6.906975746154785 -1.1134613752365112,-5.016927242279053 -0.4976542890071869,-3.0591893196105957 -0.07524944841861725,-1.0517627000808716 0.1499340832233429,0.9869112968444824 0.17582964897155762,3.038113832473755 0.0021415441296994686,5.083014011383057 -0.36965250968933105,7.102837562561035 -0.9363144636154175,9.079030990600586 -1.692874550819397,10.993431091308594 -2.6326754093170166,12.82841968536377 -3.747431993484497,14.567084312438965 -5.0273027420043945,16.19336700439453 -6.4609808921813965,17.692209243774414 -8.03579044342041,19.049680709838867 -9.737801551818848,20.25310707092285 -11.551952362060547,21.291181564331055 -13.462185859680176,22.154064178466797 -15.451589584350586,22.83346939086914 -17.502544403076172,23.32274055480957 -19.596885681152344,23.61690902709961 -21.716060638427734,23.712739944458008 -23.841289520263672,23.608753204345703 -25.953746795654297,23.305246353149414 -28.03470802307129,22.80428695678711 -30.06573486328125,22.109695434570312 -32.02882385253906,21.227008819580078 -33.906578063964844,20.163433074951172 -35.682350158691406,18.92778778076172 -37.340396881103516,17.53040885925293 -38.866024017333984,15.983074188232422 -40.24570846557617,14.298890113830566 -41.46721649169922,12.492180824279785 -42.51971435546875,10.578351974487305 -43.39387893676758,8.573765754699707 -44.08195495605469,6.495587348937988 -44.57783889770508,4.361635684967041 -44.877140045166016,2.1902244091033936 -44.977203369140625,2.455268247828629e-13 -44.877140045166016,-2.1902244091033936 -44.57783889770508,-4.361635684967041 -44.08195495605469,-6.495587348937988 -43.39387893676758,-8.573765754699707 -42.51971435546875,-10.578351974487305 -41.46721649169922,-12.492180824279785 -40.24570846557617,-14.298890113830566 -38.866024017333984,-15.983074188232422 -37.340396881103516,-17.53040885925293 -35.682350158691406,-18.92778778076172 -33.906578063964844,-20.163433074951172 -32.02882385253906,-21.227008819580078 -30.06573486328125,-22.109695434570312 -28.03470802307129,-22.80428695678711 -25.953746795654297,-23.305246353149414 -23.841289520263672,-23.608753204345703 -21.716060638427734,-23.712739944458008 -19.596885681152344,-23.61690902709961 -17.502544403076172,-23.32274055480957 -15.451589584350586,-22.83346939086914 -13.462185859680176,-22.154064178466797 -11.551952362060547,-21.291181564331055 -9.737801551818848,-20.25310707092285 -8.03579044342041,-19.049680709838867 -6.4609808921813965,-17.692209243774414 -5.0273027420043945,-16.19336700439453 -3.747431993484497,-14.567084312438965 -2.6326754093170166,-12.82841968536377 -1.692874550819397,-10.993431091308594 -0.9363144636154175,-9.079030990600586 -0.36965250968933105,-7.102837562561035 0.0021415441296994686,-5.083014011383057 0.17582964897155762,-3.038113832473755 0.1499340832233429,-0.9869112968444824 -0.07524944841861725,1.0517627000808716 -0.4976542890071869,3.0591893196105957 -1.1134613752365112,5.016927242279053 -1.9171329736709595,6.906975746154785 -2.9014620780944824,8.711935997009277 -4.057635307312012,10.415164947509766 -5.375313758850098,12.000920295715332 -6.842721462249756,13.454506874084473 -8.446751594543457,14.762398719787598 -10.173084259033203,15.912365913391113 -12.00631046295166,16.893579483032227 -13.930070877075195,17.69671058654785 -15.927200317382812,18.314006805419922 -17.979881286621094,18.739370346069336 -20.069801330566406,18.968402862548828 -22.178314208984375,18.998455047607422 -24.286605834960938,18.828638076782227 -26.375865936279297,18.459840774536133 -28.42745018005371,17.894716262817383 -30.42304229736328,17.137662887573242 -32.344825744628906,16.194782257080078 -34.175636291503906,15.073823928833008 -35.89911651611328,13.784120559692383 -37.499855041503906,12.336502075195312 -38.96352767944336,10.743200302124023 -40.27703857421875,9.017742156982422 -41.42860412597656,7.1748247146606445 -42.40788650512695,5.230189800262451 -43.2060661315918,3.200483798980713 -43.815948486328125,1.1031063795089722 -44.23198699951172,-1.0439404249191284 -44.45037078857422,-3.2222139835357666 -44.46902084350586,-5.412993907928467 -44.287654876708984,-7.597448348999023 -43.90774154663086,-9.756800651550293 -43.332523345947266,-11.87249755859375 -42.56697082519531,-13.926373481750488 -41.617733001708984,-15.900808334350586 -40.49310302734375,-17.778888702392578 -39.20292663574219,-19.5445556640625 -37.75850296020508,-21.182750701904297 -36.172508239746094,-22.67953872680664 -34.45887756347656,-24.022245407104492 -32.63266372680664,-25.19956398010254 -30.709932327270508,-26.201650619506836 -28.707595825195312,-27.020221710205078 -26.643268585205078,-27.648618698120117 -24.535118103027344,-28.08186912536621 -22.401700973510742,-28.316736221313477 -20.26178741455078,-28.351741790771484 -18.13421058654785,-28.187177658081055 -16.03769302368164,-27.825117111206055 -13.99067497253418,-27.269371032714844 -12.011157989501953,-26.525480270385742 -10.116541862487793,-25.60065269470215 -8.323470115661621,-24.50369644165039 -6.64768648147583,-23.244953155517578 -5.10388708114624,-21.836196899414062 -3.7055983543395996,-20.29053497314453 -2.4650516510009766,-18.62228775024414 -1.3930761814117432,-16.846858978271484 -0.4990035891532898,-14.980613708496094 0.20941583812236786,-13.040711402893066 0.7260812520980835,-11.044971466064453 1.0465959310531616,-9.011706352233887 1.1683061122894287,-6.959560394287109 1.0903241634368896,-4.907346248626709 0.8135371208190918,-2.8738746643066406 0.3405984938144684,-0.877791702747345 -0.32409533858299255,1.0625908374786377 -1.1744441986083984,2.929455518722534 -2.202697992324829,4.7056379318237305 -3.3995256423950195,6.374778747558594 -4.754097938537598,7.92147159576416 -6.254184722900391,9.33139419555664 -7.886260032653809,10.591442108154297 -9.635626792907715,11.689841270446777 -11.486543655395508,12.616250038146973 -13.42236614227295,13.361856460571289 -15.42569637298584,13.919456481933594 -17.478530883789062,14.283510208129883 -19.562429428100586,14.450201034545898 -21.658672332763672,14.417461395263672 -23.748430252075195,14.184996604919434 -25.812923431396484,13.75428581237793 -27.83360481262207,13.12856674194336 -29.792306900024414,12.312810897827148 -31.671409606933594,11.313674926757812 -33.454002380371094,10.139445304870605 -35.124027252197266,8.799962997436523 -36.66642379760742,7.3065361976623535 -38.067256927490234,5.671842575073242 -39.31386184692383,3.909811019897461 -40.39492416381836,2.035503387451172 -41.300601959228516,0.06497859954833984 -42.022621154785156,-1.9848498106002808 -42.5543098449707,-4.096363544464111 -42.890708923339844,-6.2513957023620605 -43.0285758972168,-8.43139362335205 -42.966434478759766,-10.617579460144043 -42.70458221435547,-12.791122436523438 -42.245086669921875,-14.933302879333496 -41.591766357421875,-17.025676727294922 -40.75015640258789,-19.050243377685547 -39.72746276855469,-20.989601135253906 -38.53251266479492,-22.82710838317871 -37.175628662109375,-24.54701805114746 -35.66859436035156,-26.134634017944336 -34.02451705932617,-27.576431274414062 -32.25771713256836,-28.86017608642578 -30.38360595703125,-29.97504234313965 -28.41853904724121,-30.911693572998047 -26.379684448242188,-31.662382125854492 -24.28485870361328,-32.221004486083984 -22.152376174926758,-32.58316421508789 -20.000883102416992,-32.74620819091797 -17.849191665649414,-32.70924758911133 -15.71611499786377,-32.47317123413086 -13.620299339294434,-32.040626525878906 -11.580058097839355,-31.416017532348633 -9.613208770751953,-30.605436325073242 -7.736917495727539,-29.616636276245117 -5.967543601989746,-28.458948135375977 -4.320496559143066,-27.143199920654297 -2.8100967407226562,-25.681623458862305 -1.44945228099823,-24.087739944458008 -0.2503378987312317,-22.376251220703125 0.7769055366516113,-20.56289291381836 1.6234650611877441,-18.66431427001953 2.282133102416992,-16.69791030883789 2.7473714351654053,-14.681683540344238 3.0153608322143555,-12.634075164794922 3.084033489227295,-10.573803901672363 2.953094244003296,-8.519699096679688 2.6240198612213135,-6.490538120269775 2.1000478267669678,-4.5048723220825195 1.3861476182937622,-2.580866575241089 0.4889763593673706,-0.7361382842063904 -0.5831811428070068,1.0124001502990723 -1.8204846382141113,2.648691415786743 -3.2116262912750244,4.157674789428711 -4.743931770324707,5.525420665740967 -6.403470993041992,6.739255905151367 -8.17518424987793,7.787871837615967 -10.043012619018555,8.661428451538086 -11.990044593811035,9.351641654968262 -13.998662948608398,9.851855278015137 -16.050701141357422,10.157098770141602 -18.127605438232422,10.26413631439209 -20.210603713989258,10.171489715576172 -22.280866622924805,9.879454612731934 -24.31966781616211,9.39009952545166 -26.308568954467773,8.707243919372559 -28.22957420349121,7.836427211761475 -30.065279006958008,6.784855842590332 -31.79903793334961,5.561343193054199 -33.41511535644531,4.176230430603027 -34.898807525634766,2.6412930488586426 -36.23659896850586,0.9696388244628906 -37.41625213623047,-0.8244110345840454 -38.42693328857422,-2.725447177886963 -39.25931930541992,-4.717109680175781 -39.905662536621094,-6.782233715057373 -40.3598518371582,-8.902998924255371 -40.61750411987305,-11.061094284057617 -40.67595672607422,-13.237871170043945 -40.53432846069336,-15.414517402648926 -40.193504333496094,-17.572219848632812 -39.65613555908203,-19.692333221435547 -38.9266242980957,-21.756542205810547 -38.011070251464844,-23.747028350830078 -36.9172248840332,-25.646629333496094 -35.65441131591797,-27.43897819519043 -34.23347091674805,-29.108675003051758 -32.666629791259766,-30.641389846801758 -30.96741485595703,-32.02402114868164 -29.150524139404297,-33.244789123535156 -27.23169708251953,-34.293357849121094 -25.227582931518555,-35.16090774536133 -23.15557861328125,-35.84023666381836 -21.0336856842041,-36.3258056640625 -18.880348205566406,-36.613792419433594 -16.71428680419922,-36.70212936401367 -14.554330825805664,-36.59052276611328 -12.419257164001465,-36.28044509887695 -10.327619552612305,-35.77513885498047 -8.29758358001709,-35.07957458496094 -6.346768379211426,-34.20040512084961 -4.492087364196777,-33.145912170410156 -2.749598741531372,-31.925941467285156 -1.1343635320663452,-30.551799774169922 0.33968743681907654,-29.036161422729492 1.6598787307739258,-27.392953872680664 2.8149020671844482,-25.637237548828125 3.7949161529541016,-23.78507423400879 4.591635227203369,-21.853370666503906 5.19840145111084,-19.859745025634766 5.6102447509765625,-17.82236671447754 5.823927402496338,-15.759785652160645 5.83797025680542,-13.690775871276855 5.6526689529418945,-11.634170532226562 5.270089626312256,-9.608686447143555 4.694051265716553,-7.632765769958496 3.930091381072998,-5.724410057067871 2.9854159355163574,-3.901017665863037 1.8688380718231201,-2.1792328357696533 0.5906969904899597,-0.5747961401939392 -0.8372323513031006,0.8975947499275208 -2.401843786239624,2.2244155406951904 -4.088817119598389,3.39343523979187 -5.882743835449219,4.393825054168701 -7.767265319824219,5.216254234313965 -9.72521686553955,5.852973937988281 -11.738780975341797,6.297882556915283 -13.789645195007324,6.546584606170654 -15.859164237976074,6.5964274406433105 -17.928525924682617,6.446523666381836 -19.978918075561523,6.097761631011963 -21.991697311401367,5.55279541015625 -23.948549270629883,4.81602144241333 -25.831655502319336,3.8935413360595703 -27.623851776123047,2.793105363845825 -29.30878257751465,1.524045705795288 -30.87103843688965,0.0971919521689415 -32.296295166015625,-1.4752241373062134 -33.571449279785156,-3.1796772480010986 -34.68472671508789,-5.001468181610107 -35.625789642333984,-6.924856185913086 -36.38582229614258,-8.933196067810059 -36.95761489868164,-11.009086608886719 -37.33563995361328,-13.134528160095215 -37.51606750488281,-15.29107666015625 -37.49684143066406,-17.460012435913086 -37.27766418457031,-19.62250328063965 -36.86000442504883,-21.759775161743164 -36.24711608886719,-23.853271484375 -35.44395446777344,-25.88482666015625 -34.45718765258789,-27.836824417114258 -33.29509735107422,-29.692352294921875 -31.967525482177734,-31.435348510742188 -30.485780715942383,-33.050750732421875 -28.862537384033203,-34.524635314941406 -27.11172866821289,-35.84431838989258 -25.248414993286133,-36.998497009277344 -23.288652420043945,-37.97732925415039 -21.24935531616211,-38.772525787353516 -19.148143768310547,-39.37743377685547 -17.003185272216797,-39.787078857421875 -14.833030700683594,-39.998226165771484 -12.65645694732666,-40.009395599365234 -10.492295265197754,-39.82088088989258 -8.359267234802246,-39.43475341796875 -6.275814533233643,-38.85483169555664 -4.2599382400512695,-38.086647033691406 -2.3290398120880127,-37.13740539550781 -0.49976351857185364,-36.01593017578125 1.2121487855911255,-34.73255157470703 2.7919981479644775,-33.29904556274414 4.226259231567383,-31.7285213470459 5.502700328826904,-30.03529930114746 6.610491752624512,-28.234785079956055 7.540301322937012,-26.343338012695312 8.284377098083496,-24.378124237060547 8.836620330810547,-22.35696029663086 9.192632675170898,-20.298160552978516 9.349760055541992,-18.220365524291992 9.307114601135254,-16.142393112182617 9.065583229064941,-14.083052635192871 8.62781810760498,-12.060990333557129 7.99821662902832,-10.094517707824707 7.182878017425537,-8.201452255249023 6.18955135345459,-6.398959636688232 5.027568340301514,-4.703398704528809 3.7077572345733643,-3.1301772594451904 2.2423489093780518,-1.6936159133911133 0.6448675990104675,-0.4068209230899811 -1.0699890851974487,0.7184326648712158 -2.8864805698394775,1.6718051433563232 -4.787962913513184,2.4444844722747803 -6.757037162780762,3.0292630195617676 -8.775702476501465,3.4206044673919678 -10.825517654418945,3.6146891117095947 -12.887763023376465,3.6094510555267334 -14.943609237670898,3.404594659805298 -16.974279403686523,3.001598358154297 -18.961223602294922,2.4036998748779297 -20.886274337768555,1.6158697605133057 -22.731815338134766,0.6447654366493225 -24.48093605041504,-0.5013271570205688 -26.11757469177246,-1.812567114830017 -27.62667465209961,-3.27764630317688 -28.994304656982422,-4.883889198303223 -30.20779037475586,-6.617364883422852 -31.25582504272461,-8.4630126953125 -32.128570556640625,-10.40477466583252 -32.8177375793457,-12.425737380981445 -33.316673278808594,-14.508280754089355 -33.62040710449219,-16.634241104125977 -33.725704193115234,-18.785064697265625 -33.631080627441406,-20.941974639892578 -33.33684158325195,-23.086137771606445 -32.84504699707031,-25.198837280273438 -32.159523010253906,-27.261629104614258 -31.28580093383789,-29.256513595581055 -30.231094360351562,-31.166088104248047 -29.004215240478516,-32.97370910644531 -27.615503311157227,-34.66363525390625 -26.07673454284668,-36.221168518066406 -24.401020050048828,-37.632781982421875 -22.60267448425293,-38.88624572753906 -20.697111129760742,-39.970726013183594 -18.7006893157959,-40.87689971923828 -16.63057518005371,-41.59701156616211 -14.50458812713623,-42.12495422363281 -12.341039657592773,-42.45634078979492 -10.158577919006348,-42.5885124206543 -7.976014614105225,-42.52058410644531 -5.812163352966309,-42.25344467163086 -3.685671091079712,-41.78973388671875 -1.6148507595062256,-41.13386535644531 0.3824785351753235,-40.29193115234375 2.289151430130005,-39.27168273925781 4.088807582855225,-38.08244705200195 5.766038417816162,-36.73505783081055 7.306521892547607,-35.24174499511719 8.697150230407715,-33.616031646728516 9.926148414611816,-31.872621536254883 10.983175277709961,-30.027246475219727 11.859417915344238,-28.0965576171875 12.547667503356934,-26.097949981689453 13.042386054992676,-24.049427032470703 13.339754104614258,-21.96942901611328 13.437705039978027,-19.876676559448242 13.335939407348633,-17.78999900817871 13.035937309265137,-15.728174209594727 12.540934562683105,-13.709752082824707 11.855901718139648,-11.752900123596191 10.987492561340332,-9.875235557556152 9.943994522094727,-8.093669891357422 8.735246658325195,-6.424261569976807 7.372556209564209,-4.882071495056152 5.868597984313965,-3.481029510498047 4.237300872802734,-2.2338099479675293 2.493725061416626,-1.1517207622528076 0.6539281010627747,-0.24460217356681824 -1.265177607536316,0.4792605936527252 -3.2459750175476074,1.0132105350494385 -5.270298480987549,1.352278470993042 -7.319596767425537,1.4932262897491455 -9.375093460083008,1.4345767498016357 -11.417959213256836,1.1766260862350464 -13.429473876953125,0.7214409112930298 -15.39119815826416,0.07284096628427505 -17.28512954711914,-0.7636358737945557 -19.093870162963867,-1.7807821035385132 -20.8007755279541,-2.969784736633301 -22.390104293823242,-4.320303440093994 -23.84716033935547,-5.820562362670898 -25.15842056274414,-7.457455158233643 -26.311649322509766,-9.216660499572754 -27.2960262298584,-11.082769393920898 -28.10221290588379,-13.039422035217285 -28.722461700439453,-15.069453239440918 -29.15067481994629,-17.155046463012695 -29.382457733154297,-19.277883529663086 -29.415151596069336,-21.41932487487793 -29.247875213623047,-23.56055450439453 -28.881513595581055,-25.682758331298828 -28.318723678588867,-27.767295837402344 -27.563899993896484,-29.795846939086914 -26.623144149780273,-31.75059700012207 -25.504207611083984,-33.6143798828125 -24.2164249420166,-35.3708381652832 -22.77062225341797,-37.00455856323242 -21.179031372070312,-38.501224517822266 -19.455181121826172,-39.84772872924805 -17.613767623901367,-41.032291412353516 -15.670533180236816,-42.04457473754883 -13.64212417602539,-42.87576675415039 -11.545939445495605,-43.5186653137207 -9.399982452392578,-43.96772003173828 -7.2226948738098145,-44.219120025634766 -5.032796859741211,-44.27079391479492 -2.84912109375,-44.12245178222656 -0.6904428601264954,-43.775569915771484 1.4246835708618164,-43.233375549316406 3.4780917167663574,-42.5008544921875 5.452163219451904,-41.584651947021484 7.329984664916992,-40.49305725097656 9.095497131347656,-39.23591232299805 10.733638763427734,-37.82452392578125 12.230478286743164,-36.27156066894531 13.573342323303223,-34.59096145629883 14.750919342041016,-32.79778289794922 15.753371238708496,-30.9080867767334 16.572406768798828,-28.938777923583984 17.201374053955078,-26.907480239868164 17.635299682617188,-24.832359313964844 17.87094497680664,-22.731966018676758 17.90683364868164,-20.62507438659668 17.743255615234375,-18.530519485473633 17.382282257080078,-16.467018127441406 16.827730178833008,-14.453012466430664 16.08513641357422,-12.506503105163574 15.16170883178711,-10.644891738891602 14.06625747680664,-8.884820938110352 12.809122085571289,-7.242031574249268 11.402077674865723,-5.731222629547119 9.858230590820312,-4.365918159484863 8.191902160644531,-3.1583499908447266 6.418497562408447,-2.1193466186523438 4.55437707901001,-1.25823974609375 2.6167047023773193,-0.5827793478965759 0.6232980489730835,-0.09906566888093948 -1.4075305461883545,0.18850478529930115 -3.457136392593384,0.27727842330932617 -5.506707191467285,0.16636817157268524 -7.537431716918945,-0.1433386504650116 -9.530664443969727,-0.6491883397102356 -11.468092918395996,-1.3467841148376465 -13.331900596618652,-2.230025291442871 -15.1049222946167,-3.2911617755889893 -16.77079963684082,-4.520862102508545 -18.314125061035156,-5.908297061920166 -19.720579147338867,-7.441234588623047 -20.977052688598633,-9.10615062713623 -22.071775436401367,-10.888346672058105 -22.994403839111328,-12.772080421447754 -23.736129760742188,-14.740708351135254 -24.28974151611328,-16.776830673217773 -24.649707794189453,-18.862445831298828 -24.812206268310547,-20.97911262512207 -24.775171279907227,-23.108110427856445 -24.538311004638672,-25.230607986450195 -24.103097915649414,-27.32782745361328 -23.472776412963867,-29.3812198638916 -22.652313232421875,-31.372617721557617 -21.64836883544922,-33.284400939941406 -20.469228744506836,-35.09966278076172 -19.124732971191406,-36.802337646484375 -17.626188278198242,-38.37736892700195 -15.986276626586914,-39.81082534790039 -14.218923568725586,-41.09003448486328 -12.339192390441895,-42.203678131103516 -10.363141059875488,-43.141929626464844 -8.307683944702148,-43.8964958190918 -6.1904401779174805,-44.46072006225586 -4.029574871063232,-44.82963562011719 -1.8436425924301147,-45 0.34858059883117676,-44.970333099365234 2.5282630920410156,-44.74094009399414 4.6766839027404785,-44.31388473510742 6.7754011154174805,-43.6929817199707 8.806411743164062,-42.88376998901367 10.752317428588867,-41.893463134765625 12.59646987915039,-40.730865478515625 14.323129653930664,-39.40632247924805 15.917597770690918,-37.93160629272461 17.366348266601562,-36.319820404052734 18.657148361206055,-34.58529281616211 19.77916717529297,-32.743431091308594 20.72307777404785,-30.810592651367188 21.481124877929688,-28.803939819335938 22.047204971313477,-26.741296768188477 22.41692543029785,-24.64097023010254 22.587631225585938,-22.5216121673584 22.558433532714844,-20.402029037475586 22.330219268798828,-18.30103874206543 21.9056396484375,-16.237281799316406 21.289093017578125,-14.22907543182373 20.486677169799805,-12.294235229492188 19.506141662597656,-10.44992733001709 18.35681915283203,-8.71251106262207 17.049537658691406,-7.097394943237305 15.596528053283691,-5.618899822235107 14.011312484741211,-4.29013204574585 12.308588981628418,-3.1228673458099365 10.504098892211914,-2.127445936203003 8.614486694335938,-1.3126803636550903 6.657149791717529,-0.685778021812439 4.650089263916016,-0.25227659940719604 2.6117465496063232,-0.015995483845472336 0.5608407258987427,0.02099868282675743 -1.4837980270385742,-0.1415899693965912 -3.503394603729248,-0.5022838115692139 -5.479397296905518,-1.057844877243042 -7.393640041351318,-1.803303599357605 -9.228506088256836,-2.7320027351379395 -10.967083930969238,-3.8356568813323975 -12.593314170837402,-5.104425430297852 -14.09213924407959,-6.527000904083252 -15.449627876281738,-8.090707778930664 -16.653106689453125,-9.7816162109375 -17.691268920898438,-11.584665298461914 -18.554271697998047,-13.483797073364258 -19.23383331298828,-15.462099075317383 -19.723299026489258,-17.501953125 -20.0176944732666,-19.585193634033203 -20.113786697387695,-21.693267822265625 -20.010095596313477,-23.80739974975586 -19.706918716430664,-25.90875816345215 -19.206327438354492,-27.97862434387207 -18.512134552001953,-29.99855613708496 -17.6298828125,-31.950551986694336 -16.566781997680664,-33.81721115112305 -15.331640243530273,-35.58189392089844 -13.934802055358887,-37.228851318359375 -12.388042449951172,-38.74339294433594 -10.704468727111816,-40.11198806762695 -8.89840316772461,-41.322410583496094 -6.985255241394043,-42.363834381103516 -4.981383323669434,-43.22691345214844 -2.903954267501831,-43.90391159057617 -0.7707868814468384,-44.38872528076172 1.3998054265975952,-44.67694854736328 3.5891761779785156,-44.76594161987305 5.778512477874756,-44.654815673828125 7.948999881744385,-44.34444808959961 10.08199405670166,-43.837501525878906 12.159178733825684,-43.138370513916016 14.162737846374512,-42.253150939941406 16.075504302978516,-41.18960189819336 17.881118774414062,-39.95704650878906 19.564170837402344,-38.56631851196289 21.11033821105957,-37.0296516418457 22.50651741027832,-35.36056137084961 23.74092674255371,-33.57375717163086 24.80323028564453,-31.684974670410156 25.68461036682129,-29.710861206054688 26.37786293029785,-27.668811798095703 26.877450942993164,-25.576831817626953 27.179548263549805,-23.4533634185791 27.282093048095703,-21.31712532043457 27.184782028198242,-19.186946868896484 26.889102935791016,-17.081607818603516 26.398283004760742,-15.019658088684082 25.717296600341797,-13.019265174865723 24.852798461914062,-11.09804630279541 23.813072204589844,-9.272915840148926 22.607959747314453,-7.55993127822876 21.248769760131836,-5.9741530418396 19.7481746673584,-4.529512405395508 18.120101928710938,-3.2386839389801025 16.379613876342773,-2.112975597381592 14.542768478393555,-1.1622284650802612 12.626477241516113,-0.39472827315330505 10.648358345031738,0.1828678548336029 8.62657356262207,0.5655900239944458 6.579678535461426,0.7502000331878662 4.526447296142578,0.7352200150489807 2.4857101440429688,0.5209456086158752 0.4761858284473419,0.10944338142871857 -1.4836838245391846,-0.4954677224159241 -3.3758983612060547,-1.2882500886917114 -5.183059215545654,-2.2616968154907227 -6.888521671295166,-3.4069950580596924 -8.476546287536621,-4.713804721832275 -9.932435035705566,-6.170351505279541 -11.242664337158203,-7.763528347015381 -12.395001411437988,-9.47901439666748 -13.378621101379395,-11.301401138305664 -14.184189796447754,-13.214329719543457 -14.803958892822266,-15.20063591003418 -15.231829643249512,-17.24250030517578 -15.463404655456543,-19.321613311767578 -15.496030807495117,-21.41932487487793 -15.328822135925293,-23.516826629638672 -14.962668418884277,-25.595304489135742 -14.40022087097168,-27.636112213134766 -13.645877838134766,-29.62093734741211 -12.705740928649902,-31.531963348388672 -11.587560653686523,-33.352027893066406 -10.300668716430664,-35.06476593017578 -8.85589599609375,-36.6547737121582 -7.26547384262085,-38.107723236083984 -5.542927265167236,-39.410518646240234 -3.702955961227417,-40.55137634277344 -1.761301875114441,-41.519962310791016 0.26539063453674316,-42.30746078491211 2.3597207069396973,-42.90666580200195 4.503686904907227,-43.31203842163086 6.6788458824157715,-43.5197639465332 8.866477966308594,-43.52777099609375 11.047751426696777,-43.33576202392578 13.203888893127441,-42.94522476196289 15.316338539123535,-42.35939025878906 17.366933822631836,-41.58322525024414 19.33805274963379,-40.62339782714844 21.212785720825195,-39.488182067871094 22.97507095336914,-38.18742752075195 24.609851837158203,-36.73244094848633 26.103193283081055,-35.13589096069336 27.442419052124023,-33.41171646118164 28.61622428894043,-31.574974060058594 29.614765167236328,-29.641721725463867 30.42975616455078,-27.628873825073242 31.05453872680664,-25.554048538208008 31.48414421081543,-23.43541145324707 31.71533203125,-21.29151725769043 31.746625900268555,-19.141141891479492 31.578319549560547,-17.003114700317383 31.212478637695312,-14.896156311035156 30.652923583984375,-12.838709831237793 29.905189514160156,-10.848775863647461 28.976486206054688,-8.943755149841309 27.87562370300293,-7.140292167663574 26.612937927246094,-5.454128265380859 25.20020866394043,-3.8999624252319336 23.650541305541992,-2.491318941116333 21.978254318237305,-1.2404301166534424 20.19875717163086,-0.1581254005432129 18.328407287597656,0.7462637424468994 16.384368896484375,1.4649866819381714 14.384462356567383,1.9919425249099731 12.34699535369873,2.3227345943450928 10.290617942810059,2.4547085762023926 8.234138488769531,2.386977434158325 6.1963701248168945,2.1204276084899902 4.195957660675049,1.6577129364013672 2.251213788986206,1.0032291412353516 0.3799557685852051,0.16307660937309265 -1.4006518125534058,-0.8549947142601013 -3.0742504596710205,-2.041653871536255 -4.62543249130249,-3.3860721588134766 -6.039876461029053,-4.876018047332764 -7.304477691650391,-6.497967720031738 -8.40746021270752,-8.237222671508789 -9.338485717773438,-10.078042030334473 -10.088741302490234,-12.003782272338867 -10.651020050048828,-13.99704360961914 -11.019784927368164,-16.039825439453125 -11.191219329833984,-18.113685607910156 -11.163254737854004,-20.199905395507812 -10.935595512390137,-22.279653549194336 -10.509721755981445,-24.334156036376953 -9.888873100280762,-26.344858169555664 -9.07801628112793,-28.293594360351562 -8.083810806274414,-30.162750244140625 -6.914544105529785,-31.93541145324707 -5.5800557136535645,-33.59552001953125 -4.0916547775268555,-35.128013610839844 -2.4620165824890137,-36.51896667480469 -0.7050719261169434,-37.75570297241211 1.164117693901062,-38.826908111572266 3.1294937133789062,-39.722755432128906 5.174142360687256,-40.43495178222656 7.280445098876953,-40.95683670043945 9.43023681640625,-41.283451080322266 11.604960441589355,-41.41154479980469 13.785844802856445,-41.33964920043945 15.954054832458496,-41.06806182861328 18.090871810913086,-40.59884262084961 20.17784881591797,-39.93581771850586 22.196992874145508,-39.08451843261719 24.130895614624023,-38.052162170410156 25.962913513183594,-36.84755325317383 27.67730712890625,-35.48103713989258 29.25937843322754,-33.964385986328125 30.695598602294922,-32.310707092285156 31.973739624023438,-30.534324645996094 33.082969665527344,-28.65064811706543 34.013954162597656,-26.67603302001953 34.75894546508789,-24.627649307250977 35.31184005737305,-22.5233097076416 35.668243408203125,-20.38133430480957 35.82550048828125,-18.220365524291992 35.7827262878418,-16.05921745300293 35.540802001953125,-13.916701316833496 35.10238265991211,-11.811466217041016 34.471866607666016,-9.761822700500488 33.65535354614258,-7.785589694976807 32.66059112548828,-5.899933338165283 31.49690818786621,-4.121213436126709 30.17513656616211,-2.464839458465576 28.707509994506836,-0.9451316595077515 27.1075439453125,0.4248022437095642 25.38994598388672,1.6331865787506104 23.570449829101562,2.669680595397949 21.66570281982422,3.5254719257354736 19.69310188293457,4.193351745605469 17.6706485748291,4.667782783508301 15.616785049438477,4.944944858551025 13.5502290725708,5.022770881652832 11.489812850952148,4.900964736938477 9.454310417175293,4.5810041427612305 7.46227502822876,4.066125392913818 5.5318708419799805,3.3612987995147705 3.680715560913086,2.4731810092926025 1.9257220029830933,1.410056471824646 0.28294748067855835,0.18176588416099548 -1.232547640800476,-1.2003834247589111 -2.6068339347839355,-2.7237167358398438 -3.827237129211426,-4.374305248260498 -4.882449626922607,-6.137087345123291 -5.762630462646484,-7.996006488800049 -6.459496021270752,-9.934148788452148 -6.9663896560668945,-11.933899879455566 -7.278341293334961,-13.977089881896973 -7.39211368560791,-16.045169830322266 -7.306230068206787,-18.11936378479004 -7.020987033843994,-20.18083953857422 -6.538450241088867,-22.210880279541016 -5.862441539764404,-24.191043853759766 -4.998497486114502,-26.10332679748535 -3.953826904296875,-27.930334091186523 -2.7372424602508545,-29.655418395996094 -1.3590850830078125,-31.262842178344727 0.16886943578720093,-32.7379035949707 1.8335140943527222,-34.067081451416016 3.6205272674560547,-35.2381477355957 5.514500141143799,-36.24026107788086 7.499072074890137,-37.064109802246094 9.55707836151123,-37.701927185058594 11.670700073242188,-38.147621154785156 13.821624755859375,-38.396793365478516 15.991204261779785,-38.44679641723633 18.160627365112305,-38.29673385620117 20.311079025268555,-37.94750213623047 22.42391586303711,-37.40174865722656 24.48082160949707,-36.663875579833984 26.463977813720703,-35.7399787902832 28.356224060058594,-34.6378173828125 30.141193389892578,-33.36671447753906 31.803478240966797,-31.937501907348633 33.32876205444336,-30.36241340637207 34.70393371582031,-28.65497589111328 35.91721725463867,-26.829883575439453 36.958274841308594,-24.902881622314453 37.81829071044922,-22.890613555908203 38.49005889892578,-20.81048011779785 38.968040466308594,-18.680482864379883 39.248409271240234,-16.51906394958496 39.32910919189453,-14.344943046569824 39.2098388671875,-12.17695426940918 38.89207458496094,-10.033870697021484 38.379058837890625,-7.934248447418213 37.675750732421875,-5.896251678466797 36.788814544677734,-3.937500238418579 35.72653579711914,-2.074906826019287 34.49875259399414,-0.3245304822921753 33.11677169799805,1.298567533493042 31.59326934814453,2.780456781387329 29.94217300415039,4.108461856842041 28.178546905517578,5.271273612976074 26.318445205688477,6.25905179977417 24.378780364990234,7.063509941101074 22.377172470092773,7.677990436553955 20.331783294677734,8.097522735595703 18.26116943359375,8.318867683410645 16.184101104736328,8.34054946899414 14.119413375854492,8.162860870361328 12.085824966430664,7.787868976593018 10.101775169372559,7.219393253326416 8.185266494750977,6.4629693031311035 6.353697776794434,5.52580451965332 4.62371301651001,4.416711807250977 3.0110528469085693,3.1460301876068115 1.5304150581359863,1.7255339622497559 0.19532403349876404,0.16832982003688812 -0.9819891452789307,-1.511262059211731 -1.9906957149505615,-3.2978334426879883 -2.8214645385742188,-5.175025463104248 -3.4665462970733643,-7.125674247741699 -3.9198405742645264,-9.131961822509766 -4.176950931549072,-11.175575256347656 -4.235225200653076,-13.237871170043945 -4.093775272369385,-15.300036430358887 -3.7534894943237305,-17.343257904052734 -3.217021942138672,-19.34889030456543 -2.488769292831421,-21.298625946044922 -1.574832797050476,-23.174640655517578 -0.4829626977443695,-24.959775924682617 0.7775091528892517,-26.637670516967773 2.1957530975341797,-28.192914962768555 3.7595369815826416,-29.611190795898438 5.455336093902588,-30.8793888092041 7.268451690673828,-31.98573875427246 9.18314266204834,-32.919898986816406 11.18276309967041,-33.673057556152344 13.249914169311523,-34.238006591796875 15.366592407226562,-34.60921096801758 17.51435661315918,-34.78285217285156 19.674488067626953,-34.75686264038086 21.828153610229492,-34.53094482421875 23.95657730102539,-34.1065788269043 26.04120635986328,-33.48701095581055 28.063873291015625,-32.67719650268555 30.006961822509766,-31.68380355834961 31.853557586669922,-30.515119552612305 33.58760452270508,-29.180978775024414 35.194034576416016,-27.69269561767578 36.65892791748047,-26.06294059753418 37.96959686279297,-24.305646896362305 39.11473846435547,-22.435876846313477 40.08451843261719,-20.469688415527344 40.87063980102539,-18.423994064331055 41.46645736694336,-16.31641387939453 41.86698913574219,-14.165111541748047 42.06900405883789,-11.988645553588867 42.07101821899414,-9.805787086486816 41.87333297729492,-7.635371685028076 41.47801208496094,-5.496117115020752 40.888877868652344,-3.406466484069824 40.1114616394043,-1.3844223022460938 39.15297317504883,0.5526155829429626 38.02222442626953,2.3880019187927246 36.729557037353516,4.105995178222656 35.2867431640625,5.691896438598633 33.70689392089844,7.1321797370910645 32.00432205200195,8.4146146774292 30.19444465637207,9.528369903564453 28.29361343383789,10.464113235473633 26.318998336791992,11.214095115661621 24.28841209411621,11.772212028503418 22.220172882080078,12.13407039642334 20.132923126220703,12.297013282775879 18.045473098754883,12.260154724121094 15.976639747619629,12.024378776550293 13.945064544677734,11.592341423034668 11.969062805175781,10.968436241149902 10.066450119018555,10.158763885498047 8.254392623901367,9.171073913574219 6.549248695373535,8.014697074890137 4.966426372528076,6.700462818145752 3.520247220993042,5.2406005859375 2.2238168716430664,3.6486353874206543 1.0889105796813965,1.9392642974853516 0.12586824595928192,0.12822821736335754 -0.6564977765083313,-1.767829179763794 -1.2509807348251343,-3.731508731842041 -1.6520426273345947,-5.744810104370117 -1.8558650016784668,-7.789291858673096 -1.8603811264038086,-9.846235275268555 -1.6652958393096924,-11.896808624267578 -1.2720867395401,-13.922237396240234 -0.6839922666549683,-15.903970718383789 0.09401758760213852,-17.823843002319336 1.0552854537963867,-19.664236068725586 2.191525459289551,-21.408235549926758 3.4928970336914062,-23.03978729248047 4.948091506958008,-24.543832778930664 6.54443359375,-25.906436920166016 8.267993927001953,-27.11492919921875 10.103710174560547,-28.158002853393555 12.03552532196045,-29.025815963745117 14.046524047851562,-29.7100830078125 16.119091033935547,-30.204151153564453 18.235057830810547,-30.5030460357666 20.375871658325195,-30.603534698486328 22.522756576538086,-30.504138946533203 24.656883239746094,-30.205156326293945 26.75952911376953,-29.708650588989258 28.812253952026367,-29.01844596862793 30.797054290771484,-28.140077590942383 32.696533203125,-27.08075523376465 34.494041442871094,-25.84929084777832 36.17384338378906,-24.456024169921875 37.72123336791992,-22.912736892700195 39.12269592285156,-21.23253059387207 40.36598587036133,-19.429729461669922 41.44028854370117,-17.519739151000977 42.33626174926758,-15.518925666809082 43.046165466308594,-13.444450378417969 43.56388473510742,-11.314132690429688 43.88503646850586,-9.14628791809082 44.006954193115234,-6.959560394287109 43.92876052856445,-4.772764682769775 43.651344299316406,-2.6047134399414062 43.17734909057617,-0.47405290603637695 42.511173248291016,1.6009031534194946 41.65892028808594,3.6023356914520264 40.62834167480469,5.5130791664123535 39.42876434326172,7.316773891448975 38.07102584838867,8.998010635375977 36.567344665527344,10.542468070983887 34.931251525878906,11.937037467956543 33.17744827270508,13.169943809509277 31.321670532226562,14.230846405029297 29.380563735961914,15.110930442810059 27.37152862548828,15.802990913391113 25.312564849853516,16.30148696899414 23.22211265563965,16.60260009765625 21.118896484375,16.704259872436523 19.021743774414062,16.60617446899414 16.949432373046875,16.309818267822266 14.920513153076172,15.818428993225098 12.95315170288086,15.136974334716797 11.06496524810791,14.272112846374512 9.272867202758789,13.232129096984863 7.592916965484619,12.026861190795898 6.040173053741455,10.667618751525879 4.628566741943359,9.167074203491211 3.370771884918213,7.539157867431641 2.278096914291382,5.7989301681518555 1.360382080078125,3.9624478816986084 0.6259127259254456,2.046623468399048 0.08134590834379196,0.0690738782286644 -0.26834893226623535,-1.9520353078842163 -0.41993385553359985,-3.998152017593384 -0.37193137407302856,-6.050501346588135 -0.1246374323964119,-8.090252876281738 0.3198810815811157,-10.098688125610352 0.9578049182891846,-12.057364463806152 1.7835960388183594,-13.948281288146973 2.7900471687316895,-15.75404167175293 3.9683454036712646,-17.45800018310547 5.308150291442871,-19.044416427612305 6.79768705368042,-20.498594284057617 8.423848152160645,-21.8070068359375 10.172311782836914,-22.957427978515625 12.027671813964844,-23.939023971557617 13.973566055297852,-24.74246597290039 15.992831230163574,-25.360004425048828 18.06764793395996,-25.78554344177246 20.179702758789062,-26.014680862426758 22.310352325439453,-26.044767379760742 24.44078254699707,-25.874916076660156 26.55217933654785,-25.506013870239258 28.625898361206055,-24.940717697143555 30.643625259399414,-24.183420181274414 32.587547302246094,-23.240224838256836 34.44049072265625,-22.118885040283203 36.186100006103516,-20.8287296295166 37.80896759033203,-19.38058853149414 39.294776916503906,-17.786697387695312 40.63040542602539,-16.060577392578125 41.80409622192383,-14.21692943572998 42.80550003051758,-12.27149486541748 43.62580108642578,-10.240920066833496 44.2578010559082,-8.14260482788086 44.695953369140625,-5.994549751281738 44.93644714355469,-3.8151986598968506 44.97720718383789,-1.6232718229293823 44.81793975830078,0.5623988509178162 44.46012878417969,2.7230372428894043 43.907005310058594,4.840089797973633 43.163543701171875,6.895390033721924 42.236392974853516,8.871318817138672 41.133846282958984,10.75096321105957 39.86574172973633,12.518263816833496 38.443389892578125,14.158159255981445 36.879459381103516,15.656718254089355 35.187889099121094,17.00126838684082 33.383731842041016,18.180496215820312 31.483047485351562,19.18456268310547 29.502750396728516,20.00518226623535 27.460458755493164,20.635696411132812 25.374338150024414,21.071134567260742 23.262941360473633,21.308256149291992 21.145042419433594,21.3455867767334 19.039472579956055,21.183420181274414 16.964954376220703,20.823820114135742 14.93992805480957,20.27060890197754 12.982393264770508,19.529319763183594 11.109752655029297,18.607162475585938 9.338647842407227,17.5129451751709 7.684821128845215,16.25701141357422 6.162971019744873,14.851133346557617 4.786621570587158,13.308418273925781 3.568005084991455,11.64318561553955 2.5179502964019775,9.870843887329102 1.6457884311676025,8.007750511169434 0.9592698812484741,6.071071147918701 0.4644950330257416,4.078622817993164 0.16586051881313324,2.0487172603607178 0.0660199448466301,4.800212419393823e-13"
  />
</svg>
