<?xml version="1.0" encoding="UTF-8"?>
<!DOCTYPE svg>
<svg
  data-animation-duration="3s"
  viewBox="-50 -50 100 100"
>
  <title>
    ANIMATION 31 - VARIATION I
  </title>
  <desc>
    <p>See this animation in action here: <a href="https://andrew.wang-hoyer.com/experiments/svg-animations/31/i" target="_blank" rel="noopener">https://andrew.wang-hoyer.com/experiments/svg-animations/31/i</a>.</p>
    <p>Generator source code : <a href="https://github.com/ndrwhr/svg-animation-src/tree/master/site/_svgs/generators/animations/31/i.js" target="_blank" rel="noopener">https://github.com/ndrwhr/svg-animation-src/tree/master/site/_svgs/generators/animations/31/i.js</a>.</p>
    <p>All generated files and source code are released under the following license:</p>
    <p>MIT License</p>
    <p>Copyright (c) 2018-present Andrew Hoyer</p>
    <p>Permission is hereby granted, free of charge, to any person obtaining a copy of this software and associated documentation files (the &quot;Software&quot;), to deal in the Software without restriction, including without limitation the rights to use, copy, modify, merge, publish, distribute, sublicense, and/or sell copies of the Software, and to permit persons to whom the Software is furnished to do so, subject to the following conditions:</p>
    <p>The above copyright notice and this permission notice shall be included in all copies or substantial portions of the Software.</p>
    <p>THE SOFTWARE IS PROVIDED &quot;AS IS&quot;, WITHOUT WARRANTY OF ANY KIND, EXPRESS OR IMPLIED, INCLUDING BUT NOT LIMITED TO THE WARRANTIES OF MERCHANTABILITY, FITNESS FOR A PARTICULAR PURPOSE AND NONINFRINGEMENT. IN NO EVENT SHALL THE AUTHORS OR COPYRIGHT HOLDERS BE LIABLE FOR ANY CLAIM, DAMAGES OR OTHER LIABILITY, WHETHER IN AN ACTION OF CONTRACT, TORT OR OTHERWISE, ARISING FROM, OUT OF OR IN CONNECTION WITH THE SOFTWARE OR THE USE OR OTHER DEALINGS IN THE SOFTWARE.</p>
  </desc>
  <style>
    /* <![CDATA[ */
      .svg-31-i-polyline {
        stroke: black;
        stroke-width: .1;
        fill: none;
        stroke-dasharray: 4%, 4%, 1%, 1%;
        animation: svg-31-i-main-anim 3s linear infinite;
      }
      
      @keyframes svg-31-i-main-anim {
        from {
          stroke-dashoffset: 0;
        }
      
        to {
          stroke-dashoffset: 10%;
        }
      }
      
    /* ]]> */
  </style>
  <polyline
    class="svg-31-i-polyline"
    points="45,0 44.981101989746094,0.7915104627609253 44.924415588378906,1.5819960832595825 44.83000183105469,2.3704333305358887 44.697959899902344,3.1558003425598145 44.528411865234375,3.937079429626465 44.32152557373047,4.713257789611816 44.0775032043457,5.483326435089111 43.79658889770508,6.246285438537598 43.47905349731445,7.0011420249938965 43.125213623046875,7.746912002563477 42.735416412353516,8.482623100280762 42.31004333496094,9.207311630249023 41.849517822265625,9.920027732849121 41.35428237915039,10.619834899902344 40.824825286865234,11.305813789367676 40.26167297363281,11.977054595947266 39.665374755859375,12.632669448852539 39.03651428222656,13.271784782409668 38.375709533691406,13.893548965454102 37.68360137939453,14.497125625610352 36.96088409423828,15.081701278686523 36.208251953125,15.646484375 35.42644500732422,16.190704345703125 34.61623001098633,16.71361541748047 33.77840042114258,17.21449089050293 32.91377258300781,17.692636489868164 32.023189544677734,18.147380828857422 31.107526779174805,18.57807159423828 30.167673110961914,18.984094619750977 29.204547882080078,19.364858627319336 28.21908950805664,19.719799041748047 27.212257385253906,20.048381805419922 26.18503189086914,20.35010528564453 25.138408660888672,20.624494552612305 24.07341194152832,20.87110710144043 22.991069793701172,21.08953094482422 21.892433166503906,21.279390335083008 20.778568267822266,21.440336227416992 19.650554656982422,21.57205581665039 18.509483337402344,21.674266815185547 17.35645294189453,21.746719360351562 16.192581176757812,21.78920555114746 15.018987655639648,21.801544189453125 13.83680534362793,21.783586502075195 12.64716911315918,21.735225677490234 11.45122241973877,21.656383514404297 10.250112533569336,21.547019958496094 9.044990539550781,21.407129287719727 7.837009429931641,21.236740112304688 6.627322673797607,21.035913467407227 5.417083263397217,20.80474853515625 4.207444190979004,20.54338264465332 2.9995548725128174,20.251977920532227 1.794560432434082,19.930740356445312 0.5936018228530884,19.579906463623047 -0.6021861433982849,19.199745178222656 -1.7916765213012695,18.790565490722656 -2.973750352859497,18.35270118713379 -4.147298336029053,17.88652992248535 -5.311222076416016,17.392452239990234 -6.464436054229736,16.87090492248535 -7.605865001678467,16.322359085083008 -8.734450340270996,15.747316360473633 -9.849148750305176,15.146307945251465 -10.948930740356445,14.519895553588867 -12.032785415649414,13.868673324584961 -13.099721908569336,13.193262100219727 -14.14876651763916,12.494314193725586 -15.17896556854248,11.772506713867188 -16.189388275146484,11.028546333312988 -17.179122924804688,10.263166427612305 -18.147287368774414,9.477123260498047 -19.093019485473633,8.671202659606934 -20.015478134155273,7.846212387084961 -20.91385269165039,7.0029826164245605 -21.78736114501953,6.142368316650391 -22.635242462158203,5.265244007110596 -23.456771850585938,4.3725056648254395 -24.25124168395996,3.4650697708129883 -25.01798439025879,2.543870687484741 -25.75636100769043,1.6098606586456299 -26.465757369995117,0.6640092730522156 -27.145599365234375,-0.29269856214523315 -27.795333862304688,-1.259263038635254 -28.41444969177246,-2.234670877456665 -29.002466201782227,-3.217895984649658 -29.55893325805664,-4.2079010009765625 -30.083436965942383,-5.203638076782227 -30.57560157775879,-6.204049110412598 -31.035076141357422,-7.208069801330566 -31.461551666259766,-8.214627265930176 -31.854755401611328,-9.222643852233887 -32.21444320678711,-10.231035232543945 -32.5404167175293,-11.238716125488281 -32.83250045776367,-12.244598388671875 -33.09056854248047,-13.247589111328125 -33.31452178955078,-14.246600151062012 -33.504295349121094,-15.2405424118042 -33.659873962402344,-16.228328704833984 -33.7812614440918,-17.20887565612793 -33.868507385253906,-18.181102752685547 -33.92169952392578,-19.143938064575195 -33.940948486328125,-20.096317291259766 -33.926414489746094,-21.037181854248047 -33.87828826904297,-21.96548080444336 -33.796791076660156,-22.880176544189453 -33.682186126708984,-23.780242919921875 -33.534767150878906,-24.66466522216797 -33.3548583984375,-25.532440185546875 -33.142826080322266,-26.382587432861328 -32.89906311035156,-27.21413230895996 -32.62399673461914,-28.026123046875 -32.318092346191406,-28.817623138427734 -31.981834411621094,-29.587718963623047 -31.61574935913086,-30.335512161254883 -31.22039031982422,-31.06012725830078 -30.79633903503418,-31.76070785522461 -30.344209671020508,-32.436431884765625 -29.86464500427246,-33.086483001708984 -29.358306884765625,-33.7100830078125 -28.825897216796875,-34.30647659301758 -28.26813507080078,-34.87493133544922 -27.68577003479004,-35.41474151611328 -27.079570770263672,-35.925235748291016 -26.450336456298828,-36.405765533447266 -25.79888153076172,-36.855709075927734 -25.126047134399414,-37.27449035644531 -24.432695388793945,-37.66154098510742 -23.71970558166504,-38.01634216308594 -22.987979888916016,-38.33839797973633 -22.238433837890625,-38.62724685668945 -21.472002029418945,-38.882469177246094 -20.689638137817383,-39.103660583496094 -19.892305374145508,-39.290462493896484 -19.080982208251953,-39.44255447387695 -18.256662368774414,-39.55963897705078 -17.42034912109375,-39.64146423339844 -16.573055267333984,-39.68781280517578 -15.715807914733887,-39.69849395751953 -14.849635124206543,-39.673370361328125 -13.975577354431152,-39.61231231689453 -13.094676971435547,-39.515254974365234 -12.207986831665039,-39.382164001464844 -11.316558837890625,-39.21302032470703 -10.421445846557617,-39.00787353515625 -9.523710250854492,-38.766780853271484 -8.624403953552246,-38.48986053466797 -7.7245869636535645,-38.17725372314453 -6.825311660766602,-37.829132080078125 -5.927628993988037,-37.44572448730469 -5.0325846672058105,-37.02726745605469 -4.1412200927734375,-36.574066162109375 -3.2545692920684814,-36.08643341064453 -2.3736581802368164,-35.56473159790039 -1.4995037317276,-35.00935363769531 -0.6331131458282471,-34.42072677612305 0.22451774775981903,-33.799320220947266 1.0724053382873535,-33.145626068115234 1.9095793962478638,-32.460174560546875 2.735084295272827,-31.743526458740234 3.5479791164398193,-30.996280670166016 4.347340106964111,-30.21906280517578 5.132261276245117,-29.41252899169922 5.901854038238525,-28.577367782592773 6.65524959564209,-27.714298248291016 7.391600131988525,-26.824066162109375 8.110078811645508,-25.907445907592773 8.809879302978516,-24.965242385864258 9.490221977233887,-23.998281478881836 10.150347709655762,-23.00741958618164 10.789522171020508,-21.9935359954834 11.407041549682617,-20.957536697387695 12.002219200134277,-19.900346755981445 12.574403762817383,-18.82291603088379 13.122968673706055,-17.726215362548828 13.647314071655273,-16.611238479614258 14.146871566772461,-15.47899055480957 14.621100425720215,-14.33050537109375 15.069491386413574,-13.166825294494629 15.49156665802002,-11.989013671875 15.886877059936523,-10.798149108886719 16.255008697509766,-9.595320701599121 16.5955753326416,-8.381633758544922 16.908227920532227,-7.158203601837158 17.192646026611328,-5.926157474517822 17.448549270629883,-4.686630725860596 17.675682067871094,-3.440768003463745 17.87382698059082,-2.18972110748291 18.042804718017578,-0.9346475005149841 18.182462692260742,0.3232903778553009 18.292686462402344,1.5829265117645264 18.373397827148438,2.843092441558838 18.424549102783203,4.10261869430542 18.446130752563477,5.360334396362305 18.43816375732422,6.615072727203369 18.400711059570312,7.865665912628174 18.3338623046875,9.11095142364502 18.23774528503418,10.349771499633789 18.11252212524414,11.580973625183105 17.95838737487793,12.803413391113281 17.775569915771484,14.015952110290527 17.564334869384766,15.217464447021484 17.324975967407227,16.406831741333008 17.057823181152344,17.582950592041016 16.76323699951172,18.744728088378906 16.441614151000977,19.891082763671875 16.0933780670166,21.020952224731445 15.71898365020752,22.1332950592041 15.31892204284668,23.227073669433594 14.893708229064941,24.301279067993164 14.443888664245605,25.35491943359375 13.97004222869873,26.387020111083984 13.472770690917969,27.396635055541992 12.952706336975098,28.382829666137695 12.41050910949707,29.344701766967773 11.846863746643066,30.281368255615234 11.262479782104492,31.191970825195312 10.658093452453613,32.07568359375 10.034463882446289,32.93170166015625 9.392373085021973,33.759246826171875 8.732623100280762,34.55757141113281 8.056041717529297,35.32595443725586 7.363473892211914,36.06371307373047 6.655783653259277,36.770179748535156 5.933854579925537,37.44473648071289 5.1985883712768555,38.08678436279297 4.450901031494141,38.69575500488281 3.691725730895996,39.271121978759766 2.922008991241455,39.8123893737793 2.1427109241485596,40.319095611572266 1.3548040390014648,40.79080581665039 0.5592718124389648,41.227134704589844 -0.2428921014070511,41.62771987915039 -1.0506852865219116,41.99224090576172 -1.8630974292755127,42.320404052734375 -2.6791112422943115,42.611968994140625 -3.497704267501831,42.86671447753906 -4.317849636077881,43.0844612121582 -5.138516426086426,43.26506805419922 -5.958672523498535,43.408447265625 -6.777285099029541,43.51451110839844 -7.593319416046143,43.5832405090332 -8.405744552612305,43.6146354675293 -9.213529586791992,43.60874938964844 -10.015650749206543,43.5656623840332 -10.811084747314453,43.48548126220703 -11.598816871643066,43.368370056152344 -12.377840042114258,43.21451950073242 -13.1471529006958,43.02415466308594 -13.90576457977295,42.797542572021484 -14.652695655822754,42.534976959228516 -15.38697624206543,42.236793518066406 -16.107648849487305,41.90336608886719 -16.81377410888672,41.535091400146484 -17.50442123413086,41.132408142089844 -18.178678512573242,40.695796966552734 -18.835649490356445,40.22575378417969 -19.47446060180664,39.72282028198242 -20.094249725341797,39.18756866455078 -20.694175720214844,38.62059020996094 -21.27342414855957,38.02252197265625 -21.831195831298828,37.39402770996094 -22.366718292236328,36.73579788208008 -22.87923812866211,36.048545837402344 -23.36803436279297,35.333030700683594 -23.8323974609375,34.59001159667969 -24.271656036376953,33.8203010559082 -24.685163497924805,33.024723052978516 -25.072296142578125,32.204124450683594 -25.432458877563477,31.359378814697266 -25.765090942382812,30.49138641357422 -26.069656372070312,29.601064682006836 -26.34564781188965,28.689350128173828 -26.59259605407715,27.757200241088867 -26.810054779052734,26.80559539794922 -26.99761199951172,25.83553123474121 -27.154891967773438,24.84801483154297 -27.281551361083984,23.84407615661621 -27.37727165222168,22.824752807617188 -27.441774368286133,21.791105270385742 -27.47481918334961,20.74419593811035 -27.476192474365234,19.685102462768555 -27.44571876525879,18.614917755126953 -27.383255004882812,17.53472900390625 -27.2886962890625,16.445646286010742 -27.161968231201172,15.34878158569336 -27.00303840637207,14.245247840881348 -26.811904907226562,13.136164665222168 -26.588598251342773,12.022655487060547 -26.33319664001465,10.905845642089844 -26.045799255371094,9.786860466003418 -25.72654914855957,8.666824340820312 -25.375621795654297,7.546858787536621 -24.993228912353516,6.428084850311279 -24.57961654663086,5.311618328094482 -24.135068893432617,4.198568820953369 -23.659893035888672,3.090040683746338 -23.15444564819336,1.9871305227279663 -22.619110107421875,0.8909255862236023 -22.054298400878906,-0.1974964141845703 -21.460464477539062,-1.2770687341690063 -20.838088989257812,-2.3467369079589844 -20.18768882751465,-3.405459403991699 -19.509811401367188,-4.452208995819092 -18.805028915405273,-5.4859747886657715 -18.073957443237305,-6.50576114654541 -17.317232131958008,-7.510589599609375 -16.535518646240234,-8.49950122833252 -15.729515075683594,-9.471556663513184 -14.899946212768555,-10.425835609436035 -14.047563552856445,-11.361440658569336 -13.173145294189453,-12.277494430541992 -12.277494430541992,-13.173145294189453 -11.361440658569336,-14.047563552856445 -10.425835609436035,-14.899946212768555 -9.471556663513184,-15.729515075683594 -8.49950122833252,-16.535518646240234 -7.510589599609375,-17.317232131958008 -6.50576114654541,-18.073957443237305 -5.4859747886657715,-18.805028915405273 -4.452208995819092,-19.509811401367188 -3.405459403991699,-20.18768882751465 -2.3467369079589844,-20.838088989257812 -1.2770687341690063,-21.460464477539062 -0.1974964141845703,-22.054298400878906 0.8909255862236023,-22.619110107421875 1.9871305227279663,-23.15444564819336 3.090040683746338,-23.659893035888672 4.198568820953369,-24.135068893432617 5.311618328094482,-24.57961654663086 6.428084850311279,-24.993228912353516 7.546858787536621,-25.375621795654297 8.666824340820312,-25.72654914855957 9.786860466003418,-26.045799255371094 10.905845642089844,-26.33319664001465 12.022655487060547,-26.588598251342773 13.136164665222168,-26.811904907226562 14.245247840881348,-27.00303840637207 15.34878158569336,-27.161968231201172 16.445646286010742,-27.2886962890625 17.53472900390625,-27.383255004882812 18.614917755126953,-27.44571876525879 19.685102462768555,-27.476192474365234 20.74419593811035,-27.47481918334961 21.791105270385742,-27.441774368286133 22.824752807617188,-27.37727165222168 23.84407615661621,-27.281551361083984 24.84801483154297,-27.154891967773438 25.83553123474121,-26.99761199951172 26.80559539794922,-26.810054779052734 27.757200241088867,-26.59259605407715 28.689350128173828,-26.34564781188965 29.601064682006836,-26.069656372070312 30.49138641357422,-25.765090942382812 31.359378814697266,-25.432458877563477 32.204124450683594,-25.072296142578125 33.024723052978516,-24.685163497924805 33.8203010559082,-24.271656036376953 34.59001159667969,-23.8323974609375 35.333030700683594,-23.36803436279297 36.048545837402344,-22.87923812866211 36.73579788208008,-22.366718292236328 37.39402770996094,-21.831195831298828 38.02252197265625,-21.27342414855957 38.62059020996094,-20.694175720214844 39.18756866455078,-20.094249725341797 39.72282028198242,-19.47446060180664 40.22575378417969,-18.835649490356445 40.695796966552734,-18.178678512573242 41.132408142089844,-17.50442123413086 41.535091400146484,-16.81377410888672 41.90336608886719,-16.107648849487305 42.236793518066406,-15.38697624206543 42.534976959228516,-14.652695655822754 42.797542572021484,-13.90576457977295 43.02415466308594,-13.1471529006958 43.21451950073242,-12.377840042114258 43.368370056152344,-11.598816871643066 43.48548126220703,-10.811084747314453 43.5656623840332,-10.015650749206543 43.60874938964844,-9.213529586791992 43.6146354675293,-8.405744552612305 43.5832405090332,-7.593319416046143 43.51451110839844,-6.777285099029541 43.408447265625,-5.958672523498535 43.26506805419922,-5.138516426086426 43.0844612121582,-4.317849636077881 42.86671447753906,-3.497704267501831 42.611968994140625,-2.6791112422943115 42.320404052734375,-1.8630974292755127 41.99224090576172,-1.0506852865219116 41.62771987915039,-0.2428921014070511 41.227134704589844,0.5592718124389648 40.79080581665039,1.3548040390014648 40.319095611572266,2.1427109241485596 39.8123893737793,2.922008991241455 39.271121978759766,3.691725730895996 38.69575500488281,4.450901031494141 38.08678436279297,5.1985883712768555 37.44473648071289,5.933854579925537 36.770179748535156,6.655783653259277 36.06371307373047,7.363473892211914 35.32595443725586,8.056041717529297 34.55757141113281,8.732623100280762 33.759246826171875,9.392373085021973 32.93170166015625,10.034463882446289 32.07568359375,10.658093452453613 31.191970825195312,11.262479782104492 30.281368255615234,11.846863746643066 29.344701766967773,12.41050910949707 28.382829666137695,12.952706336975098 27.396635055541992,13.472770690917969 26.387020111083984,13.97004222869873 25.35491943359375,14.443888664245605 24.301279067993164,14.893708229064941 23.227073669433594,15.31892204284668 22.1332950592041,15.71898365020752 21.020952224731445,16.0933780670166 19.891082763671875,16.441614151000977 18.744728088378906,16.76323699951172 17.582950592041016,17.057823181152344 16.406831741333008,17.324975967407227 15.217464447021484,17.564334869384766 14.015952110290527,17.775569915771484 12.803413391113281,17.95838737487793 11.580973625183105,18.11252212524414 10.349771499633789,18.23774528503418 9.11095142364502,18.3338623046875 7.865665912628174,18.400711059570312 6.615072727203369,18.43816375732422 5.360334396362305,18.446130752563477 4.10261869430542,18.424549102783203 2.843092441558838,18.373397827148438 1.5829265117645264,18.292686462402344 0.3232903778553009,18.182462692260742 -0.9346475005149841,18.042804718017578 -2.18972110748291,17.87382698059082 -3.440768003463745,17.675682067871094 -4.686630725860596,17.448549270629883 -5.926157474517822,17.192646026611328 -7.158203601837158,16.908227920532227 -8.381633758544922,16.5955753326416 -9.595320701599121,16.255008697509766 -10.798149108886719,15.886877059936523 -11.989013671875,15.49156665802002 -13.166825294494629,15.069491386413574 -14.33050537109375,14.621100425720215 -15.47899055480957,14.146871566772461 -16.611238479614258,13.647314071655273 -17.726215362548828,13.122968673706055 -18.82291603088379,12.574403762817383 -19.900346755981445,12.002219200134277 -20.957536697387695,11.407041549682617 -21.9935359954834,10.789522171020508 -23.00741958618164,10.150347709655762 -23.998281478881836,9.490221977233887 -24.965242385864258,8.809879302978516 -25.907445907592773,8.110078811645508 -26.824066162109375,7.391600131988525 -27.714298248291016,6.65524959564209 -28.577367782592773,5.901854038238525 -29.41252899169922,5.132261276245117 -30.21906280517578,4.347340106964111 -30.996280670166016,3.5479791164398193 -31.743526458740234,2.735084295272827 -32.460174560546875,1.9095793962478638 -33.145626068115234,1.0724053382873535 -33.799320220947266,0.22451774775981903 -34.42072677612305,-0.6331131458282471 -35.00935363769531,-1.4995037317276 -35.56473159790039,-2.3736581802368164 -36.08643341064453,-3.2545692920684814 -36.574066162109375,-4.1412200927734375 -37.02726745605469,-5.0325846672058105 -37.44572448730469,-5.927628993988037 -37.829132080078125,-6.825311660766602 -38.17725372314453,-7.7245869636535645 -38.48986053466797,-8.624403953552246 -38.766780853271484,-9.523710250854492 -39.00787353515625,-10.421445846557617 -39.21302032470703,-11.316558837890625 -39.382164001464844,-12.207986831665039 -39.515254974365234,-13.094676971435547 -39.61231231689453,-13.975577354431152 -39.673370361328125,-14.849635124206543 -39.69849395751953,-15.715807914733887 -39.68781280517578,-16.573055267333984 -39.64146423339844,-17.42034912109375 -39.55963897705078,-18.256662368774414 -39.44255447387695,-19.080982208251953 -39.290462493896484,-19.892305374145508 -39.103660583496094,-20.689638137817383 -38.882469177246094,-21.472002029418945 -38.62724685668945,-22.238433837890625 -38.33839797973633,-22.987979888916016 -38.01634216308594,-23.71970558166504 -37.66154098510742,-24.432695388793945 -37.27449035644531,-25.126047134399414 -36.855709075927734,-25.79888153076172 -36.405765533447266,-26.450336456298828 -35.925235748291016,-27.079570770263672 -35.41474151611328,-27.68577003479004 -34.87493133544922,-28.26813507080078 -34.30647659301758,-28.825897216796875 -33.7100830078125,-29.358306884765625 -33.086483001708984,-29.86464500427246 -32.436431884765625,-30.344209671020508 -31.76070785522461,-30.79633903503418 -31.06012725830078,-31.22039031982422 -30.335512161254883,-31.61574935913086 -29.587718963623047,-31.981834411621094 -28.817623138427734,-32.318092346191406 -28.026123046875,-32.62399673461914 -27.21413230895996,-32.89906311035156 -26.382587432861328,-33.142826080322266 -25.532440185546875,-33.3548583984375 -24.66466522216797,-33.534767150878906 -23.780242919921875,-33.682186126708984 -22.880176544189453,-33.796791076660156 -21.96548080444336,-33.87828826904297 -21.037181854248047,-33.926414489746094 -20.096317291259766,-33.940948486328125 -19.143938064575195,-33.92169952392578 -18.181102752685547,-33.868507385253906 -17.20887565612793,-33.7812614440918 -16.228328704833984,-33.659873962402344 -15.2405424118042,-33.504295349121094 -14.246600151062012,-33.31452178955078 -13.247589111328125,-33.09056854248047 -12.244598388671875,-32.83250045776367 -11.238716125488281,-32.5404167175293 -10.231035232543945,-32.21444320678711 -9.222643852233887,-31.854755401611328 -8.214627265930176,-31.461551666259766 -7.208069801330566,-31.035076141357422 -6.204049110412598,-30.57560157775879 -5.203638076782227,-30.083436965942383 -4.2079010009765625,-29.55893325805664 -3.217895984649658,-29.002466201782227 -2.234670877456665,-28.41444969177246 -1.259263038635254,-27.795333862304688 -0.29269856214523315,-27.145599365234375 0.6640092730522156,-26.465757369995117 1.6098606586456299,-25.75636100769043 2.543870687484741,-25.01798439025879 3.4650697708129883,-24.25124168395996 4.3725056648254395,-23.456771850585938 5.265244007110596,-22.635242462158203 6.142368316650391,-21.78736114501953 7.0029826164245605,-20.91385269165039 7.846212387084961,-20.015478134155273 8.671202659606934,-19.093019485473633 9.477123260498047,-18.147287368774414 10.263166427612305,-17.179122924804688 11.028546333312988,-16.189388275146484 11.772506713867188,-15.17896556854248 12.494314193725586,-14.14876651763916 13.193262100219727,-13.099721908569336 13.868673324584961,-12.032785415649414 14.519895553588867,-10.948930740356445 15.146307945251465,-9.849148750305176 15.747316360473633,-8.734450340270996 16.322359085083008,-7.605865001678467 16.87090492248535,-6.464436054229736 17.392452239990234,-5.311222076416016 17.88652992248535,-4.147298336029053 18.35270118713379,-2.973750352859497 18.790565490722656,-1.7916765213012695 19.199745178222656,-0.6021861433982849 19.579906463623047,0.5936018228530884 19.930740356445312,1.794560432434082 20.251977920532227,2.9995548725128174 20.54338264465332,4.207444190979004 20.80474853515625,5.417083263397217 21.035913467407227,6.627322673797607 21.236740112304688,7.837009429931641 21.407129287719727,9.044990539550781 21.547019958496094,10.250112533569336 21.656383514404297,11.45122241973877 21.735225677490234,12.64716911315918 21.783586502075195,13.83680534362793 21.801544189453125,15.018987655639648 21.78920555114746,16.192581176757812 21.746719360351562,17.35645294189453 21.674266815185547,18.509483337402344 21.57205581665039,19.650554656982422 21.440336227416992,20.778568267822266 21.279390335083008,21.892433166503906 21.08953094482422,22.991069793701172 20.87110710144043,24.07341194152832 20.624494552612305,25.138408660888672 20.35010528564453,26.18503189086914 20.048381805419922,27.212257385253906 19.719799041748047,28.21908950805664 19.364858627319336,29.204547882080078 18.984094619750977,30.167673110961914 18.57807159423828,31.107526779174805 18.147380828857422,32.023189544677734 17.692636489868164,32.91377258300781 17.21449089050293,33.77840042114258 16.71361541748047,34.61623001098633 16.190704345703125,35.42644500732422 15.646484375,36.208251953125 15.081701278686523,36.96088409423828 14.497125625610352,37.68360137939453 13.893548965454102,38.375709533691406 13.271784782409668,39.03651428222656 12.632669448852539,39.665374755859375 11.977054595947266,40.26167297363281 11.305813789367676,40.824825286865234 10.619834899902344,41.35428237915039 9.920027732849121,41.849517822265625 9.207311630249023,42.31004333496094 8.482623100280762,42.735416412353516 7.746912002563477,43.125213623046875 7.0011420249938965,43.47905349731445 6.246285438537598,43.79658889770508 5.483326435089111,44.0775032043457 4.713257789611816,44.32152557373047 3.937079429626465,44.528411865234375 3.1558003425598145,44.697959899902344 2.3704333305358887,44.83000183105469 1.5819960832595825,44.924415588378906 0.7915104627609253,44.981101989746094 -3.666705339962911e-14,45 -0.7915104627609253,44.981101989746094 -1.5819960832595825,44.924415588378906 -2.3704333305358887,44.83000183105469 -3.1558003425598145,44.697959899902344 -3.937079429626465,44.528411865234375 -4.713257789611816,44.32152557373047 -5.483326435089111,44.0775032043457 -6.246285438537598,43.79658889770508 -7.0011420249938965,43.47905349731445 -7.746912002563477,43.125213623046875 -8.482623100280762,42.735416412353516 -9.207311630249023,42.31004333496094 -9.920027732849121,41.849517822265625 -10.619834899902344,41.35428237915039 -11.305813789367676,40.824825286865234 -11.977054595947266,40.26167297363281 -12.632669448852539,39.665374755859375 -13.271784782409668,39.03651428222656 -13.893548965454102,38.375709533691406 -14.497125625610352,37.68360137939453 -15.081701278686523,36.96088409423828 -15.646484375,36.208251953125 -16.190704345703125,35.42644500732422 -16.71361541748047,34.61623001098633 -17.21449089050293,33.77840042114258 -17.692636489868164,32.91377258300781 -18.147380828857422,32.023189544677734 -18.57807159423828,31.107526779174805 -18.984094619750977,30.167673110961914 -19.364858627319336,29.204547882080078 -19.719799041748047,28.21908950805664 -20.048381805419922,27.212257385253906 -20.35010528564453,26.18503189086914 -20.624494552612305,25.138408660888672 -20.87110710144043,24.07341194152832 -21.08953094482422,22.991069793701172 -21.279390335083008,21.892433166503906 -21.440336227416992,20.778568267822266 -21.57205581665039,19.650554656982422 -21.674266815185547,18.509483337402344 -21.746719360351562,17.35645294189453 -21.78920555114746,16.192581176757812 -21.801544189453125,15.018987655639648 -21.783586502075195,13.83680534362793 -21.735225677490234,12.64716911315918 -21.656383514404297,11.45122241973877 -21.547019958496094,10.250112533569336 -21.407129287719727,9.044990539550781 -21.236740112304688,7.837009429931641 -21.035913467407227,6.627322673797607 -20.80474853515625,5.417083263397217 -20.54338264465332,4.207444190979004 -20.251977920532227,2.9995548725128174 -19.930740356445312,1.794560432434082 -19.579906463623047,0.5936018228530884 -19.199745178222656,-0.6021861433982849 -18.790565490722656,-1.7916765213012695 -18.35270118713379,-2.973750352859497 -17.88652992248535,-4.147298336029053 -17.392452239990234,-5.311222076416016 -16.87090492248535,-6.464436054229736 -16.322359085083008,-7.605865001678467 -15.747316360473633,-8.734450340270996 -15.146307945251465,-9.849148750305176 -14.519895553588867,-10.948930740356445 -13.868673324584961,-12.032785415649414 -13.193262100219727,-13.099721908569336 -12.494314193725586,-14.14876651763916 -11.772506713867188,-15.17896556854248 -11.028546333312988,-16.189388275146484 -10.263166427612305,-17.179122924804688 -9.477123260498047,-18.147287368774414 -8.671202659606934,-19.093019485473633 -7.846212387084961,-20.015478134155273 -7.0029826164245605,-20.91385269165039 -6.142368316650391,-21.78736114501953 -5.265244007110596,-22.635242462158203 -4.3725056648254395,-23.456771850585938 -3.4650697708129883,-24.25124168395996 -2.543870687484741,-25.01798439025879 -1.6098606586456299,-25.75636100769043 -0.6640092730522156,-26.465757369995117 0.29269856214523315,-27.145599365234375 1.259263038635254,-27.795333862304688 2.234670877456665,-28.41444969177246 3.217895984649658,-29.002466201782227 4.2079010009765625,-29.55893325805664 5.203638076782227,-30.083436965942383 6.204049110412598,-30.57560157775879 7.208069801330566,-31.035076141357422 8.214627265930176,-31.461551666259766 9.222643852233887,-31.854755401611328 10.231035232543945,-32.21444320678711 11.238716125488281,-32.5404167175293 12.244598388671875,-32.83250045776367 13.247589111328125,-33.09056854248047 14.246600151062012,-33.31452178955078 15.2405424118042,-33.504295349121094 16.228328704833984,-33.659873962402344 17.20887565612793,-33.7812614440918 18.181102752685547,-33.868507385253906 19.143938064575195,-33.92169952392578 20.096317291259766,-33.940948486328125 21.037181854248047,-33.926414489746094 21.96548080444336,-33.87828826904297 22.880176544189453,-33.796791076660156 23.780242919921875,-33.682186126708984 24.66466522216797,-33.534767150878906 25.532440185546875,-33.3548583984375 26.382587432861328,-33.142826080322266 27.21413230895996,-32.89906311035156 28.026123046875,-32.62399673461914 28.817623138427734,-32.318092346191406 29.587718963623047,-31.981834411621094 30.335512161254883,-31.61574935913086 31.06012725830078,-31.22039031982422 31.76070785522461,-30.79633903503418 32.436431884765625,-30.344209671020508 33.086483001708984,-29.86464500427246 33.7100830078125,-29.358306884765625 34.30647659301758,-28.825897216796875 34.87493133544922,-28.26813507080078 35.41474151611328,-27.68577003479004 35.925235748291016,-27.079570770263672 36.405765533447266,-26.450336456298828 36.855709075927734,-25.79888153076172 37.27449035644531,-25.126047134399414 37.66154098510742,-24.432695388793945 38.01634216308594,-23.71970558166504 38.33839797973633,-22.987979888916016 38.62724685668945,-22.238433837890625 38.882469177246094,-21.472002029418945 39.103660583496094,-20.689638137817383 39.290462493896484,-19.892305374145508 39.44255447387695,-19.080982208251953 39.55963897705078,-18.256662368774414 39.64146423339844,-17.42034912109375 39.68781280517578,-16.573055267333984 39.69849395751953,-15.715807914733887 39.673370361328125,-14.849635124206543 39.61231231689453,-13.975577354431152 39.515254974365234,-13.094676971435547 39.382164001464844,-12.207986831665039 39.21302032470703,-11.316558837890625 39.00787353515625,-10.421445846557617 38.766780853271484,-9.523710250854492 38.48986053466797,-8.624403953552246 38.17725372314453,-7.7245869636535645 37.829132080078125,-6.825311660766602 37.44572448730469,-5.927628993988037 37.02726745605469,-5.0325846672058105 36.574066162109375,-4.1412200927734375 36.08643341064453,-3.2545692920684814 35.56473159790039,-2.3736581802368164 35.00935363769531,-1.4995037317276 34.42072677612305,-0.6331131458282471 33.799320220947266,0.22451774775981903 33.145626068115234,1.0724053382873535 32.460174560546875,1.9095793962478638 31.743526458740234,2.735084295272827 30.996280670166016,3.5479791164398193 30.21906280517578,4.347340106964111 29.41252899169922,5.132261276245117 28.577367782592773,5.901854038238525 27.714298248291016,6.65524959564209 26.824066162109375,7.391600131988525 25.907445907592773,8.110078811645508 24.965242385864258,8.809879302978516 23.998281478881836,9.490221977233887 23.00741958618164,10.150347709655762 21.9935359954834,10.789522171020508 20.957536697387695,11.407041549682617 19.900346755981445,12.002219200134277 18.82291603088379,12.574403762817383 17.726215362548828,13.122968673706055 16.611238479614258,13.647314071655273 15.47899055480957,14.146871566772461 14.33050537109375,14.621100425720215 13.166825294494629,15.069491386413574 11.989013671875,15.49156665802002 10.798149108886719,15.886877059936523 9.595320701599121,16.255008697509766 8.381633758544922,16.5955753326416 7.158203601837158,16.908227920532227 5.926157474517822,17.192646026611328 4.686630725860596,17.448549270629883 3.440768003463745,17.675682067871094 2.18972110748291,17.87382698059082 0.9346475005149841,18.042804718017578 -0.3232903778553009,18.182462692260742 -1.5829265117645264,18.292686462402344 -2.843092441558838,18.373397827148438 -4.10261869430542,18.424549102783203 -5.360334396362305,18.446130752563477 -6.615072727203369,18.43816375732422 -7.865665912628174,18.400711059570312 -9.11095142364502,18.3338623046875 -10.349771499633789,18.23774528503418 -11.580973625183105,18.11252212524414 -12.803413391113281,17.95838737487793 -14.015952110290527,17.775569915771484 -15.217464447021484,17.564334869384766 -16.406831741333008,17.324975967407227 -17.582950592041016,17.057823181152344 -18.744728088378906,16.76323699951172 -19.891082763671875,16.441614151000977 -21.020952224731445,16.0933780670166 -22.1332950592041,15.71898365020752 -23.227073669433594,15.31892204284668 -24.301279067993164,14.893708229064941 -25.35491943359375,14.443888664245605 -26.387020111083984,13.97004222869873 -27.396635055541992,13.472770690917969 -28.382829666137695,12.952706336975098 -29.344701766967773,12.41050910949707 -30.281368255615234,11.846863746643066 -31.191970825195312,11.262479782104492 -32.07568359375,10.658093452453613 -32.93170166015625,10.034463882446289 -33.759246826171875,9.392373085021973 -34.55757141113281,8.732623100280762 -35.32595443725586,8.056041717529297 -36.06371307373047,7.363473892211914 -36.770179748535156,6.655783653259277 -37.44473648071289,5.933854579925537 -38.08678436279297,5.1985883712768555 -38.69575500488281,4.450901031494141 -39.271121978759766,3.691725730895996 -39.8123893737793,2.922008991241455 -40.319095611572266,2.1427109241485596 -40.79080581665039,1.3548040390014648 -41.227134704589844,0.5592718124389648 -41.62771987915039,-0.2428921014070511 -41.99224090576172,-1.0506852865219116 -42.320404052734375,-1.8630974292755127 -42.611968994140625,-2.6791112422943115 -42.86671447753906,-3.497704267501831 -43.0844612121582,-4.317849636077881 -43.26506805419922,-5.138516426086426 -43.408447265625,-5.958672523498535 -43.51451110839844,-6.777285099029541 -43.5832405090332,-7.593319416046143 -43.6146354675293,-8.405744552612305 -43.60874938964844,-9.213529586791992 -43.5656623840332,-10.015650749206543 -43.48548126220703,-10.811084747314453 -43.368370056152344,-11.598816871643066 -43.21451950073242,-12.377840042114258 -43.02415466308594,-13.1471529006958 -42.797542572021484,-13.90576457977295 -42.534976959228516,-14.652695655822754 -42.236793518066406,-15.38697624206543 -41.90336608886719,-16.107648849487305 -41.535091400146484,-16.81377410888672 -41.132408142089844,-17.50442123413086 -40.695796966552734,-18.178678512573242 -40.22575378417969,-18.835649490356445 -39.72282028198242,-19.47446060180664 -39.18756866455078,-20.094249725341797 -38.62059020996094,-20.694175720214844 -38.02252197265625,-21.27342414855957 -37.39402770996094,-21.831195831298828 -36.73579788208008,-22.366718292236328 -36.048545837402344,-22.87923812866211 -35.333030700683594,-23.36803436279297 -34.59001159667969,-23.8323974609375 -33.8203010559082,-24.271656036376953 -33.024723052978516,-24.685163497924805 -32.204124450683594,-25.072296142578125 -31.359378814697266,-25.432458877563477 -30.49138641357422,-25.765090942382812 -29.601064682006836,-26.069656372070312 -28.689350128173828,-26.34564781188965 -27.757200241088867,-26.59259605407715 -26.80559539794922,-26.810054779052734 -25.83553123474121,-26.99761199951172 -24.84801483154297,-27.154891967773438 -23.84407615661621,-27.281551361083984 -22.824752807617188,-27.37727165222168 -21.791105270385742,-27.441774368286133 -20.74419593811035,-27.47481918334961 -19.685102462768555,-27.476192474365234 -18.614917755126953,-27.44571876525879 -17.53472900390625,-27.383255004882812 -16.445646286010742,-27.2886962890625 -15.34878158569336,-27.161968231201172 -14.245247840881348,-27.00303840637207 -13.136164665222168,-26.811904907226562 -12.022655487060547,-26.588598251342773 -10.905845642089844,-26.33319664001465 -9.786860466003418,-26.045799255371094 -8.666824340820312,-25.72654914855957 -7.546858787536621,-25.375621795654297 -6.428084850311279,-24.993228912353516 -5.311618328094482,-24.57961654663086 -4.198568820953369,-24.135068893432617 -3.090040683746338,-23.659893035888672 -1.9871305227279663,-23.15444564819336 -0.8909255862236023,-22.619110107421875 0.1974964141845703,-22.054298400878906 1.2770687341690063,-21.460464477539062 2.3467369079589844,-20.838088989257812 3.405459403991699,-20.18768882751465 4.452208995819092,-19.509811401367188 5.4859747886657715,-18.805028915405273 6.50576114654541,-18.073957443237305 7.510589599609375,-17.317232131958008 8.49950122833252,-16.535518646240234 9.471556663513184,-15.729515075683594 10.425835609436035,-14.899946212768555 11.361440658569336,-14.047563552856445 12.277494430541992,-13.173145294189453 13.173145294189453,-12.277494430541992 14.047563552856445,-11.361440658569336 14.899946212768555,-10.425835609436035 15.729515075683594,-9.471556663513184 16.535518646240234,-8.49950122833252 17.317232131958008,-7.510589599609375 18.073957443237305,-6.50576114654541 18.805028915405273,-5.4859747886657715 19.509811401367188,-4.452208995819092 20.18768882751465,-3.405459403991699 20.838088989257812,-2.3467369079589844 21.460464477539062,-1.2770687341690063 22.054298400878906,-0.1974964141845703 22.619110107421875,0.8909255862236023 23.15444564819336,1.9871305227279663 23.659893035888672,3.090040683746338 24.135068893432617,4.198568820953369 24.57961654663086,5.311618328094482 24.993228912353516,6.428084850311279 25.375621795654297,7.546858787536621 25.72654914855957,8.666824340820312 26.045799255371094,9.786860466003418 26.33319664001465,10.905845642089844 26.588598251342773,12.022655487060547 26.811904907226562,13.136164665222168 27.00303840637207,14.245247840881348 27.161968231201172,15.34878158569336 27.2886962890625,16.445646286010742 27.383255004882812,17.53472900390625 27.44571876525879,18.614917755126953 27.476192474365234,19.685102462768555 27.47481918334961,20.74419593811035 27.441774368286133,21.791105270385742 27.37727165222168,22.824752807617188 27.281551361083984,23.84407615661621 27.154891967773438,24.84801483154297 26.99761199951172,25.83553123474121 26.810054779052734,26.80559539794922 26.59259605407715,27.757200241088867 26.34564781188965,28.689350128173828 26.069656372070312,29.601064682006836 25.765090942382812,30.49138641357422 25.432458877563477,31.359378814697266 25.072296142578125,32.204124450683594 24.685163497924805,33.024723052978516 24.271656036376953,33.8203010559082 23.8323974609375,34.59001159667969 23.36803436279297,35.333030700683594 22.87923812866211,36.048545837402344 22.366718292236328,36.73579788208008 21.831195831298828,37.39402770996094 21.27342414855957,38.02252197265625 20.694175720214844,38.62059020996094 20.094249725341797,39.18756866455078 19.47446060180664,39.72282028198242 18.835649490356445,40.22575378417969 18.178678512573242,40.695796966552734 17.50442123413086,41.132408142089844 16.81377410888672,41.535091400146484 16.107648849487305,41.90336608886719 15.38697624206543,42.236793518066406 14.652695655822754,42.534976959228516 13.90576457977295,42.797542572021484 13.1471529006958,43.02415466308594 12.377840042114258,43.21451950073242 11.598816871643066,43.368370056152344 10.811084747314453,43.48548126220703 10.015650749206543,43.5656623840332 9.213529586791992,43.60874938964844 8.405744552612305,43.6146354675293 7.593319416046143,43.5832405090332 6.777285099029541,43.51451110839844 5.958672523498535,43.408447265625 5.138516426086426,43.26506805419922 4.317849636077881,43.0844612121582 3.497704267501831,42.86671447753906 2.6791112422943115,42.611968994140625 1.8630974292755127,42.320404052734375 1.0506852865219116,41.99224090576172 0.2428921014070511,41.62771987915039 -0.5592718124389648,41.227134704589844 -1.3548040390014648,40.79080581665039 -2.1427109241485596,40.319095611572266 -2.922008991241455,39.8123893737793 -3.691725730895996,39.271121978759766 -4.450901031494141,38.69575500488281 -5.1985883712768555,38.08678436279297 -5.933854579925537,37.44473648071289 -6.655783653259277,36.770179748535156 -7.363473892211914,36.06371307373047 -8.056041717529297,35.32595443725586 -8.732623100280762,34.55757141113281 -9.392373085021973,33.759246826171875 -10.034463882446289,32.93170166015625 -10.658093452453613,32.07568359375 -11.262479782104492,31.191970825195312 -11.846863746643066,30.281368255615234 -12.41050910949707,29.344701766967773 -12.952706336975098,28.382829666137695 -13.472770690917969,27.396635055541992 -13.97004222869873,26.387020111083984 -14.443888664245605,25.35491943359375 -14.893708229064941,24.301279067993164 -15.31892204284668,23.227073669433594 -15.71898365020752,22.1332950592041 -16.0933780670166,21.020952224731445 -16.441614151000977,19.891082763671875 -16.76323699951172,18.744728088378906 -17.057823181152344,17.582950592041016 -17.324975967407227,16.406831741333008 -17.564334869384766,15.217464447021484 -17.775569915771484,14.015952110290527 -17.95838737487793,12.803413391113281 -18.11252212524414,11.580973625183105 -18.23774528503418,10.349771499633789 -18.3338623046875,9.11095142364502 -18.400711059570312,7.865665912628174 -18.43816375732422,6.615072727203369 -18.446130752563477,5.360334396362305 -18.424549102783203,4.10261869430542 -18.373397827148438,2.843092441558838 -18.292686462402344,1.5829265117645264 -18.182462692260742,0.3232903778553009 -18.042804718017578,-0.9346475005149841 -17.87382698059082,-2.18972110748291 -17.675682067871094,-3.440768003463745 -17.448549270629883,-4.686630725860596 -17.192646026611328,-5.926157474517822 -16.908227920532227,-7.158203601837158 -16.5955753326416,-8.381633758544922 -16.255008697509766,-9.595320701599121 -15.886877059936523,-10.798149108886719 -15.49156665802002,-11.989013671875 -15.069491386413574,-13.166825294494629 -14.621100425720215,-14.33050537109375 -14.146871566772461,-15.47899055480957 -13.647314071655273,-16.611238479614258 -13.122968673706055,-17.726215362548828 -12.574403762817383,-18.82291603088379 -12.002219200134277,-19.900346755981445 -11.407041549682617,-20.957536697387695 -10.789522171020508,-21.9935359954834 -10.150347709655762,-23.00741958618164 -9.490221977233887,-23.998281478881836 -8.809879302978516,-24.965242385864258 -8.110078811645508,-25.907445907592773 -7.391600131988525,-26.824066162109375 -6.65524959564209,-27.714298248291016 -5.901854038238525,-28.577367782592773 -5.132261276245117,-29.41252899169922 -4.347340106964111,-30.21906280517578 -3.5479791164398193,-30.996280670166016 -2.735084295272827,-31.743526458740234 -1.9095793962478638,-32.460174560546875 -1.0724053382873535,-33.145626068115234 -0.22451774775981903,-33.799320220947266 0.6331131458282471,-34.42072677612305 1.4995037317276,-35.00935363769531 2.3736581802368164,-35.56473159790039 3.2545692920684814,-36.08643341064453 4.1412200927734375,-36.574066162109375 5.0325846672058105,-37.02726745605469 5.927628993988037,-37.44572448730469 6.825311660766602,-37.829132080078125 7.7245869636535645,-38.17725372314453 8.624403953552246,-38.48986053466797 9.523710250854492,-38.766780853271484 10.421445846557617,-39.00787353515625 11.316558837890625,-39.21302032470703 12.207986831665039,-39.382164001464844 13.094676971435547,-39.515254974365234 13.975577354431152,-39.61231231689453 14.849635124206543,-39.673370361328125 15.715807914733887,-39.69849395751953 16.573055267333984,-39.68781280517578 17.42034912109375,-39.64146423339844 18.256662368774414,-39.55963897705078 19.080982208251953,-39.44255447387695 19.892305374145508,-39.290462493896484 20.689638137817383,-39.103660583496094 21.472002029418945,-38.882469177246094 22.238433837890625,-38.62724685668945 22.987979888916016,-38.33839797973633 23.71970558166504,-38.01634216308594 24.432695388793945,-37.66154098510742 25.126047134399414,-37.27449035644531 25.79888153076172,-36.855709075927734 26.450336456298828,-36.405765533447266 27.079570770263672,-35.925235748291016 27.68577003479004,-35.41474151611328 28.26813507080078,-34.87493133544922 28.825897216796875,-34.30647659301758 29.358306884765625,-33.7100830078125 29.86464500427246,-33.086483001708984 30.344209671020508,-32.436431884765625 30.79633903503418,-31.76070785522461 31.22039031982422,-31.06012725830078 31.61574935913086,-30.335512161254883 31.981834411621094,-29.587718963623047 32.318092346191406,-28.817623138427734 32.62399673461914,-28.026123046875 32.89906311035156,-27.21413230895996 33.142826080322266,-26.382587432861328 33.3548583984375,-25.532440185546875 33.534767150878906,-24.66466522216797 33.682186126708984,-23.780242919921875 33.796791076660156,-22.880176544189453 33.87828826904297,-21.96548080444336 33.926414489746094,-21.037181854248047 33.940948486328125,-20.096317291259766 33.92169952392578,-19.143938064575195 33.868507385253906,-18.181102752685547 33.7812614440918,-17.20887565612793 33.659873962402344,-16.228328704833984 33.504295349121094,-15.2405424118042 33.31452178955078,-14.246600151062012 33.09056854248047,-13.247589111328125 32.83250045776367,-12.244598388671875 32.5404167175293,-11.238716125488281 32.21444320678711,-10.231035232543945 31.854755401611328,-9.222643852233887 31.461551666259766,-8.214627265930176 31.035076141357422,-7.208069801330566 30.57560157775879,-6.204049110412598 30.083436965942383,-5.203638076782227 29.55893325805664,-4.2079010009765625 29.002466201782227,-3.217895984649658 28.41444969177246,-2.234670877456665 27.795333862304688,-1.259263038635254 27.145599365234375,-0.29269856214523315 26.465757369995117,0.6640092730522156 25.75636100769043,1.6098606586456299 25.01798439025879,2.543870687484741 24.25124168395996,3.4650697708129883 23.456771850585938,4.3725056648254395 22.635242462158203,5.265244007110596 21.78736114501953,6.142368316650391 20.91385269165039,7.0029826164245605 20.015478134155273,7.846212387084961 19.093019485473633,8.671202659606934 18.147287368774414,9.477123260498047 17.179122924804688,10.263166427612305 16.189388275146484,11.028546333312988 15.17896556854248,11.772506713867188 14.14876651763916,12.494314193725586 13.099721908569336,13.193262100219727 12.032785415649414,13.868673324584961 10.948930740356445,14.519895553588867 9.849148750305176,15.146307945251465 8.734450340270996,15.747316360473633 7.605865001678467,16.322359085083008 6.464436054229736,16.87090492248535 5.311222076416016,17.392452239990234 4.147298336029053,17.88652992248535 2.973750352859497,18.35270118713379 1.7916765213012695,18.790565490722656 0.6021861433982849,19.199745178222656 -0.5936018228530884,19.579906463623047 -1.794560432434082,19.930740356445312 -2.9995548725128174,20.251977920532227 -4.207444190979004,20.54338264465332 -5.417083263397217,20.80474853515625 -6.627322673797607,21.035913467407227 -7.837009429931641,21.236740112304688 -9.044990539550781,21.407129287719727 -10.250112533569336,21.547019958496094 -11.45122241973877,21.656383514404297 -12.64716911315918,21.735225677490234 -13.83680534362793,21.783586502075195 -15.018987655639648,21.801544189453125 -16.192581176757812,21.78920555114746 -17.35645294189453,21.746719360351562 -18.509483337402344,21.674266815185547 -19.650554656982422,21.57205581665039 -20.778568267822266,21.440336227416992 -21.892433166503906,21.279390335083008 -22.991069793701172,21.08953094482422 -24.07341194152832,20.87110710144043 -25.138408660888672,20.624494552612305 -26.18503189086914,20.35010528564453 -27.212257385253906,20.048381805419922 -28.21908950805664,19.719799041748047 -29.204547882080078,19.364858627319336 -30.167673110961914,18.984094619750977 -31.107526779174805,18.57807159423828 -32.023189544677734,18.147380828857422 -32.91377258300781,17.692636489868164 -33.77840042114258,17.21449089050293 -34.61623001098633,16.71361541748047 -35.42644500732422,16.190704345703125 -36.208251953125,15.646484375 -36.96088409423828,15.081701278686523 -37.68360137939453,14.497125625610352 -38.375709533691406,13.893548965454102 -39.03651428222656,13.271784782409668 -39.665374755859375,12.632669448852539 -40.26167297363281,11.977054595947266 -40.824825286865234,11.305813789367676 -41.35428237915039,10.619834899902344 -41.849517822265625,9.920027732849121 -42.31004333496094,9.207311630249023 -42.735416412353516,8.482623100280762 -43.125213623046875,7.746912002563477 -43.47905349731445,7.0011420249938965 -43.79658889770508,6.246285438537598 -44.0775032043457,5.483326435089111 -44.32152557373047,4.713257789611816 -44.528411865234375,3.937079429626465 -44.697959899902344,3.1558003425598145 -44.83000183105469,2.3704333305358887 -44.924415588378906,1.5819960832595825 -44.981101989746094,0.7915104627609253 -45,-7.333410679925823e-14 -44.981101989746094,-0.7915104627609253 -44.924415588378906,-1.5819960832595825 -44.83000183105469,-2.3704333305358887 -44.697959899902344,-3.1558003425598145 -44.528411865234375,-3.937079429626465 -44.32152557373047,-4.713257789611816 -44.0775032043457,-5.483326435089111 -43.79658889770508,-6.246285438537598 -43.47905349731445,-7.0011420249938965 -43.125213623046875,-7.746912002563477 -42.735416412353516,-8.482623100280762 -42.31004333496094,-9.207311630249023 -41.849517822265625,-9.920027732849121 -41.35428237915039,-10.619834899902344 -40.824825286865234,-11.305813789367676 -40.26167297363281,-11.977054595947266 -39.665374755859375,-12.632669448852539 -39.03651428222656,-13.271784782409668 -38.375709533691406,-13.893548965454102 -37.68360137939453,-14.497125625610352 -36.96088409423828,-15.081701278686523 -36.208251953125,-15.646484375 -35.42644500732422,-16.190704345703125 -34.61623001098633,-16.71361541748047 -33.77840042114258,-17.21449089050293 -32.91377258300781,-17.692636489868164 -32.023189544677734,-18.147380828857422 -31.107526779174805,-18.57807159423828 -30.167673110961914,-18.984094619750977 -29.204547882080078,-19.364858627319336 -28.21908950805664,-19.719799041748047 -27.212257385253906,-20.048381805419922 -26.18503189086914,-20.35010528564453 -25.138408660888672,-20.624494552612305 -24.07341194152832,-20.87110710144043 -22.991069793701172,-21.08953094482422 -21.892433166503906,-21.279390335083008 -20.778568267822266,-21.440336227416992 -19.650554656982422,-21.57205581665039 -18.509483337402344,-21.674266815185547 -17.35645294189453,-21.746719360351562 -16.192581176757812,-21.78920555114746 -15.018987655639648,-21.801544189453125 -13.83680534362793,-21.783586502075195 -12.64716911315918,-21.735225677490234 -11.45122241973877,-21.656383514404297 -10.250112533569336,-21.547019958496094 -9.044990539550781,-21.407129287719727 -7.837009429931641,-21.236740112304688 -6.627322673797607,-21.035913467407227 -5.417083263397217,-20.80474853515625 -4.207444190979004,-20.54338264465332 -2.9995548725128174,-20.251977920532227 -1.794560432434082,-19.930740356445312 -0.5936018228530884,-19.579906463623047 0.6021861433982849,-19.199745178222656 1.7916765213012695,-18.790565490722656 2.973750352859497,-18.35270118713379 4.147298336029053,-17.88652992248535 5.311222076416016,-17.392452239990234 6.464436054229736,-16.87090492248535 7.605865001678467,-16.322359085083008 8.734450340270996,-15.747316360473633 9.849148750305176,-15.146307945251465 10.948930740356445,-14.519895553588867 12.032785415649414,-13.868673324584961 13.099721908569336,-13.193262100219727 14.14876651763916,-12.494314193725586 15.17896556854248,-11.772506713867188 16.189388275146484,-11.028546333312988 17.179122924804688,-10.263166427612305 18.147287368774414,-9.477123260498047 19.093019485473633,-8.671202659606934 20.015478134155273,-7.846212387084961 20.91385269165039,-7.0029826164245605 21.78736114501953,-6.142368316650391 22.635242462158203,-5.265244007110596 23.456771850585938,-4.3725056648254395 24.25124168395996,-3.4650697708129883 25.01798439025879,-2.543870687484741 25.75636100769043,-1.6098606586456299 26.465757369995117,-0.6640092730522156 27.145599365234375,0.29269856214523315 27.795333862304688,1.259263038635254 28.41444969177246,2.234670877456665 29.002466201782227,3.217895984649658 29.55893325805664,4.2079010009765625 30.083436965942383,5.203638076782227 30.57560157775879,6.204049110412598 31.035076141357422,7.208069801330566 31.461551666259766,8.214627265930176 31.854755401611328,9.222643852233887 32.21444320678711,10.231035232543945 32.5404167175293,11.238716125488281 32.83250045776367,12.244598388671875 33.09056854248047,13.247589111328125 33.31452178955078,14.246600151062012 33.504295349121094,15.2405424118042 33.659873962402344,16.228328704833984 33.7812614440918,17.20887565612793 33.868507385253906,18.181102752685547 33.92169952392578,19.143938064575195 33.940948486328125,20.096317291259766 33.926414489746094,21.037181854248047 33.87828826904297,21.96548080444336 33.796791076660156,22.880176544189453 33.682186126708984,23.780242919921875 33.534767150878906,24.66466522216797 33.3548583984375,25.532440185546875 33.142826080322266,26.382587432861328 32.89906311035156,27.21413230895996 32.62399673461914,28.026123046875 32.318092346191406,28.817623138427734 31.981834411621094,29.587718963623047 31.61574935913086,30.335512161254883 31.22039031982422,31.06012725830078 30.79633903503418,31.76070785522461 30.344209671020508,32.436431884765625 29.86464500427246,33.086483001708984 29.358306884765625,33.7100830078125 28.825897216796875,34.30647659301758 28.26813507080078,34.87493133544922 27.68577003479004,35.41474151611328 27.079570770263672,35.925235748291016 26.450336456298828,36.405765533447266 25.79888153076172,36.855709075927734 25.126047134399414,37.27449035644531 24.432695388793945,37.66154098510742 23.71970558166504,38.01634216308594 22.987979888916016,38.33839797973633 22.238433837890625,38.62724685668945 21.472002029418945,38.882469177246094 20.689638137817383,39.103660583496094 19.892305374145508,39.290462493896484 19.080982208251953,39.44255447387695 18.256662368774414,39.55963897705078 17.42034912109375,39.64146423339844 16.573055267333984,39.68781280517578 15.715807914733887,39.69849395751953 14.849635124206543,39.673370361328125 13.975577354431152,39.61231231689453 13.094676971435547,39.515254974365234 12.207986831665039,39.382164001464844 11.316558837890625,39.21302032470703 10.421445846557617,39.00787353515625 9.523710250854492,38.766780853271484 8.624403953552246,38.48986053466797 7.7245869636535645,38.17725372314453 6.825311660766602,37.829132080078125 5.927628993988037,37.44572448730469 5.0325846672058105,37.02726745605469 4.1412200927734375,36.574066162109375 3.2545692920684814,36.08643341064453 2.3736581802368164,35.56473159790039 1.4995037317276,35.00935363769531 0.6331131458282471,34.42072677612305 -0.22451774775981903,33.799320220947266 -1.0724053382873535,33.145626068115234 -1.9095793962478638,32.460174560546875 -2.735084295272827,31.743526458740234 -3.5479791164398193,30.996280670166016 -4.347340106964111,30.21906280517578 -5.132261276245117,29.41252899169922 -5.901854038238525,28.577367782592773 -6.65524959564209,27.714298248291016 -7.391600131988525,26.824066162109375 -8.110078811645508,25.907445907592773 -8.809879302978516,24.965242385864258 -9.490221977233887,23.998281478881836 -10.150347709655762,23.00741958618164 -10.789522171020508,21.9935359954834 -11.407041549682617,20.957536697387695 -12.002219200134277,19.900346755981445 -12.574403762817383,18.82291603088379 -13.122968673706055,17.726215362548828 -13.647314071655273,16.611238479614258 -14.146871566772461,15.47899055480957 -14.621100425720215,14.33050537109375 -15.069491386413574,13.166825294494629 -15.49156665802002,11.989013671875 -15.886877059936523,10.798149108886719 -16.255008697509766,9.595320701599121 -16.5955753326416,8.381633758544922 -16.908227920532227,7.158203601837158 -17.192646026611328,5.926157474517822 -17.448549270629883,4.686630725860596 -17.675682067871094,3.440768003463745 -17.87382698059082,2.18972110748291 -18.042804718017578,0.9346475005149841 -18.182462692260742,-0.3232903778553009 -18.292686462402344,-1.5829265117645264 -18.373397827148438,-2.843092441558838 -18.424549102783203,-4.10261869430542 -18.446130752563477,-5.360334396362305 -18.43816375732422,-6.615072727203369 -18.400711059570312,-7.865665912628174 -18.3338623046875,-9.11095142364502 -18.23774528503418,-10.349771499633789 -18.11252212524414,-11.580973625183105 -17.95838737487793,-12.803413391113281 -17.775569915771484,-14.015952110290527 -17.564334869384766,-15.217464447021484 -17.324975967407227,-16.406831741333008 -17.057823181152344,-17.582950592041016 -16.76323699951172,-18.744728088378906 -16.441614151000977,-19.891082763671875 -16.0933780670166,-21.020952224731445 -15.71898365020752,-22.1332950592041 -15.31892204284668,-23.227073669433594 -14.893708229064941,-24.301279067993164 -14.443888664245605,-25.35491943359375 -13.97004222869873,-26.387020111083984 -13.472770690917969,-27.396635055541992 -12.952706336975098,-28.382829666137695 -12.41050910949707,-29.344701766967773 -11.846863746643066,-30.281368255615234 -11.262479782104492,-31.191970825195312 -10.658093452453613,-32.07568359375 -10.034463882446289,-32.93170166015625 -9.392373085021973,-33.759246826171875 -8.732623100280762,-34.55757141113281 -8.056041717529297,-35.32595443725586 -7.363473892211914,-36.06371307373047 -6.655783653259277,-36.770179748535156 -5.933854579925537,-37.44473648071289 -5.1985883712768555,-38.08678436279297 -4.450901031494141,-38.69575500488281 -3.691725730895996,-39.271121978759766 -2.922008991241455,-39.8123893737793 -2.1427109241485596,-40.319095611572266 -1.3548040390014648,-40.79080581665039 -0.5592718124389648,-41.227134704589844 0.2428921014070511,-41.62771987915039 1.0506852865219116,-41.99224090576172 1.8630974292755127,-42.320404052734375 2.6791112422943115,-42.611968994140625 3.497704267501831,-42.86671447753906 4.317849636077881,-43.0844612121582 5.138516426086426,-43.26506805419922 5.958672523498535,-43.408447265625 6.777285099029541,-43.51451110839844 7.593319416046143,-43.5832405090332 8.405744552612305,-43.6146354675293 9.213529586791992,-43.60874938964844 10.015650749206543,-43.5656623840332 10.811084747314453,-43.48548126220703 11.598816871643066,-43.368370056152344 12.377840042114258,-43.21451950073242 13.1471529006958,-43.02415466308594 13.90576457977295,-42.797542572021484 14.652695655822754,-42.534976959228516 15.38697624206543,-42.236793518066406 16.107648849487305,-41.90336608886719 16.81377410888672,-41.535091400146484 17.50442123413086,-41.132408142089844 18.178678512573242,-40.695796966552734 18.835649490356445,-40.22575378417969 19.47446060180664,-39.72282028198242 20.094249725341797,-39.18756866455078 20.694175720214844,-38.62059020996094 21.27342414855957,-38.02252197265625 21.831195831298828,-37.39402770996094 22.366718292236328,-36.73579788208008 22.87923812866211,-36.048545837402344 23.36803436279297,-35.333030700683594 23.8323974609375,-34.59001159667969 24.271656036376953,-33.8203010559082 24.685163497924805,-33.024723052978516 25.072296142578125,-32.204124450683594 25.432458877563477,-31.359378814697266 25.765090942382812,-30.49138641357422 26.069656372070312,-29.601064682006836 26.34564781188965,-28.689350128173828 26.59259605407715,-27.757200241088867 26.810054779052734,-26.80559539794922 26.99761199951172,-25.83553123474121 27.154891967773438,-24.84801483154297 27.281551361083984,-23.84407615661621 27.37727165222168,-22.824752807617188 27.441774368286133,-21.791105270385742 27.47481918334961,-20.74419593811035 27.476192474365234,-19.685102462768555 27.44571876525879,-18.614917755126953 27.383255004882812,-17.53472900390625 27.2886962890625,-16.445646286010742 27.161968231201172,-15.34878158569336 27.00303840637207,-14.245247840881348 26.811904907226562,-13.136164665222168 26.588598251342773,-12.022655487060547 26.33319664001465,-10.905845642089844 26.045799255371094,-9.786860466003418 25.72654914855957,-8.666824340820312 25.375621795654297,-7.546858787536621 24.993228912353516,-6.428084850311279 24.57961654663086,-5.311618328094482 24.135068893432617,-4.198568820953369 23.659893035888672,-3.090040683746338 23.15444564819336,-1.9871305227279663 22.619110107421875,-0.8909255862236023 22.054298400878906,0.1974964141845703 21.460464477539062,1.2770687341690063 20.838088989257812,2.3467369079589844 20.18768882751465,3.405459403991699 19.509811401367188,4.452208995819092 18.805028915405273,5.4859747886657715 18.073957443237305,6.50576114654541 17.317232131958008,7.510589599609375 16.535518646240234,8.49950122833252 15.729515075683594,9.471556663513184 14.899946212768555,10.425835609436035 14.047563552856445,11.361440658569336 13.173145294189453,12.277494430541992 12.277494430541992,13.173145294189453 11.361440658569336,14.047563552856445 10.425835609436035,14.899946212768555 9.471556663513184,15.729515075683594 8.49950122833252,16.535518646240234 7.510589599609375,17.317232131958008 6.50576114654541,18.073957443237305 5.4859747886657715,18.805028915405273 4.452208995819092,19.509811401367188 3.405459403991699,20.18768882751465 2.3467369079589844,20.838088989257812 1.2770687341690063,21.460464477539062 0.1974964141845703,22.054298400878906 -0.8909255862236023,22.619110107421875 -1.9871305227279663,23.15444564819336 -3.090040683746338,23.659893035888672 -4.198568820953369,24.135068893432617 -5.311618328094482,24.57961654663086 -6.428084850311279,24.993228912353516 -7.546858787536621,25.375621795654297 -8.666824340820312,25.72654914855957 -9.786860466003418,26.045799255371094 -10.905845642089844,26.33319664001465 -12.022655487060547,26.588598251342773 -13.136164665222168,26.811904907226562 -14.245247840881348,27.00303840637207 -15.34878158569336,27.161968231201172 -16.445646286010742,27.2886962890625 -17.53472900390625,27.383255004882812 -18.614917755126953,27.44571876525879 -19.685102462768555,27.476192474365234 -20.74419593811035,27.47481918334961 -21.791105270385742,27.441774368286133 -22.824752807617188,27.37727165222168 -23.84407615661621,27.281551361083984 -24.84801483154297,27.154891967773438 -25.83553123474121,26.99761199951172 -26.80559539794922,26.810054779052734 -27.757200241088867,26.59259605407715 -28.689350128173828,26.34564781188965 -29.601064682006836,26.069656372070312 -30.49138641357422,25.765090942382812 -31.359378814697266,25.432458877563477 -32.204124450683594,25.072296142578125 -33.024723052978516,24.685163497924805 -33.8203010559082,24.271656036376953 -34.59001159667969,23.8323974609375 -35.333030700683594,23.36803436279297 -36.048545837402344,22.87923812866211 -36.73579788208008,22.366718292236328 -37.39402770996094,21.831195831298828 -38.02252197265625,21.27342414855957 -38.62059020996094,20.694175720214844 -39.18756866455078,20.094249725341797 -39.72282028198242,19.47446060180664 -40.22575378417969,18.835649490356445 -40.695796966552734,18.178678512573242 -41.132408142089844,17.50442123413086 -41.535091400146484,16.81377410888672 -41.90336608886719,16.107648849487305 -42.236793518066406,15.38697624206543 -42.534976959228516,14.652695655822754 -42.797542572021484,13.90576457977295 -43.02415466308594,13.1471529006958 -43.21451950073242,12.377840042114258 -43.368370056152344,11.598816871643066 -43.48548126220703,10.811084747314453 -43.5656623840332,10.015650749206543 -43.60874938964844,9.213529586791992 -43.6146354675293,8.405744552612305 -43.5832405090332,7.593319416046143 -43.51451110839844,6.777285099029541 -43.408447265625,5.958672523498535 -43.26506805419922,5.138516426086426 -43.0844612121582,4.317849636077881 -42.86671447753906,3.497704267501831 -42.611968994140625,2.6791112422943115 -42.320404052734375,1.8630974292755127 -41.99224090576172,1.0506852865219116 -41.62771987915039,0.2428921014070511 -41.227134704589844,-0.5592718124389648 -40.79080581665039,-1.3548040390014648 -40.319095611572266,-2.1427109241485596 -39.8123893737793,-2.922008991241455 -39.271121978759766,-3.691725730895996 -38.69575500488281,-4.450901031494141 -38.08678436279297,-5.1985883712768555 -37.44473648071289,-5.933854579925537 -36.770179748535156,-6.655783653259277 -36.06371307373047,-7.363473892211914 -35.32595443725586,-8.056041717529297 -34.55757141113281,-8.732623100280762 -33.759246826171875,-9.392373085021973 -32.93170166015625,-10.034463882446289 -32.07568359375,-10.658093452453613 -31.191970825195312,-11.262479782104492 -30.281368255615234,-11.846863746643066 -29.344701766967773,-12.41050910949707 -28.382829666137695,-12.952706336975098 -27.396635055541992,-13.472770690917969 -26.387020111083984,-13.97004222869873 -25.35491943359375,-14.443888664245605 -24.301279067993164,-14.893708229064941 -23.227073669433594,-15.31892204284668 -22.1332950592041,-15.71898365020752 -21.020952224731445,-16.0933780670166 -19.891082763671875,-16.441614151000977 -18.744728088378906,-16.76323699951172 -17.582950592041016,-17.057823181152344 -16.406831741333008,-17.324975967407227 -15.217464447021484,-17.564334869384766 -14.015952110290527,-17.775569915771484 -12.803413391113281,-17.95838737487793 -11.580973625183105,-18.11252212524414 -10.349771499633789,-18.23774528503418 -9.11095142364502,-18.3338623046875 -7.865665912628174,-18.400711059570312 -6.615072727203369,-18.43816375732422 -5.360334396362305,-18.446130752563477 -4.10261869430542,-18.424549102783203 -2.843092441558838,-18.373397827148438 -1.5829265117645264,-18.292686462402344 -0.3232903778553009,-18.182462692260742 0.9346475005149841,-18.042804718017578 2.18972110748291,-17.87382698059082 3.440768003463745,-17.675682067871094 4.686630725860596,-17.448549270629883 5.926157474517822,-17.192646026611328 7.158203601837158,-16.908227920532227 8.381633758544922,-16.5955753326416 9.595320701599121,-16.255008697509766 10.798149108886719,-15.886877059936523 11.989013671875,-15.49156665802002 13.166825294494629,-15.069491386413574 14.33050537109375,-14.621100425720215 15.47899055480957,-14.146871566772461 16.611238479614258,-13.647314071655273 17.726215362548828,-13.122968673706055 18.82291603088379,-12.574403762817383 19.900346755981445,-12.002219200134277 20.957536697387695,-11.407041549682617 21.9935359954834,-10.789522171020508 23.00741958618164,-10.150347709655762 23.998281478881836,-9.490221977233887 24.965242385864258,-8.809879302978516 25.907445907592773,-8.110078811645508 26.824066162109375,-7.391600131988525 27.714298248291016,-6.65524959564209 28.577367782592773,-5.901854038238525 29.41252899169922,-5.132261276245117 30.21906280517578,-4.347340106964111 30.996280670166016,-3.5479791164398193 31.743526458740234,-2.735084295272827 32.460174560546875,-1.9095793962478638 33.145626068115234,-1.0724053382873535 33.799320220947266,-0.22451774775981903 34.42072677612305,0.6331131458282471 35.00935363769531,1.4995037317276 35.56473159790039,2.3736581802368164 36.08643341064453,3.2545692920684814 36.574066162109375,4.1412200927734375 37.02726745605469,5.0325846672058105 37.44572448730469,5.927628993988037 37.829132080078125,6.825311660766602 38.17725372314453,7.7245869636535645 38.48986053466797,8.624403953552246 38.766780853271484,9.523710250854492 39.00787353515625,10.421445846557617 39.21302032470703,11.316558837890625 39.382164001464844,12.207986831665039 39.515254974365234,13.094676971435547 39.61231231689453,13.975577354431152 39.673370361328125,14.849635124206543 39.69849395751953,15.715807914733887 39.68781280517578,16.573055267333984 39.64146423339844,17.42034912109375 39.55963897705078,18.256662368774414 39.44255447387695,19.080982208251953 39.290462493896484,19.892305374145508 39.103660583496094,20.689638137817383 38.882469177246094,21.472002029418945 38.62724685668945,22.238433837890625 38.33839797973633,22.987979888916016 38.01634216308594,23.71970558166504 37.66154098510742,24.432695388793945 37.27449035644531,25.126047134399414 36.855709075927734,25.79888153076172 36.405765533447266,26.450336456298828 35.925235748291016,27.079570770263672 35.41474151611328,27.68577003479004 34.87493133544922,28.26813507080078 34.30647659301758,28.825897216796875 33.7100830078125,29.358306884765625 33.086483001708984,29.86464500427246 32.436431884765625,30.344209671020508 31.76070785522461,30.79633903503418 31.06012725830078,31.22039031982422 30.335512161254883,31.61574935913086 29.587718963623047,31.981834411621094 28.817623138427734,32.318092346191406 28.026123046875,32.62399673461914 27.21413230895996,32.89906311035156 26.382587432861328,33.142826080322266 25.532440185546875,33.3548583984375 24.66466522216797,33.534767150878906 23.780242919921875,33.682186126708984 22.880176544189453,33.796791076660156 21.96548080444336,33.87828826904297 21.037181854248047,33.926414489746094 20.096317291259766,33.940948486328125 19.143938064575195,33.92169952392578 18.181102752685547,33.868507385253906 17.20887565612793,33.7812614440918 16.228328704833984,33.659873962402344 15.2405424118042,33.504295349121094 14.246600151062012,33.31452178955078 13.247589111328125,33.09056854248047 12.244598388671875,32.83250045776367 11.238716125488281,32.5404167175293 10.231035232543945,32.21444320678711 9.222643852233887,31.854755401611328 8.214627265930176,31.461551666259766 7.208069801330566,31.035076141357422 6.204049110412598,30.57560157775879 5.203638076782227,30.083436965942383 4.2079010009765625,29.55893325805664 3.217895984649658,29.002466201782227 2.234670877456665,28.41444969177246 1.259263038635254,27.795333862304688 0.29269856214523315,27.145599365234375 -0.6640092730522156,26.465757369995117 -1.6098606586456299,25.75636100769043 -2.543870687484741,25.01798439025879 -3.4650697708129883,24.25124168395996 -4.3725056648254395,23.456771850585938 -5.265244007110596,22.635242462158203 -6.142368316650391,21.78736114501953 -7.0029826164245605,20.91385269165039 -7.846212387084961,20.015478134155273 -8.671202659606934,19.093019485473633 -9.477123260498047,18.147287368774414 -10.263166427612305,17.179122924804688 -11.028546333312988,16.189388275146484 -11.772506713867188,15.17896556854248 -12.494314193725586,14.14876651763916 -13.193262100219727,13.099721908569336 -13.868673324584961,12.032785415649414 -14.519895553588867,10.948930740356445 -15.146307945251465,9.849148750305176 -15.747316360473633,8.734450340270996 -16.322359085083008,7.605865001678467 -16.87090492248535,6.464436054229736 -17.392452239990234,5.311222076416016 -17.88652992248535,4.147298336029053 -18.35270118713379,2.973750352859497 -18.790565490722656,1.7916765213012695 -19.199745178222656,0.6021861433982849 -19.579906463623047,-0.5936018228530884 -19.930740356445312,-1.794560432434082 -20.251977920532227,-2.9995548725128174 -20.54338264465332,-4.207444190979004 -20.80474853515625,-5.417083263397217 -21.035913467407227,-6.627322673797607 -21.236740112304688,-7.837009429931641 -21.407129287719727,-9.044990539550781 -21.547019958496094,-10.250112533569336 -21.656383514404297,-11.45122241973877 -21.735225677490234,-12.64716911315918 -21.783586502075195,-13.83680534362793 -21.801544189453125,-15.018987655639648 -21.78920555114746,-16.192581176757812 -21.746719360351562,-17.35645294189453 -21.674266815185547,-18.509483337402344 -21.57205581665039,-19.650554656982422 -21.440336227416992,-20.778568267822266 -21.279390335083008,-21.892433166503906 -21.08953094482422,-22.991069793701172 -20.87110710144043,-24.07341194152832 -20.624494552612305,-25.138408660888672 -20.35010528564453,-26.18503189086914 -20.048381805419922,-27.212257385253906 -19.719799041748047,-28.21908950805664 -19.364858627319336,-29.204547882080078 -18.984094619750977,-30.167673110961914 -18.57807159423828,-31.107526779174805 -18.147380828857422,-32.023189544677734 -17.692636489868164,-32.91377258300781 -17.21449089050293,-33.77840042114258 -16.71361541748047,-34.61623001098633 -16.190704345703125,-35.42644500732422 -15.646484375,-36.208251953125 -15.081701278686523,-36.96088409423828 -14.497125625610352,-37.68360137939453 -13.893548965454102,-38.375709533691406 -13.271784782409668,-39.03651428222656 -12.632669448852539,-39.665374755859375 -11.977054595947266,-40.26167297363281 -11.305813789367676,-40.824825286865234 -10.619834899902344,-41.35428237915039 -9.920027732849121,-41.849517822265625 -9.207311630249023,-42.31004333496094 -8.482623100280762,-42.735416412353516 -7.746912002563477,-43.125213623046875 -7.0011420249938965,-43.47905349731445 -6.246285438537598,-43.79658889770508 -5.483326435089111,-44.0775032043457 -4.713257789611816,-44.32152557373047 -3.937079429626465,-44.528411865234375 -3.1558003425598145,-44.697959899902344 -2.3704333305358887,-44.83000183105469 -1.5819960832595825,-44.924415588378906 -0.7915104627609253,-44.981101989746094 3.0984129107888836e-13,-45 0.7915104627609253,-44.981101989746094 1.5819960832595825,-44.924415588378906 2.3704333305358887,-44.83000183105469 3.1558003425598145,-44.697959899902344 3.937079429626465,-44.528411865234375 4.713257789611816,-44.32152557373047 5.483326435089111,-44.0775032043457 6.246285438537598,-43.79658889770508 7.0011420249938965,-43.47905349731445 7.746912002563477,-43.125213623046875 8.482623100280762,-42.735416412353516 9.207311630249023,-42.31004333496094 9.920027732849121,-41.849517822265625 10.619834899902344,-41.35428237915039 11.305813789367676,-40.824825286865234 11.977054595947266,-40.26167297363281 12.632669448852539,-39.665374755859375 13.271784782409668,-39.03651428222656 13.893548965454102,-38.375709533691406 14.497125625610352,-37.68360137939453 15.081701278686523,-36.96088409423828 15.646484375,-36.208251953125 16.190704345703125,-35.42644500732422 16.71361541748047,-34.61623001098633 17.21449089050293,-33.77840042114258 17.692636489868164,-32.91377258300781 18.147380828857422,-32.023189544677734 18.57807159423828,-31.107526779174805 18.984094619750977,-30.167673110961914 19.364858627319336,-29.204547882080078 19.719799041748047,-28.21908950805664 20.048381805419922,-27.212257385253906 20.35010528564453,-26.18503189086914 20.624494552612305,-25.138408660888672 20.87110710144043,-24.07341194152832 21.08953094482422,-22.991069793701172 21.279390335083008,-21.892433166503906 21.440336227416992,-20.778568267822266 21.57205581665039,-19.650554656982422 21.674266815185547,-18.509483337402344 21.746719360351562,-17.35645294189453 21.78920555114746,-16.192581176757812 21.801544189453125,-15.018987655639648 21.783586502075195,-13.83680534362793 21.735225677490234,-12.64716911315918 21.656383514404297,-11.45122241973877 21.547019958496094,-10.250112533569336 21.407129287719727,-9.044990539550781 21.236740112304688,-7.837009429931641 21.035913467407227,-6.627322673797607 20.80474853515625,-5.417083263397217 20.54338264465332,-4.207444190979004 20.251977920532227,-2.9995548725128174 19.930740356445312,-1.794560432434082 19.579906463623047,-0.5936018228530884 19.199745178222656,0.6021861433982849 18.790565490722656,1.7916765213012695 18.35270118713379,2.973750352859497 17.88652992248535,4.147298336029053 17.392452239990234,5.311222076416016 16.87090492248535,6.464436054229736 16.322359085083008,7.605865001678467 15.747316360473633,8.734450340270996 15.146307945251465,9.849148750305176 14.519895553588867,10.948930740356445 13.868673324584961,12.032785415649414 13.193262100219727,13.099721908569336 12.494314193725586,14.14876651763916 11.772506713867188,15.17896556854248 11.028546333312988,16.189388275146484 10.263166427612305,17.179122924804688 9.477123260498047,18.147287368774414 8.671202659606934,19.093019485473633 7.846212387084961,20.015478134155273 7.0029826164245605,20.91385269165039 6.142368316650391,21.78736114501953 5.265244007110596,22.635242462158203 4.3725056648254395,23.456771850585938 3.4650697708129883,24.25124168395996 2.543870687484741,25.01798439025879 1.6098606586456299,25.75636100769043 0.6640092730522156,26.465757369995117 -0.29269856214523315,27.145599365234375 -1.259263038635254,27.795333862304688 -2.234670877456665,28.41444969177246 -3.217895984649658,29.002466201782227 -4.2079010009765625,29.55893325805664 -5.203638076782227,30.083436965942383 -6.204049110412598,30.57560157775879 -7.208069801330566,31.035076141357422 -8.214627265930176,31.461551666259766 -9.222643852233887,31.854755401611328 -10.231035232543945,32.21444320678711 -11.238716125488281,32.5404167175293 -12.244598388671875,32.83250045776367 -13.247589111328125,33.09056854248047 -14.246600151062012,33.31452178955078 -15.2405424118042,33.504295349121094 -16.228328704833984,33.659873962402344 -17.20887565612793,33.7812614440918 -18.181102752685547,33.868507385253906 -19.143938064575195,33.92169952392578 -20.096317291259766,33.940948486328125 -21.037181854248047,33.926414489746094 -21.96548080444336,33.87828826904297 -22.880176544189453,33.796791076660156 -23.780242919921875,33.682186126708984 -24.66466522216797,33.534767150878906 -25.532440185546875,33.3548583984375 -26.382587432861328,33.142826080322266 -27.21413230895996,32.89906311035156 -28.026123046875,32.62399673461914 -28.817623138427734,32.318092346191406 -29.587718963623047,31.981834411621094 -30.335512161254883,31.61574935913086 -31.06012725830078,31.22039031982422 -31.76070785522461,30.79633903503418 -32.436431884765625,30.344209671020508 -33.086483001708984,29.86464500427246 -33.7100830078125,29.358306884765625 -34.30647659301758,28.825897216796875 -34.87493133544922,28.26813507080078 -35.41474151611328,27.68577003479004 -35.925235748291016,27.079570770263672 -36.405765533447266,26.450336456298828 -36.855709075927734,25.79888153076172 -37.27449035644531,25.126047134399414 -37.66154098510742,24.432695388793945 -38.01634216308594,23.71970558166504 -38.33839797973633,22.987979888916016 -38.62724685668945,22.238433837890625 -38.882469177246094,21.472002029418945 -39.103660583496094,20.689638137817383 -39.290462493896484,19.892305374145508 -39.44255447387695,19.080982208251953 -39.55963897705078,18.256662368774414 -39.64146423339844,17.42034912109375 -39.68781280517578,16.573055267333984 -39.69849395751953,15.715807914733887 -39.673370361328125,14.849635124206543 -39.61231231689453,13.975577354431152 -39.515254974365234,13.094676971435547 -39.382164001464844,12.207986831665039 -39.21302032470703,11.316558837890625 -39.00787353515625,10.421445846557617 -38.766780853271484,9.523710250854492 -38.48986053466797,8.624403953552246 -38.17725372314453,7.7245869636535645 -37.829132080078125,6.825311660766602 -37.44572448730469,5.927628993988037 -37.02726745605469,5.0325846672058105 -36.574066162109375,4.1412200927734375 -36.08643341064453,3.2545692920684814 -35.56473159790039,2.3736581802368164 -35.00935363769531,1.4995037317276 -34.42072677612305,0.6331131458282471 -33.799320220947266,-0.22451774775981903 -33.145626068115234,-1.0724053382873535 -32.460174560546875,-1.9095793962478638 -31.743526458740234,-2.735084295272827 -30.996280670166016,-3.5479791164398193 -30.21906280517578,-4.347340106964111 -29.41252899169922,-5.132261276245117 -28.577367782592773,-5.901854038238525 -27.714298248291016,-6.65524959564209 -26.824066162109375,-7.391600131988525 -25.907445907592773,-8.110078811645508 -24.965242385864258,-8.809879302978516 -23.998281478881836,-9.490221977233887 -23.00741958618164,-10.150347709655762 -21.9935359954834,-10.789522171020508 -20.957536697387695,-11.407041549682617 -19.900346755981445,-12.002219200134277 -18.82291603088379,-12.574403762817383 -17.726215362548828,-13.122968673706055 -16.611238479614258,-13.647314071655273 -15.47899055480957,-14.146871566772461 -14.33050537109375,-14.621100425720215 -13.166825294494629,-15.069491386413574 -11.989013671875,-15.49156665802002 -10.798149108886719,-15.886877059936523 -9.595320701599121,-16.255008697509766 -8.381633758544922,-16.5955753326416 -7.158203601837158,-16.908227920532227 -5.926157474517822,-17.192646026611328 -4.686630725860596,-17.448549270629883 -3.440768003463745,-17.675682067871094 -2.18972110748291,-17.87382698059082 -0.9346475005149841,-18.042804718017578 0.3232903778553009,-18.182462692260742 1.5829265117645264,-18.292686462402344 2.843092441558838,-18.373397827148438 4.10261869430542,-18.424549102783203 5.360334396362305,-18.446130752563477 6.615072727203369,-18.43816375732422 7.865665912628174,-18.400711059570312 9.11095142364502,-18.3338623046875 10.349771499633789,-18.23774528503418 11.580973625183105,-18.11252212524414 12.803413391113281,-17.95838737487793 14.015952110290527,-17.775569915771484 15.217464447021484,-17.564334869384766 16.406831741333008,-17.324975967407227 17.582950592041016,-17.057823181152344 18.744728088378906,-16.76323699951172 19.891082763671875,-16.441614151000977 21.020952224731445,-16.0933780670166 22.1332950592041,-15.71898365020752 23.227073669433594,-15.31892204284668 24.301279067993164,-14.893708229064941 25.35491943359375,-14.443888664245605 26.387020111083984,-13.97004222869873 27.396635055541992,-13.472770690917969 28.382829666137695,-12.952706336975098 29.344701766967773,-12.41050910949707 30.281368255615234,-11.846863746643066 31.191970825195312,-11.262479782104492 32.07568359375,-10.658093452453613 32.93170166015625,-10.034463882446289 33.759246826171875,-9.392373085021973 34.55757141113281,-8.732623100280762 35.32595443725586,-8.056041717529297 36.06371307373047,-7.363473892211914 36.770179748535156,-6.655783653259277 37.44473648071289,-5.933854579925537 38.08678436279297,-5.1985883712768555 38.69575500488281,-4.450901031494141 39.271121978759766,-3.691725730895996 39.8123893737793,-2.922008991241455 40.319095611572266,-2.1427109241485596 40.79080581665039,-1.3548040390014648 41.227134704589844,-0.5592718124389648 41.62771987915039,0.2428921014070511 41.99224090576172,1.0506852865219116 42.320404052734375,1.8630974292755127 42.611968994140625,2.6791112422943115 42.86671447753906,3.497704267501831 43.0844612121582,4.317849636077881 43.26506805419922,5.138516426086426 43.408447265625,5.958672523498535 43.51451110839844,6.777285099029541 43.5832405090332,7.593319416046143 43.6146354675293,8.405744552612305 43.60874938964844,9.213529586791992 43.5656623840332,10.015650749206543 43.48548126220703,10.811084747314453 43.368370056152344,11.598816871643066 43.21451950073242,12.377840042114258 43.02415466308594,13.1471529006958 42.797542572021484,13.90576457977295 42.534976959228516,14.652695655822754 42.236793518066406,15.38697624206543 41.90336608886719,16.107648849487305 41.535091400146484,16.81377410888672 41.132408142089844,17.50442123413086 40.695796966552734,18.178678512573242 40.22575378417969,18.835649490356445 39.72282028198242,19.47446060180664 39.18756866455078,20.094249725341797 38.62059020996094,20.694175720214844 38.02252197265625,21.27342414855957 37.39402770996094,21.831195831298828 36.73579788208008,22.366718292236328 36.048545837402344,22.87923812866211 35.333030700683594,23.36803436279297 34.59001159667969,23.8323974609375 33.8203010559082,24.271656036376953 33.024723052978516,24.685163497924805 32.204124450683594,25.072296142578125 31.359378814697266,25.432458877563477 30.49138641357422,25.765090942382812 29.601064682006836,26.069656372070312 28.689350128173828,26.34564781188965 27.757200241088867,26.59259605407715 26.80559539794922,26.810054779052734 25.83553123474121,26.99761199951172 24.84801483154297,27.154891967773438 23.84407615661621,27.281551361083984 22.824752807617188,27.37727165222168 21.791105270385742,27.441774368286133 20.74419593811035,27.47481918334961 19.685102462768555,27.476192474365234 18.614917755126953,27.44571876525879 17.53472900390625,27.383255004882812 16.445646286010742,27.2886962890625 15.34878158569336,27.161968231201172 14.245247840881348,27.00303840637207 13.136164665222168,26.811904907226562 12.022655487060547,26.588598251342773 10.905845642089844,26.33319664001465 9.786860466003418,26.045799255371094 8.666824340820312,25.72654914855957 7.546858787536621,25.375621795654297 6.428084850311279,24.993228912353516 5.311618328094482,24.57961654663086 4.198568820953369,24.135068893432617 3.090040683746338,23.659893035888672 1.9871305227279663,23.15444564819336 0.8909255862236023,22.619110107421875 -0.1974964141845703,22.054298400878906 -1.2770687341690063,21.460464477539062 -2.3467369079589844,20.838088989257812 -3.405459403991699,20.18768882751465 -4.452208995819092,19.509811401367188 -5.4859747886657715,18.805028915405273 -6.50576114654541,18.073957443237305 -7.510589599609375,17.317232131958008 -8.49950122833252,16.535518646240234 -9.471556663513184,15.729515075683594 -10.425835609436035,14.899946212768555 -11.361440658569336,14.047563552856445 -12.277494430541992,13.173145294189453 -13.173145294189453,12.277494430541992 -14.047563552856445,11.361440658569336 -14.899946212768555,10.425835609436035 -15.729515075683594,9.471556663513184 -16.535518646240234,8.49950122833252 -17.317232131958008,7.510589599609375 -18.073957443237305,6.50576114654541 -18.805028915405273,5.4859747886657715 -19.509811401367188,4.452208995819092 -20.18768882751465,3.405459403991699 -20.838088989257812,2.3467369079589844 -21.460464477539062,1.2770687341690063 -22.054298400878906,0.1974964141845703 -22.619110107421875,-0.8909255862236023 -23.15444564819336,-1.9871305227279663 -23.659893035888672,-3.090040683746338 -24.135068893432617,-4.198568820953369 -24.57961654663086,-5.311618328094482 -24.993228912353516,-6.428084850311279 -25.375621795654297,-7.546858787536621 -25.72654914855957,-8.666824340820312 -26.045799255371094,-9.786860466003418 -26.33319664001465,-10.905845642089844 -26.588598251342773,-12.022655487060547 -26.811904907226562,-13.136164665222168 -27.00303840637207,-14.245247840881348 -27.161968231201172,-15.34878158569336 -27.2886962890625,-16.445646286010742 -27.383255004882812,-17.53472900390625 -27.44571876525879,-18.614917755126953 -27.476192474365234,-19.685102462768555 -27.47481918334961,-20.74419593811035 -27.441774368286133,-21.791105270385742 -27.37727165222168,-22.824752807617188 -27.281551361083984,-23.84407615661621 -27.154891967773438,-24.84801483154297 -26.99761199951172,-25.83553123474121 -26.810054779052734,-26.80559539794922 -26.59259605407715,-27.757200241088867 -26.34564781188965,-28.689350128173828 -26.069656372070312,-29.601064682006836 -25.765090942382812,-30.49138641357422 -25.432458877563477,-31.359378814697266 -25.072296142578125,-32.204124450683594 -24.685163497924805,-33.024723052978516 -24.271656036376953,-33.8203010559082 -23.8323974609375,-34.59001159667969 -23.36803436279297,-35.333030700683594 -22.87923812866211,-36.048545837402344 -22.366718292236328,-36.73579788208008 -21.831195831298828,-37.39402770996094 -21.27342414855957,-38.02252197265625 -20.694175720214844,-38.62059020996094 -20.094249725341797,-39.18756866455078 -19.47446060180664,-39.72282028198242 -18.835649490356445,-40.22575378417969 -18.178678512573242,-40.695796966552734 -17.50442123413086,-41.132408142089844 -16.81377410888672,-41.535091400146484 -16.107648849487305,-41.90336608886719 -15.38697624206543,-42.236793518066406 -14.652695655822754,-42.534976959228516 -13.90576457977295,-42.797542572021484 -13.1471529006958,-43.02415466308594 -12.377840042114258,-43.21451950073242 -11.598816871643066,-43.368370056152344 -10.811084747314453,-43.48548126220703 -10.015650749206543,-43.5656623840332 -9.213529586791992,-43.60874938964844 -8.405744552612305,-43.6146354675293 -7.593319416046143,-43.5832405090332 -6.777285099029541,-43.51451110839844 -5.958672523498535,-43.408447265625 -5.138516426086426,-43.26506805419922 -4.317849636077881,-43.0844612121582 -3.497704267501831,-42.86671447753906 -2.6791112422943115,-42.611968994140625 -1.8630974292755127,-42.320404052734375 -1.0506852865219116,-41.99224090576172 -0.2428921014070511,-41.62771987915039 0.5592718124389648,-41.227134704589844 1.3548040390014648,-40.79080581665039 2.1427109241485596,-40.319095611572266 2.922008991241455,-39.8123893737793 3.691725730895996,-39.271121978759766 4.450901031494141,-38.69575500488281 5.1985883712768555,-38.08678436279297 5.933854579925537,-37.44473648071289 6.655783653259277,-36.770179748535156 7.363473892211914,-36.06371307373047 8.056041717529297,-35.32595443725586 8.732623100280762,-34.55757141113281 9.392373085021973,-33.759246826171875 10.034463882446289,-32.93170166015625 10.658093452453613,-32.07568359375 11.262479782104492,-31.191970825195312 11.846863746643066,-30.281368255615234 12.41050910949707,-29.344701766967773 12.952706336975098,-28.382829666137695 13.472770690917969,-27.396635055541992 13.97004222869873,-26.387020111083984 14.443888664245605,-25.35491943359375 14.893708229064941,-24.301279067993164 15.31892204284668,-23.227073669433594 15.71898365020752,-22.1332950592041 16.0933780670166,-21.020952224731445 16.441614151000977,-19.891082763671875 16.76323699951172,-18.744728088378906 17.057823181152344,-17.582950592041016 17.324975967407227,-16.406831741333008 17.564334869384766,-15.217464447021484 17.775569915771484,-14.015952110290527 17.95838737487793,-12.803413391113281 18.11252212524414,-11.580973625183105 18.23774528503418,-10.349771499633789 18.3338623046875,-9.11095142364502 18.400711059570312,-7.865665912628174 18.43816375732422,-6.615072727203369 18.446130752563477,-5.360334396362305 18.424549102783203,-4.10261869430542 18.373397827148438,-2.843092441558838 18.292686462402344,-1.5829265117645264 18.182462692260742,-0.3232903778553009 18.042804718017578,0.9346475005149841 17.87382698059082,2.18972110748291 17.675682067871094,3.440768003463745 17.448549270629883,4.686630725860596 17.192646026611328,5.926157474517822 16.908227920532227,7.158203601837158 16.5955753326416,8.381633758544922 16.255008697509766,9.595320701599121 15.886877059936523,10.798149108886719 15.49156665802002,11.989013671875 15.069491386413574,13.166825294494629 14.621100425720215,14.33050537109375 14.146871566772461,15.47899055480957 13.647314071655273,16.611238479614258 13.122968673706055,17.726215362548828 12.574403762817383,18.82291603088379 12.002219200134277,19.900346755981445 11.407041549682617,20.957536697387695 10.789522171020508,21.9935359954834 10.150347709655762,23.00741958618164 9.490221977233887,23.998281478881836 8.809879302978516,24.965242385864258 8.110078811645508,25.907445907592773 7.391600131988525,26.824066162109375 6.65524959564209,27.714298248291016 5.901854038238525,28.577367782592773 5.132261276245117,29.41252899169922 4.347340106964111,30.21906280517578 3.5479791164398193,30.996280670166016 2.735084295272827,31.743526458740234 1.9095793962478638,32.460174560546875 1.0724053382873535,33.145626068115234 0.22451774775981903,33.799320220947266 -0.6331131458282471,34.42072677612305 -1.4995037317276,35.00935363769531 -2.3736581802368164,35.56473159790039 -3.2545692920684814,36.08643341064453 -4.1412200927734375,36.574066162109375 -5.0325846672058105,37.02726745605469 -5.927628993988037,37.44572448730469 -6.825311660766602,37.829132080078125 -7.7245869636535645,38.17725372314453 -8.624403953552246,38.48986053466797 -9.523710250854492,38.766780853271484 -10.421445846557617,39.00787353515625 -11.316558837890625,39.21302032470703 -12.207986831665039,39.382164001464844 -13.094676971435547,39.515254974365234 -13.975577354431152,39.61231231689453 -14.849635124206543,39.673370361328125 -15.715807914733887,39.69849395751953 -16.573055267333984,39.68781280517578 -17.42034912109375,39.64146423339844 -18.256662368774414,39.55963897705078 -19.080982208251953,39.44255447387695 -19.892305374145508,39.290462493896484 -20.689638137817383,39.103660583496094 -21.472002029418945,38.882469177246094 -22.238433837890625,38.62724685668945 -22.987979888916016,38.33839797973633 -23.71970558166504,38.01634216308594 -24.432695388793945,37.66154098510742 -25.126047134399414,37.27449035644531 -25.79888153076172,36.855709075927734 -26.450336456298828,36.405765533447266 -27.079570770263672,35.925235748291016 -27.68577003479004,35.41474151611328 -28.26813507080078,34.87493133544922 -28.825897216796875,34.30647659301758 -29.358306884765625,33.7100830078125 -29.86464500427246,33.086483001708984 -30.344209671020508,32.436431884765625 -30.79633903503418,31.76070785522461 -31.22039031982422,31.06012725830078 -31.61574935913086,30.335512161254883 -31.981834411621094,29.587718963623047 -32.318092346191406,28.817623138427734 -32.62399673461914,28.026123046875 -32.89906311035156,27.21413230895996 -33.142826080322266,26.382587432861328 -33.3548583984375,25.532440185546875 -33.534767150878906,24.66466522216797 -33.682186126708984,23.780242919921875 -33.796791076660156,22.880176544189453 -33.87828826904297,21.96548080444336 -33.926414489746094,21.037181854248047 -33.940948486328125,20.096317291259766 -33.92169952392578,19.143938064575195 -33.868507385253906,18.181102752685547 -33.7812614440918,17.20887565612793 -33.659873962402344,16.228328704833984 -33.504295349121094,15.2405424118042 -33.31452178955078,14.246600151062012 -33.09056854248047,13.247589111328125 -32.83250045776367,12.244598388671875 -32.5404167175293,11.238716125488281 -32.21444320678711,10.231035232543945 -31.854755401611328,9.222643852233887 -31.461551666259766,8.214627265930176 -31.035076141357422,7.208069801330566 -30.57560157775879,6.204049110412598 -30.083436965942383,5.203638076782227 -29.55893325805664,4.2079010009765625 -29.002466201782227,3.217895984649658 -28.41444969177246,2.234670877456665 -27.795333862304688,1.259263038635254 -27.145599365234375,0.29269856214523315 -26.465757369995117,-0.6640092730522156 -25.75636100769043,-1.6098606586456299 -25.01798439025879,-2.543870687484741 -24.25124168395996,-3.4650697708129883 -23.456771850585938,-4.3725056648254395 -22.635242462158203,-5.265244007110596 -21.78736114501953,-6.142368316650391 -20.91385269165039,-7.0029826164245605 -20.015478134155273,-7.846212387084961 -19.093019485473633,-8.671202659606934 -18.147287368774414,-9.477123260498047 -17.179122924804688,-10.263166427612305 -16.189388275146484,-11.028546333312988 -15.17896556854248,-11.772506713867188 -14.14876651763916,-12.494314193725586 -13.099721908569336,-13.193262100219727 -12.032785415649414,-13.868673324584961 -10.948930740356445,-14.519895553588867 -9.849148750305176,-15.146307945251465 -8.734450340270996,-15.747316360473633 -7.605865001678467,-16.322359085083008 -6.464436054229736,-16.87090492248535 -5.311222076416016,-17.392452239990234 -4.147298336029053,-17.88652992248535 -2.973750352859497,-18.35270118713379 -1.7916765213012695,-18.790565490722656 -0.6021861433982849,-19.199745178222656 0.5936018228530884,-19.579906463623047 1.794560432434082,-19.930740356445312 2.9995548725128174,-20.251977920532227 4.207444190979004,-20.54338264465332 5.417083263397217,-20.80474853515625 6.627322673797607,-21.035913467407227 7.837009429931641,-21.236740112304688 9.044990539550781,-21.407129287719727 10.250112533569336,-21.547019958496094 11.45122241973877,-21.656383514404297 12.64716911315918,-21.735225677490234 13.83680534362793,-21.783586502075195 15.018987655639648,-21.801544189453125 16.192581176757812,-21.78920555114746 17.35645294189453,-21.746719360351562 18.509483337402344,-21.674266815185547 19.650554656982422,-21.57205581665039 20.778568267822266,-21.440336227416992 21.892433166503906,-21.279390335083008 22.991069793701172,-21.08953094482422 24.07341194152832,-20.87110710144043 25.138408660888672,-20.624494552612305 26.18503189086914,-20.35010528564453 27.212257385253906,-20.048381805419922 28.21908950805664,-19.719799041748047 29.204547882080078,-19.364858627319336 30.167673110961914,-18.984094619750977 31.107526779174805,-18.57807159423828 32.023189544677734,-18.147380828857422 32.91377258300781,-17.692636489868164 33.77840042114258,-17.21449089050293 34.61623001098633,-16.71361541748047 35.42644500732422,-16.190704345703125 36.208251953125,-15.646484375 36.96088409423828,-15.081701278686523 37.68360137939453,-14.497125625610352 38.375709533691406,-13.893548965454102 39.03651428222656,-13.271784782409668 39.665374755859375,-12.632669448852539 40.26167297363281,-11.977054595947266 40.824825286865234,-11.305813789367676 41.35428237915039,-10.619834899902344 41.849517822265625,-9.920027732849121 42.31004333496094,-9.207311630249023 42.735416412353516,-8.482623100280762 43.125213623046875,-7.746912002563477 43.47905349731445,-7.0011420249938965 43.79658889770508,-6.246285438537598 44.0775032043457,-5.483326435089111 44.32152557373047,-4.713257789611816 44.528411865234375,-3.937079429626465 44.697959899902344,-3.1558003425598145 44.83000183105469,-2.3704333305358887 44.924415588378906,-1.5819960832595825 44.981101989746094,-0.7915104627609253 45,1.4666821359851645e-13"
  />
</svg>
