<?xml version="1.0" encoding="UTF-8"?>
<!DOCTYPE svg>
<svg
  data-animation-duration="3s"
  viewBox="-50 -50 100 100"
>
  <title>
    ANIMATION 31 - VARIATION J
  </title>
  <desc>
    <p>See this animation in action here: <a href="https://andrew.wang-hoyer.com/experiments/svg-animations/31/j" target="_blank" rel="noopener">https://andrew.wang-hoyer.com/experiments/svg-animations/31/j</a>.</p>
    <p>Generator source code : <a href="https://github.com/ndrwhr/svg-animation-src/tree/master/site/_svgs/generators/animations/31/j.js" target="_blank" rel="noopener">https://github.com/ndrwhr/svg-animation-src/tree/master/site/_svgs/generators/animations/31/j.js</a>.</p>
    <p>All generated files and source code are released under the following license:</p>
    <p>MIT License</p>
    <p>Copyright (c) 2018-present Andrew Hoyer</p>
    <p>Permission is hereby granted, free of charge, to any person obtaining a copy of this software and associated documentation files (the &quot;Software&quot;), to deal in the Software without restriction, including without limitation the rights to use, copy, modify, merge, publish, distribute, sublicense, and/or sell copies of the Software, and to permit persons to whom the Software is furnished to do so, subject to the following conditions:</p>
    <p>The above copyright notice and this permission notice shall be included in all copies or substantial portions of the Software.</p>
    <p>THE SOFTWARE IS PROVIDED &quot;AS IS&quot;, WITHOUT WARRANTY OF ANY KIND, EXPRESS OR IMPLIED, INCLUDING BUT NOT LIMITED TO THE WARRANTIES OF MERCHANTABILITY, FITNESS FOR A PARTICULAR PURPOSE AND NONINFRINGEMENT. IN NO EVENT SHALL THE AUTHORS OR COPYRIGHT HOLDERS BE LIABLE FOR ANY CLAIM, DAMAGES OR OTHER LIABILITY, WHETHER IN AN ACTION OF CONTRACT, TORT OR OTHERWISE, ARISING FROM, OUT OF OR IN CONNECTION WITH THE SOFTWARE OR THE USE OR OTHER DEALINGS IN THE SOFTWARE.</p>
  </desc>
  <style>
    /* <![CDATA[ */
      .svg-31-j-polyline {
        stroke: black;
        stroke-width: .1;
        fill: none;
        stroke-dasharray: 4%, 4%, 1%, 1%;
        animation: svg-31-j-main-anim 3s linear infinite;
      }
      
      @keyframes svg-31-j-main-anim {
        from {
          stroke-dashoffset: 0;
        }
      
        to {
          stroke-dashoffset: 10%;
        }
      }
      
    /* ]]> */
  </style>
  <polyline
    class="svg-31-j-polyline"
    points="45,0 44.997581481933594,0.4523802697658539 44.99033737182617,0.9047063589096069 44.97825622558594,1.3569236993789673 44.96134948730469,1.8089783191680908 44.93961715698242,2.2608158588409424 44.913055419921875,2.7123820781707764 44.881675720214844,3.1636226177215576 44.84547805786133,3.6144838333129883 44.80447006225586,4.064911365509033 44.7586555480957,4.514850616455078 44.70804214477539,4.9642486572265625 44.65263366699219,5.413051605224609 44.59243392944336,5.861204624176025 44.527462005615234,6.30865478515625 44.45771789550781,6.755347728729248 44.38321304321289,7.201231479644775 44.303955078125,7.646251678466797 44.21995544433594,8.090353965759277 44.131229400634766,8.533488273620605 44.037784576416016,8.975598335266113 43.939632415771484,9.416632652282715 43.8367919921875,9.856538772583008 43.72926712036133,10.29526424407959 43.61707305908203,10.732755661010742 43.50023651123047,11.168961524963379 43.37875747680664,11.603830337524414 43.252662658691406,12.037310600280762 43.12196350097656,12.46934700012207 42.98667907714844,12.899892807006836 42.846824645996094,13.32889461517334 42.702423095703125,13.756301879882812 42.55348587036133,14.182062149047852 42.40003967285156,14.606127738952637 42.242103576660156,15.028446197509766 42.07969665527344,15.448966979980469 41.912837982177734,15.867642402648926 41.74155044555664,16.284423828125 41.565860748291016,16.699256896972656 41.38578414916992,17.112096786499023 41.20135498046875,17.522891998291016 41.0125846862793,17.931598663330078 40.81950759887695,18.338163375854492 40.62214279174805,18.74254035949707 40.4205207824707,19.144681930541992 40.214664459228516,19.54454231262207 40.00460433959961,19.94207191467285 39.79036331176758,20.33722686767578 39.57197189331055,20.729957580566406 39.34946060180664,21.120222091674805 39.12285232543945,21.507970809936523 38.89218521118164,21.89316177368164 38.65747833251953,22.275745391845703 38.41877365112305,22.655683517456055 38.17609405517578,23.032928466796875 37.929473876953125,23.407434463500977 37.67894744873047,23.77916145324707 37.42454147338867,24.14806365966797 37.166297912597656,24.514102935791016 36.90424346923828,24.877233505249023 36.63841247558594,25.23741340637207 36.36884307861328,25.5946044921875 36.09556579589844,25.948760986328125 35.81861877441406,26.29984474182129 35.53804016113281,26.64781379699707 35.25386428833008,26.992633819580078 34.96612548828125,27.334257125854492 34.674861907958984,27.672653198242188 34.3801155090332,28.007780075073242 34.0819206237793,28.339595794677734 33.78031539916992,28.66806983947754 33.475345611572266,28.993162155151367 33.16703796386719,29.31483268737793 32.855445861816406,29.633052825927734 32.54059982299805,29.94778060913086 32.2225456237793,30.258983612060547 31.901325225830078,30.566627502441406 31.576976776123047,30.870677947998047 31.249540328979492,31.17110252380371 30.9190616607666,31.46786117553711 30.585586547851562,31.76093101501465 30.2491512298584,32.05027389526367 29.90980339050293,32.33585739135742 29.567584991455078,32.617652893066406 29.22254180908203,32.895633697509766 28.87471580505371,33.169761657714844 28.524152755737305,33.44001388549805 28.1708984375,33.706356048583984 27.81499481201172,33.96876525878906 27.456493377685547,34.227210998535156 27.095436096191406,34.48166275024414 26.731870651245117,34.73210144042969 26.365842819213867,34.978492736816406 25.997400283813477,35.2208137512207 25.626588821411133,35.459041595458984 25.253459930419922,35.69314956665039 24.878053665161133,35.92311477661133 24.50042724609375,36.1489143371582 24.120622634887695,36.370521545410156 23.738689422607422,36.587921142578125 23.35467529296875,36.801082611083984 22.9686336517334,37.00999069213867 22.580610275268555,37.214622497558594 22.190654754638672,37.41495895385742 21.798816680908203,37.610984802246094 21.4051456451416,37.80267333984375 21.009695053100586,37.990013122558594 20.61250877380371,38.17298126220703 20.21364402770996,38.351566314697266 19.81314468383789,38.5257453918457 19.411067962646484,38.69550704956055 19.007461547851562,38.860836029052734 18.602373123168945,39.0217170715332 18.195859909057617,39.17813491821289 17.7879695892334,39.330081939697266 17.378755569458008,39.4775390625 16.96826934814453,39.62049102783203 16.556560516357422,39.75893783569336 16.14368438720703,39.89285659790039 15.72968864440918,40.022247314453125 15.314627647399902,40.147090911865234 14.898553848266602,40.26738357543945 14.481518745422363,40.38311767578125 14.063573837280273,40.49428176879883 13.64477252960205,40.60087585449219 13.225168228149414,40.702880859375 12.804810523986816,40.80030059814453 12.38375473022461,40.893131256103516 11.962051391601562,40.98135757446289 11.539753913879395,41.06498718261719 11.116914749145508,41.14400863647461 10.693586349487305,41.218421936035156 10.269821166992188,41.28822326660156 9.845671653747559,41.353416442871094 9.421191215515137,41.41399383544922 8.996431350708008,41.46995544433594 8.57144546508789,41.521305084228516 8.146285057067871,41.56804275512695 7.721003532409668,41.610172271728516 7.295652866363525,41.64768600463867 6.8702850341796875,41.680599212646484 6.444953918457031,41.70890426635742 6.019710063934326,41.73261260986328 5.594605445861816,41.75172805786133 5.1696929931640625,41.76625061035156 4.745024681091309,41.77619171142578 4.320652008056641,41.781551361083984 3.8966264724731445,41.7823486328125 3.4730002880096436,41.7785758972168 3.0498249530792236,41.77024841308594 2.6271517276763916,41.757381439208984 2.205031633377075,41.73997497558594 1.7835161685943604,41.71803665161133 1.3626561164855957,41.69158935546875 0.9425020813941956,41.6606330871582 0.5231050848960876,41.625186920166016 0.10451537370681763,41.58525848388672 -0.3132166862487793,41.54086685180664 -0.730040967464447,41.49201202392578 -1.1459076404571533,41.438724517822266 -1.5607668161392212,41.381011962890625 -1.9745689630508423,41.318885803222656 -2.387265205383301,41.25236511230469 -2.7988059520721436,41.18146896362305 -3.2091426849365234,41.1062126159668 -3.6182265281677246,41.026611328125 -4.0260090827941895,40.94268798828125 -4.432442665100098,40.854454040527344 -4.8374786376953125,40.761940002441406 -5.24107027053833,40.6651496887207 -5.643169403076172,40.56412124633789 -6.043729782104492,40.458858489990234 -6.442703723907471,40.34939956665039 -6.8400444984436035,40.23575210571289 -7.2357072830200195,40.11794662475586 -7.629645347595215,39.996002197265625 -8.02181339263916,39.86994934082031 -8.412165641784668,39.739803314208984 -8.800657272338867,39.6055908203125 -9.187243461608887,39.467342376708984 -9.571880340576172,39.32508087158203 -9.954522132873535,39.1788330078125 -10.335128784179688,39.02861785888672 -10.713654518127441,38.874473571777344 -11.090055465698242,38.71642303466797 -11.464290618896484,38.55448913574219 -11.836318969726562,38.388710021972656 -12.206094741821289,38.219112396240234 -12.573580741882324,38.04572296142578 -12.938733100891113,37.86857223510742 -13.301512718200684,37.68769073486328 -13.66187858581543,37.50311279296875 -14.019789695739746,37.31486511230469 -14.375207901000977,37.122982025146484 -14.728094100952148,36.927494049072266 -15.078409194946289,36.72843933105469 -15.426115036010742,36.525840759277344 -15.771174430847168,36.31974411010742 -16.113548278808594,36.11017608642578 -16.453201293945312,35.89717102050781 -16.790096282958984,35.68077087402344 -17.124195098876953,35.46099853515625 -17.455467224121094,35.2379035949707 -17.783872604370117,35.011512756347656 -18.109378814697266,34.781864166259766 -18.43195152282715,34.54899597167969 -18.751554489135742,34.31294631958008 -19.068159103393555,34.073753356933594 -19.381729125976562,33.831451416015625 -19.692232131958008,33.586082458496094 -19.999637603759766,33.33768081665039 -20.303911209106445,33.08628845214844 -20.605026245117188,32.83195114135742 -20.902950286865234,32.5746955871582 -21.19765281677246,32.314571380615234 -21.489107131958008,32.051612854003906 -21.777280807495117,31.785869598388672 -22.062145233154297,31.51737403869629 -22.343677520751953,31.246171951293945 -22.621845245361328,30.972301483154297 -22.896623611450195,30.69580841064453 -23.167985916137695,30.416732788085938 -23.43590545654297,30.135116577148438 -23.700361251831055,29.851003646850586 -23.96132469177246,29.56443977355957 -24.21877098083496,29.275463104248047 -24.472675323486328,28.984119415283203 -24.723020553588867,28.690452575683594 -24.96977996826172,28.394508361816406 -25.212934494018555,28.09632682800293 -25.452457427978516,27.795957565307617 -25.688331604003906,27.493438720703125 -25.9205379486084,27.188823699951172 -26.149051666259766,26.882150650024414 -26.373857498168945,26.57346534729004 -26.59493637084961,26.2628173828125 -26.812271118164062,25.95025062561035 -27.025840759277344,25.63581085205078 -27.235633850097656,25.319543838500977 -27.441627502441406,25.001495361328125 -27.643808364868164,24.681711196899414 -27.8421630859375,24.360240936279297 -28.03667449951172,24.037128448486328 -28.227331161499023,23.712419509887695 -28.41411590576172,23.38616371154785 -28.597021102905273,23.058408737182617 -28.77602767944336,22.72920036315918 -28.951128005981445,22.398584365844727 -29.122312545776367,22.066608428955078 -29.289566040039062,21.733322143554688 -29.452880859375,21.398771286010742 -29.61224937438965,21.063003540039062 -29.76766014099121,20.7260684967041 -29.919105529785156,20.388011932373047 -30.06657600402832,20.04888153076172 -30.210065841674805,19.708724975585938 -30.349571228027344,19.367591857910156 -30.485084533691406,19.025527954101562 -30.61659812927246,18.68258285522461 -30.744108200073242,18.338804244995117 -30.86760902404785,17.994239807128906 -30.987102508544922,17.648937225341797 -31.102581024169922,17.30294418334961 -31.21404457092285,16.956308364868164 -31.321487426757812,16.609081268310547 -31.42491340637207,16.26130485534668 -31.52431869506836,15.913030624389648 -31.61970329284668,15.564308166503906 -31.71106719970703,15.215180397033691 -31.79841423034668,14.865697860717773 -31.881742477416992,14.515910148620605 -31.961057662963867,14.165860176086426 -32.03636169433594,13.815600395202637 -32.1076545715332,13.465174674987793 -32.17494201660156,13.114631652832031 -32.23822784423828,12.764018058776855 -32.297523498535156,12.413381576538086 -32.35282516479492,12.062769889831543 -32.404144287109375,11.712228775024414 -32.45148468017578,11.361804962158203 -32.4948616027832,11.011548042297363 -32.534271240234375,10.661499977111816 -32.569732666015625,10.3117094039917 -32.60124588012695,9.962224006652832 -32.62882614135742,9.61308765411377 -32.65248107910156,9.2643461227417 -32.67222595214844,8.916048049926758 -32.68806076049805,8.568235397338867 -32.70001220703125,8.220956802368164 -32.70808410644531,7.8742547035217285 -32.712284088134766,7.528175354003906 -32.71263885498047,7.182764053344727 -32.70915222167969,6.838064670562744 -32.701839447021484,6.494121551513672 -32.69072341918945,6.150979042053223 -32.675811767578125,5.808681011199951 -32.65711975097656,5.467271327972412 -32.634666442871094,5.126793384552002 -32.60847473144531,4.787290096282959 -32.57855224609375,4.44880485534668 -32.544921875,4.111379623413086 -32.50760269165039,3.775057554244995 -32.466609954833984,3.43988037109375 -32.42197036743164,3.1058900356292725 -32.373695373535156,2.7731282711029053 -32.321815490722656,2.441636085510254 -32.26634216308594,2.111454486846924 -32.20730209350586,1.7826241254806519 -32.14471435546875,1.4551855325698853 -32.07860565185547,1.129178524017334 -32.008995056152344,0.8046431541442871 -31.935903549194336,0.48161861300468445 -31.859363555908203,0.16014397144317627 -31.77939224243164,-0.15974199771881104 -31.69601821899414,-0.4780009090900421 -31.609262466430664,-0.7945947051048279 -31.519155502319336,-1.1094857454299927 -31.425718307495117,-1.42263662815094 -31.328981399536133,-1.7340105772018433 -31.228973388671875,-2.0435707569122314 -31.125715255737305,-2.351280927658081 -31.01923942565918,-2.6571054458618164 -30.90957260131836,-2.9610087871551514 -30.796743392944336,-3.262955904006958 -30.680782318115234,-3.5629117488861084 -30.561717987060547,-3.860842704772949 -30.439577102661133,-4.156713962554932 -30.314393997192383,-4.450493335723877 -30.18619728088379,-4.742146968841553 -30.055015563964844,-5.031641960144043 -29.920886993408203,-5.318946361541748 -29.783836364746094,-5.604028701782227 -29.64389991760254,-5.886857509613037 -29.501108169555664,-6.1674017906188965 -29.35549545288086,-6.4456305503845215 -29.20709228515625,-6.721514701843262 -29.055931091308594,-6.995023250579834 -28.902050018310547,-7.2661285400390625 -28.745481491088867,-7.534801006317139 -28.58625602722168,-7.801012992858887 -28.424415588378906,-8.064736366271973 -28.259986877441406,-8.325942993164062 -28.093013763427734,-8.584607124328613 -27.923526763916016,-8.840702056884766 -27.751558303833008,-9.094202041625977 -27.5771541595459,-9.345081329345703 -27.400339126586914,-9.593315124511719 -27.221160888671875,-9.838878631591797 -27.039649963378906,-10.081748962402344 -26.85584259033203,-10.32190227508545 -26.669784545898438,-10.559313774108887 -26.481502532958984,-10.793963432312012 -26.29104232788086,-11.025827407836914 -26.098438262939453,-11.25488567352295 -25.903728485107422,-11.48111629486084 -25.706953048706055,-11.704499244689941 -25.508153915405273,-11.92501449584961 -25.307363510131836,-12.142640113830566 -25.104625701904297,-12.357361793518066 -24.899982452392578,-12.569158554077148 -24.693464279174805,-12.778013229370117 -24.485116958618164,-12.983905792236328 -24.274980545043945,-13.186822891235352 -24.063095092773438,-13.386747360229492 -23.84950065612793,-13.583661079406738 -23.634233474731445,-13.777551651000977 -23.417343139648438,-13.968400955200195 -23.19886016845703,-14.156198501586914 -22.97883415222168,-14.34092903137207 -22.757299423217773,-14.522579193115234 -22.534297943115234,-14.701135635375977 -22.30987548828125,-14.8765869140625 -22.084070205688477,-15.048921585083008 -21.856922149658203,-15.218128204345703 -21.628477096557617,-15.384197235107422 -21.398771286010742,-15.547117233276367 -21.167850494384766,-15.706880569458008 -20.935754776000977,-15.863475799560547 -20.702526092529297,-16.016897201538086 -20.468204498291016,-16.16713523864746 -20.23283576965332,-16.31418228149414 -19.9964599609375,-16.45803451538086 -19.759117126464844,-16.598682403564453 -19.520851135253906,-16.736120223999023 -19.28170394897461,-16.870346069335938 -19.041717529296875,-17.001354217529297 -18.800931930541992,-17.12913703918457 -18.55939292907715,-17.25369644165039 -18.317138671875,-17.375024795532227 -18.0742130279541,-17.49312400817871 -17.830659866333008,-17.607988357543945 -17.586517333984375,-17.71961784362793 -17.341829299926758,-17.828012466430664 -17.096637725830078,-17.93317222595215 -16.850984573364258,-18.03509521484375 -16.60491180419922,-18.133785247802734 -16.35845947265625,-18.22924041748047 -16.111669540405273,-18.32146453857422 -15.86458683013916,-18.410459518432617 -15.617249488830566,-18.496227264404297 -15.369698524475098,-18.578773498535156 -15.121976852416992,-18.658100128173828 -14.874125480651855,-18.73421287536621 -14.62618637084961,-18.807117462158203 -14.378198623657227,-18.87681770324707 -14.130204200744629,-18.94331932067871 -13.882243156433105,-19.006629943847656 -13.634356498718262,-19.066757202148438 -13.386584281921387,-19.123706817626953 -13.138968467712402,-19.177488327026367 -12.891548156738281,-19.228111267089844 -12.64436149597168,-19.275583267211914 -12.397451400756836,-19.319913864135742 -12.15085506439209,-19.361114501953125 -11.904613494873047,-19.399192810058594 -11.65876579284668,-19.43416404724121 -11.413350105285645,-19.46603775024414 -11.168407440185547,-19.49482536315918 -10.923973083496094,-19.520540237426758 -10.680088996887207,-19.543195724487305 -10.43679141998291,-19.56280517578125 -10.19411849975586,-19.579381942749023 -9.952109336853027,-19.59294319152832 -9.710800170898438,-19.603500366210938 -9.470229148864746,-19.61107063293457 -9.230433464050293,-19.61566925048828 -8.991449356079102,-19.617313385009766 -8.753313064575195,-19.616018295288086 -8.516061782836914,-19.611804962158203 -8.279731750488281,-19.60468864440918 -8.044358253479004,-19.59468650817871 -7.809976577758789,-19.581817626953125 -7.576622009277344,-19.566104888916016 -7.344330787658691,-19.547561645507812 -7.113135814666748,-19.526212692260742 -6.8830718994140625,-19.502077102661133 -6.654173851013184,-19.47517204284668 -6.4264750480651855,-19.445524215698242 -6.200007915496826,-19.41315269470215 -5.974806308746338,-19.378080368041992 -5.750903606414795,-19.340328216552734 -5.528331279754639,-19.2999210357666 -5.307121276855469,-19.256879806518555 -5.087306499481201,-19.211231231689453 -4.868916988372803,-19.162996292114258 -4.651984691619873,-19.112199783325195 -4.436540126800537,-19.058868408203125 -4.222613334655762,-19.00302505493164 -4.010234832763672,-18.944698333740234 -3.7994332313537598,-18.8839111328125 -3.590238571166992,-18.820690155029297 -3.3826797008514404,-18.755064010620117 -3.1767845153808594,-18.687057495117188 -2.972581624984741,-18.61669921875 -2.7700982093811035,-18.544015884399414 -2.569361925125122,-18.469036102294922 -2.3703994750976562,-18.391788482666016 -2.1732373237609863,-18.312299728393555 -1.9779016971588135,-18.230602264404297 -1.784417986869812,-18.14672088623047 -1.5928115844726562,-18.06068992614746 -1.4031072854995728,-17.9725341796875 -1.2153294086456299,-17.882287979125977 -1.0295021533966064,-17.789979934692383 -0.8456487655639648,-17.695640563964844 -0.6637925505638123,-17.599300384521484 -0.4839560389518738,-17.500993728637695 -0.3061615526676178,-17.40074920654297 -0.13043083250522614,-17.298599243164062 0.043214768171310425,-17.1945743560791 0.2147543728351593,-17.08871078491211 0.38416752219200134,-16.981037139892578 0.5514342784881592,-16.8715877532959 0.7165350317955017,-16.760395050048828 0.879450798034668,-16.647493362426758 1.0401629209518433,-16.532917022705078 1.1986533403396606,-16.416696548461914 1.354904294013977,-16.298866271972656 1.5088986158370972,-16.179462432861328 1.6606196165084839,-16.05851936340332 1.8100510835647583,-15.93606948852539 1.9571770429611206,-15.812148094177246 2.101982355117798,-15.686789512634277 2.2444522380828857,-15.560029983520508 2.3845722675323486,-15.431902885437012 2.5223288536071777,-15.302445411682129 2.657707929611206,-15.171690940856934 2.7906975746154785,-15.03967571258545 2.9212846755981445,-14.906436920166016 3.049457311630249,-14.772008895874023 3.1752049922943115,-14.63642692565918 3.298516035079956,-14.499728202819824 3.419379949569702,-14.36194896697998 3.5377871990203857,-14.223125457763672 3.6537280082702637,-14.083292007446289 3.7671937942504883,-13.942488670349121 3.878175735473633,-13.800748825073242 3.986666440963745,-13.658109664916992 4.092658519744873,-13.514609336853027 4.196144104003906,-13.370283126831055 4.297117710113525,-13.225168228149414 4.395573139190674,-13.079301834106445 4.491504669189453,-12.932720184326172 4.5849080085754395,-12.785460472106934 4.675778388977051,-12.637558937072754 4.7641119956970215,-12.489054679870605 4.849905014038086,-12.339982986450195 4.933154582977295,-12.190380096435547 5.013859272003174,-12.040285110473633 5.092016220092773,-11.889732360839844 5.167624473571777,-11.738761901855469 5.240682601928711,-11.587408065795898 5.311191082000732,-11.435708999633789 5.379148960113525,-11.28370189666748 5.4445576667785645,-11.13142204284668 5.507418155670166,-10.97890853881836 5.5677313804626465,-10.826196670532227 5.625500679016113,-10.673323631286621 5.680727481842041,-10.520325660705566 5.733415603637695,-10.367238998413086 5.783568382263184,-10.214101791381836 5.83119010925293,-10.060949325561523 5.876284599304199,-9.907816886901855 5.918857574462891,-9.754743576049805 5.958914756774902,-9.601762771606445 5.996461868286133,-9.448911666870117 6.031505584716797,-9.296225547790527 6.064052104949951,-9.143742561340332 6.094110488891602,-8.991495132446289 6.121686935424805,-8.839520454406738 6.146791458129883,-8.687853813171387 6.169432163238525,-8.536529541015625 6.1896185874938965,-8.385584831237793 6.207360744476318,-8.235053062438965 6.222668647766113,-8.084969520568848 6.23555326461792,-7.935367584228516 6.246026039123535,-7.78628396987915 6.254097938537598,-7.637750625610352 6.259782314300537,-7.489803314208984 6.263091564178467,-7.342474937438965 6.2640380859375,-7.195799350738525 6.262636184692383,-7.049810886383057 6.258899211883545,-6.904541015625 6.252841949462891,-6.760024547576904 6.244479656219482,-6.616293430328369 6.233827114105225,-6.4733805656433105 6.220900535583496,-6.331318378448486 6.205715179443359,-6.19013786315918 6.188288688659668,-6.049871921539307 6.168637275695801,-5.910552501678467 6.146779537200928,-5.772210121154785 6.122732162475586,-5.634876728057861 6.096514701843262,-5.498581409454346 6.06814432144165,-5.363356590270996 6.037641525268555,-5.229231834411621 6.005025863647461,-5.0962371826171875 5.970316410064697,-4.964402198791504 5.933533668518066,-4.833755970001221 5.894698143005371,-4.704328536987305 5.853831768035889,-4.57614803314209 5.81095552444458,-4.44924259185791 5.766091346740723,-4.323641300201416 5.719261646270752,-4.199371337890625 5.670488357543945,-4.076460361480713 5.619795322418213,-3.9549355506896973 5.56720495223999,-3.8348240852355957 5.512742042541504,-3.7161519527435303 5.456429958343506,-3.5989458560943604 5.3982930183410645,-3.48323130607605 5.3383564949035645,-3.3690335750579834 5.276645183563232,-3.256378412246704 5.213183879852295,-3.1452901363372803 5.147999286651611,-3.0357933044433594 5.081117153167725,-2.9279115200042725 5.012563705444336,-2.821668863296509 4.942365646362305,-2.7170886993408203 4.870550155639648,-2.6141934394836426 4.797144412994385,-2.5130059719085693 4.7221760749816895,-2.413548231124878 4.645672798156738,-2.3158421516418457 4.567663192749023,-2.2199087142944336 4.488175392150879,-2.1257691383361816 4.407238006591797,-2.0334436893463135 4.324880599975586,-1.9429526329040527 4.2411322593688965,-1.8543157577514648 4.156022071838379,-1.7675518989562988 4.069580078125,-1.6826804876327515 3.9818367958068848,-1.5997194051742554 3.892822027206421,-1.5186872482299805 3.8025660514831543,-1.4396010637283325 3.7111001014709473,-1.3624781370162964 3.618455171585083,-1.2873353958129883 3.5246620178222656,-1.214189052581787 3.4297523498535156,-1.143054723739624 3.3337578773498535,-1.0739479064941406 3.236710548400879,-1.0068837404251099 3.138641595840454,-0.9418764710426331 3.039583921432495,-0.8789402842521667 2.9395699501037598,-0.8180886507034302 2.838632106781006,-0.7593348622322083 2.736802816390991,-0.7026915550231934 2.634115219116211,-0.6481708288192749 2.5306026935577393,-0.595784604549408 2.426298141479492,-0.5455441474914551 2.321234941482544,-0.49746015667915344 2.215446710586548,-0.4515431523323059 2.1089670658111572,-0.40780287981033325 2.0018296241760254,-0.3662489056587219 1.8940683603286743,-0.32689008116722107 1.785717487335205,-0.2897348999977112 1.6768109798431396,-0.25479134917259216 1.5673828125,-0.2220669537782669 1.457467794418335,-0.1915687471628189 1.3471001386642456,-0.16330330073833466 1.2363141775131226,-0.13727667927742004 1.125144600868225,-0.11349447816610336 1.0136260986328125,-0.0919618085026741 0.901793360710144,-0.07268330454826355 0.7896811366081238,-0.0556630976498127 0.6773242354393005,-0.04090485721826553 0.5647575855255127,-0.0284117441624403 0.4520159959793091,-0.018186446279287338 0.3391345143318176,-0.010231157764792442 0.22614799439907074,-0.004547588061541319 0.11309149861335754,-0.0011369581334292889 2.7554553521421787e-15,-6.748918848720656e-31 -0.11309149861335754,-0.0011369581334292889 -0.22614799439907074,-0.004547588061541319 -0.3391345143318176,-0.010231157764792442 -0.4520159959793091,-0.018186446279287338 -0.5647575855255127,-0.0284117441624403 -0.6773242354393005,-0.04090485721826553 -0.7896811366081238,-0.0556630976498127 -0.901793360710144,-0.07268330454826355 -1.0136260986328125,-0.0919618085026741 -1.125144600868225,-0.11349447816610336 -1.2363141775131226,-0.13727667927742004 -1.3471001386642456,-0.16330330073833466 -1.457467794418335,-0.1915687471628189 -1.5673828125,-0.2220669537782669 -1.6768109798431396,-0.25479134917259216 -1.785717487335205,-0.2897348999977112 -1.8940683603286743,-0.32689008116722107 -2.0018296241760254,-0.3662489056587219 -2.1089670658111572,-0.40780287981033325 -2.215446710586548,-0.4515431523323059 -2.321234941482544,-0.49746015667915344 -2.426298141479492,-0.5455441474914551 -2.5306026935577393,-0.595784604549408 -2.634115219116211,-0.6481708288192749 -2.736802816390991,-0.7026915550231934 -2.838632106781006,-0.7593348622322083 -2.9395699501037598,-0.8180886507034302 -3.039583921432495,-0.8789402842521667 -3.138641595840454,-0.9418764710426331 -3.236710548400879,-1.0068837404251099 -3.3337578773498535,-1.0739479064941406 -3.4297523498535156,-1.143054723739624 -3.5246620178222656,-1.214189052581787 -3.618455171585083,-1.2873353958129883 -3.7111001014709473,-1.3624781370162964 -3.8025660514831543,-1.4396010637283325 -3.892822027206421,-1.5186872482299805 -3.9818367958068848,-1.5997194051742554 -4.069580078125,-1.6826804876327515 -4.156022071838379,-1.7675518989562988 -4.2411322593688965,-1.8543157577514648 -4.324880599975586,-1.9429526329040527 -4.407238006591797,-2.0334436893463135 -4.488175392150879,-2.1257691383361816 -4.567663192749023,-2.2199087142944336 -4.645672798156738,-2.3158421516418457 -4.7221760749816895,-2.413548231124878 -4.797144412994385,-2.5130059719085693 -4.870550155639648,-2.6141934394836426 -4.942365646362305,-2.7170886993408203 -5.012563705444336,-2.821668863296509 -5.081117153167725,-2.9279115200042725 -5.147999286651611,-3.0357933044433594 -5.213183879852295,-3.1452901363372803 -5.276645183563232,-3.256378412246704 -5.3383564949035645,-3.3690335750579834 -5.3982930183410645,-3.48323130607605 -5.456429958343506,-3.5989458560943604 -5.512742042541504,-3.7161519527435303 -5.56720495223999,-3.8348240852355957 -5.619795322418213,-3.9549355506896973 -5.670488357543945,-4.076460361480713 -5.719261646270752,-4.199371337890625 -5.766091346740723,-4.323641300201416 -5.81095552444458,-4.44924259185791 -5.853831768035889,-4.57614803314209 -5.894698143005371,-4.704328536987305 -5.933533668518066,-4.833755970001221 -5.970316410064697,-4.964402198791504 -6.005025863647461,-5.0962371826171875 -6.037641525268555,-5.229231834411621 -6.06814432144165,-5.363356590270996 -6.096514701843262,-5.498581409454346 -6.122732162475586,-5.634876728057861 -6.146779537200928,-5.772210121154785 -6.168637275695801,-5.910552501678467 -6.188288688659668,-6.049871921539307 -6.205715179443359,-6.19013786315918 -6.220900535583496,-6.331318378448486 -6.233827114105225,-6.4733805656433105 -6.244479656219482,-6.616293430328369 -6.252841949462891,-6.760024547576904 -6.258899211883545,-6.904541015625 -6.262636184692383,-7.049810886383057 -6.2640380859375,-7.195799350738525 -6.263091564178467,-7.342474937438965 -6.259782314300537,-7.489803314208984 -6.254097938537598,-7.637750625610352 -6.246026039123535,-7.78628396987915 -6.23555326461792,-7.935367584228516 -6.222668647766113,-8.084969520568848 -6.207360744476318,-8.235053062438965 -6.1896185874938965,-8.385584831237793 -6.169432163238525,-8.536529541015625 -6.146791458129883,-8.687853813171387 -6.121686935424805,-8.839520454406738 -6.094110488891602,-8.991495132446289 -6.064052104949951,-9.143742561340332 -6.031505584716797,-9.296225547790527 -5.996461868286133,-9.448911666870117 -5.958914756774902,-9.601762771606445 -5.918857574462891,-9.754743576049805 -5.876284599304199,-9.907816886901855 -5.83119010925293,-10.060949325561523 -5.783568382263184,-10.214101791381836 -5.733415603637695,-10.367238998413086 -5.680727481842041,-10.520325660705566 -5.625500679016113,-10.673323631286621 -5.5677313804626465,-10.826196670532227 -5.507418155670166,-10.97890853881836 -5.4445576667785645,-11.13142204284668 -5.379148960113525,-11.28370189666748 -5.311191082000732,-11.435708999633789 -5.240682601928711,-11.587408065795898 -5.167624473571777,-11.738761901855469 -5.092016220092773,-11.889732360839844 -5.013859272003174,-12.040285110473633 -4.933154582977295,-12.190380096435547 -4.849905014038086,-12.339982986450195 -4.7641119956970215,-12.489054679870605 -4.675778388977051,-12.637558937072754 -4.5849080085754395,-12.785460472106934 -4.491504669189453,-12.932720184326172 -4.395573139190674,-13.079301834106445 -4.297117710113525,-13.225168228149414 -4.196144104003906,-13.370283126831055 -4.092658519744873,-13.514609336853027 -3.986666440963745,-13.658109664916992 -3.878175735473633,-13.800748825073242 -3.7671937942504883,-13.942488670349121 -3.6537280082702637,-14.083292007446289 -3.5377871990203857,-14.223125457763672 -3.419379949569702,-14.36194896697998 -3.298516035079956,-14.499728202819824 -3.1752049922943115,-14.63642692565918 -3.049457311630249,-14.772008895874023 -2.9212846755981445,-14.906436920166016 -2.7906975746154785,-15.03967571258545 -2.657707929611206,-15.171690940856934 -2.5223288536071777,-15.302445411682129 -2.3845722675323486,-15.431902885437012 -2.2444522380828857,-15.560029983520508 -2.101982355117798,-15.686789512634277 -1.9571770429611206,-15.812148094177246 -1.8100510835647583,-15.93606948852539 -1.6606196165084839,-16.05851936340332 -1.5088986158370972,-16.179462432861328 -1.354904294013977,-16.298866271972656 -1.1986533403396606,-16.416696548461914 -1.0401629209518433,-16.532917022705078 -0.879450798034668,-16.647493362426758 -0.7165350317955017,-16.760395050048828 -0.5514342784881592,-16.8715877532959 -0.38416752219200134,-16.981037139892578 -0.2147543728351593,-17.08871078491211 -0.043214768171310425,-17.1945743560791 0.13043083250522614,-17.298599243164062 0.3061615526676178,-17.40074920654297 0.4839560389518738,-17.500993728637695 0.6637925505638123,-17.599300384521484 0.8456487655639648,-17.695640563964844 1.0295021533966064,-17.789979934692383 1.2153294086456299,-17.882287979125977 1.4031072854995728,-17.9725341796875 1.5928115844726562,-18.06068992614746 1.784417986869812,-18.14672088623047 1.9779016971588135,-18.230602264404297 2.1732373237609863,-18.312299728393555 2.3703994750976562,-18.391788482666016 2.569361925125122,-18.469036102294922 2.7700982093811035,-18.544015884399414 2.972581624984741,-18.61669921875 3.1767845153808594,-18.687057495117188 3.3826797008514404,-18.755064010620117 3.590238571166992,-18.820690155029297 3.7994332313537598,-18.8839111328125 4.010234832763672,-18.944698333740234 4.222613334655762,-19.00302505493164 4.436540126800537,-19.058868408203125 4.651984691619873,-19.112199783325195 4.868916988372803,-19.162996292114258 5.087306499481201,-19.211231231689453 5.307121276855469,-19.256879806518555 5.528331279754639,-19.2999210357666 5.750903606414795,-19.340328216552734 5.974806308746338,-19.378080368041992 6.200007915496826,-19.41315269470215 6.4264750480651855,-19.445524215698242 6.654173851013184,-19.47517204284668 6.8830718994140625,-19.502077102661133 7.113135814666748,-19.526212692260742 7.344330787658691,-19.547561645507812 7.576622009277344,-19.566104888916016 7.809976577758789,-19.581817626953125 8.044358253479004,-19.59468650817871 8.279731750488281,-19.60468864440918 8.516061782836914,-19.611804962158203 8.753313064575195,-19.616018295288086 8.991449356079102,-19.617313385009766 9.230433464050293,-19.61566925048828 9.470229148864746,-19.61107063293457 9.710800170898438,-19.603500366210938 9.952109336853027,-19.59294319152832 10.19411849975586,-19.579381942749023 10.43679141998291,-19.56280517578125 10.680088996887207,-19.543195724487305 10.923973083496094,-19.520540237426758 11.168407440185547,-19.49482536315918 11.413350105285645,-19.46603775024414 11.65876579284668,-19.43416404724121 11.904613494873047,-19.399192810058594 12.15085506439209,-19.361114501953125 12.397451400756836,-19.319913864135742 12.64436149597168,-19.275583267211914 12.891548156738281,-19.228111267089844 13.138968467712402,-19.177488327026367 13.386584281921387,-19.123706817626953 13.634356498718262,-19.066757202148438 13.882243156433105,-19.006629943847656 14.130204200744629,-18.94331932067871 14.378198623657227,-18.87681770324707 14.62618637084961,-18.807117462158203 14.874125480651855,-18.73421287536621 15.121976852416992,-18.658100128173828 15.369698524475098,-18.578773498535156 15.617249488830566,-18.496227264404297 15.86458683013916,-18.410459518432617 16.111669540405273,-18.32146453857422 16.35845947265625,-18.22924041748047 16.60491180419922,-18.133785247802734 16.850984573364258,-18.03509521484375 17.096637725830078,-17.93317222595215 17.341829299926758,-17.828012466430664 17.586517333984375,-17.71961784362793 17.830659866333008,-17.607988357543945 18.0742130279541,-17.49312400817871 18.317138671875,-17.375024795532227 18.55939292907715,-17.25369644165039 18.800931930541992,-17.12913703918457 19.041717529296875,-17.001354217529297 19.28170394897461,-16.870346069335938 19.520851135253906,-16.736120223999023 19.759117126464844,-16.598682403564453 19.9964599609375,-16.45803451538086 20.23283576965332,-16.31418228149414 20.468204498291016,-16.16713523864746 20.702526092529297,-16.016897201538086 20.935754776000977,-15.863475799560547 21.167850494384766,-15.706880569458008 21.398771286010742,-15.547117233276367 21.628477096557617,-15.384197235107422 21.856922149658203,-15.218128204345703 22.084070205688477,-15.048921585083008 22.30987548828125,-14.8765869140625 22.534297943115234,-14.701135635375977 22.757299423217773,-14.522579193115234 22.97883415222168,-14.34092903137207 23.19886016845703,-14.156198501586914 23.417343139648438,-13.968400955200195 23.634233474731445,-13.777551651000977 23.84950065612793,-13.583661079406738 24.063095092773438,-13.386747360229492 24.274980545043945,-13.186822891235352 24.485116958618164,-12.983905792236328 24.693464279174805,-12.778013229370117 24.899982452392578,-12.569158554077148 25.104625701904297,-12.357361793518066 25.307363510131836,-12.142640113830566 25.508153915405273,-11.92501449584961 25.706953048706055,-11.704499244689941 25.903728485107422,-11.48111629486084 26.098438262939453,-11.25488567352295 26.29104232788086,-11.025827407836914 26.481502532958984,-10.793963432312012 26.669784545898438,-10.559313774108887 26.85584259033203,-10.32190227508545 27.039649963378906,-10.081748962402344 27.221160888671875,-9.838878631591797 27.400339126586914,-9.593315124511719 27.5771541595459,-9.345081329345703 27.751558303833008,-9.094202041625977 27.923526763916016,-8.840702056884766 28.093013763427734,-8.584607124328613 28.259986877441406,-8.325942993164062 28.424415588378906,-8.064736366271973 28.58625602722168,-7.801012992858887 28.745481491088867,-7.534801006317139 28.902050018310547,-7.2661285400390625 29.055931091308594,-6.995023250579834 29.20709228515625,-6.721514701843262 29.35549545288086,-6.4456305503845215 29.501108169555664,-6.1674017906188965 29.64389991760254,-5.886857509613037 29.783836364746094,-5.604028701782227 29.920886993408203,-5.318946361541748 30.055015563964844,-5.031641960144043 30.18619728088379,-4.742146968841553 30.314393997192383,-4.450493335723877 30.439577102661133,-4.156713962554932 30.561717987060547,-3.860842704772949 30.680782318115234,-3.5629117488861084 30.796743392944336,-3.262955904006958 30.90957260131836,-2.9610087871551514 31.01923942565918,-2.6571054458618164 31.125715255737305,-2.351280927658081 31.228973388671875,-2.0435707569122314 31.328981399536133,-1.7340105772018433 31.425718307495117,-1.42263662815094 31.519155502319336,-1.1094857454299927 31.609262466430664,-0.7945947051048279 31.69601821899414,-0.4780009090900421 31.77939224243164,-0.15974199771881104 31.859363555908203,0.16014397144317627 31.935903549194336,0.48161861300468445 32.008995056152344,0.8046431541442871 32.07860565185547,1.129178524017334 32.14471435546875,1.4551855325698853 32.20730209350586,1.7826241254806519 32.26634216308594,2.111454486846924 32.321815490722656,2.441636085510254 32.373695373535156,2.7731282711029053 32.42197036743164,3.1058900356292725 32.466609954833984,3.43988037109375 32.50760269165039,3.775057554244995 32.544921875,4.111379623413086 32.57855224609375,4.44880485534668 32.60847473144531,4.787290096282959 32.634666442871094,5.126793384552002 32.65711975097656,5.467271327972412 32.675811767578125,5.808681011199951 32.69072341918945,6.150979042053223 32.701839447021484,6.494121551513672 32.70915222167969,6.838064670562744 32.71263885498047,7.182764053344727 32.712284088134766,7.528175354003906 32.70808410644531,7.8742547035217285 32.70001220703125,8.220956802368164 32.68806076049805,8.568235397338867 32.67222595214844,8.916048049926758 32.65248107910156,9.2643461227417 32.62882614135742,9.61308765411377 32.60124588012695,9.962224006652832 32.569732666015625,10.3117094039917 32.534271240234375,10.661499977111816 32.4948616027832,11.011548042297363 32.45148468017578,11.361804962158203 32.404144287109375,11.712228775024414 32.35282516479492,12.062769889831543 32.297523498535156,12.413381576538086 32.23822784423828,12.764018058776855 32.17494201660156,13.114631652832031 32.1076545715332,13.465174674987793 32.03636169433594,13.815600395202637 31.961057662963867,14.165860176086426 31.881742477416992,14.515910148620605 31.79841423034668,14.865697860717773 31.71106719970703,15.215180397033691 31.61970329284668,15.564308166503906 31.52431869506836,15.913030624389648 31.42491340637207,16.26130485534668 31.321487426757812,16.609081268310547 31.21404457092285,16.956308364868164 31.102581024169922,17.30294418334961 30.987102508544922,17.648937225341797 30.86760902404785,17.994239807128906 30.744108200073242,18.338804244995117 30.61659812927246,18.68258285522461 30.485084533691406,19.025527954101562 30.349571228027344,19.367591857910156 30.210065841674805,19.708724975585938 30.06657600402832,20.04888153076172 29.919105529785156,20.388011932373047 29.76766014099121,20.7260684967041 29.61224937438965,21.063003540039062 29.452880859375,21.398771286010742 29.289566040039062,21.733322143554688 29.122312545776367,22.066608428955078 28.951128005981445,22.398584365844727 28.77602767944336,22.72920036315918 28.597021102905273,23.058408737182617 28.41411590576172,23.38616371154785 28.227331161499023,23.712419509887695 28.03667449951172,24.037128448486328 27.8421630859375,24.360240936279297 27.643808364868164,24.681711196899414 27.441627502441406,25.001495361328125 27.235633850097656,25.319543838500977 27.025840759277344,25.63581085205078 26.812271118164062,25.95025062561035 26.59493637084961,26.2628173828125 26.373857498168945,26.57346534729004 26.149051666259766,26.882150650024414 25.9205379486084,27.188823699951172 25.688331604003906,27.493438720703125 25.452457427978516,27.795957565307617 25.212934494018555,28.09632682800293 24.96977996826172,28.394508361816406 24.723020553588867,28.690452575683594 24.472675323486328,28.984119415283203 24.21877098083496,29.275463104248047 23.96132469177246,29.56443977355957 23.700361251831055,29.851003646850586 23.43590545654297,30.135116577148438 23.167985916137695,30.416732788085938 22.896623611450195,30.69580841064453 22.621845245361328,30.972301483154297 22.343677520751953,31.246171951293945 22.062145233154297,31.51737403869629 21.777280807495117,31.785869598388672 21.489107131958008,32.051612854003906 21.19765281677246,32.314571380615234 20.902950286865234,32.5746955871582 20.605026245117188,32.83195114135742 20.303911209106445,33.08628845214844 19.999637603759766,33.33768081665039 19.692232131958008,33.586082458496094 19.381729125976562,33.831451416015625 19.068159103393555,34.073753356933594 18.751554489135742,34.31294631958008 18.43195152282715,34.54899597167969 18.109378814697266,34.781864166259766 17.783872604370117,35.011512756347656 17.455467224121094,35.2379035949707 17.124195098876953,35.46099853515625 16.790096282958984,35.68077087402344 16.453201293945312,35.89717102050781 16.113548278808594,36.11017608642578 15.771174430847168,36.31974411010742 15.426115036010742,36.525840759277344 15.078409194946289,36.72843933105469 14.728094100952148,36.927494049072266 14.375207901000977,37.122982025146484 14.019789695739746,37.31486511230469 13.66187858581543,37.50311279296875 13.301512718200684,37.68769073486328 12.938733100891113,37.86857223510742 12.573580741882324,38.04572296142578 12.206094741821289,38.219112396240234 11.836318969726562,38.388710021972656 11.464290618896484,38.55448913574219 11.090055465698242,38.71642303466797 10.713654518127441,38.874473571777344 10.335128784179688,39.02861785888672 9.954522132873535,39.1788330078125 9.571880340576172,39.32508087158203 9.187243461608887,39.467342376708984 8.800657272338867,39.6055908203125 8.412165641784668,39.739803314208984 8.02181339263916,39.86994934082031 7.629645347595215,39.996002197265625 7.2357072830200195,40.11794662475586 6.8400444984436035,40.23575210571289 6.442703723907471,40.34939956665039 6.043729782104492,40.458858489990234 5.643169403076172,40.56412124633789 5.24107027053833,40.6651496887207 4.8374786376953125,40.761940002441406 4.432442665100098,40.854454040527344 4.0260090827941895,40.94268798828125 3.6182265281677246,41.026611328125 3.2091426849365234,41.1062126159668 2.7988059520721436,41.18146896362305 2.387265205383301,41.25236511230469 1.9745689630508423,41.318885803222656 1.5607668161392212,41.381011962890625 1.1459076404571533,41.438724517822266 0.730040967464447,41.49201202392578 0.3132166862487793,41.54086685180664 -0.10451537370681763,41.58525848388672 -0.5231050848960876,41.625186920166016 -0.9425020813941956,41.6606330871582 -1.3626561164855957,41.69158935546875 -1.7835161685943604,41.71803665161133 -2.205031633377075,41.73997497558594 -2.6271517276763916,41.757381439208984 -3.0498249530792236,41.77024841308594 -3.4730002880096436,41.7785758972168 -3.8966264724731445,41.7823486328125 -4.320652008056641,41.781551361083984 -4.745024681091309,41.77619171142578 -5.1696929931640625,41.76625061035156 -5.594605445861816,41.75172805786133 -6.019710063934326,41.73261260986328 -6.444953918457031,41.70890426635742 -6.8702850341796875,41.680599212646484 -7.295652866363525,41.64768600463867 -7.721003532409668,41.610172271728516 -8.146285057067871,41.56804275512695 -8.57144546508789,41.521305084228516 -8.996431350708008,41.46995544433594 -9.421191215515137,41.41399383544922 -9.845671653747559,41.353416442871094 -10.269821166992188,41.28822326660156 -10.693586349487305,41.218421936035156 -11.116914749145508,41.14400863647461 -11.539753913879395,41.06498718261719 -11.962051391601562,40.98135757446289 -12.38375473022461,40.893131256103516 -12.804810523986816,40.80030059814453 -13.225168228149414,40.702880859375 -13.64477252960205,40.60087585449219 -14.063573837280273,40.49428176879883 -14.481518745422363,40.38311767578125 -14.898553848266602,40.26738357543945 -15.314627647399902,40.147090911865234 -15.72968864440918,40.022247314453125 -16.14368438720703,39.89285659790039 -16.556560516357422,39.75893783569336 -16.96826934814453,39.62049102783203 -17.378755569458008,39.4775390625 -17.7879695892334,39.330081939697266 -18.195859909057617,39.17813491821289 -18.602373123168945,39.0217170715332 -19.007461547851562,38.860836029052734 -19.411067962646484,38.69550704956055 -19.81314468383789,38.5257453918457 -20.21364402770996,38.351566314697266 -20.61250877380371,38.17298126220703 -21.009695053100586,37.990013122558594 -21.4051456451416,37.80267333984375 -21.798816680908203,37.610984802246094 -22.190654754638672,37.41495895385742 -22.580610275268555,37.214622497558594 -22.9686336517334,37.00999069213867 -23.35467529296875,36.801082611083984 -23.738689422607422,36.587921142578125 -24.120622634887695,36.370521545410156 -24.50042724609375,36.1489143371582 -24.878053665161133,35.92311477661133 -25.253459930419922,35.69314956665039 -25.626588821411133,35.459041595458984 -25.997400283813477,35.2208137512207 -26.365842819213867,34.978492736816406 -26.731870651245117,34.73210144042969 -27.095436096191406,34.48166275024414 -27.456493377685547,34.227210998535156 -27.81499481201172,33.96876525878906 -28.1708984375,33.706356048583984 -28.524152755737305,33.44001388549805 -28.87471580505371,33.169761657714844 -29.22254180908203,32.895633697509766 -29.567584991455078,32.617652893066406 -29.90980339050293,32.33585739135742 -30.2491512298584,32.05027389526367 -30.585586547851562,31.76093101501465 -30.9190616607666,31.46786117553711 -31.249540328979492,31.17110252380371 -31.576976776123047,30.870677947998047 -31.901325225830078,30.566627502441406 -32.2225456237793,30.258983612060547 -32.54059982299805,29.94778060913086 -32.855445861816406,29.633052825927734 -33.16703796386719,29.31483268737793 -33.475345611572266,28.993162155151367 -33.78031539916992,28.66806983947754 -34.0819206237793,28.339595794677734 -34.3801155090332,28.007780075073242 -34.674861907958984,27.672653198242188 -34.96612548828125,27.334257125854492 -35.25386428833008,26.992633819580078 -35.53804016113281,26.64781379699707 -35.81861877441406,26.29984474182129 -36.09556579589844,25.948760986328125 -36.36884307861328,25.5946044921875 -36.63841247558594,25.23741340637207 -36.90424346923828,24.877233505249023 -37.166297912597656,24.514102935791016 -37.42454147338867,24.14806365966797 -37.67894744873047,23.77916145324707 -37.929473876953125,23.407434463500977 -38.17609405517578,23.032928466796875 -38.41877365112305,22.655683517456055 -38.65747833251953,22.275745391845703 -38.89218521118164,21.89316177368164 -39.12285232543945,21.507970809936523 -39.34946060180664,21.120222091674805 -39.57197189331055,20.729957580566406 -39.79036331176758,20.33722686767578 -40.00460433959961,19.94207191467285 -40.214664459228516,19.54454231262207 -40.4205207824707,19.144681930541992 -40.62214279174805,18.74254035949707 -40.81950759887695,18.338163375854492 -41.0125846862793,17.931598663330078 -41.20135498046875,17.522891998291016 -41.38578414916992,17.112096786499023 -41.565860748291016,16.699256896972656 -41.74155044555664,16.284423828125 -41.912837982177734,15.867642402648926 -42.07969665527344,15.448966979980469 -42.242103576660156,15.028446197509766 -42.40003967285156,14.606127738952637 -42.55348587036133,14.182062149047852 -42.702423095703125,13.756301879882812 -42.846824645996094,13.32889461517334 -42.98667907714844,12.899892807006836 -43.12196350097656,12.46934700012207 -43.252662658691406,12.037310600280762 -43.37875747680664,11.603830337524414 -43.50023651123047,11.168961524963379 -43.61707305908203,10.732755661010742 -43.72926712036133,10.29526424407959 -43.8367919921875,9.856538772583008 -43.939632415771484,9.416632652282715 -44.037784576416016,8.975598335266113 -44.131229400634766,8.533488273620605 -44.21995544433594,8.090353965759277 -44.303955078125,7.646251678466797 -44.38321304321289,7.201231479644775 -44.45771789550781,6.755347728729248 -44.527462005615234,6.30865478515625 -44.59243392944336,5.861204624176025 -44.65263366699219,5.413051605224609 -44.70804214477539,4.9642486572265625 -44.7586555480957,4.514850616455078 -44.80447006225586,4.064911365509033 -44.84547805786133,3.6144838333129883 -44.881675720214844,3.1636226177215576 -44.913055419921875,2.7123820781707764 -44.93961715698242,2.2608158588409424 -44.96134948730469,1.8089783191680908 -44.97825622558594,1.3569236993789673 -44.99033737182617,0.9047063589096069 -44.997581481933594,0.4523802697658539 -45,2.204364281713743e-14 -44.997581481933594,-0.4523802697658539 -44.99033737182617,-0.9047063589096069 -44.97825622558594,-1.3569236993789673 -44.96134948730469,-1.8089783191680908 -44.93961715698242,-2.2608158588409424 -44.913055419921875,-2.7123820781707764 -44.881675720214844,-3.1636226177215576 -44.84547805786133,-3.6144838333129883 -44.80447006225586,-4.064911365509033 -44.7586555480957,-4.514850616455078 -44.70804214477539,-4.9642486572265625 -44.65263366699219,-5.413051605224609 -44.59243392944336,-5.861204624176025 -44.527462005615234,-6.30865478515625 -44.45771789550781,-6.755347728729248 -44.38321304321289,-7.201231479644775 -44.303955078125,-7.646251678466797 -44.21995544433594,-8.090353965759277 -44.131229400634766,-8.533488273620605 -44.037784576416016,-8.975598335266113 -43.939632415771484,-9.416632652282715 -43.8367919921875,-9.856538772583008 -43.72926712036133,-10.29526424407959 -43.61707305908203,-10.732755661010742 -43.50023651123047,-11.168961524963379 -43.37875747680664,-11.603830337524414 -43.252662658691406,-12.037310600280762 -43.12196350097656,-12.46934700012207 -42.98667907714844,-12.899892807006836 -42.846824645996094,-13.32889461517334 -42.702423095703125,-13.756301879882812 -42.55348587036133,-14.182062149047852 -42.40003967285156,-14.606127738952637 -42.242103576660156,-15.028446197509766 -42.07969665527344,-15.448966979980469 -41.912837982177734,-15.867642402648926 -41.74155044555664,-16.284423828125 -41.565860748291016,-16.699256896972656 -41.38578414916992,-17.112096786499023 -41.20135498046875,-17.522891998291016 -41.0125846862793,-17.931598663330078 -40.81950759887695,-18.338163375854492 -40.62214279174805,-18.74254035949707 -40.4205207824707,-19.144681930541992 -40.214664459228516,-19.54454231262207 -40.00460433959961,-19.94207191467285 -39.79036331176758,-20.33722686767578 -39.57197189331055,-20.729957580566406 -39.34946060180664,-21.120222091674805 -39.12285232543945,-21.507970809936523 -38.89218521118164,-21.89316177368164 -38.65747833251953,-22.275745391845703 -38.41877365112305,-22.655683517456055 -38.17609405517578,-23.032928466796875 -37.929473876953125,-23.407434463500977 -37.67894744873047,-23.77916145324707 -37.42454147338867,-24.14806365966797 -37.166297912597656,-24.514102935791016 -36.90424346923828,-24.877233505249023 -36.63841247558594,-25.23741340637207 -36.36884307861328,-25.5946044921875 -36.09556579589844,-25.948760986328125 -35.81861877441406,-26.29984474182129 -35.53804016113281,-26.64781379699707 -35.25386428833008,-26.992633819580078 -34.96612548828125,-27.334257125854492 -34.674861907958984,-27.672653198242188 -34.3801155090332,-28.007780075073242 -34.0819206237793,-28.339595794677734 -33.78031539916992,-28.66806983947754 -33.475345611572266,-28.993162155151367 -33.16703796386719,-29.31483268737793 -32.855445861816406,-29.633052825927734 -32.54059982299805,-29.94778060913086 -32.2225456237793,-30.258983612060547 -31.901325225830078,-30.566627502441406 -31.576976776123047,-30.870677947998047 -31.249540328979492,-31.17110252380371 -30.9190616607666,-31.46786117553711 -30.585586547851562,-31.76093101501465 -30.2491512298584,-32.05027389526367 -29.90980339050293,-32.33585739135742 -29.567584991455078,-32.617652893066406 -29.22254180908203,-32.895633697509766 -28.87471580505371,-33.169761657714844 -28.524152755737305,-33.44001388549805 -28.1708984375,-33.706356048583984 -27.81499481201172,-33.96876525878906 -27.456493377685547,-34.227210998535156 -27.095436096191406,-34.48166275024414 -26.731870651245117,-34.73210144042969 -26.365842819213867,-34.978492736816406 -25.997400283813477,-35.2208137512207 -25.626588821411133,-35.459041595458984 -25.253459930419922,-35.69314956665039 -24.878053665161133,-35.92311477661133 -24.50042724609375,-36.1489143371582 -24.120622634887695,-36.370521545410156 -23.738689422607422,-36.587921142578125 -23.35467529296875,-36.801082611083984 -22.9686336517334,-37.00999069213867 -22.580610275268555,-37.214622497558594 -22.190654754638672,-37.41495895385742 -21.798816680908203,-37.610984802246094 -21.4051456451416,-37.80267333984375 -21.009695053100586,-37.990013122558594 -20.61250877380371,-38.17298126220703 -20.21364402770996,-38.351566314697266 -19.81314468383789,-38.5257453918457 -19.411067962646484,-38.69550704956055 -19.007461547851562,-38.860836029052734 -18.602373123168945,-39.0217170715332 -18.195859909057617,-39.17813491821289 -17.7879695892334,-39.330081939697266 -17.378755569458008,-39.4775390625 -16.96826934814453,-39.62049102783203 -16.556560516357422,-39.75893783569336 -16.14368438720703,-39.89285659790039 -15.72968864440918,-40.022247314453125 -15.314627647399902,-40.147090911865234 -14.898553848266602,-40.26738357543945 -14.481518745422363,-40.38311767578125 -14.063573837280273,-40.49428176879883 -13.64477252960205,-40.60087585449219 -13.225168228149414,-40.702880859375 -12.804810523986816,-40.80030059814453 -12.38375473022461,-40.893131256103516 -11.962051391601562,-40.98135757446289 -11.539753913879395,-41.06498718261719 -11.116914749145508,-41.14400863647461 -10.693586349487305,-41.218421936035156 -10.269821166992188,-41.28822326660156 -9.845671653747559,-41.353416442871094 -9.421191215515137,-41.41399383544922 -8.996431350708008,-41.46995544433594 -8.57144546508789,-41.521305084228516 -8.146285057067871,-41.56804275512695 -7.721003532409668,-41.610172271728516 -7.295652866363525,-41.64768600463867 -6.8702850341796875,-41.680599212646484 -6.444953918457031,-41.70890426635742 -6.019710063934326,-41.73261260986328 -5.594605445861816,-41.75172805786133 -5.1696929931640625,-41.76625061035156 -4.745024681091309,-41.77619171142578 -4.320652008056641,-41.781551361083984 -3.8966264724731445,-41.7823486328125 -3.4730002880096436,-41.7785758972168 -3.0498249530792236,-41.77024841308594 -2.6271517276763916,-41.757381439208984 -2.205031633377075,-41.73997497558594 -1.7835161685943604,-41.71803665161133 -1.3626561164855957,-41.69158935546875 -0.9425020813941956,-41.6606330871582 -0.5231050848960876,-41.625186920166016 -0.10451537370681763,-41.58525848388672 0.3132166862487793,-41.54086685180664 0.730040967464447,-41.49201202392578 1.1459076404571533,-41.438724517822266 1.5607668161392212,-41.381011962890625 1.9745689630508423,-41.318885803222656 2.387265205383301,-41.25236511230469 2.7988059520721436,-41.18146896362305 3.2091426849365234,-41.1062126159668 3.6182265281677246,-41.026611328125 4.0260090827941895,-40.94268798828125 4.432442665100098,-40.854454040527344 4.8374786376953125,-40.761940002441406 5.24107027053833,-40.6651496887207 5.643169403076172,-40.56412124633789 6.043729782104492,-40.458858489990234 6.442703723907471,-40.34939956665039 6.8400444984436035,-40.23575210571289 7.2357072830200195,-40.11794662475586 7.629645347595215,-39.996002197265625 8.02181339263916,-39.86994934082031 8.412165641784668,-39.739803314208984 8.800657272338867,-39.6055908203125 9.187243461608887,-39.467342376708984 9.571880340576172,-39.32508087158203 9.954522132873535,-39.1788330078125 10.335128784179688,-39.02861785888672 10.713654518127441,-38.874473571777344 11.090055465698242,-38.71642303466797 11.464290618896484,-38.55448913574219 11.836318969726562,-38.388710021972656 12.206094741821289,-38.219112396240234 12.573580741882324,-38.04572296142578 12.938733100891113,-37.86857223510742 13.301512718200684,-37.68769073486328 13.66187858581543,-37.50311279296875 14.019789695739746,-37.31486511230469 14.375207901000977,-37.122982025146484 14.728094100952148,-36.927494049072266 15.078409194946289,-36.72843933105469 15.426115036010742,-36.525840759277344 15.771174430847168,-36.31974411010742 16.113548278808594,-36.11017608642578 16.453201293945312,-35.89717102050781 16.790096282958984,-35.68077087402344 17.124195098876953,-35.46099853515625 17.455467224121094,-35.2379035949707 17.783872604370117,-35.011512756347656 18.109378814697266,-34.781864166259766 18.43195152282715,-34.54899597167969 18.751554489135742,-34.31294631958008 19.068159103393555,-34.073753356933594 19.381729125976562,-33.831451416015625 19.692232131958008,-33.586082458496094 19.999637603759766,-33.33768081665039 20.303911209106445,-33.08628845214844 20.605026245117188,-32.83195114135742 20.902950286865234,-32.5746955871582 21.19765281677246,-32.314571380615234 21.489107131958008,-32.051612854003906 21.777280807495117,-31.785869598388672 22.062145233154297,-31.51737403869629 22.343677520751953,-31.246171951293945 22.621845245361328,-30.972301483154297 22.896623611450195,-30.69580841064453 23.167985916137695,-30.416732788085938 23.43590545654297,-30.135116577148438 23.700361251831055,-29.851003646850586 23.96132469177246,-29.56443977355957 24.21877098083496,-29.275463104248047 24.472675323486328,-28.984119415283203 24.723020553588867,-28.690452575683594 24.96977996826172,-28.394508361816406 25.212934494018555,-28.09632682800293 25.452457427978516,-27.795957565307617 25.688331604003906,-27.493438720703125 25.9205379486084,-27.188823699951172 26.149051666259766,-26.882150650024414 26.373857498168945,-26.57346534729004 26.59493637084961,-26.2628173828125 26.812271118164062,-25.95025062561035 27.025840759277344,-25.63581085205078 27.235633850097656,-25.319543838500977 27.441627502441406,-25.001495361328125 27.643808364868164,-24.681711196899414 27.8421630859375,-24.360240936279297 28.03667449951172,-24.037128448486328 28.227331161499023,-23.712419509887695 28.41411590576172,-23.38616371154785 28.597021102905273,-23.058408737182617 28.77602767944336,-22.72920036315918 28.951128005981445,-22.398584365844727 29.122312545776367,-22.066608428955078 29.289566040039062,-21.733322143554688 29.452880859375,-21.398771286010742 29.61224937438965,-21.063003540039062 29.76766014099121,-20.7260684967041 29.919105529785156,-20.388011932373047 30.06657600402832,-20.04888153076172 30.210065841674805,-19.708724975585938 30.349571228027344,-19.367591857910156 30.485084533691406,-19.025527954101562 30.61659812927246,-18.68258285522461 30.744108200073242,-18.338804244995117 30.86760902404785,-17.994239807128906 30.987102508544922,-17.648937225341797 31.102581024169922,-17.30294418334961 31.21404457092285,-16.956308364868164 31.321487426757812,-16.609081268310547 31.42491340637207,-16.26130485534668 31.52431869506836,-15.913030624389648 31.61970329284668,-15.564308166503906 31.71106719970703,-15.215180397033691 31.79841423034668,-14.865697860717773 31.881742477416992,-14.515910148620605 31.961057662963867,-14.165860176086426 32.03636169433594,-13.815600395202637 32.1076545715332,-13.465174674987793 32.17494201660156,-13.114631652832031 32.23822784423828,-12.764018058776855 32.297523498535156,-12.413381576538086 32.35282516479492,-12.062769889831543 32.404144287109375,-11.712228775024414 32.45148468017578,-11.361804962158203 32.4948616027832,-11.011548042297363 32.534271240234375,-10.661499977111816 32.569732666015625,-10.3117094039917 32.60124588012695,-9.962224006652832 32.62882614135742,-9.61308765411377 32.65248107910156,-9.2643461227417 32.67222595214844,-8.916048049926758 32.68806076049805,-8.568235397338867 32.70001220703125,-8.220956802368164 32.70808410644531,-7.8742547035217285 32.712284088134766,-7.528175354003906 32.71263885498047,-7.182764053344727 32.70915222167969,-6.838064670562744 32.701839447021484,-6.494121551513672 32.69072341918945,-6.150979042053223 32.675811767578125,-5.808681011199951 32.65711975097656,-5.467271327972412 32.634666442871094,-5.126793384552002 32.60847473144531,-4.787290096282959 32.57855224609375,-4.44880485534668 32.544921875,-4.111379623413086 32.50760269165039,-3.775057554244995 32.466609954833984,-3.43988037109375 32.42197036743164,-3.1058900356292725 32.373695373535156,-2.7731282711029053 32.321815490722656,-2.441636085510254 32.26634216308594,-2.111454486846924 32.20730209350586,-1.7826241254806519 32.14471435546875,-1.4551855325698853 32.07860565185547,-1.129178524017334 32.008995056152344,-0.8046431541442871 31.935903549194336,-0.48161861300468445 31.859363555908203,-0.16014397144317627 31.77939224243164,0.15974199771881104 31.69601821899414,0.4780009090900421 31.609262466430664,0.7945947051048279 31.519155502319336,1.1094857454299927 31.425718307495117,1.42263662815094 31.328981399536133,1.7340105772018433 31.228973388671875,2.0435707569122314 31.125715255737305,2.351280927658081 31.01923942565918,2.6571054458618164 30.90957260131836,2.9610087871551514 30.796743392944336,3.262955904006958 30.680782318115234,3.5629117488861084 30.561717987060547,3.860842704772949 30.439577102661133,4.156713962554932 30.314393997192383,4.450493335723877 30.18619728088379,4.742146968841553 30.055015563964844,5.031641960144043 29.920886993408203,5.318946361541748 29.783836364746094,5.604028701782227 29.64389991760254,5.886857509613037 29.501108169555664,6.1674017906188965 29.35549545288086,6.4456305503845215 29.20709228515625,6.721514701843262 29.055931091308594,6.995023250579834 28.902050018310547,7.2661285400390625 28.745481491088867,7.534801006317139 28.58625602722168,7.801012992858887 28.424415588378906,8.064736366271973 28.259986877441406,8.325942993164062 28.093013763427734,8.584607124328613 27.923526763916016,8.840702056884766 27.751558303833008,9.094202041625977 27.5771541595459,9.345081329345703 27.400339126586914,9.593315124511719 27.221160888671875,9.838878631591797 27.039649963378906,10.081748962402344 26.85584259033203,10.32190227508545 26.669784545898438,10.559313774108887 26.481502532958984,10.793963432312012 26.29104232788086,11.025827407836914 26.098438262939453,11.25488567352295 25.903728485107422,11.48111629486084 25.706953048706055,11.704499244689941 25.508153915405273,11.92501449584961 25.307363510131836,12.142640113830566 25.104625701904297,12.357361793518066 24.899982452392578,12.569158554077148 24.693464279174805,12.778013229370117 24.485116958618164,12.983905792236328 24.274980545043945,13.186822891235352 24.063095092773438,13.386747360229492 23.84950065612793,13.583661079406738 23.634233474731445,13.777551651000977 23.417343139648438,13.968400955200195 23.19886016845703,14.156198501586914 22.97883415222168,14.34092903137207 22.757299423217773,14.522579193115234 22.534297943115234,14.701135635375977 22.30987548828125,14.8765869140625 22.084070205688477,15.048921585083008 21.856922149658203,15.218128204345703 21.628477096557617,15.384197235107422 21.398771286010742,15.547117233276367 21.167850494384766,15.706880569458008 20.935754776000977,15.863475799560547 20.702526092529297,16.016897201538086 20.468204498291016,16.16713523864746 20.23283576965332,16.31418228149414 19.9964599609375,16.45803451538086 19.759117126464844,16.598682403564453 19.520851135253906,16.736120223999023 19.28170394897461,16.870346069335938 19.041717529296875,17.001354217529297 18.800931930541992,17.12913703918457 18.55939292907715,17.25369644165039 18.317138671875,17.375024795532227 18.0742130279541,17.49312400817871 17.830659866333008,17.607988357543945 17.586517333984375,17.71961784362793 17.341829299926758,17.828012466430664 17.096637725830078,17.93317222595215 16.850984573364258,18.03509521484375 16.60491180419922,18.133785247802734 16.35845947265625,18.22924041748047 16.111669540405273,18.32146453857422 15.86458683013916,18.410459518432617 15.617249488830566,18.496227264404297 15.369698524475098,18.578773498535156 15.121976852416992,18.658100128173828 14.874125480651855,18.73421287536621 14.62618637084961,18.807117462158203 14.378198623657227,18.87681770324707 14.130204200744629,18.94331932067871 13.882243156433105,19.006629943847656 13.634356498718262,19.066757202148438 13.386584281921387,19.123706817626953 13.138968467712402,19.177488327026367 12.891548156738281,19.228111267089844 12.64436149597168,19.275583267211914 12.397451400756836,19.319913864135742 12.15085506439209,19.361114501953125 11.904613494873047,19.399192810058594 11.65876579284668,19.43416404724121 11.413350105285645,19.46603775024414 11.168407440185547,19.49482536315918 10.923973083496094,19.520540237426758 10.680088996887207,19.543195724487305 10.43679141998291,19.56280517578125 10.19411849975586,19.579381942749023 9.952109336853027,19.59294319152832 9.710800170898438,19.603500366210938 9.470229148864746,19.61107063293457 9.230433464050293,19.61566925048828 8.991449356079102,19.617313385009766 8.753313064575195,19.616018295288086 8.516061782836914,19.611804962158203 8.279731750488281,19.60468864440918 8.044358253479004,19.59468650817871 7.809976577758789,19.581817626953125 7.576622009277344,19.566104888916016 7.344330787658691,19.547561645507812 7.113135814666748,19.526212692260742 6.8830718994140625,19.502077102661133 6.654173851013184,19.47517204284668 6.4264750480651855,19.445524215698242 6.200007915496826,19.41315269470215 5.974806308746338,19.378080368041992 5.750903606414795,19.340328216552734 5.528331279754639,19.2999210357666 5.307121276855469,19.256879806518555 5.087306499481201,19.211231231689453 4.868916988372803,19.162996292114258 4.651984691619873,19.112199783325195 4.436540126800537,19.058868408203125 4.222613334655762,19.00302505493164 4.010234832763672,18.944698333740234 3.7994332313537598,18.8839111328125 3.590238571166992,18.820690155029297 3.3826797008514404,18.755064010620117 3.1767845153808594,18.687057495117188 2.972581624984741,18.61669921875 2.7700982093811035,18.544015884399414 2.569361925125122,18.469036102294922 2.3703994750976562,18.391788482666016 2.1732373237609863,18.312299728393555 1.9779016971588135,18.230602264404297 1.784417986869812,18.14672088623047 1.5928115844726562,18.06068992614746 1.4031072854995728,17.9725341796875 1.2153294086456299,17.882287979125977 1.0295021533966064,17.789979934692383 0.8456487655639648,17.695640563964844 0.6637925505638123,17.599300384521484 0.4839560389518738,17.500993728637695 0.3061615526676178,17.40074920654297 0.13043083250522614,17.298599243164062 -0.043214768171310425,17.1945743560791 -0.2147543728351593,17.08871078491211 -0.38416752219200134,16.981037139892578 -0.5514342784881592,16.8715877532959 -0.7165350317955017,16.760395050048828 -0.879450798034668,16.647493362426758 -1.0401629209518433,16.532917022705078 -1.1986533403396606,16.416696548461914 -1.354904294013977,16.298866271972656 -1.5088986158370972,16.179462432861328 -1.6606196165084839,16.05851936340332 -1.8100510835647583,15.93606948852539 -1.9571770429611206,15.812148094177246 -2.101982355117798,15.686789512634277 -2.2444522380828857,15.560029983520508 -2.3845722675323486,15.431902885437012 -2.5223288536071777,15.302445411682129 -2.657707929611206,15.171690940856934 -2.7906975746154785,15.03967571258545 -2.9212846755981445,14.906436920166016 -3.049457311630249,14.772008895874023 -3.1752049922943115,14.63642692565918 -3.298516035079956,14.499728202819824 -3.419379949569702,14.36194896697998 -3.5377871990203857,14.223125457763672 -3.6537280082702637,14.083292007446289 -3.7671937942504883,13.942488670349121 -3.878175735473633,13.800748825073242 -3.986666440963745,13.658109664916992 -4.092658519744873,13.514609336853027 -4.196144104003906,13.370283126831055 -4.297117710113525,13.225168228149414 -4.395573139190674,13.079301834106445 -4.491504669189453,12.932720184326172 -4.5849080085754395,12.785460472106934 -4.675778388977051,12.637558937072754 -4.7641119956970215,12.489054679870605 -4.849905014038086,12.339982986450195 -4.933154582977295,12.190380096435547 -5.013859272003174,12.040285110473633 -5.092016220092773,11.889732360839844 -5.167624473571777,11.738761901855469 -5.240682601928711,11.587408065795898 -5.311191082000732,11.435708999633789 -5.379148960113525,11.28370189666748 -5.4445576667785645,11.13142204284668 -5.507418155670166,10.97890853881836 -5.5677313804626465,10.826196670532227 -5.625500679016113,10.673323631286621 -5.680727481842041,10.520325660705566 -5.733415603637695,10.367238998413086 -5.783568382263184,10.214101791381836 -5.83119010925293,10.060949325561523 -5.876284599304199,9.907816886901855 -5.918857574462891,9.754743576049805 -5.958914756774902,9.601762771606445 -5.996461868286133,9.448911666870117 -6.031505584716797,9.296225547790527 -6.064052104949951,9.143742561340332 -6.094110488891602,8.991495132446289 -6.121686935424805,8.839520454406738 -6.146791458129883,8.687853813171387 -6.169432163238525,8.536529541015625 -6.1896185874938965,8.385584831237793 -6.207360744476318,8.235053062438965 -6.222668647766113,8.084969520568848 -6.23555326461792,7.935367584228516 -6.246026039123535,7.78628396987915 -6.254097938537598,7.637750625610352 -6.259782314300537,7.489803314208984 -6.263091564178467,7.342474937438965 -6.2640380859375,7.195799350738525 -6.262636184692383,7.049810886383057 -6.258899211883545,6.904541015625 -6.252841949462891,6.760024547576904 -6.244479656219482,6.616293430328369 -6.233827114105225,6.4733805656433105 -6.220900535583496,6.331318378448486 -6.205715179443359,6.19013786315918 -6.188288688659668,6.049871921539307 -6.168637275695801,5.910552501678467 -6.146779537200928,5.772210121154785 -6.122732162475586,5.634876728057861 -6.096514701843262,5.498581409454346 -6.06814432144165,5.363356590270996 -6.037641525268555,5.229231834411621 -6.005025863647461,5.0962371826171875 -5.970316410064697,4.964402198791504 -5.933533668518066,4.833755970001221 -5.894698143005371,4.704328536987305 -5.853831768035889,4.57614803314209 -5.81095552444458,4.44924259185791 -5.766091346740723,4.323641300201416 -5.719261646270752,4.199371337890625 -5.670488357543945,4.076460361480713 -5.619795322418213,3.9549355506896973 -5.56720495223999,3.8348240852355957 -5.512742042541504,3.7161519527435303 -5.456429958343506,3.5989458560943604 -5.3982930183410645,3.48323130607605 -5.3383564949035645,3.3690335750579834 -5.276645183563232,3.256378412246704 -5.213183879852295,3.1452901363372803 -5.147999286651611,3.0357933044433594 -5.081117153167725,2.9279115200042725 -5.012563705444336,2.821668863296509 -4.942365646362305,2.7170886993408203 -4.870550155639648,2.6141934394836426 -4.797144412994385,2.5130059719085693 -4.7221760749816895,2.413548231124878 -4.645672798156738,2.3158421516418457 -4.567663192749023,2.2199087142944336 -4.488175392150879,2.1257691383361816 -4.407238006591797,2.0334436893463135 -4.324880599975586,1.9429526329040527 -4.2411322593688965,1.8543157577514648 -4.156022071838379,1.7675518989562988 -4.069580078125,1.6826804876327515 -3.9818367958068848,1.5997194051742554 -3.892822027206421,1.5186872482299805 -3.8025660514831543,1.4396010637283325 -3.7111001014709473,1.3624781370162964 -3.618455171585083,1.2873353958129883 -3.5246620178222656,1.214189052581787 -3.4297523498535156,1.143054723739624 -3.3337578773498535,1.0739479064941406 -3.236710548400879,1.0068837404251099 -3.138641595840454,0.9418764710426331 -3.039583921432495,0.8789402842521667 -2.9395699501037598,0.8180886507034302 -2.838632106781006,0.7593348622322083 -2.736802816390991,0.7026915550231934 -2.634115219116211,0.6481708288192749 -2.5306026935577393,0.595784604549408 -2.426298141479492,0.5455441474914551 -2.321234941482544,0.49746015667915344 -2.215446710586548,0.4515431523323059 -2.1089670658111572,0.40780287981033325 -2.0018296241760254,0.3662489056587219 -1.8940683603286743,0.32689008116722107 -1.785717487335205,0.2897348999977112 -1.6768109798431396,0.25479134917259216 -1.5673828125,0.2220669537782669 -1.457467794418335,0.1915687471628189 -1.3471001386642456,0.16330330073833466 -1.2363141775131226,0.13727667927742004 -1.125144600868225,0.11349447816610336 -1.0136260986328125,0.0919618085026741 -0.901793360710144,0.07268330454826355 -0.7896811366081238,0.0556630976498127 -0.6773242354393005,0.04090485721826553 -0.5647575855255127,0.0284117441624403 -0.4520159959793091,0.018186446279287338 -0.3391345143318176,0.010231157764792442 -0.22614799439907074,0.004547588061541319 -0.11309149861335754,0.0011369581334292889 -8.266365632910062e-15,6.074027198947461e-30 0.11309149861335754,0.0011369581334292889 0.22614799439907074,0.004547588061541319 0.3391345143318176,0.010231157764792442 0.4520159959793091,0.018186446279287338 0.5647575855255127,0.0284117441624403 0.6773242354393005,0.04090485721826553 0.7896811366081238,0.0556630976498127 0.901793360710144,0.07268330454826355 1.0136260986328125,0.0919618085026741 1.125144600868225,0.11349447816610336 1.2363141775131226,0.13727667927742004 1.3471001386642456,0.16330330073833466 1.457467794418335,0.1915687471628189 1.5673828125,0.2220669537782669 1.6768109798431396,0.25479134917259216 1.785717487335205,0.2897348999977112 1.8940683603286743,0.32689008116722107 2.0018296241760254,0.3662489056587219 2.1089670658111572,0.40780287981033325 2.215446710586548,0.4515431523323059 2.321234941482544,0.49746015667915344 2.426298141479492,0.5455441474914551 2.5306026935577393,0.595784604549408 2.634115219116211,0.6481708288192749 2.736802816390991,0.7026915550231934 2.838632106781006,0.7593348622322083 2.9395699501037598,0.8180886507034302 3.039583921432495,0.8789402842521667 3.138641595840454,0.9418764710426331 3.236710548400879,1.0068837404251099 3.3337578773498535,1.0739479064941406 3.4297523498535156,1.143054723739624 3.5246620178222656,1.214189052581787 3.618455171585083,1.2873353958129883 3.7111001014709473,1.3624781370162964 3.8025660514831543,1.4396010637283325 3.892822027206421,1.5186872482299805 3.9818367958068848,1.5997194051742554 4.069580078125,1.6826804876327515 4.156022071838379,1.7675518989562988 4.2411322593688965,1.8543157577514648 4.324880599975586,1.9429526329040527 4.407238006591797,2.0334436893463135 4.488175392150879,2.1257691383361816 4.567663192749023,2.2199087142944336 4.645672798156738,2.3158421516418457 4.7221760749816895,2.413548231124878 4.797144412994385,2.5130059719085693 4.870550155639648,2.6141934394836426 4.942365646362305,2.7170886993408203 5.012563705444336,2.821668863296509 5.081117153167725,2.9279115200042725 5.147999286651611,3.0357933044433594 5.213183879852295,3.1452901363372803 5.276645183563232,3.256378412246704 5.3383564949035645,3.3690335750579834 5.3982930183410645,3.48323130607605 5.456429958343506,3.5989458560943604 5.512742042541504,3.7161519527435303 5.56720495223999,3.8348240852355957 5.619795322418213,3.9549355506896973 5.670488357543945,4.076460361480713 5.719261646270752,4.199371337890625 5.766091346740723,4.323641300201416 5.81095552444458,4.44924259185791 5.853831768035889,4.57614803314209 5.894698143005371,4.704328536987305 5.933533668518066,4.833755970001221 5.970316410064697,4.964402198791504 6.005025863647461,5.0962371826171875 6.037641525268555,5.229231834411621 6.06814432144165,5.363356590270996 6.096514701843262,5.498581409454346 6.122732162475586,5.634876728057861 6.146779537200928,5.772210121154785 6.168637275695801,5.910552501678467 6.188288688659668,6.049871921539307 6.205715179443359,6.19013786315918 6.220900535583496,6.331318378448486 6.233827114105225,6.4733805656433105 6.244479656219482,6.616293430328369 6.252841949462891,6.760024547576904 6.258899211883545,6.904541015625 6.262636184692383,7.049810886383057 6.2640380859375,7.195799350738525 6.263091564178467,7.342474937438965 6.259782314300537,7.489803314208984 6.254097938537598,7.637750625610352 6.246026039123535,7.78628396987915 6.23555326461792,7.935367584228516 6.222668647766113,8.084969520568848 6.207360744476318,8.235053062438965 6.1896185874938965,8.385584831237793 6.169432163238525,8.536529541015625 6.146791458129883,8.687853813171387 6.121686935424805,8.839520454406738 6.094110488891602,8.991495132446289 6.064052104949951,9.143742561340332 6.031505584716797,9.296225547790527 5.996461868286133,9.448911666870117 5.958914756774902,9.601762771606445 5.918857574462891,9.754743576049805 5.876284599304199,9.907816886901855 5.83119010925293,10.060949325561523 5.783568382263184,10.214101791381836 5.733415603637695,10.367238998413086 5.680727481842041,10.520325660705566 5.625500679016113,10.673323631286621 5.5677313804626465,10.826196670532227 5.507418155670166,10.97890853881836 5.4445576667785645,11.13142204284668 5.379148960113525,11.28370189666748 5.311191082000732,11.435708999633789 5.240682601928711,11.587408065795898 5.167624473571777,11.738761901855469 5.092016220092773,11.889732360839844 5.013859272003174,12.040285110473633 4.933154582977295,12.190380096435547 4.849905014038086,12.339982986450195 4.7641119956970215,12.489054679870605 4.675778388977051,12.637558937072754 4.5849080085754395,12.785460472106934 4.491504669189453,12.932720184326172 4.395573139190674,13.079301834106445 4.297117710113525,13.225168228149414 4.196144104003906,13.370283126831055 4.092658519744873,13.514609336853027 3.986666440963745,13.658109664916992 3.878175735473633,13.800748825073242 3.7671937942504883,13.942488670349121 3.6537280082702637,14.083292007446289 3.5377871990203857,14.223125457763672 3.419379949569702,14.36194896697998 3.298516035079956,14.499728202819824 3.1752049922943115,14.63642692565918 3.049457311630249,14.772008895874023 2.9212846755981445,14.906436920166016 2.7906975746154785,15.03967571258545 2.657707929611206,15.171690940856934 2.5223288536071777,15.302445411682129 2.3845722675323486,15.431902885437012 2.2444522380828857,15.560029983520508 2.101982355117798,15.686789512634277 1.9571770429611206,15.812148094177246 1.8100510835647583,15.93606948852539 1.6606196165084839,16.05851936340332 1.5088986158370972,16.179462432861328 1.354904294013977,16.298866271972656 1.1986533403396606,16.416696548461914 1.0401629209518433,16.532917022705078 0.879450798034668,16.647493362426758 0.7165350317955017,16.760395050048828 0.5514342784881592,16.8715877532959 0.38416752219200134,16.981037139892578 0.2147543728351593,17.08871078491211 0.043214768171310425,17.1945743560791 -0.13043083250522614,17.298599243164062 -0.3061615526676178,17.40074920654297 -0.4839560389518738,17.500993728637695 -0.6637925505638123,17.599300384521484 -0.8456487655639648,17.695640563964844 -1.0295021533966064,17.789979934692383 -1.2153294086456299,17.882287979125977 -1.4031072854995728,17.9725341796875 -1.5928115844726562,18.06068992614746 -1.784417986869812,18.14672088623047 -1.9779016971588135,18.230602264404297 -2.1732373237609863,18.312299728393555 -2.3703994750976562,18.391788482666016 -2.569361925125122,18.469036102294922 -2.7700982093811035,18.544015884399414 -2.972581624984741,18.61669921875 -3.1767845153808594,18.687057495117188 -3.3826797008514404,18.755064010620117 -3.590238571166992,18.820690155029297 -3.7994332313537598,18.8839111328125 -4.010234832763672,18.944698333740234 -4.222613334655762,19.00302505493164 -4.436540126800537,19.058868408203125 -4.651984691619873,19.112199783325195 -4.868916988372803,19.162996292114258 -5.087306499481201,19.211231231689453 -5.307121276855469,19.256879806518555 -5.528331279754639,19.2999210357666 -5.750903606414795,19.340328216552734 -5.974806308746338,19.378080368041992 -6.200007915496826,19.41315269470215 -6.4264750480651855,19.445524215698242 -6.654173851013184,19.47517204284668 -6.8830718994140625,19.502077102661133 -7.113135814666748,19.526212692260742 -7.344330787658691,19.547561645507812 -7.576622009277344,19.566104888916016 -7.809976577758789,19.581817626953125 -8.044358253479004,19.59468650817871 -8.279731750488281,19.60468864440918 -8.516061782836914,19.611804962158203 -8.753313064575195,19.616018295288086 -8.991449356079102,19.617313385009766 -9.230433464050293,19.61566925048828 -9.470229148864746,19.61107063293457 -9.710800170898438,19.603500366210938 -9.952109336853027,19.59294319152832 -10.19411849975586,19.579381942749023 -10.43679141998291,19.56280517578125 -10.680088996887207,19.543195724487305 -10.923973083496094,19.520540237426758 -11.168407440185547,19.49482536315918 -11.413350105285645,19.46603775024414 -11.65876579284668,19.43416404724121 -11.904613494873047,19.399192810058594 -12.15085506439209,19.361114501953125 -12.397451400756836,19.319913864135742 -12.64436149597168,19.275583267211914 -12.891548156738281,19.228111267089844 -13.138968467712402,19.177488327026367 -13.386584281921387,19.123706817626953 -13.634356498718262,19.066757202148438 -13.882243156433105,19.006629943847656 -14.130204200744629,18.94331932067871 -14.378198623657227,18.87681770324707 -14.62618637084961,18.807117462158203 -14.874125480651855,18.73421287536621 -15.121976852416992,18.658100128173828 -15.369698524475098,18.578773498535156 -15.617249488830566,18.496227264404297 -15.86458683013916,18.410459518432617 -16.111669540405273,18.32146453857422 -16.35845947265625,18.22924041748047 -16.60491180419922,18.133785247802734 -16.850984573364258,18.03509521484375 -17.096637725830078,17.93317222595215 -17.341829299926758,17.828012466430664 -17.586517333984375,17.71961784362793 -17.830659866333008,17.607988357543945 -18.0742130279541,17.49312400817871 -18.317138671875,17.375024795532227 -18.55939292907715,17.25369644165039 -18.800931930541992,17.12913703918457 -19.041717529296875,17.001354217529297 -19.28170394897461,16.870346069335938 -19.520851135253906,16.736120223999023 -19.759117126464844,16.598682403564453 -19.9964599609375,16.45803451538086 -20.23283576965332,16.31418228149414 -20.468204498291016,16.16713523864746 -20.702526092529297,16.016897201538086 -20.935754776000977,15.863475799560547 -21.167850494384766,15.706880569458008 -21.398771286010742,15.547117233276367 -21.628477096557617,15.384197235107422 -21.856922149658203,15.218128204345703 -22.084070205688477,15.048921585083008 -22.30987548828125,14.8765869140625 -22.534297943115234,14.701135635375977 -22.757299423217773,14.522579193115234 -22.97883415222168,14.34092903137207 -23.19886016845703,14.156198501586914 -23.417343139648438,13.968400955200195 -23.634233474731445,13.777551651000977 -23.84950065612793,13.583661079406738 -24.063095092773438,13.386747360229492 -24.274980545043945,13.186822891235352 -24.485116958618164,12.983905792236328 -24.693464279174805,12.778013229370117 -24.899982452392578,12.569158554077148 -25.104625701904297,12.357361793518066 -25.307363510131836,12.142640113830566 -25.508153915405273,11.92501449584961 -25.706953048706055,11.704499244689941 -25.903728485107422,11.48111629486084 -26.098438262939453,11.25488567352295 -26.29104232788086,11.025827407836914 -26.481502532958984,10.793963432312012 -26.669784545898438,10.559313774108887 -26.85584259033203,10.32190227508545 -27.039649963378906,10.081748962402344 -27.221160888671875,9.838878631591797 -27.400339126586914,9.593315124511719 -27.5771541595459,9.345081329345703 -27.751558303833008,9.094202041625977 -27.923526763916016,8.840702056884766 -28.093013763427734,8.584607124328613 -28.259986877441406,8.325942993164062 -28.424415588378906,8.064736366271973 -28.58625602722168,7.801012992858887 -28.745481491088867,7.534801006317139 -28.902050018310547,7.2661285400390625 -29.055931091308594,6.995023250579834 -29.20709228515625,6.721514701843262 -29.35549545288086,6.4456305503845215 -29.501108169555664,6.1674017906188965 -29.64389991760254,5.886857509613037 -29.783836364746094,5.604028701782227 -29.920886993408203,5.318946361541748 -30.055015563964844,5.031641960144043 -30.18619728088379,4.742146968841553 -30.314393997192383,4.450493335723877 -30.439577102661133,4.156713962554932 -30.561717987060547,3.860842704772949 -30.680782318115234,3.5629117488861084 -30.796743392944336,3.262955904006958 -30.90957260131836,2.9610087871551514 -31.01923942565918,2.6571054458618164 -31.125715255737305,2.351280927658081 -31.228973388671875,2.0435707569122314 -31.328981399536133,1.7340105772018433 -31.425718307495117,1.42263662815094 -31.519155502319336,1.1094857454299927 -31.609262466430664,0.7945947051048279 -31.69601821899414,0.4780009090900421 -31.77939224243164,0.15974199771881104 -31.859363555908203,-0.16014397144317627 -31.935903549194336,-0.48161861300468445 -32.008995056152344,-0.8046431541442871 -32.07860565185547,-1.129178524017334 -32.14471435546875,-1.4551855325698853 -32.20730209350586,-1.7826241254806519 -32.26634216308594,-2.111454486846924 -32.321815490722656,-2.441636085510254 -32.373695373535156,-2.7731282711029053 -32.42197036743164,-3.1058900356292725 -32.466609954833984,-3.43988037109375 -32.50760269165039,-3.775057554244995 -32.544921875,-4.111379623413086 -32.57855224609375,-4.44880485534668 -32.60847473144531,-4.787290096282959 -32.634666442871094,-5.126793384552002 -32.65711975097656,-5.467271327972412 -32.675811767578125,-5.808681011199951 -32.69072341918945,-6.150979042053223 -32.701839447021484,-6.494121551513672 -32.70915222167969,-6.838064670562744 -32.71263885498047,-7.182764053344727 -32.712284088134766,-7.528175354003906 -32.70808410644531,-7.8742547035217285 -32.70001220703125,-8.220956802368164 -32.68806076049805,-8.568235397338867 -32.67222595214844,-8.916048049926758 -32.65248107910156,-9.2643461227417 -32.62882614135742,-9.61308765411377 -32.60124588012695,-9.962224006652832 -32.569732666015625,-10.3117094039917 -32.534271240234375,-10.661499977111816 -32.4948616027832,-11.011548042297363 -32.45148468017578,-11.361804962158203 -32.404144287109375,-11.712228775024414 -32.35282516479492,-12.062769889831543 -32.297523498535156,-12.413381576538086 -32.23822784423828,-12.764018058776855 -32.17494201660156,-13.114631652832031 -32.1076545715332,-13.465174674987793 -32.03636169433594,-13.815600395202637 -31.961057662963867,-14.165860176086426 -31.881742477416992,-14.515910148620605 -31.79841423034668,-14.865697860717773 -31.71106719970703,-15.215180397033691 -31.61970329284668,-15.564308166503906 -31.52431869506836,-15.913030624389648 -31.42491340637207,-16.26130485534668 -31.321487426757812,-16.609081268310547 -31.21404457092285,-16.956308364868164 -31.102581024169922,-17.30294418334961 -30.987102508544922,-17.648937225341797 -30.86760902404785,-17.994239807128906 -30.744108200073242,-18.338804244995117 -30.61659812927246,-18.68258285522461 -30.485084533691406,-19.025527954101562 -30.349571228027344,-19.367591857910156 -30.210065841674805,-19.708724975585938 -30.06657600402832,-20.04888153076172 -29.919105529785156,-20.388011932373047 -29.76766014099121,-20.7260684967041 -29.61224937438965,-21.063003540039062 -29.452880859375,-21.398771286010742 -29.289566040039062,-21.733322143554688 -29.122312545776367,-22.066608428955078 -28.951128005981445,-22.398584365844727 -28.77602767944336,-22.72920036315918 -28.597021102905273,-23.058408737182617 -28.41411590576172,-23.38616371154785 -28.227331161499023,-23.712419509887695 -28.03667449951172,-24.037128448486328 -27.8421630859375,-24.360240936279297 -27.643808364868164,-24.681711196899414 -27.441627502441406,-25.001495361328125 -27.235633850097656,-25.319543838500977 -27.025840759277344,-25.63581085205078 -26.812271118164062,-25.95025062561035 -26.59493637084961,-26.2628173828125 -26.373857498168945,-26.57346534729004 -26.149051666259766,-26.882150650024414 -25.9205379486084,-27.188823699951172 -25.688331604003906,-27.493438720703125 -25.452457427978516,-27.795957565307617 -25.212934494018555,-28.09632682800293 -24.96977996826172,-28.394508361816406 -24.723020553588867,-28.690452575683594 -24.472675323486328,-28.984119415283203 -24.21877098083496,-29.275463104248047 -23.96132469177246,-29.56443977355957 -23.700361251831055,-29.851003646850586 -23.43590545654297,-30.135116577148438 -23.167985916137695,-30.416732788085938 -22.896623611450195,-30.69580841064453 -22.621845245361328,-30.972301483154297 -22.343677520751953,-31.246171951293945 -22.062145233154297,-31.51737403869629 -21.777280807495117,-31.785869598388672 -21.489107131958008,-32.051612854003906 -21.19765281677246,-32.314571380615234 -20.902950286865234,-32.5746955871582 -20.605026245117188,-32.83195114135742 -20.303911209106445,-33.08628845214844 -19.999637603759766,-33.33768081665039 -19.692232131958008,-33.586082458496094 -19.381729125976562,-33.831451416015625 -19.068159103393555,-34.073753356933594 -18.751554489135742,-34.31294631958008 -18.43195152282715,-34.54899597167969 -18.109378814697266,-34.781864166259766 -17.783872604370117,-35.011512756347656 -17.455467224121094,-35.2379035949707 -17.124195098876953,-35.46099853515625 -16.790096282958984,-35.68077087402344 -16.453201293945312,-35.89717102050781 -16.113548278808594,-36.11017608642578 -15.771174430847168,-36.31974411010742 -15.426115036010742,-36.525840759277344 -15.078409194946289,-36.72843933105469 -14.728094100952148,-36.927494049072266 -14.375207901000977,-37.122982025146484 -14.019789695739746,-37.31486511230469 -13.66187858581543,-37.50311279296875 -13.301512718200684,-37.68769073486328 -12.938733100891113,-37.86857223510742 -12.573580741882324,-38.04572296142578 -12.206094741821289,-38.219112396240234 -11.836318969726562,-38.388710021972656 -11.464290618896484,-38.55448913574219 -11.090055465698242,-38.71642303466797 -10.713654518127441,-38.874473571777344 -10.335128784179688,-39.02861785888672 -9.954522132873535,-39.1788330078125 -9.571880340576172,-39.32508087158203 -9.187243461608887,-39.467342376708984 -8.800657272338867,-39.6055908203125 -8.412165641784668,-39.739803314208984 -8.02181339263916,-39.86994934082031 -7.629645347595215,-39.996002197265625 -7.2357072830200195,-40.11794662475586 -6.8400444984436035,-40.23575210571289 -6.442703723907471,-40.34939956665039 -6.043729782104492,-40.458858489990234 -5.643169403076172,-40.56412124633789 -5.24107027053833,-40.6651496887207 -4.8374786376953125,-40.761940002441406 -4.432442665100098,-40.854454040527344 -4.0260090827941895,-40.94268798828125 -3.6182265281677246,-41.026611328125 -3.2091426849365234,-41.1062126159668 -2.7988059520721436,-41.18146896362305 -2.387265205383301,-41.25236511230469 -1.9745689630508423,-41.318885803222656 -1.5607668161392212,-41.381011962890625 -1.1459076404571533,-41.438724517822266 -0.730040967464447,-41.49201202392578 -0.3132166862487793,-41.54086685180664 0.10451537370681763,-41.58525848388672 0.5231050848960876,-41.625186920166016 0.9425020813941956,-41.6606330871582 1.3626561164855957,-41.69158935546875 1.7835161685943604,-41.71803665161133 2.205031633377075,-41.73997497558594 2.6271517276763916,-41.757381439208984 3.0498249530792236,-41.77024841308594 3.4730002880096436,-41.7785758972168 3.8966264724731445,-41.7823486328125 4.320652008056641,-41.781551361083984 4.745024681091309,-41.77619171142578 5.1696929931640625,-41.76625061035156 5.594605445861816,-41.75172805786133 6.019710063934326,-41.73261260986328 6.444953918457031,-41.70890426635742 6.8702850341796875,-41.680599212646484 7.295652866363525,-41.64768600463867 7.721003532409668,-41.610172271728516 8.146285057067871,-41.56804275512695 8.57144546508789,-41.521305084228516 8.996431350708008,-41.46995544433594 9.421191215515137,-41.41399383544922 9.845671653747559,-41.353416442871094 10.269821166992188,-41.28822326660156 10.693586349487305,-41.218421936035156 11.116914749145508,-41.14400863647461 11.539753913879395,-41.06498718261719 11.962051391601562,-40.98135757446289 12.38375473022461,-40.893131256103516 12.804810523986816,-40.80030059814453 13.225168228149414,-40.702880859375 13.64477252960205,-40.60087585449219 14.063573837280273,-40.49428176879883 14.481518745422363,-40.38311767578125 14.898553848266602,-40.26738357543945 15.314627647399902,-40.147090911865234 15.72968864440918,-40.022247314453125 16.14368438720703,-39.89285659790039 16.556560516357422,-39.75893783569336 16.96826934814453,-39.62049102783203 17.378755569458008,-39.4775390625 17.7879695892334,-39.330081939697266 18.195859909057617,-39.17813491821289 18.602373123168945,-39.0217170715332 19.007461547851562,-38.860836029052734 19.411067962646484,-38.69550704956055 19.81314468383789,-38.5257453918457 20.21364402770996,-38.351566314697266 20.61250877380371,-38.17298126220703 21.009695053100586,-37.990013122558594 21.4051456451416,-37.80267333984375 21.798816680908203,-37.610984802246094 22.190654754638672,-37.41495895385742 22.580610275268555,-37.214622497558594 22.9686336517334,-37.00999069213867 23.35467529296875,-36.801082611083984 23.738689422607422,-36.587921142578125 24.120622634887695,-36.370521545410156 24.50042724609375,-36.1489143371582 24.878053665161133,-35.92311477661133 25.253459930419922,-35.69314956665039 25.626588821411133,-35.459041595458984 25.997400283813477,-35.2208137512207 26.365842819213867,-34.978492736816406 26.731870651245117,-34.73210144042969 27.095436096191406,-34.48166275024414 27.456493377685547,-34.227210998535156 27.81499481201172,-33.96876525878906 28.1708984375,-33.706356048583984 28.524152755737305,-33.44001388549805 28.87471580505371,-33.169761657714844 29.22254180908203,-32.895633697509766 29.567584991455078,-32.617652893066406 29.90980339050293,-32.33585739135742 30.2491512298584,-32.05027389526367 30.585586547851562,-31.76093101501465 30.9190616607666,-31.46786117553711 31.249540328979492,-31.17110252380371 31.576976776123047,-30.870677947998047 31.901325225830078,-30.566627502441406 32.2225456237793,-30.258983612060547 32.54059982299805,-29.94778060913086 32.855445861816406,-29.633052825927734 33.16703796386719,-29.31483268737793 33.475345611572266,-28.993162155151367 33.78031539916992,-28.66806983947754 34.0819206237793,-28.339595794677734 34.3801155090332,-28.007780075073242 34.674861907958984,-27.672653198242188 34.96612548828125,-27.334257125854492 35.25386428833008,-26.992633819580078 35.53804016113281,-26.64781379699707 35.81861877441406,-26.29984474182129 36.09556579589844,-25.948760986328125 36.36884307861328,-25.5946044921875 36.63841247558594,-25.23741340637207 36.90424346923828,-24.877233505249023 37.166297912597656,-24.514102935791016 37.42454147338867,-24.14806365966797 37.67894744873047,-23.77916145324707 37.929473876953125,-23.407434463500977 38.17609405517578,-23.032928466796875 38.41877365112305,-22.655683517456055 38.65747833251953,-22.275745391845703 38.89218521118164,-21.89316177368164 39.12285232543945,-21.507970809936523 39.34946060180664,-21.120222091674805 39.57197189331055,-20.729957580566406 39.79036331176758,-20.33722686767578 40.00460433959961,-19.94207191467285 40.214664459228516,-19.54454231262207 40.4205207824707,-19.144681930541992 40.62214279174805,-18.74254035949707 40.81950759887695,-18.338163375854492 41.0125846862793,-17.931598663330078 41.20135498046875,-17.522891998291016 41.38578414916992,-17.112096786499023 41.565860748291016,-16.699256896972656 41.74155044555664,-16.284423828125 41.912837982177734,-15.867642402648926 42.07969665527344,-15.448966979980469 42.242103576660156,-15.028446197509766 42.40003967285156,-14.606127738952637 42.55348587036133,-14.182062149047852 42.702423095703125,-13.756301879882812 42.846824645996094,-13.32889461517334 42.98667907714844,-12.899892807006836 43.12196350097656,-12.46934700012207 43.252662658691406,-12.037310600280762 43.37875747680664,-11.603830337524414 43.50023651123047,-11.168961524963379 43.61707305908203,-10.732755661010742 43.72926712036133,-10.29526424407959 43.8367919921875,-9.856538772583008 43.939632415771484,-9.416632652282715 44.037784576416016,-8.975598335266113 44.131229400634766,-8.533488273620605 44.21995544433594,-8.090353965759277 44.303955078125,-7.646251678466797 44.38321304321289,-7.201231479644775 44.45771789550781,-6.755347728729248 44.527462005615234,-6.30865478515625 44.59243392944336,-5.861204624176025 44.65263366699219,-5.413051605224609 44.70804214477539,-4.9642486572265625 44.7586555480957,-4.514850616455078 44.80447006225586,-4.064911365509033 44.84547805786133,-3.6144838333129883 44.881675720214844,-3.1636226177215576 44.913055419921875,-2.7123820781707764 44.93961715698242,-2.2608158588409424 44.96134948730469,-1.8089783191680908 44.97825622558594,-1.3569236993789673 44.99033737182617,-0.9047063589096069 44.997581481933594,-0.4523802697658539 45,-4.408728563427486e-14"
  />
</svg>
