<?xml version="1.0" encoding="UTF-8"?>
<!DOCTYPE svg>
<svg
  data-animation-duration="3s"
  viewBox="-50 -50 100 100"
>
  <title>
    ANIMATION 31 - VARIATION K
  </title>
  <desc>
    <p>See this animation in action here: <a href="https://andrew.wang-hoyer.com/experiments/svg-animations/31/k" target="_blank" rel="noopener">https://andrew.wang-hoyer.com/experiments/svg-animations/31/k</a>.</p>
    <p>Generator source code : <a href="https://github.com/ndrwhr/svg-animation-src/tree/master/site/_svgs/generators/animations/31/k.js" target="_blank" rel="noopener">https://github.com/ndrwhr/svg-animation-src/tree/master/site/_svgs/generators/animations/31/k.js</a>.</p>
    <p>All generated files and source code are released under the following license:</p>
    <p>MIT License</p>
    <p>Copyright (c) 2018-present Andrew Hoyer</p>
    <p>Permission is hereby granted, free of charge, to any person obtaining a copy of this software and associated documentation files (the &quot;Software&quot;), to deal in the Software without restriction, including without limitation the rights to use, copy, modify, merge, publish, distribute, sublicense, and/or sell copies of the Software, and to permit persons to whom the Software is furnished to do so, subject to the following conditions:</p>
    <p>The above copyright notice and this permission notice shall be included in all copies or substantial portions of the Software.</p>
    <p>THE SOFTWARE IS PROVIDED &quot;AS IS&quot;, WITHOUT WARRANTY OF ANY KIND, EXPRESS OR IMPLIED, INCLUDING BUT NOT LIMITED TO THE WARRANTIES OF MERCHANTABILITY, FITNESS FOR A PARTICULAR PURPOSE AND NONINFRINGEMENT. IN NO EVENT SHALL THE AUTHORS OR COPYRIGHT HOLDERS BE LIABLE FOR ANY CLAIM, DAMAGES OR OTHER LIABILITY, WHETHER IN AN ACTION OF CONTRACT, TORT OR OTHERWISE, ARISING FROM, OUT OF OR IN CONNECTION WITH THE SOFTWARE OR THE USE OR OTHER DEALINGS IN THE SOFTWARE.</p>
  </desc>
  <style>
    /* <![CDATA[ */
      .svg-31-k-polyline {
        stroke: black;
        stroke-width: .1;
        fill: none;
        stroke-dasharray: 4%, 4%, 1%, 1%;
        animation: svg-31-k-main-anim 3s linear infinite;
      }
      
      @keyframes svg-31-k-main-anim {
        from {
          stroke-dashoffset: 0;
        }
      
        to {
          stroke-dashoffset: 10%;
        }
      }
      
    /* ]]> */
  </style>
  <polyline
    class="svg-31-k-polyline"
    points="45,0 44.992469787597656,0.7916305065155029 44.969871520996094,1.5829559564590454 44.932228088378906,2.373671770095825 44.87955093383789,3.1634726524353027 44.81185531616211,3.9520552158355713 44.72917938232422,4.7391157150268555 44.631553649902344,5.524350643157959 44.519020080566406,6.307458400726318 44.39162826538086,7.088138103485107 44.24943542480469,7.866089344024658 44.092498779296875,8.64101505279541 43.92088317871094,9.412614822387695 43.73466873168945,10.180594444274902 43.53392791748047,10.944660186767578 43.31875228881836,11.704519271850586 43.089229583740234,12.459881782531738 42.845458984375,13.210458755493164 42.587547302246094,13.955964088439941 42.31560134887695,14.696114540100098 42.02973937988281,15.430627822875977 41.730079650878906,16.159225463867188 41.4167594909668,16.88163185119629 41.089900970458984,17.59757423400879 40.74964904785156,18.306779861450195 40.396148681640625,19.00898551940918 40.02954864501953,19.70392417907715 39.65000915527344,20.39133644104004 39.257686614990234,21.070964813232422 38.852752685546875,21.742555618286133 38.43537521362305,22.405858993530273 38.00572967529297,23.060626983642578 37.564002990722656,23.706621170043945 37.11038589477539,24.34360122680664 36.64506149291992,24.97133445739746 36.168235778808594,25.58958625793457 35.68010330200195,26.198135375976562 35.18087387084961,26.796762466430664 34.67076110839844,27.38524627685547 34.14997482299805,27.96337890625 33.61874008178711,28.530946731567383 33.0772819519043,29.08775520324707 32.52582550048828,29.63360023498535 31.964601516723633,30.168296813964844 31.393848419189453,30.691648483276367 30.813806533813477,31.20347785949707 30.224721908569336,31.703609466552734 29.6268367767334,32.19186782836914 29.020404815673828,32.668087005615234 28.405677795410156,33.132110595703125 27.782917022705078,33.583778381347656 27.152379989624023,34.0229377746582 26.514328002929688,34.4494514465332 25.86903190612793,34.863182067871094 25.216758728027344,35.26398849487305 24.55777931213379,35.65174865722656 23.892366409301758,36.026344299316406 23.22079849243164,36.387657165527344 22.54335594177246,36.73558044433594 21.86031150817871,37.07000732421875 21.171953201293945,37.39084243774414 20.478567123413086,37.697998046875 19.780433654785156,37.99138641357422 19.077844619750977,38.27092361450195 18.37108612060547,38.53654861450195 17.66044807434082,38.78819274902344 16.946224212646484,39.02579116821289 16.22870445251465,39.249290466308594 15.50818157196045,39.458648681640625 14.784950256347656,39.6538200378418 14.059304237365723,39.83477020263672 13.331537246704102,40.0014762878418 12.601945877075195,40.153907775878906 11.870823860168457,40.292057037353516 11.138467788696289,40.41590881347656 10.405170440673828,40.52546310424805 9.67122745513916,40.620723724365234 8.936933517456055,40.70169448852539 8.202581405639648,40.76839828491211 7.4684648513793945,40.82085418701172 6.734875202178955,40.859092712402344 6.00210428237915,40.88314437866211 5.270442962646484,40.89305114746094 4.5401787757873535,40.88886260986328 3.8115997314453125,40.870628356933594 3.084991931915283,40.83841323852539 2.360639810562134,40.792274475097656 1.6388260126113892,40.7322883605957 0.9198311567306519,40.658531188964844 0.20393423736095428,40.57108688354492 -0.5085883140563965,40.47004318237305 -1.217462182044983,40.355491638183594 -1.9224152565002441,40.2275390625 -2.623178482055664,40.08628845214844 -3.3194847106933594,39.931854248046875 -4.011070251464844,39.76435089111328 -4.69767427444458,39.58390426635742 -5.379037857055664,39.39064025878906 -6.054907321929932,39.184696197509766 -6.725029468536377,38.96620559692383 -7.389157295227051,38.735321044921875 -8.047045707702637,38.492183685302734 -8.69845199584961,38.23695373535156 -9.343140602111816,37.969791412353516 -9.980876922607422,37.690853118896484 -10.611430168151855,37.40032196044922 -11.234576225280762,37.098358154296875 -11.850091934204102,36.78514862060547 -12.457759857177734,36.460880279541016 -13.057366371154785,36.125728607177734 -13.648704528808594,35.7798957824707 -14.2315673828125,35.4235725402832 -14.805756568908691,35.05696105957031 -15.371077537536621,34.68027114868164 -15.927336692810059,34.293701171875 -16.47435188293457,33.8974723815918 -17.01194190979004,33.491790771484375 -17.539928436279297,33.07688522338867 -18.058141708374023,32.652976989746094 -18.56641960144043,32.22028732299805 -19.064598083496094,31.779050827026367 -19.552522659301758,31.329500198364258 -20.03004264831543,30.87186622619629 -20.49701690673828,30.406391143798828 -20.953304290771484,29.93331527709961 -21.398771286010742,29.452880859375 -21.833290100097656,28.96533966064453 -22.25674057006836,28.470935821533203 -22.66900062561035,27.969919204711914 -23.069963455200195,27.46255111694336 -23.45952606201172,26.949077606201172 -23.837583541870117,26.429758071899414 -24.204044342041016,25.90485191345215 -24.558822631835938,25.374622344970703 -24.90183448791504,24.83932876586914 -25.23300552368164,24.29923439025879 -25.55225944519043,23.754600524902344 -25.859542846679688,23.205699920654297 -26.154788970947266,22.65279197692871 -26.437946319580078,22.096149444580078 -26.708972930908203,21.536035537719727 -26.967824935913086,20.972721099853516 -27.21446990966797,20.406476974487305 -27.44887924194336,19.837568283081055 -27.671030044555664,19.266265869140625 -27.880905151367188,18.692838668823242 -28.078493118286133,18.117557525634766 -28.2637939453125,17.54068946838379 -28.43680763244629,16.962505340576172 -28.597537994384766,16.383268356323242 -28.746004104614258,15.80324935913086 -28.882219314575195,15.222713470458984 -29.006216049194336,14.641928672790527 -29.118019104003906,14.061156272888184 -29.217666625976562,13.480660438537598 -29.305204391479492,12.900703430175781 -29.38067626953125,12.32154655456543 -29.44413948059082,11.743447303771973 -29.495656967163086,11.166664123535156 -29.53528594970703,10.591450691223145 -29.5631046295166,10.018061637878418 -29.579185485839844,9.446748733520508 -29.5836124420166,8.877760887145996 -29.57647132873535,8.3113431930542 -29.557857513427734,7.747742652893066 -29.527864456176758,7.187199115753174 -29.486602783203125,6.629952430725098 -29.434173583984375,6.076239585876465 -29.37069320678711,5.52629280090332 -29.296279907226562,4.980343818664551 -29.2110595703125,4.438619136810303 -29.115158081054688,3.9013431072235107 -29.00870704650879,3.368736505508423 -28.891849517822266,2.8410165309906006 -28.76472282409668,2.318397045135498 -28.627477645874023,1.8010882139205933 -28.48026466369629,1.2892965078353882 -28.3232364654541,0.7832242250442505 -28.156557083129883,0.2830701172351837 -27.980388641357422,-0.2109711617231369 -27.794902801513672,-0.6987091898918152 -27.600265502929688,-1.1799577474594116 -27.39665985107422,-1.6545346975326538 -27.184263229370117,-2.122262477874756 -26.9632568359375,-2.582968235015869 -26.73383140563965,-3.036482810974121 -26.496177673339844,-3.482642650604248 -26.250486373901367,-3.921288013458252 -25.99695587158203,-4.352264404296875 -25.735790252685547,-4.7754225730896 -25.467187881469727,-5.190616607666016 -25.191360473632812,-5.597707271575928 -24.908510208129883,-5.9965596199035645 -24.61885643005371,-6.3870439529418945 -24.322607040405273,-6.769034385681152 -24.019983291625977,-7.1424126625061035 -23.71120262145996,-7.507063865661621 -23.396486282348633,-7.862878322601318 -23.0760555267334,-8.20975399017334 -22.750139236450195,-8.547590255737305 -22.418962478637695,-8.87629508972168 -22.082752227783203,-9.195780754089355 -21.741743087768555,-9.505965232849121 -21.39616584777832,-9.806772232055664 -21.046249389648438,-10.098129272460938 -20.692232131958008,-10.379972457885742 -20.334346771240234,-10.652239799499512 -19.972829818725586,-10.914878845214844 -19.607921600341797,-11.167839050292969 -19.23985481262207,-11.411075592041016 -18.868871688842773,-11.644556045532227 -18.495206832885742,-11.868242263793945 -18.119102478027344,-12.082112312316895 -17.740795135498047,-12.286142349243164 -17.36052703857422,-12.480318069458008 -16.978532791137695,-12.664630889892578 -16.595054626464844,-12.839075088500977 -16.2103271484375,-13.003652572631836 -15.824590682983398,-13.158370018005371 -15.438081741333008,-13.303241729736328 -15.051037788391113,-13.438283920288086 -14.663691520690918,-13.563522338867188 -14.276278495788574,-13.678984642028809 -13.889033317565918,-13.78470516204834 -13.50218677520752,-13.880724906921387 -13.115968704223633,-13.96708869934082 -12.730609893798828,-14.043846130371094 -12.346338272094727,-14.11105728149414 -11.96337604522705,-14.168778419494629 -11.581951141357422,-14.217080116271973 -11.202282905578613,-14.256031036376953 -10.824591636657715,-14.2857084274292 -10.449094772338867,-14.306194305419922 -10.076007843017578,-14.317578315734863 -9.705543518066406,-14.31994915008545 -9.337911605834961,-14.313403129577637 -8.973320007324219,-14.29804515838623 -8.61197280883789,-14.273977279663086 -8.254072189331055,-14.241312026977539 -7.899816513061523,-14.200165748596191 -7.54940128326416,-14.15065860748291 -7.203019142150879,-14.092913627624512 -6.860860824584961,-14.027059555053711 -6.523108959197998,-13.953230857849121 -6.189948081970215,-13.871563911437988 -5.861556053161621,-13.782200813293457 -5.5381083488464355,-13.685287475585938 -5.2197747230529785,-13.580972671508789 -4.906723976135254,-13.469408988952637 -4.599118232727051,-13.350752830505371 -4.297117710113525,-13.225168228149414 -4.0008769035339355,-13.092817306518555 -3.7105467319488525,-12.953866958618164 -3.426274538040161,-12.808489799499512 -3.1482019424438477,-12.65685749053955 -2.876466989517212,-12.499151229858398 -2.6112029552459717,-12.335550308227539 -2.3525390625,-12.166236877441406 -2.1005990505218506,-11.991398811340332 -1.8555023670196533,-11.811223983764648 -1.6173641681671143,-11.62590503692627 -1.3862941265106201,-11.435635566711426 -1.1623972654342651,-11.240612030029297 -0.9457738995552063,-11.041031837463379 -0.7365189790725708,-10.837098121643066 -0.5347228646278381,-10.629013061523438 -0.3404706120491028,-10.416980743408203 -0.1538422703742981,-10.20120906829834 0.02508731558918953,-9.981904983520508 0.1962483674287796,-9.759278297424316 0.35957640409469604,-9.533540725708008 0.5150120854377747,-9.304905891418457 0.662501335144043,-9.073585510253906 0.8019955158233643,-8.83979606628418 0.9334510564804077,-8.603751182556152 1.0568296909332275,-8.365669250488281 1.172098994255066,-8.12576675415039 1.279231071472168,-7.884260177612305 1.3782039880752563,-7.641368865966797 1.4690009355545044,-7.397311210632324 1.5516105890274048,-7.152305603027344 1.6260268688201904,-6.906569480895996 1.692249059677124,-6.660323143005371 1.7502820491790771,-6.413784027099609 1.800135612487793,-6.167169570922852 1.841825008392334,-5.920698165893555 1.8753713369369507,-5.674585342407227 1.9008002281188965,-5.429048538208008 1.9181432723999023,-5.184302806854248 1.9274365901947021,-4.940561771392822 1.9287223815917969,-4.6980390548706055 1.9220471382141113,-4.456946849822998 1.907463550567627,-4.217495918273926 1.88502836227417,-3.9798948764801025 1.8548043966293335,-3.744352340698242 1.8168587684631348,-3.511073350906372 1.7712643146514893,-3.2802622318267822 1.7180980443954468,-3.05212140083313 1.657442569732666,-2.8268508911132812 1.5893851518630981,-2.6046488285064697 1.514017939567566,-2.3857104778289795 1.4314374923706055,-2.170229434967041 1.3417456150054932,-1.9583966732025146 1.2450482845306396,-1.7503998279571533 1.1414563655853271,-1.5464247465133667 1.0310851335525513,-1.346653938293457 0.9140543937683105,-1.1512669324874878 0.7904881238937378,-0.9604406356811523 0.660514771938324,-0.7743481397628784 0.5242670178413391,-0.5931599736213684 0.3818816542625427,-0.4170428514480591 0.2334994375705719,-0.24616029858589172 0.07926525175571442,-0.08067217469215393 -0.08067217469215393,0.07926525175571442 -0.24616029858589172,0.2334994375705719 -0.4170428514480591,0.3818816542625427 -0.5931599736213684,0.5242670178413391 -0.7743481397628784,0.660514771938324 -0.9604406356811523,0.7904881238937378 -1.1512669324874878,0.9140543937683105 -1.346653938293457,1.0310851335525513 -1.5464247465133667,1.1414563655853271 -1.7503998279571533,1.2450482845306396 -1.9583966732025146,1.3417456150054932 -2.170229434967041,1.4314374923706055 -2.3857104778289795,1.514017939567566 -2.6046488285064697,1.5893851518630981 -2.8268508911132812,1.657442569732666 -3.05212140083313,1.7180980443954468 -3.2802622318267822,1.7712643146514893 -3.511073350906372,1.8168587684631348 -3.744352340698242,1.8548043966293335 -3.9798948764801025,1.88502836227417 -4.217495918273926,1.907463550567627 -4.456946849822998,1.9220471382141113 -4.6980390548706055,1.9287223815917969 -4.940561771392822,1.9274365901947021 -5.184302806854248,1.9181432723999023 -5.429048538208008,1.9008002281188965 -5.674585342407227,1.8753713369369507 -5.920698165893555,1.841825008392334 -6.167169570922852,1.800135612487793 -6.413784027099609,1.7502820491790771 -6.660323143005371,1.692249059677124 -6.906569480895996,1.6260268688201904 -7.152305603027344,1.5516105890274048 -7.397311210632324,1.4690009355545044 -7.641368865966797,1.3782039880752563 -7.884260177612305,1.279231071472168 -8.12576675415039,1.172098994255066 -8.365669250488281,1.0568296909332275 -8.603751182556152,0.9334510564804077 -8.83979606628418,0.8019955158233643 -9.073585510253906,0.662501335144043 -9.304905891418457,0.5150120854377747 -9.533540725708008,0.35957640409469604 -9.759278297424316,0.1962483674287796 -9.981904983520508,0.02508731558918953 -10.20120906829834,-0.1538422703742981 -10.416980743408203,-0.3404706120491028 -10.629013061523438,-0.5347228646278381 -10.837098121643066,-0.7365189790725708 -11.041031837463379,-0.9457738995552063 -11.240612030029297,-1.1623972654342651 -11.435635566711426,-1.3862941265106201 -11.62590503692627,-1.6173641681671143 -11.811223983764648,-1.8555023670196533 -11.991398811340332,-2.1005990505218506 -12.166236877441406,-2.3525390625 -12.335550308227539,-2.6112029552459717 -12.499151229858398,-2.876466989517212 -12.65685749053955,-3.1482019424438477 -12.808489799499512,-3.426274538040161 -12.953866958618164,-3.7105467319488525 -13.092817306518555,-4.0008769035339355 -13.225168228149414,-4.297117710113525 -13.350752830505371,-4.599118232727051 -13.469408988952637,-4.906723976135254 -13.580972671508789,-5.2197747230529785 -13.685287475585938,-5.5381083488464355 -13.782200813293457,-5.861556053161621 -13.871563911437988,-6.189948081970215 -13.953230857849121,-6.523108959197998 -14.027059555053711,-6.860860824584961 -14.092913627624512,-7.203019142150879 -14.15065860748291,-7.54940128326416 -14.200165748596191,-7.899816513061523 -14.241312026977539,-8.254072189331055 -14.273977279663086,-8.61197280883789 -14.29804515838623,-8.973320007324219 -14.313403129577637,-9.337911605834961 -14.31994915008545,-9.705543518066406 -14.317578315734863,-10.076007843017578 -14.306194305419922,-10.449094772338867 -14.2857084274292,-10.824591636657715 -14.256031036376953,-11.202282905578613 -14.217080116271973,-11.581951141357422 -14.168778419494629,-11.96337604522705 -14.11105728149414,-12.346338272094727 -14.043846130371094,-12.730609893798828 -13.96708869934082,-13.115968704223633 -13.880724906921387,-13.50218677520752 -13.78470516204834,-13.889033317565918 -13.678984642028809,-14.276278495788574 -13.563522338867188,-14.663691520690918 -13.438283920288086,-15.051037788391113 -13.303241729736328,-15.438081741333008 -13.158370018005371,-15.824590682983398 -13.003652572631836,-16.2103271484375 -12.839075088500977,-16.595054626464844 -12.664630889892578,-16.978532791137695 -12.480318069458008,-17.36052703857422 -12.286142349243164,-17.740795135498047 -12.082112312316895,-18.119102478027344 -11.868242263793945,-18.495206832885742 -11.644556045532227,-18.868871688842773 -11.411075592041016,-19.23985481262207 -11.167839050292969,-19.607921600341797 -10.914878845214844,-19.972829818725586 -10.652239799499512,-20.334346771240234 -10.379972457885742,-20.692232131958008 -10.098129272460938,-21.046249389648438 -9.806772232055664,-21.39616584777832 -9.505965232849121,-21.741743087768555 -9.195780754089355,-22.082752227783203 -8.87629508972168,-22.418962478637695 -8.547590255737305,-22.750139236450195 -8.20975399017334,-23.0760555267334 -7.862878322601318,-23.396486282348633 -7.507063865661621,-23.71120262145996 -7.1424126625061035,-24.019983291625977 -6.769034385681152,-24.322607040405273 -6.3870439529418945,-24.61885643005371 -5.9965596199035645,-24.908510208129883 -5.597707271575928,-25.191360473632812 -5.190616607666016,-25.467187881469727 -4.7754225730896,-25.735790252685547 -4.352264404296875,-25.99695587158203 -3.921288013458252,-26.250486373901367 -3.482642650604248,-26.496177673339844 -3.036482810974121,-26.73383140563965 -2.582968235015869,-26.9632568359375 -2.122262477874756,-27.184263229370117 -1.6545346975326538,-27.39665985107422 -1.1799577474594116,-27.600265502929688 -0.6987091898918152,-27.794902801513672 -0.2109711617231369,-27.980388641357422 0.2830701172351837,-28.156557083129883 0.7832242250442505,-28.3232364654541 1.2892965078353882,-28.48026466369629 1.8010882139205933,-28.627477645874023 2.318397045135498,-28.76472282409668 2.8410165309906006,-28.891849517822266 3.368736505508423,-29.00870704650879 3.9013431072235107,-29.115158081054688 4.438619136810303,-29.2110595703125 4.980343818664551,-29.296279907226562 5.52629280090332,-29.37069320678711 6.076239585876465,-29.434173583984375 6.629952430725098,-29.486602783203125 7.187199115753174,-29.527864456176758 7.747742652893066,-29.557857513427734 8.3113431930542,-29.57647132873535 8.877760887145996,-29.5836124420166 9.446748733520508,-29.579185485839844 10.018061637878418,-29.5631046295166 10.591450691223145,-29.53528594970703 11.166664123535156,-29.495656967163086 11.743447303771973,-29.44413948059082 12.32154655456543,-29.38067626953125 12.900703430175781,-29.305204391479492 13.480660438537598,-29.217666625976562 14.061156272888184,-29.118019104003906 14.641928672790527,-29.006216049194336 15.222713470458984,-28.882219314575195 15.80324935913086,-28.746004104614258 16.383268356323242,-28.597537994384766 16.962505340576172,-28.43680763244629 17.54068946838379,-28.2637939453125 18.117557525634766,-28.078493118286133 18.692838668823242,-27.880905151367188 19.266265869140625,-27.671030044555664 19.837568283081055,-27.44887924194336 20.406476974487305,-27.21446990966797 20.972721099853516,-26.967824935913086 21.536035537719727,-26.708972930908203 22.096149444580078,-26.437946319580078 22.65279197692871,-26.154788970947266 23.205699920654297,-25.859542846679688 23.754600524902344,-25.55225944519043 24.29923439025879,-25.23300552368164 24.83932876586914,-24.90183448791504 25.374622344970703,-24.558822631835938 25.90485191345215,-24.204044342041016 26.429758071899414,-23.837583541870117 26.949077606201172,-23.45952606201172 27.46255111694336,-23.069963455200195 27.969919204711914,-22.66900062561035 28.470935821533203,-22.25674057006836 28.96533966064453,-21.833290100097656 29.452880859375,-21.398771286010742 29.93331527709961,-20.953304290771484 30.406391143798828,-20.49701690673828 30.87186622619629,-20.03004264831543 31.329500198364258,-19.552522659301758 31.779050827026367,-19.064598083496094 32.22028732299805,-18.56641960144043 32.652976989746094,-18.058141708374023 33.07688522338867,-17.539928436279297 33.491790771484375,-17.01194190979004 33.8974723815918,-16.47435188293457 34.293701171875,-15.927336692810059 34.68027114868164,-15.371077537536621 35.05696105957031,-14.805756568908691 35.4235725402832,-14.2315673828125 35.7798957824707,-13.648704528808594 36.125728607177734,-13.057366371154785 36.460880279541016,-12.457759857177734 36.78514862060547,-11.850091934204102 37.098358154296875,-11.234576225280762 37.40032196044922,-10.611430168151855 37.690853118896484,-9.980876922607422 37.969791412353516,-9.343140602111816 38.23695373535156,-8.69845199584961 38.492183685302734,-8.047045707702637 38.735321044921875,-7.389157295227051 38.96620559692383,-6.725029468536377 39.184696197509766,-6.054907321929932 39.39064025878906,-5.379037857055664 39.58390426635742,-4.69767427444458 39.76435089111328,-4.011070251464844 39.931854248046875,-3.3194847106933594 40.08628845214844,-2.623178482055664 40.2275390625,-1.9224152565002441 40.355491638183594,-1.217462182044983 40.47004318237305,-0.5085883140563965 40.57108688354492,0.20393423736095428 40.658531188964844,0.9198311567306519 40.7322883605957,1.6388260126113892 40.792274475097656,2.360639810562134 40.83841323852539,3.084991931915283 40.870628356933594,3.8115997314453125 40.88886260986328,4.5401787757873535 40.89305114746094,5.270442962646484 40.88314437866211,6.00210428237915 40.859092712402344,6.734875202178955 40.82085418701172,7.4684648513793945 40.76839828491211,8.202581405639648 40.70169448852539,8.936933517456055 40.620723724365234,9.67122745513916 40.52546310424805,10.405170440673828 40.41590881347656,11.138467788696289 40.292057037353516,11.870823860168457 40.153907775878906,12.601945877075195 40.0014762878418,13.331537246704102 39.83477020263672,14.059304237365723 39.6538200378418,14.784950256347656 39.458648681640625,15.50818157196045 39.249290466308594,16.22870445251465 39.02579116821289,16.946224212646484 38.78819274902344,17.66044807434082 38.53654861450195,18.37108612060547 38.27092361450195,19.077844619750977 37.99138641357422,19.780433654785156 37.697998046875,20.478567123413086 37.39084243774414,21.171953201293945 37.07000732421875,21.86031150817871 36.73558044433594,22.54335594177246 36.387657165527344,23.22079849243164 36.026344299316406,23.892366409301758 35.65174865722656,24.55777931213379 35.26398849487305,25.216758728027344 34.863182067871094,25.86903190612793 34.4494514465332,26.514328002929688 34.0229377746582,27.152379989624023 33.583778381347656,27.782917022705078 33.132110595703125,28.405677795410156 32.668087005615234,29.020404815673828 32.19186782836914,29.6268367767334 31.703609466552734,30.224721908569336 31.20347785949707,30.813806533813477 30.691648483276367,31.393848419189453 30.168296813964844,31.964601516723633 29.63360023498535,32.52582550048828 29.08775520324707,33.0772819519043 28.530946731567383,33.61874008178711 27.96337890625,34.14997482299805 27.38524627685547,34.67076110839844 26.796762466430664,35.18087387084961 26.198135375976562,35.68010330200195 25.58958625793457,36.168235778808594 24.97133445739746,36.64506149291992 24.34360122680664,37.11038589477539 23.706621170043945,37.564002990722656 23.060626983642578,38.00572967529297 22.405858993530273,38.43537521362305 21.742555618286133,38.852752685546875 21.070964813232422,39.257686614990234 20.39133644104004,39.65000915527344 19.70392417907715,40.02954864501953 19.00898551940918,40.396148681640625 18.306779861450195,40.74964904785156 17.59757423400879,41.089900970458984 16.88163185119629,41.4167594909668 16.159225463867188,41.730079650878906 15.430627822875977,42.02973937988281 14.696114540100098,42.31560134887695 13.955964088439941,42.587547302246094 13.210458755493164,42.845458984375 12.459881782531738,43.089229583740234 11.704519271850586,43.31875228881836 10.944660186767578,43.53392791748047 10.180594444274902,43.73466873168945 9.412614822387695,43.92088317871094 8.64101505279541,44.092498779296875 7.866089344024658,44.24943542480469 7.088138103485107,44.39162826538086 6.307458400726318,44.519020080566406 5.524350643157959,44.631553649902344 4.7391157150268555,44.72917938232422 3.9520552158355713,44.81185531616211 3.1634726524353027,44.87955093383789 2.373671770095825,44.932228088378906 1.5829559564590454,44.969871520996094 0.7916305065155029,44.992469787597656 1.9288187041478777e-14,45 -0.7916305065155029,44.992469787597656 -1.5829559564590454,44.969871520996094 -2.373671770095825,44.932228088378906 -3.1634726524353027,44.87955093383789 -3.9520552158355713,44.81185531616211 -4.7391157150268555,44.72917938232422 -5.524350643157959,44.631553649902344 -6.307458400726318,44.519020080566406 -7.088138103485107,44.39162826538086 -7.866089344024658,44.24943542480469 -8.64101505279541,44.092498779296875 -9.412614822387695,43.92088317871094 -10.180594444274902,43.73466873168945 -10.944660186767578,43.53392791748047 -11.704519271850586,43.31875228881836 -12.459881782531738,43.089229583740234 -13.210458755493164,42.845458984375 -13.955964088439941,42.587547302246094 -14.696114540100098,42.31560134887695 -15.430627822875977,42.02973937988281 -16.159225463867188,41.730079650878906 -16.88163185119629,41.4167594909668 -17.59757423400879,41.089900970458984 -18.306779861450195,40.74964904785156 -19.00898551940918,40.396148681640625 -19.70392417907715,40.02954864501953 -20.39133644104004,39.65000915527344 -21.070964813232422,39.257686614990234 -21.742555618286133,38.852752685546875 -22.405858993530273,38.43537521362305 -23.060626983642578,38.00572967529297 -23.706621170043945,37.564002990722656 -24.34360122680664,37.11038589477539 -24.97133445739746,36.64506149291992 -25.58958625793457,36.168235778808594 -26.198135375976562,35.68010330200195 -26.796762466430664,35.18087387084961 -27.38524627685547,34.67076110839844 -27.96337890625,34.14997482299805 -28.530946731567383,33.61874008178711 -29.08775520324707,33.0772819519043 -29.63360023498535,32.52582550048828 -30.168296813964844,31.964601516723633 -30.691648483276367,31.393848419189453 -31.20347785949707,30.813806533813477 -31.703609466552734,30.224721908569336 -32.19186782836914,29.6268367767334 -32.668087005615234,29.020404815673828 -33.132110595703125,28.405677795410156 -33.583778381347656,27.782917022705078 -34.0229377746582,27.152379989624023 -34.4494514465332,26.514328002929688 -34.863182067871094,25.86903190612793 -35.26398849487305,25.216758728027344 -35.65174865722656,24.55777931213379 -36.026344299316406,23.892366409301758 -36.387657165527344,23.22079849243164 -36.73558044433594,22.54335594177246 -37.07000732421875,21.86031150817871 -37.39084243774414,21.171953201293945 -37.697998046875,20.478567123413086 -37.99138641357422,19.780433654785156 -38.27092361450195,19.077844619750977 -38.53654861450195,18.37108612060547 -38.78819274902344,17.66044807434082 -39.02579116821289,16.946224212646484 -39.249290466308594,16.22870445251465 -39.458648681640625,15.50818157196045 -39.6538200378418,14.784950256347656 -39.83477020263672,14.059304237365723 -40.0014762878418,13.331537246704102 -40.153907775878906,12.601945877075195 -40.292057037353516,11.870823860168457 -40.41590881347656,11.138467788696289 -40.52546310424805,10.405170440673828 -40.620723724365234,9.67122745513916 -40.70169448852539,8.936933517456055 -40.76839828491211,8.202581405639648 -40.82085418701172,7.4684648513793945 -40.859092712402344,6.734875202178955 -40.88314437866211,6.00210428237915 -40.89305114746094,5.270442962646484 -40.88886260986328,4.5401787757873535 -40.870628356933594,3.8115997314453125 -40.83841323852539,3.084991931915283 -40.792274475097656,2.360639810562134 -40.7322883605957,1.6388260126113892 -40.658531188964844,0.9198311567306519 -40.57108688354492,0.20393423736095428 -40.47004318237305,-0.5085883140563965 -40.355491638183594,-1.217462182044983 -40.2275390625,-1.9224152565002441 -40.08628845214844,-2.623178482055664 -39.931854248046875,-3.3194847106933594 -39.76435089111328,-4.011070251464844 -39.58390426635742,-4.69767427444458 -39.39064025878906,-5.379037857055664 -39.184696197509766,-6.054907321929932 -38.96620559692383,-6.725029468536377 -38.735321044921875,-7.389157295227051 -38.492183685302734,-8.047045707702637 -38.23695373535156,-8.69845199584961 -37.969791412353516,-9.343140602111816 -37.690853118896484,-9.980876922607422 -37.40032196044922,-10.611430168151855 -37.098358154296875,-11.234576225280762 -36.78514862060547,-11.850091934204102 -36.460880279541016,-12.457759857177734 -36.125728607177734,-13.057366371154785 -35.7798957824707,-13.648704528808594 -35.4235725402832,-14.2315673828125 -35.05696105957031,-14.805756568908691 -34.68027114868164,-15.371077537536621 -34.293701171875,-15.927336692810059 -33.8974723815918,-16.47435188293457 -33.491790771484375,-17.01194190979004 -33.07688522338867,-17.539928436279297 -32.652976989746094,-18.058141708374023 -32.22028732299805,-18.56641960144043 -31.779050827026367,-19.064598083496094 -31.329500198364258,-19.552522659301758 -30.87186622619629,-20.03004264831543 -30.406391143798828,-20.49701690673828 -29.93331527709961,-20.953304290771484 -29.452880859375,-21.398771286010742 -28.96533966064453,-21.833290100097656 -28.470935821533203,-22.25674057006836 -27.969919204711914,-22.66900062561035 -27.46255111694336,-23.069963455200195 -26.949077606201172,-23.45952606201172 -26.429758071899414,-23.837583541870117 -25.90485191345215,-24.204044342041016 -25.374622344970703,-24.558822631835938 -24.83932876586914,-24.90183448791504 -24.29923439025879,-25.23300552368164 -23.754600524902344,-25.55225944519043 -23.205699920654297,-25.859542846679688 -22.65279197692871,-26.154788970947266 -22.096149444580078,-26.437946319580078 -21.536035537719727,-26.708972930908203 -20.972721099853516,-26.967824935913086 -20.406476974487305,-27.21446990966797 -19.837568283081055,-27.44887924194336 -19.266265869140625,-27.671030044555664 -18.692838668823242,-27.880905151367188 -18.117557525634766,-28.078493118286133 -17.54068946838379,-28.2637939453125 -16.962505340576172,-28.43680763244629 -16.383268356323242,-28.597537994384766 -15.80324935913086,-28.746004104614258 -15.222713470458984,-28.882219314575195 -14.641928672790527,-29.006216049194336 -14.061156272888184,-29.118019104003906 -13.480660438537598,-29.217666625976562 -12.900703430175781,-29.305204391479492 -12.32154655456543,-29.38067626953125 -11.743447303771973,-29.44413948059082 -11.166664123535156,-29.495656967163086 -10.591450691223145,-29.53528594970703 -10.018061637878418,-29.5631046295166 -9.446748733520508,-29.579185485839844 -8.877760887145996,-29.5836124420166 -8.3113431930542,-29.57647132873535 -7.747742652893066,-29.557857513427734 -7.187199115753174,-29.527864456176758 -6.629952430725098,-29.486602783203125 -6.076239585876465,-29.434173583984375 -5.52629280090332,-29.37069320678711 -4.980343818664551,-29.296279907226562 -4.438619136810303,-29.2110595703125 -3.9013431072235107,-29.115158081054688 -3.368736505508423,-29.00870704650879 -2.8410165309906006,-28.891849517822266 -2.318397045135498,-28.76472282409668 -1.8010882139205933,-28.627477645874023 -1.2892965078353882,-28.48026466369629 -0.7832242250442505,-28.3232364654541 -0.2830701172351837,-28.156557083129883 0.2109711617231369,-27.980388641357422 0.6987091898918152,-27.794902801513672 1.1799577474594116,-27.600265502929688 1.6545346975326538,-27.39665985107422 2.122262477874756,-27.184263229370117 2.582968235015869,-26.9632568359375 3.036482810974121,-26.73383140563965 3.482642650604248,-26.496177673339844 3.921288013458252,-26.250486373901367 4.352264404296875,-25.99695587158203 4.7754225730896,-25.735790252685547 5.190616607666016,-25.467187881469727 5.597707271575928,-25.191360473632812 5.9965596199035645,-24.908510208129883 6.3870439529418945,-24.61885643005371 6.769034385681152,-24.322607040405273 7.1424126625061035,-24.019983291625977 7.507063865661621,-23.71120262145996 7.862878322601318,-23.396486282348633 8.20975399017334,-23.0760555267334 8.547590255737305,-22.750139236450195 8.87629508972168,-22.418962478637695 9.195780754089355,-22.082752227783203 9.505965232849121,-21.741743087768555 9.806772232055664,-21.39616584777832 10.098129272460938,-21.046249389648438 10.379972457885742,-20.692232131958008 10.652239799499512,-20.334346771240234 10.914878845214844,-19.972829818725586 11.167839050292969,-19.607921600341797 11.411075592041016,-19.23985481262207 11.644556045532227,-18.868871688842773 11.868242263793945,-18.495206832885742 12.082112312316895,-18.119102478027344 12.286142349243164,-17.740795135498047 12.480318069458008,-17.36052703857422 12.664630889892578,-16.978532791137695 12.839075088500977,-16.595054626464844 13.003652572631836,-16.2103271484375 13.158370018005371,-15.824590682983398 13.303241729736328,-15.438081741333008 13.438283920288086,-15.051037788391113 13.563522338867188,-14.663691520690918 13.678984642028809,-14.276278495788574 13.78470516204834,-13.889033317565918 13.880724906921387,-13.50218677520752 13.96708869934082,-13.115968704223633 14.043846130371094,-12.730609893798828 14.11105728149414,-12.346338272094727 14.168778419494629,-11.96337604522705 14.217080116271973,-11.581951141357422 14.256031036376953,-11.202282905578613 14.2857084274292,-10.824591636657715 14.306194305419922,-10.449094772338867 14.317578315734863,-10.076007843017578 14.31994915008545,-9.705543518066406 14.313403129577637,-9.337911605834961 14.29804515838623,-8.973320007324219 14.273977279663086,-8.61197280883789 14.241312026977539,-8.254072189331055 14.200165748596191,-7.899816513061523 14.15065860748291,-7.54940128326416 14.092913627624512,-7.203019142150879 14.027059555053711,-6.860860824584961 13.953230857849121,-6.523108959197998 13.871563911437988,-6.189948081970215 13.782200813293457,-5.861556053161621 13.685287475585938,-5.5381083488464355 13.580972671508789,-5.2197747230529785 13.469408988952637,-4.906723976135254 13.350752830505371,-4.599118232727051 13.225168228149414,-4.297117710113525 13.092817306518555,-4.0008769035339355 12.953866958618164,-3.7105467319488525 12.808489799499512,-3.426274538040161 12.65685749053955,-3.1482019424438477 12.499151229858398,-2.876466989517212 12.335550308227539,-2.6112029552459717 12.166236877441406,-2.3525390625 11.991398811340332,-2.1005990505218506 11.811223983764648,-1.8555023670196533 11.62590503692627,-1.6173641681671143 11.435635566711426,-1.3862941265106201 11.240612030029297,-1.1623972654342651 11.041031837463379,-0.9457738995552063 10.837098121643066,-0.7365189790725708 10.629013061523438,-0.5347228646278381 10.416980743408203,-0.3404706120491028 10.20120906829834,-0.1538422703742981 9.981904983520508,0.02508731558918953 9.759278297424316,0.1962483674287796 9.533540725708008,0.35957640409469604 9.304905891418457,0.5150120854377747 9.073585510253906,0.662501335144043 8.83979606628418,0.8019955158233643 8.603751182556152,0.9334510564804077 8.365669250488281,1.0568296909332275 8.12576675415039,1.172098994255066 7.884260177612305,1.279231071472168 7.641368865966797,1.3782039880752563 7.397311210632324,1.4690009355545044 7.152305603027344,1.5516105890274048 6.906569480895996,1.6260268688201904 6.660323143005371,1.692249059677124 6.413784027099609,1.7502820491790771 6.167169570922852,1.800135612487793 5.920698165893555,1.841825008392334 5.674585342407227,1.8753713369369507 5.429048538208008,1.9008002281188965 5.184302806854248,1.9181432723999023 4.940561771392822,1.9274365901947021 4.6980390548706055,1.9287223815917969 4.456946849822998,1.9220471382141113 4.217495918273926,1.907463550567627 3.9798948764801025,1.88502836227417 3.744352340698242,1.8548043966293335 3.511073350906372,1.8168587684631348 3.2802622318267822,1.7712643146514893 3.05212140083313,1.7180980443954468 2.8268508911132812,1.657442569732666 2.6046488285064697,1.5893851518630981 2.3857104778289795,1.514017939567566 2.170229434967041,1.4314374923706055 1.9583966732025146,1.3417456150054932 1.7503998279571533,1.2450482845306396 1.5464247465133667,1.1414563655853271 1.346653938293457,1.0310851335525513 1.1512669324874878,0.9140543937683105 0.9604406356811523,0.7904881238937378 0.7743481397628784,0.660514771938324 0.5931599736213684,0.5242670178413391 0.4170428514480591,0.3818816542625427 0.24616029858589172,0.2334994375705719 0.08067217469215393,0.07926525175571442 -0.07926525175571442,-0.08067217469215393 -0.2334994375705719,-0.24616029858589172 -0.3818816542625427,-0.4170428514480591 -0.5242670178413391,-0.5931599736213684 -0.660514771938324,-0.7743481397628784 -0.7904881238937378,-0.9604406356811523 -0.9140543937683105,-1.1512669324874878 -1.0310851335525513,-1.346653938293457 -1.1414563655853271,-1.5464247465133667 -1.2450482845306396,-1.7503998279571533 -1.3417456150054932,-1.9583966732025146 -1.4314374923706055,-2.170229434967041 -1.514017939567566,-2.3857104778289795 -1.5893851518630981,-2.6046488285064697 -1.657442569732666,-2.8268508911132812 -1.7180980443954468,-3.05212140083313 -1.7712643146514893,-3.2802622318267822 -1.8168587684631348,-3.511073350906372 -1.8548043966293335,-3.744352340698242 -1.88502836227417,-3.9798948764801025 -1.907463550567627,-4.217495918273926 -1.9220471382141113,-4.456946849822998 -1.9287223815917969,-4.6980390548706055 -1.9274365901947021,-4.940561771392822 -1.9181432723999023,-5.184302806854248 -1.9008002281188965,-5.429048538208008 -1.8753713369369507,-5.674585342407227 -1.841825008392334,-5.920698165893555 -1.800135612487793,-6.167169570922852 -1.7502820491790771,-6.413784027099609 -1.692249059677124,-6.660323143005371 -1.6260268688201904,-6.906569480895996 -1.5516105890274048,-7.152305603027344 -1.4690009355545044,-7.397311210632324 -1.3782039880752563,-7.641368865966797 -1.279231071472168,-7.884260177612305 -1.172098994255066,-8.12576675415039 -1.0568296909332275,-8.365669250488281 -0.9334510564804077,-8.603751182556152 -0.8019955158233643,-8.83979606628418 -0.662501335144043,-9.073585510253906 -0.5150120854377747,-9.304905891418457 -0.35957640409469604,-9.533540725708008 -0.1962483674287796,-9.759278297424316 -0.02508731558918953,-9.981904983520508 0.1538422703742981,-10.20120906829834 0.3404706120491028,-10.416980743408203 0.5347228646278381,-10.629013061523438 0.7365189790725708,-10.837098121643066 0.9457738995552063,-11.041031837463379 1.1623972654342651,-11.240612030029297 1.3862941265106201,-11.435635566711426 1.6173641681671143,-11.62590503692627 1.8555023670196533,-11.811223983764648 2.1005990505218506,-11.991398811340332 2.3525390625,-12.166236877441406 2.6112029552459717,-12.335550308227539 2.876466989517212,-12.499151229858398 3.1482019424438477,-12.65685749053955 3.426274538040161,-12.808489799499512 3.7105467319488525,-12.953866958618164 4.0008769035339355,-13.092817306518555 4.297117710113525,-13.225168228149414 4.599118232727051,-13.350752830505371 4.906723976135254,-13.469408988952637 5.2197747230529785,-13.580972671508789 5.5381083488464355,-13.685287475585938 5.861556053161621,-13.782200813293457 6.189948081970215,-13.871563911437988 6.523108959197998,-13.953230857849121 6.860860824584961,-14.027059555053711 7.203019142150879,-14.092913627624512 7.54940128326416,-14.15065860748291 7.899816513061523,-14.200165748596191 8.254072189331055,-14.241312026977539 8.61197280883789,-14.273977279663086 8.973320007324219,-14.29804515838623 9.337911605834961,-14.313403129577637 9.705543518066406,-14.31994915008545 10.076007843017578,-14.317578315734863 10.449094772338867,-14.306194305419922 10.824591636657715,-14.2857084274292 11.202282905578613,-14.256031036376953 11.581951141357422,-14.217080116271973 11.96337604522705,-14.168778419494629 12.346338272094727,-14.11105728149414 12.730609893798828,-14.043846130371094 13.115968704223633,-13.96708869934082 13.50218677520752,-13.880724906921387 13.889033317565918,-13.78470516204834 14.276278495788574,-13.678984642028809 14.663691520690918,-13.563522338867188 15.051037788391113,-13.438283920288086 15.438081741333008,-13.303241729736328 15.824590682983398,-13.158370018005371 16.2103271484375,-13.003652572631836 16.595054626464844,-12.839075088500977 16.978532791137695,-12.664630889892578 17.36052703857422,-12.480318069458008 17.740795135498047,-12.286142349243164 18.119102478027344,-12.082112312316895 18.495206832885742,-11.868242263793945 18.868871688842773,-11.644556045532227 19.23985481262207,-11.411075592041016 19.607921600341797,-11.167839050292969 19.972829818725586,-10.914878845214844 20.334346771240234,-10.652239799499512 20.692232131958008,-10.379972457885742 21.046249389648438,-10.098129272460938 21.39616584777832,-9.806772232055664 21.741743087768555,-9.505965232849121 22.082752227783203,-9.195780754089355 22.418962478637695,-8.87629508972168 22.750139236450195,-8.547590255737305 23.0760555267334,-8.20975399017334 23.396486282348633,-7.862878322601318 23.71120262145996,-7.507063865661621 24.019983291625977,-7.1424126625061035 24.322607040405273,-6.769034385681152 24.61885643005371,-6.3870439529418945 24.908510208129883,-5.9965596199035645 25.191360473632812,-5.597707271575928 25.467187881469727,-5.190616607666016 25.735790252685547,-4.7754225730896 25.99695587158203,-4.352264404296875 26.250486373901367,-3.921288013458252 26.496177673339844,-3.482642650604248 26.73383140563965,-3.036482810974121 26.9632568359375,-2.582968235015869 27.184263229370117,-2.122262477874756 27.39665985107422,-1.6545346975326538 27.600265502929688,-1.1799577474594116 27.794902801513672,-0.6987091898918152 27.980388641357422,-0.2109711617231369 28.156557083129883,0.2830701172351837 28.3232364654541,0.7832242250442505 28.48026466369629,1.2892965078353882 28.627477645874023,1.8010882139205933 28.76472282409668,2.318397045135498 28.891849517822266,2.8410165309906006 29.00870704650879,3.368736505508423 29.115158081054688,3.9013431072235107 29.2110595703125,4.438619136810303 29.296279907226562,4.980343818664551 29.37069320678711,5.52629280090332 29.434173583984375,6.076239585876465 29.486602783203125,6.629952430725098 29.527864456176758,7.187199115753174 29.557857513427734,7.747742652893066 29.57647132873535,8.3113431930542 29.5836124420166,8.877760887145996 29.579185485839844,9.446748733520508 29.5631046295166,10.018061637878418 29.53528594970703,10.591450691223145 29.495656967163086,11.166664123535156 29.44413948059082,11.743447303771973 29.38067626953125,12.32154655456543 29.305204391479492,12.900703430175781 29.217666625976562,13.480660438537598 29.118019104003906,14.061156272888184 29.006216049194336,14.641928672790527 28.882219314575195,15.222713470458984 28.746004104614258,15.80324935913086 28.597537994384766,16.383268356323242 28.43680763244629,16.962505340576172 28.2637939453125,17.54068946838379 28.078493118286133,18.117557525634766 27.880905151367188,18.692838668823242 27.671030044555664,19.266265869140625 27.44887924194336,19.837568283081055 27.21446990966797,20.406476974487305 26.967824935913086,20.972721099853516 26.708972930908203,21.536035537719727 26.437946319580078,22.096149444580078 26.154788970947266,22.65279197692871 25.859542846679688,23.205699920654297 25.55225944519043,23.754600524902344 25.23300552368164,24.29923439025879 24.90183448791504,24.83932876586914 24.558822631835938,25.374622344970703 24.204044342041016,25.90485191345215 23.837583541870117,26.429758071899414 23.45952606201172,26.949077606201172 23.069963455200195,27.46255111694336 22.66900062561035,27.969919204711914 22.25674057006836,28.470935821533203 21.833290100097656,28.96533966064453 21.398771286010742,29.452880859375 20.953304290771484,29.93331527709961 20.49701690673828,30.406391143798828 20.03004264831543,30.87186622619629 19.552522659301758,31.329500198364258 19.064598083496094,31.779050827026367 18.56641960144043,32.22028732299805 18.058141708374023,32.652976989746094 17.539928436279297,33.07688522338867 17.01194190979004,33.491790771484375 16.47435188293457,33.8974723815918 15.927336692810059,34.293701171875 15.371077537536621,34.68027114868164 14.805756568908691,35.05696105957031 14.2315673828125,35.4235725402832 13.648704528808594,35.7798957824707 13.057366371154785,36.125728607177734 12.457759857177734,36.460880279541016 11.850091934204102,36.78514862060547 11.234576225280762,37.098358154296875 10.611430168151855,37.40032196044922 9.980876922607422,37.690853118896484 9.343140602111816,37.969791412353516 8.69845199584961,38.23695373535156 8.047045707702637,38.492183685302734 7.389157295227051,38.735321044921875 6.725029468536377,38.96620559692383 6.054907321929932,39.184696197509766 5.379037857055664,39.39064025878906 4.69767427444458,39.58390426635742 4.011070251464844,39.76435089111328 3.3194847106933594,39.931854248046875 2.623178482055664,40.08628845214844 1.9224152565002441,40.2275390625 1.217462182044983,40.355491638183594 0.5085883140563965,40.47004318237305 -0.20393423736095428,40.57108688354492 -0.9198311567306519,40.658531188964844 -1.6388260126113892,40.7322883605957 -2.360639810562134,40.792274475097656 -3.084991931915283,40.83841323852539 -3.8115997314453125,40.870628356933594 -4.5401787757873535,40.88886260986328 -5.270442962646484,40.89305114746094 -6.00210428237915,40.88314437866211 -6.734875202178955,40.859092712402344 -7.4684648513793945,40.82085418701172 -8.202581405639648,40.76839828491211 -8.936933517456055,40.70169448852539 -9.67122745513916,40.620723724365234 -10.405170440673828,40.52546310424805 -11.138467788696289,40.41590881347656 -11.870823860168457,40.292057037353516 -12.601945877075195,40.153907775878906 -13.331537246704102,40.0014762878418 -14.059304237365723,39.83477020263672 -14.784950256347656,39.6538200378418 -15.50818157196045,39.458648681640625 -16.22870445251465,39.249290466308594 -16.946224212646484,39.02579116821289 -17.66044807434082,38.78819274902344 -18.37108612060547,38.53654861450195 -19.077844619750977,38.27092361450195 -19.780433654785156,37.99138641357422 -20.478567123413086,37.697998046875 -21.171953201293945,37.39084243774414 -21.86031150817871,37.07000732421875 -22.54335594177246,36.73558044433594 -23.22079849243164,36.387657165527344 -23.892366409301758,36.026344299316406 -24.55777931213379,35.65174865722656 -25.216758728027344,35.26398849487305 -25.86903190612793,34.863182067871094 -26.514328002929688,34.4494514465332 -27.152379989624023,34.0229377746582 -27.782917022705078,33.583778381347656 -28.405677795410156,33.132110595703125 -29.020404815673828,32.668087005615234 -29.6268367767334,32.19186782836914 -30.224721908569336,31.703609466552734 -30.813806533813477,31.20347785949707 -31.393848419189453,30.691648483276367 -31.964601516723633,30.168296813964844 -32.52582550048828,29.63360023498535 -33.0772819519043,29.08775520324707 -33.61874008178711,28.530946731567383 -34.14997482299805,27.96337890625 -34.67076110839844,27.38524627685547 -35.18087387084961,26.796762466430664 -35.68010330200195,26.198135375976562 -36.168235778808594,25.58958625793457 -36.64506149291992,24.97133445739746 -37.11038589477539,24.34360122680664 -37.564002990722656,23.706621170043945 -38.00572967529297,23.060626983642578 -38.43537521362305,22.405858993530273 -38.852752685546875,21.742555618286133 -39.257686614990234,21.070964813232422 -39.65000915527344,20.39133644104004 -40.02954864501953,19.70392417907715 -40.396148681640625,19.00898551940918 -40.74964904785156,18.306779861450195 -41.089900970458984,17.59757423400879 -41.4167594909668,16.88163185119629 -41.730079650878906,16.159225463867188 -42.02973937988281,15.430627822875977 -42.31560134887695,14.696114540100098 -42.587547302246094,13.955964088439941 -42.845458984375,13.210458755493164 -43.089229583740234,12.459881782531738 -43.31875228881836,11.704519271850586 -43.53392791748047,10.944660186767578 -43.73466873168945,10.180594444274902 -43.92088317871094,9.412614822387695 -44.092498779296875,8.64101505279541 -44.24943542480469,7.866089344024658 -44.39162826538086,7.088138103485107 -44.519020080566406,6.307458400726318 -44.631553649902344,5.524350643157959 -44.72917938232422,4.7391157150268555 -44.81185531616211,3.9520552158355713 -44.87955093383789,3.1634726524353027 -44.932228088378906,2.373671770095825 -44.969871520996094,1.5829559564590454 -44.992469787597656,0.7916305065155029 -45,3.8576374082957554e-14 -44.992469787597656,-0.7916305065155029 -44.969871520996094,-1.5829559564590454 -44.932228088378906,-2.373671770095825 -44.87955093383789,-3.1634726524353027 -44.81185531616211,-3.9520552158355713 -44.72917938232422,-4.7391157150268555 -44.631553649902344,-5.524350643157959 -44.519020080566406,-6.307458400726318 -44.39162826538086,-7.088138103485107 -44.24943542480469,-7.866089344024658 -44.092498779296875,-8.64101505279541 -43.92088317871094,-9.412614822387695 -43.73466873168945,-10.180594444274902 -43.53392791748047,-10.944660186767578 -43.31875228881836,-11.704519271850586 -43.089229583740234,-12.459881782531738 -42.845458984375,-13.210458755493164 -42.587547302246094,-13.955964088439941 -42.31560134887695,-14.696114540100098 -42.02973937988281,-15.430627822875977 -41.730079650878906,-16.159225463867188 -41.4167594909668,-16.88163185119629 -41.089900970458984,-17.59757423400879 -40.74964904785156,-18.306779861450195 -40.396148681640625,-19.00898551940918 -40.02954864501953,-19.70392417907715 -39.65000915527344,-20.39133644104004 -39.257686614990234,-21.070964813232422 -38.852752685546875,-21.742555618286133 -38.43537521362305,-22.405858993530273 -38.00572967529297,-23.060626983642578 -37.564002990722656,-23.706621170043945 -37.11038589477539,-24.34360122680664 -36.64506149291992,-24.97133445739746 -36.168235778808594,-25.58958625793457 -35.68010330200195,-26.198135375976562 -35.18087387084961,-26.796762466430664 -34.67076110839844,-27.38524627685547 -34.14997482299805,-27.96337890625 -33.61874008178711,-28.530946731567383 -33.0772819519043,-29.08775520324707 -32.52582550048828,-29.63360023498535 -31.964601516723633,-30.168296813964844 -31.393848419189453,-30.691648483276367 -30.813806533813477,-31.20347785949707 -30.224721908569336,-31.703609466552734 -29.6268367767334,-32.19186782836914 -29.020404815673828,-32.668087005615234 -28.405677795410156,-33.132110595703125 -27.782917022705078,-33.583778381347656 -27.152379989624023,-34.0229377746582 -26.514328002929688,-34.4494514465332 -25.86903190612793,-34.863182067871094 -25.216758728027344,-35.26398849487305 -24.55777931213379,-35.65174865722656 -23.892366409301758,-36.026344299316406 -23.22079849243164,-36.387657165527344 -22.54335594177246,-36.73558044433594 -21.86031150817871,-37.07000732421875 -21.171953201293945,-37.39084243774414 -20.478567123413086,-37.697998046875 -19.780433654785156,-37.99138641357422 -19.077844619750977,-38.27092361450195 -18.37108612060547,-38.53654861450195 -17.66044807434082,-38.78819274902344 -16.946224212646484,-39.02579116821289 -16.22870445251465,-39.249290466308594 -15.50818157196045,-39.458648681640625 -14.784950256347656,-39.6538200378418 -14.059304237365723,-39.83477020263672 -13.331537246704102,-40.0014762878418 -12.601945877075195,-40.153907775878906 -11.870823860168457,-40.292057037353516 -11.138467788696289,-40.41590881347656 -10.405170440673828,-40.52546310424805 -9.67122745513916,-40.620723724365234 -8.936933517456055,-40.70169448852539 -8.202581405639648,-40.76839828491211 -7.4684648513793945,-40.82085418701172 -6.734875202178955,-40.859092712402344 -6.00210428237915,-40.88314437866211 -5.270442962646484,-40.89305114746094 -4.5401787757873535,-40.88886260986328 -3.8115997314453125,-40.870628356933594 -3.084991931915283,-40.83841323852539 -2.360639810562134,-40.792274475097656 -1.6388260126113892,-40.7322883605957 -0.9198311567306519,-40.658531188964844 -0.20393423736095428,-40.57108688354492 0.5085883140563965,-40.47004318237305 1.217462182044983,-40.355491638183594 1.9224152565002441,-40.2275390625 2.623178482055664,-40.08628845214844 3.3194847106933594,-39.931854248046875 4.011070251464844,-39.76435089111328 4.69767427444458,-39.58390426635742 5.379037857055664,-39.39064025878906 6.054907321929932,-39.184696197509766 6.725029468536377,-38.96620559692383 7.389157295227051,-38.735321044921875 8.047045707702637,-38.492183685302734 8.69845199584961,-38.23695373535156 9.343140602111816,-37.969791412353516 9.980876922607422,-37.690853118896484 10.611430168151855,-37.40032196044922 11.234576225280762,-37.098358154296875 11.850091934204102,-36.78514862060547 12.457759857177734,-36.460880279541016 13.057366371154785,-36.125728607177734 13.648704528808594,-35.7798957824707 14.2315673828125,-35.4235725402832 14.805756568908691,-35.05696105957031 15.371077537536621,-34.68027114868164 15.927336692810059,-34.293701171875 16.47435188293457,-33.8974723815918 17.01194190979004,-33.491790771484375 17.539928436279297,-33.07688522338867 18.058141708374023,-32.652976989746094 18.56641960144043,-32.22028732299805 19.064598083496094,-31.779050827026367 19.552522659301758,-31.329500198364258 20.03004264831543,-30.87186622619629 20.49701690673828,-30.406391143798828 20.953304290771484,-29.93331527709961 21.398771286010742,-29.452880859375 21.833290100097656,-28.96533966064453 22.25674057006836,-28.470935821533203 22.66900062561035,-27.969919204711914 23.069963455200195,-27.46255111694336 23.45952606201172,-26.949077606201172 23.837583541870117,-26.429758071899414 24.204044342041016,-25.90485191345215 24.558822631835938,-25.374622344970703 24.90183448791504,-24.83932876586914 25.23300552368164,-24.29923439025879 25.55225944519043,-23.754600524902344 25.859542846679688,-23.205699920654297 26.154788970947266,-22.65279197692871 26.437946319580078,-22.096149444580078 26.708972930908203,-21.536035537719727 26.967824935913086,-20.972721099853516 27.21446990966797,-20.406476974487305 27.44887924194336,-19.837568283081055 27.671030044555664,-19.266265869140625 27.880905151367188,-18.692838668823242 28.078493118286133,-18.117557525634766 28.2637939453125,-17.54068946838379 28.43680763244629,-16.962505340576172 28.597537994384766,-16.383268356323242 28.746004104614258,-15.80324935913086 28.882219314575195,-15.222713470458984 29.006216049194336,-14.641928672790527 29.118019104003906,-14.061156272888184 29.217666625976562,-13.480660438537598 29.305204391479492,-12.900703430175781 29.38067626953125,-12.32154655456543 29.44413948059082,-11.743447303771973 29.495656967163086,-11.166664123535156 29.53528594970703,-10.591450691223145 29.5631046295166,-10.018061637878418 29.579185485839844,-9.446748733520508 29.5836124420166,-8.877760887145996 29.57647132873535,-8.3113431930542 29.557857513427734,-7.747742652893066 29.527864456176758,-7.187199115753174 29.486602783203125,-6.629952430725098 29.434173583984375,-6.076239585876465 29.37069320678711,-5.52629280090332 29.296279907226562,-4.980343818664551 29.2110595703125,-4.438619136810303 29.115158081054688,-3.9013431072235107 29.00870704650879,-3.368736505508423 28.891849517822266,-2.8410165309906006 28.76472282409668,-2.318397045135498 28.627477645874023,-1.8010882139205933 28.48026466369629,-1.2892965078353882 28.3232364654541,-0.7832242250442505 28.156557083129883,-0.2830701172351837 27.980388641357422,0.2109711617231369 27.794902801513672,0.6987091898918152 27.600265502929688,1.1799577474594116 27.39665985107422,1.6545346975326538 27.184263229370117,2.122262477874756 26.9632568359375,2.582968235015869 26.73383140563965,3.036482810974121 26.496177673339844,3.482642650604248 26.250486373901367,3.921288013458252 25.99695587158203,4.352264404296875 25.735790252685547,4.7754225730896 25.467187881469727,5.190616607666016 25.191360473632812,5.597707271575928 24.908510208129883,5.9965596199035645 24.61885643005371,6.3870439529418945 24.322607040405273,6.769034385681152 24.019983291625977,7.1424126625061035 23.71120262145996,7.507063865661621 23.396486282348633,7.862878322601318 23.0760555267334,8.20975399017334 22.750139236450195,8.547590255737305 22.418962478637695,8.87629508972168 22.082752227783203,9.195780754089355 21.741743087768555,9.505965232849121 21.39616584777832,9.806772232055664 21.046249389648438,10.098129272460938 20.692232131958008,10.379972457885742 20.334346771240234,10.652239799499512 19.972829818725586,10.914878845214844 19.607921600341797,11.167839050292969 19.23985481262207,11.411075592041016 18.868871688842773,11.644556045532227 18.495206832885742,11.868242263793945 18.119102478027344,12.082112312316895 17.740795135498047,12.286142349243164 17.36052703857422,12.480318069458008 16.978532791137695,12.664630889892578 16.595054626464844,12.839075088500977 16.2103271484375,13.003652572631836 15.824590682983398,13.158370018005371 15.438081741333008,13.303241729736328 15.051037788391113,13.438283920288086 14.663691520690918,13.563522338867188 14.276278495788574,13.678984642028809 13.889033317565918,13.78470516204834 13.50218677520752,13.880724906921387 13.115968704223633,13.96708869934082 12.730609893798828,14.043846130371094 12.346338272094727,14.11105728149414 11.96337604522705,14.168778419494629 11.581951141357422,14.217080116271973 11.202282905578613,14.256031036376953 10.824591636657715,14.2857084274292 10.449094772338867,14.306194305419922 10.076007843017578,14.317578315734863 9.705543518066406,14.31994915008545 9.337911605834961,14.313403129577637 8.973320007324219,14.29804515838623 8.61197280883789,14.273977279663086 8.254072189331055,14.241312026977539 7.899816513061523,14.200165748596191 7.54940128326416,14.15065860748291 7.203019142150879,14.092913627624512 6.860860824584961,14.027059555053711 6.523108959197998,13.953230857849121 6.189948081970215,13.871563911437988 5.861556053161621,13.782200813293457 5.5381083488464355,13.685287475585938 5.2197747230529785,13.580972671508789 4.906723976135254,13.469408988952637 4.599118232727051,13.350752830505371 4.297117710113525,13.225168228149414 4.0008769035339355,13.092817306518555 3.7105467319488525,12.953866958618164 3.426274538040161,12.808489799499512 3.1482019424438477,12.65685749053955 2.876466989517212,12.499151229858398 2.6112029552459717,12.335550308227539 2.3525390625,12.166236877441406 2.1005990505218506,11.991398811340332 1.8555023670196533,11.811223983764648 1.6173641681671143,11.62590503692627 1.3862941265106201,11.435635566711426 1.1623972654342651,11.240612030029297 0.9457738995552063,11.041031837463379 0.7365189790725708,10.837098121643066 0.5347228646278381,10.629013061523438 0.3404706120491028,10.416980743408203 0.1538422703742981,10.20120906829834 -0.02508731558918953,9.981904983520508 -0.1962483674287796,9.759278297424316 -0.35957640409469604,9.533540725708008 -0.5150120854377747,9.304905891418457 -0.662501335144043,9.073585510253906 -0.8019955158233643,8.83979606628418 -0.9334510564804077,8.603751182556152 -1.0568296909332275,8.365669250488281 -1.172098994255066,8.12576675415039 -1.279231071472168,7.884260177612305 -1.3782039880752563,7.641368865966797 -1.4690009355545044,7.397311210632324 -1.5516105890274048,7.152305603027344 -1.6260268688201904,6.906569480895996 -1.692249059677124,6.660323143005371 -1.7502820491790771,6.413784027099609 -1.800135612487793,6.167169570922852 -1.841825008392334,5.920698165893555 -1.8753713369369507,5.674585342407227 -1.9008002281188965,5.429048538208008 -1.9181432723999023,5.184302806854248 -1.9274365901947021,4.940561771392822 -1.9287223815917969,4.6980390548706055 -1.9220471382141113,4.456946849822998 -1.907463550567627,4.217495918273926 -1.88502836227417,3.9798948764801025 -1.8548043966293335,3.744352340698242 -1.8168587684631348,3.511073350906372 -1.7712643146514893,3.2802622318267822 -1.7180980443954468,3.05212140083313 -1.657442569732666,2.8268508911132812 -1.5893851518630981,2.6046488285064697 -1.514017939567566,2.3857104778289795 -1.4314374923706055,2.170229434967041 -1.3417456150054932,1.9583966732025146 -1.2450482845306396,1.7503998279571533 -1.1414563655853271,1.5464247465133667 -1.0310851335525513,1.346653938293457 -0.9140543937683105,1.1512669324874878 -0.7904881238937378,0.9604406356811523 -0.660514771938324,0.7743481397628784 -0.5242670178413391,0.5931599736213684 -0.3818816542625427,0.4170428514480591 -0.2334994375705719,0.24616029858589172 -0.07926525175571442,0.08067217469215393 0.08067217469215393,-0.07926525175571442 0.24616029858589172,-0.2334994375705719 0.4170428514480591,-0.3818816542625427 0.5931599736213684,-0.5242670178413391 0.7743481397628784,-0.660514771938324 0.9604406356811523,-0.7904881238937378 1.1512669324874878,-0.9140543937683105 1.346653938293457,-1.0310851335525513 1.5464247465133667,-1.1414563655853271 1.7503998279571533,-1.2450482845306396 1.9583966732025146,-1.3417456150054932 2.170229434967041,-1.4314374923706055 2.3857104778289795,-1.514017939567566 2.6046488285064697,-1.5893851518630981 2.8268508911132812,-1.657442569732666 3.05212140083313,-1.7180980443954468 3.2802622318267822,-1.7712643146514893 3.511073350906372,-1.8168587684631348 3.744352340698242,-1.8548043966293335 3.9798948764801025,-1.88502836227417 4.217495918273926,-1.907463550567627 4.456946849822998,-1.9220471382141113 4.6980390548706055,-1.9287223815917969 4.940561771392822,-1.9274365901947021 5.184302806854248,-1.9181432723999023 5.429048538208008,-1.9008002281188965 5.674585342407227,-1.8753713369369507 5.920698165893555,-1.841825008392334 6.167169570922852,-1.800135612487793 6.413784027099609,-1.7502820491790771 6.660323143005371,-1.692249059677124 6.906569480895996,-1.6260268688201904 7.152305603027344,-1.5516105890274048 7.397311210632324,-1.4690009355545044 7.641368865966797,-1.3782039880752563 7.884260177612305,-1.279231071472168 8.12576675415039,-1.172098994255066 8.365669250488281,-1.0568296909332275 8.603751182556152,-0.9334510564804077 8.83979606628418,-0.8019955158233643 9.073585510253906,-0.662501335144043 9.304905891418457,-0.5150120854377747 9.533540725708008,-0.35957640409469604 9.759278297424316,-0.1962483674287796 9.981904983520508,-0.02508731558918953 10.20120906829834,0.1538422703742981 10.416980743408203,0.3404706120491028 10.629013061523438,0.5347228646278381 10.837098121643066,0.7365189790725708 11.041031837463379,0.9457738995552063 11.240612030029297,1.1623972654342651 11.435635566711426,1.3862941265106201 11.62590503692627,1.6173641681671143 11.811223983764648,1.8555023670196533 11.991398811340332,2.1005990505218506 12.166236877441406,2.3525390625 12.335550308227539,2.6112029552459717 12.499151229858398,2.876466989517212 12.65685749053955,3.1482019424438477 12.808489799499512,3.426274538040161 12.953866958618164,3.7105467319488525 13.092817306518555,4.0008769035339355 13.225168228149414,4.297117710113525 13.350752830505371,4.599118232727051 13.469408988952637,4.906723976135254 13.580972671508789,5.2197747230529785 13.685287475585938,5.5381083488464355 13.782200813293457,5.861556053161621 13.871563911437988,6.189948081970215 13.953230857849121,6.523108959197998 14.027059555053711,6.860860824584961 14.092913627624512,7.203019142150879 14.15065860748291,7.54940128326416 14.200165748596191,7.899816513061523 14.241312026977539,8.254072189331055 14.273977279663086,8.61197280883789 14.29804515838623,8.973320007324219 14.313403129577637,9.337911605834961 14.31994915008545,9.705543518066406 14.317578315734863,10.076007843017578 14.306194305419922,10.449094772338867 14.2857084274292,10.824591636657715 14.256031036376953,11.202282905578613 14.217080116271973,11.581951141357422 14.168778419494629,11.96337604522705 14.11105728149414,12.346338272094727 14.043846130371094,12.730609893798828 13.96708869934082,13.115968704223633 13.880724906921387,13.50218677520752 13.78470516204834,13.889033317565918 13.678984642028809,14.276278495788574 13.563522338867188,14.663691520690918 13.438283920288086,15.051037788391113 13.303241729736328,15.438081741333008 13.158370018005371,15.824590682983398 13.003652572631836,16.2103271484375 12.839075088500977,16.595054626464844 12.664630889892578,16.978532791137695 12.480318069458008,17.36052703857422 12.286142349243164,17.740795135498047 12.082112312316895,18.119102478027344 11.868242263793945,18.495206832885742 11.644556045532227,18.868871688842773 11.411075592041016,19.23985481262207 11.167839050292969,19.607921600341797 10.914878845214844,19.972829818725586 10.652239799499512,20.334346771240234 10.379972457885742,20.692232131958008 10.098129272460938,21.046249389648438 9.806772232055664,21.39616584777832 9.505965232849121,21.741743087768555 9.195780754089355,22.082752227783203 8.87629508972168,22.418962478637695 8.547590255737305,22.750139236450195 8.20975399017334,23.0760555267334 7.862878322601318,23.396486282348633 7.507063865661621,23.71120262145996 7.1424126625061035,24.019983291625977 6.769034385681152,24.322607040405273 6.3870439529418945,24.61885643005371 5.9965596199035645,24.908510208129883 5.597707271575928,25.191360473632812 5.190616607666016,25.467187881469727 4.7754225730896,25.735790252685547 4.352264404296875,25.99695587158203 3.921288013458252,26.250486373901367 3.482642650604248,26.496177673339844 3.036482810974121,26.73383140563965 2.582968235015869,26.9632568359375 2.122262477874756,27.184263229370117 1.6545346975326538,27.39665985107422 1.1799577474594116,27.600265502929688 0.6987091898918152,27.794902801513672 0.2109711617231369,27.980388641357422 -0.2830701172351837,28.156557083129883 -0.7832242250442505,28.3232364654541 -1.2892965078353882,28.48026466369629 -1.8010882139205933,28.627477645874023 -2.318397045135498,28.76472282409668 -2.8410165309906006,28.891849517822266 -3.368736505508423,29.00870704650879 -3.9013431072235107,29.115158081054688 -4.438619136810303,29.2110595703125 -4.980343818664551,29.296279907226562 -5.52629280090332,29.37069320678711 -6.076239585876465,29.434173583984375 -6.629952430725098,29.486602783203125 -7.187199115753174,29.527864456176758 -7.747742652893066,29.557857513427734 -8.3113431930542,29.57647132873535 -8.877760887145996,29.5836124420166 -9.446748733520508,29.579185485839844 -10.018061637878418,29.5631046295166 -10.591450691223145,29.53528594970703 -11.166664123535156,29.495656967163086 -11.743447303771973,29.44413948059082 -12.32154655456543,29.38067626953125 -12.900703430175781,29.305204391479492 -13.480660438537598,29.217666625976562 -14.061156272888184,29.118019104003906 -14.641928672790527,29.006216049194336 -15.222713470458984,28.882219314575195 -15.80324935913086,28.746004104614258 -16.383268356323242,28.597537994384766 -16.962505340576172,28.43680763244629 -17.54068946838379,28.2637939453125 -18.117557525634766,28.078493118286133 -18.692838668823242,27.880905151367188 -19.266265869140625,27.671030044555664 -19.837568283081055,27.44887924194336 -20.406476974487305,27.21446990966797 -20.972721099853516,26.967824935913086 -21.536035537719727,26.708972930908203 -22.096149444580078,26.437946319580078 -22.65279197692871,26.154788970947266 -23.205699920654297,25.859542846679688 -23.754600524902344,25.55225944519043 -24.29923439025879,25.23300552368164 -24.83932876586914,24.90183448791504 -25.374622344970703,24.558822631835938 -25.90485191345215,24.204044342041016 -26.429758071899414,23.837583541870117 -26.949077606201172,23.45952606201172 -27.46255111694336,23.069963455200195 -27.969919204711914,22.66900062561035 -28.470935821533203,22.25674057006836 -28.96533966064453,21.833290100097656 -29.452880859375,21.398771286010742 -29.93331527709961,20.953304290771484 -30.406391143798828,20.49701690673828 -30.87186622619629,20.03004264831543 -31.329500198364258,19.552522659301758 -31.779050827026367,19.064598083496094 -32.22028732299805,18.56641960144043 -32.652976989746094,18.058141708374023 -33.07688522338867,17.539928436279297 -33.491790771484375,17.01194190979004 -33.8974723815918,16.47435188293457 -34.293701171875,15.927336692810059 -34.68027114868164,15.371077537536621 -35.05696105957031,14.805756568908691 -35.4235725402832,14.2315673828125 -35.7798957824707,13.648704528808594 -36.125728607177734,13.057366371154785 -36.460880279541016,12.457759857177734 -36.78514862060547,11.850091934204102 -37.098358154296875,11.234576225280762 -37.40032196044922,10.611430168151855 -37.690853118896484,9.980876922607422 -37.969791412353516,9.343140602111816 -38.23695373535156,8.69845199584961 -38.492183685302734,8.047045707702637 -38.735321044921875,7.389157295227051 -38.96620559692383,6.725029468536377 -39.184696197509766,6.054907321929932 -39.39064025878906,5.379037857055664 -39.58390426635742,4.69767427444458 -39.76435089111328,4.011070251464844 -39.931854248046875,3.3194847106933594 -40.08628845214844,2.623178482055664 -40.2275390625,1.9224152565002441 -40.355491638183594,1.217462182044983 -40.47004318237305,0.5085883140563965 -40.57108688354492,-0.20393423736095428 -40.658531188964844,-0.9198311567306519 -40.7322883605957,-1.6388260126113892 -40.792274475097656,-2.360639810562134 -40.83841323852539,-3.084991931915283 -40.870628356933594,-3.8115997314453125 -40.88886260986328,-4.5401787757873535 -40.89305114746094,-5.270442962646484 -40.88314437866211,-6.00210428237915 -40.859092712402344,-6.734875202178955 -40.82085418701172,-7.4684648513793945 -40.76839828491211,-8.202581405639648 -40.70169448852539,-8.936933517456055 -40.620723724365234,-9.67122745513916 -40.52546310424805,-10.405170440673828 -40.41590881347656,-11.138467788696289 -40.292057037353516,-11.870823860168457 -40.153907775878906,-12.601945877075195 -40.0014762878418,-13.331537246704102 -39.83477020263672,-14.059304237365723 -39.6538200378418,-14.784950256347656 -39.458648681640625,-15.50818157196045 -39.249290466308594,-16.22870445251465 -39.02579116821289,-16.946224212646484 -38.78819274902344,-17.66044807434082 -38.53654861450195,-18.37108612060547 -38.27092361450195,-19.077844619750977 -37.99138641357422,-19.780433654785156 -37.697998046875,-20.478567123413086 -37.39084243774414,-21.171953201293945 -37.07000732421875,-21.86031150817871 -36.73558044433594,-22.54335594177246 -36.387657165527344,-23.22079849243164 -36.026344299316406,-23.892366409301758 -35.65174865722656,-24.55777931213379 -35.26398849487305,-25.216758728027344 -34.863182067871094,-25.86903190612793 -34.4494514465332,-26.514328002929688 -34.0229377746582,-27.152379989624023 -33.583778381347656,-27.782917022705078 -33.132110595703125,-28.405677795410156 -32.668087005615234,-29.020404815673828 -32.19186782836914,-29.6268367767334 -31.703609466552734,-30.224721908569336 -31.20347785949707,-30.813806533813477 -30.691648483276367,-31.393848419189453 -30.168296813964844,-31.964601516723633 -29.63360023498535,-32.52582550048828 -29.08775520324707,-33.0772819519043 -28.530946731567383,-33.61874008178711 -27.96337890625,-34.14997482299805 -27.38524627685547,-34.67076110839844 -26.796762466430664,-35.18087387084961 -26.198135375976562,-35.68010330200195 -25.58958625793457,-36.168235778808594 -24.97133445739746,-36.64506149291992 -24.34360122680664,-37.11038589477539 -23.706621170043945,-37.564002990722656 -23.060626983642578,-38.00572967529297 -22.405858993530273,-38.43537521362305 -21.742555618286133,-38.852752685546875 -21.070964813232422,-39.257686614990234 -20.39133644104004,-39.65000915527344 -19.70392417907715,-40.02954864501953 -19.00898551940918,-40.396148681640625 -18.306779861450195,-40.74964904785156 -17.59757423400879,-41.089900970458984 -16.88163185119629,-41.4167594909668 -16.159225463867188,-41.730079650878906 -15.430627822875977,-42.02973937988281 -14.696114540100098,-42.31560134887695 -13.955964088439941,-42.587547302246094 -13.210458755493164,-42.845458984375 -12.459881782531738,-43.089229583740234 -11.704519271850586,-43.31875228881836 -10.944660186767578,-43.53392791748047 -10.180594444274902,-43.73466873168945 -9.412614822387695,-43.92088317871094 -8.64101505279541,-44.092498779296875 -7.866089344024658,-44.24943542480469 -7.088138103485107,-44.39162826538086 -6.307458400726318,-44.519020080566406 -5.524350643157959,-44.631553649902344 -4.7391157150268555,-44.72917938232422 -3.9520552158355713,-44.81185531616211 -3.1634726524353027,-44.87955093383789 -2.373671770095825,-44.932228088378906 -1.5829559564590454,-44.969871520996094 -0.7916305065155029,-44.992469787597656 2.207149664857494e-14,-45 0.7916305065155029,-44.992469787597656 1.5829559564590454,-44.969871520996094 2.373671770095825,-44.932228088378906 3.1634726524353027,-44.87955093383789 3.9520552158355713,-44.81185531616211 4.7391157150268555,-44.72917938232422 5.524350643157959,-44.631553649902344 6.307458400726318,-44.519020080566406 7.088138103485107,-44.39162826538086 7.866089344024658,-44.24943542480469 8.64101505279541,-44.092498779296875 9.412614822387695,-43.92088317871094 10.180594444274902,-43.73466873168945 10.944660186767578,-43.53392791748047 11.704519271850586,-43.31875228881836 12.459881782531738,-43.089229583740234 13.210458755493164,-42.845458984375 13.955964088439941,-42.587547302246094 14.696114540100098,-42.31560134887695 15.430627822875977,-42.02973937988281 16.159225463867188,-41.730079650878906 16.88163185119629,-41.4167594909668 17.59757423400879,-41.089900970458984 18.306779861450195,-40.74964904785156 19.00898551940918,-40.396148681640625 19.70392417907715,-40.02954864501953 20.39133644104004,-39.65000915527344 21.070964813232422,-39.257686614990234 21.742555618286133,-38.852752685546875 22.405858993530273,-38.43537521362305 23.060626983642578,-38.00572967529297 23.706621170043945,-37.564002990722656 24.34360122680664,-37.11038589477539 24.97133445739746,-36.64506149291992 25.58958625793457,-36.168235778808594 26.198135375976562,-35.68010330200195 26.796762466430664,-35.18087387084961 27.38524627685547,-34.67076110839844 27.96337890625,-34.14997482299805 28.530946731567383,-33.61874008178711 29.08775520324707,-33.0772819519043 29.63360023498535,-32.52582550048828 30.168296813964844,-31.964601516723633 30.691648483276367,-31.393848419189453 31.20347785949707,-30.813806533813477 31.703609466552734,-30.224721908569336 32.19186782836914,-29.6268367767334 32.668087005615234,-29.020404815673828 33.132110595703125,-28.405677795410156 33.583778381347656,-27.782917022705078 34.0229377746582,-27.152379989624023 34.4494514465332,-26.514328002929688 34.863182067871094,-25.86903190612793 35.26398849487305,-25.216758728027344 35.65174865722656,-24.55777931213379 36.026344299316406,-23.892366409301758 36.387657165527344,-23.22079849243164 36.73558044433594,-22.54335594177246 37.07000732421875,-21.86031150817871 37.39084243774414,-21.171953201293945 37.697998046875,-20.478567123413086 37.99138641357422,-19.780433654785156 38.27092361450195,-19.077844619750977 38.53654861450195,-18.37108612060547 38.78819274902344,-17.66044807434082 39.02579116821289,-16.946224212646484 39.249290466308594,-16.22870445251465 39.458648681640625,-15.50818157196045 39.6538200378418,-14.784950256347656 39.83477020263672,-14.059304237365723 40.0014762878418,-13.331537246704102 40.153907775878906,-12.601945877075195 40.292057037353516,-11.870823860168457 40.41590881347656,-11.138467788696289 40.52546310424805,-10.405170440673828 40.620723724365234,-9.67122745513916 40.70169448852539,-8.936933517456055 40.76839828491211,-8.202581405639648 40.82085418701172,-7.4684648513793945 40.859092712402344,-6.734875202178955 40.88314437866211,-6.00210428237915 40.89305114746094,-5.270442962646484 40.88886260986328,-4.5401787757873535 40.870628356933594,-3.8115997314453125 40.83841323852539,-3.084991931915283 40.792274475097656,-2.360639810562134 40.7322883605957,-1.6388260126113892 40.658531188964844,-0.9198311567306519 40.57108688354492,-0.20393423736095428 40.47004318237305,0.5085883140563965 40.355491638183594,1.217462182044983 40.2275390625,1.9224152565002441 40.08628845214844,2.623178482055664 39.931854248046875,3.3194847106933594 39.76435089111328,4.011070251464844 39.58390426635742,4.69767427444458 39.39064025878906,5.379037857055664 39.184696197509766,6.054907321929932 38.96620559692383,6.725029468536377 38.735321044921875,7.389157295227051 38.492183685302734,8.047045707702637 38.23695373535156,8.69845199584961 37.969791412353516,9.343140602111816 37.690853118896484,9.980876922607422 37.40032196044922,10.611430168151855 37.098358154296875,11.234576225280762 36.78514862060547,11.850091934204102 36.460880279541016,12.457759857177734 36.125728607177734,13.057366371154785 35.7798957824707,13.648704528808594 35.4235725402832,14.2315673828125 35.05696105957031,14.805756568908691 34.68027114868164,15.371077537536621 34.293701171875,15.927336692810059 33.8974723815918,16.47435188293457 33.491790771484375,17.01194190979004 33.07688522338867,17.539928436279297 32.652976989746094,18.058141708374023 32.22028732299805,18.56641960144043 31.779050827026367,19.064598083496094 31.329500198364258,19.552522659301758 30.87186622619629,20.03004264831543 30.406391143798828,20.49701690673828 29.93331527709961,20.953304290771484 29.452880859375,21.398771286010742 28.96533966064453,21.833290100097656 28.470935821533203,22.25674057006836 27.969919204711914,22.66900062561035 27.46255111694336,23.069963455200195 26.949077606201172,23.45952606201172 26.429758071899414,23.837583541870117 25.90485191345215,24.204044342041016 25.374622344970703,24.558822631835938 24.83932876586914,24.90183448791504 24.29923439025879,25.23300552368164 23.754600524902344,25.55225944519043 23.205699920654297,25.859542846679688 22.65279197692871,26.154788970947266 22.096149444580078,26.437946319580078 21.536035537719727,26.708972930908203 20.972721099853516,26.967824935913086 20.406476974487305,27.21446990966797 19.837568283081055,27.44887924194336 19.266265869140625,27.671030044555664 18.692838668823242,27.880905151367188 18.117557525634766,28.078493118286133 17.54068946838379,28.2637939453125 16.962505340576172,28.43680763244629 16.383268356323242,28.597537994384766 15.80324935913086,28.746004104614258 15.222713470458984,28.882219314575195 14.641928672790527,29.006216049194336 14.061156272888184,29.118019104003906 13.480660438537598,29.217666625976562 12.900703430175781,29.305204391479492 12.32154655456543,29.38067626953125 11.743447303771973,29.44413948059082 11.166664123535156,29.495656967163086 10.591450691223145,29.53528594970703 10.018061637878418,29.5631046295166 9.446748733520508,29.579185485839844 8.877760887145996,29.5836124420166 8.3113431930542,29.57647132873535 7.747742652893066,29.557857513427734 7.187199115753174,29.527864456176758 6.629952430725098,29.486602783203125 6.076239585876465,29.434173583984375 5.52629280090332,29.37069320678711 4.980343818664551,29.296279907226562 4.438619136810303,29.2110595703125 3.9013431072235107,29.115158081054688 3.368736505508423,29.00870704650879 2.8410165309906006,28.891849517822266 2.318397045135498,28.76472282409668 1.8010882139205933,28.627477645874023 1.2892965078353882,28.48026466369629 0.7832242250442505,28.3232364654541 0.2830701172351837,28.156557083129883 -0.2109711617231369,27.980388641357422 -0.6987091898918152,27.794902801513672 -1.1799577474594116,27.600265502929688 -1.6545346975326538,27.39665985107422 -2.122262477874756,27.184263229370117 -2.582968235015869,26.9632568359375 -3.036482810974121,26.73383140563965 -3.482642650604248,26.496177673339844 -3.921288013458252,26.250486373901367 -4.352264404296875,25.99695587158203 -4.7754225730896,25.735790252685547 -5.190616607666016,25.467187881469727 -5.597707271575928,25.191360473632812 -5.9965596199035645,24.908510208129883 -6.3870439529418945,24.61885643005371 -6.769034385681152,24.322607040405273 -7.1424126625061035,24.019983291625977 -7.507063865661621,23.71120262145996 -7.862878322601318,23.396486282348633 -8.20975399017334,23.0760555267334 -8.547590255737305,22.750139236450195 -8.87629508972168,22.418962478637695 -9.195780754089355,22.082752227783203 -9.505965232849121,21.741743087768555 -9.806772232055664,21.39616584777832 -10.098129272460938,21.046249389648438 -10.379972457885742,20.692232131958008 -10.652239799499512,20.334346771240234 -10.914878845214844,19.972829818725586 -11.167839050292969,19.607921600341797 -11.411075592041016,19.23985481262207 -11.644556045532227,18.868871688842773 -11.868242263793945,18.495206832885742 -12.082112312316895,18.119102478027344 -12.286142349243164,17.740795135498047 -12.480318069458008,17.36052703857422 -12.664630889892578,16.978532791137695 -12.839075088500977,16.595054626464844 -13.003652572631836,16.2103271484375 -13.158370018005371,15.824590682983398 -13.303241729736328,15.438081741333008 -13.438283920288086,15.051037788391113 -13.563522338867188,14.663691520690918 -13.678984642028809,14.276278495788574 -13.78470516204834,13.889033317565918 -13.880724906921387,13.50218677520752 -13.96708869934082,13.115968704223633 -14.043846130371094,12.730609893798828 -14.11105728149414,12.346338272094727 -14.168778419494629,11.96337604522705 -14.217080116271973,11.581951141357422 -14.256031036376953,11.202282905578613 -14.2857084274292,10.824591636657715 -14.306194305419922,10.449094772338867 -14.317578315734863,10.076007843017578 -14.31994915008545,9.705543518066406 -14.313403129577637,9.337911605834961 -14.29804515838623,8.973320007324219 -14.273977279663086,8.61197280883789 -14.241312026977539,8.254072189331055 -14.200165748596191,7.899816513061523 -14.15065860748291,7.54940128326416 -14.092913627624512,7.203019142150879 -14.027059555053711,6.860860824584961 -13.953230857849121,6.523108959197998 -13.871563911437988,6.189948081970215 -13.782200813293457,5.861556053161621 -13.685287475585938,5.5381083488464355 -13.580972671508789,5.2197747230529785 -13.469408988952637,4.906723976135254 -13.350752830505371,4.599118232727051 -13.225168228149414,4.297117710113525 -13.092817306518555,4.0008769035339355 -12.953866958618164,3.7105467319488525 -12.808489799499512,3.426274538040161 -12.65685749053955,3.1482019424438477 -12.499151229858398,2.876466989517212 -12.335550308227539,2.6112029552459717 -12.166236877441406,2.3525390625 -11.991398811340332,2.1005990505218506 -11.811223983764648,1.8555023670196533 -11.62590503692627,1.6173641681671143 -11.435635566711426,1.3862941265106201 -11.240612030029297,1.1623972654342651 -11.041031837463379,0.9457738995552063 -10.837098121643066,0.7365189790725708 -10.629013061523438,0.5347228646278381 -10.416980743408203,0.3404706120491028 -10.20120906829834,0.1538422703742981 -9.981904983520508,-0.02508731558918953 -9.759278297424316,-0.1962483674287796 -9.533540725708008,-0.35957640409469604 -9.304905891418457,-0.5150120854377747 -9.073585510253906,-0.662501335144043 -8.83979606628418,-0.8019955158233643 -8.603751182556152,-0.9334510564804077 -8.365669250488281,-1.0568296909332275 -8.12576675415039,-1.172098994255066 -7.884260177612305,-1.279231071472168 -7.641368865966797,-1.3782039880752563 -7.397311210632324,-1.4690009355545044 -7.152305603027344,-1.5516105890274048 -6.906569480895996,-1.6260268688201904 -6.660323143005371,-1.692249059677124 -6.413784027099609,-1.7502820491790771 -6.167169570922852,-1.800135612487793 -5.920698165893555,-1.841825008392334 -5.674585342407227,-1.8753713369369507 -5.429048538208008,-1.9008002281188965 -5.184302806854248,-1.9181432723999023 -4.940561771392822,-1.9274365901947021 -4.6980390548706055,-1.9287223815917969 -4.456946849822998,-1.9220471382141113 -4.217495918273926,-1.907463550567627 -3.9798948764801025,-1.88502836227417 -3.744352340698242,-1.8548043966293335 -3.511073350906372,-1.8168587684631348 -3.2802622318267822,-1.7712643146514893 -3.05212140083313,-1.7180980443954468 -2.8268508911132812,-1.657442569732666 -2.6046488285064697,-1.5893851518630981 -2.3857104778289795,-1.514017939567566 -2.170229434967041,-1.4314374923706055 -1.9583966732025146,-1.3417456150054932 -1.7503998279571533,-1.2450482845306396 -1.5464247465133667,-1.1414563655853271 -1.346653938293457,-1.0310851335525513 -1.1512669324874878,-0.9140543937683105 -0.9604406356811523,-0.7904881238937378 -0.7743481397628784,-0.660514771938324 -0.5931599736213684,-0.5242670178413391 -0.4170428514480591,-0.3818816542625427 -0.24616029858589172,-0.2334994375705719 -0.08067217469215393,-0.07926525175571442 0.07926525175571442,0.08067217469215393 0.2334994375705719,0.24616029858589172 0.3818816542625427,0.4170428514480591 0.5242670178413391,0.5931599736213684 0.660514771938324,0.7743481397628784 0.7904881238937378,0.9604406356811523 0.9140543937683105,1.1512669324874878 1.0310851335525513,1.346653938293457 1.1414563655853271,1.5464247465133667 1.2450482845306396,1.7503998279571533 1.3417456150054932,1.9583966732025146 1.4314374923706055,2.170229434967041 1.514017939567566,2.3857104778289795 1.5893851518630981,2.6046488285064697 1.657442569732666,2.8268508911132812 1.7180980443954468,3.05212140083313 1.7712643146514893,3.2802622318267822 1.8168587684631348,3.511073350906372 1.8548043966293335,3.744352340698242 1.88502836227417,3.9798948764801025 1.907463550567627,4.217495918273926 1.9220471382141113,4.456946849822998 1.9287223815917969,4.6980390548706055 1.9274365901947021,4.940561771392822 1.9181432723999023,5.184302806854248 1.9008002281188965,5.429048538208008 1.8753713369369507,5.674585342407227 1.841825008392334,5.920698165893555 1.800135612487793,6.167169570922852 1.7502820491790771,6.413784027099609 1.692249059677124,6.660323143005371 1.6260268688201904,6.906569480895996 1.5516105890274048,7.152305603027344 1.4690009355545044,7.397311210632324 1.3782039880752563,7.641368865966797 1.279231071472168,7.884260177612305 1.172098994255066,8.12576675415039 1.0568296909332275,8.365669250488281 0.9334510564804077,8.603751182556152 0.8019955158233643,8.83979606628418 0.662501335144043,9.073585510253906 0.5150120854377747,9.304905891418457 0.35957640409469604,9.533540725708008 0.1962483674287796,9.759278297424316 0.02508731558918953,9.981904983520508 -0.1538422703742981,10.20120906829834 -0.3404706120491028,10.416980743408203 -0.5347228646278381,10.629013061523438 -0.7365189790725708,10.837098121643066 -0.9457738995552063,11.041031837463379 -1.1623972654342651,11.240612030029297 -1.3862941265106201,11.435635566711426 -1.6173641681671143,11.62590503692627 -1.8555023670196533,11.811223983764648 -2.1005990505218506,11.991398811340332 -2.3525390625,12.166236877441406 -2.6112029552459717,12.335550308227539 -2.876466989517212,12.499151229858398 -3.1482019424438477,12.65685749053955 -3.426274538040161,12.808489799499512 -3.7105467319488525,12.953866958618164 -4.0008769035339355,13.092817306518555 -4.297117710113525,13.225168228149414 -4.599118232727051,13.350752830505371 -4.906723976135254,13.469408988952637 -5.2197747230529785,13.580972671508789 -5.5381083488464355,13.685287475585938 -5.861556053161621,13.782200813293457 -6.189948081970215,13.871563911437988 -6.523108959197998,13.953230857849121 -6.860860824584961,14.027059555053711 -7.203019142150879,14.092913627624512 -7.54940128326416,14.15065860748291 -7.899816513061523,14.200165748596191 -8.254072189331055,14.241312026977539 -8.61197280883789,14.273977279663086 -8.973320007324219,14.29804515838623 -9.337911605834961,14.313403129577637 -9.705543518066406,14.31994915008545 -10.076007843017578,14.317578315734863 -10.449094772338867,14.306194305419922 -10.824591636657715,14.2857084274292 -11.202282905578613,14.256031036376953 -11.581951141357422,14.217080116271973 -11.96337604522705,14.168778419494629 -12.346338272094727,14.11105728149414 -12.730609893798828,14.043846130371094 -13.115968704223633,13.96708869934082 -13.50218677520752,13.880724906921387 -13.889033317565918,13.78470516204834 -14.276278495788574,13.678984642028809 -14.663691520690918,13.563522338867188 -15.051037788391113,13.438283920288086 -15.438081741333008,13.303241729736328 -15.824590682983398,13.158370018005371 -16.2103271484375,13.003652572631836 -16.595054626464844,12.839075088500977 -16.978532791137695,12.664630889892578 -17.36052703857422,12.480318069458008 -17.740795135498047,12.286142349243164 -18.119102478027344,12.082112312316895 -18.495206832885742,11.868242263793945 -18.868871688842773,11.644556045532227 -19.23985481262207,11.411075592041016 -19.607921600341797,11.167839050292969 -19.972829818725586,10.914878845214844 -20.334346771240234,10.652239799499512 -20.692232131958008,10.379972457885742 -21.046249389648438,10.098129272460938 -21.39616584777832,9.806772232055664 -21.741743087768555,9.505965232849121 -22.082752227783203,9.195780754089355 -22.418962478637695,8.87629508972168 -22.750139236450195,8.547590255737305 -23.0760555267334,8.20975399017334 -23.396486282348633,7.862878322601318 -23.71120262145996,7.507063865661621 -24.019983291625977,7.1424126625061035 -24.322607040405273,6.769034385681152 -24.61885643005371,6.3870439529418945 -24.908510208129883,5.9965596199035645 -25.191360473632812,5.597707271575928 -25.467187881469727,5.190616607666016 -25.735790252685547,4.7754225730896 -25.99695587158203,4.352264404296875 -26.250486373901367,3.921288013458252 -26.496177673339844,3.482642650604248 -26.73383140563965,3.036482810974121 -26.9632568359375,2.582968235015869 -27.184263229370117,2.122262477874756 -27.39665985107422,1.6545346975326538 -27.600265502929688,1.1799577474594116 -27.794902801513672,0.6987091898918152 -27.980388641357422,0.2109711617231369 -28.156557083129883,-0.2830701172351837 -28.3232364654541,-0.7832242250442505 -28.48026466369629,-1.2892965078353882 -28.627477645874023,-1.8010882139205933 -28.76472282409668,-2.318397045135498 -28.891849517822266,-2.8410165309906006 -29.00870704650879,-3.368736505508423 -29.115158081054688,-3.9013431072235107 -29.2110595703125,-4.438619136810303 -29.296279907226562,-4.980343818664551 -29.37069320678711,-5.52629280090332 -29.434173583984375,-6.076239585876465 -29.486602783203125,-6.629952430725098 -29.527864456176758,-7.187199115753174 -29.557857513427734,-7.747742652893066 -29.57647132873535,-8.3113431930542 -29.5836124420166,-8.877760887145996 -29.579185485839844,-9.446748733520508 -29.5631046295166,-10.018061637878418 -29.53528594970703,-10.591450691223145 -29.495656967163086,-11.166664123535156 -29.44413948059082,-11.743447303771973 -29.38067626953125,-12.32154655456543 -29.305204391479492,-12.900703430175781 -29.217666625976562,-13.480660438537598 -29.118019104003906,-14.061156272888184 -29.006216049194336,-14.641928672790527 -28.882219314575195,-15.222713470458984 -28.746004104614258,-15.80324935913086 -28.597537994384766,-16.383268356323242 -28.43680763244629,-16.962505340576172 -28.2637939453125,-17.54068946838379 -28.078493118286133,-18.117557525634766 -27.880905151367188,-18.692838668823242 -27.671030044555664,-19.266265869140625 -27.44887924194336,-19.837568283081055 -27.21446990966797,-20.406476974487305 -26.967824935913086,-20.972721099853516 -26.708972930908203,-21.536035537719727 -26.437946319580078,-22.096149444580078 -26.154788970947266,-22.65279197692871 -25.859542846679688,-23.205699920654297 -25.55225944519043,-23.754600524902344 -25.23300552368164,-24.29923439025879 -24.90183448791504,-24.83932876586914 -24.558822631835938,-25.374622344970703 -24.204044342041016,-25.90485191345215 -23.837583541870117,-26.429758071899414 -23.45952606201172,-26.949077606201172 -23.069963455200195,-27.46255111694336 -22.66900062561035,-27.969919204711914 -22.25674057006836,-28.470935821533203 -21.833290100097656,-28.96533966064453 -21.398771286010742,-29.452880859375 -20.953304290771484,-29.93331527709961 -20.49701690673828,-30.406391143798828 -20.03004264831543,-30.87186622619629 -19.552522659301758,-31.329500198364258 -19.064598083496094,-31.779050827026367 -18.56641960144043,-32.22028732299805 -18.058141708374023,-32.652976989746094 -17.539928436279297,-33.07688522338867 -17.01194190979004,-33.491790771484375 -16.47435188293457,-33.8974723815918 -15.927336692810059,-34.293701171875 -15.371077537536621,-34.68027114868164 -14.805756568908691,-35.05696105957031 -14.2315673828125,-35.4235725402832 -13.648704528808594,-35.7798957824707 -13.057366371154785,-36.125728607177734 -12.457759857177734,-36.460880279541016 -11.850091934204102,-36.78514862060547 -11.234576225280762,-37.098358154296875 -10.611430168151855,-37.40032196044922 -9.980876922607422,-37.690853118896484 -9.343140602111816,-37.969791412353516 -8.69845199584961,-38.23695373535156 -8.047045707702637,-38.492183685302734 -7.389157295227051,-38.735321044921875 -6.725029468536377,-38.96620559692383 -6.054907321929932,-39.184696197509766 -5.379037857055664,-39.39064025878906 -4.69767427444458,-39.58390426635742 -4.011070251464844,-39.76435089111328 -3.3194847106933594,-39.931854248046875 -2.623178482055664,-40.08628845214844 -1.9224152565002441,-40.2275390625 -1.217462182044983,-40.355491638183594 -0.5085883140563965,-40.47004318237305 0.20393423736095428,-40.57108688354492 0.9198311567306519,-40.658531188964844 1.6388260126113892,-40.7322883605957 2.360639810562134,-40.792274475097656 3.084991931915283,-40.83841323852539 3.8115997314453125,-40.870628356933594 4.5401787757873535,-40.88886260986328 5.270442962646484,-40.89305114746094 6.00210428237915,-40.88314437866211 6.734875202178955,-40.859092712402344 7.4684648513793945,-40.82085418701172 8.202581405639648,-40.76839828491211 8.936933517456055,-40.70169448852539 9.67122745513916,-40.620723724365234 10.405170440673828,-40.52546310424805 11.138467788696289,-40.41590881347656 11.870823860168457,-40.292057037353516 12.601945877075195,-40.153907775878906 13.331537246704102,-40.0014762878418 14.059304237365723,-39.83477020263672 14.784950256347656,-39.6538200378418 15.50818157196045,-39.458648681640625 16.22870445251465,-39.249290466308594 16.946224212646484,-39.02579116821289 17.66044807434082,-38.78819274902344 18.37108612060547,-38.53654861450195 19.077844619750977,-38.27092361450195 19.780433654785156,-37.99138641357422 20.478567123413086,-37.697998046875 21.171953201293945,-37.39084243774414 21.86031150817871,-37.07000732421875 22.54335594177246,-36.73558044433594 23.22079849243164,-36.387657165527344 23.892366409301758,-36.026344299316406 24.55777931213379,-35.65174865722656 25.216758728027344,-35.26398849487305 25.86903190612793,-34.863182067871094 26.514328002929688,-34.4494514465332 27.152379989624023,-34.0229377746582 27.782917022705078,-33.583778381347656 28.405677795410156,-33.132110595703125 29.020404815673828,-32.668087005615234 29.6268367767334,-32.19186782836914 30.224721908569336,-31.703609466552734 30.813806533813477,-31.20347785949707 31.393848419189453,-30.691648483276367 31.964601516723633,-30.168296813964844 32.52582550048828,-29.63360023498535 33.0772819519043,-29.08775520324707 33.61874008178711,-28.530946731567383 34.14997482299805,-27.96337890625 34.67076110839844,-27.38524627685547 35.18087387084961,-26.796762466430664 35.68010330200195,-26.198135375976562 36.168235778808594,-25.58958625793457 36.64506149291992,-24.97133445739746 37.11038589477539,-24.34360122680664 37.564002990722656,-23.706621170043945 38.00572967529297,-23.060626983642578 38.43537521362305,-22.405858993530273 38.852752685546875,-21.742555618286133 39.257686614990234,-21.070964813232422 39.65000915527344,-20.39133644104004 40.02954864501953,-19.70392417907715 40.396148681640625,-19.00898551940918 40.74964904785156,-18.306779861450195 41.089900970458984,-17.59757423400879 41.4167594909668,-16.88163185119629 41.730079650878906,-16.159225463867188 42.02973937988281,-15.430627822875977 42.31560134887695,-14.696114540100098 42.587547302246094,-13.955964088439941 42.845458984375,-13.210458755493164 43.089229583740234,-12.459881782531738 43.31875228881836,-11.704519271850586 43.53392791748047,-10.944660186767578 43.73466873168945,-10.180594444274902 43.92088317871094,-9.412614822387695 44.092498779296875,-8.64101505279541 44.24943542480469,-7.866089344024658 44.39162826538086,-7.088138103485107 44.519020080566406,-6.307458400726318 44.631553649902344,-5.524350643157959 44.72917938232422,-4.7391157150268555 44.81185531616211,-3.9520552158355713 44.87955093383789,-3.1634726524353027 44.932228088378906,-2.373671770095825 44.969871520996094,-1.5829559564590454 44.992469787597656,-0.7916305065155029 45,-7.715274816591511e-14"
  />
</svg>
