<?xml version="1.0" encoding="UTF-8"?>
<!DOCTYPE svg>
<svg
  data-animation-duration="3s"
  viewBox="-50 -50 100 100"
>
  <title>
    ANIMATION 31 - VARIATION L
  </title>
  <desc>
    <p>See this animation in action here: <a href="https://andrew.wang-hoyer.com/experiments/svg-animations/31/l" target="_blank" rel="noopener">https://andrew.wang-hoyer.com/experiments/svg-animations/31/l</a>.</p>
    <p>Generator source code : <a href="https://github.com/ndrwhr/svg-animation-src/tree/master/site/_svgs/generators/animations/31/l.js" target="_blank" rel="noopener">https://github.com/ndrwhr/svg-animation-src/tree/master/site/_svgs/generators/animations/31/l.js</a>.</p>
    <p>All generated files and source code are released under the following license:</p>
    <p>MIT License</p>
    <p>Copyright (c) 2018-present Andrew Hoyer</p>
    <p>Permission is hereby granted, free of charge, to any person obtaining a copy of this software and associated documentation files (the &quot;Software&quot;), to deal in the Software without restriction, including without limitation the rights to use, copy, modify, merge, publish, distribute, sublicense, and/or sell copies of the Software, and to permit persons to whom the Software is furnished to do so, subject to the following conditions:</p>
    <p>The above copyright notice and this permission notice shall be included in all copies or substantial portions of the Software.</p>
    <p>THE SOFTWARE IS PROVIDED &quot;AS IS&quot;, WITHOUT WARRANTY OF ANY KIND, EXPRESS OR IMPLIED, INCLUDING BUT NOT LIMITED TO THE WARRANTIES OF MERCHANTABILITY, FITNESS FOR A PARTICULAR PURPOSE AND NONINFRINGEMENT. IN NO EVENT SHALL THE AUTHORS OR COPYRIGHT HOLDERS BE LIABLE FOR ANY CLAIM, DAMAGES OR OTHER LIABILITY, WHETHER IN AN ACTION OF CONTRACT, TORT OR OTHERWISE, ARISING FROM, OUT OF OR IN CONNECTION WITH THE SOFTWARE OR THE USE OR OTHER DEALINGS IN THE SOFTWARE.</p>
  </desc>
  <style>
    /* <![CDATA[ */
      .svg-31-l-polyline {
        stroke: black;
        stroke-width: .1;
        fill: none;
        stroke-dasharray: 4%, 4%, 1%, 1%;
        animation: svg-31-l-main-anim 3s linear infinite;
      }
      
      @keyframes svg-31-l-main-anim {
        from {
          stroke-dashoffset: 0;
        }
      
        to {
          stroke-dashoffset: 10%;
        }
      }
      
    /* ]]> */
  </style>
  <polyline
    class="svg-31-l-polyline"
    points="45,0 44.992469787597656,0.22615870833396912 44.969871520996094,0.4521017074584961 44.932228088378906,0.6776134371757507 44.87955093383789,0.9024785161018372 44.81185531616211,1.1264818906784058 44.72917938232422,1.3494093418121338 44.631553649902344,1.5710469484329224 44.519020080566406,1.7911816835403442 44.39162826538086,2.00960111618042 44.24943542480469,2.2260942459106445 44.092498779296875,2.4404513835906982 43.92088317871094,2.652462959289551 43.73466873168945,2.861922025680542 43.53392791748047,3.068622350692749 43.31875228881836,3.27236008644104 43.089229583740234,3.4729323387145996 42.845458984375,3.670138359069824 42.587547302246094,3.863779306411743 42.31560134887695,4.053658962249756 42.02973937988281,4.239582538604736 41.730079650878906,4.421357154846191 41.4167594909668,4.598794460296631 41.089900970458984,4.771707057952881 40.74964904785156,4.939908981323242 40.396148681640625,5.103220462799072 40.02954864501953,5.26146125793457 39.65000915527344,5.414456844329834 39.257686614990234,5.562032699584961 38.852752685546875,5.7040205001831055 38.43537521362305,5.8402533531188965 38.00572967529297,5.970568656921387 37.564002990722656,6.09480619430542 37.11038589477539,6.2128119468688965 36.64506149291992,6.324432373046875 36.168235778808594,6.429518699645996 35.68010330200195,6.527927398681641 35.18087387084961,6.6195173263549805 34.67076110839844,6.704152584075928 34.14997482299805,6.781700134277344 33.61874008178711,6.85203218460083 33.0772819519043,6.915024757385254 32.52582550048828,6.970557689666748 31.964601516723633,7.0185160636901855 31.393848419189453,7.05879020690918 30.813806533813477,7.091273307800293 30.224721908569336,7.115863800048828 29.6268367767334,7.132465362548828 29.020404815673828,7.14098596572876 28.405677795410156,7.141337871551514 27.782917022705078,7.133440971374512 27.152379989624023,7.117215633392334 26.514328002929688,7.092590808868408 25.86903190612793,7.0594987869262695 25.216758728027344,7.017878532409668 24.55777931213379,6.967672348022461 23.892366409301758,6.908827781677246 23.22079849243164,6.841300010681152 22.54335594177246,6.765046119689941 21.86031150817871,6.680030345916748 21.171953201293945,6.5862226486206055 20.478567123413086,6.483597755432129 19.780433654785156,6.372135162353516 19.077844619750977,6.251821041107178 18.37108612060547,6.122644424438477 17.66044807434082,5.9846038818359375 16.946224212646484,5.837699890136719 16.22870445251465,5.681939125061035 15.50818157196045,5.517335891723633 14.784950256347656,5.343906402587891 14.059304237365723,5.161675453186035 13.331537246704102,4.970671653747559 12.601945877075195,4.770929336547852 11.870823860168457,4.562488555908203 11.138467788696289,4.345395088195801 10.405170440673828,4.119698524475098 9.67122745513916,3.885456085205078 8.936933517456055,3.642728805541992 8.202581405639648,3.3915839195251465 7.4684648513793945,3.132093667984009 6.734875202178955,2.864335775375366 6.00210428237915,2.588392734527588 5.270442962646484,2.3043527603149414 4.5401787757873535,2.0123095512390137 3.8115997314453125,1.7123610973358154 3.084991931915283,1.4046114683151245 2.360639810562134,1.0891692638397217 1.6388260126113892,0.766148030757904 0.9198311567306519,0.4356667399406433 0.20393423736095428,0.09784899652004242 -0.5085883140563965,-0.2471766471862793 -1.217462182044983,-0.5992767810821533 -1.9224152565002441,-0.9583132863044739 -2.623178482055664,-1.3241435289382935 -3.3194847106933594,-1.6966197490692139 -4.011070251464844,-2.075590133666992 -4.69767427444458,-2.460897922515869 -5.379037857055664,-2.8523826599121094 -6.054907321929932,-3.2498788833618164 -6.725029468536377,-3.65321683883667 -7.389157295227051,-4.062223434448242 -8.047045707702637,-4.476720809936523 -8.69845199584961,-4.89652681350708 -9.343140602111816,-5.321455955505371 -9.980876922607422,-5.751318454742432 -10.611430168151855,-6.185921669006348 -11.234576225280762,-6.625068187713623 -11.850091934204102,-7.068558216094971 -12.457759857177734,-7.5161871910095215 -13.057366371154785,-7.967748641967773 -13.648704528808594,-8.4230318069458 -14.2315673828125,-8.881821632385254 -14.805756568908691,-9.343904495239258 -15.371077537536621,-9.809059143066406 -15.927336692810059,-10.27706241607666 -16.47435188293457,-10.74769115447998 -17.01194190979004,-11.22071647644043 -17.539928436279297,-11.69590950012207 -18.058141708374023,-12.173035621643066 -18.56641960144043,-12.651862144470215 -19.064598083496094,-13.132150650024414 -19.552522659301758,-13.613664627075195 -20.03004264831543,-14.096159934997559 -20.49701690673828,-14.579398155212402 -20.953304290771484,-15.063131332397461 -21.398771286010742,-15.547117233276367 -21.833290100097656,-16.03110694885254 -22.25674057006836,-16.51485252380371 -22.66900062561035,-16.998106002807617 -23.069963455200195,-17.480613708496094 -23.45952606201172,-17.962127685546875 -23.837583541870117,-18.442392349243164 -24.204044342041016,-18.921159744262695 -24.558822631835938,-19.398174285888672 -24.90183448791504,-19.873180389404297 -25.23300552368164,-20.345928192138672 -25.55225944519043,-20.816162109375 -25.859542846679688,-21.283628463745117 -26.154788970947266,-21.748075485229492 -26.437946319580078,-22.209245681762695 -26.708972930908203,-22.666889190673828 -26.967824935913086,-23.12075424194336 -27.21446990966797,-23.570587158203125 -27.44887924194336,-24.01613998413086 -27.671030044555664,-24.457162857055664 -27.880905151367188,-24.893402099609375 -28.078493118286133,-25.324615478515625 -28.2637939453125,-25.75055503845215 -28.43680763244629,-26.170976638793945 -28.597537994384766,-26.58563804626465 -28.746004104614258,-26.994293212890625 -28.882219314575195,-27.396711349487305 -29.006216049194336,-27.792644500732422 -29.118019104003906,-28.181867599487305 -29.217666625976562,-28.56414222717285 -29.305204391479492,-28.939237594604492 -29.38067626953125,-29.306928634643555 -29.44413948059082,-29.6669864654541 -29.495656967163086,-30.019189834594727 -29.53528594970703,-30.363317489624023 -29.5631046295166,-30.699155807495117 -29.579185485839844,-31.026487350463867 -29.5836124420166,-31.345104217529297 -29.57647132873535,-31.65479850769043 -29.557857513427734,-31.955364227294922 -29.527864456176758,-32.24660110473633 -29.486602783203125,-32.528316497802734 -29.434173583984375,-32.800315856933594 -29.37069320678711,-33.062408447265625 -29.296279907226562,-33.31440734863281 -29.2110595703125,-33.55613708496094 -29.115158081054688,-33.787418365478516 -29.00870704650879,-34.008079528808594 -28.891849517822266,-34.217952728271484 -28.76472282409668,-34.4168701171875 -28.627477645874023,-34.60467529296875 -28.48026466369629,-34.781219482421875 -28.3232364654541,-34.94634246826172 -28.156557083129883,-35.099910736083984 -27.980388641357422,-35.24177551269531 -27.794902801513672,-35.37180709838867 -27.600265502929688,-35.489871978759766 -27.39665985107422,-35.595848083496094 -27.184263229370117,-35.68961715698242 -26.9632568359375,-35.77105712890625 -26.73383140563965,-35.84007263183594 -26.496177673339844,-35.896549224853516 -26.250486373901367,-35.94039535522461 -25.99695587158203,-35.97151184082031 -25.735790252685547,-35.98982238769531 -25.467187881469727,-35.995235443115234 -25.191360473632812,-35.9876823425293 -24.908510208129883,-35.96709442138672 -24.61885643005371,-35.93340301513672 -24.322607040405273,-35.88655471801758 -24.019983291625977,-35.82649230957031 -23.71120262145996,-35.753173828125 -23.396486282348633,-35.666561126708984 -23.0760555267334,-35.56661605834961 -22.750139236450195,-35.45331573486328 -22.418962478637695,-35.32663345336914 -22.082752227783203,-35.186553955078125 -21.741743087768555,-35.0330696105957 -21.39616584777832,-34.866172790527344 -21.046249389648438,-34.685874938964844 -20.692232131958008,-34.49217987060547 -20.334346771240234,-34.285099029541016 -19.972829818725586,-34.064659118652344 -19.607921600341797,-33.83088302612305 -19.23985481262207,-33.58380889892578 -18.868871688842773,-33.32347106933594 -18.495206832885742,-33.04991912841797 -18.119102478027344,-32.763206481933594 -17.740795135498047,-32.46338653564453 -17.36052703857422,-32.15052795410156 -16.978532791137695,-31.82469940185547 -16.595054626464844,-31.485973358154297 -16.2103271484375,-31.134441375732422 -15.824590682983398,-30.770187377929688 -15.438081741333008,-30.393301010131836 -15.051037788391113,-30.003890991210938 -14.663691520690918,-29.60205841064453 -14.276278495788574,-29.187915802001953 -13.889033317565918,-28.761585235595703 -13.50218677520752,-28.32318878173828 -13.115968704223633,-27.872854232788086 -12.730609893798828,-27.41071891784668 -12.346338272094727,-26.93692398071289 -11.96337604522705,-26.451616287231445 -11.581951141357422,-25.95494842529297 -11.202282905578613,-25.44707489013672 -10.824591636657715,-24.928163528442383 -10.449094772338867,-24.398378372192383 -10.076007843017578,-23.857898712158203 -9.705543518066406,-23.306896209716797 -9.337911605834961,-22.745563507080078 -8.973320007324219,-22.174081802368164 -8.61197280883789,-21.592649459838867 -8.254072189331055,-21.00146484375 -7.899816513061523,-20.400728225708008 -7.54940128326416,-19.790653228759766 -7.203019142150879,-19.171451568603516 -6.860860824584961,-18.543336868286133 -6.523108959197998,-17.90653419494629 -6.189948081970215,-17.26127052307129 -5.861556053161621,-16.60777473449707 -5.5381083488464355,-15.946282386779785 -5.2197747230529785,-15.277029991149902 -4.906723976135254,-14.600262641906738 -4.599118232727051,-13.91622543334961 -4.297117710113525,-13.225168228149414 -4.0008769035339355,-12.527344703674316 -3.7105467319488525,-11.823012351989746 -3.426274538040161,-11.112430572509766 -3.1482019424438477,-10.39586353302002 -2.876466989517212,-9.673578262329102 -2.6112029552459717,-8.945844650268555 -2.3525390625,-8.212933540344238 -2.1005990505218506,-7.475121974945068 -1.8555023670196533,-6.732687473297119 -1.6173641681671143,-5.985909938812256 -1.3862941265106201,-5.235072135925293 -1.1623972654342651,-4.480459690093994 -0.9457738995552063,-3.7223596572875977 -0.7365189790725708,-2.9610605239868164 -0.5347228646278381,-2.1968538761138916 -0.3404706120491028,-1.4300317764282227 -0.1538422703742981,-0.6608887314796448 0.02508731558918953,0.11027967184782028 0.1962483674287796,0.8831765055656433 0.35957640409469604,1.657503604888916 0.5150120854377747,2.432961940765381 0.662501335144043,3.2092514038085938 0.8019955158233643,3.9860711097717285 0.9334510564804077,4.763119697570801 1.0568296909332275,5.540095806121826 1.172098994255066,6.3166961669921875 1.279231071472168,7.0926194190979 1.3782039880752563,7.867562770843506 1.4690009355545044,8.641222953796387 1.5516105890274048,9.413299560546875 1.6260268688201904,10.183488845825195 1.692249059677124,10.951491355895996 1.7502820491790771,11.717005729675293 1.800135612487793,12.479731559753418 1.841825008392334,13.239370346069336 1.8753713369369507,13.995624542236328 1.9008002281188965,14.74819564819336 1.9181432723999023,15.496790885925293 1.9274365901947021,16.24111557006836 1.9287223815917969,16.980876922607422 1.9220471382141113,17.715784072875977 1.907463550567627,18.44554901123047 1.88502836227417,19.169883728027344 1.8548043966293335,19.888505935668945 1.8168587684631348,20.601133346557617 1.7712643146514893,21.307483673095703 1.7180980443954468,22.007280349731445 1.657442569732666,22.70025062561035 1.5893851518630981,23.386123657226562 1.514017939567566,24.064626693725586 1.4314374923706055,24.73549461364746 1.3417456150054932,25.398468017578125 1.2450482845306396,26.05328369140625 1.1414563655853271,26.699687957763672 1.0310851335525513,27.337425231933594 0.9140543937683105,27.966251373291016 0.7904881238937378,28.585918426513672 0.660514771938324,29.196186065673828 0.5242670178413391,29.796815872192383 0.3818816542625427,30.387577056884766 0.2334994375705719,30.968238830566406 0.07926525175571442,31.538578033447266 -0.08067217469215393,32.09836959838867 -0.24616029858589172,32.647403717041016 -0.4170428514480591,33.18547058105469 -0.5931599736213684,33.71235656738281 -0.7743481397628784,34.22786331176758 -0.9604406356811523,34.7318000793457 -1.1512669324874878,35.223968505859375 -1.346653938293457,35.70418167114258 -1.5464247465133667,36.17226028442383 -1.7503998279571533,36.628028869628906 -1.9583966732025146,37.071311950683594 -2.170229434967041,37.501953125 -2.3857104778289795,37.91978454589844 -2.6046488285064697,38.32465362548828 -2.8268508911132812,38.71641159057617 -3.05212140083313,39.094913482666016 -3.2802622318267822,39.460025787353516 -3.511073350906372,39.811614990234375 -3.744352340698242,40.14955520629883 -3.9798948764801025,40.47372817993164 -4.217495918273926,40.784019470214844 -4.456946849822998,41.08031463623047 -4.6980390548706055,41.36252212524414 -4.940561771392822,41.63054275512695 -5.184302806854248,41.88428497314453 -5.429048538208008,42.12366485595703 -5.674585342407227,42.34860610961914 -5.920698165893555,42.559043884277344 -6.167169570922852,42.754905700683594 -6.413784027099609,42.936134338378906 -6.660323143005371,43.102684020996094 -6.906569480895996,43.25450134277344 -7.152305603027344,43.39155197143555 -7.397311210632324,43.5138053894043 -7.641368865966797,43.6212272644043 -7.884260177612305,43.71380615234375 -8.12576675415039,43.79152297973633 -8.365669250488281,43.854373931884766 -8.603751182556152,43.9023551940918 -8.83979606628418,43.93547821044922 -9.073585510253906,43.9537467956543 -9.304905891418457,43.95718765258789 -9.533540725708008,43.94581985473633 -9.759278297424316,43.919677734375 -9.981904983520508,43.8787956237793 -10.20120906829834,43.82322311401367 -10.416980743408203,43.75300598144531 -10.629013061523438,43.6682014465332 -10.837098121643066,43.56887435913086 -11.041031837463379,43.45509338378906 -11.240612030029297,43.32693099975586 -11.435635566711426,43.18446731567383 -11.62590503692627,43.02779769897461 -11.811223983764648,42.85700607299805 -11.991398811340332,42.67219543457031 -12.166236877441406,42.473472595214844 -12.335550308227539,42.260948181152344 -12.499151229858398,42.03473663330078 -12.65685749053955,41.794960021972656 -12.808489799499512,41.541751861572266 -12.953866958618164,41.27524185180664 -13.092817306518555,40.995567321777344 -13.225168228149414,40.702880859375 -13.350752830505371,40.39733123779297 -13.469408988952637,40.079063415527344 -13.580972671508789,39.74824905395508 -13.685287475585938,39.40505599975586 -13.782200813293457,39.049644470214844 -13.871563911437988,38.68220138549805 -13.953230857849121,38.30290222167969 -14.027059555053711,37.91193389892578 -14.092913627624512,37.50948715209961 -14.15065860748291,37.095760345458984 -14.200165748596191,36.67094802856445 -14.241312026977539,36.23525619506836 -14.273977279663086,35.78889465332031 -14.29804515838623,35.33207321166992 -14.313403129577637,34.86501693725586 -14.31994915008545,34.387935638427734 -14.317578315734863,33.901058197021484 -14.306194305419922,33.40461349487305 -14.2857084274292,32.898834228515625 -14.256031036376953,32.38396072387695 -14.217080116271973,31.86022186279297 -14.168778419494629,31.327869415283203 -14.11105728149414,30.78714370727539 -14.043846130371094,30.23829460144043 -13.96708869934082,29.68157386779785 -13.880724906921387,29.117237091064453 -13.78470516204834,28.545541763305664 -13.678984642028809,27.96674346923828 -13.563522338867188,27.38111114501953 -13.438283920288086,26.78890609741211 -13.303241729736328,26.190391540527344 -13.158370018005371,25.58584213256836 -13.003652572631836,24.975526809692383 -12.839075088500977,24.35971450805664 -12.664630889892578,23.738683700561523 -12.480318069458008,23.11271095275879 -12.286142349243164,22.48206901550293 -12.082112312316895,21.84703826904297 -11.868242263793945,21.207897186279297 -11.644556045532227,20.564929962158203 -11.411075592041016,19.918413162231445 -11.167839050292969,19.268632888793945 -10.914878845214844,18.615869522094727 -10.652239799499512,17.960405349731445 -10.379972457885742,17.30252456665039 -10.098129272460938,16.642513275146484 -9.806772232055664,15.980650901794434 -9.505965232849121,15.317222595214844 -9.195780754089355,14.652512550354004 -8.87629508972168,13.98680305480957 -8.547590255737305,13.320375442504883 -8.20975399017334,12.653512954711914 -7.862878322601318,11.986494064331055 -7.507063865661621,11.319601058959961 -7.1424126625061035,10.653112411499023 -6.769034385681152,9.987305641174316 -6.3870439529418945,9.322456359863281 -5.9965596199035645,8.65884017944336 -5.597707271575928,7.996730804443359 -5.190616607666016,7.336399555206299 -4.7754225730896,6.6781158447265625 -4.352264404296875,6.022148609161377 -3.921288013458252,5.368762493133545 -3.482642650604248,4.718222141265869 -3.036482810974121,4.0707879066467285 -2.582968235015869,3.4267187118530273 -2.122262477874756,2.786271333694458 -1.6545346975326538,2.1496987342834473 -1.1799577474594116,1.5172514915466309 -0.6987091898918152,0.889177680015564 -0.2109711617231369,0.26572173833847046 0.2830701172351837,-0.35287463665008545 0.7832242250442505,-0.9663733243942261 1.2892965078353882,-1.5745395421981812 1.8010882139205933,-2.1771416664123535 2.318397045135498,-2.7739522457122803 2.8410165309906006,-3.3647470474243164 3.368736505508423,-3.949305772781372 3.9013431072235107,-4.527411937713623 4.438619136810303,-5.098853588104248 4.980343818664551,-5.663422107696533 5.52629280090332,-6.220913887023926 6.076239585876465,-6.7711286544799805 6.629952430725098,-7.313870906829834 7.187199115753174,-7.848950386047363 7.747742652893066,-8.376179695129395 8.3113431930542,-8.895378112792969 8.877760887145996,-9.406367301940918 9.446748733520508,-9.908975601196289 10.018061637878418,-10.403036117553711 10.591450691223145,-10.888384819030762 11.166664123535156,-11.36486530303955 11.743447303771973,-11.83232593536377 12.32154655456543,-12.290617942810059 12.900703430175781,-12.739598274230957 13.480660438537598,-13.179131507873535 14.061156272888184,-13.609086990356445 14.641928672790527,-14.029335975646973 15.222713470458984,-14.43975830078125 15.80324935913086,-14.840238571166992 16.383268356323242,-15.230668067932129 16.962505340576172,-15.610940933227539 17.54068946838379,-15.980957984924316 18.117557525634766,-16.340625762939453 18.692838668823242,-16.68985939025879 19.266265869140625,-17.028575897216797 19.837568283081055,-17.3566951751709 20.406476974487305,-17.674150466918945 20.972721099853516,-17.980876922607422 21.536035537719727,-18.27681541442871 22.096149444580078,-18.561908721923828 22.65279197692871,-18.836116790771484 23.205699920654297,-19.099390029907227 23.754600524902344,-19.35169792175293 24.29923439025879,-19.593008041381836 24.83932876586914,-19.82329750061035 25.374622344970703,-20.042545318603516 25.90485191345215,-20.250741958618164 26.429758071899414,-20.4478759765625 26.949077606201172,-20.633953094482422 27.46255111694336,-20.808971405029297 27.969919204711914,-20.972942352294922 28.470935821533203,-21.125885009765625 28.96533966064453,-21.267818450927734 29.452880859375,-21.398771286010742 29.93331527709961,-21.518775939941406 30.406391143798828,-21.627872467041016 30.87186622619629,-21.726102828979492 31.329500198364258,-21.81351661682129 31.779050827026367,-21.89017105102539 32.22028732299805,-21.956125259399414 32.652976989746094,-22.011445999145508 33.07688522338867,-22.05620574951172 33.491790771484375,-22.090476989746094 33.8974723815918,-22.114347457885742 34.293701171875,-22.127899169921875 34.68027114868164,-22.131229400634766 35.05696105957031,-22.12442970275879 35.4235725402832,-22.10760498046875 35.7798957824707,-22.08086395263672 36.125728607177734,-22.044315338134766 36.460880279541016,-21.998079299926758 36.78514862060547,-21.942276000976562 37.098358154296875,-21.877031326293945 37.40032196044922,-21.802474975585938 37.690853118896484,-21.7187442779541 37.969791412353516,-21.625978469848633 38.23695373535156,-21.52431869506836 38.492183685302734,-21.413915634155273 38.735321044921875,-21.294921875 38.96620559692383,-21.167491912841797 39.184696197509766,-21.031787872314453 39.39064025878906,-20.887969970703125 39.58390426635742,-20.736207962036133 39.76435089111328,-20.576675415039062 39.931854248046875,-20.409543991088867 40.08628845214844,-20.23499298095703 40.2275390625,-20.053203582763672 40.355491638183594,-19.864362716674805 40.47004318237305,-19.668655395507812 40.57108688354492,-19.466276168823242 40.658531188964844,-19.257413864135742 40.7322883605957,-19.042266845703125 40.792274475097656,-18.82103729248047 40.83841323852539,-18.593923568725586 40.870628356933594,-18.361129760742188 40.88886260986328,-18.122865676879883 40.89305114746094,-17.879335403442383 40.88314437866211,-17.630754470825195 40.859092712402344,-17.377330780029297 40.82085418701172,-17.119281768798828 40.76839828491211,-16.856821060180664 40.70169448852539,-16.59016990661621 40.620723724365234,-16.319543838500977 40.52546310424805,-16.045166015625 40.41590881347656,-15.767256736755371 40.292057037353516,-15.486039161682129 40.153907775878906,-15.201736450195312 40.0014762878418,-14.914573669433594 39.83477020263672,-14.624775886535645 39.6538200378418,-14.332569122314453 39.458648681640625,-14.038177490234375 39.249290466308594,-13.741829872131348 39.02579116821289,-13.44375228881836 38.78819274902344,-13.144170761108398 38.53654861450195,-12.84331226348877 38.27092361450195,-12.541404724121094 37.99138641357422,-12.23867130279541 37.697998046875,-11.935338973999023 37.39084243774414,-11.631633758544922 37.07000732421875,-11.327778816223145 36.73558044433594,-11.02399730682373 36.387657165527344,-10.720512390136719 36.026344299316406,-10.417545318603516 35.65174865722656,-10.115317344665527 35.26398849487305,-9.814044952392578 34.863182067871094,-9.513946533203125 34.4494514465332,-9.215238571166992 34.0229377746582,-8.918134689331055 33.583778381347656,-8.622847557067871 33.132110595703125,-8.329587936401367 32.668087005615234,-8.038562774658203 32.19186782836914,-7.749979496002197 31.703609466552734,-7.464041233062744 31.20347785949707,-7.1809492111206055 30.691648483276367,-6.90090274810791 30.168296813964844,-6.624098777770996 29.63360023498535,-6.350729942321777 29.08775520324707,-6.080987453460693 28.530946731567383,-5.815059185028076 27.96337890625,-5.55312967300415 27.38524627685547,-5.295380592346191 26.796762466430664,-5.041990756988525 26.198135375976562,-4.793134689331055 25.58958625793457,-4.548984050750732 24.97133445739746,-4.3097076416015625 24.34360122680664,-4.07546854019165 23.706621170043945,-3.846428871154785 23.060626983642578,-3.6227447986602783 22.405858993530273,-3.404569149017334 21.742555618286133,-3.192051410675049 21.070964813232422,-2.9853363037109375 20.39133644104004,-2.784564256668091 19.70392417907715,-2.5898725986480713 19.00898551940918,-2.401393413543701 18.306779861450195,-2.2192542552948 17.59757423400879,-2.0435791015625 16.88163185119629,-1.8744865655899048 16.159225463867188,-1.7120912075042725 15.430627822875977,-1.5565029382705688 14.696114540100098,-1.4078266620635986 13.955964088439941,-1.2661627531051636 13.210458755493164,-1.1316066980361938 12.459881782531738,-1.0042493343353271 11.704519271850586,-0.8841761350631714 10.944660186767578,-0.771467924118042 10.180594444274902,-0.6662007570266724 9.412614822387695,-0.568445086479187 8.64101505279541,-0.47826671600341797 7.866089344024658,-0.39572617411613464 7.088138103485107,-0.3208787739276886 6.307458400726318,-0.2537747621536255 5.524350643157959,-0.19445917010307312 4.7391157150268555,-0.1429717093706131 3.9520552158355713,-0.09934690594673157 3.1634726524353027,-0.06361396610736847 2.373671770095825,-0.03579683601856232 1.5829559564590454,-0.01591414585709572 0.7916305065155029,-0.00397920235991478 1.9288187041478777e-14,-2.3621216675818908e-30 -0.7916305065155029,-0.00397920235991478 -1.5829559564590454,-0.01591414585709572 -2.373671770095825,-0.03579683601856232 -3.1634726524353027,-0.06361396610736847 -3.9520552158355713,-0.09934690594673157 -4.7391157150268555,-0.1429717093706131 -5.524350643157959,-0.19445917010307312 -6.307458400726318,-0.2537747621536255 -7.088138103485107,-0.3208787739276886 -7.866089344024658,-0.39572617411613464 -8.64101505279541,-0.47826671600341797 -9.412614822387695,-0.568445086479187 -10.180594444274902,-0.6662007570266724 -10.944660186767578,-0.771467924118042 -11.704519271850586,-0.8841761350631714 -12.459881782531738,-1.0042493343353271 -13.210458755493164,-1.1316066980361938 -13.955964088439941,-1.2661627531051636 -14.696114540100098,-1.4078266620635986 -15.430627822875977,-1.5565029382705688 -16.159225463867188,-1.7120912075042725 -16.88163185119629,-1.8744865655899048 -17.59757423400879,-2.0435791015625 -18.306779861450195,-2.2192542552948 -19.00898551940918,-2.401393413543701 -19.70392417907715,-2.5898725986480713 -20.39133644104004,-2.784564256668091 -21.070964813232422,-2.9853363037109375 -21.742555618286133,-3.192051410675049 -22.405858993530273,-3.404569149017334 -23.060626983642578,-3.6227447986602783 -23.706621170043945,-3.846428871154785 -24.34360122680664,-4.07546854019165 -24.97133445739746,-4.3097076416015625 -25.58958625793457,-4.548984050750732 -26.198135375976562,-4.793134689331055 -26.796762466430664,-5.041990756988525 -27.38524627685547,-5.295380592346191 -27.96337890625,-5.55312967300415 -28.530946731567383,-5.815059185028076 -29.08775520324707,-6.080987453460693 -29.63360023498535,-6.350729942321777 -30.168296813964844,-6.624098777770996 -30.691648483276367,-6.90090274810791 -31.20347785949707,-7.1809492111206055 -31.703609466552734,-7.464041233062744 -32.19186782836914,-7.749979496002197 -32.668087005615234,-8.038562774658203 -33.132110595703125,-8.329587936401367 -33.583778381347656,-8.622847557067871 -34.0229377746582,-8.918134689331055 -34.4494514465332,-9.215238571166992 -34.863182067871094,-9.513946533203125 -35.26398849487305,-9.814044952392578 -35.65174865722656,-10.115317344665527 -36.026344299316406,-10.417545318603516 -36.387657165527344,-10.720512390136719 -36.73558044433594,-11.02399730682373 -37.07000732421875,-11.327778816223145 -37.39084243774414,-11.631633758544922 -37.697998046875,-11.935338973999023 -37.99138641357422,-12.23867130279541 -38.27092361450195,-12.541404724121094 -38.53654861450195,-12.84331226348877 -38.78819274902344,-13.144170761108398 -39.02579116821289,-13.44375228881836 -39.249290466308594,-13.741829872131348 -39.458648681640625,-14.038177490234375 -39.6538200378418,-14.332569122314453 -39.83477020263672,-14.624775886535645 -40.0014762878418,-14.914573669433594 -40.153907775878906,-15.201736450195312 -40.292057037353516,-15.486039161682129 -40.41590881347656,-15.767256736755371 -40.52546310424805,-16.045166015625 -40.620723724365234,-16.319543838500977 -40.70169448852539,-16.59016990661621 -40.76839828491211,-16.856821060180664 -40.82085418701172,-17.119281768798828 -40.859092712402344,-17.377330780029297 -40.88314437866211,-17.630754470825195 -40.89305114746094,-17.879335403442383 -40.88886260986328,-18.122865676879883 -40.870628356933594,-18.361129760742188 -40.83841323852539,-18.593923568725586 -40.792274475097656,-18.82103729248047 -40.7322883605957,-19.042266845703125 -40.658531188964844,-19.257413864135742 -40.57108688354492,-19.466276168823242 -40.47004318237305,-19.668655395507812 -40.355491638183594,-19.864362716674805 -40.2275390625,-20.053203582763672 -40.08628845214844,-20.23499298095703 -39.931854248046875,-20.409543991088867 -39.76435089111328,-20.576675415039062 -39.58390426635742,-20.736207962036133 -39.39064025878906,-20.887969970703125 -39.184696197509766,-21.031787872314453 -38.96620559692383,-21.167491912841797 -38.735321044921875,-21.294921875 -38.492183685302734,-21.413915634155273 -38.23695373535156,-21.52431869506836 -37.969791412353516,-21.625978469848633 -37.690853118896484,-21.7187442779541 -37.40032196044922,-21.802474975585938 -37.098358154296875,-21.877031326293945 -36.78514862060547,-21.942276000976562 -36.460880279541016,-21.998079299926758 -36.125728607177734,-22.044315338134766 -35.7798957824707,-22.08086395263672 -35.4235725402832,-22.10760498046875 -35.05696105957031,-22.12442970275879 -34.68027114868164,-22.131229400634766 -34.293701171875,-22.127899169921875 -33.8974723815918,-22.114347457885742 -33.491790771484375,-22.090476989746094 -33.07688522338867,-22.05620574951172 -32.652976989746094,-22.011445999145508 -32.22028732299805,-21.956125259399414 -31.779050827026367,-21.89017105102539 -31.329500198364258,-21.81351661682129 -30.87186622619629,-21.726102828979492 -30.406391143798828,-21.627872467041016 -29.93331527709961,-21.518775939941406 -29.452880859375,-21.398771286010742 -28.96533966064453,-21.267818450927734 -28.470935821533203,-21.125885009765625 -27.969919204711914,-20.972942352294922 -27.46255111694336,-20.808971405029297 -26.949077606201172,-20.633953094482422 -26.429758071899414,-20.4478759765625 -25.90485191345215,-20.250741958618164 -25.374622344970703,-20.042545318603516 -24.83932876586914,-19.82329750061035 -24.29923439025879,-19.593008041381836 -23.754600524902344,-19.35169792175293 -23.205699920654297,-19.099390029907227 -22.65279197692871,-18.836116790771484 -22.096149444580078,-18.561908721923828 -21.536035537719727,-18.27681541442871 -20.972721099853516,-17.980876922607422 -20.406476974487305,-17.674150466918945 -19.837568283081055,-17.3566951751709 -19.266265869140625,-17.028575897216797 -18.692838668823242,-16.68985939025879 -18.117557525634766,-16.340625762939453 -17.54068946838379,-15.980957984924316 -16.962505340576172,-15.610940933227539 -16.383268356323242,-15.230668067932129 -15.80324935913086,-14.840238571166992 -15.222713470458984,-14.43975830078125 -14.641928672790527,-14.029335975646973 -14.061156272888184,-13.609086990356445 -13.480660438537598,-13.179131507873535 -12.900703430175781,-12.739598274230957 -12.32154655456543,-12.290617942810059 -11.743447303771973,-11.83232593536377 -11.166664123535156,-11.36486530303955 -10.591450691223145,-10.888384819030762 -10.018061637878418,-10.403036117553711 -9.446748733520508,-9.908975601196289 -8.877760887145996,-9.406367301940918 -8.3113431930542,-8.895378112792969 -7.747742652893066,-8.376179695129395 -7.187199115753174,-7.848950386047363 -6.629952430725098,-7.313870906829834 -6.076239585876465,-6.7711286544799805 -5.52629280090332,-6.220913887023926 -4.980343818664551,-5.663422107696533 -4.438619136810303,-5.098853588104248 -3.9013431072235107,-4.527411937713623 -3.368736505508423,-3.949305772781372 -2.8410165309906006,-3.3647470474243164 -2.318397045135498,-2.7739522457122803 -1.8010882139205933,-2.1771416664123535 -1.2892965078353882,-1.5745395421981812 -0.7832242250442505,-0.9663733243942261 -0.2830701172351837,-0.35287463665008545 0.2109711617231369,0.26572173833847046 0.6987091898918152,0.889177680015564 1.1799577474594116,1.5172514915466309 1.6545346975326538,2.1496987342834473 2.122262477874756,2.786271333694458 2.582968235015869,3.4267187118530273 3.036482810974121,4.0707879066467285 3.482642650604248,4.718222141265869 3.921288013458252,5.368762493133545 4.352264404296875,6.022148609161377 4.7754225730896,6.6781158447265625 5.190616607666016,7.336399555206299 5.597707271575928,7.996730804443359 5.9965596199035645,8.65884017944336 6.3870439529418945,9.322456359863281 6.769034385681152,9.987305641174316 7.1424126625061035,10.653112411499023 7.507063865661621,11.319601058959961 7.862878322601318,11.986494064331055 8.20975399017334,12.653512954711914 8.547590255737305,13.320375442504883 8.87629508972168,13.98680305480957 9.195780754089355,14.652512550354004 9.505965232849121,15.317222595214844 9.806772232055664,15.980650901794434 10.098129272460938,16.642513275146484 10.379972457885742,17.30252456665039 10.652239799499512,17.960405349731445 10.914878845214844,18.615869522094727 11.167839050292969,19.268632888793945 11.411075592041016,19.918413162231445 11.644556045532227,20.564929962158203 11.868242263793945,21.207897186279297 12.082112312316895,21.84703826904297 12.286142349243164,22.48206901550293 12.480318069458008,23.11271095275879 12.664630889892578,23.738683700561523 12.839075088500977,24.35971450805664 13.003652572631836,24.975526809692383 13.158370018005371,25.58584213256836 13.303241729736328,26.190391540527344 13.438283920288086,26.78890609741211 13.563522338867188,27.38111114501953 13.678984642028809,27.96674346923828 13.78470516204834,28.545541763305664 13.880724906921387,29.117237091064453 13.96708869934082,29.68157386779785 14.043846130371094,30.23829460144043 14.11105728149414,30.78714370727539 14.168778419494629,31.327869415283203 14.217080116271973,31.86022186279297 14.256031036376953,32.38396072387695 14.2857084274292,32.898834228515625 14.306194305419922,33.40461349487305 14.317578315734863,33.901058197021484 14.31994915008545,34.387935638427734 14.313403129577637,34.86501693725586 14.29804515838623,35.33207321166992 14.273977279663086,35.78889465332031 14.241312026977539,36.23525619506836 14.200165748596191,36.67094802856445 14.15065860748291,37.095760345458984 14.092913627624512,37.50948715209961 14.027059555053711,37.91193389892578 13.953230857849121,38.30290222167969 13.871563911437988,38.68220138549805 13.782200813293457,39.049644470214844 13.685287475585938,39.40505599975586 13.580972671508789,39.74824905395508 13.469408988952637,40.079063415527344 13.350752830505371,40.39733123779297 13.225168228149414,40.702880859375 13.092817306518555,40.995567321777344 12.953866958618164,41.27524185180664 12.808489799499512,41.541751861572266 12.65685749053955,41.794960021972656 12.499151229858398,42.03473663330078 12.335550308227539,42.260948181152344 12.166236877441406,42.473472595214844 11.991398811340332,42.67219543457031 11.811223983764648,42.85700607299805 11.62590503692627,43.02779769897461 11.435635566711426,43.18446731567383 11.240612030029297,43.32693099975586 11.041031837463379,43.45509338378906 10.837098121643066,43.56887435913086 10.629013061523438,43.6682014465332 10.416980743408203,43.75300598144531 10.20120906829834,43.82322311401367 9.981904983520508,43.8787956237793 9.759278297424316,43.919677734375 9.533540725708008,43.94581985473633 9.304905891418457,43.95718765258789 9.073585510253906,43.9537467956543 8.83979606628418,43.93547821044922 8.603751182556152,43.9023551940918 8.365669250488281,43.854373931884766 8.12576675415039,43.79152297973633 7.884260177612305,43.71380615234375 7.641368865966797,43.6212272644043 7.397311210632324,43.5138053894043 7.152305603027344,43.39155197143555 6.906569480895996,43.25450134277344 6.660323143005371,43.102684020996094 6.413784027099609,42.936134338378906 6.167169570922852,42.754905700683594 5.920698165893555,42.559043884277344 5.674585342407227,42.34860610961914 5.429048538208008,42.12366485595703 5.184302806854248,41.88428497314453 4.940561771392822,41.63054275512695 4.6980390548706055,41.36252212524414 4.456946849822998,41.08031463623047 4.217495918273926,40.784019470214844 3.9798948764801025,40.47372817993164 3.744352340698242,40.14955520629883 3.511073350906372,39.811614990234375 3.2802622318267822,39.460025787353516 3.05212140083313,39.094913482666016 2.8268508911132812,38.71641159057617 2.6046488285064697,38.32465362548828 2.3857104778289795,37.91978454589844 2.170229434967041,37.501953125 1.9583966732025146,37.071311950683594 1.7503998279571533,36.628028869628906 1.5464247465133667,36.17226028442383 1.346653938293457,35.70418167114258 1.1512669324874878,35.223968505859375 0.9604406356811523,34.7318000793457 0.7743481397628784,34.22786331176758 0.5931599736213684,33.71235656738281 0.4170428514480591,33.18547058105469 0.24616029858589172,32.647403717041016 0.08067217469215393,32.09836959838867 -0.07926525175571442,31.538578033447266 -0.2334994375705719,30.968238830566406 -0.3818816542625427,30.387577056884766 -0.5242670178413391,29.796815872192383 -0.660514771938324,29.196186065673828 -0.7904881238937378,28.585918426513672 -0.9140543937683105,27.966251373291016 -1.0310851335525513,27.337425231933594 -1.1414563655853271,26.699687957763672 -1.2450482845306396,26.05328369140625 -1.3417456150054932,25.398468017578125 -1.4314374923706055,24.73549461364746 -1.514017939567566,24.064626693725586 -1.5893851518630981,23.386123657226562 -1.657442569732666,22.70025062561035 -1.7180980443954468,22.007280349731445 -1.7712643146514893,21.307483673095703 -1.8168587684631348,20.601133346557617 -1.8548043966293335,19.888505935668945 -1.88502836227417,19.169883728027344 -1.907463550567627,18.44554901123047 -1.9220471382141113,17.715784072875977 -1.9287223815917969,16.980876922607422 -1.9274365901947021,16.24111557006836 -1.9181432723999023,15.496790885925293 -1.9008002281188965,14.74819564819336 -1.8753713369369507,13.995624542236328 -1.841825008392334,13.239370346069336 -1.800135612487793,12.479731559753418 -1.7502820491790771,11.717005729675293 -1.692249059677124,10.951491355895996 -1.6260268688201904,10.183488845825195 -1.5516105890274048,9.413299560546875 -1.4690009355545044,8.641222953796387 -1.3782039880752563,7.867562770843506 -1.279231071472168,7.0926194190979 -1.172098994255066,6.3166961669921875 -1.0568296909332275,5.540095806121826 -0.9334510564804077,4.763119697570801 -0.8019955158233643,3.9860711097717285 -0.662501335144043,3.2092514038085938 -0.5150120854377747,2.432961940765381 -0.35957640409469604,1.657503604888916 -0.1962483674287796,0.8831765055656433 -0.02508731558918953,0.11027967184782028 0.1538422703742981,-0.6608887314796448 0.3404706120491028,-1.4300317764282227 0.5347228646278381,-2.1968538761138916 0.7365189790725708,-2.9610605239868164 0.9457738995552063,-3.7223596572875977 1.1623972654342651,-4.480459690093994 1.3862941265106201,-5.235072135925293 1.6173641681671143,-5.985909938812256 1.8555023670196533,-6.732687473297119 2.1005990505218506,-7.475121974945068 2.3525390625,-8.212933540344238 2.6112029552459717,-8.945844650268555 2.876466989517212,-9.673578262329102 3.1482019424438477,-10.39586353302002 3.426274538040161,-11.112430572509766 3.7105467319488525,-11.823012351989746 4.0008769035339355,-12.527344703674316 4.297117710113525,-13.225168228149414 4.599118232727051,-13.91622543334961 4.906723976135254,-14.600262641906738 5.2197747230529785,-15.277029991149902 5.5381083488464355,-15.946282386779785 5.861556053161621,-16.60777473449707 6.189948081970215,-17.26127052307129 6.523108959197998,-17.90653419494629 6.860860824584961,-18.543336868286133 7.203019142150879,-19.171451568603516 7.54940128326416,-19.790653228759766 7.899816513061523,-20.400728225708008 8.254072189331055,-21.00146484375 8.61197280883789,-21.592649459838867 8.973320007324219,-22.174081802368164 9.337911605834961,-22.745563507080078 9.705543518066406,-23.306896209716797 10.076007843017578,-23.857898712158203 10.449094772338867,-24.398378372192383 10.824591636657715,-24.928163528442383 11.202282905578613,-25.44707489013672 11.581951141357422,-25.95494842529297 11.96337604522705,-26.451616287231445 12.346338272094727,-26.93692398071289 12.730609893798828,-27.41071891784668 13.115968704223633,-27.872854232788086 13.50218677520752,-28.32318878173828 13.889033317565918,-28.761585235595703 14.276278495788574,-29.187915802001953 14.663691520690918,-29.60205841064453 15.051037788391113,-30.003890991210938 15.438081741333008,-30.393301010131836 15.824590682983398,-30.770187377929688 16.2103271484375,-31.134441375732422 16.595054626464844,-31.485973358154297 16.978532791137695,-31.82469940185547 17.36052703857422,-32.15052795410156 17.740795135498047,-32.46338653564453 18.119102478027344,-32.763206481933594 18.495206832885742,-33.04991912841797 18.868871688842773,-33.32347106933594 19.23985481262207,-33.58380889892578 19.607921600341797,-33.83088302612305 19.972829818725586,-34.064659118652344 20.334346771240234,-34.285099029541016 20.692232131958008,-34.49217987060547 21.046249389648438,-34.685874938964844 21.39616584777832,-34.866172790527344 21.741743087768555,-35.0330696105957 22.082752227783203,-35.186553955078125 22.418962478637695,-35.32663345336914 22.750139236450195,-35.45331573486328 23.0760555267334,-35.56661605834961 23.396486282348633,-35.666561126708984 23.71120262145996,-35.753173828125 24.019983291625977,-35.82649230957031 24.322607040405273,-35.88655471801758 24.61885643005371,-35.93340301513672 24.908510208129883,-35.96709442138672 25.191360473632812,-35.9876823425293 25.467187881469727,-35.995235443115234 25.735790252685547,-35.98982238769531 25.99695587158203,-35.97151184082031 26.250486373901367,-35.94039535522461 26.496177673339844,-35.896549224853516 26.73383140563965,-35.84007263183594 26.9632568359375,-35.77105712890625 27.184263229370117,-35.68961715698242 27.39665985107422,-35.595848083496094 27.600265502929688,-35.489871978759766 27.794902801513672,-35.37180709838867 27.980388641357422,-35.24177551269531 28.156557083129883,-35.099910736083984 28.3232364654541,-34.94634246826172 28.48026466369629,-34.781219482421875 28.627477645874023,-34.60467529296875 28.76472282409668,-34.4168701171875 28.891849517822266,-34.217952728271484 29.00870704650879,-34.008079528808594 29.115158081054688,-33.787418365478516 29.2110595703125,-33.55613708496094 29.296279907226562,-33.31440734863281 29.37069320678711,-33.062408447265625 29.434173583984375,-32.800315856933594 29.486602783203125,-32.528316497802734 29.527864456176758,-32.24660110473633 29.557857513427734,-31.955364227294922 29.57647132873535,-31.65479850769043 29.5836124420166,-31.345104217529297 29.579185485839844,-31.026487350463867 29.5631046295166,-30.699155807495117 29.53528594970703,-30.363317489624023 29.495656967163086,-30.019189834594727 29.44413948059082,-29.6669864654541 29.38067626953125,-29.306928634643555 29.305204391479492,-28.939237594604492 29.217666625976562,-28.56414222717285 29.118019104003906,-28.181867599487305 29.006216049194336,-27.792644500732422 28.882219314575195,-27.396711349487305 28.746004104614258,-26.994293212890625 28.597537994384766,-26.58563804626465 28.43680763244629,-26.170976638793945 28.2637939453125,-25.75055503845215 28.078493118286133,-25.324615478515625 27.880905151367188,-24.893402099609375 27.671030044555664,-24.457162857055664 27.44887924194336,-24.01613998413086 27.21446990966797,-23.570587158203125 26.967824935913086,-23.12075424194336 26.708972930908203,-22.666889190673828 26.437946319580078,-22.209245681762695 26.154788970947266,-21.748075485229492 25.859542846679688,-21.283628463745117 25.55225944519043,-20.816162109375 25.23300552368164,-20.345928192138672 24.90183448791504,-19.873180389404297 24.558822631835938,-19.398174285888672 24.204044342041016,-18.921159744262695 23.837583541870117,-18.442392349243164 23.45952606201172,-17.962127685546875 23.069963455200195,-17.480613708496094 22.66900062561035,-16.998106002807617 22.25674057006836,-16.51485252380371 21.833290100097656,-16.03110694885254 21.398771286010742,-15.547117233276367 20.953304290771484,-15.063131332397461 20.49701690673828,-14.579398155212402 20.03004264831543,-14.096159934997559 19.552522659301758,-13.613664627075195 19.064598083496094,-13.132150650024414 18.56641960144043,-12.651862144470215 18.058141708374023,-12.173035621643066 17.539928436279297,-11.69590950012207 17.01194190979004,-11.22071647644043 16.47435188293457,-10.74769115447998 15.927336692810059,-10.27706241607666 15.371077537536621,-9.809059143066406 14.805756568908691,-9.343904495239258 14.2315673828125,-8.881821632385254 13.648704528808594,-8.4230318069458 13.057366371154785,-7.967748641967773 12.457759857177734,-7.5161871910095215 11.850091934204102,-7.068558216094971 11.234576225280762,-6.625068187713623 10.611430168151855,-6.185921669006348 9.980876922607422,-5.751318454742432 9.343140602111816,-5.321455955505371 8.69845199584961,-4.89652681350708 8.047045707702637,-4.476720809936523 7.389157295227051,-4.062223434448242 6.725029468536377,-3.65321683883667 6.054907321929932,-3.2498788833618164 5.379037857055664,-2.8523826599121094 4.69767427444458,-2.460897922515869 4.011070251464844,-2.075590133666992 3.3194847106933594,-1.6966197490692139 2.623178482055664,-1.3241435289382935 1.9224152565002441,-0.9583132863044739 1.217462182044983,-0.5992767810821533 0.5085883140563965,-0.2471766471862793 -0.20393423736095428,0.09784899652004242 -0.9198311567306519,0.4356667399406433 -1.6388260126113892,0.766148030757904 -2.360639810562134,1.0891692638397217 -3.084991931915283,1.4046114683151245 -3.8115997314453125,1.7123610973358154 -4.5401787757873535,2.0123095512390137 -5.270442962646484,2.3043527603149414 -6.00210428237915,2.588392734527588 -6.734875202178955,2.864335775375366 -7.4684648513793945,3.132093667984009 -8.202581405639648,3.3915839195251465 -8.936933517456055,3.642728805541992 -9.67122745513916,3.885456085205078 -10.405170440673828,4.119698524475098 -11.138467788696289,4.345395088195801 -11.870823860168457,4.562488555908203 -12.601945877075195,4.770929336547852 -13.331537246704102,4.970671653747559 -14.059304237365723,5.161675453186035 -14.784950256347656,5.343906402587891 -15.50818157196045,5.517335891723633 -16.22870445251465,5.681939125061035 -16.946224212646484,5.837699890136719 -17.66044807434082,5.9846038818359375 -18.37108612060547,6.122644424438477 -19.077844619750977,6.251821041107178 -19.780433654785156,6.372135162353516 -20.478567123413086,6.483597755432129 -21.171953201293945,6.5862226486206055 -21.86031150817871,6.680030345916748 -22.54335594177246,6.765046119689941 -23.22079849243164,6.841300010681152 -23.892366409301758,6.908827781677246 -24.55777931213379,6.967672348022461 -25.216758728027344,7.017878532409668 -25.86903190612793,7.0594987869262695 -26.514328002929688,7.092590808868408 -27.152379989624023,7.117215633392334 -27.782917022705078,7.133440971374512 -28.405677795410156,7.141337871551514 -29.020404815673828,7.14098596572876 -29.6268367767334,7.132465362548828 -30.224721908569336,7.115863800048828 -30.813806533813477,7.091273307800293 -31.393848419189453,7.05879020690918 -31.964601516723633,7.0185160636901855 -32.52582550048828,6.970557689666748 -33.0772819519043,6.915024757385254 -33.61874008178711,6.85203218460083 -34.14997482299805,6.781700134277344 -34.67076110839844,6.704152584075928 -35.18087387084961,6.6195173263549805 -35.68010330200195,6.527927398681641 -36.168235778808594,6.429518699645996 -36.64506149291992,6.324432373046875 -37.11038589477539,6.2128119468688965 -37.564002990722656,6.09480619430542 -38.00572967529297,5.970568656921387 -38.43537521362305,5.8402533531188965 -38.852752685546875,5.7040205001831055 -39.257686614990234,5.562032699584961 -39.65000915527344,5.414456844329834 -40.02954864501953,5.26146125793457 -40.396148681640625,5.103220462799072 -40.74964904785156,4.939908981323242 -41.089900970458984,4.771707057952881 -41.4167594909668,4.598794460296631 -41.730079650878906,4.421357154846191 -42.02973937988281,4.239582538604736 -42.31560134887695,4.053658962249756 -42.587547302246094,3.863779306411743 -42.845458984375,3.670138359069824 -43.089229583740234,3.4729323387145996 -43.31875228881836,3.27236008644104 -43.53392791748047,3.068622350692749 -43.73466873168945,2.861922025680542 -43.92088317871094,2.652462959289551 -44.092498779296875,2.4404513835906982 -44.24943542480469,2.2260942459106445 -44.39162826538086,2.00960111618042 -44.519020080566406,1.7911816835403442 -44.631553649902344,1.5710469484329224 -44.72917938232422,1.3494093418121338 -44.81185531616211,1.1264818906784058 -44.87955093383789,0.9024785161018372 -44.932228088378906,0.6776134371757507 -44.969871520996094,0.4521017074584961 -44.992469787597656,0.22615870833396912 -45,1.1021821408568715e-14 -44.992469787597656,-0.22615870833396912 -44.969871520996094,-0.4521017074584961 -44.932228088378906,-0.6776134371757507 -44.87955093383789,-0.9024785161018372 -44.81185531616211,-1.1264818906784058 -44.72917938232422,-1.3494093418121338 -44.631553649902344,-1.5710469484329224 -44.519020080566406,-1.7911816835403442 -44.39162826538086,-2.00960111618042 -44.24943542480469,-2.2260942459106445 -44.092498779296875,-2.4404513835906982 -43.92088317871094,-2.652462959289551 -43.73466873168945,-2.861922025680542 -43.53392791748047,-3.068622350692749 -43.31875228881836,-3.27236008644104 -43.089229583740234,-3.4729323387145996 -42.845458984375,-3.670138359069824 -42.587547302246094,-3.863779306411743 -42.31560134887695,-4.053658962249756 -42.02973937988281,-4.239582538604736 -41.730079650878906,-4.421357154846191 -41.4167594909668,-4.598794460296631 -41.089900970458984,-4.771707057952881 -40.74964904785156,-4.939908981323242 -40.396148681640625,-5.103220462799072 -40.02954864501953,-5.26146125793457 -39.65000915527344,-5.414456844329834 -39.257686614990234,-5.562032699584961 -38.852752685546875,-5.7040205001831055 -38.43537521362305,-5.8402533531188965 -38.00572967529297,-5.970568656921387 -37.564002990722656,-6.09480619430542 -37.11038589477539,-6.2128119468688965 -36.64506149291992,-6.324432373046875 -36.168235778808594,-6.429518699645996 -35.68010330200195,-6.527927398681641 -35.18087387084961,-6.6195173263549805 -34.67076110839844,-6.704152584075928 -34.14997482299805,-6.781700134277344 -33.61874008178711,-6.85203218460083 -33.0772819519043,-6.915024757385254 -32.52582550048828,-6.970557689666748 -31.964601516723633,-7.0185160636901855 -31.393848419189453,-7.05879020690918 -30.813806533813477,-7.091273307800293 -30.224721908569336,-7.115863800048828 -29.6268367767334,-7.132465362548828 -29.020404815673828,-7.14098596572876 -28.405677795410156,-7.141337871551514 -27.782917022705078,-7.133440971374512 -27.152379989624023,-7.117215633392334 -26.514328002929688,-7.092590808868408 -25.86903190612793,-7.0594987869262695 -25.216758728027344,-7.017878532409668 -24.55777931213379,-6.967672348022461 -23.892366409301758,-6.908827781677246 -23.22079849243164,-6.841300010681152 -22.54335594177246,-6.765046119689941 -21.86031150817871,-6.680030345916748 -21.171953201293945,-6.5862226486206055 -20.478567123413086,-6.483597755432129 -19.780433654785156,-6.372135162353516 -19.077844619750977,-6.251821041107178 -18.37108612060547,-6.122644424438477 -17.66044807434082,-5.9846038818359375 -16.946224212646484,-5.837699890136719 -16.22870445251465,-5.681939125061035 -15.50818157196045,-5.517335891723633 -14.784950256347656,-5.343906402587891 -14.059304237365723,-5.161675453186035 -13.331537246704102,-4.970671653747559 -12.601945877075195,-4.770929336547852 -11.870823860168457,-4.562488555908203 -11.138467788696289,-4.345395088195801 -10.405170440673828,-4.119698524475098 -9.67122745513916,-3.885456085205078 -8.936933517456055,-3.642728805541992 -8.202581405639648,-3.3915839195251465 -7.4684648513793945,-3.132093667984009 -6.734875202178955,-2.864335775375366 -6.00210428237915,-2.588392734527588 -5.270442962646484,-2.3043527603149414 -4.5401787757873535,-2.0123095512390137 -3.8115997314453125,-1.7123610973358154 -3.084991931915283,-1.4046114683151245 -2.360639810562134,-1.0891692638397217 -1.6388260126113892,-0.766148030757904 -0.9198311567306519,-0.4356667399406433 -0.20393423736095428,-0.09784899652004242 0.5085883140563965,0.2471766471862793 1.217462182044983,0.5992767810821533 1.9224152565002441,0.9583132863044739 2.623178482055664,1.3241435289382935 3.3194847106933594,1.6966197490692139 4.011070251464844,2.075590133666992 4.69767427444458,2.460897922515869 5.379037857055664,2.8523826599121094 6.054907321929932,3.2498788833618164 6.725029468536377,3.65321683883667 7.389157295227051,4.062223434448242 8.047045707702637,4.476720809936523 8.69845199584961,4.89652681350708 9.343140602111816,5.321455955505371 9.980876922607422,5.751318454742432 10.611430168151855,6.185921669006348 11.234576225280762,6.625068187713623 11.850091934204102,7.068558216094971 12.457759857177734,7.5161871910095215 13.057366371154785,7.967748641967773 13.648704528808594,8.4230318069458 14.2315673828125,8.881821632385254 14.805756568908691,9.343904495239258 15.371077537536621,9.809059143066406 15.927336692810059,10.27706241607666 16.47435188293457,10.74769115447998 17.01194190979004,11.22071647644043 17.539928436279297,11.69590950012207 18.058141708374023,12.173035621643066 18.56641960144043,12.651862144470215 19.064598083496094,13.132150650024414 19.552522659301758,13.613664627075195 20.03004264831543,14.096159934997559 20.49701690673828,14.579398155212402 20.953304290771484,15.063131332397461 21.398771286010742,15.547117233276367 21.833290100097656,16.03110694885254 22.25674057006836,16.51485252380371 22.66900062561035,16.998106002807617 23.069963455200195,17.480613708496094 23.45952606201172,17.962127685546875 23.837583541870117,18.442392349243164 24.204044342041016,18.921159744262695 24.558822631835938,19.398174285888672 24.90183448791504,19.873180389404297 25.23300552368164,20.345928192138672 25.55225944519043,20.816162109375 25.859542846679688,21.283628463745117 26.154788970947266,21.748075485229492 26.437946319580078,22.209245681762695 26.708972930908203,22.666889190673828 26.967824935913086,23.12075424194336 27.21446990966797,23.570587158203125 27.44887924194336,24.01613998413086 27.671030044555664,24.457162857055664 27.880905151367188,24.893402099609375 28.078493118286133,25.324615478515625 28.2637939453125,25.75055503845215 28.43680763244629,26.170976638793945 28.597537994384766,26.58563804626465 28.746004104614258,26.994293212890625 28.882219314575195,27.396711349487305 29.006216049194336,27.792644500732422 29.118019104003906,28.181867599487305 29.217666625976562,28.56414222717285 29.305204391479492,28.939237594604492 29.38067626953125,29.306928634643555 29.44413948059082,29.6669864654541 29.495656967163086,30.019189834594727 29.53528594970703,30.363317489624023 29.5631046295166,30.699155807495117 29.579185485839844,31.026487350463867 29.5836124420166,31.345104217529297 29.57647132873535,31.65479850769043 29.557857513427734,31.955364227294922 29.527864456176758,32.24660110473633 29.486602783203125,32.528316497802734 29.434173583984375,32.800315856933594 29.37069320678711,33.062408447265625 29.296279907226562,33.31440734863281 29.2110595703125,33.55613708496094 29.115158081054688,33.787418365478516 29.00870704650879,34.008079528808594 28.891849517822266,34.217952728271484 28.76472282409668,34.4168701171875 28.627477645874023,34.60467529296875 28.48026466369629,34.781219482421875 28.3232364654541,34.94634246826172 28.156557083129883,35.099910736083984 27.980388641357422,35.24177551269531 27.794902801513672,35.37180709838867 27.600265502929688,35.489871978759766 27.39665985107422,35.595848083496094 27.184263229370117,35.68961715698242 26.9632568359375,35.77105712890625 26.73383140563965,35.84007263183594 26.496177673339844,35.896549224853516 26.250486373901367,35.94039535522461 25.99695587158203,35.97151184082031 25.735790252685547,35.98982238769531 25.467187881469727,35.995235443115234 25.191360473632812,35.9876823425293 24.908510208129883,35.96709442138672 24.61885643005371,35.93340301513672 24.322607040405273,35.88655471801758 24.019983291625977,35.82649230957031 23.71120262145996,35.753173828125 23.396486282348633,35.666561126708984 23.0760555267334,35.56661605834961 22.750139236450195,35.45331573486328 22.418962478637695,35.32663345336914 22.082752227783203,35.186553955078125 21.741743087768555,35.0330696105957 21.39616584777832,34.866172790527344 21.046249389648438,34.685874938964844 20.692232131958008,34.49217987060547 20.334346771240234,34.285099029541016 19.972829818725586,34.064659118652344 19.607921600341797,33.83088302612305 19.23985481262207,33.58380889892578 18.868871688842773,33.32347106933594 18.495206832885742,33.04991912841797 18.119102478027344,32.763206481933594 17.740795135498047,32.46338653564453 17.36052703857422,32.15052795410156 16.978532791137695,31.82469940185547 16.595054626464844,31.485973358154297 16.2103271484375,31.134441375732422 15.824590682983398,30.770187377929688 15.438081741333008,30.393301010131836 15.051037788391113,30.003890991210938 14.663691520690918,29.60205841064453 14.276278495788574,29.187915802001953 13.889033317565918,28.761585235595703 13.50218677520752,28.32318878173828 13.115968704223633,27.872854232788086 12.730609893798828,27.41071891784668 12.346338272094727,26.93692398071289 11.96337604522705,26.451616287231445 11.581951141357422,25.95494842529297 11.202282905578613,25.44707489013672 10.824591636657715,24.928163528442383 10.449094772338867,24.398378372192383 10.076007843017578,23.857898712158203 9.705543518066406,23.306896209716797 9.337911605834961,22.745563507080078 8.973320007324219,22.174081802368164 8.61197280883789,21.592649459838867 8.254072189331055,21.00146484375 7.899816513061523,20.400728225708008 7.54940128326416,19.790653228759766 7.203019142150879,19.171451568603516 6.860860824584961,18.543336868286133 6.523108959197998,17.90653419494629 6.189948081970215,17.26127052307129 5.861556053161621,16.60777473449707 5.5381083488464355,15.946282386779785 5.2197747230529785,15.277029991149902 4.906723976135254,14.600262641906738 4.599118232727051,13.91622543334961 4.297117710113525,13.225168228149414 4.0008769035339355,12.527344703674316 3.7105467319488525,11.823012351989746 3.426274538040161,11.112430572509766 3.1482019424438477,10.39586353302002 2.876466989517212,9.673578262329102 2.6112029552459717,8.945844650268555 2.3525390625,8.212933540344238 2.1005990505218506,7.475121974945068 1.8555023670196533,6.732687473297119 1.6173641681671143,5.985909938812256 1.3862941265106201,5.235072135925293 1.1623972654342651,4.480459690093994 0.9457738995552063,3.7223596572875977 0.7365189790725708,2.9610605239868164 0.5347228646278381,2.1968538761138916 0.3404706120491028,1.4300317764282227 0.1538422703742981,0.6608887314796448 -0.02508731558918953,-0.11027967184782028 -0.1962483674287796,-0.8831765055656433 -0.35957640409469604,-1.657503604888916 -0.5150120854377747,-2.432961940765381 -0.662501335144043,-3.2092514038085938 -0.8019955158233643,-3.9860711097717285 -0.9334510564804077,-4.763119697570801 -1.0568296909332275,-5.540095806121826 -1.172098994255066,-6.3166961669921875 -1.279231071472168,-7.0926194190979 -1.3782039880752563,-7.867562770843506 -1.4690009355545044,-8.641222953796387 -1.5516105890274048,-9.413299560546875 -1.6260268688201904,-10.183488845825195 -1.692249059677124,-10.951491355895996 -1.7502820491790771,-11.717005729675293 -1.800135612487793,-12.479731559753418 -1.841825008392334,-13.239370346069336 -1.8753713369369507,-13.995624542236328 -1.9008002281188965,-14.74819564819336 -1.9181432723999023,-15.496790885925293 -1.9274365901947021,-16.24111557006836 -1.9287223815917969,-16.980876922607422 -1.9220471382141113,-17.715784072875977 -1.907463550567627,-18.44554901123047 -1.88502836227417,-19.169883728027344 -1.8548043966293335,-19.888505935668945 -1.8168587684631348,-20.601133346557617 -1.7712643146514893,-21.307483673095703 -1.7180980443954468,-22.007280349731445 -1.657442569732666,-22.70025062561035 -1.5893851518630981,-23.386123657226562 -1.514017939567566,-24.064626693725586 -1.4314374923706055,-24.73549461364746 -1.3417456150054932,-25.398468017578125 -1.2450482845306396,-26.05328369140625 -1.1414563655853271,-26.699687957763672 -1.0310851335525513,-27.337425231933594 -0.9140543937683105,-27.966251373291016 -0.7904881238937378,-28.585918426513672 -0.660514771938324,-29.196186065673828 -0.5242670178413391,-29.796815872192383 -0.3818816542625427,-30.387577056884766 -0.2334994375705719,-30.968238830566406 -0.07926525175571442,-31.538578033447266 0.08067217469215393,-32.09836959838867 0.24616029858589172,-32.647403717041016 0.4170428514480591,-33.18547058105469 0.5931599736213684,-33.71235656738281 0.7743481397628784,-34.22786331176758 0.9604406356811523,-34.7318000793457 1.1512669324874878,-35.223968505859375 1.346653938293457,-35.70418167114258 1.5464247465133667,-36.17226028442383 1.7503998279571533,-36.628028869628906 1.9583966732025146,-37.071311950683594 2.170229434967041,-37.501953125 2.3857104778289795,-37.91978454589844 2.6046488285064697,-38.32465362548828 2.8268508911132812,-38.71641159057617 3.05212140083313,-39.094913482666016 3.2802622318267822,-39.460025787353516 3.511073350906372,-39.811614990234375 3.744352340698242,-40.14955520629883 3.9798948764801025,-40.47372817993164 4.217495918273926,-40.784019470214844 4.456946849822998,-41.08031463623047 4.6980390548706055,-41.36252212524414 4.940561771392822,-41.63054275512695 5.184302806854248,-41.88428497314453 5.429048538208008,-42.12366485595703 5.674585342407227,-42.34860610961914 5.920698165893555,-42.559043884277344 6.167169570922852,-42.754905700683594 6.413784027099609,-42.936134338378906 6.660323143005371,-43.102684020996094 6.906569480895996,-43.25450134277344 7.152305603027344,-43.39155197143555 7.397311210632324,-43.5138053894043 7.641368865966797,-43.6212272644043 7.884260177612305,-43.71380615234375 8.12576675415039,-43.79152297973633 8.365669250488281,-43.854373931884766 8.603751182556152,-43.9023551940918 8.83979606628418,-43.93547821044922 9.073585510253906,-43.9537467956543 9.304905891418457,-43.95718765258789 9.533540725708008,-43.94581985473633 9.759278297424316,-43.919677734375 9.981904983520508,-43.8787956237793 10.20120906829834,-43.82322311401367 10.416980743408203,-43.75300598144531 10.629013061523438,-43.6682014465332 10.837098121643066,-43.56887435913086 11.041031837463379,-43.45509338378906 11.240612030029297,-43.32693099975586 11.435635566711426,-43.18446731567383 11.62590503692627,-43.02779769897461 11.811223983764648,-42.85700607299805 11.991398811340332,-42.67219543457031 12.166236877441406,-42.473472595214844 12.335550308227539,-42.260948181152344 12.499151229858398,-42.03473663330078 12.65685749053955,-41.794960021972656 12.808489799499512,-41.541751861572266 12.953866958618164,-41.27524185180664 13.092817306518555,-40.995567321777344 13.225168228149414,-40.702880859375 13.350752830505371,-40.39733123779297 13.469408988952637,-40.079063415527344 13.580972671508789,-39.74824905395508 13.685287475585938,-39.40505599975586 13.782200813293457,-39.049644470214844 13.871563911437988,-38.68220138549805 13.953230857849121,-38.30290222167969 14.027059555053711,-37.91193389892578 14.092913627624512,-37.50948715209961 14.15065860748291,-37.095760345458984 14.200165748596191,-36.67094802856445 14.241312026977539,-36.23525619506836 14.273977279663086,-35.78889465332031 14.29804515838623,-35.33207321166992 14.313403129577637,-34.86501693725586 14.31994915008545,-34.387935638427734 14.317578315734863,-33.901058197021484 14.306194305419922,-33.40461349487305 14.2857084274292,-32.898834228515625 14.256031036376953,-32.38396072387695 14.217080116271973,-31.86022186279297 14.168778419494629,-31.327869415283203 14.11105728149414,-30.78714370727539 14.043846130371094,-30.23829460144043 13.96708869934082,-29.68157386779785 13.880724906921387,-29.117237091064453 13.78470516204834,-28.545541763305664 13.678984642028809,-27.96674346923828 13.563522338867188,-27.38111114501953 13.438283920288086,-26.78890609741211 13.303241729736328,-26.190391540527344 13.158370018005371,-25.58584213256836 13.003652572631836,-24.975526809692383 12.839075088500977,-24.35971450805664 12.664630889892578,-23.738683700561523 12.480318069458008,-23.11271095275879 12.286142349243164,-22.48206901550293 12.082112312316895,-21.84703826904297 11.868242263793945,-21.207897186279297 11.644556045532227,-20.564929962158203 11.411075592041016,-19.918413162231445 11.167839050292969,-19.268632888793945 10.914878845214844,-18.615869522094727 10.652239799499512,-17.960405349731445 10.379972457885742,-17.30252456665039 10.098129272460938,-16.642513275146484 9.806772232055664,-15.980650901794434 9.505965232849121,-15.317222595214844 9.195780754089355,-14.652512550354004 8.87629508972168,-13.98680305480957 8.547590255737305,-13.320375442504883 8.20975399017334,-12.653512954711914 7.862878322601318,-11.986494064331055 7.507063865661621,-11.319601058959961 7.1424126625061035,-10.653112411499023 6.769034385681152,-9.987305641174316 6.3870439529418945,-9.322456359863281 5.9965596199035645,-8.65884017944336 5.597707271575928,-7.996730804443359 5.190616607666016,-7.336399555206299 4.7754225730896,-6.6781158447265625 4.352264404296875,-6.022148609161377 3.921288013458252,-5.368762493133545 3.482642650604248,-4.718222141265869 3.036482810974121,-4.0707879066467285 2.582968235015869,-3.4267187118530273 2.122262477874756,-2.786271333694458 1.6545346975326538,-2.1496987342834473 1.1799577474594116,-1.5172514915466309 0.6987091898918152,-0.889177680015564 0.2109711617231369,-0.26572173833847046 -0.2830701172351837,0.35287463665008545 -0.7832242250442505,0.9663733243942261 -1.2892965078353882,1.5745395421981812 -1.8010882139205933,2.1771416664123535 -2.318397045135498,2.7739522457122803 -2.8410165309906006,3.3647470474243164 -3.368736505508423,3.949305772781372 -3.9013431072235107,4.527411937713623 -4.438619136810303,5.098853588104248 -4.980343818664551,5.663422107696533 -5.52629280090332,6.220913887023926 -6.076239585876465,6.7711286544799805 -6.629952430725098,7.313870906829834 -7.187199115753174,7.848950386047363 -7.747742652893066,8.376179695129395 -8.3113431930542,8.895378112792969 -8.877760887145996,9.406367301940918 -9.446748733520508,9.908975601196289 -10.018061637878418,10.403036117553711 -10.591450691223145,10.888384819030762 -11.166664123535156,11.36486530303955 -11.743447303771973,11.83232593536377 -12.32154655456543,12.290617942810059 -12.900703430175781,12.739598274230957 -13.480660438537598,13.179131507873535 -14.061156272888184,13.609086990356445 -14.641928672790527,14.029335975646973 -15.222713470458984,14.43975830078125 -15.80324935913086,14.840238571166992 -16.383268356323242,15.230668067932129 -16.962505340576172,15.610940933227539 -17.54068946838379,15.980957984924316 -18.117557525634766,16.340625762939453 -18.692838668823242,16.68985939025879 -19.266265869140625,17.028575897216797 -19.837568283081055,17.3566951751709 -20.406476974487305,17.674150466918945 -20.972721099853516,17.980876922607422 -21.536035537719727,18.27681541442871 -22.096149444580078,18.561908721923828 -22.65279197692871,18.836116790771484 -23.205699920654297,19.099390029907227 -23.754600524902344,19.35169792175293 -24.29923439025879,19.593008041381836 -24.83932876586914,19.82329750061035 -25.374622344970703,20.042545318603516 -25.90485191345215,20.250741958618164 -26.429758071899414,20.4478759765625 -26.949077606201172,20.633953094482422 -27.46255111694336,20.808971405029297 -27.969919204711914,20.972942352294922 -28.470935821533203,21.125885009765625 -28.96533966064453,21.267818450927734 -29.452880859375,21.398771286010742 -29.93331527709961,21.518775939941406 -30.406391143798828,21.627872467041016 -30.87186622619629,21.726102828979492 -31.329500198364258,21.81351661682129 -31.779050827026367,21.89017105102539 -32.22028732299805,21.956125259399414 -32.652976989746094,22.011445999145508 -33.07688522338867,22.05620574951172 -33.491790771484375,22.090476989746094 -33.8974723815918,22.114347457885742 -34.293701171875,22.127899169921875 -34.68027114868164,22.131229400634766 -35.05696105957031,22.12442970275879 -35.4235725402832,22.10760498046875 -35.7798957824707,22.08086395263672 -36.125728607177734,22.044315338134766 -36.460880279541016,21.998079299926758 -36.78514862060547,21.942276000976562 -37.098358154296875,21.877031326293945 -37.40032196044922,21.802474975585938 -37.690853118896484,21.7187442779541 -37.969791412353516,21.625978469848633 -38.23695373535156,21.52431869506836 -38.492183685302734,21.413915634155273 -38.735321044921875,21.294921875 -38.96620559692383,21.167491912841797 -39.184696197509766,21.031787872314453 -39.39064025878906,20.887969970703125 -39.58390426635742,20.736207962036133 -39.76435089111328,20.576675415039062 -39.931854248046875,20.409543991088867 -40.08628845214844,20.23499298095703 -40.2275390625,20.053203582763672 -40.355491638183594,19.864362716674805 -40.47004318237305,19.668655395507812 -40.57108688354492,19.466276168823242 -40.658531188964844,19.257413864135742 -40.7322883605957,19.042266845703125 -40.792274475097656,18.82103729248047 -40.83841323852539,18.593923568725586 -40.870628356933594,18.361129760742188 -40.88886260986328,18.122865676879883 -40.89305114746094,17.879335403442383 -40.88314437866211,17.630754470825195 -40.859092712402344,17.377330780029297 -40.82085418701172,17.119281768798828 -40.76839828491211,16.856821060180664 -40.70169448852539,16.59016990661621 -40.620723724365234,16.319543838500977 -40.52546310424805,16.045166015625 -40.41590881347656,15.767256736755371 -40.292057037353516,15.486039161682129 -40.153907775878906,15.201736450195312 -40.0014762878418,14.914573669433594 -39.83477020263672,14.624775886535645 -39.6538200378418,14.332569122314453 -39.458648681640625,14.038177490234375 -39.249290466308594,13.741829872131348 -39.02579116821289,13.44375228881836 -38.78819274902344,13.144170761108398 -38.53654861450195,12.84331226348877 -38.27092361450195,12.541404724121094 -37.99138641357422,12.23867130279541 -37.697998046875,11.935338973999023 -37.39084243774414,11.631633758544922 -37.07000732421875,11.327778816223145 -36.73558044433594,11.02399730682373 -36.387657165527344,10.720512390136719 -36.026344299316406,10.417545318603516 -35.65174865722656,10.115317344665527 -35.26398849487305,9.814044952392578 -34.863182067871094,9.513946533203125 -34.4494514465332,9.215238571166992 -34.0229377746582,8.918134689331055 -33.583778381347656,8.622847557067871 -33.132110595703125,8.329587936401367 -32.668087005615234,8.038562774658203 -32.19186782836914,7.749979496002197 -31.703609466552734,7.464041233062744 -31.20347785949707,7.1809492111206055 -30.691648483276367,6.90090274810791 -30.168296813964844,6.624098777770996 -29.63360023498535,6.350729942321777 -29.08775520324707,6.080987453460693 -28.530946731567383,5.815059185028076 -27.96337890625,5.55312967300415 -27.38524627685547,5.295380592346191 -26.796762466430664,5.041990756988525 -26.198135375976562,4.793134689331055 -25.58958625793457,4.548984050750732 -24.97133445739746,4.3097076416015625 -24.34360122680664,4.07546854019165 -23.706621170043945,3.846428871154785 -23.060626983642578,3.6227447986602783 -22.405858993530273,3.404569149017334 -21.742555618286133,3.192051410675049 -21.070964813232422,2.9853363037109375 -20.39133644104004,2.784564256668091 -19.70392417907715,2.5898725986480713 -19.00898551940918,2.401393413543701 -18.306779861450195,2.2192542552948 -17.59757423400879,2.0435791015625 -16.88163185119629,1.8744865655899048 -16.159225463867188,1.7120912075042725 -15.430627822875977,1.5565029382705688 -14.696114540100098,1.4078266620635986 -13.955964088439941,1.2661627531051636 -13.210458755493164,1.1316066980361938 -12.459881782531738,1.0042493343353271 -11.704519271850586,0.8841761350631714 -10.944660186767578,0.771467924118042 -10.180594444274902,0.6662007570266724 -9.412614822387695,0.568445086479187 -8.64101505279541,0.47826671600341797 -7.866089344024658,0.39572617411613464 -7.088138103485107,0.3208787739276886 -6.307458400726318,0.2537747621536255 -5.524350643157959,0.19445917010307312 -4.7391157150268555,0.1429717093706131 -3.9520552158355713,0.09934690594673157 -3.1634726524353027,0.06361396610736847 -2.373671770095825,0.03579683601856232 -1.5829559564590454,0.01591414585709572 -0.7916305065155029,0.00397920235991478 2.207149664857494e-14,-8.108936190164402e-30 0.7916305065155029,0.00397920235991478 1.5829559564590454,0.01591414585709572 2.373671770095825,0.03579683601856232 3.1634726524353027,0.06361396610736847 3.9520552158355713,0.09934690594673157 4.7391157150268555,0.1429717093706131 5.524350643157959,0.19445917010307312 6.307458400726318,0.2537747621536255 7.088138103485107,0.3208787739276886 7.866089344024658,0.39572617411613464 8.64101505279541,0.47826671600341797 9.412614822387695,0.568445086479187 10.180594444274902,0.6662007570266724 10.944660186767578,0.771467924118042 11.704519271850586,0.8841761350631714 12.459881782531738,1.0042493343353271 13.210458755493164,1.1316066980361938 13.955964088439941,1.2661627531051636 14.696114540100098,1.4078266620635986 15.430627822875977,1.5565029382705688 16.159225463867188,1.7120912075042725 16.88163185119629,1.8744865655899048 17.59757423400879,2.0435791015625 18.306779861450195,2.2192542552948 19.00898551940918,2.401393413543701 19.70392417907715,2.5898725986480713 20.39133644104004,2.784564256668091 21.070964813232422,2.9853363037109375 21.742555618286133,3.192051410675049 22.405858993530273,3.404569149017334 23.060626983642578,3.6227447986602783 23.706621170043945,3.846428871154785 24.34360122680664,4.07546854019165 24.97133445739746,4.3097076416015625 25.58958625793457,4.548984050750732 26.198135375976562,4.793134689331055 26.796762466430664,5.041990756988525 27.38524627685547,5.295380592346191 27.96337890625,5.55312967300415 28.530946731567383,5.815059185028076 29.08775520324707,6.080987453460693 29.63360023498535,6.350729942321777 30.168296813964844,6.624098777770996 30.691648483276367,6.90090274810791 31.20347785949707,7.1809492111206055 31.703609466552734,7.464041233062744 32.19186782836914,7.749979496002197 32.668087005615234,8.038562774658203 33.132110595703125,8.329587936401367 33.583778381347656,8.622847557067871 34.0229377746582,8.918134689331055 34.4494514465332,9.215238571166992 34.863182067871094,9.513946533203125 35.26398849487305,9.814044952392578 35.65174865722656,10.115317344665527 36.026344299316406,10.417545318603516 36.387657165527344,10.720512390136719 36.73558044433594,11.02399730682373 37.07000732421875,11.327778816223145 37.39084243774414,11.631633758544922 37.697998046875,11.935338973999023 37.99138641357422,12.23867130279541 38.27092361450195,12.541404724121094 38.53654861450195,12.84331226348877 38.78819274902344,13.144170761108398 39.02579116821289,13.44375228881836 39.249290466308594,13.741829872131348 39.458648681640625,14.038177490234375 39.6538200378418,14.332569122314453 39.83477020263672,14.624775886535645 40.0014762878418,14.914573669433594 40.153907775878906,15.201736450195312 40.292057037353516,15.486039161682129 40.41590881347656,15.767256736755371 40.52546310424805,16.045166015625 40.620723724365234,16.319543838500977 40.70169448852539,16.59016990661621 40.76839828491211,16.856821060180664 40.82085418701172,17.119281768798828 40.859092712402344,17.377330780029297 40.88314437866211,17.630754470825195 40.89305114746094,17.879335403442383 40.88886260986328,18.122865676879883 40.870628356933594,18.361129760742188 40.83841323852539,18.593923568725586 40.792274475097656,18.82103729248047 40.7322883605957,19.042266845703125 40.658531188964844,19.257413864135742 40.57108688354492,19.466276168823242 40.47004318237305,19.668655395507812 40.355491638183594,19.864362716674805 40.2275390625,20.053203582763672 40.08628845214844,20.23499298095703 39.931854248046875,20.409543991088867 39.76435089111328,20.576675415039062 39.58390426635742,20.736207962036133 39.39064025878906,20.887969970703125 39.184696197509766,21.031787872314453 38.96620559692383,21.167491912841797 38.735321044921875,21.294921875 38.492183685302734,21.413915634155273 38.23695373535156,21.52431869506836 37.969791412353516,21.625978469848633 37.690853118896484,21.7187442779541 37.40032196044922,21.802474975585938 37.098358154296875,21.877031326293945 36.78514862060547,21.942276000976562 36.460880279541016,21.998079299926758 36.125728607177734,22.044315338134766 35.7798957824707,22.08086395263672 35.4235725402832,22.10760498046875 35.05696105957031,22.12442970275879 34.68027114868164,22.131229400634766 34.293701171875,22.127899169921875 33.8974723815918,22.114347457885742 33.491790771484375,22.090476989746094 33.07688522338867,22.05620574951172 32.652976989746094,22.011445999145508 32.22028732299805,21.956125259399414 31.779050827026367,21.89017105102539 31.329500198364258,21.81351661682129 30.87186622619629,21.726102828979492 30.406391143798828,21.627872467041016 29.93331527709961,21.518775939941406 29.452880859375,21.398771286010742 28.96533966064453,21.267818450927734 28.470935821533203,21.125885009765625 27.969919204711914,20.972942352294922 27.46255111694336,20.808971405029297 26.949077606201172,20.633953094482422 26.429758071899414,20.4478759765625 25.90485191345215,20.250741958618164 25.374622344970703,20.042545318603516 24.83932876586914,19.82329750061035 24.29923439025879,19.593008041381836 23.754600524902344,19.35169792175293 23.205699920654297,19.099390029907227 22.65279197692871,18.836116790771484 22.096149444580078,18.561908721923828 21.536035537719727,18.27681541442871 20.972721099853516,17.980876922607422 20.406476974487305,17.674150466918945 19.837568283081055,17.3566951751709 19.266265869140625,17.028575897216797 18.692838668823242,16.68985939025879 18.117557525634766,16.340625762939453 17.54068946838379,15.980957984924316 16.962505340576172,15.610940933227539 16.383268356323242,15.230668067932129 15.80324935913086,14.840238571166992 15.222713470458984,14.43975830078125 14.641928672790527,14.029335975646973 14.061156272888184,13.609086990356445 13.480660438537598,13.179131507873535 12.900703430175781,12.739598274230957 12.32154655456543,12.290617942810059 11.743447303771973,11.83232593536377 11.166664123535156,11.36486530303955 10.591450691223145,10.888384819030762 10.018061637878418,10.403036117553711 9.446748733520508,9.908975601196289 8.877760887145996,9.406367301940918 8.3113431930542,8.895378112792969 7.747742652893066,8.376179695129395 7.187199115753174,7.848950386047363 6.629952430725098,7.313870906829834 6.076239585876465,6.7711286544799805 5.52629280090332,6.220913887023926 4.980343818664551,5.663422107696533 4.438619136810303,5.098853588104248 3.9013431072235107,4.527411937713623 3.368736505508423,3.949305772781372 2.8410165309906006,3.3647470474243164 2.318397045135498,2.7739522457122803 1.8010882139205933,2.1771416664123535 1.2892965078353882,1.5745395421981812 0.7832242250442505,0.9663733243942261 0.2830701172351837,0.35287463665008545 -0.2109711617231369,-0.26572173833847046 -0.6987091898918152,-0.889177680015564 -1.1799577474594116,-1.5172514915466309 -1.6545346975326538,-2.1496987342834473 -2.122262477874756,-2.786271333694458 -2.582968235015869,-3.4267187118530273 -3.036482810974121,-4.0707879066467285 -3.482642650604248,-4.718222141265869 -3.921288013458252,-5.368762493133545 -4.352264404296875,-6.022148609161377 -4.7754225730896,-6.6781158447265625 -5.190616607666016,-7.336399555206299 -5.597707271575928,-7.996730804443359 -5.9965596199035645,-8.65884017944336 -6.3870439529418945,-9.322456359863281 -6.769034385681152,-9.987305641174316 -7.1424126625061035,-10.653112411499023 -7.507063865661621,-11.319601058959961 -7.862878322601318,-11.986494064331055 -8.20975399017334,-12.653512954711914 -8.547590255737305,-13.320375442504883 -8.87629508972168,-13.98680305480957 -9.195780754089355,-14.652512550354004 -9.505965232849121,-15.317222595214844 -9.806772232055664,-15.980650901794434 -10.098129272460938,-16.642513275146484 -10.379972457885742,-17.30252456665039 -10.652239799499512,-17.960405349731445 -10.914878845214844,-18.615869522094727 -11.167839050292969,-19.268632888793945 -11.411075592041016,-19.918413162231445 -11.644556045532227,-20.564929962158203 -11.868242263793945,-21.207897186279297 -12.082112312316895,-21.84703826904297 -12.286142349243164,-22.48206901550293 -12.480318069458008,-23.11271095275879 -12.664630889892578,-23.738683700561523 -12.839075088500977,-24.35971450805664 -13.003652572631836,-24.975526809692383 -13.158370018005371,-25.58584213256836 -13.303241729736328,-26.190391540527344 -13.438283920288086,-26.78890609741211 -13.563522338867188,-27.38111114501953 -13.678984642028809,-27.96674346923828 -13.78470516204834,-28.545541763305664 -13.880724906921387,-29.117237091064453 -13.96708869934082,-29.68157386779785 -14.043846130371094,-30.23829460144043 -14.11105728149414,-30.78714370727539 -14.168778419494629,-31.327869415283203 -14.217080116271973,-31.86022186279297 -14.256031036376953,-32.38396072387695 -14.2857084274292,-32.898834228515625 -14.306194305419922,-33.40461349487305 -14.317578315734863,-33.901058197021484 -14.31994915008545,-34.387935638427734 -14.313403129577637,-34.86501693725586 -14.29804515838623,-35.33207321166992 -14.273977279663086,-35.78889465332031 -14.241312026977539,-36.23525619506836 -14.200165748596191,-36.67094802856445 -14.15065860748291,-37.095760345458984 -14.092913627624512,-37.50948715209961 -14.027059555053711,-37.91193389892578 -13.953230857849121,-38.30290222167969 -13.871563911437988,-38.68220138549805 -13.782200813293457,-39.049644470214844 -13.685287475585938,-39.40505599975586 -13.580972671508789,-39.74824905395508 -13.469408988952637,-40.079063415527344 -13.350752830505371,-40.39733123779297 -13.225168228149414,-40.702880859375 -13.092817306518555,-40.995567321777344 -12.953866958618164,-41.27524185180664 -12.808489799499512,-41.541751861572266 -12.65685749053955,-41.794960021972656 -12.499151229858398,-42.03473663330078 -12.335550308227539,-42.260948181152344 -12.166236877441406,-42.473472595214844 -11.991398811340332,-42.67219543457031 -11.811223983764648,-42.85700607299805 -11.62590503692627,-43.02779769897461 -11.435635566711426,-43.18446731567383 -11.240612030029297,-43.32693099975586 -11.041031837463379,-43.45509338378906 -10.837098121643066,-43.56887435913086 -10.629013061523438,-43.6682014465332 -10.416980743408203,-43.75300598144531 -10.20120906829834,-43.82322311401367 -9.981904983520508,-43.8787956237793 -9.759278297424316,-43.919677734375 -9.533540725708008,-43.94581985473633 -9.304905891418457,-43.95718765258789 -9.073585510253906,-43.9537467956543 -8.83979606628418,-43.93547821044922 -8.603751182556152,-43.9023551940918 -8.365669250488281,-43.854373931884766 -8.12576675415039,-43.79152297973633 -7.884260177612305,-43.71380615234375 -7.641368865966797,-43.6212272644043 -7.397311210632324,-43.5138053894043 -7.152305603027344,-43.39155197143555 -6.906569480895996,-43.25450134277344 -6.660323143005371,-43.102684020996094 -6.413784027099609,-42.936134338378906 -6.167169570922852,-42.754905700683594 -5.920698165893555,-42.559043884277344 -5.674585342407227,-42.34860610961914 -5.429048538208008,-42.12366485595703 -5.184302806854248,-41.88428497314453 -4.940561771392822,-41.63054275512695 -4.6980390548706055,-41.36252212524414 -4.456946849822998,-41.08031463623047 -4.217495918273926,-40.784019470214844 -3.9798948764801025,-40.47372817993164 -3.744352340698242,-40.14955520629883 -3.511073350906372,-39.811614990234375 -3.2802622318267822,-39.460025787353516 -3.05212140083313,-39.094913482666016 -2.8268508911132812,-38.71641159057617 -2.6046488285064697,-38.32465362548828 -2.3857104778289795,-37.91978454589844 -2.170229434967041,-37.501953125 -1.9583966732025146,-37.071311950683594 -1.7503998279571533,-36.628028869628906 -1.5464247465133667,-36.17226028442383 -1.346653938293457,-35.70418167114258 -1.1512669324874878,-35.223968505859375 -0.9604406356811523,-34.7318000793457 -0.7743481397628784,-34.22786331176758 -0.5931599736213684,-33.71235656738281 -0.4170428514480591,-33.18547058105469 -0.24616029858589172,-32.647403717041016 -0.08067217469215393,-32.09836959838867 0.07926525175571442,-31.538578033447266 0.2334994375705719,-30.968238830566406 0.3818816542625427,-30.387577056884766 0.5242670178413391,-29.796815872192383 0.660514771938324,-29.196186065673828 0.7904881238937378,-28.585918426513672 0.9140543937683105,-27.966251373291016 1.0310851335525513,-27.337425231933594 1.1414563655853271,-26.699687957763672 1.2450482845306396,-26.05328369140625 1.3417456150054932,-25.398468017578125 1.4314374923706055,-24.73549461364746 1.514017939567566,-24.064626693725586 1.5893851518630981,-23.386123657226562 1.657442569732666,-22.70025062561035 1.7180980443954468,-22.007280349731445 1.7712643146514893,-21.307483673095703 1.8168587684631348,-20.601133346557617 1.8548043966293335,-19.888505935668945 1.88502836227417,-19.169883728027344 1.907463550567627,-18.44554901123047 1.9220471382141113,-17.715784072875977 1.9287223815917969,-16.980876922607422 1.9274365901947021,-16.24111557006836 1.9181432723999023,-15.496790885925293 1.9008002281188965,-14.74819564819336 1.8753713369369507,-13.995624542236328 1.841825008392334,-13.239370346069336 1.800135612487793,-12.479731559753418 1.7502820491790771,-11.717005729675293 1.692249059677124,-10.951491355895996 1.6260268688201904,-10.183488845825195 1.5516105890274048,-9.413299560546875 1.4690009355545044,-8.641222953796387 1.3782039880752563,-7.867562770843506 1.279231071472168,-7.0926194190979 1.172098994255066,-6.3166961669921875 1.0568296909332275,-5.540095806121826 0.9334510564804077,-4.763119697570801 0.8019955158233643,-3.9860711097717285 0.662501335144043,-3.2092514038085938 0.5150120854377747,-2.432961940765381 0.35957640409469604,-1.657503604888916 0.1962483674287796,-0.8831765055656433 0.02508731558918953,-0.11027967184782028 -0.1538422703742981,0.6608887314796448 -0.3404706120491028,1.4300317764282227 -0.5347228646278381,2.1968538761138916 -0.7365189790725708,2.9610605239868164 -0.9457738995552063,3.7223596572875977 -1.1623972654342651,4.480459690093994 -1.3862941265106201,5.235072135925293 -1.6173641681671143,5.985909938812256 -1.8555023670196533,6.732687473297119 -2.1005990505218506,7.475121974945068 -2.3525390625,8.212933540344238 -2.6112029552459717,8.945844650268555 -2.876466989517212,9.673578262329102 -3.1482019424438477,10.39586353302002 -3.426274538040161,11.112430572509766 -3.7105467319488525,11.823012351989746 -4.0008769035339355,12.527344703674316 -4.297117710113525,13.225168228149414 -4.599118232727051,13.91622543334961 -4.906723976135254,14.600262641906738 -5.2197747230529785,15.277029991149902 -5.5381083488464355,15.946282386779785 -5.861556053161621,16.60777473449707 -6.189948081970215,17.26127052307129 -6.523108959197998,17.90653419494629 -6.860860824584961,18.543336868286133 -7.203019142150879,19.171451568603516 -7.54940128326416,19.790653228759766 -7.899816513061523,20.400728225708008 -8.254072189331055,21.00146484375 -8.61197280883789,21.592649459838867 -8.973320007324219,22.174081802368164 -9.337911605834961,22.745563507080078 -9.705543518066406,23.306896209716797 -10.076007843017578,23.857898712158203 -10.449094772338867,24.398378372192383 -10.824591636657715,24.928163528442383 -11.202282905578613,25.44707489013672 -11.581951141357422,25.95494842529297 -11.96337604522705,26.451616287231445 -12.346338272094727,26.93692398071289 -12.730609893798828,27.41071891784668 -13.115968704223633,27.872854232788086 -13.50218677520752,28.32318878173828 -13.889033317565918,28.761585235595703 -14.276278495788574,29.187915802001953 -14.663691520690918,29.60205841064453 -15.051037788391113,30.003890991210938 -15.438081741333008,30.393301010131836 -15.824590682983398,30.770187377929688 -16.2103271484375,31.134441375732422 -16.595054626464844,31.485973358154297 -16.978532791137695,31.82469940185547 -17.36052703857422,32.15052795410156 -17.740795135498047,32.46338653564453 -18.119102478027344,32.763206481933594 -18.495206832885742,33.04991912841797 -18.868871688842773,33.32347106933594 -19.23985481262207,33.58380889892578 -19.607921600341797,33.83088302612305 -19.972829818725586,34.064659118652344 -20.334346771240234,34.285099029541016 -20.692232131958008,34.49217987060547 -21.046249389648438,34.685874938964844 -21.39616584777832,34.866172790527344 -21.741743087768555,35.0330696105957 -22.082752227783203,35.186553955078125 -22.418962478637695,35.32663345336914 -22.750139236450195,35.45331573486328 -23.0760555267334,35.56661605834961 -23.396486282348633,35.666561126708984 -23.71120262145996,35.753173828125 -24.019983291625977,35.82649230957031 -24.322607040405273,35.88655471801758 -24.61885643005371,35.93340301513672 -24.908510208129883,35.96709442138672 -25.191360473632812,35.9876823425293 -25.467187881469727,35.995235443115234 -25.735790252685547,35.98982238769531 -25.99695587158203,35.97151184082031 -26.250486373901367,35.94039535522461 -26.496177673339844,35.896549224853516 -26.73383140563965,35.84007263183594 -26.9632568359375,35.77105712890625 -27.184263229370117,35.68961715698242 -27.39665985107422,35.595848083496094 -27.600265502929688,35.489871978759766 -27.794902801513672,35.37180709838867 -27.980388641357422,35.24177551269531 -28.156557083129883,35.099910736083984 -28.3232364654541,34.94634246826172 -28.48026466369629,34.781219482421875 -28.627477645874023,34.60467529296875 -28.76472282409668,34.4168701171875 -28.891849517822266,34.217952728271484 -29.00870704650879,34.008079528808594 -29.115158081054688,33.787418365478516 -29.2110595703125,33.55613708496094 -29.296279907226562,33.31440734863281 -29.37069320678711,33.062408447265625 -29.434173583984375,32.800315856933594 -29.486602783203125,32.528316497802734 -29.527864456176758,32.24660110473633 -29.557857513427734,31.955364227294922 -29.57647132873535,31.65479850769043 -29.5836124420166,31.345104217529297 -29.579185485839844,31.026487350463867 -29.5631046295166,30.699155807495117 -29.53528594970703,30.363317489624023 -29.495656967163086,30.019189834594727 -29.44413948059082,29.6669864654541 -29.38067626953125,29.306928634643555 -29.305204391479492,28.939237594604492 -29.217666625976562,28.56414222717285 -29.118019104003906,28.181867599487305 -29.006216049194336,27.792644500732422 -28.882219314575195,27.396711349487305 -28.746004104614258,26.994293212890625 -28.597537994384766,26.58563804626465 -28.43680763244629,26.170976638793945 -28.2637939453125,25.75055503845215 -28.078493118286133,25.324615478515625 -27.880905151367188,24.893402099609375 -27.671030044555664,24.457162857055664 -27.44887924194336,24.01613998413086 -27.21446990966797,23.570587158203125 -26.967824935913086,23.12075424194336 -26.708972930908203,22.666889190673828 -26.437946319580078,22.209245681762695 -26.154788970947266,21.748075485229492 -25.859542846679688,21.283628463745117 -25.55225944519043,20.816162109375 -25.23300552368164,20.345928192138672 -24.90183448791504,19.873180389404297 -24.558822631835938,19.398174285888672 -24.204044342041016,18.921159744262695 -23.837583541870117,18.442392349243164 -23.45952606201172,17.962127685546875 -23.069963455200195,17.480613708496094 -22.66900062561035,16.998106002807617 -22.25674057006836,16.51485252380371 -21.833290100097656,16.03110694885254 -21.398771286010742,15.547117233276367 -20.953304290771484,15.063131332397461 -20.49701690673828,14.579398155212402 -20.03004264831543,14.096159934997559 -19.552522659301758,13.613664627075195 -19.064598083496094,13.132150650024414 -18.56641960144043,12.651862144470215 -18.058141708374023,12.173035621643066 -17.539928436279297,11.69590950012207 -17.01194190979004,11.22071647644043 -16.47435188293457,10.74769115447998 -15.927336692810059,10.27706241607666 -15.371077537536621,9.809059143066406 -14.805756568908691,9.343904495239258 -14.2315673828125,8.881821632385254 -13.648704528808594,8.4230318069458 -13.057366371154785,7.967748641967773 -12.457759857177734,7.5161871910095215 -11.850091934204102,7.068558216094971 -11.234576225280762,6.625068187713623 -10.611430168151855,6.185921669006348 -9.980876922607422,5.751318454742432 -9.343140602111816,5.321455955505371 -8.69845199584961,4.89652681350708 -8.047045707702637,4.476720809936523 -7.389157295227051,4.062223434448242 -6.725029468536377,3.65321683883667 -6.054907321929932,3.2498788833618164 -5.379037857055664,2.8523826599121094 -4.69767427444458,2.460897922515869 -4.011070251464844,2.075590133666992 -3.3194847106933594,1.6966197490692139 -2.623178482055664,1.3241435289382935 -1.9224152565002441,0.9583132863044739 -1.217462182044983,0.5992767810821533 -0.5085883140563965,0.2471766471862793 0.20393423736095428,-0.09784899652004242 0.9198311567306519,-0.4356667399406433 1.6388260126113892,-0.766148030757904 2.360639810562134,-1.0891692638397217 3.084991931915283,-1.4046114683151245 3.8115997314453125,-1.7123610973358154 4.5401787757873535,-2.0123095512390137 5.270442962646484,-2.3043527603149414 6.00210428237915,-2.588392734527588 6.734875202178955,-2.864335775375366 7.4684648513793945,-3.132093667984009 8.202581405639648,-3.3915839195251465 8.936933517456055,-3.642728805541992 9.67122745513916,-3.885456085205078 10.405170440673828,-4.119698524475098 11.138467788696289,-4.345395088195801 11.870823860168457,-4.562488555908203 12.601945877075195,-4.770929336547852 13.331537246704102,-4.970671653747559 14.059304237365723,-5.161675453186035 14.784950256347656,-5.343906402587891 15.50818157196045,-5.517335891723633 16.22870445251465,-5.681939125061035 16.946224212646484,-5.837699890136719 17.66044807434082,-5.9846038818359375 18.37108612060547,-6.122644424438477 19.077844619750977,-6.251821041107178 19.780433654785156,-6.372135162353516 20.478567123413086,-6.483597755432129 21.171953201293945,-6.5862226486206055 21.86031150817871,-6.680030345916748 22.54335594177246,-6.765046119689941 23.22079849243164,-6.841300010681152 23.892366409301758,-6.908827781677246 24.55777931213379,-6.967672348022461 25.216758728027344,-7.017878532409668 25.86903190612793,-7.0594987869262695 26.514328002929688,-7.092590808868408 27.152379989624023,-7.117215633392334 27.782917022705078,-7.133440971374512 28.405677795410156,-7.141337871551514 29.020404815673828,-7.14098596572876 29.6268367767334,-7.132465362548828 30.224721908569336,-7.115863800048828 30.813806533813477,-7.091273307800293 31.393848419189453,-7.05879020690918 31.964601516723633,-7.0185160636901855 32.52582550048828,-6.970557689666748 33.0772819519043,-6.915024757385254 33.61874008178711,-6.85203218460083 34.14997482299805,-6.781700134277344 34.67076110839844,-6.704152584075928 35.18087387084961,-6.6195173263549805 35.68010330200195,-6.527927398681641 36.168235778808594,-6.429518699645996 36.64506149291992,-6.324432373046875 37.11038589477539,-6.2128119468688965 37.564002990722656,-6.09480619430542 38.00572967529297,-5.970568656921387 38.43537521362305,-5.8402533531188965 38.852752685546875,-5.7040205001831055 39.257686614990234,-5.562032699584961 39.65000915527344,-5.414456844329834 40.02954864501953,-5.26146125793457 40.396148681640625,-5.103220462799072 40.74964904785156,-4.939908981323242 41.089900970458984,-4.771707057952881 41.4167594909668,-4.598794460296631 41.730079650878906,-4.421357154846191 42.02973937988281,-4.239582538604736 42.31560134887695,-4.053658962249756 42.587547302246094,-3.863779306411743 42.845458984375,-3.670138359069824 43.089229583740234,-3.4729323387145996 43.31875228881836,-3.27236008644104 43.53392791748047,-3.068622350692749 43.73466873168945,-2.861922025680542 43.92088317871094,-2.652462959289551 44.092498779296875,-2.4404513835906982 44.24943542480469,-2.2260942459106445 44.39162826538086,-2.00960111618042 44.519020080566406,-1.7911816835403442 44.631553649902344,-1.5710469484329224 44.72917938232422,-1.3494093418121338 44.81185531616211,-1.1264818906784058 44.87955093383789,-0.9024785161018372 44.932228088378906,-0.6776134371757507 44.969871520996094,-0.4521017074584961 44.992469787597656,-0.22615870833396912 45,-2.204364281713743e-14"
  />
</svg>
