<?xml version="1.0" encoding="UTF-8"?>
<!DOCTYPE svg>
<svg
  data-animation-duration="3s"
  viewBox="-50 -50 100 100"
>
  <title>
    ANIMATION 31 - VARIATION M
  </title>
  <desc>
    <p>See this animation in action here: <a href="https://andrew.wang-hoyer.com/experiments/svg-animations/31/m" target="_blank" rel="noopener">https://andrew.wang-hoyer.com/experiments/svg-animations/31/m</a>.</p>
    <p>Generator source code : <a href="https://github.com/ndrwhr/svg-animation-src/tree/master/site/_svgs/generators/animations/31/m.js" target="_blank" rel="noopener">https://github.com/ndrwhr/svg-animation-src/tree/master/site/_svgs/generators/animations/31/m.js</a>.</p>
    <p>All generated files and source code are released under the following license:</p>
    <p>MIT License</p>
    <p>Copyright (c) 2018-present Andrew Hoyer</p>
    <p>Permission is hereby granted, free of charge, to any person obtaining a copy of this software and associated documentation files (the &quot;Software&quot;), to deal in the Software without restriction, including without limitation the rights to use, copy, modify, merge, publish, distribute, sublicense, and/or sell copies of the Software, and to permit persons to whom the Software is furnished to do so, subject to the following conditions:</p>
    <p>The above copyright notice and this permission notice shall be included in all copies or substantial portions of the Software.</p>
    <p>THE SOFTWARE IS PROVIDED &quot;AS IS&quot;, WITHOUT WARRANTY OF ANY KIND, EXPRESS OR IMPLIED, INCLUDING BUT NOT LIMITED TO THE WARRANTIES OF MERCHANTABILITY, FITNESS FOR A PARTICULAR PURPOSE AND NONINFRINGEMENT. IN NO EVENT SHALL THE AUTHORS OR COPYRIGHT HOLDERS BE LIABLE FOR ANY CLAIM, DAMAGES OR OTHER LIABILITY, WHETHER IN AN ACTION OF CONTRACT, TORT OR OTHERWISE, ARISING FROM, OUT OF OR IN CONNECTION WITH THE SOFTWARE OR THE USE OR OTHER DEALINGS IN THE SOFTWARE.</p>
  </desc>
  <style>
    /* <![CDATA[ */
      .svg-31-m-polyline {
        stroke: black;
        stroke-width: .1;
        fill: none;
        stroke-dasharray: 4%, 4%, 1%, 1%;
        animation: svg-31-m-main-anim 3s linear infinite;
      }
      
      @keyframes svg-31-m-main-anim {
        from {
          stroke-dashoffset: 0;
        }
      
        to {
          stroke-dashoffset: 10%;
        }
      }
      
    /* ]]> */
  </style>
  <polyline
    class="svg-31-m-polyline"
    points="45,0 43.786563873291016,3.5291366577148438 40.23902893066406,6.528832912445068 34.62776184082031,8.52077579498291 27.377574920654297,9.124292373657227 19.031400680541992,8.094036102294922 10.204020500183105,5.345422267913818 1.5298795700073242,0.9655060768127441 -6.390384674072266,-4.7917609214782715 -13.04004192352295,-11.525497436523438 -18.02858543395996,-18.72138786315918 -21.122591018676758,-25.795740127563477 -22.262451171875,-32.14626693725586 -21.563549041748047,-37.20505905151367 -19.30190086364746,-40.489097595214844 -15.885549545288086,-41.64375305175781 -11.81440258026123,-40.475521087646484 -7.632081508636475,-36.97089385986328 -3.8741915225982666,-31.299819946289062 -1.0176312923431396,-23.803306579589844 0.5644813179969788,-14.966238021850586 0.6382149457931519,-5.377776145935059 -0.8686226010322571,4.317220211029053 -3.8588223457336426,13.47150993347168 -8.073707580566406,21.488861083984375 -13.115968704223633,27.872854232788086 -18.485382080078125,32.266849517822266 -23.624221801757812,34.48164367675781 -27.96831512451172,34.50843048095703 -30.99921226501465,32.515995025634766 -32.292720794677734,28.832483291625977 -31.55954933166504,23.913354873657227 -28.674304962158203,18.298521041870117 -23.69027328491211,12.562417984008789 -16.838539123535156,7.26157808303833 -8.511524200439453,2.8843038082122803 0.767749547958374,-0.19301630556583405 10.38796329498291,-1.7390944957733154 19.699726104736328,-1.6874767541885376 28.069316864013672,-0.14109297096729279 34.931278228759766,2.638758659362793 39.83522033691406,6.257975101470947 42.4827880859375,10.227450370788574 42.751522064208984,14.009697914123535 40.70359802246094,17.070104598999023 36.57865905761719,18.92818832397461 30.77142906188965,19.204235076904297 23.796140670776367,17.65711212158203 16.24088478088379,14.20981216430664 8.716014862060547,8.960371017456055 1.8010882139205933,2.1771416664123535 -4.004883289337158,-5.72126579284668 -8.325551986694336,-14.1996431350708 -10.937994956970215,-22.650535583496094 -11.789438247680664,-30.44540786743164 -10.998522758483887,-36.98810958862305 -8.841071128845215,-41.7659912109375 -5.7216715812683105,-44.394107818603516 -2.1336936950683594,-44.648651123046875 1.388641357421875,-42.48663330078125 4.321807384490967,-38.05009841918945 6.203474044799805,-31.654462814331055 6.6774067878723145,-23.76199722290039 5.5287041664123535,-14.94282341003418 2.7061736583709717,-5.826756477355957 -1.6702009439468384,2.94966721534729 -7.31742000579834,10.796415328979492 -13.812581062316895,17.21873664855957 -20.62892723083496,21.85723114013672 -27.18166160583496,24.515745162963867 -32.879486083984375,25.17465591430664 -37.177268981933594,23.988513946533203 -39.62520217895508,21.26822280883789 -39.910037994384766,17.449539184570312 -37.88471984863281,13.050671577453613 -33.583778381347656,8.622847557067871 -27.223020553588867,4.698318004608154 -19.183551788330078,1.74043869972229 -9.98143196105957,0.10034767538309097 -0.2256338745355606,-0.015904495492577553 9.432053565979004,1.4332001209259033 18.35080909729004,4.320365905761719 25.95353126525879,8.360757827758789 31.773998260498047,13.137836456298828 35.49424743652344,18.141443252563477 36.969051361083984,22.814727783203125 36.2352409362793,26.605749130249023 33.50526809692383,29.019079208374023 29.14551544189453,29.66283416748047 23.641403198242188,28.286836624145508 17.55242156982422,24.808530807495117 11.461100578308105,19.324199676513672 5.920497417449951,12.104483604431152 1.4048515558242798,3.5744709968566895 -1.7321760654449463,-5.719921588897705 -3.28800368309021,-15.156383514404297 -3.2276649475097656,-24.087596893310547 -1.6849464178085327,-31.895061492919922 1.0519416332244873,-38.04069519042969 4.568838596343994,-42.111637115478516 8.365669250488281,-43.854373931884766 11.904425621032715,-43.195186614990234 14.660768508911133,-40.245155334472656 16.174583435058594,-35.28929138183594 16.09494972229004,-28.760793685913086 14.215420722961426,-21.202707290649414 10.496424674987793,-13.22042465209961 5.072720527648926,-5.429178714752197 -1.7548367977142334,1.5987951755523682 -9.542566299438477,7.382784843444824 -17.74024772644043,11.573548316955566 -25.73728370666504,13.981184959411621 -32.91466522216797,14.588521003723145 -38.698204040527344,13.548885345458984 -42.608306884765625,11.16854190826416 -44.30189514160156,7.875415802001953 -43.60281753540039,4.176968574523926 -40.51793670654297,0.6110424399375916 -35.23762130737305,-2.305889844894409 -28.120405197143555,-4.128391265869141 -19.663267135620117,-4.525166034698486 -10.460083961486816,-3.3117053508758545 -1.1518985033035278,-0.4695183038711548 7.626637935638428,3.8498191833496094 15.299954414367676,9.336200714111328 21.398771286010742,15.547117233276367 25.59772300720215,21.946102142333984 27.740121841430664,27.950069427490234 27.847742080688477,32.98136520385742 26.114852905273438,36.51991271972656 22.887069702148438,38.150787353515625 18.62701988220215,37.60295486450195 13.869909286499023,34.77578353881836 9.173004150390625,29.750789642333984 5.063584804534912,22.787647247314453 1.990031123161316,14.304701805114746 0.28041478991508484,4.845617294311523 0.11232201009988785,-4.964876174926758 1.4965934753417969,-14.472354888916016 4.276440620422363,-23.046669006347656 8.142010688781738,-30.133808135986328 12.659102439880371,-35.30113220214844 17.3094482421875,-38.27204513549805 21.53896713256836,-38.947052001953125 24.80965232849121,-37.40948486328125 26.650436401367188,-33.91535568237305 26.702457427978516,-28.86835479736328 24.754657745361328,-22.78221893310547 20.766448974609375,-16.233869552612305 14.875405311584473,-9.811502456665039 7.389157295227051,-4.062223434448242 -1.2377902269363403,0.5560773015022278 -10.440414428710938,3.7143797874450684 -19.589502334594727,5.240197658538818 -28.043933868408203,5.130836486816406 -35.20433044433594,3.5510964393615723 -40.56339645385742,0.8156853914260864 -43.74850082397461,-2.642052412033081 -44.55278778076172,-6.3122429847717285 -42.952110290527344,-9.657622337341309 -39.10625457763672,-12.165268898010254 -33.34443283081055,-13.396265029907227 -26.13626480102539,-13.028783798217773 -18.050912857055664,-10.890725135803223 -9.707876205444336,-6.97890043258667 -1.7238781452178955,-1.4629898071289062 5.339528560638428,5.326125621795654 11.023005485534668,12.922714233398438 15.007013320922852,20.764928817749023 17.13664436340332,28.24254035949707 17.431594848632812,34.749473571777344 16.080419540405273,39.73652267456055 13.41970443725586,42.75955581665039 9.900050163269043,43.518978118896484 6.041968822479248,41.88692855834961 2.3857104778289795,37.91978454589844 -0.5604773759841919,31.85483741760254 -2.3689775466918945,24.091426849365234 -2.7339353561401367,15.1581392288208 -1.5011857748031616,5.668938159942627 1.3157367706298828,-3.7279281616210938 5.534969806671143,-12.403769493103027 10.8211669921875,-19.80135154724121 16.71452522277832,-25.48030662536621 22.671422958374023,-29.152103424072266 28.113075256347656,-30.70154571533203 32.47787094116211,-30.192977905273438 35.272735595703125,-27.860727310180664 36.118919372558594,-24.084680557250977 34.788116455078125,-19.353275299072266 31.225658416748047,-14.21718978881836 25.55865478515625,-9.2379789352417 18.088336944580078,-4.936195373535156 9.2671480178833,-1.7436760663986206 -0.33740031719207764,0.03574800863862038 -10.088996887207031,0.2536175549030304 -19.33489990234375,-1.0701566934585571 -27.459819793701172,-3.749809980392456 -33.93663787841797,-7.451518535614014 -38.369476318359375,-11.724868774414062 -40.52546310424805,-16.045166015625 -40.3523063659668,-19.862794876098633 -37.98030090332031,-22.655179977416992 -33.70856857299805,-23.9766902923584 -27.976808547973633,-23.501968383789062 -21.325103759765625,-21.058795928955078 -14.345381736755371,-16.6474609375 -7.628826141357422,-10.444872856140137 -1.713940978050232,-2.792956829071045 2.960160255432129,5.82773494720459 6.091100215911865,14.836883544921875 7.537933349609375,23.602397918701172 7.331048488616943,31.493345260620117 5.666438102722168,37.933135986328125 2.8849079608917236,42.448368072509766 -0.5618591904640198,44.70897674560547 -4.155314922332764,44.55618667602539 -7.360137939453125,42.01580047607422 -9.675884246826172,37.295692443847656 -10.685544967651367,30.767675399780273 -10.09659481048584,22.93539810180664 -7.770838260650635,14.391070365905762 -3.740314245223999,5.764864444732666 1.7922239303588867,-2.328594923019409 8.468348503112793,-9.34190845489502 15.80324935913086,-14.840238571166992 23.226715087890625,-18.536333084106445 30.132211685180664,-20.31219482421875 35.929744720458984,-20.225547790527344 40.0977783203125,-18.5006046295166 42.22968292236328,-15.504033088684082 42.07053756713867,-11.708321571350098 39.54100036621094,-7.645893096923828 34.74616241455078,-3.8581111431121826 27.968460083007812,-0.8437647223472595 19.64536476135254,0.9883162379264832 10.333661079406738,1.3582507371902466 0.6634928584098816,0.14219209551811218 -8.713837623596191,-2.6149394512176514 -17.179733276367188,-6.702243328094482 -24.19915008544922,-11.760916709899902 -29.36396026611328,-17.316030502319336 -32.42509460449219,-22.819189071655273 -33.31064987182617,-27.698274612426758 -32.12846374511719,-31.409828186035156 -29.152978897094727,-33.48941421508789 -24.797653198242188,-33.595420837402344 -19.575397491455078,-31.542375564575195 -14.050628662109375,-27.3207950592041 -8.787235260009766,-21.10167121887207 -4.297117710113525,-13.225168228149414 -0.993886411190033,-4.174483776092529 0.8441452980041504,5.462937355041504 1.0983856916427612,15.043436050415039 -0.18035776913166046,23.92024040222168 -2.7777888774871826,31.49699592590332 -6.337070941925049,37.27706527709961 -10.392915725708008,40.90424728393555 -14.415742874145508,42.19142532348633 -17.861928939819336,41.134586334228516 -20.22563362121582,37.91108703613281 -21.087514877319336,32.8623161315918 -20.15597152709961,26.462326049804688 -17.297117233276367,19.275243759155273 -12.550809860229492,11.905280113220215 -6.131198406219482,4.943720817565918 1.5883476734161377,-1.0823603868484497 10.104628562927246,-5.755167007446289 18.82581901550293,-8.801034927368164 27.120874404907227,-10.112034797668457 34.372833251953125,-9.75245475769043 40.03130340576172,-7.949647903442383 43.659542083740234,-5.070115089416504 44.97200393676758,-1.5830310583114624 43.85896682739258,1.985487461090088 40.396148681640625,5.103220462799072 34.83844757080078,7.283207416534424 27.598278045654297,8.130990982055664 19.21053695678711,7.383469104766846 10.287145614624023,4.935840606689453 1.4652644395828247,0.8541742563247681 -6.646317481994629,-4.627573490142822 -13.51790714263916,-11.12587833404541 -18.742300033569336,-18.13973045349121 -22.067066192626953,-25.093671798706055 -23.41292381286621,-31.38797378540039 -22.876665115356445,-36.45156478881836 -20.718433380126953,-39.79295349121094 -17.334566116333008,-41.04466247558594 -13.218520164489746,-39.997215270996094 -8.91335391998291,-36.61959457397461 -4.960141181945801,-31.06439781188965 -1.846894383430481,-23.657045364379883 0.037372805178165436,-14.870136260986328 0.43933477997779846,-5.284992218017578 -0.7345145344734192,4.456147193908691 -3.408456563949585,13.70317268371582 -7.343728065490723,21.85171890258789 -12.15974235534668,28.3927001953125 -17.368478775024414,32.953407287597656 -22.418962478637695,35.32663345336914 -26.747865676879883,35.48530578613281 -29.831724166870117,33.58138656616211 -31.236059188842773,29.929195404052734 -30.657018661499023,24.974756240844727 -27.951778411865234,19.25385284423828 -23.15491485595703,13.342643737792969 -16.479272842407227,7.80520486831665 -8.30112361907959,3.1426949501037598 0.8691112399101257,-0.25131624937057495 10.42806339263916,-2.1254043579101562 19.72896385192871,-2.3916594982147217 28.135215759277344,-1.1319944858551025 35.073307037353516,1.4111419916152954 40.080421447753906,4.858781337738037 42.842620849609375,8.73200511932373 43.220218658447266,12.497759819030762 41.258174896240234,15.619795799255371 37.18058395385742,17.610126495361328 31.369863510131836,18.07637596130371 24.332387924194336,16.760732650756836 16.653717041015625,13.566959381103516 8.947356224060059,8.573014259338379 1.8015927076339722,2.0280416011810303 -4.270908355712891,-5.666040420532227 -8.87629508972168,-13.98680305480957 -11.771727561950684,-22.334625244140625 -12.883768081665039,-30.083280563354492 -12.311399459838867,-36.633338928222656 -10.31346607208252,-41.46369552612305 -7.2817206382751465,-44.17668914794922 -3.7019567489624023,-44.532814025878906 -0.10674387216567993,-42.471946716308594 2.9759514331817627,-38.11924743652344 5.073625087738037,-31.775123596191406 5.814976692199707,-23.890233993530273 4.966409206390381,-15.02759075164795 2.455962896347046,-5.815211296081543 -1.6174781322479248,3.1066172122955322 -6.99060583114624,11.138797760009766 -13.257185935974121,17.77292823791504 -19.902774810791016,22.632537841796875 -26.349597930908203,25.502450942993164 -32.00760269165039,26.343774795532227 -36.32719421386719,25.293216705322266 -38.84893035888672,22.646942138671875 -39.24575424194336,18.830371856689453 -37.35400390625,14.356813430786133 -33.190391540527344,9.778535842895508 -26.95341682434082,5.634789943695068 -19.00898551940918,2.401393413543701 -9.86152458190918,0.44642946124076843 -0.11302722245454788,-0.003978599328547716 9.586392402648926,1.1132529973983765 18.592103958129883,3.6921274662017822 26.31805992126465,7.467108726501465 32.284767150878906,12.037393569946289 36.15789794921875,16.903749465942383 37.77427291870117,21.514619827270508 37.15287399291992,25.3173770904541 34.490081787109375,27.81011390686035 30.139524459838867,28.589344024658203 24.57846450805664,27.389299392700195 18.363685607910156,24.10927391052246 12.08084487915039,18.826520919799805 6.291838645935059,11.793473243713379 1.4848395586013794,3.419466018676758 -1.968559741973877,-5.761502265930176 -3.845280885696411,-15.134187698364258 -4.088974475860596,-24.052906036376953 -2.8129167556762695,-31.895305633544922 -0.28738120198249817,-38.11439514160156 3.087353229522705,-42.28424072265625 6.819900035858154,-44.13539123535156 10.37504768371582,-43.57687759399414 13.225168228149414,-40.702880859375 14.901107788085938,-35.783531188964844 15.037959098815918,-29.240615844726562 13.411585807800293,-21.610454559326172 9.962559700012207,-13.497097969055176 4.805335998535156,-5.520118713378906 -1.7782604694366455,1.738485336303711 -9.360692024230957,7.783547401428223 -17.403675079345703,12.247851371765137 -25.303394317626953,14.921499252319336 -32.44200897216797,15.766990661621094 -38.24092102050781,14.918739318847656 -42.21107482910156,12.66714096069336 -43.99590301513672,9.428691864013672 -43.403053283691406,5.7048726081848145 -40.422115325927734,2.0335500240325928 -35.226749420166016,-1.062735915184021 -28.160995483398438,-3.126913547515869 -19.710969924926758,-3.8114352226257324 -10.464408874511719,-2.9122676849365234 -1.0615712404251099,-0.3897409439086914 7.858150005340576,3.625650644302368 15.709268569946289,8.843050956726074 22.008251190185547,14.835813522338867 26.412368774414062,21.07868194580078 28.746004104614258,26.994293212890625 29.01211929321289,32.004886627197266 27.387998580932617,35.584590911865234 24.205669403076172,37.30766677856445 19.918842315673828,36.88835525512695 15.059358596801758,34.20880126953125 10.187092781066895,29.332447052001953 5.8377885818481445,22.501750946044922 2.4735283851623535,14.12028980255127 0.4402611255645752,4.7207865715026855 -0.063817098736763,-5.078136444091797 0.9938040375709534,-14.62277603149414 3.477296829223633,-23.27825355529785 7.095354080200195,-30.48082733154297 11.428404808044434,-35.7840461730957 15.967737197875977,-38.89468765258789 20.163036346435547,-39.69542694091797 23.474048614501953,-38.252201080322266 25.421751022338867,-34.805747985839844 25.63440704345703,-29.748096466064453 23.884368896484375,-23.58609962463379 20.112262725830078,-16.895341873168945 14.436368942260742,-10.268497467041016 7.1462483406066895,-4.262723922729492 -1.3188825845718384,0.6491994261741638 -10.405170440673828,4.119698524475098 -19.489530563354492,5.95557165145874 -27.931459426879883,6.13295316696167 -35.12674331665039,4.796776294708252 -40.558319091796875,2.244839906692505 -43.83985900878906,-1.1020479202270508 -44.74825668334961,-4.7411370277404785 -43.24211120605469,-8.1362943649292 -39.46467208862305,-10.769665718078613 -33.73092269897461,-12.191783905029297 -26.50002670288086,-12.06558895111084 -18.335487365722656,-10.200371742248535 -9.856630325317383,-6.572560787200928 -1.6856324672698975,-1.3314234018325806 5.605232238769531,5.210891246795654 11.541478157043457,12.604143142700195 15.785233497619629,20.297481536865234 18.161636352539062,27.68634033203125 18.67049789428711,34.16461944580078 17.4823055267334,39.17753982543945 14.918973922729492,42.2705078125 11.421120643615723,43.129661560058594 7.504903793334961,41.61048889160156 3.7122557163238525,37.751956939697266 0.5590705275535583,31.77487564086914 -1.514017939567566,24.064626693725586 -2.1838231086730957,15.139708518981934 -1.2759538888931274,5.60888147354126 1.217510461807251,-3.879385232925415 5.135627746582031,-12.690711975097656 10.161728858947754,-20.25716781616211 15.850937843322754,-26.123594284057617 21.669645309448242,-29.9838924407959 27.043426513671875,-31.704099655151367 31.40913963317871,-31.330299377441406 34.266578674316406,-29.080739974975586 35.22500991821289,-25.32292938232422 34.040504455566406,-20.53778648376465 30.64059829711914,-15.274168014526367 25.134132385253906,-10.097742080688477 17.805265426635742,-5.538905143737793 9.092150688171387,-2.0443360805511475 -0.44790858030319214,0.06345972418785095 -10.183815002441406,0.6150193214416504 -19.46258544921875,-0.3913712501525879 -27.66330337524414,-2.7904253005981445 -34.248355865478516,-6.265978813171387 -38.80754852294922,-10.381031036376953 -41.09119415283203,-14.618987083435059 -41.02931594848633,-18.432418823242188 -38.735321044921875,-21.294921875 -34.493892669677734,-22.75144386291504 -28.734155654907227,-22.462507247924805 -21.990577697753906,-20.238380432128906 -14.855072975158691,-16.06000328063965 -7.924585342407227,-10.084831237792969 -1.7487845420837402,-2.6369223594665527 3.2174830436706543,5.817895889282227 6.65279483795166,14.709657669067383 8.39540958404541,23.41141128540039 8.4548921585083,31.291790008544922 7.008133888244629,37.76836395263672 4.380170822143555,42.35711669921875 1.0115723609924316,44.71369171142578 -2.584623098373413,44.66274642944336 -5.872542858123779,42.212894439697266 -8.345186233520508,37.55583953857422 -9.5735445022583,31.04986000061035 -9.24868106842041,23.189056396484375 -7.212978839874268,14.56106948852539 -3.477689266204834,5.7970099449157715 1.7748371362686157,-2.4819939136505127 8.204486846923828,-9.716952323913574 15.34117603302002,-15.457283973693848 22.62466049194336,-19.397159576416016 29.452880859375,-21.398771286010742 35.23456573486328,-21.500516891479492 39.44142532348633,-19.909475326538086 41.655372619628906,-16.978891372680664 41.6064567565918,-13.172773361206055 39.19826126098633,-9.020812034606934 34.518367767333984,-5.067684173583984 27.832992553710938,-1.8213436603546143 19.56620216369629,0.2950737476348877 10.265493392944336,0.9833917021751404 0.5567433834075928,0.09897059947252274 -8.907547950744629,-2.33485746383667 -17.50218963623047,-6.1278076171875 -24.680706024169922,-10.939044952392578 -30.01972007751465,-16.307519912719727 -33.252464294433594,-21.693552017211914 -34.288509368896484,-26.5279483795166 -33.21804428100586,-30.26426887512207 -30.300390243530273,-32.42958450317383 -25.937843322753906,-32.66915512084961 -20.637235641479492,-30.781024932861328 -14.962635040283203,-26.737403869628906 -9.483501434326172,-20.690860748291016 -4.722868919372559,-12.964709281921387 -1.1102081537246704,-4.028388023376465 1.0568296909332275,5.540095806121826 1.6384005546569824,15.101370811462402 0.6638798117637634,24.00745964050293 -1.6722899675369263,31.655481338500977 -5.029922008514404,37.53757858276367 -8.95582103729248,41.28276062011719 -12.926980018615723,42.686946868896484 -16.40033721923828,41.7286262512207 -18.864633560180664,38.56882858276367 -19.889671325683594,33.53534698486328 -19.168535232543945,27.092741012573242 -16.548969268798828,19.800771713256836 -12.051018714904785,12.264918327331543 -5.869300842285156,5.083430767059326 1.6403629779815674,-1.204437494277954 9.988861083984375,-6.164430618286133 18.59382438659668,-9.503477096557617 26.82830238342285,-11.092903137207031 34.073814392089844,-10.976653099060059 39.77311325073242,-9.363859176635742 43.47800064086914,-6.606480598449707 44.88805389404297,-3.164072275161743 43.87671661376953,0.4411117434501648 40.502586364746094,3.6746199131011963 35.00478744506836,6.0413432121276855 27.782917022705078,7.133440971374512 19.36323356628418,6.670320510864258 10.354142189025879,4.52705717086792 1.3948216438293457,0.7486492395401001 -6.898453712463379,-4.451204776763916 -13.983612060546875,-10.706756591796875 -19.437206268310547,-17.530847549438477 -22.988086700439453,-24.356861114501953 -24.53740882873535,-30.588287353515625 -24.163286209106445,-35.651485443115234 -22.1097354888916,-39.04701614379883 -18.760988235473633,-40.394935607910156 -14.603534698486328,-39.47001647949219 -10.179312705993652,-36.2237663269043 -6.034300327301025,-30.79121971130371 -2.667119026184082,-23.481876373291016 -0.48227202892303467,-14.755513191223145 0.24778255820274353,-5.184978485107422 -0.5916809439659119,4.590817451477051 -2.9465181827545166,13.919608116149902 -6.598133087158203,22.18956756591797 -11.183066368103027,28.879497528076172 -16.226016998291016,33.60103988647461 -21.18333625793457,36.129234313964844 -25.493133544921875,36.41878890991211 -28.627477645874023,34.60467529296875 -30.142047882080078,30.987091064453125 -29.7187442779541,26.00213623046875 -27.197433471679688,20.180925369262695 -22.59394073486328,14.10072135925293 -16.102615356445312,8.33254623413086 -8.083155632019043,3.389880418777466 0.9671815037727356,-0.3169459402561188 10.453643798828125,-2.516645669937134 19.732797622680664,-3.099954128265381 28.165861129760742,-2.1276893615722656 35.17189407348633,0.17679472267627716 40.27617645263672,3.4500539302825928 43.14952850341797,7.223851203918457 43.635189056396484,10.970118522644043 41.76085662841797,14.151519775390625 37.73487091064453,16.273067474365234 31.926910400390625,16.93012237548828 24.834959030151367,15.84843921661377 17.041412353515625,12.912647247314453 9.162273406982422,8.18051528930664 1.7939174175262451,1.8816933631896973 -4.537894248962402,-5.599035739898682 -9.4222412109375,-13.752594947814941 -12.596640586853027,-21.98785400390625 -13.96708869934082,-29.68157386779785 -13.612822532653809,-36.231685638427734 -11.77545166015625,-41.10920333862305 -8.833497047424316,-43.904170989990234 -5.264678955078125,-44.36164093017578 -1.5993669033050537,-42.404422760009766 1.630576252937317,-38.1406364440918 3.9429564476013184,-31.855375289916992 4.95178747177124,-23.987167358398438 4.4050068855285645,-15.09132194519043 2.209954261779785,-5.793365478515625 -1.55570650100708,3.2633652687072754 -6.648648262023926,11.471364974975586 -12.679746627807617,18.309146881103516 -19.147424697875977,23.383586883544922 -25.481538772583008,26.460742950439453 -31.09392547607422,27.48250389099121 -35.43110275268555,26.567628860473633 -38.024471282958984,23.997222900390625 -38.533512115478516,20.185956954956055 -36.778114318847656,15.641695022583008 -32.75715255737305,10.917177200317383 -26.651565551757812,6.558090686798096 -18.811670303344727,3.0522170066833496 -9.729700088500977,0.7842003703117371 -6.394049244067002e-13,1.2528722215308147e-27 9.729700088500977,0.7842003703117371 18.811670303344727,3.0522170066833496 26.651565551757812,6.558090686798096 32.75715255737305,10.917177200317383 36.778114318847656,15.641695022583008 38.533512115478516,20.185956954956055 38.024471282958984,23.997222900390625 35.43110275268555,26.567628860473633 31.09392547607422,27.48250389099121 25.481538772583008,26.460742950439453 19.147424697875977,23.383586883544922 12.679746627807617,18.309146881103516 6.648648262023926,11.471364974975586 1.55570650100708,3.2633652687072754 -2.209954261779785,-5.793365478515625 -4.4050068855285645,-15.09132194519043 -4.95178747177124,-23.987167358398438 -3.9429564476013184,-31.855375289916992 -1.630576252937317,-38.1406364440918 1.5993669033050537,-42.404422760009766 5.264678955078125,-44.36164093017578 8.833497047424316,-43.904170989990234 11.77545166015625,-41.10920333862305 13.612822532653809,-36.231685638427734 13.96708869934082,-29.68157386779785 12.596640586853027,-21.98785400390625 9.4222412109375,-13.752594947814941 4.537894248962402,-5.599035739898682 -1.7939174175262451,1.8816933631896973 -9.162273406982422,8.18051528930664 -17.041412353515625,12.912647247314453 -24.834959030151367,15.84843921661377 -31.926910400390625,16.93012237548828 -37.73487091064453,16.273067474365234 -41.76085662841797,14.151519775390625 -43.635189056396484,10.970118522644043 -43.14952850341797,7.223851203918457 -40.27617645263672,3.4500539302825928 -35.17189407348633,0.17679472267627716 -28.165861129760742,-2.1276893615722656 -19.732797622680664,-3.099954128265381 -10.453643798828125,-2.516645669937134 -0.9671815037727356,-0.3169459402561188 8.083155632019043,3.389880418777466 16.102615356445312,8.33254623413086 22.59394073486328,14.10072135925293 27.197433471679688,20.180925369262695 29.7187442779541,26.00213623046875 30.142047882080078,30.987091064453125 28.627477645874023,34.60467529296875 25.493133544921875,36.41878890991211 21.18333625793457,36.129234313964844 16.226016998291016,33.60103988647461 11.183066368103027,28.879497528076172 6.598133087158203,22.18956756591797 2.9465181827545166,13.919608116149902 0.5916809439659119,4.590817451477051 -0.24778255820274353,-5.184978485107422 0.48227202892303467,-14.755513191223145 2.667119026184082,-23.481876373291016 6.034300327301025,-30.79121971130371 10.179312705993652,-36.2237663269043 14.603534698486328,-39.47001647949219 18.760988235473633,-40.394935607910156 22.1097354888916,-39.04701614379883 24.163286209106445,-35.651485443115234 24.53740882873535,-30.588287353515625 22.988086700439453,-24.356861114501953 19.437206268310547,-17.530847549438477 13.983612060546875,-10.706756591796875 6.898453712463379,-4.451204776763916 -1.3948216438293457,0.7486492395401001 -10.354142189025879,4.52705717086792 -19.36323356628418,6.670320510864258 -27.782917022705078,7.133440971374512 -35.00478744506836,6.0413432121276855 -40.502586364746094,3.6746199131011963 -43.87671661376953,0.4411117434501648 -44.88805389404297,-3.164072275161743 -43.47800064086914,-6.606480598449707 -39.77311325073242,-9.363859176635742 -34.073814392089844,-10.976653099060059 -26.82830238342285,-11.092903137207031 -18.59382438659668,-9.503477096557617 -9.988861083984375,-6.164430618286133 -1.6403629779815674,-1.204437494277954 5.869300842285156,5.083430767059326 12.051018714904785,12.264918327331543 16.548969268798828,19.800771713256836 19.168535232543945,27.092741012573242 19.889671325683594,33.53534698486328 18.864633560180664,38.56882858276367 16.40033721923828,41.7286262512207 12.926980018615723,42.686946868896484 8.95582103729248,41.28276062011719 5.029922008514404,37.53757858276367 1.6722899675369263,31.655481338500977 -0.6638798117637634,24.00745964050293 -1.6384005546569824,15.101370811462402 -1.0568296909332275,5.540095806121826 1.1102081537246704,-4.028388023376465 4.722868919372559,-12.964709281921387 9.483501434326172,-20.690860748291016 14.962635040283203,-26.737403869628906 20.637235641479492,-30.781024932861328 25.937843322753906,-32.66915512084961 30.300390243530273,-32.42958450317383 33.21804428100586,-30.26426887512207 34.288509368896484,-26.5279483795166 33.252464294433594,-21.693552017211914 30.01972007751465,-16.307519912719727 24.680706024169922,-10.939044952392578 17.50218963623047,-6.1278076171875 8.907547950744629,-2.33485746383667 -0.5567433834075928,0.09897059947252274 -10.265493392944336,0.9833917021751404 -19.56620216369629,0.2950737476348877 -27.832992553710938,-1.8213436603546143 -34.518367767333984,-5.067684173583984 -39.19826126098633,-9.020812034606934 -41.6064567565918,-13.172773361206055 -41.655372619628906,-16.978891372680664 -39.44142532348633,-19.909475326538086 -35.23456573486328,-21.500516891479492 -29.452880859375,-21.398771286010742 -22.62466049194336,-19.397159576416016 -15.34117603302002,-15.457283973693848 -8.204486846923828,-9.716952323913574 -1.7748371362686157,-2.4819939136505127 3.477689266204834,5.7970099449157715 7.212978839874268,14.56106948852539 9.24868106842041,23.189056396484375 9.5735445022583,31.04986000061035 8.345186233520508,37.55583953857422 5.872542858123779,42.212894439697266 2.584623098373413,44.66274642944336 -1.0115723609924316,44.71369171142578 -4.380170822143555,42.35711669921875 -7.008133888244629,37.76836395263672 -8.4548921585083,31.291790008544922 -8.39540958404541,23.41141128540039 -6.65279483795166,14.709657669067383 -3.2174830436706543,5.817895889282227 1.7487845420837402,-2.6369223594665527 7.924585342407227,-10.084831237792969 14.855072975158691,-16.06000328063965 21.990577697753906,-20.238380432128906 28.734155654907227,-22.462507247924805 34.493892669677734,-22.75144386291504 38.735321044921875,-21.294921875 41.02931594848633,-18.432418823242188 41.09119415283203,-14.618987083435059 38.80754852294922,-10.381031036376953 34.248355865478516,-6.265978813171387 27.66330337524414,-2.7904253005981445 19.46258544921875,-0.3913712501525879 10.183815002441406,0.6150193214416504 0.44790858030319214,0.06345972418785095 -9.092150688171387,-2.0443360805511475 -17.805265426635742,-5.538905143737793 -25.134132385253906,-10.097742080688477 -30.64059829711914,-15.274168014526367 -34.040504455566406,-20.53778648376465 -35.22500991821289,-25.32292938232422 -34.266578674316406,-29.080739974975586 -31.40913963317871,-31.330299377441406 -27.043426513671875,-31.704099655151367 -21.669645309448242,-29.9838924407959 -15.850937843322754,-26.123594284057617 -10.161728858947754,-20.25716781616211 -5.135627746582031,-12.690711975097656 -1.217510461807251,-3.879385232925415 1.2759538888931274,5.60888147354126 2.1838231086730957,15.139708518981934 1.514017939567566,24.064626693725586 -0.5590705275535583,31.77487564086914 -3.7122557163238525,37.751956939697266 -7.504903793334961,41.61048889160156 -11.421120643615723,43.129661560058594 -14.918973922729492,42.2705078125 -17.4823055267334,39.17753982543945 -18.67049789428711,34.16461944580078 -18.161636352539062,27.68634033203125 -15.785233497619629,20.297481536865234 -11.541478157043457,12.604143142700195 -5.605232238769531,5.210891246795654 1.6856324672698975,-1.3314234018325806 9.856630325317383,-6.572560787200928 18.335487365722656,-10.200371742248535 26.50002670288086,-12.06558895111084 33.73092269897461,-12.191783905029297 39.46467208862305,-10.769665718078613 43.24211120605469,-8.1362943649292 44.74825668334961,-4.7411370277404785 43.83985900878906,-1.1020479202270508 40.558319091796875,2.244839906692505 35.12674331665039,4.796776294708252 27.931459426879883,6.13295316696167 19.489530563354492,5.95557165145874 10.405170440673828,4.119698524475098 1.3188825845718384,0.6491994261741638 -7.1462483406066895,-4.262723922729492 -14.436368942260742,-10.268497467041016 -20.112262725830078,-16.895341873168945 -23.884368896484375,-23.58609962463379 -25.63440704345703,-29.748096466064453 -25.421751022338867,-34.805747985839844 -23.474048614501953,-38.252201080322266 -20.163036346435547,-39.69542694091797 -15.967737197875977,-38.89468765258789 -11.428404808044434,-35.7840461730957 -7.095354080200195,-30.48082733154297 -3.477296829223633,-23.27825355529785 -0.9938040375709534,-14.62277603149414 0.063817098736763,-5.078136444091797 -0.4402611255645752,4.7207865715026855 -2.4735283851623535,14.12028980255127 -5.8377885818481445,22.501750946044922 -10.187092781066895,29.332447052001953 -15.059358596801758,34.20880126953125 -19.918842315673828,36.88835525512695 -24.205669403076172,37.30766677856445 -27.387998580932617,35.584590911865234 -29.01211929321289,32.004886627197266 -28.746004104614258,26.994293212890625 -26.412368774414062,21.07868194580078 -22.008251190185547,14.835813522338867 -15.709268569946289,8.843050956726074 -7.858150005340576,3.625650644302368 1.0615712404251099,-0.3897409439086914 10.464408874511719,-2.9122676849365234 19.710969924926758,-3.8114352226257324 28.160995483398438,-3.126913547515869 35.226749420166016,-1.062735915184021 40.422115325927734,2.0335500240325928 43.403053283691406,5.7048726081848145 43.99590301513672,9.428691864013672 42.21107482910156,12.66714096069336 38.24092102050781,14.918739318847656 32.44200897216797,15.766990661621094 25.303394317626953,14.921499252319336 17.403675079345703,12.247851371765137 9.360692024230957,7.783547401428223 1.7782604694366455,1.738485336303711 -4.805335998535156,-5.520118713378906 -9.962559700012207,-13.497097969055176 -13.411585807800293,-21.610454559326172 -15.037959098815918,-29.240615844726562 -14.901107788085938,-35.783531188964844 -13.225168228149414,-40.702880859375 -10.37504768371582,-43.57687759399414 -6.819900035858154,-44.13539123535156 -3.087353229522705,-42.28424072265625 0.28738120198249817,-38.11439514160156 2.8129167556762695,-31.895305633544922 4.088974475860596,-24.052906036376953 3.845280885696411,-15.134187698364258 1.968559741973877,-5.761502265930176 -1.4848395586013794,3.419466018676758 -6.291838645935059,11.793473243713379 -12.08084487915039,18.826520919799805 -18.363685607910156,24.10927391052246 -24.57846450805664,27.389299392700195 -30.139524459838867,28.589344024658203 -34.490081787109375,27.81011390686035 -37.15287399291992,25.3173770904541 -37.77427291870117,21.514619827270508 -36.15789794921875,16.903749465942383 -32.284767150878906,12.037393569946289 -26.31805992126465,7.467108726501465 -18.592103958129883,3.6921274662017822 -9.586392402648926,1.1132529973983765 0.11302722245454788,-0.003978599328547716 9.86152458190918,0.44642946124076843 19.00898551940918,2.401393413543701 26.95341682434082,5.634789943695068 33.190391540527344,9.778535842895508 37.35400390625,14.356813430786133 39.24575424194336,18.830371856689453 38.84893035888672,22.646942138671875 36.32719421386719,25.293216705322266 32.00760269165039,26.343774795532227 26.349597930908203,25.502450942993164 19.902774810791016,22.632537841796875 13.257185935974121,17.77292823791504 6.99060583114624,11.138797760009766 1.6174781322479248,3.1066172122955322 -2.455962896347046,-5.815211296081543 -4.966409206390381,-15.02759075164795 -5.814976692199707,-23.890233993530273 -5.073625087738037,-31.775123596191406 -2.9759514331817627,-38.11924743652344 0.10674387216567993,-42.471946716308594 3.7019567489624023,-44.532814025878906 7.2817206382751465,-44.17668914794922 10.31346607208252,-41.46369552612305 12.311399459838867,-36.633338928222656 12.883768081665039,-30.083280563354492 11.771727561950684,-22.334625244140625 8.87629508972168,-13.98680305480957 4.270908355712891,-5.666040420532227 -1.8015927076339722,2.0280416011810303 -8.947356224060059,8.573014259338379 -16.653717041015625,13.566959381103516 -24.332387924194336,16.760732650756836 -31.369863510131836,18.07637596130371 -37.18058395385742,17.610126495361328 -41.258174896240234,15.619795799255371 -43.220218658447266,12.497759819030762 -42.842620849609375,8.73200511932373 -40.080421447753906,4.858781337738037 -35.073307037353516,1.4111419916152954 -28.135215759277344,-1.1319944858551025 -19.72896385192871,-2.3916594982147217 -10.42806339263916,-2.1254043579101562 -0.8691112399101257,-0.25131624937057495 8.30112361907959,3.1426949501037598 16.479272842407227,7.80520486831665 23.15491485595703,13.342643737792969 27.951778411865234,19.25385284423828 30.657018661499023,24.974756240844727 31.236059188842773,29.929195404052734 29.831724166870117,33.58138656616211 26.747865676879883,35.48530578613281 22.418962478637695,35.32663345336914 17.368478775024414,32.953407287597656 12.15974235534668,28.3927001953125 7.343728065490723,21.85171890258789 3.408456563949585,13.70317268371582 0.7345145344734192,4.456147193908691 -0.43933477997779846,-5.284992218017578 -0.037372805178165436,-14.870136260986328 1.846894383430481,-23.657045364379883 4.960141181945801,-31.06439781188965 8.91335391998291,-36.61959457397461 13.218520164489746,-39.997215270996094 17.334566116333008,-41.04466247558594 20.718433380126953,-39.79295349121094 22.876665115356445,-36.45156478881836 23.41292381286621,-31.38797378540039 22.067066192626953,-25.093671798706055 18.742300033569336,-18.13973045349121 13.51790714263916,-11.12587833404541 6.646317481994629,-4.627573490142822 -1.4652644395828247,0.8541742563247681 -10.287145614624023,4.935840606689453 -19.21053695678711,7.383469104766846 -27.598278045654297,8.130990982055664 -34.83844757080078,7.283207416534424 -40.396148681640625,5.103220462799072 -43.85896682739258,1.985487461090088 -44.97200393676758,-1.5830310583114624 -43.659542083740234,-5.070115089416504 -40.03130340576172,-7.949647903442383 -34.372833251953125,-9.75245475769043 -27.120874404907227,-10.112034797668457 -18.82581901550293,-8.801034927368164 -10.104628562927246,-5.755167007446289 -1.5883476734161377,-1.0823603868484497 6.131198406219482,4.943720817565918 12.550809860229492,11.905280113220215 17.297117233276367,19.275243759155273 20.15597152709961,26.462326049804688 21.087514877319336,32.8623161315918 20.22563362121582,37.91108703613281 17.861928939819336,41.134586334228516 14.415742874145508,42.19142532348633 10.392915725708008,40.90424728393555 6.337070941925049,37.27706527709961 2.7777888774871826,31.49699592590332 0.18035776913166046,23.92024040222168 -1.0983856916427612,15.043436050415039 -0.8441452980041504,5.462937355041504 0.993886411190033,-4.174483776092529 4.297117710113525,-13.225168228149414 8.787235260009766,-21.10167121887207 14.050628662109375,-27.3207950592041 19.575397491455078,-31.542375564575195 24.797653198242188,-33.595420837402344 29.152978897094727,-33.48941421508789 32.12846374511719,-31.409828186035156 33.31064987182617,-27.698274612426758 32.42509460449219,-22.819189071655273 29.36396026611328,-17.316030502319336 24.19915008544922,-11.760916709899902 17.179733276367188,-6.702243328094482 8.713837623596191,-2.6149394512176514 -0.6634928584098816,0.14219209551811218 -10.333661079406738,1.3582507371902466 -19.64536476135254,0.9883162379264832 -27.968460083007812,-0.8437647223472595 -34.74616241455078,-3.8581111431121826 -39.54100036621094,-7.645893096923828 -42.07053756713867,-11.708321571350098 -42.22968292236328,-15.504033088684082 -40.0977783203125,-18.5006046295166 -35.929744720458984,-20.225547790527344 -30.132211685180664,-20.31219482421875 -23.226715087890625,-18.536333084106445 -15.80324935913086,-14.840238571166992 -8.468348503112793,-9.34190845489502 -1.7922239303588867,-2.328594923019409 3.740314245223999,5.764864444732666 7.770838260650635,14.391070365905762 10.09659481048584,22.93539810180664 10.685544967651367,30.767675399780273 9.675884246826172,37.295692443847656 7.360137939453125,42.01580047607422 4.155314922332764,44.55618667602539 0.5618591904640198,44.70897674560547 -2.8849079608917236,42.448368072509766 -5.666438102722168,37.933135986328125 -7.331048488616943,31.493345260620117 -7.537933349609375,23.602397918701172 -6.091100215911865,14.836883544921875 -2.960160255432129,5.82773494720459 1.713940978050232,-2.792956829071045 7.628826141357422,-10.444872856140137 14.345381736755371,-16.6474609375 21.325103759765625,-21.058795928955078 27.976808547973633,-23.501968383789062 33.70856857299805,-23.9766902923584 37.98030090332031,-22.655179977416992 40.3523063659668,-19.862794876098633 40.52546310424805,-16.045166015625 38.369476318359375,-11.724868774414062 33.93663787841797,-7.451518535614014 27.459819793701172,-3.749809980392456 19.33489990234375,-1.0701566934585571 10.088996887207031,0.2536175549030304 0.33740031719207764,0.03574800863862038 -9.2671480178833,-1.7436760663986206 -18.088336944580078,-4.936195373535156 -25.55865478515625,-9.2379789352417 -31.225658416748047,-14.21718978881836 -34.788116455078125,-19.353275299072266 -36.118919372558594,-24.084680557250977 -35.272735595703125,-27.860727310180664 -32.47787094116211,-30.192977905273438 -28.113075256347656,-30.70154571533203 -22.671422958374023,-29.152103424072266 -16.71452522277832,-25.48030662536621 -10.8211669921875,-19.80135154724121 -5.534969806671143,-12.403769493103027 -1.3157367706298828,-3.7279281616210938 1.5011857748031616,5.668938159942627 2.7339353561401367,15.1581392288208 2.3689775466918945,24.091426849365234 0.5604773759841919,31.85483741760254 -2.3857104778289795,37.91978454589844 -6.041968822479248,41.88692855834961 -9.900050163269043,43.518978118896484 -13.41970443725586,42.75955581665039 -16.080419540405273,39.73652267456055 -17.431594848632812,34.749473571777344 -17.13664436340332,28.24254035949707 -15.007013320922852,20.764928817749023 -11.023005485534668,12.922714233398438 -5.339528560638428,5.326125621795654 1.7238781452178955,-1.4629898071289062 9.707876205444336,-6.97890043258667 18.050912857055664,-10.890725135803223 26.13626480102539,-13.028783798217773 33.34443283081055,-13.396265029907227 39.10625457763672,-12.165268898010254 42.952110290527344,-9.657622337341309 44.55278778076172,-6.3122429847717285 43.74850082397461,-2.642052412033081 40.56339645385742,0.8156853914260864 35.20433044433594,3.5510964393615723 28.043933868408203,5.130836486816406 19.589502334594727,5.240197658538818 10.440414428710938,3.7143797874450684 1.2377902269363403,0.5560773015022278 -7.389157295227051,-4.062223434448242 -14.875405311584473,-9.811502456665039 -20.766448974609375,-16.233869552612305 -24.754657745361328,-22.78221893310547 -26.702457427978516,-28.86835479736328 -26.650436401367188,-33.91535568237305 -24.80965232849121,-37.40948486328125 -21.53896713256836,-38.947052001953125 -17.3094482421875,-38.27204513549805 -12.659102439880371,-35.30113220214844 -8.142010688781738,-30.133808135986328 -4.276440620422363,-23.046669006347656 -1.4965934753417969,-14.472354888916016 -0.11232201009988785,-4.964876174926758 -0.28041478991508484,4.845617294311523 -1.990031123161316,14.304701805114746 -5.063584804534912,22.787647247314453 -9.173004150390625,29.750789642333984 -13.869909286499023,34.77578353881836 -18.62701988220215,37.60295486450195 -22.887069702148438,38.150787353515625 -26.114852905273438,36.51991271972656 -27.847742080688477,32.98136520385742 -27.740121841430664,27.950069427490234 -25.59772300720215,21.946102142333984 -21.398771286010742,15.547117233276367 -15.299954414367676,9.336200714111328 -7.626637935638428,3.8498191833496094 1.1518985033035278,-0.4695183038711548 10.460083961486816,-3.3117053508758545 19.663267135620117,-4.525166034698486 28.120405197143555,-4.128391265869141 35.23762130737305,-2.305889844894409 40.51793670654297,0.6110424399375916 43.60281753540039,4.176968574523926 44.30189514160156,7.875415802001953 42.608306884765625,11.16854190826416 38.698204040527344,13.548885345458984 32.91466522216797,14.588521003723145 25.73728370666504,13.981184959411621 17.74024772644043,11.573548316955566 9.542566299438477,7.382784843444824 1.7548367977142334,1.5987951755523682 -5.072720527648926,-5.429178714752197 -10.496424674987793,-13.22042465209961 -14.215420722961426,-21.202707290649414 -16.09494972229004,-28.760793685913086 -16.174583435058594,-35.28929138183594 -14.660768508911133,-40.245155334472656 -11.904425621032715,-43.195186614990234 -8.365669250488281,-43.854373931884766 -4.568838596343994,-42.111637115478516 -1.0519416332244873,-38.04069519042969 1.6849464178085327,-31.895061492919922 3.2276649475097656,-24.087596893310547 3.28800368309021,-15.156383514404297 1.7321760654449463,-5.719921588897705 -1.4048515558242798,3.5744709968566895 -5.920497417449951,12.104483604431152 -11.461100578308105,19.324199676513672 -17.55242156982422,24.808530807495117 -23.641403198242188,28.286836624145508 -29.14551544189453,29.66283416748047 -33.50526809692383,29.019079208374023 -36.2352409362793,26.605749130249023 -36.969051361083984,22.814727783203125 -35.49424743652344,18.141443252563477 -31.773998260498047,13.137836456298828 -25.95353126525879,8.360757827758789 -18.35080909729004,4.320365905761719 -9.432053565979004,1.4332001209259033 0.2256338745355606,-0.015904495492577553 9.98143196105957,0.10034767538309097 19.183551788330078,1.74043869972229 27.223020553588867,4.698318004608154 33.583778381347656,8.622847557067871 37.88471984863281,13.050671577453613 39.910037994384766,17.449539184570312 39.62520217895508,21.26822280883789 37.177268981933594,23.988513946533203 32.879486083984375,25.17465591430664 27.18166160583496,24.515745162963867 20.62892723083496,21.85723114013672 13.812581062316895,17.21873664855957 7.31742000579834,10.796415328979492 1.6702009439468384,2.94966721534729 -2.7061736583709717,-5.826756477355957 -5.5287041664123535,-14.94282341003418 -6.6774067878723145,-23.76199722290039 -6.203474044799805,-31.654462814331055 -4.321807384490967,-38.05009841918945 -1.388641357421875,-42.48663330078125 2.1336936950683594,-44.648651123046875 5.7216715812683105,-44.394107818603516 8.841071128845215,-41.7659912109375 10.998522758483887,-36.98810958862305 11.789438247680664,-30.44540786743164 10.937994956970215,-22.650535583496094 8.325551986694336,-14.1996431350708 4.004883289337158,-5.72126579284668 -1.8010882139205933,2.1771416664123535 -8.716014862060547,8.960371017456055 -16.24088478088379,14.20981216430664 -23.796140670776367,17.65711212158203 -30.77142906188965,19.204235076904297 -36.57865905761719,18.92818832397461 -40.70359802246094,17.070104598999023 -42.751522064208984,14.009697914123535 -42.4827880859375,10.227450370788574 -39.83522033691406,6.257975101470947 -34.931278228759766,2.638758659362793 -28.069316864013672,-0.14109297096729279 -19.699726104736328,-1.6874767541885376 -10.38796329498291,-1.7390944957733154 -0.767749547958374,-0.19301630556583405 8.511524200439453,2.8843038082122803 16.838539123535156,7.26157808303833 23.69027328491211,12.562417984008789 28.674304962158203,18.298521041870117 31.55954933166504,23.913354873657227 32.292720794677734,28.832483291625977 30.99921226501465,32.515995025634766 27.96831512451172,34.50843048095703 23.624221801757812,34.48164367675781 18.485382080078125,32.266849517822266 13.115968704223633,27.872854232788086 8.073707580566406,21.488861083984375 3.8588223457336426,13.47150993347168 0.8686226010322571,4.317220211029053 -0.6382149457931519,-5.377776145935059 -0.5644813179969788,-14.966238021850586 1.0176312923431396,-23.803306579589844 3.8741915225982666,-31.299819946289062 7.632081508636475,-36.97089385986328 11.81440258026123,-40.475521087646484 15.885549545288086,-41.64375305175781 19.30190086364746,-40.489097595214844 21.563549041748047,-37.20505905151367 22.262451171875,-32.14626693725586 21.122591018676758,-25.795740127563477 18.02858543395996,-18.72138786315918 13.04004192352295,-11.525497436523438 6.390384674072266,-4.7917609214782715 -1.5298795700073242,0.9655060768127441 -10.204020500183105,5.345422267913818 -19.031400680541992,8.094036102294922 -27.377574920654297,9.124292373657227 -34.62776184082031,8.52077579498291 -40.23902893066406,6.528832912445068 -43.786563873291016,3.5291366577148438 -45,1.7634914253709943e-13 -43.786563873291016,-3.5291366577148438 -40.23902893066406,-6.528832912445068 -34.62776184082031,-8.52077579498291 -27.377574920654297,-9.124292373657227 -19.031400680541992,-8.094036102294922 -10.204020500183105,-5.345422267913818 -1.5298795700073242,-0.9655060768127441 6.390384674072266,4.7917609214782715 13.04004192352295,11.525497436523438 18.02858543395996,18.72138786315918 21.122591018676758,25.795740127563477 22.262451171875,32.14626693725586 21.563549041748047,37.20505905151367 19.30190086364746,40.489097595214844 15.885549545288086,41.64375305175781 11.81440258026123,40.475521087646484 7.632081508636475,36.97089385986328 3.8741915225982666,31.299819946289062 1.0176312923431396,23.803306579589844 -0.5644813179969788,14.966238021850586 -0.6382149457931519,5.377776145935059 0.8686226010322571,-4.317220211029053 3.8588223457336426,-13.47150993347168 8.073707580566406,-21.488861083984375 13.115968704223633,-27.872854232788086 18.485382080078125,-32.266849517822266 23.624221801757812,-34.48164367675781 27.96831512451172,-34.50843048095703 30.99921226501465,-32.515995025634766 32.292720794677734,-28.832483291625977 31.55954933166504,-23.913354873657227 28.674304962158203,-18.298521041870117 23.69027328491211,-12.562417984008789 16.838539123535156,-7.26157808303833 8.511524200439453,-2.8843038082122803 -0.767749547958374,0.19301630556583405 -10.38796329498291,1.7390944957733154 -19.699726104736328,1.6874767541885376 -28.069316864013672,0.14109297096729279 -34.931278228759766,-2.638758659362793 -39.83522033691406,-6.257975101470947 -42.4827880859375,-10.227450370788574 -42.751522064208984,-14.009697914123535 -40.70359802246094,-17.070104598999023 -36.57865905761719,-18.92818832397461 -30.77142906188965,-19.204235076904297 -23.796140670776367,-17.65711212158203 -16.24088478088379,-14.20981216430664 -8.716014862060547,-8.960371017456055 -1.8010882139205933,-2.1771416664123535 4.004883289337158,5.72126579284668 8.325551986694336,14.1996431350708 10.937994956970215,22.650535583496094 11.789438247680664,30.44540786743164 10.998522758483887,36.98810958862305 8.841071128845215,41.7659912109375 5.7216715812683105,44.394107818603516 2.1336936950683594,44.648651123046875 -1.388641357421875,42.48663330078125 -4.321807384490967,38.05009841918945 -6.203474044799805,31.654462814331055 -6.6774067878723145,23.76199722290039 -5.5287041664123535,14.94282341003418 -2.7061736583709717,5.826756477355957 1.6702009439468384,-2.94966721534729 7.31742000579834,-10.796415328979492 13.812581062316895,-17.21873664855957 20.62892723083496,-21.85723114013672 27.18166160583496,-24.515745162963867 32.879486083984375,-25.17465591430664 37.177268981933594,-23.988513946533203 39.62520217895508,-21.26822280883789 39.910037994384766,-17.449539184570312 37.88471984863281,-13.050671577453613 33.583778381347656,-8.622847557067871 27.223020553588867,-4.698318004608154 19.183551788330078,-1.74043869972229 9.98143196105957,-0.10034767538309097 0.2256338745355606,0.015904495492577553 -9.432053565979004,-1.4332001209259033 -18.35080909729004,-4.320365905761719 -25.95353126525879,-8.360757827758789 -31.773998260498047,-13.137836456298828 -35.49424743652344,-18.141443252563477 -36.969051361083984,-22.814727783203125 -36.2352409362793,-26.605749130249023 -33.50526809692383,-29.019079208374023 -29.14551544189453,-29.66283416748047 -23.641403198242188,-28.286836624145508 -17.55242156982422,-24.808530807495117 -11.461100578308105,-19.324199676513672 -5.920497417449951,-12.104483604431152 -1.4048515558242798,-3.5744709968566895 1.7321760654449463,5.719921588897705 3.28800368309021,15.156383514404297 3.2276649475097656,24.087596893310547 1.6849464178085327,31.895061492919922 -1.0519416332244873,38.04069519042969 -4.568838596343994,42.111637115478516 -8.365669250488281,43.854373931884766 -11.904425621032715,43.195186614990234 -14.660768508911133,40.245155334472656 -16.174583435058594,35.28929138183594 -16.09494972229004,28.760793685913086 -14.215420722961426,21.202707290649414 -10.496424674987793,13.22042465209961 -5.072720527648926,5.429178714752197 1.7548367977142334,-1.5987951755523682 9.542566299438477,-7.382784843444824 17.74024772644043,-11.573548316955566 25.73728370666504,-13.981184959411621 32.91466522216797,-14.588521003723145 38.698204040527344,-13.548885345458984 42.608306884765625,-11.16854190826416 44.30189514160156,-7.875415802001953 43.60281753540039,-4.176968574523926 40.51793670654297,-0.6110424399375916 35.23762130737305,2.305889844894409 28.120405197143555,4.128391265869141 19.663267135620117,4.525166034698486 10.460083961486816,3.3117053508758545 1.1518985033035278,0.4695183038711548 -7.626637935638428,-3.8498191833496094 -15.299954414367676,-9.336200714111328 -21.398771286010742,-15.547117233276367 -25.59772300720215,-21.946102142333984 -27.740121841430664,-27.950069427490234 -27.847742080688477,-32.98136520385742 -26.114852905273438,-36.51991271972656 -22.887069702148438,-38.150787353515625 -18.62701988220215,-37.60295486450195 -13.869909286499023,-34.77578353881836 -9.173004150390625,-29.750789642333984 -5.063584804534912,-22.787647247314453 -1.990031123161316,-14.304701805114746 -0.28041478991508484,-4.845617294311523 -0.11232201009988785,4.964876174926758 -1.4965934753417969,14.472354888916016 -4.276440620422363,23.046669006347656 -8.142010688781738,30.133808135986328 -12.659102439880371,35.30113220214844 -17.3094482421875,38.27204513549805 -21.53896713256836,38.947052001953125 -24.80965232849121,37.40948486328125 -26.650436401367188,33.91535568237305 -26.702457427978516,28.86835479736328 -24.754657745361328,22.78221893310547 -20.766448974609375,16.233869552612305 -14.875405311584473,9.811502456665039 -7.389157295227051,4.062223434448242 1.2377902269363403,-0.5560773015022278 10.440414428710938,-3.7143797874450684 19.589502334594727,-5.240197658538818 28.043933868408203,-5.130836486816406 35.20433044433594,-3.5510964393615723 40.56339645385742,-0.8156853914260864 43.74850082397461,2.642052412033081 44.55278778076172,6.3122429847717285 42.952110290527344,9.657622337341309 39.10625457763672,12.165268898010254 33.34443283081055,13.396265029907227 26.13626480102539,13.028783798217773 18.050912857055664,10.890725135803223 9.707876205444336,6.97890043258667 1.7238781452178955,1.4629898071289062 -5.339528560638428,-5.326125621795654 -11.023005485534668,-12.922714233398438 -15.007013320922852,-20.764928817749023 -17.13664436340332,-28.24254035949707 -17.431594848632812,-34.749473571777344 -16.080419540405273,-39.73652267456055 -13.41970443725586,-42.75955581665039 -9.900050163269043,-43.518978118896484 -6.041968822479248,-41.88692855834961 -2.3857104778289795,-37.91978454589844 0.5604773759841919,-31.85483741760254 2.3689775466918945,-24.091426849365234 2.7339353561401367,-15.1581392288208 1.5011857748031616,-5.668938159942627 -1.3157367706298828,3.7279281616210938 -5.534969806671143,12.403769493103027 -10.8211669921875,19.80135154724121 -16.71452522277832,25.48030662536621 -22.671422958374023,29.152103424072266 -28.113075256347656,30.70154571533203 -32.47787094116211,30.192977905273438 -35.272735595703125,27.860727310180664 -36.118919372558594,24.084680557250977 -34.788116455078125,19.353275299072266 -31.225658416748047,14.21718978881836 -25.55865478515625,9.2379789352417 -18.088336944580078,4.936195373535156 -9.2671480178833,1.7436760663986206 0.33740031719207764,-0.03574800863862038 10.088996887207031,-0.2536175549030304 19.33489990234375,1.0701566934585571 27.459819793701172,3.749809980392456 33.93663787841797,7.451518535614014 38.369476318359375,11.724868774414062 40.52546310424805,16.045166015625 40.3523063659668,19.862794876098633 37.98030090332031,22.655179977416992 33.70856857299805,23.9766902923584 27.976808547973633,23.501968383789062 21.325103759765625,21.058795928955078 14.345381736755371,16.6474609375 7.628826141357422,10.444872856140137 1.713940978050232,2.792956829071045 -2.960160255432129,-5.82773494720459 -6.091100215911865,-14.836883544921875 -7.537933349609375,-23.602397918701172 -7.331048488616943,-31.493345260620117 -5.666438102722168,-37.933135986328125 -2.8849079608917236,-42.448368072509766 0.5618591904640198,-44.70897674560547 4.155314922332764,-44.55618667602539 7.360137939453125,-42.01580047607422 9.675884246826172,-37.295692443847656 10.685544967651367,-30.767675399780273 10.09659481048584,-22.93539810180664 7.770838260650635,-14.391070365905762 3.740314245223999,-5.764864444732666 -1.7922239303588867,2.328594923019409 -8.468348503112793,9.34190845489502 -15.80324935913086,14.840238571166992 -23.226715087890625,18.536333084106445 -30.132211685180664,20.31219482421875 -35.929744720458984,20.225547790527344 -40.0977783203125,18.5006046295166 -42.22968292236328,15.504033088684082 -42.07053756713867,11.708321571350098 -39.54100036621094,7.645893096923828 -34.74616241455078,3.8581111431121826 -27.968460083007812,0.8437647223472595 -19.64536476135254,-0.9883162379264832 -10.333661079406738,-1.3582507371902466 -0.6634928584098816,-0.14219209551811218 8.713837623596191,2.6149394512176514 17.179733276367188,6.702243328094482 24.19915008544922,11.760916709899902 29.36396026611328,17.316030502319336 32.42509460449219,22.819189071655273 33.31064987182617,27.698274612426758 32.12846374511719,31.409828186035156 29.152978897094727,33.48941421508789 24.797653198242188,33.595420837402344 19.575397491455078,31.542375564575195 14.050628662109375,27.3207950592041 8.787235260009766,21.10167121887207 4.297117710113525,13.225168228149414 0.993886411190033,4.174483776092529 -0.8441452980041504,-5.462937355041504 -1.0983856916427612,-15.043436050415039 0.18035776913166046,-23.92024040222168 2.7777888774871826,-31.49699592590332 6.337070941925049,-37.27706527709961 10.392915725708008,-40.90424728393555 14.415742874145508,-42.19142532348633 17.861928939819336,-41.134586334228516 20.22563362121582,-37.91108703613281 21.087514877319336,-32.8623161315918 20.15597152709961,-26.462326049804688 17.297117233276367,-19.275243759155273 12.550809860229492,-11.905280113220215 6.131198406219482,-4.943720817565918 -1.5883476734161377,1.0823603868484497 -10.104628562927246,5.755167007446289 -18.82581901550293,8.801034927368164 -27.120874404907227,10.112034797668457 -34.372833251953125,9.75245475769043 -40.03130340576172,7.949647903442383 -43.659542083740234,5.070115089416504 -44.97200393676758,1.5830310583114624 -43.85896682739258,-1.985487461090088 -40.396148681640625,-5.103220462799072 -34.83844757080078,-7.283207416534424 -27.598278045654297,-8.130990982055664 -19.21053695678711,-7.383469104766846 -10.287145614624023,-4.935840606689453 -1.4652644395828247,-0.8541742563247681 6.646317481994629,4.627573490142822 13.51790714263916,11.12587833404541 18.742300033569336,18.13973045349121 22.067066192626953,25.093671798706055 23.41292381286621,31.38797378540039 22.876665115356445,36.45156478881836 20.718433380126953,39.79295349121094 17.334566116333008,41.04466247558594 13.218520164489746,39.997215270996094 8.91335391998291,36.61959457397461 4.960141181945801,31.06439781188965 1.846894383430481,23.657045364379883 -0.037372805178165436,14.870136260986328 -0.43933477997779846,5.284992218017578 0.7345145344734192,-4.456147193908691 3.408456563949585,-13.70317268371582 7.343728065490723,-21.85171890258789 12.15974235534668,-28.3927001953125 17.368478775024414,-32.953407287597656 22.418962478637695,-35.32663345336914 26.747865676879883,-35.48530578613281 29.831724166870117,-33.58138656616211 31.236059188842773,-29.929195404052734 30.657018661499023,-24.974756240844727 27.951778411865234,-19.25385284423828 23.15491485595703,-13.342643737792969 16.479272842407227,-7.80520486831665 8.30112361907959,-3.1426949501037598 -0.8691112399101257,0.25131624937057495 -10.42806339263916,2.1254043579101562 -19.72896385192871,2.3916594982147217 -28.135215759277344,1.1319944858551025 -35.073307037353516,-1.4111419916152954 -40.080421447753906,-4.858781337738037 -42.842620849609375,-8.73200511932373 -43.220218658447266,-12.497759819030762 -41.258174896240234,-15.619795799255371 -37.18058395385742,-17.610126495361328 -31.369863510131836,-18.07637596130371 -24.332387924194336,-16.760732650756836 -16.653717041015625,-13.566959381103516 -8.947356224060059,-8.573014259338379 -1.8015927076339722,-2.0280416011810303 4.270908355712891,5.666040420532227 8.87629508972168,13.98680305480957 11.771727561950684,22.334625244140625 12.883768081665039,30.083280563354492 12.311399459838867,36.633338928222656 10.31346607208252,41.46369552612305 7.2817206382751465,44.17668914794922 3.7019567489624023,44.532814025878906 0.10674387216567993,42.471946716308594 -2.9759514331817627,38.11924743652344 -5.073625087738037,31.775123596191406 -5.814976692199707,23.890233993530273 -4.966409206390381,15.02759075164795 -2.455962896347046,5.815211296081543 1.6174781322479248,-3.1066172122955322 6.99060583114624,-11.138797760009766 13.257185935974121,-17.77292823791504 19.902774810791016,-22.632537841796875 26.349597930908203,-25.502450942993164 32.00760269165039,-26.343774795532227 36.32719421386719,-25.293216705322266 38.84893035888672,-22.646942138671875 39.24575424194336,-18.830371856689453 37.35400390625,-14.356813430786133 33.190391540527344,-9.778535842895508 26.95341682434082,-5.634789943695068 19.00898551940918,-2.401393413543701 9.86152458190918,-0.44642946124076843 0.11302722245454788,0.003978599328547716 -9.586392402648926,-1.1132529973983765 -18.592103958129883,-3.6921274662017822 -26.31805992126465,-7.467108726501465 -32.284767150878906,-12.037393569946289 -36.15789794921875,-16.903749465942383 -37.77427291870117,-21.514619827270508 -37.15287399291992,-25.3173770904541 -34.490081787109375,-27.81011390686035 -30.139524459838867,-28.589344024658203 -24.57846450805664,-27.389299392700195 -18.363685607910156,-24.10927391052246 -12.08084487915039,-18.826520919799805 -6.291838645935059,-11.793473243713379 -1.4848395586013794,-3.419466018676758 1.968559741973877,5.761502265930176 3.845280885696411,15.134187698364258 4.088974475860596,24.052906036376953 2.8129167556762695,31.895305633544922 0.28738120198249817,38.11439514160156 -3.087353229522705,42.28424072265625 -6.819900035858154,44.13539123535156 -10.37504768371582,43.57687759399414 -13.225168228149414,40.702880859375 -14.901107788085938,35.783531188964844 -15.037959098815918,29.240615844726562 -13.411585807800293,21.610454559326172 -9.962559700012207,13.497097969055176 -4.805335998535156,5.520118713378906 1.7782604694366455,-1.738485336303711 9.360692024230957,-7.783547401428223 17.403675079345703,-12.247851371765137 25.303394317626953,-14.921499252319336 32.44200897216797,-15.766990661621094 38.24092102050781,-14.918739318847656 42.21107482910156,-12.66714096069336 43.99590301513672,-9.428691864013672 43.403053283691406,-5.7048726081848145 40.422115325927734,-2.0335500240325928 35.226749420166016,1.062735915184021 28.160995483398438,3.126913547515869 19.710969924926758,3.8114352226257324 10.464408874511719,2.9122676849365234 1.0615712404251099,0.3897409439086914 -7.858150005340576,-3.625650644302368 -15.709268569946289,-8.843050956726074 -22.008251190185547,-14.835813522338867 -26.412368774414062,-21.07868194580078 -28.746004104614258,-26.994293212890625 -29.01211929321289,-32.004886627197266 -27.387998580932617,-35.584590911865234 -24.205669403076172,-37.30766677856445 -19.918842315673828,-36.88835525512695 -15.059358596801758,-34.20880126953125 -10.187092781066895,-29.332447052001953 -5.8377885818481445,-22.501750946044922 -2.4735283851623535,-14.12028980255127 -0.4402611255645752,-4.7207865715026855 0.063817098736763,5.078136444091797 -0.9938040375709534,14.62277603149414 -3.477296829223633,23.27825355529785 -7.095354080200195,30.48082733154297 -11.428404808044434,35.7840461730957 -15.967737197875977,38.89468765258789 -20.163036346435547,39.69542694091797 -23.474048614501953,38.252201080322266 -25.421751022338867,34.805747985839844 -25.63440704345703,29.748096466064453 -23.884368896484375,23.58609962463379 -20.112262725830078,16.895341873168945 -14.436368942260742,10.268497467041016 -7.1462483406066895,4.262723922729492 1.3188825845718384,-0.6491994261741638 10.405170440673828,-4.119698524475098 19.489530563354492,-5.95557165145874 27.931459426879883,-6.13295316696167 35.12674331665039,-4.796776294708252 40.558319091796875,-2.244839906692505 43.83985900878906,1.1020479202270508 44.74825668334961,4.7411370277404785 43.24211120605469,8.1362943649292 39.46467208862305,10.769665718078613 33.73092269897461,12.191783905029297 26.50002670288086,12.06558895111084 18.335487365722656,10.200371742248535 9.856630325317383,6.572560787200928 1.6856324672698975,1.3314234018325806 -5.605232238769531,-5.210891246795654 -11.541478157043457,-12.604143142700195 -15.785233497619629,-20.297481536865234 -18.161636352539062,-27.68634033203125 -18.67049789428711,-34.16461944580078 -17.4823055267334,-39.17753982543945 -14.918973922729492,-42.2705078125 -11.421120643615723,-43.129661560058594 -7.504903793334961,-41.61048889160156 -3.7122557163238525,-37.751956939697266 -0.5590705275535583,-31.77487564086914 1.514017939567566,-24.064626693725586 2.1838231086730957,-15.139708518981934 1.2759538888931274,-5.60888147354126 -1.217510461807251,3.879385232925415 -5.135627746582031,12.690711975097656 -10.161728858947754,20.25716781616211 -15.850937843322754,26.123594284057617 -21.669645309448242,29.9838924407959 -27.043426513671875,31.704099655151367 -31.40913963317871,31.330299377441406 -34.266578674316406,29.080739974975586 -35.22500991821289,25.32292938232422 -34.040504455566406,20.53778648376465 -30.64059829711914,15.274168014526367 -25.134132385253906,10.097742080688477 -17.805265426635742,5.538905143737793 -9.092150688171387,2.0443360805511475 0.44790858030319214,-0.06345972418785095 10.183815002441406,-0.6150193214416504 19.46258544921875,0.3913712501525879 27.66330337524414,2.7904253005981445 34.248355865478516,6.265978813171387 38.80754852294922,10.381031036376953 41.09119415283203,14.618987083435059 41.02931594848633,18.432418823242188 38.735321044921875,21.294921875 34.493892669677734,22.75144386291504 28.734155654907227,22.462507247924805 21.990577697753906,20.238380432128906 14.855072975158691,16.06000328063965 7.924585342407227,10.084831237792969 1.7487845420837402,2.6369223594665527 -3.2174830436706543,-5.817895889282227 -6.65279483795166,-14.709657669067383 -8.39540958404541,-23.41141128540039 -8.4548921585083,-31.291790008544922 -7.008133888244629,-37.76836395263672 -4.380170822143555,-42.35711669921875 -1.0115723609924316,-44.71369171142578 2.584623098373413,-44.66274642944336 5.872542858123779,-42.212894439697266 8.345186233520508,-37.55583953857422 9.5735445022583,-31.04986000061035 9.24868106842041,-23.189056396484375 7.212978839874268,-14.56106948852539 3.477689266204834,-5.7970099449157715 -1.7748371362686157,2.4819939136505127 -8.204486846923828,9.716952323913574 -15.34117603302002,15.457283973693848 -22.62466049194336,19.397159576416016 -29.452880859375,21.398771286010742 -35.23456573486328,21.500516891479492 -39.44142532348633,19.909475326538086 -41.655372619628906,16.978891372680664 -41.6064567565918,13.172773361206055 -39.19826126098633,9.020812034606934 -34.518367767333984,5.067684173583984 -27.832992553710938,1.8213436603546143 -19.56620216369629,-0.2950737476348877 -10.265493392944336,-0.9833917021751404 -0.5567433834075928,-0.09897059947252274 8.907547950744629,2.33485746383667 17.50218963623047,6.1278076171875 24.680706024169922,10.939044952392578 30.01972007751465,16.307519912719727 33.252464294433594,21.693552017211914 34.288509368896484,26.5279483795166 33.21804428100586,30.26426887512207 30.300390243530273,32.42958450317383 25.937843322753906,32.66915512084961 20.637235641479492,30.781024932861328 14.962635040283203,26.737403869628906 9.483501434326172,20.690860748291016 4.722868919372559,12.964709281921387 1.1102081537246704,4.028388023376465 -1.0568296909332275,-5.540095806121826 -1.6384005546569824,-15.101370811462402 -0.6638798117637634,-24.00745964050293 1.6722899675369263,-31.655481338500977 5.029922008514404,-37.53757858276367 8.95582103729248,-41.28276062011719 12.926980018615723,-42.686946868896484 16.40033721923828,-41.7286262512207 18.864633560180664,-38.56882858276367 19.889671325683594,-33.53534698486328 19.168535232543945,-27.092741012573242 16.548969268798828,-19.800771713256836 12.051018714904785,-12.264918327331543 5.869300842285156,-5.083430767059326 -1.6403629779815674,1.204437494277954 -9.988861083984375,6.164430618286133 -18.59382438659668,9.503477096557617 -26.82830238342285,11.092903137207031 -34.073814392089844,10.976653099060059 -39.77311325073242,9.363859176635742 -43.47800064086914,6.606480598449707 -44.88805389404297,3.164072275161743 -43.87671661376953,-0.4411117434501648 -40.502586364746094,-3.6746199131011963 -35.00478744506836,-6.0413432121276855 -27.782917022705078,-7.133440971374512 -19.36323356628418,-6.670320510864258 -10.354142189025879,-4.52705717086792 -1.3948216438293457,-0.7486492395401001 6.898453712463379,4.451204776763916 13.983612060546875,10.706756591796875 19.437206268310547,17.530847549438477 22.988086700439453,24.356861114501953 24.53740882873535,30.588287353515625 24.163286209106445,35.651485443115234 22.1097354888916,39.04701614379883 18.760988235473633,40.394935607910156 14.603534698486328,39.47001647949219 10.179312705993652,36.2237663269043 6.034300327301025,30.79121971130371 2.667119026184082,23.481876373291016 0.48227202892303467,14.755513191223145 -0.24778255820274353,5.184978485107422 0.5916809439659119,-4.590817451477051 2.9465181827545166,-13.919608116149902 6.598133087158203,-22.18956756591797 11.183066368103027,-28.879497528076172 16.226016998291016,-33.60103988647461 21.18333625793457,-36.129234313964844 25.493133544921875,-36.41878890991211 28.627477645874023,-34.60467529296875 30.142047882080078,-30.987091064453125 29.7187442779541,-26.00213623046875 27.197433471679688,-20.180925369262695 22.59394073486328,-14.10072135925293 16.102615356445312,-8.33254623413086 8.083155632019043,-3.389880418777466 -0.9671815037727356,0.3169459402561188 -10.453643798828125,2.516645669937134 -19.732797622680664,3.099954128265381 -28.165861129760742,2.1276893615722656 -35.17189407348633,-0.17679472267627716 -40.27617645263672,-3.4500539302825928 -43.14952850341797,-7.223851203918457 -43.635189056396484,-10.970118522644043 -41.76085662841797,-14.151519775390625 -37.73487091064453,-16.273067474365234 -31.926910400390625,-16.93012237548828 -24.834959030151367,-15.84843921661377 -17.041412353515625,-12.912647247314453 -9.162273406982422,-8.18051528930664 -1.7939174175262451,-1.8816933631896973 4.537894248962402,5.599035739898682 9.4222412109375,13.752594947814941 12.596640586853027,21.98785400390625 13.96708869934082,29.68157386779785 13.612822532653809,36.231685638427734 11.77545166015625,41.10920333862305 8.833497047424316,43.904170989990234 5.264678955078125,44.36164093017578 1.5993669033050537,42.404422760009766 -1.630576252937317,38.1406364440918 -3.9429564476013184,31.855375289916992 -4.95178747177124,23.987167358398438 -4.4050068855285645,15.09132194519043 -2.209954261779785,5.793365478515625 1.55570650100708,-3.2633652687072754 6.648648262023926,-11.471364974975586 12.679746627807617,-18.309146881103516 19.147424697875977,-23.383586883544922 25.481538772583008,-26.460742950439453 31.09392547607422,-27.48250389099121 35.43110275268555,-26.567628860473633 38.024471282958984,-23.997222900390625 38.533512115478516,-20.185956954956055 36.778114318847656,-15.641695022583008 32.75715255737305,-10.917177200317383 26.651565551757812,-6.558090686798096 18.811670303344727,-3.0522170066833496 9.729700088500977,-0.7842003703117371 1.918214719009992e-12,-1.1275850667852813e-26 -9.729700088500977,-0.7842003703117371 -18.811670303344727,-3.0522170066833496 -26.651565551757812,-6.558090686798096 -32.75715255737305,-10.917177200317383 -36.778114318847656,-15.641695022583008 -38.533512115478516,-20.185956954956055 -38.024471282958984,-23.997222900390625 -35.43110275268555,-26.567628860473633 -31.09392547607422,-27.48250389099121 -25.481538772583008,-26.460742950439453 -19.147424697875977,-23.383586883544922 -12.679746627807617,-18.309146881103516 -6.648648262023926,-11.471364974975586 -1.55570650100708,-3.2633652687072754 2.209954261779785,5.793365478515625 4.4050068855285645,15.09132194519043 4.95178747177124,23.987167358398438 3.9429564476013184,31.855375289916992 1.630576252937317,38.1406364440918 -1.5993669033050537,42.404422760009766 -5.264678955078125,44.36164093017578 -8.833497047424316,43.904170989990234 -11.77545166015625,41.10920333862305 -13.612822532653809,36.231685638427734 -13.96708869934082,29.68157386779785 -12.596640586853027,21.98785400390625 -9.4222412109375,13.752594947814941 -4.537894248962402,5.599035739898682 1.7939174175262451,-1.8816933631896973 9.162273406982422,-8.18051528930664 17.041412353515625,-12.912647247314453 24.834959030151367,-15.84843921661377 31.926910400390625,-16.93012237548828 37.73487091064453,-16.273067474365234 41.76085662841797,-14.151519775390625 43.635189056396484,-10.970118522644043 43.14952850341797,-7.223851203918457 40.27617645263672,-3.4500539302825928 35.17189407348633,-0.17679472267627716 28.165861129760742,2.1276893615722656 19.732797622680664,3.099954128265381 10.453643798828125,2.516645669937134 0.9671815037727356,0.3169459402561188 -8.083155632019043,-3.389880418777466 -16.102615356445312,-8.33254623413086 -22.59394073486328,-14.10072135925293 -27.197433471679688,-20.180925369262695 -29.7187442779541,-26.00213623046875 -30.142047882080078,-30.987091064453125 -28.627477645874023,-34.60467529296875 -25.493133544921875,-36.41878890991211 -21.18333625793457,-36.129234313964844 -16.226016998291016,-33.60103988647461 -11.183066368103027,-28.879497528076172 -6.598133087158203,-22.18956756591797 -2.9465181827545166,-13.919608116149902 -0.5916809439659119,-4.590817451477051 0.24778255820274353,5.184978485107422 -0.48227202892303467,14.755513191223145 -2.667119026184082,23.481876373291016 -6.034300327301025,30.79121971130371 -10.179312705993652,36.2237663269043 -14.603534698486328,39.47001647949219 -18.760988235473633,40.394935607910156 -22.1097354888916,39.04701614379883 -24.163286209106445,35.651485443115234 -24.53740882873535,30.588287353515625 -22.988086700439453,24.356861114501953 -19.437206268310547,17.530847549438477 -13.983612060546875,10.706756591796875 -6.898453712463379,4.451204776763916 1.3948216438293457,-0.7486492395401001 10.354142189025879,-4.52705717086792 19.36323356628418,-6.670320510864258 27.782917022705078,-7.133440971374512 35.00478744506836,-6.0413432121276855 40.502586364746094,-3.6746199131011963 43.87671661376953,-0.4411117434501648 44.88805389404297,3.164072275161743 43.47800064086914,6.606480598449707 39.77311325073242,9.363859176635742 34.073814392089844,10.976653099060059 26.82830238342285,11.092903137207031 18.59382438659668,9.503477096557617 9.988861083984375,6.164430618286133 1.6403629779815674,1.204437494277954 -5.869300842285156,-5.083430767059326 -12.051018714904785,-12.264918327331543 -16.548969268798828,-19.800771713256836 -19.168535232543945,-27.092741012573242 -19.889671325683594,-33.53534698486328 -18.864633560180664,-38.56882858276367 -16.40033721923828,-41.7286262512207 -12.926980018615723,-42.686946868896484 -8.95582103729248,-41.28276062011719 -5.029922008514404,-37.53757858276367 -1.6722899675369263,-31.655481338500977 0.6638798117637634,-24.00745964050293 1.6384005546569824,-15.101370811462402 1.0568296909332275,-5.540095806121826 -1.1102081537246704,4.028388023376465 -4.722868919372559,12.964709281921387 -9.483501434326172,20.690860748291016 -14.962635040283203,26.737403869628906 -20.637235641479492,30.781024932861328 -25.937843322753906,32.66915512084961 -30.300390243530273,32.42958450317383 -33.21804428100586,30.26426887512207 -34.288509368896484,26.5279483795166 -33.252464294433594,21.693552017211914 -30.01972007751465,16.307519912719727 -24.680706024169922,10.939044952392578 -17.50218963623047,6.1278076171875 -8.907547950744629,2.33485746383667 0.5567433834075928,-0.09897059947252274 10.265493392944336,-0.9833917021751404 19.56620216369629,-0.2950737476348877 27.832992553710938,1.8213436603546143 34.518367767333984,5.067684173583984 39.19826126098633,9.020812034606934 41.6064567565918,13.172773361206055 41.655372619628906,16.978891372680664 39.44142532348633,19.909475326538086 35.23456573486328,21.500516891479492 29.452880859375,21.398771286010742 22.62466049194336,19.397159576416016 15.34117603302002,15.457283973693848 8.204486846923828,9.716952323913574 1.7748371362686157,2.4819939136505127 -3.477689266204834,-5.7970099449157715 -7.212978839874268,-14.56106948852539 -9.24868106842041,-23.189056396484375 -9.5735445022583,-31.04986000061035 -8.345186233520508,-37.55583953857422 -5.872542858123779,-42.212894439697266 -2.584623098373413,-44.66274642944336 1.0115723609924316,-44.71369171142578 4.380170822143555,-42.35711669921875 7.008133888244629,-37.76836395263672 8.4548921585083,-31.291790008544922 8.39540958404541,-23.41141128540039 6.65279483795166,-14.709657669067383 3.2174830436706543,-5.817895889282227 -1.7487845420837402,2.6369223594665527 -7.924585342407227,10.084831237792969 -14.855072975158691,16.06000328063965 -21.990577697753906,20.238380432128906 -28.734155654907227,22.462507247924805 -34.493892669677734,22.75144386291504 -38.735321044921875,21.294921875 -41.02931594848633,18.432418823242188 -41.09119415283203,14.618987083435059 -38.80754852294922,10.381031036376953 -34.248355865478516,6.265978813171387 -27.66330337524414,2.7904253005981445 -19.46258544921875,0.3913712501525879 -10.183815002441406,-0.6150193214416504 -0.44790858030319214,-0.06345972418785095 9.092150688171387,2.0443360805511475 17.805265426635742,5.538905143737793 25.134132385253906,10.097742080688477 30.64059829711914,15.274168014526367 34.040504455566406,20.53778648376465 35.22500991821289,25.32292938232422 34.266578674316406,29.080739974975586 31.40913963317871,31.330299377441406 27.043426513671875,31.704099655151367 21.669645309448242,29.9838924407959 15.850937843322754,26.123594284057617 10.161728858947754,20.25716781616211 5.135627746582031,12.690711975097656 1.217510461807251,3.879385232925415 -1.2759538888931274,-5.60888147354126 -2.1838231086730957,-15.139708518981934 -1.514017939567566,-24.064626693725586 0.5590705275535583,-31.77487564086914 3.7122557163238525,-37.751956939697266 7.504903793334961,-41.61048889160156 11.421120643615723,-43.129661560058594 14.918973922729492,-42.2705078125 17.4823055267334,-39.17753982543945 18.67049789428711,-34.16461944580078 18.161636352539062,-27.68634033203125 15.785233497619629,-20.297481536865234 11.541478157043457,-12.604143142700195 5.605232238769531,-5.210891246795654 -1.6856324672698975,1.3314234018325806 -9.856630325317383,6.572560787200928 -18.335487365722656,10.200371742248535 -26.50002670288086,12.06558895111084 -33.73092269897461,12.191783905029297 -39.46467208862305,10.769665718078613 -43.24211120605469,8.1362943649292 -44.74825668334961,4.7411370277404785 -43.83985900878906,1.1020479202270508 -40.558319091796875,-2.244839906692505 -35.12674331665039,-4.796776294708252 -27.931459426879883,-6.13295316696167 -19.489530563354492,-5.95557165145874 -10.405170440673828,-4.119698524475098 -1.3188825845718384,-0.6491994261741638 7.1462483406066895,4.262723922729492 14.436368942260742,10.268497467041016 20.112262725830078,16.895341873168945 23.884368896484375,23.58609962463379 25.63440704345703,29.748096466064453 25.421751022338867,34.805747985839844 23.474048614501953,38.252201080322266 20.163036346435547,39.69542694091797 15.967737197875977,38.89468765258789 11.428404808044434,35.7840461730957 7.095354080200195,30.48082733154297 3.477296829223633,23.27825355529785 0.9938040375709534,14.62277603149414 -0.063817098736763,5.078136444091797 0.4402611255645752,-4.7207865715026855 2.4735283851623535,-14.12028980255127 5.8377885818481445,-22.501750946044922 10.187092781066895,-29.332447052001953 15.059358596801758,-34.20880126953125 19.918842315673828,-36.88835525512695 24.205669403076172,-37.30766677856445 27.387998580932617,-35.584590911865234 29.01211929321289,-32.004886627197266 28.746004104614258,-26.994293212890625 26.412368774414062,-21.07868194580078 22.008251190185547,-14.835813522338867 15.709268569946289,-8.843050956726074 7.858150005340576,-3.625650644302368 -1.0615712404251099,0.3897409439086914 -10.464408874511719,2.9122676849365234 -19.710969924926758,3.8114352226257324 -28.160995483398438,3.126913547515869 -35.226749420166016,1.062735915184021 -40.422115325927734,-2.0335500240325928 -43.403053283691406,-5.7048726081848145 -43.99590301513672,-9.428691864013672 -42.21107482910156,-12.66714096069336 -38.24092102050781,-14.918739318847656 -32.44200897216797,-15.766990661621094 -25.303394317626953,-14.921499252319336 -17.403675079345703,-12.247851371765137 -9.360692024230957,-7.783547401428223 -1.7782604694366455,-1.738485336303711 4.805335998535156,5.520118713378906 9.962559700012207,13.497097969055176 13.411585807800293,21.610454559326172 15.037959098815918,29.240615844726562 14.901107788085938,35.783531188964844 13.225168228149414,40.702880859375 10.37504768371582,43.57687759399414 6.819900035858154,44.13539123535156 3.087353229522705,42.28424072265625 -0.28738120198249817,38.11439514160156 -2.8129167556762695,31.895305633544922 -4.088974475860596,24.052906036376953 -3.845280885696411,15.134187698364258 -1.968559741973877,5.761502265930176 1.4848395586013794,-3.419466018676758 6.291838645935059,-11.793473243713379 12.08084487915039,-18.826520919799805 18.363685607910156,-24.10927391052246 24.57846450805664,-27.389299392700195 30.139524459838867,-28.589344024658203 34.490081787109375,-27.81011390686035 37.15287399291992,-25.3173770904541 37.77427291870117,-21.514619827270508 36.15789794921875,-16.903749465942383 32.284767150878906,-12.037393569946289 26.31805992126465,-7.467108726501465 18.592103958129883,-3.6921274662017822 9.586392402648926,-1.1132529973983765 -0.11302722245454788,0.003978599328547716 -9.86152458190918,-0.44642946124076843 -19.00898551940918,-2.401393413543701 -26.95341682434082,-5.634789943695068 -33.190391540527344,-9.778535842895508 -37.35400390625,-14.356813430786133 -39.24575424194336,-18.830371856689453 -38.84893035888672,-22.646942138671875 -36.32719421386719,-25.293216705322266 -32.00760269165039,-26.343774795532227 -26.349597930908203,-25.502450942993164 -19.902774810791016,-22.632537841796875 -13.257185935974121,-17.77292823791504 -6.99060583114624,-11.138797760009766 -1.6174781322479248,-3.1066172122955322 2.455962896347046,5.815211296081543 4.966409206390381,15.02759075164795 5.814976692199707,23.890233993530273 5.073625087738037,31.775123596191406 2.9759514331817627,38.11924743652344 -0.10674387216567993,42.471946716308594 -3.7019567489624023,44.532814025878906 -7.2817206382751465,44.17668914794922 -10.31346607208252,41.46369552612305 -12.311399459838867,36.633338928222656 -12.883768081665039,30.083280563354492 -11.771727561950684,22.334625244140625 -8.87629508972168,13.98680305480957 -4.270908355712891,5.666040420532227 1.8015927076339722,-2.0280416011810303 8.947356224060059,-8.573014259338379 16.653717041015625,-13.566959381103516 24.332387924194336,-16.760732650756836 31.369863510131836,-18.07637596130371 37.18058395385742,-17.610126495361328 41.258174896240234,-15.619795799255371 43.220218658447266,-12.497759819030762 42.842620849609375,-8.73200511932373 40.080421447753906,-4.858781337738037 35.073307037353516,-1.4111419916152954 28.135215759277344,1.1319944858551025 19.72896385192871,2.3916594982147217 10.42806339263916,2.1254043579101562 0.8691112399101257,0.25131624937057495 -8.30112361907959,-3.1426949501037598 -16.479272842407227,-7.80520486831665 -23.15491485595703,-13.342643737792969 -27.951778411865234,-19.25385284423828 -30.657018661499023,-24.974756240844727 -31.236059188842773,-29.929195404052734 -29.831724166870117,-33.58138656616211 -26.747865676879883,-35.48530578613281 -22.418962478637695,-35.32663345336914 -17.368478775024414,-32.953407287597656 -12.15974235534668,-28.3927001953125 -7.343728065490723,-21.85171890258789 -3.408456563949585,-13.70317268371582 -0.7345145344734192,-4.456147193908691 0.43933477997779846,5.284992218017578 0.037372805178165436,14.870136260986328 -1.846894383430481,23.657045364379883 -4.960141181945801,31.06439781188965 -8.91335391998291,36.61959457397461 -13.218520164489746,39.997215270996094 -17.334566116333008,41.04466247558594 -20.718433380126953,39.79295349121094 -22.876665115356445,36.45156478881836 -23.41292381286621,31.38797378540039 -22.067066192626953,25.093671798706055 -18.742300033569336,18.13973045349121 -13.51790714263916,11.12587833404541 -6.646317481994629,4.627573490142822 1.4652644395828247,-0.8541742563247681 10.287145614624023,-4.935840606689453 19.21053695678711,-7.383469104766846 27.598278045654297,-8.130990982055664 34.83844757080078,-7.283207416534424 40.396148681640625,-5.103220462799072 43.85896682739258,-1.985487461090088 44.97200393676758,1.5830310583114624 43.659542083740234,5.070115089416504 40.03130340576172,7.949647903442383 34.372833251953125,9.75245475769043 27.120874404907227,10.112034797668457 18.82581901550293,8.801034927368164 10.104628562927246,5.755167007446289 1.5883476734161377,1.0823603868484497 -6.131198406219482,-4.943720817565918 -12.550809860229492,-11.905280113220215 -17.297117233276367,-19.275243759155273 -20.15597152709961,-26.462326049804688 -21.087514877319336,-32.8623161315918 -20.22563362121582,-37.91108703613281 -17.861928939819336,-41.134586334228516 -14.415742874145508,-42.19142532348633 -10.392915725708008,-40.90424728393555 -6.337070941925049,-37.27706527709961 -2.7777888774871826,-31.49699592590332 -0.18035776913166046,-23.92024040222168 1.0983856916427612,-15.043436050415039 0.8441452980041504,-5.462937355041504 -0.993886411190033,4.174483776092529 -4.297117710113525,13.225168228149414 -8.787235260009766,21.10167121887207 -14.050628662109375,27.3207950592041 -19.575397491455078,31.542375564575195 -24.797653198242188,33.595420837402344 -29.152978897094727,33.48941421508789 -32.12846374511719,31.409828186035156 -33.31064987182617,27.698274612426758 -32.42509460449219,22.819189071655273 -29.36396026611328,17.316030502319336 -24.19915008544922,11.760916709899902 -17.179733276367188,6.702243328094482 -8.713837623596191,2.6149394512176514 0.6634928584098816,-0.14219209551811218 10.333661079406738,-1.3582507371902466 19.64536476135254,-0.9883162379264832 27.968460083007812,0.8437647223472595 34.74616241455078,3.8581111431121826 39.54100036621094,7.645893096923828 42.07053756713867,11.708321571350098 42.22968292236328,15.504033088684082 40.0977783203125,18.5006046295166 35.929744720458984,20.225547790527344 30.132211685180664,20.31219482421875 23.226715087890625,18.536333084106445 15.80324935913086,14.840238571166992 8.468348503112793,9.34190845489502 1.7922239303588867,2.328594923019409 -3.740314245223999,-5.764864444732666 -7.770838260650635,-14.391070365905762 -10.09659481048584,-22.93539810180664 -10.685544967651367,-30.767675399780273 -9.675884246826172,-37.295692443847656 -7.360137939453125,-42.01580047607422 -4.155314922332764,-44.55618667602539 -0.5618591904640198,-44.70897674560547 2.8849079608917236,-42.448368072509766 5.666438102722168,-37.933135986328125 7.331048488616943,-31.493345260620117 7.537933349609375,-23.602397918701172 6.091100215911865,-14.836883544921875 2.960160255432129,-5.82773494720459 -1.713940978050232,2.792956829071045 -7.628826141357422,10.444872856140137 -14.345381736755371,16.6474609375 -21.325103759765625,21.058795928955078 -27.976808547973633,23.501968383789062 -33.70856857299805,23.9766902923584 -37.98030090332031,22.655179977416992 -40.3523063659668,19.862794876098633 -40.52546310424805,16.045166015625 -38.369476318359375,11.724868774414062 -33.93663787841797,7.451518535614014 -27.459819793701172,3.749809980392456 -19.33489990234375,1.0701566934585571 -10.088996887207031,-0.2536175549030304 -0.33740031719207764,-0.03574800863862038 9.2671480178833,1.7436760663986206 18.088336944580078,4.936195373535156 25.55865478515625,9.2379789352417 31.225658416748047,14.21718978881836 34.788116455078125,19.353275299072266 36.118919372558594,24.084680557250977 35.272735595703125,27.860727310180664 32.47787094116211,30.192977905273438 28.113075256347656,30.70154571533203 22.671422958374023,29.152103424072266 16.71452522277832,25.48030662536621 10.8211669921875,19.80135154724121 5.534969806671143,12.403769493103027 1.3157367706298828,3.7279281616210938 -1.5011857748031616,-5.668938159942627 -2.7339353561401367,-15.1581392288208 -2.3689775466918945,-24.091426849365234 -0.5604773759841919,-31.85483741760254 2.3857104778289795,-37.91978454589844 6.041968822479248,-41.88692855834961 9.900050163269043,-43.518978118896484 13.41970443725586,-42.75955581665039 16.080419540405273,-39.73652267456055 17.431594848632812,-34.749473571777344 17.13664436340332,-28.24254035949707 15.007013320922852,-20.764928817749023 11.023005485534668,-12.922714233398438 5.339528560638428,-5.326125621795654 -1.7238781452178955,1.4629898071289062 -9.707876205444336,6.97890043258667 -18.050912857055664,10.890725135803223 -26.13626480102539,13.028783798217773 -33.34443283081055,13.396265029907227 -39.10625457763672,12.165268898010254 -42.952110290527344,9.657622337341309 -44.55278778076172,6.3122429847717285 -43.74850082397461,2.642052412033081 -40.56339645385742,-0.8156853914260864 -35.20433044433594,-3.5510964393615723 -28.043933868408203,-5.130836486816406 -19.589502334594727,-5.240197658538818 -10.440414428710938,-3.7143797874450684 -1.2377902269363403,-0.5560773015022278 7.389157295227051,4.062223434448242 14.875405311584473,9.811502456665039 20.766448974609375,16.233869552612305 24.754657745361328,22.78221893310547 26.702457427978516,28.86835479736328 26.650436401367188,33.91535568237305 24.80965232849121,37.40948486328125 21.53896713256836,38.947052001953125 17.3094482421875,38.27204513549805 12.659102439880371,35.30113220214844 8.142010688781738,30.133808135986328 4.276440620422363,23.046669006347656 1.4965934753417969,14.472354888916016 0.11232201009988785,4.964876174926758 0.28041478991508484,-4.845617294311523 1.990031123161316,-14.304701805114746 5.063584804534912,-22.787647247314453 9.173004150390625,-29.750789642333984 13.869909286499023,-34.77578353881836 18.62701988220215,-37.60295486450195 22.887069702148438,-38.150787353515625 26.114852905273438,-36.51991271972656 27.847742080688477,-32.98136520385742 27.740121841430664,-27.950069427490234 25.59772300720215,-21.946102142333984 21.398771286010742,-15.547117233276367 15.299954414367676,-9.336200714111328 7.626637935638428,-3.8498191833496094 -1.1518985033035278,0.4695183038711548 -10.460083961486816,3.3117053508758545 -19.663267135620117,4.525166034698486 -28.120405197143555,4.128391265869141 -35.23762130737305,2.305889844894409 -40.51793670654297,-0.6110424399375916 -43.60281753540039,-4.176968574523926 -44.30189514160156,-7.875415802001953 -42.608306884765625,-11.16854190826416 -38.698204040527344,-13.548885345458984 -32.91466522216797,-14.588521003723145 -25.73728370666504,-13.981184959411621 -17.74024772644043,-11.573548316955566 -9.542566299438477,-7.382784843444824 -1.7548367977142334,-1.5987951755523682 5.072720527648926,5.429178714752197 10.496424674987793,13.22042465209961 14.215420722961426,21.202707290649414 16.09494972229004,28.760793685913086 16.174583435058594,35.28929138183594 14.660768508911133,40.245155334472656 11.904425621032715,43.195186614990234 8.365669250488281,43.854373931884766 4.568838596343994,42.111637115478516 1.0519416332244873,38.04069519042969 -1.6849464178085327,31.895061492919922 -3.2276649475097656,24.087596893310547 -3.28800368309021,15.156383514404297 -1.7321760654449463,5.719921588897705 1.4048515558242798,-3.5744709968566895 5.920497417449951,-12.104483604431152 11.461100578308105,-19.324199676513672 17.55242156982422,-24.808530807495117 23.641403198242188,-28.286836624145508 29.14551544189453,-29.66283416748047 33.50526809692383,-29.019079208374023 36.2352409362793,-26.605749130249023 36.969051361083984,-22.814727783203125 35.49424743652344,-18.141443252563477 31.773998260498047,-13.137836456298828 25.95353126525879,-8.360757827758789 18.35080909729004,-4.320365905761719 9.432053565979004,-1.4332001209259033 -0.2256338745355606,0.015904495492577553 -9.98143196105957,-0.10034767538309097 -19.183551788330078,-1.74043869972229 -27.223020553588867,-4.698318004608154 -33.583778381347656,-8.622847557067871 -37.88471984863281,-13.050671577453613 -39.910037994384766,-17.449539184570312 -39.62520217895508,-21.26822280883789 -37.177268981933594,-23.988513946533203 -32.879486083984375,-25.17465591430664 -27.18166160583496,-24.515745162963867 -20.62892723083496,-21.85723114013672 -13.812581062316895,-17.21873664855957 -7.31742000579834,-10.796415328979492 -1.6702009439468384,-2.94966721534729 2.7061736583709717,5.826756477355957 5.5287041664123535,14.94282341003418 6.6774067878723145,23.76199722290039 6.203474044799805,31.654462814331055 4.321807384490967,38.05009841918945 1.388641357421875,42.48663330078125 -2.1336936950683594,44.648651123046875 -5.7216715812683105,44.394107818603516 -8.841071128845215,41.7659912109375 -10.998522758483887,36.98810958862305 -11.789438247680664,30.44540786743164 -10.937994956970215,22.650535583496094 -8.325551986694336,14.1996431350708 -4.004883289337158,5.72126579284668 1.8010882139205933,-2.1771416664123535 8.716014862060547,-8.960371017456055 16.24088478088379,-14.20981216430664 23.796140670776367,-17.65711212158203 30.77142906188965,-19.204235076904297 36.57865905761719,-18.92818832397461 40.70359802246094,-17.070104598999023 42.751522064208984,-14.009697914123535 42.4827880859375,-10.227450370788574 39.83522033691406,-6.257975101470947 34.931278228759766,-2.638758659362793 28.069316864013672,0.14109297096729279 19.699726104736328,1.6874767541885376 10.38796329498291,1.7390944957733154 0.767749547958374,0.19301630556583405 -8.511524200439453,-2.8843038082122803 -16.838539123535156,-7.26157808303833 -23.69027328491211,-12.562417984008789 -28.674304962158203,-18.298521041870117 -31.55954933166504,-23.913354873657227 -32.292720794677734,-28.832483291625977 -30.99921226501465,-32.515995025634766 -27.96831512451172,-34.50843048095703 -23.624221801757812,-34.48164367675781 -18.485382080078125,-32.266849517822266 -13.115968704223633,-27.872854232788086 -8.073707580566406,-21.488861083984375 -3.8588223457336426,-13.47150993347168 -0.8686226010322571,-4.317220211029053 0.6382149457931519,5.377776145935059 0.5644813179969788,14.966238021850586 -1.0176312923431396,23.803306579589844 -3.8741915225982666,31.299819946289062 -7.632081508636475,36.97089385986328 -11.81440258026123,40.475521087646484 -15.885549545288086,41.64375305175781 -19.30190086364746,40.489097595214844 -21.563549041748047,37.20505905151367 -22.262451171875,32.14626693725586 -21.122591018676758,25.795740127563477 -18.02858543395996,18.72138786315918 -13.04004192352295,11.525497436523438 -6.390384674072266,4.7917609214782715 1.5298795700073242,-0.9655060768127441 10.204020500183105,-5.345422267913818 19.031400680541992,-8.094036102294922 27.377574920654297,-9.124292373657227 34.62776184082031,-8.52077579498291 40.23902893066406,-6.528832912445068 43.786563873291016,-3.5291366577148438 45,-3.5269828507419887e-13"
  />
</svg>
