<?xml version="1.0" encoding="UTF-8"?>
<!DOCTYPE svg>
<svg data-animation-duration="3s" preserveAspectRatio="xMidYMid meet" version="1.1" viewBox="0 0 100 100" xmlns:xlink="http://www.w3.org/1999/xlink" xmlns="http://www.w3.org/2000/svg"><style>/* <![CDATA[ */ @keyframes svg-25-a-main-anim{0%{transform:translate(-8%,0)}to{transform:translate(8%,0)}}.svg-25-a-path{stroke:#000;stroke-width:.2;fill:#fff;animation:svg-25-a-main-anim 3s ease-in-out alternate infinite} /* ]]> */</style><g class="svg-25-a-g" transform="translate(0, 44)"><path class="svg-25-a-path" d="M-50,0 h50 h10 c32,0 24,-20 40,-20 c16,0 8,20 40,20 h10 h50" style="animation-delay: -0s"/></g><g class="svg-25-a-g" transform="translate(0, 45)"><path class="svg-25-a-path" d="M-50,0 h50 h10 c32,0 24,-20 40,-20 c16,0 8,20 40,20 h10 h50" style="animation-delay: -0.46153846153846156s"/></g><g class="svg-25-a-g" transform="translate(0, 46)"><path class="svg-25-a-path" d="M-50,0 h50 h10 c32,0 24,-20 40,-20 c16,0 8,20 40,20 h10 h50" style="animation-delay: -0.9230769230769231s"/></g><g class="svg-25-a-g" transform="translate(0, 47)"><path class="svg-25-a-path" d="M-50,0 h50 h10 c32,0 24,-20 40,-20 c16,0 8,20 40,20 h10 h50" style="animation-delay: -1.3846153846153846s"/></g><g class="svg-25-a-g" transform="translate(0, 48)"><path class="svg-25-a-path" d="M-50,0 h50 h10 c32,0 24,-20 40,-20 c16,0 8,20 40,20 h10 h50" style="animation-delay: -1.8461538461538463s"/></g><g class="svg-25-a-g" transform="translate(0, 49)"><path class="svg-25-a-path" d="M-50,0 h50 h10 c32,0 24,-20 40,-20 c16,0 8,20 40,20 h10 h50" style="animation-delay: -2.307692307692308s"/></g><g class="svg-25-a-g" transform="translate(0, 50)"><path class="svg-25-a-path" d="M-50,0 h50 h10 c32,0 24,-20 40,-20 c16,0 8,20 40,20 h10 h50" style="animation-delay: -2.769230769230769s"/></g><g class="svg-25-a-g" transform="translate(0, 51)"><path class="svg-25-a-path" d="M-50,0 h50 h10 c32,0 24,-20 40,-20 c16,0 8,20 40,20 h10 h50" style="animation-delay: -3.230769230769231s"/></g><g class="svg-25-a-g" transform="translate(0, 52)"><path class="svg-25-a-path" d="M-50,0 h50 h10 c32,0 24,-20 40,-20 c16,0 8,20 40,20 h10 h50" style="animation-delay: -3.6923076923076925s"/></g><g class="svg-25-a-g" transform="translate(0, 53)"><path class="svg-25-a-path" d="M-50,0 h50 h10 c32,0 24,-20 40,-20 c16,0 8,20 40,20 h10 h50" style="animation-delay: -4.153846153846154s"/></g><g class="svg-25-a-g" transform="translate(0, 54)"><path class="svg-25-a-path" d="M-50,0 h50 h10 c32,0 24,-20 40,-20 c16,0 8,20 40,20 h10 h50" style="animation-delay: -4.615384615384616s"/></g><g class="svg-25-a-g" transform="translate(0, 55)"><path class="svg-25-a-path" d="M-50,0 h50 h10 c32,0 24,-20 40,-20 c16,0 8,20 40,20 h10 h50" style="animation-delay: -5.0769230769230775s"/></g><g class="svg-25-a-g" transform="translate(0, 56)"><path class="svg-25-a-path" d="M-50,0 h50 h10 c32,0 24,-20 40,-20 c16,0 8,20 40,20 h10 h50" style="animation-delay: -5.538461538461538s"/></g><title>ANIMATION 25 - VARIATION A</title><desc><p>Created by <a href="http://andrew.wang-hoyer.com" target="_blank" rel="noopener">Andrew Wang-Hoyer</a>.</p><p>Inspired by <a href="https://pin.it/wiedw45nag5owj" target="_blank" rel="noopener">this pin</a> (original artist unknown).</p></desc></svg>
