<?xml version="1.0" encoding="UTF-8"?>
<!DOCTYPE svg>
<svg
  data-animation-duration="3s"
  viewBox="0 0 100 100"
>
  <title>
    ANIMATION 25 - VARIATION B
  </title>
  <desc>
    <p>Inspired by <a href="https://pin.it/wiedw45nag5owj" target="_blank" rel="noopener">this pin</a> (original artist unknown).</p>
    <p>See this animation in action here: <a href="https://andrew.wang-hoyer.com/experiments/svg-animations/25/b" target="_blank" rel="noopener">https://andrew.wang-hoyer.com/experiments/svg-animations/25/b</a>.</p>
    <p>Generator source code : <a href="https://github.com/ndrwhr/svg-animation-src/tree/master/site/_svgs/generators/animations/25/b.js" target="_blank" rel="noopener">https://github.com/ndrwhr/svg-animation-src/tree/master/site/_svgs/generators/animations/25/b.js</a>.</p>
    <p>All generated files and source code are released under the following license:</p>
    <p>MIT License</p>
    <p>Copyright (c) 2018-present Andrew Hoyer</p>
    <p>Permission is hereby granted, free of charge, to any person obtaining a copy of this software and associated documentation files (the &quot;Software&quot;), to deal in the Software without restriction, including without limitation the rights to use, copy, modify, merge, publish, distribute, sublicense, and/or sell copies of the Software, and to permit persons to whom the Software is furnished to do so, subject to the following conditions:</p>
    <p>The above copyright notice and this permission notice shall be included in all copies or substantial portions of the Software.</p>
    <p>THE SOFTWARE IS PROVIDED &quot;AS IS&quot;, WITHOUT WARRANTY OF ANY KIND, EXPRESS OR IMPLIED, INCLUDING BUT NOT LIMITED TO THE WARRANTIES OF MERCHANTABILITY, FITNESS FOR A PARTICULAR PURPOSE AND NONINFRINGEMENT. IN NO EVENT SHALL THE AUTHORS OR COPYRIGHT HOLDERS BE LIABLE FOR ANY CLAIM, DAMAGES OR OTHER LIABILITY, WHETHER IN AN ACTION OF CONTRACT, TORT OR OTHERWISE, ARISING FROM, OUT OF OR IN CONNECTION WITH THE SOFTWARE OR THE USE OR OTHER DEALINGS IN THE SOFTWARE.</p>
  </desc>
  <style>
    /* <![CDATA[ */
      .svg-25-b-path {
        stroke: black;
        stroke-width: .2;
        fill: white;
        animation: svg-25-b-main-anim 3s ease-in-out alternate infinite;
      }
      
      @keyframes svg-25-b-main-anim {
        from {
          transform: translate(-8%, 0);
        }
      
        to {
          transform: translate(8%, 0);
        }
      }
      
    /* ]]> */
  </style>
  <defs>
    <clipPath
      id="svg-25-b-mask"
    >
      <rect
        class="svg-25-b-rect"
        height="100"
        width="100"
        x="0"
        y="0"
      />
    </clipPath>
  </defs>
  <g
    class="svg-25-b-g"
    clip-path="url(#svg-25-b-mask)"
  >
    <g
      class="svg-25-b-g"
      transform="translate(0, 44)"
    >
      <path
        class="svg-25-b-path"
        d="M-50,0 h50 h30 c16,0 12,-1 20,-1 c8,0 4,1 20,1 h30 h50"
        style="animation-delay: -0s"
      />
    </g>
    <g
      class="svg-25-b-g"
      transform="translate(0, 45)"
    >
      <path
        class="svg-25-b-path"
        d="M-50,0 h50 h28.46153846153846 c17.230769230769234,0 12.923076923076923,-2.4615384615384617 21.53846153846154,-2.4615384615384617 c8.615384615384617,0 4.307692307692307,2.4615384615384617 21.53846153846154,2.4615384615384617 h28.46153846153846 h50"
        style="animation-delay: -0.46153846153846156s"
      />
    </g>
    <g
      class="svg-25-b-g"
      transform="translate(0, 46)"
    >
      <path
        class="svg-25-b-path"
        d="M-50,0 h50 h26.923076923076923 c18.461538461538463,0 13.846153846153845,-3.923076923076923 23.076923076923077,-3.923076923076923 c9.230769230769232,0 4.615384615384613,3.923076923076923 23.076923076923077,3.923076923076923 h26.923076923076923 h50"
        style="animation-delay: -0.9230769230769231s"
      />
    </g>
    <g
      class="svg-25-b-g"
      transform="translate(0, 47)"
    >
      <path
        class="svg-25-b-path"
        d="M-50,0 h50 h25.384615384615387 c19.692307692307693,0 14.769230769230766,-5.384615384615385 24.615384615384613,-5.384615384615385 c9.846153846153847,0 4.92307692307692,5.384615384615385 24.615384615384613,5.384615384615385 h25.384615384615387 h50"
        style="animation-delay: -1.3846153846153846s"
      />
    </g>
    <g
      class="svg-25-b-g"
      transform="translate(0, 48)"
    >
      <path
        class="svg-25-b-path"
        d="M-50,0 h50 h23.846153846153847 c20.923076923076923,0 15.692307692307692,-6.846153846153846 26.153846153846153,-6.846153846153846 c10.461538461538462,0 5.23076923076923,6.846153846153846 26.153846153846153,6.846153846153846 h23.846153846153847 h50"
        style="animation-delay: -1.8461538461538463s"
      />
    </g>
    <g
      class="svg-25-b-g"
      transform="translate(0, 49)"
    >
      <path
        class="svg-25-b-path"
        d="M-50,0 h50 h22.307692307692307 c22.153846153846157,0 16.615384615384613,-8.307692307692307 27.692307692307693,-8.307692307692307 c11.076923076923078,0 5.5384615384615365,8.307692307692307 27.692307692307693,8.307692307692307 h22.307692307692307 h50"
        style="animation-delay: -2.307692307692308s"
      />
    </g>
    <g
      class="svg-25-b-g"
      transform="translate(0, 50)"
    >
      <path
        class="svg-25-b-path"
        d="M-50,0 h50 h20.76923076923077 c23.384615384615387,0 17.538461538461537,-9.76923076923077 29.23076923076923,-9.76923076923077 c11.692307692307693,0 5.846153846153843,9.76923076923077 29.23076923076923,9.76923076923077 h20.76923076923077 h50"
        style="animation-delay: -2.769230769230769s"
      />
    </g>
    <g
      class="svg-25-b-g"
      transform="translate(0, 51)"
    >
      <path
        class="svg-25-b-path"
        d="M-50,0 h50 h19.23076923076923 c24.615384615384617,0 18.46153846153846,-11.23076923076923 30.76923076923077,-11.23076923076923 c12.307692307692308,0 6.153846153846153,11.23076923076923 30.76923076923077,11.23076923076923 h19.23076923076923 h50"
        style="animation-delay: -3.230769230769231s"
      />
    </g>
    <g
      class="svg-25-b-g"
      transform="translate(0, 52)"
    >
      <path
        class="svg-25-b-path"
        d="M-50,0 h50 h17.692307692307693 c25.846153846153847,0 19.384615384615383,-12.692307692307692 32.30769230769231,-12.692307692307692 c12.923076923076923,0 6.46153846153846,12.692307692307692 32.30769230769231,12.692307692307692 h17.692307692307693 h50"
        style="animation-delay: -3.6923076923076925s"
      />
    </g>
    <g
      class="svg-25-b-g"
      transform="translate(0, 53)"
    >
      <path
        class="svg-25-b-path"
        d="M-50,0 h50 h16.153846153846153 c27.07692307692308,0 20.307692307692307,-14.153846153846153 33.84615384615385,-14.153846153846153 c13.53846153846154,0 6.7692307692307665,14.153846153846153 33.84615384615385,14.153846153846153 h16.153846153846153 h50"
        style="animation-delay: -4.153846153846154s"
      />
    </g>
    <g
      class="svg-25-b-g"
      transform="translate(0, 54)"
    >
      <path
        class="svg-25-b-path"
        d="M-50,0 h50 h14.615384615384613 c28.30769230769231,0 21.230769230769234,-15.615384615384615 35.38461538461539,-15.615384615384615 c14.153846153846155,0 7.076923076923077,15.615384615384615 35.38461538461539,15.615384615384615 h14.615384615384613 h50"
        style="animation-delay: -4.615384615384616s"
      />
    </g>
    <g
      class="svg-25-b-g"
      transform="translate(0, 55)"
    >
      <path
        class="svg-25-b-path"
        d="M-50,0 h50 h13.07692307692308 c29.538461538461537,0 22.153846153846153,-17.076923076923077 36.92307692307692,-17.076923076923077 c14.769230769230768,0 7.384615384615383,17.076923076923077 36.92307692307692,17.076923076923077 h13.07692307692308 h50"
        style="animation-delay: -5.0769230769230775s"
      />
    </g>
    <g
      class="svg-25-b-g"
      transform="translate(0, 56)"
    >
      <path
        class="svg-25-b-path"
        d="M-50,0 h50 h11.53846153846154 c30.76923076923077,0 23.076923076923073,-18.53846153846154 38.46153846153846,-18.53846153846154 c15.384615384615385,0 7.69230769230769,18.53846153846154 38.46153846153846,18.53846153846154 h11.53846153846154 h50"
        style="animation-delay: -5.538461538461538s"
      />
    </g>
  </g>
</svg>
