<?xml version="1.0" encoding="UTF-8"?>
<!DOCTYPE svg><svg data-animation-duration="10s" preserveAspectRatio="xMidYMid meet" version="1.1" viewBox="-50 -50 100 100" xmlns:xlink="http://www.w3.org/1999/xlink" xmlns="http://www.w3.org/2000/svg"><style>/* <![CDATA[ */ @keyframes svg-08-b-poly-anim{0%{transform:rotate(0)}to{transform:rotate(360deg)}}.svg-08-b-polygon{stroke:none}.svg-08-b-polygon:nth-child(odd){fill:#000;animation:svg-08-b-poly-anim 10s linear infinite}.svg-08-b-polygon:nth-child(even){fill:#fff}.svg-08-b-polygon:nth-child(3n){animation-direction:reverse} /* ]]> */</style><g class="svg-08-b-g"><polygon class="svg-08-b-polygon" points="0,-50 50,-3.06161710499314e-15 6.12323420998628e-15,50 -50,9.184850891462946e-15"/><polygon class="svg-08-b-polygon" points="0,-46.5 46.5,-2.847304005052409e-15 5.694608010104818e-15,46.5 -46.5,8.541911379882517e-15" transform="rotate(90)"/><polygon class="svg-08-b-polygon" points="0,-40 40,-2.4492935992912173e-15 4.8985871985824346e-15,40 -40,7.347880374357178e-15"/><polygon class="svg-08-b-polygon" points="0,-37.20000076293945 37.20000076293945,-2.2778431193386326e-15 4.555686238677265e-15,37.20000076293945 -37.20000076293945,6.833528934499424e-15" transform="rotate(90)"/><polygon class="svg-08-b-polygon" points="0,-30 30,-1.8369703053475314e-15 3.673940610695063e-15,30 -30,5.510910280767884e-15"/><polygon class="svg-08-b-polygon" points="0,-27.899999618530273 27.899999618530273,-1.7083823395039745e-15 3.416764679007949e-15,27.899999618530273 -27.899999618530273,5.125146489116331e-15" transform="rotate(90)"/><polygon class="svg-08-b-polygon" points="0,-20 20,-1.2246467996456087e-15 2.4492935992912173e-15,20 -20,3.673940187178589e-15"/><polygon class="svg-08-b-polygon" points="0,-18.600000381469727 18.600000381469727,-1.1389215596693163e-15 2.2778431193386326e-15,18.600000381469727 -18.600000381469727,3.416764467249712e-15" transform="rotate(90)"/><polygon class="svg-08-b-polygon" points="0,-10 10,-6.123233998228043e-16 1.2246467996456087e-15,10 -10,1.8369700935892946e-15"/><polygon class="svg-08-b-polygon" points="0,-9.300000190734863 9.300000190734863,-5.694607798346582e-16 1.1389215596693163e-15,9.300000190734863 -9.300000190734863,1.708382233624856e-15" transform="rotate(90)"/></g><title>ANIMATION 08 - VARIATION B</title><desc><p>Created by <a href="http://andrew.wang-hoyer.com" target="_blank" rel="noopener">Andrew Wang-Hoyer</a>.</p></desc></svg>
