<?xml version="1.0" encoding="UTF-8"?>
<!DOCTYPE svg><svg data-animation-duration="2s" preserveAspectRatio="xMidYMid meet" version="1.1" viewBox="-50 -50 100 100" xmlns:xlink="http://www.w3.org/1999/xlink" xmlns="http://www.w3.org/2000/svg"><style>/* <![CDATA[ */ @keyframes svg-33-c-main-anim{0%{transform:rotate(0deg)}to{transform:rotate(360deg)}}.svg-33-c-circle{fill:#000;stroke:none;animation:svg-33-c-main-anim 2s linear infinite} /* ]]> */</style><g class="svg-33-c-g" transform="translate(-31.11111068725586, -31.11111068725586)"><circle class="svg-33-c-circle" cx="2" cy="2" r="2" style="animation-delay: -1400ms"/></g><g class="svg-33-c-g" transform="translate(-31.11111068725586, -22.22222137451172)"><circle class="svg-33-c-circle" cx="2" cy="2" r="2" style="animation-delay: -1400ms"/></g><g class="svg-33-c-g" transform="translate(-31.11111068725586, -13.333333015441895)"><circle class="svg-33-c-circle" cx="2" cy="2" r="2" style="animation-delay: -1400ms"/></g><g class="svg-33-c-g" transform="translate(-31.11111068725586, -4.44444465637207)"><circle class="svg-33-c-circle" cx="2" cy="2" r="2" style="animation-delay: -1400ms"/></g><g class="svg-33-c-g" transform="translate(-31.11111068725586, 4.44444465637207)"><circle class="svg-33-c-circle" cx="2" cy="2" r="2" style="animation-delay: -1400ms"/></g><g class="svg-33-c-g" transform="translate(-31.11111068725586, 13.333333015441895)"><circle class="svg-33-c-circle" cx="2" cy="2" r="2" style="animation-delay: -1400ms"/></g><g class="svg-33-c-g" transform="translate(-31.11111068725586, 22.22222137451172)"><circle class="svg-33-c-circle" cx="2" cy="2" r="2" style="animation-delay: -1400ms"/></g><g class="svg-33-c-g" transform="translate(-31.11111068725586, 31.11111068725586)"><circle class="svg-33-c-circle" cx="2" cy="2" r="2" style="animation-delay: -1400ms"/></g><g class="svg-33-c-g" transform="translate(-22.22222137451172, -31.11111068725586)"><circle class="svg-33-c-circle" cx="2" cy="2" r="2" style="animation-delay: -1200ms"/></g><g class="svg-33-c-g" transform="translate(-22.22222137451172, -22.22222137451172)"><circle class="svg-33-c-circle" cx="2" cy="2" r="2" style="animation-delay: -1200ms"/></g><g class="svg-33-c-g" transform="translate(-22.22222137451172, -13.333333015441895)"><circle class="svg-33-c-circle" cx="2" cy="2" r="2" style="animation-delay: -1200ms"/></g><g class="svg-33-c-g" transform="translate(-22.22222137451172, -4.44444465637207)"><circle class="svg-33-c-circle" cx="2" cy="2" r="2" style="animation-delay: -1200ms"/></g><g class="svg-33-c-g" transform="translate(-22.22222137451172, 4.44444465637207)"><circle class="svg-33-c-circle" cx="2" cy="2" r="2" style="animation-delay: -1200ms"/></g><g class="svg-33-c-g" transform="translate(-22.22222137451172, 13.333333015441895)"><circle class="svg-33-c-circle" cx="2" cy="2" r="2" style="animation-delay: -1200ms"/></g><g class="svg-33-c-g" transform="translate(-22.22222137451172, 22.22222137451172)"><circle class="svg-33-c-circle" cx="2" cy="2" r="2" style="animation-delay: -1200ms"/></g><g class="svg-33-c-g" transform="translate(-22.22222137451172, 31.11111068725586)"><circle class="svg-33-c-circle" cx="2" cy="2" r="2" style="animation-delay: -1200ms"/></g><g class="svg-33-c-g" transform="translate(-13.333333015441895, -31.11111068725586)"><circle class="svg-33-c-circle" cx="2" cy="2" r="2" style="animation-delay: -1000ms"/></g><g class="svg-33-c-g" transform="translate(-13.333333015441895, -22.22222137451172)"><circle class="svg-33-c-circle" cx="2" cy="2" r="2" style="animation-delay: -1000ms"/></g><g class="svg-33-c-g" transform="translate(-13.333333015441895, -13.333333015441895)"><circle class="svg-33-c-circle" cx="2" cy="2" r="2" style="animation-delay: -1000ms"/></g><g class="svg-33-c-g" transform="translate(-13.333333015441895, -4.44444465637207)"><circle class="svg-33-c-circle" cx="2" cy="2" r="2" style="animation-delay: -1000ms"/></g><g class="svg-33-c-g" transform="translate(-13.333333015441895, 4.44444465637207)"><circle class="svg-33-c-circle" cx="2" cy="2" r="2" style="animation-delay: -1000ms"/></g><g class="svg-33-c-g" transform="translate(-13.333333015441895, 13.333333015441895)"><circle class="svg-33-c-circle" cx="2" cy="2" r="2" style="animation-delay: -1000ms"/></g><g class="svg-33-c-g" transform="translate(-13.333333015441895, 22.22222137451172)"><circle class="svg-33-c-circle" cx="2" cy="2" r="2" style="animation-delay: -1000ms"/></g><g class="svg-33-c-g" transform="translate(-13.333333015441895, 31.11111068725586)"><circle class="svg-33-c-circle" cx="2" cy="2" r="2" style="animation-delay: -1000ms"/></g><g class="svg-33-c-g" transform="translate(-4.44444465637207, -31.11111068725586)"><circle class="svg-33-c-circle" cx="2" cy="2" r="2" style="animation-delay: -800ms"/></g><g class="svg-33-c-g" transform="translate(-4.44444465637207, -22.22222137451172)"><circle class="svg-33-c-circle" cx="2" cy="2" r="2" style="animation-delay: -800ms"/></g><g class="svg-33-c-g" transform="translate(-4.44444465637207, -13.333333015441895)"><circle class="svg-33-c-circle" cx="2" cy="2" r="2" style="animation-delay: -800ms"/></g><g class="svg-33-c-g" transform="translate(-4.44444465637207, -4.44444465637207)"><circle class="svg-33-c-circle" cx="2" cy="2" r="2" style="animation-delay: -800ms"/></g><g class="svg-33-c-g" transform="translate(-4.44444465637207, 4.44444465637207)"><circle class="svg-33-c-circle" cx="2" cy="2" r="2" style="animation-delay: -800ms"/></g><g class="svg-33-c-g" transform="translate(-4.44444465637207, 13.333333015441895)"><circle class="svg-33-c-circle" cx="2" cy="2" r="2" style="animation-delay: -800ms"/></g><g class="svg-33-c-g" transform="translate(-4.44444465637207, 22.22222137451172)"><circle class="svg-33-c-circle" cx="2" cy="2" r="2" style="animation-delay: -800ms"/></g><g class="svg-33-c-g" transform="translate(-4.44444465637207, 31.11111068725586)"><circle class="svg-33-c-circle" cx="2" cy="2" r="2" style="animation-delay: -800ms"/></g><g class="svg-33-c-g" transform="translate(4.44444465637207, -31.11111068725586)"><circle class="svg-33-c-circle" cx="2" cy="2" r="2" style="animation-delay: -600ms"/></g><g class="svg-33-c-g" transform="translate(4.44444465637207, -22.22222137451172)"><circle class="svg-33-c-circle" cx="2" cy="2" r="2" style="animation-delay: -600ms"/></g><g class="svg-33-c-g" transform="translate(4.44444465637207, -13.333333015441895)"><circle class="svg-33-c-circle" cx="2" cy="2" r="2" style="animation-delay: -600ms"/></g><g class="svg-33-c-g" transform="translate(4.44444465637207, -4.44444465637207)"><circle class="svg-33-c-circle" cx="2" cy="2" r="2" style="animation-delay: -600ms"/></g><g class="svg-33-c-g" transform="translate(4.44444465637207, 4.44444465637207)"><circle class="svg-33-c-circle" cx="2" cy="2" r="2" style="animation-delay: -600ms"/></g><g class="svg-33-c-g" transform="translate(4.44444465637207, 13.333333015441895)"><circle class="svg-33-c-circle" cx="2" cy="2" r="2" style="animation-delay: -600ms"/></g><g class="svg-33-c-g" transform="translate(4.44444465637207, 22.22222137451172)"><circle class="svg-33-c-circle" cx="2" cy="2" r="2" style="animation-delay: -600ms"/></g><g class="svg-33-c-g" transform="translate(4.44444465637207, 31.11111068725586)"><circle class="svg-33-c-circle" cx="2" cy="2" r="2" style="animation-delay: -600ms"/></g><g class="svg-33-c-g" transform="translate(13.333333015441895, -31.11111068725586)"><circle class="svg-33-c-circle" cx="2" cy="2" r="2" style="animation-delay: -400ms"/></g><g class="svg-33-c-g" transform="translate(13.333333015441895, -22.22222137451172)"><circle class="svg-33-c-circle" cx="2" cy="2" r="2" style="animation-delay: -400ms"/></g><g class="svg-33-c-g" transform="translate(13.333333015441895, -13.333333015441895)"><circle class="svg-33-c-circle" cx="2" cy="2" r="2" style="animation-delay: -400ms"/></g><g class="svg-33-c-g" transform="translate(13.333333015441895, -4.44444465637207)"><circle class="svg-33-c-circle" cx="2" cy="2" r="2" style="animation-delay: -400ms"/></g><g class="svg-33-c-g" transform="translate(13.333333015441895, 4.44444465637207)"><circle class="svg-33-c-circle" cx="2" cy="2" r="2" style="animation-delay: -400ms"/></g><g class="svg-33-c-g" transform="translate(13.333333015441895, 13.333333015441895)"><circle class="svg-33-c-circle" cx="2" cy="2" r="2" style="animation-delay: -400ms"/></g><g class="svg-33-c-g" transform="translate(13.333333015441895, 22.22222137451172)"><circle class="svg-33-c-circle" cx="2" cy="2" r="2" style="animation-delay: -400ms"/></g><g class="svg-33-c-g" transform="translate(13.333333015441895, 31.11111068725586)"><circle class="svg-33-c-circle" cx="2" cy="2" r="2" style="animation-delay: -400ms"/></g><g class="svg-33-c-g" transform="translate(22.22222137451172, -31.11111068725586)"><circle class="svg-33-c-circle" cx="2" cy="2" r="2" style="animation-delay: -200ms"/></g><g class="svg-33-c-g" transform="translate(22.22222137451172, -22.22222137451172)"><circle class="svg-33-c-circle" cx="2" cy="2" r="2" style="animation-delay: -200ms"/></g><g class="svg-33-c-g" transform="translate(22.22222137451172, -13.333333015441895)"><circle class="svg-33-c-circle" cx="2" cy="2" r="2" style="animation-delay: -200ms"/></g><g class="svg-33-c-g" transform="translate(22.22222137451172, -4.44444465637207)"><circle class="svg-33-c-circle" cx="2" cy="2" r="2" style="animation-delay: -200ms"/></g><g class="svg-33-c-g" transform="translate(22.22222137451172, 4.44444465637207)"><circle class="svg-33-c-circle" cx="2" cy="2" r="2" style="animation-delay: -200ms"/></g><g class="svg-33-c-g" transform="translate(22.22222137451172, 13.333333015441895)"><circle class="svg-33-c-circle" cx="2" cy="2" r="2" style="animation-delay: -200ms"/></g><g class="svg-33-c-g" transform="translate(22.22222137451172, 22.22222137451172)"><circle class="svg-33-c-circle" cx="2" cy="2" r="2" style="animation-delay: -200ms"/></g><g class="svg-33-c-g" transform="translate(22.22222137451172, 31.11111068725586)"><circle class="svg-33-c-circle" cx="2" cy="2" r="2" style="animation-delay: -200ms"/></g><g class="svg-33-c-g" transform="translate(31.11111068725586, -31.11111068725586)"><circle class="svg-33-c-circle" cx="2" cy="2" r="2" style="animation-delay: -0ms"/></g><g class="svg-33-c-g" transform="translate(31.11111068725586, -22.22222137451172)"><circle class="svg-33-c-circle" cx="2" cy="2" r="2" style="animation-delay: -0ms"/></g><g class="svg-33-c-g" transform="translate(31.11111068725586, -13.333333015441895)"><circle class="svg-33-c-circle" cx="2" cy="2" r="2" style="animation-delay: -0ms"/></g><g class="svg-33-c-g" transform="translate(31.11111068725586, -4.44444465637207)"><circle class="svg-33-c-circle" cx="2" cy="2" r="2" style="animation-delay: -0ms"/></g><g class="svg-33-c-g" transform="translate(31.11111068725586, 4.44444465637207)"><circle class="svg-33-c-circle" cx="2" cy="2" r="2" style="animation-delay: -0ms"/></g><g class="svg-33-c-g" transform="translate(31.11111068725586, 13.333333015441895)"><circle class="svg-33-c-circle" cx="2" cy="2" r="2" style="animation-delay: -0ms"/></g><g class="svg-33-c-g" transform="translate(31.11111068725586, 22.22222137451172)"><circle class="svg-33-c-circle" cx="2" cy="2" r="2" style="animation-delay: -0ms"/></g><g class="svg-33-c-g" transform="translate(31.11111068725586, 31.11111068725586)"><circle class="svg-33-c-circle" cx="2" cy="2" r="2" style="animation-delay: -0ms"/></g><title>ANIMATION 33 - VARIATION C</title><desc><p>Created by <a href="http://andrew.wang-hoyer.com" target="_blank" rel="noopener">Andrew Wang-Hoyer</a>.</p></desc></svg>
