<?xml version="1.0" encoding="UTF-8"?>
<!DOCTYPE svg>
<svg
  data-animation-duration="5s"
  viewBox="0 0 100 100"
>
  <title>
    ANIMATION 44 - VARIATION C
  </title>
  <desc>
    <p>See this animation in action here: <a href="https://andrew.wang-hoyer.com/experiments/svg-animations/44/c" target="_blank" rel="noopener">https://andrew.wang-hoyer.com/experiments/svg-animations/44/c</a>.</p>
    <p>Generator source code : <a href="https://github.com/ndrwhr/svg-animation-src/tree/master/site/_svgs/generators/animations/44/c.js" target="_blank" rel="noopener">https://github.com/ndrwhr/svg-animation-src/tree/master/site/_svgs/generators/animations/44/c.js</a>.</p>
    <p>All generated files and source code are released under the following license:</p>
    <p>MIT License</p>
    <p>Copyright (c) 2018-present Andrew Hoyer</p>
    <p>Permission is hereby granted, free of charge, to any person obtaining a copy of this software and associated documentation files (the &quot;Software&quot;), to deal in the Software without restriction, including without limitation the rights to use, copy, modify, merge, publish, distribute, sublicense, and/or sell copies of the Software, and to permit persons to whom the Software is furnished to do so, subject to the following conditions:</p>
    <p>The above copyright notice and this permission notice shall be included in all copies or substantial portions of the Software.</p>
    <p>THE SOFTWARE IS PROVIDED &quot;AS IS&quot;, WITHOUT WARRANTY OF ANY KIND, EXPRESS OR IMPLIED, INCLUDING BUT NOT LIMITED TO THE WARRANTIES OF MERCHANTABILITY, FITNESS FOR A PARTICULAR PURPOSE AND NONINFRINGEMENT. IN NO EVENT SHALL THE AUTHORS OR COPYRIGHT HOLDERS BE LIABLE FOR ANY CLAIM, DAMAGES OR OTHER LIABILITY, WHETHER IN AN ACTION OF CONTRACT, TORT OR OTHERWISE, ARISING FROM, OUT OF OR IN CONNECTION WITH THE SOFTWARE OR THE USE OR OTHER DEALINGS IN THE SOFTWARE.</p>
  </desc>
  <style>
    /* <![CDATA[ */
      .svg-44-c-path {
        fill: none;
        stroke: black;
        stroke-width: .5;
        stroke-dasharray: 6%, 2%, 12%, 2%, 3%, 2%;
        animation: svg-44-c-main-anim 5s linear infinite;
      }
      
      .svg-44-c-path:nth-child(odd) {
        animation-direction: reverse;
      }
      
      @keyframes svg-44-c-main-anim {
        from {
          stroke-dashoffset: 0;
        }
      
        to {
          stroke-dashoffset: -27%;
        }
      }
      
      .svg-44-c-path:nth-child(1) {
        stroke-width: .5;
      }
      
      .svg-44-c-path:nth-child(2) {
        stroke-width: .42000000000000004;
      }
      
      .svg-44-c-path:nth-child(3) {
        stroke-width: .33999999999999997;
      }
      
      .svg-44-c-path:nth-child(4) {
        stroke-width: .26;
      }
      
      .svg-44-c-path:nth-child(5) {
        stroke-width: .18;
      }
      
      .svg-44-c-path:nth-child(6) {
        stroke-width: .1;
      }
      
      .svg-44-c-path:nth-child(7) {
        stroke-width: .18;
      }
      
      .svg-44-c-path:nth-child(8) {
        stroke-width: .26;
      }
      
      .svg-44-c-path:nth-child(9) {
        stroke-width: .33999999999999997;
      }
      
      .svg-44-c-path:nth-child(10) {
        stroke-width: .42000000000000004;
      }
      
      .svg-44-c-path:nth-child(11) {
        stroke-width: .5;
      }
      
    /* ]]> */
  </style>
  <g
    class="svg-44-c-g"
    transform="translate(0 0.5)"
  >
    <path
      class="svg-44-c-path"
      d="M 93 0 L 31.5 0 a 31 31 0 1 0 0 62 L 68.5 62 a 3 3 0 1 1 0 6 L 7 68"
    />
    <path
      class="svg-44-c-path"
      d="M 93 2.8 L 31.5 2.8 a 28.2 28.2 0 1 0 0 56.4 L 68.5 59.199999999999996 a 5.8 5.8 0 1 1 0 11.6 L 7 70.8"
    />
    <path
      class="svg-44-c-path"
      d="M 93 5.6 L 31.5 5.6 a 25.4 25.4 0 1 0 0 50.8 L 68.5 56.4 a 8.6 8.6 0 1 1 0 17.2 L 7 73.6"
    />
    <path
      class="svg-44-c-path"
      d="M 93 8.399999999999999 L 31.5 8.399999999999999 a 22.6 22.6 0 1 0 0 45.2 L 68.5 53.6 a 11.399999999999999 11.399999999999999 0 1 1 0 22.799999999999997 L 7 76.4"
    />
    <path
      class="svg-44-c-path"
      d="M 93 11.2 L 31.5 11.2 a 19.8 19.8 0 1 0 0 39.6 L 68.5 50.8 a 14.2 14.2 0 1 1 0 28.4 L 7 79.19999999999999"
    />
    <path
      class="svg-44-c-path"
      d="M 93 14 L 31.5 14 a 17 17 0 1 0 0 34 L 68.5 48 a 17 17 0 1 1 0 34 L 7 82"
    />
    <path
      class="svg-44-c-path"
      d="M 93 16.799999999999997 L 31.5 16.799999999999997 a 14.200000000000003 14.200000000000003 0 1 0 0 28.400000000000006 L 68.5 45.2 a 19.799999999999997 19.799999999999997 0 1 1 0 39.599999999999994 L 7 84.8"
    />
    <path
      class="svg-44-c-path"
      d="M 93 19.599999999999998 L 31.5 19.599999999999998 a 11.400000000000002 11.400000000000002 0 1 0 0 22.800000000000004 L 68.5 42.400000000000006 a 22.599999999999998 22.599999999999998 0 1 1 0 45.199999999999996 L 7 87.6"
    />
    <path
      class="svg-44-c-path"
      d="M 93 22.4 L 31.5 22.4 a 8.600000000000001 8.600000000000001 0 1 0 0 17.200000000000003 L 68.5 39.6 a 25.4 25.4 0 1 1 0 50.8 L 7 90.4"
    />
    <path
      class="svg-44-c-path"
      d="M 93 25.2 L 31.5 25.2 a 5.800000000000001 5.800000000000001 0 1 0 0 11.600000000000001 L 68.5 36.8 a 28.2 28.2 0 1 1 0 56.4 L 7 93.19999999999999"
    />
    <path
      class="svg-44-c-path"
      d="M 93 28 L 31.5 28 a 3 3 0 1 0 0 6 L 68.5 34 a 31 31 0 1 1 0 62 L 7 96"
    />
  </g>
</svg>
