<?xml version="1.0" encoding="UTF-8"?>
<!DOCTYPE svg>
<svg data-animation-duration="2s" preserveAspectRatio="xMidYMid meet" version="1.1" viewBox="0 0 100 100" xmlns:xlink="http://www.w3.org/1999/xlink" xmlns="http://www.w3.org/2000/svg"><style>/* <![CDATA[ */ @keyframes svg-18-b-main-anim{0%{stroke-dashoffset:0}to{stroke-dashoffset:10%}}.svg-18-b-polyline{stroke:#000;stroke-width:.3;fill:none;stroke-dasharray:5%,5%;animation:svg-18-b-main-anim 2s linear infinite} /* ]]> */</style><polyline class="svg-18-b-polyline" points="12.5,87.5 17.5,87.5 17.5,82.5 12.5,82.5 12.5,77.5 12.5,72.5 17.5,72.5 17.5,77.5 22.5,77.5 22.5,72.5 27.5,72.5 27.5,77.5 27.5,82.5 22.5,82.5 22.5,87.5 27.5,87.5 32.5,87.5 32.5,82.5 37.5,82.5 37.5,87.5 42.5,87.5 47.5,87.5 47.5,82.5 42.5,82.5 42.5,77.5 47.5,77.5 47.5,72.5 42.5,72.5 37.5,72.5 37.5,77.5 32.5,77.5 32.5,72.5 32.5,67.5 32.5,62.5 37.5,62.5 37.5,67.5 42.5,67.5 47.5,67.5 47.5,62.5 42.5,62.5 42.5,57.5 47.5,57.5 47.5,52.5 42.5,52.5 37.5,52.5 37.5,57.5 32.5,57.5 32.5,52.5 27.5,52.5 22.5,52.5 22.5,57.5 27.5,57.5 27.5,62.5 27.5,67.5 22.5,67.5 22.5,62.5 17.5,62.5 17.5,67.5 12.5,67.5 12.5,62.5 12.5,57.5 17.5,57.5 17.5,52.5 12.5,52.5 12.5,47.5 12.5,42.5 17.5,42.5 17.5,47.5 22.5,47.5 27.5,47.5 27.5,42.5 22.5,42.5 22.5,37.5 27.5,37.5 27.5,32.5 22.5,32.5 17.5,32.5 17.5,37.5 12.5,37.5 12.5,32.5 12.5,27.5 17.5,27.5 17.5,22.5 12.5,22.5 12.5,17.5 12.5,12.5 17.5,12.5 17.5,17.5 22.5,17.5 22.5,12.5 27.5,12.5 27.5,17.5 27.5,22.5 22.5,22.5 22.5,27.5 27.5,27.5 32.5,27.5 37.5,27.5 37.5,22.5 32.5,22.5 32.5,17.5 32.5,12.5 37.5,12.5 37.5,17.5 42.5,17.5 42.5,12.5 47.5,12.5 47.5,17.5 47.5,22.5 42.5,22.5 42.5,27.5 47.5,27.5 47.5,32.5 47.5,37.5 42.5,37.5 42.5,32.5 37.5,32.5 32.5,32.5 32.5,37.5 37.5,37.5 37.5,42.5 32.5,42.5 32.5,47.5 37.5,47.5 42.5,47.5 42.5,42.5 47.5,42.5 47.5,47.5 52.5,47.5 52.5,42.5 57.5,42.5 57.5,47.5 62.5,47.5 67.5,47.5 67.5,42.5 62.5,42.5 62.5,37.5 67.5,37.5 67.5,32.5 62.5,32.5 57.5,32.5 57.5,37.5 52.5,37.5 52.5,32.5 52.5,27.5 57.5,27.5 57.5,22.5 52.5,22.5 52.5,17.5 52.5,12.5 57.5,12.5 57.5,17.5 62.5,17.5 62.5,12.5 67.5,12.5 67.5,17.5 67.5,22.5 62.5,22.5 62.5,27.5 67.5,27.5 72.5,27.5 77.5,27.5 77.5,22.5 72.5,22.5 72.5,17.5 72.5,12.5 77.5,12.5 77.5,17.5 82.5,17.5 82.5,12.5 87.5,12.5 87.5,17.5 87.5,22.5 82.5,22.5 82.5,27.5 87.5,27.5 87.5,32.5 87.5,37.5 82.5,37.5 82.5,32.5 77.5,32.5 72.5,32.5 72.5,37.5 77.5,37.5 77.5,42.5 72.5,42.5 72.5,47.5 77.5,47.5 82.5,47.5 82.5,42.5 87.5,42.5 87.5,47.5 87.5,52.5 82.5,52.5 82.5,57.5 87.5,57.5 87.5,62.5 87.5,67.5 82.5,67.5 82.5,62.5 77.5,62.5 77.5,67.5 72.5,67.5 72.5,62.5 72.5,57.5 77.5,57.5 77.5,52.5 72.5,52.5 67.5,52.5 67.5,57.5 62.5,57.5 62.5,52.5 57.5,52.5 52.5,52.5 52.5,57.5 57.5,57.5 57.5,62.5 52.5,62.5 52.5,67.5 57.5,67.5 62.5,67.5 62.5,62.5 67.5,62.5 67.5,67.5 67.5,72.5 67.5,77.5 62.5,77.5 62.5,72.5 57.5,72.5 52.5,72.5 52.5,77.5 57.5,77.5 57.5,82.5 52.5,82.5 52.5,87.5 57.5,87.5 62.5,87.5 62.5,82.5 67.5,82.5 67.5,87.5 72.5,87.5 77.5,87.5 77.5,82.5 72.5,82.5 72.5,77.5 72.5,72.5 77.5,72.5 77.5,77.5 82.5,77.5 82.5,72.5 87.5,72.5 87.5,77.5 87.5,82.5 82.5,82.5 82.5,87.5 87.5,87.5"/><title>ANIMATION 18 - VARIATION B</title><desc><p>Created by <a href="http://andrew.wang-hoyer.com" target="_blank" rel="noopener">Andrew Wang-Hoyer</a>.</p></desc></svg>
