<?xml version="1.0" encoding="UTF-8"?>
<!DOCTYPE svg>
<svg
  data-animation-duration="2s"
  viewBox="-50 -50 100 100"
>
  <title>
    ANIMATION 18 - VARIATION E
  </title>
  <desc>
    <p>See this animation in action here: <a href="https://andrew.wang-hoyer.com/experiments/svg-animations/18/e" target="_blank" rel="noopener">https://andrew.wang-hoyer.com/experiments/svg-animations/18/e</a>.</p>
    <p>Generator source code : <a href="https://github.com/ndrwhr/svg-animation-src/tree/master/site/_svgs/generators/animations/18/e.js" target="_blank" rel="noopener">https://github.com/ndrwhr/svg-animation-src/tree/master/site/_svgs/generators/animations/18/e.js</a>.</p>
    <p>All generated files and source code are released under the following license:</p>
    <p>MIT License</p>
    <p>Copyright (c) 2018-present Andrew Hoyer</p>
    <p>Permission is hereby granted, free of charge, to any person obtaining a copy of this software and associated documentation files (the &quot;Software&quot;), to deal in the Software without restriction, including without limitation the rights to use, copy, modify, merge, publish, distribute, sublicense, and/or sell copies of the Software, and to permit persons to whom the Software is furnished to do so, subject to the following conditions:</p>
    <p>The above copyright notice and this permission notice shall be included in all copies or substantial portions of the Software.</p>
    <p>THE SOFTWARE IS PROVIDED &quot;AS IS&quot;, WITHOUT WARRANTY OF ANY KIND, EXPRESS OR IMPLIED, INCLUDING BUT NOT LIMITED TO THE WARRANTIES OF MERCHANTABILITY, FITNESS FOR A PARTICULAR PURPOSE AND NONINFRINGEMENT. IN NO EVENT SHALL THE AUTHORS OR COPYRIGHT HOLDERS BE LIABLE FOR ANY CLAIM, DAMAGES OR OTHER LIABILITY, WHETHER IN AN ACTION OF CONTRACT, TORT OR OTHERWISE, ARISING FROM, OUT OF OR IN CONNECTION WITH THE SOFTWARE OR THE USE OR OTHER DEALINGS IN THE SOFTWARE.</p>
  </desc>
  <style>
    /* <![CDATA[ */
      .svg-18-e-polyline {
        stroke: black;
        stroke-width: .3;
        fill: none;
        stroke-dasharray: 4.330140113830566%, 4.330140113830566%;
        animation: svg-18-e-main-anim 2s linear infinite;
      }
      
      @keyframes svg-18-e-main-anim {
        from {
          stroke-dashoffset: 0;
        }
      
        to {
          stroke-dashoffset: 8.660280227661133%;
        }
      }
      
    /* ]]> */
  </style>
  <polyline
    class="svg-18-e-polyline"
    points="-2.1651625633239746,45 2.164977550506592,45 4.330047607421875,41.2499885559082 -0.0000920888123800978,41.2499885559082 -2.1651618480682373,37.49998092651367 2.164977550506592,37.49998092651367 6.495116710662842,37.49998092651367 8.660185813903809,41.2499885559082 12.990324020385742,41.2499885559082 15.155394554138184,37.49998092651367 17.320465087890625,33.749969482421875 12.990327835083008,33.749969482421875 10.825257301330566,37.499977111816406 8.66019058227539,33.749969482421875 10.825260162353516,29.999961853027344 8.66019344329834,26.24995231628418 4.330057621002197,26.249950408935547 -0.00007846132211852819,26.249948501586914 2.1649882793426514,29.999956130981445 6.495123863220215,29.99995994567871 4.330054759979248,33.74996566772461 -0.00008093904762063175,33.74996566772461 -2.165147542953491,29.999956130981445 -6.495283603668213,29.999956130981445 -4.330216884613037,33.74996566772461 -6.495286464691162,37.499969482421875 -8.66035270690918,33.749961853027344 -10.825419425964355,29.99995231628418 -8.66034984588623,26.24994659423828 -4.330214500427246,26.24994659423828 -2.165144920349121,22.499940872192383 -6.495281219482422,22.49993896484375 -8.660347938537598,18.749929428100586 -4.33021354675293,18.74993133544922 -0.00007928723061922938,18.74993324279785 2.1649866104125977,22.499940872192383 6.495121002197266,22.499942779541016 8.660188674926758,18.749937057495117 4.330056667327881,18.749937057495117 2.164990186691284,14.999931335449219 6.495123386383057,14.999931335449219 10.825255393981934,14.999931335449219 12.990321159362793,18.749935150146484 10.825255393981934,22.49993896484375 12.990321159362793,26.249942779541016 15.155387878417969,29.99994659423828 17.320451736450195,26.249940872192383 15.155385971069336,22.499937057495117 19.485517501831055,22.499937057495117 21.650585174560547,26.249940872192383 25.980714797973633,26.24993896484375 28.14577865600586,22.499935150146484 23.81564712524414,22.499937057495117 21.65058135986328,18.749935150146484 25.980710983276367,18.749935150146484 30.310840606689453,18.749935150146484 32.47590637207031,22.49993896484375 36.806034088134766,22.499940872192383 38.971099853515625,18.74993896484375 41.13616943359375,14.999938011169434 36.80603790283203,14.999938011169434 34.64097595214844,18.749940872192383 32.47591018676758,14.9999418258667 34.64097595214844,11.249942779541016 38.971099853515625,11.249942779541016 41.136165618896484,7.49994421005249 43.30122756958008,3.749945878982544 38.971099853515625,3.749945878982544 36.80603790283203,7.49994421005249 34.64097595214844,3.749945878982544 36.80603790283203,-0.00005285815495881252 34.64097595214844,-3.750051498413086 30.310848236083984,-3.750051498413086 25.98072052001953,-3.750051498413086 28.145784378051758,-0.00005285815495881252 32.47591018676758,-0.00005285815495881252 30.310848236083984,3.749945878982544 25.98072052001953,3.749945878982544 23.815658569335938,7.49994421005249 25.98072052001953,11.249942779541016 28.145784378051758,7.49994421005249 32.47591018676758,7.49994421005249 30.310848236083984,11.249942779541016 28.145784378051758,14.9999418258667 23.815658569335938,14.9999418258667 21.650596618652344,11.249942779541016 17.320472717285156,11.249942779541016 19.485536575317383,14.9999418258667 17.32047462463379,18.749940872192383 15.155410766601562,14.9999418258667 12.990346908569336,11.249942779541016 15.15540885925293,7.49994421005249 19.48553466796875,7.49994421005249 21.650596618652344,3.749945878982544 23.81566047668457,-0.00005285815495881252 19.485536575317383,-0.00005285815495881252 17.32047462463379,3.749945878982544 15.155410766601562,-0.00005285815495881252 17.320472717285156,-3.750051498413086 15.155410766601562,-7.500050067901611 10.825285911560059,-7.500050067901611 12.990348815917969,-3.750051498413086 10.825285911560059,-0.00005285815495881252 8.660223960876465,-3.750051498413086 6.495161056518555,-7.500050067901611 8.660223960876465,-11.250048637390137 6.495163917541504,-15.000043869018555 2.1650426387786865,-15.000043869018555 -2.1650781631469727,-15.000043869018555 -0.000017344082152703777,-11.250048637390137 4.330103874206543,-11.250048637390137 2.1650431156158447,-7.500053405761719 -2.1650781631469727,-7.500053405761719 -4.33013916015625,-11.250048637390137 -8.660260200500488,-11.250048637390137 -12.990381240844727,-11.250048637390137 -10.82532024383545,-7.500053405761719 -6.495198726654053,-7.500053405761719 -8.660259246826172,-3.750058174133301 -12.99038028717041,-3.750058174133301 -15.155440330505371,-0.0000627690606052056 -12.99038028717041,3.7499325275421143 -10.825319290161133,7.499927997589111 -8.660258293151855,3.7499325275421143 -10.825319290161133,-0.0000627690606052056 -6.495197772979736,-0.0000627690606052056 -4.330137729644775,3.7499325275421143 -0.000015898742276476696,3.7499325275421143 2.1650443077087402,-0.0000627690606052056 -2.1650774478912354,-0.0000627690606052056 -4.330138206481934,-3.750058174133301 -0.000016931127902353182,-3.750058174133301 4.330104351043701,-3.750058174133301 6.4951653480529785,-0.0000627690606052056 4.330104351043701,3.7499325275421143 6.4951653480529785,7.499927997589111 8.660225868225098,3.7499325275421143 12.990346908569336,3.7499325275421143 10.825285911560059,7.499927997589111 8.660225868225098,11.249922752380371 4.330103874206543,11.249922752380371 2.165043592453003,7.499927997589111 -2.1650779247283936,7.499927997589111 -6.495199203491211,7.499927997589111 -4.330138206481934,11.249922752380371 -0.000016931127902353182,11.249922752380371 -2.1650779247283936,14.999918937683105 -6.495199203491211,14.999918937683105 -8.660260200500488,11.249922752380371 -12.990381240844727,11.249922752380371 -10.82532024383545,14.999918937683105 -12.990381240844727,18.749914169311523 -15.155442237854004,14.999918937683105 -17.32050323486328,11.249922752380371 -15.155444145202637,7.499927997589111 -17.32050323486328,3.7499325275421143 -21.650623321533203,3.7499325275421143 -25.980743408203125,3.7499325275421143 -23.81568145751953,7.499927997589111 -19.48556137084961,7.499927997589111 -21.65062141418457,11.249922752380371 -25.980743408203125,11.249922752380371 -28.145803451538086,14.999918937683105 -25.980745315551758,18.749914169311523 -23.815685272216797,22.499908447265625 -21.650623321533203,18.749914169311523 -23.815683364868164,14.999918937683105 -19.48556137084961,14.999918937683105 -17.32050132751465,18.749914169311523 -19.48556137084961,22.499908447265625 -17.320499420166016,26.24990463256836 -15.155437469482422,22.499908447265625 -10.8253173828125,22.499908447265625 -12.990377426147461,26.24990463256836 -15.155438423156738,29.99989891052246 -19.48556137084961,29.99989891052246 -21.65062141418457,26.249906539916992 -25.980741500854492,26.249906539916992 -23.81568145751953,29.99989891052246 -25.980741500854492,33.74989318847656 -28.145801544189453,29.99989891052246 -30.310861587524414,26.249906539916992 -28.145801544189453,22.49991226196289 -30.310861587524414,18.74991798400879 -34.6409797668457,18.74991798400879 -32.475921630859375,22.49991226196289 -34.6409797668457,26.249906539916992 -36.8060417175293,22.49991226196289 -38.971099853515625,18.74991798400879 -36.8060417175293,14.999924659729004 -32.475921630859375,14.999924659729004 -30.310861587524414,11.249929428100586 -28.145801544189453,7.499934673309326 -32.475921630859375,7.499934673309326 -34.6409797668457,11.249929428100586 -36.8060417175293,7.499934673309326 -34.6409797668457,3.749939203262329 -30.310861587524414,3.749939203262329 -28.145801544189453,-0.000056161788961617276 -32.475921630859375,-0.000056161788961617276 -34.6409797668457,-3.750051498413086 -30.310861587524414,-3.750051498413086 -25.980741500854492,-3.750051498413086 -23.81568145751953,-0.000056161788961617276 -19.48556137084961,-0.000056161788961617276 -17.32050132751465,-3.750051498413086 -15.155440330505371,-7.500046730041504 -19.48556137084961,-7.500046730041504 -21.650623321533203,-3.750051498413086 -23.815683364868164,-7.500046730041504 -21.65062141418457,-11.250041961669922 -23.815683364868164,-15.00003719329834 -28.145803451538086,-15.00003719329834 -32.475929260253906,-15.00003719329834 -30.310867309570312,-11.250041961669922 -25.98074722290039,-11.250041961669922 -28.145811080932617,-7.500046730041504 -32.475929260253906,-7.500046730041504 -34.6409912109375,-11.250041961669922 -38.97111129760742,-11.250041961669922 -36.80604934692383,-7.500046730041504 -38.97111129760742,-3.750051498413086 -41.136173248291016,-7.500046730041504 -43.301231384277344,-11.250041961669922 -41.136173248291016,-15.00003719329834 -36.80604934692383,-15.00003719329834 -34.6409912109375,-18.750032424926758 -38.97111129760742,-18.750032424926758 -41.136173248291016,-22.500028610229492 -36.80604934692383,-22.500028610229492 -32.475929260253906,-22.500028610229492 -30.310871124267578,-18.750032424926758 -25.980751037597656,-18.750032424926758 -23.815690994262695,-22.500028610229492 -28.145811080932617,-22.500028610229492 -30.310874938964844,-26.250022888183594 -25.980754852294922,-26.250022888183594 -21.650634765625,-26.250022888183594 -19.48557472229004,-22.500028610229492 -21.650634765625,-18.750032424926758 -19.48557472229004,-15.00003719329834 -17.320514678955078,-11.250041961669922 -15.155455589294434,-15.00003719329834 -17.32051658630371,-18.750032424926758 -12.990395545959473,-18.750032424926758 -10.825335502624512,-15.00003719329834 -6.495213508605957,-15.00003719329834 -4.330152988433838,-18.750032424926758 -8.660274505615234,-18.750032424926758 -10.825335502624512,-22.500028610229492 -6.495213508605957,-22.500028610229492 -2.1650922298431396,-22.500028610229492 -0.000031591007427778095,-18.750032424926758 4.330089569091797,-18.750032424926758 6.495150566101074,-22.500028610229492 8.660211563110352,-26.250022888183594 4.330090045928955,-26.250022888183594 2.165029525756836,-22.500028610229492 -0.0000311780531774275,-26.250022888183594 2.165029525756836,-30.000019073486328 -0.0000311780531774275,-33.75001525878906 -4.33015251159668,-33.75001525878906 -8.660274505615234,-33.75001525878906 -6.495213508605957,-30.000019073486328 -2.1650919914245605,-30.000019073486328 -4.33015251159668,-26.250022888183594 -8.660274505615234,-26.250022888183594 -10.825335502624512,-30.000019073486328 -15.15545654296875,-30.000019073486328 -12.990395545959473,-26.250022888183594 -15.15545654296875,-22.500028610229492 -17.32051658630371,-26.250022888183594 -19.485576629638672,-30.000019073486328 -17.320514678955078,-33.75001525878906 -12.99039363861084,-33.75001525878906 -10.825332641601562,-37.50000762939453 -15.1554536819458,-37.50000762939453 -17.320512771606445,-41.250003814697266 -12.990391731262207,-41.250003814697266 -8.660269737243652,-41.250003814697266 -6.495209217071533,-37.50000762939453 -2.1650876998901367,-37.50000762939453 -0.000027048508854932152,-41.250003814697266 -4.330148220062256,-41.250003814697266 -6.495209217071533,-45 -2.1650876998901367,-45 2.1650335788726807,-45 4.330094337463379,-41.250003814697266 2.1650335788726807,-37.50000762939453 4.330094337463379,-33.75001525878906 6.495155334472656,-30.000019073486328 8.660216331481934,-33.75001525878906 6.495155334472656,-37.50000762939453 10.825277328491211,-37.50000762939453 12.990337371826172,-33.75001525878906 10.825276374816895,-30.000019073486328 12.990337371826172,-26.250022888183594 15.155397415161133,-30.000019073486328 19.485517501831055,-30.000019073486328 17.32045555114746,-26.250022888183594 15.155394554138184,-22.500028610229492 10.825272560119629,-22.500028610229492 8.660211563110352,-18.750032424926758 10.825272560119629,-15.00003719329834 12.990334510803223,-11.250041961669922 15.155394554138184,-15.00003719329834 12.99033260345459,-18.750032424926758 17.320453643798828,-18.750032424926758 19.48551368713379,-15.00003719329834 17.320451736450195,-11.250041961669922 19.485511779785156,-7.500046730041504 21.650571823120117,-3.750051498413086 23.81563377380371,-7.500046730041504 21.650571823120117,-11.250041961669922 25.980693817138672,-11.250041961669922 28.145753860473633,-7.500046730041504 32.47587585449219,-7.500046730041504 34.640933990478516,-11.250041961669922 36.80599594116211,-15.00003719329834 32.47587585449219,-15.00003719329834 30.310813903808594,-11.250041961669922 28.145753860473633,-15.00003719329834 30.310813903808594,-18.750032424926758 28.145753860473633,-22.500028610229492 23.81563377380371,-22.500028610229492 25.980693817138672,-18.750032424926758 23.81563377380371,-15.00003719329834 21.650571823120117,-18.750032424926758 19.485509872436523,-22.500028610229492 21.650569915771484,-26.250022888183594 25.98069190979004,-26.250022888183594 28.145751953125,-30.000019073486328 23.815631866455078,-30.000019073486328 21.650571823120117,-33.75001525878906 25.980693817138672,-33.75001525878906 30.31081771850586,-33.75001525878906 32.47587966918945,-30.000019073486328 30.31081771850586,-26.250022888183594 32.47587966918945,-22.500028610229492 34.64093780517578,-18.750032424926758 36.805999755859375,-22.500028610229492 34.64093780517578,-26.250022888183594 38.9710578918457,-26.250022888183594 41.1361198425293,-22.500028610229492"
    transform="rotate(60 0 0)"
  />
</svg>
