<?xml version="1.0" encoding="UTF-8"?>
<!DOCTYPE svg>
<svg
  data-animation-duration="2s"
  viewBox="-50 -50 100 100"
>
  <title>
    ANIMATION 18 - VARIATION F
  </title>
  <desc>
    <p>See this animation in action here: <a href="https://andrew.wang-hoyer.com/experiments/svg-animations/18/f" target="_blank" rel="noopener">https://andrew.wang-hoyer.com/experiments/svg-animations/18/f</a>.</p>
    <p>Generator source code : <a href="https://github.com/ndrwhr/svg-animation-src/tree/master/site/_svgs/generators/animations/18/f.js" target="_blank" rel="noopener">https://github.com/ndrwhr/svg-animation-src/tree/master/site/_svgs/generators/animations/18/f.js</a>.</p>
    <p>All generated files and source code are released under the following license:</p>
    <p>MIT License</p>
    <p>Copyright (c) 2018-present Andrew Hoyer</p>
    <p>Permission is hereby granted, free of charge, to any person obtaining a copy of this software and associated documentation files (the &quot;Software&quot;), to deal in the Software without restriction, including without limitation the rights to use, copy, modify, merge, publish, distribute, sublicense, and/or sell copies of the Software, and to permit persons to whom the Software is furnished to do so, subject to the following conditions:</p>
    <p>The above copyright notice and this permission notice shall be included in all copies or substantial portions of the Software.</p>
    <p>THE SOFTWARE IS PROVIDED &quot;AS IS&quot;, WITHOUT WARRANTY OF ANY KIND, EXPRESS OR IMPLIED, INCLUDING BUT NOT LIMITED TO THE WARRANTIES OF MERCHANTABILITY, FITNESS FOR A PARTICULAR PURPOSE AND NONINFRINGEMENT. IN NO EVENT SHALL THE AUTHORS OR COPYRIGHT HOLDERS BE LIABLE FOR ANY CLAIM, DAMAGES OR OTHER LIABILITY, WHETHER IN AN ACTION OF CONTRACT, TORT OR OTHERWISE, ARISING FROM, OUT OF OR IN CONNECTION WITH THE SOFTWARE OR THE USE OR OTHER DEALINGS IN THE SOFTWARE.</p>
  </desc>
  <style>
    /* <![CDATA[ */
      .svg-18-f-path {
        stroke: black;
        stroke-width: 1.5;
        fill: none;
        stroke-dasharray: 4.330140113830566%, 4.330140113830566%;
        animation: svg-18-f-main-anim 2s linear infinite;
      }
      
      @keyframes svg-18-f-main-anim {
        from {
          stroke-dashoffset: 0;
        }
      
        to {
          stroke-dashoffset: 8.660280227661133%;
        }
      }
      
    /* ]]> */
  </style>
  <path
    class="svg-18-f-path"
    d="M -2.1651625633239746,45 C -2.1651625633239746,45 0.5411750078201294,45.937503814697266 2.164977550506592,45 S 4.871315002441406,42.18749237060547 4.330047607421875,41.2499885559082 S 1.6237109899520874,42.18749237060547 -0.0000920888123800978,41.2499885559082 S -2.7064290046691895,38.43748092651367 -2.1651618480682373,37.49998092651367 S -0.00009202957153320312,37.49998092651367 2.164977550506592,37.49998092651367 S 4.87131404876709,36.562477111816406 6.495116710662842,37.49998092651367 S 7.036384582519531,40.3124885559082 8.660185813903809,41.2499885559082 S 11.366521835327148,42.18749237060547 12.990324020385742,41.2499885559082 S 14.072859764099121,39.37498474121094 15.155394554138184,37.49998092651367 S 17.861732482910156,34.68747329711914 17.320465087890625,33.749969482421875 S 14.614130020141602,32.812469482421875 12.990327835083008,33.749969482421875 S 11.907792091369629,37.499977111816406 10.825257301330566,37.499977111816406 S 8.660189628601074,35.62497329711914 8.66019058227539,33.749969482421875 S 10.8252592086792,31.87496566772461 10.825260162353516,29.999961853027344 S 10.283994674682617,27.187456130981445 8.66019344329834,26.24995231628418 S 6.495125770568848,26.249950408935547 4.330057621002197,26.249950408935547 S 0.5411889553070068,25.31244659423828 -0.00007846132211852819,26.249948501586914 S 0.5411877632141113,29.062454223632812 2.1649882793426514,29.999956130981445 S 5.953857421875,29.062458038330078 6.495123863220215,29.99995994567871 S 5.953855991363525,32.81246566772461 4.330054759979248,33.74996566772461 S 1.623719334602356,34.687469482421875 -0.00008093904762063175,33.74996566772461 S -0.5413467884063721,30.937458038330078 -2.165147542953491,29.999956130981445 S -5.954016208648682,29.062454223632812 -6.495283603668213,29.999956130981445 S -4.330215930938721,31.874961853027344 -4.330216884613037,33.74996566772461 S -5.412752628326416,37.499969482421875 -6.495286464691162,37.499969482421875 S -7.57781982421875,35.62496566772461 -8.66035270690918,33.749961853027344 S -10.825420379638672,31.874956130981445 -10.825419425964355,29.99995231628418 S -10.284151077270508,27.187448501586914 -8.66034984588623,26.24994659423828 S -5.954015731811523,27.187448501586914 -4.330214500427246,26.24994659423828 S -1.6238782405853271,23.437442779541016 -2.165144920349121,22.499940872192383 S -4.871480464935303,23.437440872192383 -6.495281219482422,22.49993896484375 S -9.201615333557129,19.68743133544922 -8.660347938537598,18.749929428100586 S -6.495280742645264,18.74993133544922 -4.33021354675293,18.74993133544922 S -1.6238791942596436,17.81243133544922 -0.00007928723061922938,18.74993324279785 S 0.5411864519119263,21.56243896484375 2.1649866104125977,22.499940872192383 S 4.8713202476501465,23.43744468688965 6.495121002197266,22.499942779541016 S 9.201455116271973,19.68743896484375 8.660188674926758,18.749937057495117 S 5.953855991363525,19.68743896484375 4.330056667327881,18.749937057495117 S 1.6237235069274902,15.937433242797852 2.164990186691284,14.999931335449219 S 4.330057144165039,14.999931335449219 6.495123386383057,14.999931335449219 S 9.201456069946289,14.062430381774902 10.825255393981934,14.999931335449219 S 12.990321159362793,16.87493324279785 12.990321159362793,18.749935150146484 S 10.825255393981934,20.624937057495117 10.825255393981934,22.49993896484375 S 11.907788276672363,24.374940872192383 12.990321159362793,26.249942779541016 S 14.072854995727539,29.99994659423828 15.155387878417969,29.99994659423828 S 17.320451736450195,28.124942779541016 17.320451736450195,26.249940872192383 S 14.614119529724121,23.43743896484375 15.155385971069336,22.499937057495117 S 17.861717224121094,21.562437057495117 19.485517501831055,22.499937057495117 S 20.026784896850586,25.312440872192383 21.650585174560547,26.249940872192383 S 24.356916427612305,27.187440872192383 25.980714797973633,26.24993896484375 S 28.68704605102539,23.437435150146484 28.14577865600586,22.499935150146484 S 25.4394474029541,23.437437057495117 23.81564712524414,22.499937057495117 S 21.109315872192383,19.687435150146484 21.65058135986328,18.749935150146484 S 23.81564712524414,18.749935150146484 25.980710983276367,18.749935150146484 S 28.687042236328125,17.812435150146484 30.310840606689453,18.749935150146484 S 30.852108001708984,21.562437057495117 32.47590637207031,22.49993896484375 S 35.18223571777344,23.437440872192383 36.806034088134766,22.499940872192383 S 37.88856506347656,20.62493896484375 38.971099853515625,18.74993896484375 S 41.677433013916016,15.937438011169434 41.13616943359375,14.999938011169434 S 38.42983627319336,14.062437057495117 36.80603790283203,14.999938011169434 S 35.723506927490234,18.74993896484375 34.64097595214844,18.749940872192383 S 32.47591018676758,16.874940872192383 32.47591018676758,14.9999418258667 S 33.01717758178711,12.187442779541016 34.64097595214844,11.249942779541016 S 37.3473014831543,12.1874418258667 38.971099853515625,11.249942779541016 S 40.05363464355469,9.374943733215332 41.136165618896484,7.49994421005249 S 43.84249496459961,4.687445163726807 43.30122756958008,3.749945878982544 S 40.59489822387695,2.812446117401123 38.971099853515625,3.749945878982544 S 37.88856887817383,7.49994421005249 36.80603790283203,7.49994421005249 S 34.64097595214844,5.624945163726807 34.64097595214844,3.749945878982544 S 36.80603790283203,1.8749464750289917 36.80603790283203,-0.00005285815495881252 S 36.264774322509766,-2.8125522136688232 34.64097595214844,-3.750051498413086 S 32.475914001464844,-3.750051498413086 30.310848236083984,-3.750051498413086 S 26.52198600769043,-4.687551498413086 25.98072052001953,-3.750051498413086 S 26.521987915039062,-0.9375525116920471 28.145784378051758,-0.00005285815495881252 S 31.93464469909668,-0.9375526309013367 32.47591018676758,-0.00005285815495881252 S 31.93464469909668,2.8124465942382812 30.310848236083984,3.749945878982544 S 27.60451889038086,2.812446117401123 25.98072052001953,3.749945878982544 S 23.815658569335938,5.624944686889648 23.815658569335938,7.49994421005249 S 24.898189544677734,11.249942779541016 25.98072052001953,11.249942779541016 S 26.521987915039062,8.437443733215332 28.145784378051758,7.49994421005249 S 31.93464469909668,6.562444686889648 32.47591018676758,7.49994421005249 S 31.39337921142578,9.374943733215332 30.310848236083984,11.249942779541016 S 29.769582748413086,14.0624418258667 28.145784378051758,14.9999418258667 S 25.439455032348633,15.9374418258667 23.815658569335938,14.9999418258667 S 23.27439308166504,12.187442779541016 21.650596618652344,11.249942779541016 S 17.861738204956055,10.312442779541016 17.320472717285156,11.249942779541016 S 19.485536575317383,13.1249418258667 19.485536575317383,14.9999418258667 S 18.403005599975586,18.749940872192383 17.32047462463379,18.749940872192383 S 16.23794174194336,16.874940872192383 15.155410766601562,14.9999418258667 S 12.990347862243652,13.124942779541016 12.990346908569336,11.249942779541016 S 13.531612396240234,8.437443733215332 15.15540885925293,7.49994421005249 S 17.861738204956055,8.437443733215332 19.48553466796875,7.49994421005249 S 20.568065643310547,5.624944686889648 21.650596618652344,3.749945878982544 S 24.35692596435547,0.9374470710754395 23.81566047668457,-0.00005285815495881252 S 21.109333038330078,-0.9375524520874023 19.485536575317383,-0.00005285815495881252 S 18.403005599975586,3.749945878982544 17.32047462463379,3.749945878982544 S 15.155411720275879,1.8749467134475708 15.155410766601562,-0.00005285815495881252 S 17.320472717285156,-1.8750522136688232 17.320472717285156,-3.750051498413086 S 16.779207229614258,-6.5625505447387695 15.155410766601562,-7.500050067901611 S 11.366551399230957,-8.437549591064453 10.825285911560059,-7.500050067901611 S 12.990348815917969,-5.6250505447387695 12.990348815917969,-3.750051498413086 S 11.907816886901855,-0.00005285815495881252 10.825285911560059,-0.00005285815495881252 S 9.742754936218262,-1.8750523328781128 8.660223960876465,-3.750051498413086 S 6.495161056518555,-5.6250505447387695 6.495161056518555,-7.500050067901611 S 8.660223007202148,-9.375049591064453 8.660223960876465,-11.250048637390137 S 8.118959426879883,-14.062544822692871 6.495163917541504,-15.000043869018555 S 4.330102920532227,-15.000043869018555 2.1650426387786865,-15.000043869018555 S -1.6238131523132324,-15.937542915344238 -2.1650781631469727,-15.000043869018555 S -1.6238129138946533,-12.18754768371582 -0.000017344082152703777,-11.250048637390137 S 3.7888388633728027,-12.18754768371582 4.330103874206543,-11.250048637390137 S 3.7888386249542236,-8.437552452087402 2.1650431156158447,-7.500053405761719 S -0.5412827730178833,-6.562554836273193 -2.1650781631469727,-7.500053405761719 S -2.706343650817871,-10.312549591064453 -4.33013916015625,-11.250048637390137 S -6.495199680328369,-11.250048637390137 -8.660260200500488,-11.250048637390137 S -12.449116706848145,-12.18754768371582 -12.990381240844727,-11.250048637390137 S -12.449115753173828,-8.437552452087402 -10.82532024383545,-7.500053405761719 S -7.036463737487793,-8.437552452087402 -6.495198726654053,-7.500053405761719 S -7.036463737487793,-4.687557220458984 -8.660259246826172,-3.750058174133301 S -11.366584777832031,-4.687557220458984 -12.99038028717041,-3.750058174133301 S -15.155440330505371,-1.8750604391098022 -15.155440330505371,-0.0000627690606052056 S -14.07291030883789,1.8749349117279053 -12.99038028717041,3.7499325275421143 S -11.90785026550293,7.499927997589111 -10.825319290161133,7.499927997589111 S -8.660258293151855,5.624930381774902 -8.660258293151855,3.7499325275421143 S -11.366584777832031,0.937436044216156 -10.825319290161133,-0.0000627690606052056 S -8.118992805480957,-0.9375616312026978 -6.495197772979736,-0.0000627690606052056 S -5.953933238983154,2.8124337196350098 -4.330137729644775,3.7499325275421143 S -1.6238114833831787,4.687431335449219 -0.000015898742276476696,3.7499325275421143 S 2.7063097953796387,0.9374359846115112 2.1650443077087402,-0.0000627690606052056 S -0.5412818193435669,0.9374361038208008 -2.1650774478912354,-0.0000627690606052056 S -4.871403217315674,-2.812559127807617 -4.330138206481934,-3.750058174133301 S -2.1650774478912354,-3.750058174133301 -0.000016931127902353182,-3.750058174133301 S 2.7063088417053223,-4.687557220458984 4.330104351043701,-3.750058174133301 S 6.4951653480529785,-1.8750604391098022 6.4951653480529785,-0.0000627690606052056 S 4.330104351043701,1.8749347925186157 4.330104351043701,3.7499325275421143 S 5.41263484954834,7.499927997589111 6.4951653480529785,7.499927997589111 S 7.036430358886719,4.687431335449219 8.660225868225098,3.7499325275421143 S 12.449082374572754,2.8124337196350098 12.990346908569336,3.7499325275421143 S 11.907815933227539,5.624930381774902 10.825285911560059,7.499927997589111 S 10.284021377563477,10.312423706054688 8.660225868225098,11.249922752380371 S 5.953899383544922,12.187421798706055 4.330103874206543,11.249922752380371 S 3.7888388633728027,8.437426567077637 2.165043592453003,7.499927997589111 S -0.0000171661376953125,7.499927997589111 -2.1650779247283936,7.499927997589111 S -5.953934192657471,6.562429428100586 -6.495199203491211,7.499927997589111 S -5.9539337158203125,10.312423706054688 -4.330138206481934,11.249922752380371 S -0.5412819385528564,10.312423706054688 -0.000016931127902353182,11.249922752380371 S -0.5412821769714355,14.062419891357422 -2.1650779247283936,14.999918937683105 S -4.871403694152832,15.937417984008789 -6.495199203491211,14.999918937683105 S -7.036464691162109,12.187421798706055 -8.660260200500488,11.249922752380371 S -12.449116706848145,10.312423706054688 -12.990381240844727,11.249922752380371 S -10.82532024383545,13.124920845031738 -10.82532024383545,14.999918937683105 S -11.90785026550293,18.749914169311523 -12.990381240844727,18.749914169311523 S -14.072912216186523,16.874916076660156 -15.155442237854004,14.999918937683105 S -17.32050323486328,13.124920845031738 -17.32050323486328,11.249922752380371 S -15.155444145202637,9.37492561340332 -15.155444145202637,7.499927997589111 S -15.696708679199219,4.687431335449219 -17.32050323486328,3.7499325275421143 S -19.485563278198242,3.7499325275421143 -21.650623321533203,3.7499325275421143 S -25.43947982788086,2.812433958053589 -25.980743408203125,3.7499325275421143 S -25.439477920532227,6.562428951263428 -23.81568145751953,7.499927997589111 S -20.026826858520508,6.562429428100586 -19.48556137084961,7.499927997589111 S -20.026826858520508,10.312423706054688 -21.65062141418457,11.249922752380371 S -24.356948852539062,10.312423706054688 -25.980743408203125,11.249922752380371 S -28.145803451538086,13.124920845031738 -28.145803451538086,14.999918937683105 S -27.063274383544922,16.874916076660156 -25.980745315551758,18.749914169311523 S -24.898216247558594,22.499908447265625 -23.815685272216797,22.499908447265625 S -21.650623321533203,20.62491226196289 -21.650623321533203,18.749914169311523 S -24.356948852539062,15.937417984008789 -23.815683364868164,14.999918937683105 S -21.109357833862305,14.062419891357422 -19.48556137084961,14.999918937683105 S -17.32050132751465,16.874916076660156 -17.32050132751465,18.749914169311523 S -19.48556137084961,20.62491226196289 -19.48556137084961,22.499908447265625 S -18.403030395507812,26.24990463256836 -17.320499420166016,26.24990463256836 S -16.779233932495117,23.437408447265625 -15.155437469482422,22.499908447265625 S -11.366581916809082,21.562410354614258 -10.8253173828125,22.499908447265625 S -11.90784740447998,24.374906539916992 -12.990377426147461,26.24990463256836 S -13.53164291381836,29.062400817871094 -15.155438423156738,29.99989891052246 S -17.861764907836914,30.937397003173828 -19.48556137084961,29.99989891052246 S -20.026826858520508,27.18740463256836 -21.65062141418457,26.249906539916992 S -25.439476013183594,25.312408447265625 -25.980741500854492,26.249906539916992 S -23.81568145751953,28.124902725219727 -23.81568145751953,29.99989891052246 S -24.898212432861328,33.74989318847656 -25.980741500854492,33.74989318847656 S -27.063270568847656,31.874895095825195 -28.145801544189453,29.99989891052246 S -30.310861587524414,28.124902725219727 -30.310861587524414,26.249906539916992 S -28.145801544189453,24.374908447265625 -28.145801544189453,22.49991226196289 S -28.68706703186035,19.687416076660156 -30.310861587524414,18.74991798400879 S -34.09971618652344,17.812419891357422 -34.6409797668457,18.74991798400879 S -32.475921630859375,20.624916076660156 -32.475921630859375,22.49991226196289 S -33.558448791503906,26.249906539916992 -34.6409797668457,26.249906539916992 S -35.7235107421875,24.374910354614258 -36.8060417175293,22.49991226196289 S -38.971099853515625,20.624916076660156 -38.971099853515625,18.74991798400879 S -38.42983627319336,15.937422752380371 -36.8060417175293,14.999924659729004 S -34.09971618652344,15.937423706054688 -32.475921630859375,14.999924659729004 S -31.393390655517578,13.124927520751953 -30.310861587524414,11.249929428100586 S -27.604536056518555,8.437433242797852 -28.145801544189453,7.499934673309326 S -30.852127075195312,6.562436103820801 -32.475921630859375,7.499934673309326 S -33.558448791503906,11.249929428100586 -34.6409797668457,11.249929428100586 S -36.8060417175293,9.374932289123535 -36.8060417175293,7.499934673309326 S -36.264774322509766,4.687438488006592 -34.6409797668457,3.749939203262329 S -31.934656143188477,4.687437534332275 -30.310861587524414,3.749939203262329 S -27.604536056518555,0.9374428391456604 -28.145801544189453,-0.000056161788961617276 S -30.852127075195312,0.9374426603317261 -32.475921630859375,-0.000056161788961617276 S -35.18224334716797,-2.8125524520874023 -34.6409797668457,-3.750051498413086 S -32.475921630859375,-3.750051498413086 -30.310861587524414,-3.750051498413086 S -27.604536056518555,-4.687550067901611 -25.980741500854492,-3.750051498413086 S -25.439476013183594,-0.9375550746917725 -23.81568145751953,-0.000056161788961617276 S -21.109355926513672,0.9374425411224365 -19.48556137084961,-0.000056161788961617276 S -18.403032302856445,-1.8750540018081665 -17.32050132751465,-3.750051498413086 S -14.614174842834473,-6.56254768371582 -15.155440330505371,-7.500046730041504 S -17.861766815185547,-8.437545776367188 -19.48556137084961,-7.500046730041504 S -20.568092346191406,-3.750051498413086 -21.650623321533203,-3.750051498413086 S -23.815683364868164,-5.625049591064453 -23.815683364868164,-7.500046730041504 S -21.65062141418457,-9.375043869018555 -21.65062141418457,-11.250041961669922 S -22.19188690185547,-14.062538146972656 -23.815683364868164,-15.00003719329834 S -25.980743408203125,-15.00003719329834 -28.145803451538086,-15.00003719329834 S -31.934663772583008,-15.937536239624023 -32.475929260253906,-15.00003719329834 S -31.934663772583008,-12.187541007995605 -30.310867309570312,-11.250041961669922 S -26.522010803222656,-12.187540054321289 -25.98074722290039,-11.250041961669922 S -26.522014617919922,-8.437545776367188 -28.145811080932617,-7.500046730041504 S -30.852134704589844,-6.5625481605529785 -32.475929260253906,-7.500046730041504 S -33.01719665527344,-10.312542915344238 -34.6409912109375,-11.250041961669922 S -38.429847717285156,-12.187540054321289 -38.97111129760742,-11.250041961669922 S -36.80604934692383,-9.375043869018555 -36.80604934692383,-7.500046730041504 S -37.888580322265625,-3.750051498413086 -38.97111129760742,-3.750051498413086 S -40.05364227294922,-5.625048637390137 -41.136173248291016,-7.500046730041504 S -43.301231384277344,-9.375043869018555 -43.301231384277344,-11.250041961669922 S -42.75996780395508,-14.062539100646973 -41.136173248291016,-15.00003719329834 S -38.42984390258789,-14.062538146972656 -36.80604934692383,-15.00003719329834 S -34.09972381591797,-17.81253433227539 -34.6409912109375,-18.750032424926758 S -37.34731674194336,-17.81253433227539 -38.97111129760742,-18.750032424926758 S -41.67743682861328,-21.562530517578125 -41.136173248291016,-22.500028610229492 S -38.97111129760742,-22.500028610229492 -36.80604934692383,-22.500028610229492 S -34.09972381591797,-23.43752670288086 -32.475929260253906,-22.500028610229492 S -31.93466567993164,-19.687532424926758 -30.310871124267578,-18.750032424926758 S -27.60454559326172,-17.81253433227539 -25.980751037597656,-18.750032424926758 S -23.274425506591797,-21.562528610229492 -23.815690994262695,-22.500028610229492 S -26.522014617919922,-21.562530517578125 -28.145811080932617,-22.500028610229492 S -30.85213851928711,-25.312524795532227 -30.310874938964844,-26.250022888183594 S -28.145814895629883,-26.250022888183594 -25.980754852294922,-26.250022888183594 S -23.274429321289062,-27.18752098083496 -21.650634765625,-26.250022888183594 S -19.48557472229004,-24.37502670288086 -19.48557472229004,-22.500028610229492 S -21.650634765625,-20.625030517578125 -21.650634765625,-18.750032424926758 S -20.568103790283203,-16.87503433227539 -19.48557472229004,-15.00003719329834 S -18.403043746948242,-11.250041961669922 -17.320514678955078,-11.250041961669922 S -15.155455589294434,-13.125040054321289 -15.155455589294434,-15.00003719329834 S -17.86178207397461,-17.81253433227539 -17.32051658630371,-18.750032424926758 S -14.614191055297852,-19.687530517578125 -12.990395545959473,-18.750032424926758 S -12.44913101196289,-15.937536239624023 -10.825335502624512,-15.00003719329834 S -8.119009017944336,-14.062538146972656 -6.495213508605957,-15.00003719329834 S -3.7888877391815186,-17.81253433227539 -4.330152988433838,-18.750032424926758 S -7.0364789962768555,-17.81253433227539 -8.660274505615234,-18.750032424926758 S -11.36660099029541,-21.562528610229492 -10.825335502624512,-22.500028610229492 S -8.660274505615234,-22.500028610229492 -6.495213508605957,-22.500028610229492 S -3.7888875007629395,-23.43752670288086 -2.1650922298431396,-22.500028610229492 S -1.623827338218689,-19.687532424926758 -0.000031591007427778095,-18.750032424926758 S 2.706294298171997,-17.81253433227539 4.330089569091797,-18.750032424926758 S 5.412619590759277,-20.625030517578125 6.495150566101074,-22.500028610229492 S 9.20147705078125,-25.312524795532227 8.660211563110352,-26.250022888183594 S 5.953885555267334,-27.18752098083496 4.330090045928955,-26.250022888183594 S 3.2475597858428955,-22.500028610229492 2.165029525756836,-22.500028610229492 S -0.0000311780531774275,-24.375024795532227 -0.0000311780531774275,-26.250022888183594 S 2.165029525756836,-28.12502098083496 2.165029525756836,-30.000019073486328 S 1.6237645149230957,-32.81251525878906 -0.0000311780531774275,-33.75001525878906 S -2.1650919914245605,-33.75001525878906 -4.33015251159668,-33.75001525878906 S -8.119009017944336,-34.68751525878906 -8.660274505615234,-33.75001525878906 S -8.119009017944336,-30.937519073486328 -6.495213508605957,-30.000019073486328 S -2.70635724067688,-30.937517166137695 -2.1650919914245605,-30.000019073486328 S -2.706357002258301,-27.187522888183594 -4.33015251159668,-26.250022888183594 S -7.0364789962768555,-25.312524795532227 -8.660274505615234,-26.250022888183594 S -9.201539993286133,-29.062519073486328 -10.825335502624512,-30.000019073486328 S -14.614192008972168,-30.937517166137695 -15.15545654296875,-30.000019073486328 S -12.990395545959473,-28.12502098083496 -12.990395545959473,-26.250022888183594 S -14.07292652130127,-22.500028610229492 -15.15545654296875,-22.500028610229492 S -16.237987518310547,-24.375024795532227 -17.32051658630371,-26.250022888183594 S -19.485576629638672,-28.12502098083496 -19.485576629638672,-30.000019073486328 S -18.944311141967773,-32.81251525878906 -17.320514678955078,-33.75001525878906 S -14.614189147949219,-32.81251525878906 -12.99039363861084,-33.75001525878906 S -10.28406810760498,-36.5625114440918 -10.825332641601562,-37.50000762939453 S -13.531659126281738,-36.56250762939453 -15.1554536819458,-37.50000762939453 S -17.861778259277344,-40.312503814697266 -17.320512771606445,-41.250003814697266 S -15.155452728271484,-41.250003814697266 -12.990391731262207,-41.250003814697266 S -10.284065246582031,-42.187503814697266 -8.660269737243652,-41.250003814697266 S -8.11900520324707,-38.43750762939453 -6.495209217071533,-37.50000762939453 S -3.7888832092285156,-36.56250762939453 -2.1650876998901367,-37.50000762939453 S 0.5412381291389465,-40.312503814697266 -0.000027048508854932152,-41.250003814697266 S -2.706352949142456,-40.312503814697266 -4.330148220062256,-41.250003814697266 S -7.036474227905273,-44.0625 -6.495209217071533,-45 S -4.330148696899414,-45 -2.1650876998901367,-45 S 0.5412383079528809,-45.9375 2.1650335788726807,-45 S 4.330094337463379,-43.125 4.330094337463379,-41.250003814697266 S 2.1650335788726807,-39.375003814697266 2.1650335788726807,-37.50000762939453 S 3.2475643157958984,-35.6250114440918 4.330094337463379,-33.75001525878906 S 5.412624835968018,-30.000019073486328 6.495155334472656,-30.000019073486328 S 8.660216331481934,-31.875017166137695 8.660216331481934,-33.75001525878906 S 5.953890323638916,-36.5625114440918 6.495155334472656,-37.50000762939453 S 9.201480865478516,-38.43750762939453 10.825277328491211,-37.50000762939453 S 12.990337371826172,-35.6250114440918 12.990337371826172,-33.75001525878906 S 10.825276374816895,-31.875017166137695 10.825276374816895,-30.000019073486328 S 11.907807350158691,-26.250022888183594 12.990337371826172,-26.250022888183594 S 13.531601905822754,-29.062519073486328 15.155397415161133,-30.000019073486328 S 18.94425392150879,-30.937517166137695 19.485517501831055,-30.000019073486328 S 18.402986526489258,-28.12502098083496 17.32045555114746,-26.250022888183594 S 16.779190063476562,-23.43752670288086 15.155394554138184,-22.500028610229492 S 12.449068069458008,-23.43752670288086 10.825272560119629,-22.500028610229492 S 8.660211563110352,-20.625030517578125 8.660211563110352,-18.750032424926758 S 9.742741584777832,-16.87503433227539 10.825272560119629,-15.00003719329834 S 11.907803535461426,-11.250041961669922 12.990334510803223,-11.250041961669922 S 15.155394554138184,-13.125040054321289 15.155394554138184,-15.00003719329834 S 12.449068069458008,-17.81253433227539 12.99033260345459,-18.750032424926758 S 15.69665813446045,-19.687530517578125 17.320453643798828,-18.750032424926758 S 19.48551368713379,-16.87503433227539 19.48551368713379,-15.00003719329834 S 17.320451736450195,-13.125040054321289 17.320451736450195,-11.250041961669922 S 18.40298080444336,-9.375043869018555 19.485511779785156,-7.500046730041504 S 20.56804084777832,-3.750051498413086 21.650571823120117,-3.750051498413086 S 23.81563377380371,-5.625049114227295 23.81563377380371,-7.500046730041504 S 21.10930633544922,-10.312542915344238 21.650571823120117,-11.250041961669922 S 24.356897354125977,-12.187541007995605 25.980693817138672,-11.250041961669922 S 26.52195930480957,-8.437545776367188 28.145753860473633,-7.500046730041504 S 30.852081298828125,-6.56254768371582 32.47587585449219,-7.500046730041504 S 33.55840301513672,-9.375044822692871 34.640933990478516,-11.250041961669922 S 37.347259521484375,-14.062538146972656 36.80599594116211,-15.00003719329834 S 34.09967041015625,-15.937536239624023 32.47587585449219,-15.00003719329834 S 31.39334487915039,-11.250041961669922 30.310813903808594,-11.250041961669922 S 28.145753860473633,-13.125040054321289 28.145753860473633,-15.00003719329834 S 30.310813903808594,-16.87503433227539 30.310813903808594,-18.750032424926758 S 29.769548416137695,-21.562528610229492 28.145753860473633,-22.500028610229492 S 24.35689926147461,-23.43752670288086 23.81563377380371,-22.500028610229492 S 25.980693817138672,-20.625030517578125 25.980693817138672,-18.750032424926758 S 24.898164749145508,-15.00003719329834 23.81563377380371,-15.00003719329834 S 22.733102798461914,-16.87503433227539 21.650571823120117,-18.750032424926758 S 19.485509872436523,-20.625030517578125 19.485509872436523,-22.500028610229492 S 20.026775360107422,-25.312524795532227 21.650569915771484,-26.250022888183594 S 24.356895446777344,-25.312522888183594 25.98069190979004,-26.250022888183594 S 28.6870174407959,-29.062519073486328 28.145751953125,-30.000019073486328 S 25.43942642211914,-29.06252098083496 23.815631866455078,-30.000019073486328 S 21.10930633544922,-32.81251525878906 21.650571823120117,-33.75001525878906 S 23.815631866455078,-33.75001525878906 25.980693817138672,-33.75001525878906 S 28.687021255493164,-34.68751525878906 30.31081771850586,-33.75001525878906 S 32.47587966918945,-31.875017166137695 32.47587966918945,-30.000019073486328 S 30.31081771850586,-28.12502098083496 30.31081771850586,-26.250022888183594 S 31.393348693847656,-24.37502670288086 32.47587966918945,-22.500028610229492 S 33.558406829833984,-18.750032424926758 34.64093780517578,-18.750032424926758 S 36.805999755859375,-20.625030517578125 36.805999755859375,-22.500028610229492 S 34.099674224853516,-25.312524795532227 34.64093780517578,-26.250022888183594 S 37.34726333618164,-27.18752098083496 38.9710578918457,-26.250022888183594 S 41.1361198425293,-22.500028610229492 41.1361198425293,-22.500028610229492"
    transform="rotate(60 0 0)"
  />
</svg>
