<?xml version="1.0" encoding="UTF-8"?>
<!DOCTYPE svg>
<svg
  data-animation-duration="1.5s"
  viewBox="-50 -50 100 100"
>
  <title>
    ANIMATION 18 - VARIATION H
  </title>
  <desc>
    <p>See this animation in action here: <a href="https://andrew.wang-hoyer.com/experiments/svg-animations/18/h" target="_blank" rel="noopener">https://andrew.wang-hoyer.com/experiments/svg-animations/18/h</a>.</p>
    <p>Generator source code : <a href="https://github.com/ndrwhr/svg-animation-src/tree/master/site/_svgs/generators/animations/18/h.js" target="_blank" rel="noopener">https://github.com/ndrwhr/svg-animation-src/tree/master/site/_svgs/generators/animations/18/h.js</a>.</p>
    <p>All generated files and source code are released under the following license:</p>
    <p>MIT License</p>
    <p>Copyright (c) 2018-present Andrew Hoyer</p>
    <p>Permission is hereby granted, free of charge, to any person obtaining a copy of this software and associated documentation files (the &quot;Software&quot;), to deal in the Software without restriction, including without limitation the rights to use, copy, modify, merge, publish, distribute, sublicense, and/or sell copies of the Software, and to permit persons to whom the Software is furnished to do so, subject to the following conditions:</p>
    <p>The above copyright notice and this permission notice shall be included in all copies or substantial portions of the Software.</p>
    <p>THE SOFTWARE IS PROVIDED &quot;AS IS&quot;, WITHOUT WARRANTY OF ANY KIND, EXPRESS OR IMPLIED, INCLUDING BUT NOT LIMITED TO THE WARRANTIES OF MERCHANTABILITY, FITNESS FOR A PARTICULAR PURPOSE AND NONINFRINGEMENT. IN NO EVENT SHALL THE AUTHORS OR COPYRIGHT HOLDERS BE LIABLE FOR ANY CLAIM, DAMAGES OR OTHER LIABILITY, WHETHER IN AN ACTION OF CONTRACT, TORT OR OTHERWISE, ARISING FROM, OUT OF OR IN CONNECTION WITH THE SOFTWARE OR THE USE OR OTHER DEALINGS IN THE SOFTWARE.</p>
  </desc>
  <style>
    /* <![CDATA[ */
      .svg-18-h-polyline {
        stroke: black;
        stroke-width: .3;
        fill: none;
        stroke-dasharray: 5.624992370605469%, 5.624992370605469%;
        animation: svg-18-h-main-anim 1.5s linear infinite;
      }
      
      @keyframes svg-18-h-main-anim {
        from {
          stroke-dashoffset: 0;
        }
      
        to {
          stroke-dashoffset: 11.249984741210938%;
        }
      }
      
    /* ]]> */
  </style>
  <polyline
    class="svg-18-h-polyline"
    points="-45,36.535377502441406 -39.37500762939453,36.535377502441406 -36.56250762939453,31.663990020751953 -39.37500762939453,26.7926025390625 -36.56250762939453,21.92121696472168 -30.937515258789062,21.92121696472168 -28.125017166137695,26.7926025390625 -30.937515258789062,31.663990020751953 -28.125017166137695,36.535377502441406 -22.500022888183594,36.535377502441406 -19.68752670288086,31.663990020751953 -14.062532424926758,31.663990020751953 -11.250035285949707,36.535377502441406 -5.625041484832764,36.535377502441406 -2.812544345855713,31.663990020751953 -5.625041484832764,26.7926025390625 -11.250035285949707,26.7926025390625 -14.062532424926758,21.92121696472168 -11.250035285949707,17.049827575683594 -14.062532424926758,12.178439140319824 -19.68752670288086,12.178439140319824 -22.500022888183594,17.049827575683594 -28.125017166137695,17.049827575683594 -30.937515258789062,12.178439140319824 -28.125017166137695,7.307050704956055 -22.500022888183594,7.307050704956055 -19.68752670288086,2.435662031173706 -22.500022888183594,-2.4357264041900635 -19.68752670288086,-7.307115077972412 -14.062532424926758,-7.307115077972412 -11.250035285949707,-2.4357264041900635 -5.625041484832764,-2.4357264041900635 -2.812544345855713,-7.307115077972412 -5.625041484832764,-12.17850399017334 -11.250035285949707,-12.17850399017334 -14.062532424926758,-17.04989242553711 -11.250035285949707,-21.921279907226562 -5.625041484832764,-21.921279907226562 -2.812544345855713,-26.79266929626465 -5.625041484832764,-31.664058685302734 -2.812544345855713,-36.53544616699219 2.8124542236328125,-36.53544616699219 5.624955654144287,-31.664052963256836 2.8124585151672363,-26.792661666870117 5.624959945678711,-21.92127227783203 11.249958038330078,-21.921276092529297 14.062459945678711,-17.049888610839844 11.24996280670166,-12.178495407104492 5.624964237213135,-12.17849063873291 2.812467098236084,-7.307097911834717 5.624968528747559,-2.435709238052368 11.249966621398926,-2.435713529586792 14.062463760375977,-7.3071064949035645 19.687461853027344,-7.307110786437988 22.499963760375977,-2.4357221126556396 19.68746566772461,2.4356706142425537 22.499967575073242,7.307061195373535 28.12496566772461,7.307059288024902 30.937471389770508,12.178452491760254 28.124975204467773,17.049848556518555 22.499971389770508,17.049854278564453 19.68746566772461,12.178461074829102 14.062463760375977,12.178464889526367 11.249966621398926,17.049861907958984 14.062472343444824,21.921255111694336 11.249975204467773,26.792652130126953 5.624972820281982,26.79265594482422 2.8124756813049316,31.664052963256836 5.62498140335083,36.53544616699219 11.249983787536621,36.53544235229492 14.062480926513672,31.664043426513672 19.687482833862305,31.664037704467773 22.499988555908203,36.535430908203125 28.12499237060547,36.535423278808594 30.937488555908203,31.66402816772461 28.124982833862305,26.792634963989258 30.937480926513672,21.92123794555664 36.56248474121094,21.921234130859375 39.3749885559082,26.792627334594727 36.56249237060547,31.664024353027344 39.374996185302734,36.53541564941406 45,36.5354118347168"
  />
</svg>
