<?xml version="1.0" encoding="UTF-8"?>
<!DOCTYPE svg>
<svg
  data-animation-duration="2s"
  viewBox="-50 -50 100 100"
>
  <title>
    ANIMATION 18 - VARIATION I
  </title>
  <desc>
    <p>See this animation in action here: <a href="https://andrew.wang-hoyer.com/experiments/svg-animations/18/i" target="_blank" rel="noopener">https://andrew.wang-hoyer.com/experiments/svg-animations/18/i</a>.</p>
    <p>Generator source code : <a href="https://github.com/ndrwhr/svg-animation-src/tree/master/site/_svgs/generators/animations/18/i.js" target="_blank" rel="noopener">https://github.com/ndrwhr/svg-animation-src/tree/master/site/_svgs/generators/animations/18/i.js</a>.</p>
    <p>All generated files and source code are released under the following license:</p>
    <p>MIT License</p>
    <p>Copyright (c) 2018-present Andrew Hoyer</p>
    <p>Permission is hereby granted, free of charge, to any person obtaining a copy of this software and associated documentation files (the &quot;Software&quot;), to deal in the Software without restriction, including without limitation the rights to use, copy, modify, merge, publish, distribute, sublicense, and/or sell copies of the Software, and to permit persons to whom the Software is furnished to do so, subject to the following conditions:</p>
    <p>The above copyright notice and this permission notice shall be included in all copies or substantial portions of the Software.</p>
    <p>THE SOFTWARE IS PROVIDED &quot;AS IS&quot;, WITHOUT WARRANTY OF ANY KIND, EXPRESS OR IMPLIED, INCLUDING BUT NOT LIMITED TO THE WARRANTIES OF MERCHANTABILITY, FITNESS FOR A PARTICULAR PURPOSE AND NONINFRINGEMENT. IN NO EVENT SHALL THE AUTHORS OR COPYRIGHT HOLDERS BE LIABLE FOR ANY CLAIM, DAMAGES OR OTHER LIABILITY, WHETHER IN AN ACTION OF CONTRACT, TORT OR OTHERWISE, ARISING FROM, OUT OF OR IN CONNECTION WITH THE SOFTWARE OR THE USE OR OTHER DEALINGS IN THE SOFTWARE.</p>
  </desc>
  <style>
    /* <![CDATA[ */
      .svg-18-i-path {
        stroke: black;
        stroke-width: 2.5;
        fill: none;
        stroke-dasharray: 5.624992370605469%, 5.624992370605469%;
        animation: svg-18-i-main-anim 2s linear infinite;
      }
      
      @keyframes svg-18-i-main-anim {
        from {
          stroke-dashoffset: 0;
        }
      
        to {
          stroke-dashoffset: 11.249984741210938%;
        }
      }
      
    /* ]]> */
  </style>
  <path
    class="svg-18-i-path"
    d="M -45,36.535377502441406 C -45,36.535377502441406 -41.484378814697266,37.75322341918945 -39.37500762939453,36.535377502441406 S -36.56250762939453,34.09968566894531 -36.56250762939453,31.663990020751953 S -39.37500762939453,29.228296279907227 -39.37500762939453,26.7926025390625 S -38.67188262939453,23.139062881469727 -36.56250762939453,21.92121696472168 S -33.0468864440918,20.703371047973633 -30.937515258789062,21.92121696472168 S -28.125017166137695,24.356908798217773 -28.125017166137695,26.7926025390625 S -30.937515258789062,29.228296279907227 -30.937515258789062,31.663990020751953 S -30.234390258789062,35.31753158569336 -28.125017166137695,36.535377502441406 S -24.60939598083496,37.75322341918945 -22.500022888183594,36.535377502441406 S -21.796899795532227,32.8818359375 -19.68752670288086,31.663990020751953 S -16.171905517578125,30.446144104003906 -14.062532424926758,31.663990020751953 S -13.359407424926758,35.31753158569336 -11.250035285949707,36.535377502441406 S -7.734414100646973,37.75322341918945 -5.625041484832764,36.535377502441406 S -2.812544345855713,34.09968566894531 -2.812544345855713,31.663990020751953 S -3.5156688690185547,28.010448455810547 -5.625041484832764,26.7926025390625 S -9.14066219329834,28.010448455810547 -11.250035285949707,26.7926025390625 S -14.062532424926758,24.356910705566406 -14.062532424926758,21.92121696472168 S -11.250035285949707,19.485523223876953 -11.250035285949707,17.049827575683594 S -11.95315933227539,13.396286010742188 -14.062532424926758,12.178439140319824 S -17.578153610229492,10.960592269897461 -19.68752670288086,12.178439140319824 S -20.390649795532227,15.83198070526123 -22.500022888183594,17.049827575683594 S -26.015644073486328,18.267675399780273 -28.125017166137695,17.049827575683594 S -30.937515258789062,14.614133834838867 -30.937515258789062,12.178439140319824 S -30.234390258789062,8.524897575378418 -28.125017166137695,7.307050704956055 S -24.60939598083496,8.524897575378418 -22.500022888183594,7.307050704956055 S -19.68752670288086,4.871356010437012 -19.68752670288086,2.435662031173706 S -22.500022888183594,-0.00003218650817871094 -22.500022888183594,-2.4357264041900635 S -21.796899795532227,-6.089267730712891 -19.68752670288086,-7.307115077972412 S -16.171905517578125,-8.524962425231934 -14.062532424926758,-7.307115077972412 S -13.359408378601074,-3.653573513031006 -11.250035285949707,-2.4357264041900635 S -7.734414100646973,-1.2178794145584106 -5.625041484832764,-2.4357264041900635 S -2.812544345855713,-4.871420860290527 -2.812544345855713,-7.307115077972412 S -3.5156686305999756,-10.960657119750977 -5.625041484832764,-12.17850399017334 S -9.140663146972656,-10.960657119750977 -11.250035285949707,-12.17850399017334 S -14.062532424926758,-14.614198684692383 -14.062532424926758,-17.04989242553711 S -13.359407424926758,-20.703433990478516 -11.250035285949707,-21.921279907226562 S -7.734414100646973,-20.703432083129883 -5.625041484832764,-21.921279907226562 S -2.812544345855713,-24.356975555419922 -2.812544345855713,-26.79266929626465 S -5.625041484832764,-29.228363037109375 -5.625041484832764,-31.664058685302734 S -4.92191743850708,-35.31760025024414 -2.812544345855713,-36.53544616699219 S 0.7030797004699707,-37.7532958984375 2.8124542236328125,-36.53544616699219 S 5.624954700469971,-34.09975051879883 5.624955654144287,-31.664052963256836 S 2.81245756149292,-29.228357315063477 2.8124585151672363,-26.792661666870117 S 3.515584945678711,-23.139118194580078 5.624959945678711,-21.92127227783203 S 9.140583038330078,-23.139122009277344 11.249958038330078,-21.921276092529297 S 14.062458992004395,-19.485584259033203 14.062459945678711,-17.049888610839844 S 13.359336853027344,-13.396345138549805 11.24996280670166,-12.178495407104492 S 7.734338283538818,-13.396340370178223 5.624964237213135,-12.17849063873291 S 2.8124659061431885,-9.742794036865234 2.812467098236084,-7.307097911834717 S 3.5155937671661377,-3.653555393218994 5.624968528747559,-2.435709238052368 S 9.140592575073242,-1.2178642749786377 11.249966621398926,-2.435713529586792 S 11.953089714050293,-6.08925724029541 14.062463760375977,-7.3071064949035645 S 17.578086853027344,-8.524956703186035 19.687461853027344,-7.307110786437988 S 22.499963760375977,-4.871417045593262 22.499963760375977,-2.4357221126556396 S 19.68746566772461,-0.000025272369384765625 19.68746566772461,2.4356706142425537 S 20.390592575073242,6.089213848114014 22.499967575073242,7.307061195373535 S 26.01559066772461,6.089211940765381 28.12496566772461,7.307059288024902 S 30.937469482421875,9.742754936218262 30.937471389770508,12.178452491760254 S 30.234350204467773,15.831998825073242 28.124975204467773,17.049848556518555 S 24.60934829711914,18.267702102661133 22.499971389770508,17.049854278564453 S 21.796842575073242,13.396308898925781 19.68746566772461,12.178461074829102 S 16.171838760375977,10.960615158081055 14.062463760375977,12.178464889526367 S 11.249964714050293,14.614164352416992 11.249966621398926,17.049861907958984 S 14.062470436096191,19.485557556152344 14.062472343444824,21.921255111694336 S 13.359350204467773,25.57480239868164 11.249975204467773,26.792652130126953 S 7.734347820281982,25.574806213378906 5.624972820281982,26.79265594482422 S 2.8124735355377197,29.228355407714844 2.8124756813049316,31.664052963256836 S 3.515604257583618,35.31760025024414 5.62498140335083,36.53544616699219 S 9.140608787536621,37.753292083740234 11.249983787536621,36.53544235229492 S 11.953105926513672,32.881893157958984 14.062480926513672,31.664043426513672 S 17.578105926513672,30.446191787719727 19.687482833862305,31.664037704467773 S 20.39061164855957,35.31758499145508 22.499988555908203,36.535430908203125 S 26.01561737060547,37.753273010253906 28.12499237060547,36.535423278808594 S 30.937490463256836,34.09972381591797 30.937488555908203,31.66402816772461 S 28.124984741210938,29.22833251953125 28.124982833862305,26.792634963989258 S 28.828105926513672,23.139087677001953 30.937480926513672,21.92123794555664 S 34.45310592651367,20.703386306762695 36.56248474121094,21.921234130859375 S 39.37498474121094,24.356929779052734 39.3749885559082,26.792627334594727 S 36.5624885559082,29.22832679748535 36.56249237060547,31.664024353027344 S 37.265621185302734,35.317569732666016 39.374996185302734,36.53541564941406 S 45,36.5354118347168 45,36.5354118347168"
  />
</svg>
