<?xml version="1.0" encoding="UTF-8"?>
<!DOCTYPE svg>
<svg
  data-animation-duration="3.125s"
  viewBox="-50 -50 100 100"
>
  <title>
    ANIMATION 18 - VARIATION J
  </title>
  <desc>
    <p>See this animation in action here: <a href="https://andrew.wang-hoyer.com/experiments/svg-animations/18/j" target="_blank" rel="noopener">https://andrew.wang-hoyer.com/experiments/svg-animations/18/j</a>.</p>
    <p>Generator source code : <a href="https://github.com/ndrwhr/svg-animation-src/tree/master/site/_svgs/generators/animations/18/j.js" target="_blank" rel="noopener">https://github.com/ndrwhr/svg-animation-src/tree/master/site/_svgs/generators/animations/18/j.js</a>.</p>
    <p>All generated files and source code are released under the following license:</p>
    <p>MIT License</p>
    <p>Copyright (c) 2018-present Andrew Hoyer</p>
    <p>Permission is hereby granted, free of charge, to any person obtaining a copy of this software and associated documentation files (the &quot;Software&quot;), to deal in the Software without restriction, including without limitation the rights to use, copy, modify, merge, publish, distribute, sublicense, and/or sell copies of the Software, and to permit persons to whom the Software is furnished to do so, subject to the following conditions:</p>
    <p>The above copyright notice and this permission notice shall be included in all copies or substantial portions of the Software.</p>
    <p>THE SOFTWARE IS PROVIDED &quot;AS IS&quot;, WITHOUT WARRANTY OF ANY KIND, EXPRESS OR IMPLIED, INCLUDING BUT NOT LIMITED TO THE WARRANTIES OF MERCHANTABILITY, FITNESS FOR A PARTICULAR PURPOSE AND NONINFRINGEMENT. IN NO EVENT SHALL THE AUTHORS OR COPYRIGHT HOLDERS BE LIABLE FOR ANY CLAIM, DAMAGES OR OTHER LIABILITY, WHETHER IN AN ACTION OF CONTRACT, TORT OR OTHERWISE, ARISING FROM, OUT OF OR IN CONNECTION WITH THE SOFTWARE OR THE USE OR OTHER DEALINGS IN THE SOFTWARE.</p>
  </desc>
  <style>
    /* <![CDATA[ */
      .svg-18-j-polyline {
        stroke: black;
        stroke-width: .3;
        fill: none;
        stroke-dasharray: 21.30240249633789%, 21.30240249633789%;
        animation: svg-18-j-main-anim 3.125s linear infinite;
      }
      
      @keyframes svg-18-j-main-anim {
        from {
          stroke-dashoffset: 0;
        }
      
        to {
          stroke-dashoffset: 42.60480499267578%;
        }
      }
      
    /* ]]> */
  </style>
  <polyline
    class="svg-18-j-polyline"
    points="-44.99991226196289,2.6628308296203613 -41.23414611816406,6.428596496582031 -35.90855026245117,6.428596496582031 -32.142784118652344,2.6628308296203613 -28.377017974853516,6.428596496582031 -32.142784118652344,10.194361686706543 -32.142784118652344,15.51995849609375 -28.377017974853516,19.285724639892578 -23.051420211791992,19.285724639892578 -19.285655975341797,15.51995849609375 -19.285655975341797,10.194361686706543 -23.051420211791992,6.428596496582031 -19.285655975341797,2.6628308296203613 -15.519889831542969,6.428596496582031 -10.194293022155762,6.428596496582031 -6.428527355194092,2.6628308296203613 -2.662761688232422,6.428596496582031 -6.428527355194092,10.194361686706543 -6.428527355194092,15.51995849609375 -2.662761688232422,19.285724639892578 -6.428527355194092,23.051488876342773 -10.194293022155762,19.285724639892578 -15.519889831542969,19.285724639892578 -19.285655975341797,23.051488876342773 -19.285655975341797,28.377086639404297 -15.519889831542969,32.142852783203125 -10.194293022155762,32.142852783203125 -6.428527355194092,28.377086639404297 -2.662761688232422,32.142852783203125 -6.428527355194092,35.90861892700195 -6.428527355194092,41.234214782714844 -2.662761688232422,44.99998092651367 2.662834882736206,44.99998092651367 6.428600311279297,41.234214782714844 6.428600311279297,35.90861892700195 2.662834882736206,32.142852783203125 6.428600311279297,28.377086639404297 10.194366455078125,32.142852783203125 15.519962310791016,32.142852783203125 19.285728454589844,28.377086639404297 19.285728454589844,23.051488876342773 15.519962310791016,19.285724639892578 10.194366455078125,19.285724639892578 6.428600311279297,23.051488876342773 2.662834882736206,19.285724639892578 6.428600311279297,15.51995849609375 6.428600311279297,10.194361686706543 2.662834882736206,6.428596496582031 6.428600311279297,2.6628308296203613 10.194366455078125,6.428596496582031 15.519962310791016,6.428596496582031 19.285728454589844,2.6628308296203613 23.051494598388672,6.428596496582031 19.285728454589844,10.194361686706543 19.285728454589844,15.51995849609375 23.051494598388672,19.285724639892578 28.377086639404297,19.285724639892578 32.14285659790039,15.519957542419434 32.14285659790039,10.194357872009277 28.377086639404297,6.428589344024658 32.14285659790039,2.66282057762146 35.908626556396484,6.428592205047607 41.234230041503906,6.428593635559082 45,2.6628236770629883 45,-2.662780523300171 41.234230041503906,-6.428553581237793 35.908626556396484,-6.4285569190979 32.14285659790039,-2.662787675857544 28.377086639404297,-6.42855978012085 32.14285659790039,-10.194330215454102 32.14285659790039,-15.51993465423584 28.377086639404297,-19.28570556640625 23.051485061645508,-19.28570556640625 19.285715103149414,-15.519938468933105 19.285715103149414,-10.194337844848633 23.051485061645508,-6.4285688400268555 19.285715103149414,-2.662795305252075 15.519942283630371,-6.428564071655273 10.194337844848633,-6.42855978012085 6.428567886352539,-2.662785768508911 2.662794351577759,-6.428554534912109 6.42855978012085,-10.194326400756836 6.428555965423584,-15.519926071166992 2.6627862453460693,-19.28569221496582 6.42855167388916,-23.051462173461914 10.194321632385254,-19.285694122314453 15.519922256469727,-19.285696029663086 19.285688400268555,-23.05146598815918 19.285688400268555,-28.377063751220703 15.519922256469727,-32.14282989501953 10.194321632385254,-32.14283752441406 6.42855167388916,-28.3770694732666 2.6627862453460693,-32.14284133911133 6.428555965423584,-35.90860366821289 6.42855978012085,-41.23420715332031 2.662794351577759,-44.999977111816406 -2.662806510925293,-44.99998092651367 -6.4285759925842285,-41.234214782714844 -6.428580284118652,-35.90861511230469 -2.6628146171569824,-32.142845153808594 -6.428584098815918,-28.3770809173584 -10.19434928894043,-32.142852783203125 -15.519952774047852,-32.14285659790039 -19.285724639892578,-28.37708854675293 -19.28572654724121,-23.051485061645508 -15.51995849609375,-19.28571319580078 -10.194357872009277,-19.28571128845215 -6.428588390350342,-23.05147933959961 -2.662822723388672,-19.285709381103516 -6.428592205047607,-15.519946098327637 -6.428596496582031,-10.194347381591797 -2.6628308296203613,-6.428577899932861 -6.428600311279297,-2.662813663482666 -10.194366455078125,-6.428582191467285 -15.519965171813965,-6.428584098815918 -19.28573226928711,-2.662818670272827 -23.051498413085938,-6.428586006164551 -19.285730361938477,-10.194352149963379 -19.285728454589844,-15.519950866699219 -23.051494598388672,-19.28571891784668 -28.377092361450195,-19.285720825195312 -32.142860412597656,-15.519954681396484 -32.14286422729492,-10.194355964660645 -28.377098083496094,-6.428587436676025 -32.14286804199219,-2.662822723388672 -35.90863037109375,-6.428591251373291 -41.234230041503906,-6.428594589233398 -44.999996185302734,-2.662829875946045 -45,2.6627683639526367"
  />
</svg>
