<?xml version="1.0" encoding="UTF-8"?>
<!DOCTYPE svg>
<svg
  data-animation-duration="2s"
  viewBox="-50 -50 100 100"
>
  <title>
    ANIMATION 18 - VARIATION L
  </title>
  <desc>
    <p>See this animation in action here: <a href="https://andrew.wang-hoyer.com/experiments/svg-animations/18/l" target="_blank" rel="noopener">https://andrew.wang-hoyer.com/experiments/svg-animations/18/l</a>.</p>
    <p>Generator source code : <a href="https://github.com/ndrwhr/svg-animation-src/tree/master/site/_svgs/generators/animations/18/l.js" target="_blank" rel="noopener">https://github.com/ndrwhr/svg-animation-src/tree/master/site/_svgs/generators/animations/18/l.js</a>.</p>
    <p>All generated files and source code are released under the following license:</p>
    <p>MIT License</p>
    <p>Copyright (c) 2018-present Andrew Hoyer</p>
    <p>Permission is hereby granted, free of charge, to any person obtaining a copy of this software and associated documentation files (the &quot;Software&quot;), to deal in the Software without restriction, including without limitation the rights to use, copy, modify, merge, publish, distribute, sublicense, and/or sell copies of the Software, and to permit persons to whom the Software is furnished to do so, subject to the following conditions:</p>
    <p>The above copyright notice and this permission notice shall be included in all copies or substantial portions of the Software.</p>
    <p>THE SOFTWARE IS PROVIDED &quot;AS IS&quot;, WITHOUT WARRANTY OF ANY KIND, EXPRESS OR IMPLIED, INCLUDING BUT NOT LIMITED TO THE WARRANTIES OF MERCHANTABILITY, FITNESS FOR A PARTICULAR PURPOSE AND NONINFRINGEMENT. IN NO EVENT SHALL THE AUTHORS OR COPYRIGHT HOLDERS BE LIABLE FOR ANY CLAIM, DAMAGES OR OTHER LIABILITY, WHETHER IN AN ACTION OF CONTRACT, TORT OR OTHERWISE, ARISING FROM, OUT OF OR IN CONNECTION WITH THE SOFTWARE OR THE USE OR OTHER DEALINGS IN THE SOFTWARE.</p>
  </desc>
  <style>
    /* <![CDATA[ */
      .svg-18-l-path {
        stroke: black;
        stroke-width: 2.5;
        fill: none;
        stroke-dasharray: 5.325597216110956%, 5.325597216110956%;
        animation: svg-18-l-main-anim 2s linear infinite;
      }
      
      @keyframes svg-18-l-main-anim {
        from {
          stroke-dashoffset: 0;
        }
      
        to {
          stroke-dashoffset: 10.651194432221912%;
        }
      }
      
    /* ]]> */
  </style>
  <path
    class="svg-18-l-path"
    d="M -44.99991226196289,2.6628308296203613 C -44.05844497680664,4.935701370239258 -43.506988525390625,5.487154960632324 -41.23414611816406,6.428596496582031 S -38.18138885498047,7.370038032531738 -35.90855026245117,6.428596496582031 S -34.025665283203125,2.6628308296203613 -32.142784118652344,2.6628308296203613 S -28.377017974853516,4.545713901519775 -28.377017974853516,6.428596496582031 S -31.201343536376953,7.921521186828613 -32.142784118652344,10.194361686706543 S -33.084224700927734,13.24711799621582 -32.142784118652344,15.51995849609375 S -30.649858474731445,18.344284057617188 -28.377017974853516,19.285724639892578 S -25.324260711669922,20.2271671295166 -23.051420211791992,19.285724639892578 S -20.227096557617188,17.79279899597168 -19.285655975341797,15.51995849609375 S -18.344215393066406,12.467202186584473 -19.285655975341797,10.194361686706543 S -23.051420211791992,8.311479568481445 -23.051420211791992,6.428596496582031 S -21.16853904724121,2.6628308296203613 -19.285655975341797,2.6628308296203613 S -17.7927303314209,5.487154960632324 -15.519889831542969,6.428596496582031 S -12.467133522033691,7.370038032531738 -10.194293022155762,6.428596496582031 S -8.311409950256348,2.6628308296203613 -6.428527355194092,2.6628308296203613 S -2.662761688232422,4.545713901519775 -2.662761688232422,6.428596496582031 S -5.487085819244385,7.921521186828613 -6.428527355194092,10.194361686706543 S -7.369968891143799,13.24711799621582 -6.428527355194092,15.51995849609375 S -2.662761688232422,17.402841567993164 -2.662761688232422,19.285724639892578 S -4.545644760131836,23.051488876342773 -6.428527355194092,23.051488876342773 S -7.921452522277832,20.22716522216797 -10.194293022155762,19.285724639892578 S -13.247049331665039,18.344284057617188 -15.519889831542969,19.285724639892578 S -18.344215393066406,20.778648376464844 -19.285655975341797,23.051488876342773 S -20.227096557617188,26.104246139526367 -19.285655975341797,28.377086639404297 S -17.7927303314209,31.2014102935791 -15.519889831542969,32.142852783203125 S -12.467133522033691,33.084293365478516 -10.194293022155762,32.142852783203125 S -8.311409950256348,28.377086639404297 -6.428527355194092,28.377086639404297 S -2.662761688232422,30.25996971130371 -2.662761688232422,32.142852783203125 S -5.487085819244385,33.63577651977539 -6.428527355194092,35.90861892700195 S -7.369968414306641,38.96137619018555 -6.428527355194092,41.234214782714844 S -4.935602188110352,44.05854034423828 -2.662761688232422,44.99998092651367 S 0.38999438285827637,45.94142150878906 2.662834882736206,44.99998092651367 S 5.48715877532959,43.507057189941406 6.428600311279297,41.234214782714844 S 7.370041370391846,38.18145751953125 6.428600311279297,35.90861892700195 S 2.662834882736206,34.025733947753906 2.662834882736206,32.142852783203125 S 4.545717716217041,28.377086639404297 6.428600311279297,28.377086639404297 S 7.921525478363037,31.2014102935791 10.194366455078125,32.142852783203125 S 13.247121810913086,33.084293365478516 15.519962310791016,32.142852783203125 S 18.344287872314453,30.649927139282227 19.285728454589844,28.377086639404297 S 20.227170944213867,25.324329376220703 19.285728454589844,23.051488876342773 S 17.792802810668945,20.22716522216797 15.519962310791016,19.285724639892578 S 12.467206954956055,18.344284057617188 10.194366455078125,19.285724639892578 S 8.311483383178711,23.051488876342773 6.428600311279297,23.051488876342773 S 2.662834882736206,21.168607711791992 2.662834882736206,19.285724639892578 S 5.48715877532959,17.79279899597168 6.428600311279297,15.51995849609375 S 7.370041847229004,12.467202186584473 6.428600311279297,10.194361686706543 S 2.662834882736206,8.311479568481445 2.662834882736206,6.428596496582031 S 4.545717716217041,2.6628308296203613 6.428600311279297,2.6628308296203613 S 7.921525955200195,5.487154960632324 10.194366455078125,6.428596496582031 S 13.247121810913086,7.370038032531738 15.519962310791016,6.428596496582031 S 17.40284538269043,2.6628308296203613 19.285728454589844,2.6628308296203613 S 23.051494598388672,4.545713901519775 23.051494598388672,6.428596496582031 S 20.227169036865234,7.921521186828613 19.285728454589844,10.194361686706543 S 18.344287872314453,13.24711799621582 19.285728454589844,15.51995849609375 S 20.778654098510742,18.344282150268555 23.051494598388672,19.285724639892578 S 26.104248046875,20.22716522216797 28.377086639404297,19.285724639892578 S 31.201414108276367,17.79279899597168 32.14285659790039,15.519957542419434 S 33.08429718017578,12.467199325561523 32.14285659790039,10.194357872009277 S 28.377086639404297,8.311473846435547 28.377086639404297,6.428589344024658 S 30.259971618652344,2.6628198623657227 32.14285659790039,2.66282057762146 S 33.63578414916992,5.487148761749268 35.908626556396484,6.428592205047607 S 38.961387634277344,7.370035648345947 41.234230041503906,6.428593635559082 S 44.05855941772461,4.935667037963867 45,2.6628236770629883 S 45.94144058227539,-0.3899364471435547 45,-2.662780523300171 S 43.50707244873047,-5.487109184265137 41.234230041503906,-6.428553581237793 S 38.18146896362305,-7.369998455047607 35.908626556396484,-6.4285569190979 S 34.02574157714844,-2.6627869606018066 32.14285659790039,-2.662787675857544 S 28.377086639404297,-4.545673847198486 28.377086639404297,-6.42855978012085 S 31.201414108276367,-7.921486854553223 32.14285659790039,-10.194330215454102 S 33.08430099487305,-13.247090339660645 32.14285659790039,-15.51993465423584 S 30.64992904663086,-18.344263076782227 28.377086639404297,-19.28570556640625 S 25.32432746887207,-20.227148056030273 23.051485061645508,-19.28570556640625 S 20.227157592773438,-17.79277992248535 19.285715103149414,-15.519938468933105 S 18.34427261352539,-12.467180252075195 19.285715103149414,-10.194337844848633 S 23.051485061645508,-8.311453819274902 23.051485061645508,-6.4285688400268555 S 21.168601989746094,-2.6627964973449707 19.285715103149414,-2.662795305252075 S 17.79278564453125,-5.487123012542725 15.519942283630371,-6.428564071655273 S 12.467181205749512,-7.370004177093506 10.194337844848633,-6.42855978012085 S 8.311453819274902,-2.6627871990203857 6.428567886352539,-2.662785768508911 S 2.6627964973449707,-4.545668601989746 2.662794351577759,-6.428554534912109 S 5.487119197845459,-7.921483039855957 6.42855978012085,-10.194326400756836 S 7.369999408721924,-13.247084617614746 6.428555965423584,-15.519926071166992 S 2.662787437438965,-17.402809143066406 2.6627862453460693,-19.28569221496582 S 4.545668125152588,-23.051462173461914 6.42855167388916,-23.051462173461914 S 7.921478748321533,-20.227136611938477 10.194321632385254,-19.285694122314453 S 13.24708080291748,-18.344253540039062 15.519922256469727,-19.285696029663086 S 18.34424591064453,-20.778623580932617 19.285688400268555,-23.05146598815918 S 20.227130889892578,-26.104223251342773 19.285688400268555,-28.377063751220703 S 17.792762756347656,-31.201387405395508 15.519922256469727,-32.14282989501953 S 12.467164039611816,-33.08427810668945 10.194321632385254,-32.14283752441406 S 8.31143569946289,-28.37706756591797 6.42855167388916,-28.3770694732666 S 2.662785053253174,-30.25995635986328 2.6627862453460693,-32.14284133911133 S 5.487112998962402,-33.635765075683594 6.428555965423584,-35.90860366821289 S 7.37000036239624,-38.96136474609375 6.42855978012085,-41.23420715332031 S 4.935635566711426,-44.05853271484375 2.662794351577759,-44.999977111816406 S -0.38996362686157227,-45.94142150878906 -2.662806510925293,-44.99998092651367 S -5.487132549285889,-43.507057189941406 -6.4285759925842285,-41.234214782714844 S -7.370020866394043,-38.18145751953125 -6.428580284118652,-35.90861511230469 S -2.662813663482666,-34.02573013305664 -2.6628146171569824,-32.142845153808594 S -4.545701026916504,-28.377079010009766 -6.428584098815918,-28.3770809173584 S -7.921507835388184,-31.20140838623047 -10.19434928894043,-32.142852783203125 S -13.247108459472656,-33.08429718017578 -15.519952774047852,-32.14285659790039 S -18.344282150268555,-30.649930953979492 -19.285724639892578,-28.37708854675293 S -20.227169036865234,-25.324329376220703 -19.28572654724121,-23.051485061645508 S -17.792800903320312,-20.227157592773438 -15.51995849609375,-19.28571319580078 S -12.46720027923584,-18.344270706176758 -10.194357872009277,-19.28571128845215 S -8.311471939086914,-23.05147933959961 -6.428588390350342,-23.05147933959961 S -2.6628217697143555,-21.16859245300293 -2.662822723388672,-19.285709381103516 S -5.487148761749268,-17.79278564453125 -6.428592205047607,-15.519946098327637 S -7.370036602020264,-12.467188835144043 -6.428596496582031,-10.194347381591797 S -2.662829875946045,-8.311461448669434 -2.6628308296203613,-6.428577899932861 S -4.545716285705566,-2.6628127098083496 -6.428600311279297,-2.662813663482666 S -7.921525001525879,-5.487139701843262 -10.194366455078125,-6.428582191467285 S -13.247123718261719,-7.370025157928467 -15.519965171813965,-6.428584098815918 S -17.402849197387695,-2.662818193435669 -19.28573226928711,-2.662818670272827 S -23.051498413085938,-4.545702934265137 -23.051498413085938,-6.428586006164551 S -20.2271728515625,-7.921510696411133 -19.285730361938477,-10.194352149963379 S -18.344287872314453,-13.247109413146973 -19.285728454589844,-15.519950866699219 S -20.778654098510742,-18.344276428222656 -23.051494598388672,-19.28571891784668 S -26.104251861572266,-20.227161407470703 -28.377092361450195,-19.285720825195312 S -31.201417922973633,-17.792795181274414 -32.142860412597656,-15.519954681396484 S -33.08430480957031,-12.46719741821289 -32.14286422729492,-10.194355964660645 S -28.377098083496094,-8.311470985412598 -28.377098083496094,-6.428587436676025 S -30.259984970092773,-2.6628217697143555 -32.14286804199219,-2.662822723388672 S -33.63579177856445,-5.487148761749268 -35.90863037109375,-6.428591251373291 S -38.961387634277344,-7.370035171508789 -41.234230041503906,-6.428594589233398 S -44.058555603027344,-4.935669898986816 -44.999996185302734,-2.662829875946045 S -45.94137954711914,0.38996052742004395 -45,2.6627683639526367"
  />
</svg>
