<?xml version="1.0" encoding="UTF-8"?>
<!DOCTYPE svg>
<svg
  data-animation-duration="3.125s"
  viewBox="-50 -50 100 100"
>
  <title>
    ANIMATION 18 - VARIATION M
  </title>
  <desc>
    <p>See this animation in action here: <a href="https://andrew.wang-hoyer.com/experiments/svg-animations/18/m" target="_blank" rel="noopener">https://andrew.wang-hoyer.com/experiments/svg-animations/18/m</a>.</p>
    <p>Generator source code : <a href="https://github.com/ndrwhr/svg-animation-src/tree/master/site/_svgs/generators/animations/18/m.js" target="_blank" rel="noopener">https://github.com/ndrwhr/svg-animation-src/tree/master/site/_svgs/generators/animations/18/m.js</a>.</p>
    <p>All generated files and source code are released under the following license:</p>
    <p>MIT License</p>
    <p>Copyright (c) 2018-present Andrew Hoyer</p>
    <p>Permission is hereby granted, free of charge, to any person obtaining a copy of this software and associated documentation files (the &quot;Software&quot;), to deal in the Software without restriction, including without limitation the rights to use, copy, modify, merge, publish, distribute, sublicense, and/or sell copies of the Software, and to permit persons to whom the Software is furnished to do so, subject to the following conditions:</p>
    <p>The above copyright notice and this permission notice shall be included in all copies or substantial portions of the Software.</p>
    <p>THE SOFTWARE IS PROVIDED &quot;AS IS&quot;, WITHOUT WARRANTY OF ANY KIND, EXPRESS OR IMPLIED, INCLUDING BUT NOT LIMITED TO THE WARRANTIES OF MERCHANTABILITY, FITNESS FOR A PARTICULAR PURPOSE AND NONINFRINGEMENT. IN NO EVENT SHALL THE AUTHORS OR COPYRIGHT HOLDERS BE LIABLE FOR ANY CLAIM, DAMAGES OR OTHER LIABILITY, WHETHER IN AN ACTION OF CONTRACT, TORT OR OTHERWISE, ARISING FROM, OUT OF OR IN CONNECTION WITH THE SOFTWARE OR THE USE OR OTHER DEALINGS IN THE SOFTWARE.</p>
  </desc>
  <style>
    /* <![CDATA[ */
      .svg-18-m-polyline {
        stroke: black;
        stroke-width: .3;
        fill: none;
        stroke-dasharray: 51.428653717041016%, 51.428653717041016%;
        animation: svg-18-m-main-anim 3.125s linear infinite;
      }
      
      @keyframes svg-18-m-main-anim {
        from {
          stroke-dashoffset: 0;
        }
      
        to {
          stroke-dashoffset: 102.85730743408203%;
        }
      }
      
    /* ]]> */
  </style>
  <polyline
    class="svg-18-m-polyline"
    points="-6.4285712242126465,-45 0,-45 6.4285712242126465,-45 6.4285712242126465,-38.57143020629883 0,-38.57143020629883 0,-45 6.4285712242126465,-45 6.4285712242126465,-38.57143020629883 12.857142448425293,-38.57143020629883 19.285715103149414,-38.57143020629883 25.714284896850586,-38.57143020629883 25.714284896850586,-32.14285659790039 19.285715103149414,-32.14285659790039 19.285715103149414,-38.57143020629883 25.714284896850586,-38.57143020629883 25.714284896850586,-32.14285659790039 32.14285659790039,-32.14285659790039 32.14285659790039,-25.714284896850586 32.14285659790039,-19.285715103149414 25.714284896850586,-19.285715103149414 25.714284896850586,-25.714284896850586 32.14285659790039,-25.714284896850586 32.14285659790039,-19.285715103149414 25.714284896850586,-19.285715103149414 25.714284896850586,-12.857142448425293 19.285715103149414,-12.857142448425293 12.857142448425293,-12.857142448425293 12.857142448425293,-19.285715103149414 19.285715103149414,-19.285715103149414 19.285715103149414,-12.857142448425293 12.857142448425293,-12.857142448425293 12.857142448425293,-19.285715103149414 6.4285712242126465,-19.285715103149414 6.4285712242126465,-25.714284896850586 6.4285712242126465,-32.14285659790039 12.857142448425293,-32.14285659790039 12.857142448425293,-25.714284896850586 6.4285712242126465,-25.714284896850586 6.4285712242126465,-32.14285659790039 12.857142448425293,-32.14285659790039 12.857142448425293,-38.57143020629883 19.285715103149414,-38.57143020629883 25.714284896850586,-38.57143020629883 25.714284896850586,-32.14285659790039 19.285715103149414,-32.14285659790039 19.285715103149414,-38.57143020629883 25.714284896850586,-38.57143020629883 25.714284896850586,-32.14285659790039 32.14285659790039,-32.14285659790039 32.14285659790039,-25.714284896850586 32.14285659790039,-19.285715103149414 25.714284896850586,-19.285715103149414 25.714284896850586,-25.714284896850586 32.14285659790039,-25.714284896850586 32.14285659790039,-19.285715103149414 25.714284896850586,-19.285715103149414 25.714284896850586,-12.857142448425293 32.14285659790039,-12.857142448425293 38.57143020629883,-12.857142448425293 38.57143020629883,-6.4285712242126465 32.14285659790039,-6.4285712242126465 32.14285659790039,-12.857142448425293 38.57143020629883,-12.857142448425293 38.57143020629883,-6.4285712242126465 45,-6.4285712242126465 45,0 45,6.4285712242126465 38.57143020629883,6.4285712242126465 38.57143020629883,0 45,0 45,6.4285712242126465 38.57143020629883,6.4285712242126465 38.57143020629883,12.857142448425293 38.57143020629883,19.285715103149414 38.57143020629883,25.714284896850586 32.14285659790039,25.714284896850586 32.14285659790039,19.285715103149414 38.57143020629883,19.285715103149414 38.57143020629883,25.714284896850586 32.14285659790039,25.714284896850586 32.14285659790039,32.14285659790039 25.714284896850586,32.14285659790039 19.285715103149414,32.14285659790039 19.285715103149414,25.714284896850586 25.714284896850586,25.714284896850586 25.714284896850586,32.14285659790039 19.285715103149414,32.14285659790039 19.285715103149414,25.714284896850586 12.857142448425293,25.714284896850586 12.857142448425293,19.285715103149414 12.857142448425293,12.857142448425293 19.285715103149414,12.857142448425293 19.285715103149414,19.285715103149414 12.857142448425293,19.285715103149414 12.857142448425293,12.857142448425293 19.285715103149414,12.857142448425293 19.285715103149414,6.4285712242126465 25.714284896850586,6.4285712242126465 32.14285659790039,6.4285712242126465 32.14285659790039,12.857142448425293 25.714284896850586,12.857142448425293 25.714284896850586,6.4285712242126465 32.14285659790039,6.4285712242126465 32.14285659790039,12.857142448425293 38.57143020629883,12.857142448425293 38.57143020629883,19.285715103149414 38.57143020629883,25.714284896850586 32.14285659790039,25.714284896850586 32.14285659790039,19.285715103149414 38.57143020629883,19.285715103149414 38.57143020629883,25.714284896850586 32.14285659790039,25.714284896850586 32.14285659790039,32.14285659790039 25.714284896850586,32.14285659790039 19.285715103149414,32.14285659790039 19.285715103149414,25.714284896850586 25.714284896850586,25.714284896850586 25.714284896850586,32.14285659790039 19.285715103149414,32.14285659790039 19.285715103149414,25.714284896850586 12.857142448425293,25.714284896850586 12.857142448425293,32.14285659790039 12.857142448425293,38.57143020629883 6.4285712242126465,38.57143020629883 6.4285712242126465,32.14285659790039 12.857142448425293,32.14285659790039 12.857142448425293,38.57143020629883 6.4285712242126465,38.57143020629883 6.4285712242126465,45 0,45 -6.4285712242126465,45 -6.4285712242126465,38.57143020629883 0,38.57143020629883 0,45 -6.4285712242126465,45 -6.4285712242126465,38.57143020629883 -12.857142448425293,38.57143020629883 -19.285715103149414,38.57143020629883 -25.714284896850586,38.57143020629883 -25.714284896850586,32.14285659790039 -19.285715103149414,32.14285659790039 -19.285715103149414,38.57143020629883 -25.714284896850586,38.57143020629883 -25.714284896850586,32.14285659790039 -32.14285659790039,32.14285659790039 -32.14285659790039,25.714284896850586 -32.14285659790039,19.285715103149414 -25.714284896850586,19.285715103149414 -25.714284896850586,25.714284896850586 -32.14285659790039,25.714284896850586 -32.14285659790039,19.285715103149414 -25.714284896850586,19.285715103149414 -25.714284896850586,12.857142448425293 -19.285715103149414,12.857142448425293 -12.857142448425293,12.857142448425293 -12.857142448425293,19.285715103149414 -19.285715103149414,19.285715103149414 -19.285715103149414,12.857142448425293 -12.857142448425293,12.857142448425293 -12.857142448425293,19.285715103149414 -6.4285712242126465,19.285715103149414 -6.4285712242126465,25.714284896850586 -6.4285712242126465,32.14285659790039 -12.857142448425293,32.14285659790039 -12.857142448425293,25.714284896850586 -6.4285712242126465,25.714284896850586 -6.4285712242126465,32.14285659790039 -12.857142448425293,32.14285659790039 -12.857142448425293,38.57143020629883 -19.285715103149414,38.57143020629883 -25.714284896850586,38.57143020629883 -25.714284896850586,32.14285659790039 -19.285715103149414,32.14285659790039 -19.285715103149414,38.57143020629883 -25.714284896850586,38.57143020629883 -25.714284896850586,32.14285659790039 -32.14285659790039,32.14285659790039 -32.14285659790039,25.714284896850586 -32.14285659790039,19.285715103149414 -25.714284896850586,19.285715103149414 -25.714284896850586,25.714284896850586 -32.14285659790039,25.714284896850586 -32.14285659790039,19.285715103149414 -25.714284896850586,19.285715103149414 -25.714284896850586,12.857142448425293 -32.14285659790039,12.857142448425293 -38.57143020629883,12.857142448425293 -38.57143020629883,6.4285712242126465 -32.14285659790039,6.4285712242126465 -32.14285659790039,12.857142448425293 -38.57143020629883,12.857142448425293 -38.57143020629883,6.4285712242126465 -45,6.4285712242126465 -45,0 -45,-6.4285712242126465 -38.57143020629883,-6.4285712242126465 -38.57143020629883,0 -45,0 -45,-6.4285712242126465 -38.57143020629883,-6.4285712242126465 -38.57143020629883,-12.857142448425293 -38.57143020629883,-19.285715103149414 -38.57143020629883,-25.714284896850586 -32.14285659790039,-25.714284896850586 -32.14285659790039,-19.285715103149414 -38.57143020629883,-19.285715103149414 -38.57143020629883,-25.714284896850586 -32.14285659790039,-25.714284896850586 -32.14285659790039,-32.14285659790039 -25.714284896850586,-32.14285659790039 -19.285715103149414,-32.14285659790039 -19.285715103149414,-25.714284896850586 -25.714284896850586,-25.714284896850586 -25.714284896850586,-32.14285659790039 -19.285715103149414,-32.14285659790039 -19.285715103149414,-25.714284896850586 -12.857142448425293,-25.714284896850586 -12.857142448425293,-19.285715103149414 -12.857142448425293,-12.857142448425293 -19.285715103149414,-12.857142448425293 -19.285715103149414,-19.285715103149414 -12.857142448425293,-19.285715103149414 -12.857142448425293,-12.857142448425293 -19.285715103149414,-12.857142448425293 -19.285715103149414,-6.4285712242126465 -25.714284896850586,-6.4285712242126465 -32.14285659790039,-6.4285712242126465 -32.14285659790039,-12.857142448425293 -25.714284896850586,-12.857142448425293 -25.714284896850586,-6.4285712242126465 -32.14285659790039,-6.4285712242126465 -32.14285659790039,-12.857142448425293 -38.57143020629883,-12.857142448425293 -38.57143020629883,-19.285715103149414 -38.57143020629883,-25.714284896850586 -32.14285659790039,-25.714284896850586 -32.14285659790039,-19.285715103149414 -38.57143020629883,-19.285715103149414 -38.57143020629883,-25.714284896850586 -32.14285659790039,-25.714284896850586 -32.14285659790039,-32.14285659790039 -25.714284896850586,-32.14285659790039 -19.285715103149414,-32.14285659790039 -19.285715103149414,-25.714284896850586 -25.714284896850586,-25.714284896850586 -25.714284896850586,-32.14285659790039 -19.285715103149414,-32.14285659790039 -19.285715103149414,-25.714284896850586 -12.857142448425293,-25.714284896850586 -12.857142448425293,-32.14285659790039 -12.857142448425293,-38.57143020629883 -6.4285712242126465,-38.57143020629883 -6.4285712242126465,-32.14285659790039 -12.857142448425293,-32.14285659790039 -12.857142448425293,-38.57143020629883 -6.4285712242126465,-38.57143020629883 -6.4285712242126465,-45"
  />
</svg>
