<?xml version="1.0" encoding="UTF-8"?>
<!DOCTYPE svg><svg data-animation-duration="1.5s" preserveAspectRatio="xMidYMid meet" version="1.1" viewBox="-50 -50 100 100" xmlns:xlink="http://www.w3.org/1999/xlink" xmlns="http://www.w3.org/2000/svg"><style>/* <![CDATA[ */ @keyframes svg-18-n-main-anim{0%{stroke-dashoffset:0}to{stroke-dashoffset:25.714284896850586%}}.svg-18-n-polyline{stroke:#000;stroke-width:.3;fill:none;stroke-dasharray:12.857142448425293%,12.857142448425293%;animation:svg-18-n-main-anim 1.5s linear infinite} /* ]]> */</style><polyline class="svg-18-n-polyline" points="-6.4285712242126465,-45 0,-45 6.4285712242126465,-45 6.4285712242126465,-38.57143020629883 0,-38.57143020629883 0,-45 6.4285712242126465,-45 6.4285712242126465,-38.57143020629883 12.857142448425293,-38.57143020629883 19.285715103149414,-38.57143020629883 25.714284896850586,-38.57143020629883 25.714284896850586,-32.14285659790039 19.285715103149414,-32.14285659790039 19.285715103149414,-38.57143020629883 25.714284896850586,-38.57143020629883 25.714284896850586,-32.14285659790039 32.14285659790039,-32.14285659790039 32.14285659790039,-25.714284896850586 32.14285659790039,-19.285715103149414 25.714284896850586,-19.285715103149414 25.714284896850586,-25.714284896850586 32.14285659790039,-25.714284896850586 32.14285659790039,-19.285715103149414 25.714284896850586,-19.285715103149414 25.714284896850586,-12.857142448425293 19.285715103149414,-12.857142448425293 12.857142448425293,-12.857142448425293 12.857142448425293,-19.285715103149414 19.285715103149414,-19.285715103149414 19.285715103149414,-12.857142448425293 12.857142448425293,-12.857142448425293 12.857142448425293,-19.285715103149414 6.4285712242126465,-19.285715103149414 6.4285712242126465,-25.714284896850586 6.4285712242126465,-32.14285659790039 12.857142448425293,-32.14285659790039 12.857142448425293,-25.714284896850586 6.4285712242126465,-25.714284896850586 6.4285712242126465,-32.14285659790039 12.857142448425293,-32.14285659790039 12.857142448425293,-38.57143020629883 19.285715103149414,-38.57143020629883 25.714284896850586,-38.57143020629883 25.714284896850586,-32.14285659790039 19.285715103149414,-32.14285659790039 19.285715103149414,-38.57143020629883 25.714284896850586,-38.57143020629883 25.714284896850586,-32.14285659790039 32.14285659790039,-32.14285659790039 32.14285659790039,-25.714284896850586 32.14285659790039,-19.285715103149414 25.714284896850586,-19.285715103149414 25.714284896850586,-25.714284896850586 32.14285659790039,-25.714284896850586 32.14285659790039,-19.285715103149414 25.714284896850586,-19.285715103149414 25.714284896850586,-12.857142448425293 32.14285659790039,-12.857142448425293 38.57143020629883,-12.857142448425293 38.57143020629883,-6.4285712242126465 32.14285659790039,-6.4285712242126465 32.14285659790039,-12.857142448425293 38.57143020629883,-12.857142448425293 38.57143020629883,-6.4285712242126465 45,-6.4285712242126465 45,0 45,6.4285712242126465 38.57143020629883,6.4285712242126465 38.57143020629883,0 45,0 45,6.4285712242126465 38.57143020629883,6.4285712242126465 38.57143020629883,12.857142448425293 38.57143020629883,19.285715103149414 38.57143020629883,25.714284896850586 32.14285659790039,25.714284896850586 32.14285659790039,19.285715103149414 38.57143020629883,19.285715103149414 38.57143020629883,25.714284896850586 32.14285659790039,25.714284896850586 32.14285659790039,32.14285659790039 25.714284896850586,32.14285659790039 19.285715103149414,32.14285659790039 19.285715103149414,25.714284896850586 25.714284896850586,25.714284896850586 25.714284896850586,32.14285659790039 19.285715103149414,32.14285659790039 19.285715103149414,25.714284896850586 12.857142448425293,25.714284896850586 12.857142448425293,19.285715103149414 12.857142448425293,12.857142448425293 19.285715103149414,12.857142448425293 19.285715103149414,19.285715103149414 12.857142448425293,19.285715103149414 12.857142448425293,12.857142448425293 19.285715103149414,12.857142448425293 19.285715103149414,6.4285712242126465 25.714284896850586,6.4285712242126465 32.14285659790039,6.4285712242126465 32.14285659790039,12.857142448425293 25.714284896850586,12.857142448425293 25.714284896850586,6.4285712242126465 32.14285659790039,6.4285712242126465 32.14285659790039,12.857142448425293 38.57143020629883,12.857142448425293 38.57143020629883,19.285715103149414 38.57143020629883,25.714284896850586 32.14285659790039,25.714284896850586 32.14285659790039,19.285715103149414 38.57143020629883,19.285715103149414 38.57143020629883,25.714284896850586 32.14285659790039,25.714284896850586 32.14285659790039,32.14285659790039 25.714284896850586,32.14285659790039 19.285715103149414,32.14285659790039 19.285715103149414,25.714284896850586 25.714284896850586,25.714284896850586 25.714284896850586,32.14285659790039 19.285715103149414,32.14285659790039 19.285715103149414,25.714284896850586 12.857142448425293,25.714284896850586 12.857142448425293,32.14285659790039 12.857142448425293,38.57143020629883 6.4285712242126465,38.57143020629883 6.4285712242126465,32.14285659790039 12.857142448425293,32.14285659790039 12.857142448425293,38.57143020629883 6.4285712242126465,38.57143020629883 6.4285712242126465,45 0,45 -6.4285712242126465,45 -6.4285712242126465,38.57143020629883 0,38.57143020629883 0,45 -6.4285712242126465,45 -6.4285712242126465,38.57143020629883 -12.857142448425293,38.57143020629883 -19.285715103149414,38.57143020629883 -25.714284896850586,38.57143020629883 -25.714284896850586,32.14285659790039 -19.285715103149414,32.14285659790039 -19.285715103149414,38.57143020629883 -25.714284896850586,38.57143020629883 -25.714284896850586,32.14285659790039 -32.14285659790039,32.14285659790039 -32.14285659790039,25.714284896850586 -32.14285659790039,19.285715103149414 -25.714284896850586,19.285715103149414 -25.714284896850586,25.714284896850586 -32.14285659790039,25.714284896850586 -32.14285659790039,19.285715103149414 -25.714284896850586,19.285715103149414 -25.714284896850586,12.857142448425293 -19.285715103149414,12.857142448425293 -12.857142448425293,12.857142448425293 -12.857142448425293,19.285715103149414 -19.285715103149414,19.285715103149414 -19.285715103149414,12.857142448425293 -12.857142448425293,12.857142448425293 -12.857142448425293,19.285715103149414 -6.4285712242126465,19.285715103149414 -6.4285712242126465,25.714284896850586 -6.4285712242126465,32.14285659790039 -12.857142448425293,32.14285659790039 -12.857142448425293,25.714284896850586 -6.4285712242126465,25.714284896850586 -6.4285712242126465,32.14285659790039 -12.857142448425293,32.14285659790039 -12.857142448425293,38.57143020629883 -19.285715103149414,38.57143020629883 -25.714284896850586,38.57143020629883 -25.714284896850586,32.14285659790039 -19.285715103149414,32.14285659790039 -19.285715103149414,38.57143020629883 -25.714284896850586,38.57143020629883 -25.714284896850586,32.14285659790039 -32.14285659790039,32.14285659790039 -32.14285659790039,25.714284896850586 -32.14285659790039,19.285715103149414 -25.714284896850586,19.285715103149414 -25.714284896850586,25.714284896850586 -32.14285659790039,25.714284896850586 -32.14285659790039,19.285715103149414 -25.714284896850586,19.285715103149414 -25.714284896850586,12.857142448425293 -32.14285659790039,12.857142448425293 -38.57143020629883,12.857142448425293 -38.57143020629883,6.4285712242126465 -32.14285659790039,6.4285712242126465 -32.14285659790039,12.857142448425293 -38.57143020629883,12.857142448425293 -38.57143020629883,6.4285712242126465 -45,6.4285712242126465 -45,0 -45,-6.4285712242126465 -38.57143020629883,-6.4285712242126465 -38.57143020629883,0 -45,0 -45,-6.4285712242126465 -38.57143020629883,-6.4285712242126465 -38.57143020629883,-12.857142448425293 -38.57143020629883,-19.285715103149414 -38.57143020629883,-25.714284896850586 -32.14285659790039,-25.714284896850586 -32.14285659790039,-19.285715103149414 -38.57143020629883,-19.285715103149414 -38.57143020629883,-25.714284896850586 -32.14285659790039,-25.714284896850586 -32.14285659790039,-32.14285659790039 -25.714284896850586,-32.14285659790039 -19.285715103149414,-32.14285659790039 -19.285715103149414,-25.714284896850586 -25.714284896850586,-25.714284896850586 -25.714284896850586,-32.14285659790039 -19.285715103149414,-32.14285659790039 -19.285715103149414,-25.714284896850586 -12.857142448425293,-25.714284896850586 -12.857142448425293,-19.285715103149414 -12.857142448425293,-12.857142448425293 -19.285715103149414,-12.857142448425293 -19.285715103149414,-19.285715103149414 -12.857142448425293,-19.285715103149414 -12.857142448425293,-12.857142448425293 -19.285715103149414,-12.857142448425293 -19.285715103149414,-6.4285712242126465 -25.714284896850586,-6.4285712242126465 -32.14285659790039,-6.4285712242126465 -32.14285659790039,-12.857142448425293 -25.714284896850586,-12.857142448425293 -25.714284896850586,-6.4285712242126465 -32.14285659790039,-6.4285712242126465 -32.14285659790039,-12.857142448425293 -38.57143020629883,-12.857142448425293 -38.57143020629883,-19.285715103149414 -38.57143020629883,-25.714284896850586 -32.14285659790039,-25.714284896850586 -32.14285659790039,-19.285715103149414 -38.57143020629883,-19.285715103149414 -38.57143020629883,-25.714284896850586 -32.14285659790039,-25.714284896850586 -32.14285659790039,-32.14285659790039 -25.714284896850586,-32.14285659790039 -19.285715103149414,-32.14285659790039 -19.285715103149414,-25.714284896850586 -25.714284896850586,-25.714284896850586 -25.714284896850586,-32.14285659790039 -19.285715103149414,-32.14285659790039 -19.285715103149414,-25.714284896850586 -12.857142448425293,-25.714284896850586 -12.857142448425293,-32.14285659790039 -12.857142448425293,-38.57143020629883 -6.4285712242126465,-38.57143020629883 -6.4285712242126465,-32.14285659790039 -12.857142448425293,-32.14285659790039 -12.857142448425293,-38.57143020629883 -6.4285712242126465,-38.57143020629883 -6.4285712242126465,-45"/><title>ANIMATION 18 - VARIATION N</title><desc><p>Created by <a href="http://andrew.wang-hoyer.com" target="_blank" rel="noopener">Andrew Wang-Hoyer</a>.</p></desc></svg>
