<?xml version="1.0" encoding="UTF-8"?>
<!DOCTYPE svg>
<svg
  data-animation-duration="3s"
  viewBox="-50 -50 100 100"
>
  <title>
    ANIMATION 18 - VARIATION O
  </title>
  <desc>
    <p>See this animation in action here: <a href="https://andrew.wang-hoyer.com/experiments/svg-animations/18/o" target="_blank" rel="noopener">https://andrew.wang-hoyer.com/experiments/svg-animations/18/o</a>.</p>
    <p>Generator source code : <a href="https://github.com/ndrwhr/svg-animation-src/tree/master/site/_svgs/generators/animations/18/o.js" target="_blank" rel="noopener">https://github.com/ndrwhr/svg-animation-src/tree/master/site/_svgs/generators/animations/18/o.js</a>.</p>
    <p>All generated files and source code are released under the following license:</p>
    <p>MIT License</p>
    <p>Copyright (c) 2018-present Andrew Hoyer</p>
    <p>Permission is hereby granted, free of charge, to any person obtaining a copy of this software and associated documentation files (the &quot;Software&quot;), to deal in the Software without restriction, including without limitation the rights to use, copy, modify, merge, publish, distribute, sublicense, and/or sell copies of the Software, and to permit persons to whom the Software is furnished to do so, subject to the following conditions:</p>
    <p>The above copyright notice and this permission notice shall be included in all copies or substantial portions of the Software.</p>
    <p>THE SOFTWARE IS PROVIDED &quot;AS IS&quot;, WITHOUT WARRANTY OF ANY KIND, EXPRESS OR IMPLIED, INCLUDING BUT NOT LIMITED TO THE WARRANTIES OF MERCHANTABILITY, FITNESS FOR A PARTICULAR PURPOSE AND NONINFRINGEMENT. IN NO EVENT SHALL THE AUTHORS OR COPYRIGHT HOLDERS BE LIABLE FOR ANY CLAIM, DAMAGES OR OTHER LIABILITY, WHETHER IN AN ACTION OF CONTRACT, TORT OR OTHERWISE, ARISING FROM, OUT OF OR IN CONNECTION WITH THE SOFTWARE OR THE USE OR OTHER DEALINGS IN THE SOFTWARE.</p>
  </desc>
  <style>
    /* <![CDATA[ */
      .svg-18-o-path {
        stroke: black;
        stroke-width: 2.5;
        fill: none;
        stroke-dasharray: 6.4285712242126465%, 12.857142448425293%;
        animation: svg-18-o-main-anim 3s linear infinite;
      }
      
      @keyframes svg-18-o-main-anim {
        from {
          stroke-dashoffset: 0;
        }
      
        to {
          stroke-dashoffset: 19.28571367263794%;
        }
      }
      
    /* ]]> */
  </style>
  <path
    class="svg-18-o-path"
    d="M -6.4285712242126465,-45 C -4.8214287757873535,-46.60714340209961 -3.2142856121063232,-45 0,-45 S 4.821428298950195,-46.60714340209961 6.4285712242126465,-45 S 8.035714149475098,-40.17857360839844 6.4285712242126465,-38.57143020629883 S 1.6071430444717407,-36.96428680419922 0,-38.57143020629883 S -1.6071425676345825,-43.39285659790039 0,-45 S 4.821428298950195,-46.60714340209961 6.4285712242126465,-45 S 4.8214287757873535,-40.17857360839844 6.4285712242126465,-38.57143020629883 S 9.64285659790039,-38.57143020629883 12.857142448425293,-38.57143020629883 S 16.071428298950195,-38.57143020629883 19.285715103149414,-38.57143020629883 S 24.10714340209961,-40.17857360839844 25.714284896850586,-38.57143020629883 S 27.321428298950195,-33.75 25.714284896850586,-32.14285659790039 S 20.89285659790039,-30.53571319580078 19.285715103149414,-32.14285659790039 S 17.678571701049805,-36.96428680419922 19.285715103149414,-38.57143020629883 S 24.10714340209961,-40.17857360839844 25.714284896850586,-38.57143020629883 S 24.107141494750977,-33.75 25.714284896850586,-32.14285659790039 S 30.53571319580078,-33.75 32.14285659790039,-32.14285659790039 S 32.14285659790039,-28.928569793701172 32.14285659790039,-25.714284896850586 S 33.75,-20.89285659790039 32.14285659790039,-19.285715103149414 S 27.321428298950195,-17.678571701049805 25.714284896850586,-19.285715103149414 S 24.107141494750977,-24.10714340209961 25.714284896850586,-25.714284896850586 S 30.53571319580078,-27.321428298950195 32.14285659790039,-25.714284896850586 S 33.75,-20.89285659790039 32.14285659790039,-19.285715103149414 S 27.321428298950195,-20.892858505249023 25.714284896850586,-19.285715103149414 S 27.321428298950195,-14.464285850524902 25.714284896850586,-12.857142448425293 S 22.5,-12.857142448425293 19.285715103149414,-12.857142448425293 S 14.464285850524902,-11.249999046325684 12.857142448425293,-12.857142448425293 S 11.249999046325684,-17.678571701049805 12.857142448425293,-19.285715103149414 S 17.678571701049805,-20.892858505249023 19.285715103149414,-19.285715103149414 S 20.892858505249023,-14.464285850524902 19.285715103149414,-12.857142448425293 S 14.464285850524902,-11.249999046325684 12.857142448425293,-12.857142448425293 S 14.464284896850586,-17.678571701049805 12.857142448425293,-19.285715103149414 S 8.035714149475098,-17.678571701049805 6.4285712242126465,-19.285715103149414 S 6.4285712242126465,-22.5 6.4285712242126465,-25.714284896850586 S 4.821428298950195,-30.53571319580078 6.4285712242126465,-32.14285659790039 S 11.25,-33.75 12.857142448425293,-32.14285659790039 S 14.464284896850586,-27.321428298950195 12.857142448425293,-25.714284896850586 S 8.035714149475098,-24.107141494750977 6.4285712242126465,-25.714284896850586 S 4.821428298950195,-30.53571319580078 6.4285712242126465,-32.14285659790039 S 11.25,-30.53571319580078 12.857142448425293,-32.14285659790039 S 11.249999046325684,-36.96428680419922 12.857142448425293,-38.57143020629883 S 16.071428298950195,-38.57143020629883 19.285715103149414,-38.57143020629883 S 24.10714340209961,-40.17857360839844 25.714284896850586,-38.57143020629883 S 27.321428298950195,-33.75 25.714284896850586,-32.14285659790039 S 20.89285659790039,-30.53571319580078 19.285715103149414,-32.14285659790039 S 17.678571701049805,-36.96428680419922 19.285715103149414,-38.57143020629883 S 24.10714340209961,-40.17857360839844 25.714284896850586,-38.57143020629883 S 24.107141494750977,-33.75 25.714284896850586,-32.14285659790039 S 30.53571319580078,-33.75 32.14285659790039,-32.14285659790039 S 32.14285659790039,-28.928569793701172 32.14285659790039,-25.714284896850586 S 33.75,-20.89285659790039 32.14285659790039,-19.285715103149414 S 27.321428298950195,-17.678571701049805 25.714284896850586,-19.285715103149414 S 24.107141494750977,-24.10714340209961 25.714284896850586,-25.714284896850586 S 30.53571319580078,-27.321428298950195 32.14285659790039,-25.714284896850586 S 33.75,-20.89285659790039 32.14285659790039,-19.285715103149414 S 27.321428298950195,-20.892858505249023 25.714284896850586,-19.285715103149414 S 24.107141494750977,-14.464285850524902 25.714284896850586,-12.857142448425293 S 28.928569793701172,-12.857142448425293 32.14285659790039,-12.857142448425293 S 36.96428680419922,-14.464285850524902 38.57143020629883,-12.857142448425293 S 40.17857360839844,-8.035714149475098 38.57143020629883,-6.4285712242126465 S 33.75,-4.821428298950195 32.14285659790039,-6.4285712242126465 S 30.53571319580078,-11.25 32.14285659790039,-12.857142448425293 S 36.96428680419922,-14.464285850524902 38.57143020629883,-12.857142448425293 S 36.96428680419922,-8.035714149475098 38.57143020629883,-6.4285712242126465 S 43.39285659790039,-8.035714149475098 45,-6.4285712242126465 S 45,-3.2142856121063232 45,0 S 46.60714340209961,4.821428298950195 45,6.4285712242126465 S 40.17857360839844,8.035714149475098 38.57143020629883,6.4285712242126465 S 36.96428680419922,1.6071430444717407 38.57143020629883,0 S 43.39285659790039,-1.6071425676345825 45,0 S 46.60714340209961,4.821428298950195 45,6.4285712242126465 S 40.17857360839844,4.8214287757873535 38.57143020629883,6.4285712242126465 S 38.57143020629883,9.64285659790039 38.57143020629883,12.857142448425293 S 38.57143020629883,16.071428298950195 38.57143020629883,19.285715103149414 S 40.17857360839844,24.10714340209961 38.57143020629883,25.714284896850586 S 33.75,27.321428298950195 32.14285659790039,25.714284896850586 S 30.53571319580078,20.89285659790039 32.14285659790039,19.285715103149414 S 36.96428680419922,17.678571701049805 38.57143020629883,19.285715103149414 S 40.17857360839844,24.10714340209961 38.57143020629883,25.714284896850586 S 33.75,24.107141494750977 32.14285659790039,25.714284896850586 S 33.75,30.53571319580078 32.14285659790039,32.14285659790039 S 28.928569793701172,32.14285659790039 25.714284896850586,32.14285659790039 S 20.89285659790039,33.75 19.285715103149414,32.14285659790039 S 17.678571701049805,27.321428298950195 19.285715103149414,25.714284896850586 S 24.10714340209961,24.107141494750977 25.714284896850586,25.714284896850586 S 27.321428298950195,30.53571319580078 25.714284896850586,32.14285659790039 S 20.89285659790039,33.75 19.285715103149414,32.14285659790039 S 20.892858505249023,27.321428298950195 19.285715103149414,25.714284896850586 S 14.464285850524902,27.321428298950195 12.857142448425293,25.714284896850586 S 12.857142448425293,22.5 12.857142448425293,19.285715103149414 S 11.249999046325684,14.464285850524902 12.857142448425293,12.857142448425293 S 17.678571701049805,11.249999046325684 19.285715103149414,12.857142448425293 S 20.892858505249023,17.678571701049805 19.285715103149414,19.285715103149414 S 14.464285850524902,20.892858505249023 12.857142448425293,19.285715103149414 S 11.249999046325684,14.464285850524902 12.857142448425293,12.857142448425293 S 17.678571701049805,14.464284896850586 19.285715103149414,12.857142448425293 S 17.678571701049805,8.035714149475098 19.285715103149414,6.4285712242126465 S 22.5,6.4285712242126465 25.714284896850586,6.4285712242126465 S 30.53571319580078,4.821428298950195 32.14285659790039,6.4285712242126465 S 33.75,11.25 32.14285659790039,12.857142448425293 S 27.321428298950195,14.464284896850586 25.714284896850586,12.857142448425293 S 24.107141494750977,8.035714149475098 25.714284896850586,6.4285712242126465 S 30.53571319580078,4.821428298950195 32.14285659790039,6.4285712242126465 S 30.53571319580078,11.25 32.14285659790039,12.857142448425293 S 36.96428680419922,11.249999046325684 38.57143020629883,12.857142448425293 S 38.57143020629883,16.071428298950195 38.57143020629883,19.285715103149414 S 40.17857360839844,24.10714340209961 38.57143020629883,25.714284896850586 S 33.75,27.321428298950195 32.14285659790039,25.714284896850586 S 30.53571319580078,20.89285659790039 32.14285659790039,19.285715103149414 S 36.96428680419922,17.678571701049805 38.57143020629883,19.285715103149414 S 40.17857360839844,24.10714340209961 38.57143020629883,25.714284896850586 S 33.75,24.107141494750977 32.14285659790039,25.714284896850586 S 33.75,30.53571319580078 32.14285659790039,32.14285659790039 S 28.928569793701172,32.14285659790039 25.714284896850586,32.14285659790039 S 20.89285659790039,33.75 19.285715103149414,32.14285659790039 S 17.678571701049805,27.321428298950195 19.285715103149414,25.714284896850586 S 24.10714340209961,24.107141494750977 25.714284896850586,25.714284896850586 S 27.321428298950195,30.53571319580078 25.714284896850586,32.14285659790039 S 20.89285659790039,33.75 19.285715103149414,32.14285659790039 S 20.892858505249023,27.321428298950195 19.285715103149414,25.714284896850586 S 14.464285850524902,24.107141494750977 12.857142448425293,25.714284896850586 S 12.857142448425293,28.928569793701172 12.857142448425293,32.14285659790039 S 14.464285850524902,36.96428680419922 12.857142448425293,38.57143020629883 S 8.035714149475098,40.17857360839844 6.4285712242126465,38.57143020629883 S 4.821428298950195,33.75 6.4285712242126465,32.14285659790039 S 11.25,30.53571319580078 12.857142448425293,32.14285659790039 S 14.464285850524902,36.96428680419922 12.857142448425293,38.57143020629883 S 8.035714149475098,36.96428680419922 6.4285712242126465,38.57143020629883 S 8.035714149475098,43.39285659790039 6.4285712242126465,45 S 3.2142856121063232,45 0,45 S -4.821428298950195,46.60714340209961 -6.4285712242126465,45 S -8.035714149475098,40.17857360839844 -6.4285712242126465,38.57143020629883 S -1.6071430444717407,36.96428680419922 0,38.57143020629883 S 1.6071425676345825,43.39285659790039 0,45 S -4.821428298950195,46.60714340209961 -6.4285712242126465,45 S -4.8214287757873535,40.17857360839844 -6.4285712242126465,38.57143020629883 S -9.64285659790039,38.57143020629883 -12.857142448425293,38.57143020629883 S -16.071428298950195,38.57143020629883 -19.285715103149414,38.57143020629883 S -24.10714340209961,40.17857360839844 -25.714284896850586,38.57143020629883 S -27.321428298950195,33.75 -25.714284896850586,32.14285659790039 S -20.89285659790039,30.53571319580078 -19.285715103149414,32.14285659790039 S -17.678571701049805,36.96428680419922 -19.285715103149414,38.57143020629883 S -24.10714340209961,40.17857360839844 -25.714284896850586,38.57143020629883 S -24.107141494750977,33.75 -25.714284896850586,32.14285659790039 S -30.53571319580078,33.75 -32.14285659790039,32.14285659790039 S -32.14285659790039,28.928569793701172 -32.14285659790039,25.714284896850586 S -33.75,20.89285659790039 -32.14285659790039,19.285715103149414 S -27.321428298950195,17.678571701049805 -25.714284896850586,19.285715103149414 S -24.107141494750977,24.10714340209961 -25.714284896850586,25.714284896850586 S -30.53571319580078,27.321428298950195 -32.14285659790039,25.714284896850586 S -33.75,20.89285659790039 -32.14285659790039,19.285715103149414 S -27.321428298950195,20.892858505249023 -25.714284896850586,19.285715103149414 S -27.321428298950195,14.464285850524902 -25.714284896850586,12.857142448425293 S -22.5,12.857142448425293 -19.285715103149414,12.857142448425293 S -14.464285850524902,11.249999046325684 -12.857142448425293,12.857142448425293 S -11.249999046325684,17.678571701049805 -12.857142448425293,19.285715103149414 S -17.678571701049805,20.892858505249023 -19.285715103149414,19.285715103149414 S -20.892858505249023,14.464285850524902 -19.285715103149414,12.857142448425293 S -14.464285850524902,11.249999046325684 -12.857142448425293,12.857142448425293 S -14.464284896850586,17.678571701049805 -12.857142448425293,19.285715103149414 S -8.035714149475098,17.678571701049805 -6.4285712242126465,19.285715103149414 S -6.4285712242126465,22.5 -6.4285712242126465,25.714284896850586 S -4.821428298950195,30.53571319580078 -6.4285712242126465,32.14285659790039 S -11.25,33.75 -12.857142448425293,32.14285659790039 S -14.464284896850586,27.321428298950195 -12.857142448425293,25.714284896850586 S -8.035714149475098,24.107141494750977 -6.4285712242126465,25.714284896850586 S -4.821428298950195,30.53571319580078 -6.4285712242126465,32.14285659790039 S -11.25,30.53571319580078 -12.857142448425293,32.14285659790039 S -11.249999046325684,36.96428680419922 -12.857142448425293,38.57143020629883 S -16.071428298950195,38.57143020629883 -19.285715103149414,38.57143020629883 S -24.10714340209961,40.17857360839844 -25.714284896850586,38.57143020629883 S -27.321428298950195,33.75 -25.714284896850586,32.14285659790039 S -20.89285659790039,30.53571319580078 -19.285715103149414,32.14285659790039 S -17.678571701049805,36.96428680419922 -19.285715103149414,38.57143020629883 S -24.10714340209961,40.17857360839844 -25.714284896850586,38.57143020629883 S -24.107141494750977,33.75 -25.714284896850586,32.14285659790039 S -30.53571319580078,33.75 -32.14285659790039,32.14285659790039 S -32.14285659790039,28.928569793701172 -32.14285659790039,25.714284896850586 S -33.75,20.89285659790039 -32.14285659790039,19.285715103149414 S -27.321428298950195,17.678571701049805 -25.714284896850586,19.285715103149414 S -24.107141494750977,24.10714340209961 -25.714284896850586,25.714284896850586 S -30.53571319580078,27.321428298950195 -32.14285659790039,25.714284896850586 S -33.75,20.89285659790039 -32.14285659790039,19.285715103149414 S -27.321428298950195,20.892858505249023 -25.714284896850586,19.285715103149414 S -24.107141494750977,14.464285850524902 -25.714284896850586,12.857142448425293 S -28.928569793701172,12.857142448425293 -32.14285659790039,12.857142448425293 S -36.96428680419922,14.464285850524902 -38.57143020629883,12.857142448425293 S -40.17857360839844,8.035714149475098 -38.57143020629883,6.4285712242126465 S -33.75,4.821428298950195 -32.14285659790039,6.4285712242126465 S -30.53571319580078,11.25 -32.14285659790039,12.857142448425293 S -36.96428680419922,14.464285850524902 -38.57143020629883,12.857142448425293 S -36.96428680419922,8.035714149475098 -38.57143020629883,6.4285712242126465 S -43.39285659790039,8.035714149475098 -45,6.4285712242126465 S -45,3.2142856121063232 -45,0 S -46.60714340209961,-4.821428298950195 -45,-6.4285712242126465 S -40.17857360839844,-8.035714149475098 -38.57143020629883,-6.4285712242126465 S -36.96428680419922,-1.6071430444717407 -38.57143020629883,0 S -43.39285659790039,1.6071425676345825 -45,0 S -46.60714340209961,-4.821428298950195 -45,-6.4285712242126465 S -40.17857360839844,-4.8214287757873535 -38.57143020629883,-6.4285712242126465 S -38.57143020629883,-9.64285659790039 -38.57143020629883,-12.857142448425293 S -38.57143020629883,-16.071428298950195 -38.57143020629883,-19.285715103149414 S -40.17857360839844,-24.10714340209961 -38.57143020629883,-25.714284896850586 S -33.75,-27.321428298950195 -32.14285659790039,-25.714284896850586 S -30.53571319580078,-20.89285659790039 -32.14285659790039,-19.285715103149414 S -36.96428680419922,-17.678571701049805 -38.57143020629883,-19.285715103149414 S -40.17857360839844,-24.10714340209961 -38.57143020629883,-25.714284896850586 S -33.75,-24.107141494750977 -32.14285659790039,-25.714284896850586 S -33.75,-30.53571319580078 -32.14285659790039,-32.14285659790039 S -28.928569793701172,-32.14285659790039 -25.714284896850586,-32.14285659790039 S -20.89285659790039,-33.75 -19.285715103149414,-32.14285659790039 S -17.678571701049805,-27.321428298950195 -19.285715103149414,-25.714284896850586 S -24.10714340209961,-24.107141494750977 -25.714284896850586,-25.714284896850586 S -27.321428298950195,-30.53571319580078 -25.714284896850586,-32.14285659790039 S -20.89285659790039,-33.75 -19.285715103149414,-32.14285659790039 S -20.892858505249023,-27.321428298950195 -19.285715103149414,-25.714284896850586 S -14.464285850524902,-27.321428298950195 -12.857142448425293,-25.714284896850586 S -12.857142448425293,-22.5 -12.857142448425293,-19.285715103149414 S -11.249999046325684,-14.464285850524902 -12.857142448425293,-12.857142448425293 S -17.678571701049805,-11.249999046325684 -19.285715103149414,-12.857142448425293 S -20.892858505249023,-17.678571701049805 -19.285715103149414,-19.285715103149414 S -14.464285850524902,-20.892858505249023 -12.857142448425293,-19.285715103149414 S -11.249999046325684,-14.464285850524902 -12.857142448425293,-12.857142448425293 S -17.678571701049805,-14.464284896850586 -19.285715103149414,-12.857142448425293 S -17.678571701049805,-8.035714149475098 -19.285715103149414,-6.4285712242126465 S -22.5,-6.4285712242126465 -25.714284896850586,-6.4285712242126465 S -30.53571319580078,-4.821428298950195 -32.14285659790039,-6.4285712242126465 S -33.75,-11.25 -32.14285659790039,-12.857142448425293 S -27.321428298950195,-14.464284896850586 -25.714284896850586,-12.857142448425293 S -24.107141494750977,-8.035714149475098 -25.714284896850586,-6.4285712242126465 S -30.53571319580078,-4.821428298950195 -32.14285659790039,-6.4285712242126465 S -30.53571319580078,-11.25 -32.14285659790039,-12.857142448425293 S -36.96428680419922,-11.249999046325684 -38.57143020629883,-12.857142448425293 S -38.57143020629883,-16.071428298950195 -38.57143020629883,-19.285715103149414 S -40.17857360839844,-24.10714340209961 -38.57143020629883,-25.714284896850586 S -33.75,-27.321428298950195 -32.14285659790039,-25.714284896850586 S -30.53571319580078,-20.89285659790039 -32.14285659790039,-19.285715103149414 S -36.96428680419922,-17.678571701049805 -38.57143020629883,-19.285715103149414 S -40.17857360839844,-24.10714340209961 -38.57143020629883,-25.714284896850586 S -33.75,-24.107141494750977 -32.14285659790039,-25.714284896850586 S -33.75,-30.53571319580078 -32.14285659790039,-32.14285659790039 S -28.928569793701172,-32.14285659790039 -25.714284896850586,-32.14285659790039 S -20.89285659790039,-33.75 -19.285715103149414,-32.14285659790039 S -17.678571701049805,-27.321428298950195 -19.285715103149414,-25.714284896850586 S -24.10714340209961,-24.107141494750977 -25.714284896850586,-25.714284896850586 S -27.321428298950195,-30.53571319580078 -25.714284896850586,-32.14285659790039 S -20.89285659790039,-33.75 -19.285715103149414,-32.14285659790039 S -20.892858505249023,-27.321428298950195 -19.285715103149414,-25.714284896850586 S -14.464285850524902,-24.107141494750977 -12.857142448425293,-25.714284896850586 S -12.857142448425293,-28.928569793701172 -12.857142448425293,-32.14285659790039 S -14.464285850524902,-36.96428680419922 -12.857142448425293,-38.57143020629883 S -8.035714149475098,-40.17857360839844 -6.4285712242126465,-38.57143020629883 S -4.821428298950195,-33.75 -6.4285712242126465,-32.14285659790039 S -11.25,-30.53571319580078 -12.857142448425293,-32.14285659790039 S -14.464285850524902,-36.96428680419922 -12.857142448425293,-38.57143020629883 S -8.035714149475098,-36.96428680419922 -6.4285712242126465,-38.57143020629883 S -8.035714149475098,-43.39285659790039 -6.4285712242126465,-45"
  />
</svg>
