<?xml version="1.0" encoding="UTF-8"?>
<!DOCTYPE svg>
<svg data-animation-duration="5s" preserveAspectRatio="xMidYMid meet" version="1.1" viewBox="-50 -50 100 100" xmlns:xlink="http://www.w3.org/1999/xlink" xmlns="http://www.w3.org/2000/svg"><style>/* <![CDATA[ */ @keyframes svg-40-b-main-anim{0%{transform:rotate(0)}to{transform:rotate(120deg)}}.svg-40-b-animation-group{animation:svg-40-b-main-anim 5s linear infinite} /* ]]> */</style><circle class="svg-40-b-circle" fill="black" r="45"/><g class="svg-40-b-g svg-40-b-animation-group"><g class="svg-40-b-g" transform="rotate(0) translate(0, -24.115427318801043) scale(0.4641016151377546)"><circle class="svg-40-b-circle" fill="white" r="45"/><g class="svg-40-b-g svg-40-b-animation-group"><g class="svg-40-b-g" transform="rotate(0) translate(0, -24.115427318801043) scale(0.4641016151377546)"><circle class="svg-40-b-circle" fill="black" r="45"/><g class="svg-40-b-g svg-40-b-animation-group"><g class="svg-40-b-g" transform="rotate(0) translate(0, -24.115427318801043) scale(0.4641016151377546)"><circle class="svg-40-b-circle" fill="white" r="45"/></g><g class="svg-40-b-g" transform="rotate(120) translate(0, -24.115427318801043) scale(0.4641016151377546)"><circle class="svg-40-b-circle" fill="white" r="45"/></g><g class="svg-40-b-g" transform="rotate(240) translate(0, -24.115427318801043) scale(0.4641016151377546)"><circle class="svg-40-b-circle" fill="white" r="45"/></g></g></g><g class="svg-40-b-g" transform="rotate(120) translate(0, -24.115427318801043) scale(0.4641016151377546)"><circle class="svg-40-b-circle" fill="black" r="45"/><g class="svg-40-b-g svg-40-b-animation-group"><g class="svg-40-b-g" transform="rotate(0) translate(0, -24.115427318801043) scale(0.4641016151377546)"><circle class="svg-40-b-circle" fill="white" r="45"/></g><g class="svg-40-b-g" transform="rotate(120) translate(0, -24.115427318801043) scale(0.4641016151377546)"><circle class="svg-40-b-circle" fill="white" r="45"/></g><g class="svg-40-b-g" transform="rotate(240) translate(0, -24.115427318801043) scale(0.4641016151377546)"><circle class="svg-40-b-circle" fill="white" r="45"/></g></g></g><g class="svg-40-b-g" transform="rotate(240) translate(0, -24.115427318801043) scale(0.4641016151377546)"><circle class="svg-40-b-circle" fill="black" r="45"/><g class="svg-40-b-g svg-40-b-animation-group"><g class="svg-40-b-g" transform="rotate(0) translate(0, -24.115427318801043) scale(0.4641016151377546)"><circle class="svg-40-b-circle" fill="white" r="45"/></g><g class="svg-40-b-g" transform="rotate(120) translate(0, -24.115427318801043) scale(0.4641016151377546)"><circle class="svg-40-b-circle" fill="white" r="45"/></g><g class="svg-40-b-g" transform="rotate(240) translate(0, -24.115427318801043) scale(0.4641016151377546)"><circle class="svg-40-b-circle" fill="white" r="45"/></g></g></g></g></g><g class="svg-40-b-g" transform="rotate(120) translate(0, -24.115427318801043) scale(0.4641016151377546)"><circle class="svg-40-b-circle" fill="white" r="45"/><g class="svg-40-b-g svg-40-b-animation-group"><g class="svg-40-b-g" transform="rotate(0) translate(0, -24.115427318801043) scale(0.4641016151377546)"><circle class="svg-40-b-circle" fill="black" r="45"/><g class="svg-40-b-g svg-40-b-animation-group"><g class="svg-40-b-g" transform="rotate(0) translate(0, -24.115427318801043) scale(0.4641016151377546)"><circle class="svg-40-b-circle" fill="white" r="45"/></g><g class="svg-40-b-g" transform="rotate(120) translate(0, -24.115427318801043) scale(0.4641016151377546)"><circle class="svg-40-b-circle" fill="white" r="45"/></g><g class="svg-40-b-g" transform="rotate(240) translate(0, -24.115427318801043) scale(0.4641016151377546)"><circle class="svg-40-b-circle" fill="white" r="45"/></g></g></g><g class="svg-40-b-g" transform="rotate(120) translate(0, -24.115427318801043) scale(0.4641016151377546)"><circle class="svg-40-b-circle" fill="black" r="45"/><g class="svg-40-b-g svg-40-b-animation-group"><g class="svg-40-b-g" transform="rotate(0) translate(0, -24.115427318801043) scale(0.4641016151377546)"><circle class="svg-40-b-circle" fill="white" r="45"/></g><g class="svg-40-b-g" transform="rotate(120) translate(0, -24.115427318801043) scale(0.4641016151377546)"><circle class="svg-40-b-circle" fill="white" r="45"/></g><g class="svg-40-b-g" transform="rotate(240) translate(0, -24.115427318801043) scale(0.4641016151377546)"><circle class="svg-40-b-circle" fill="white" r="45"/></g></g></g><g class="svg-40-b-g" transform="rotate(240) translate(0, -24.115427318801043) scale(0.4641016151377546)"><circle class="svg-40-b-circle" fill="black" r="45"/><g class="svg-40-b-g svg-40-b-animation-group"><g class="svg-40-b-g" transform="rotate(0) translate(0, -24.115427318801043) scale(0.4641016151377546)"><circle class="svg-40-b-circle" fill="white" r="45"/></g><g class="svg-40-b-g" transform="rotate(120) translate(0, -24.115427318801043) scale(0.4641016151377546)"><circle class="svg-40-b-circle" fill="white" r="45"/></g><g class="svg-40-b-g" transform="rotate(240) translate(0, -24.115427318801043) scale(0.4641016151377546)"><circle class="svg-40-b-circle" fill="white" r="45"/></g></g></g></g></g><g class="svg-40-b-g" transform="rotate(240) translate(0, -24.115427318801043) scale(0.4641016151377546)"><circle class="svg-40-b-circle" fill="white" r="45"/><g class="svg-40-b-g svg-40-b-animation-group"><g class="svg-40-b-g" transform="rotate(0) translate(0, -24.115427318801043) scale(0.4641016151377546)"><circle class="svg-40-b-circle" fill="black" r="45"/><g class="svg-40-b-g svg-40-b-animation-group"><g class="svg-40-b-g" transform="rotate(0) translate(0, -24.115427318801043) scale(0.4641016151377546)"><circle class="svg-40-b-circle" fill="white" r="45"/></g><g class="svg-40-b-g" transform="rotate(120) translate(0, -24.115427318801043) scale(0.4641016151377546)"><circle class="svg-40-b-circle" fill="white" r="45"/></g><g class="svg-40-b-g" transform="rotate(240) translate(0, -24.115427318801043) scale(0.4641016151377546)"><circle class="svg-40-b-circle" fill="white" r="45"/></g></g></g><g class="svg-40-b-g" transform="rotate(120) translate(0, -24.115427318801043) scale(0.4641016151377546)"><circle class="svg-40-b-circle" fill="black" r="45"/><g class="svg-40-b-g svg-40-b-animation-group"><g class="svg-40-b-g" transform="rotate(0) translate(0, -24.115427318801043) scale(0.4641016151377546)"><circle class="svg-40-b-circle" fill="white" r="45"/></g><g class="svg-40-b-g" transform="rotate(120) translate(0, -24.115427318801043) scale(0.4641016151377546)"><circle class="svg-40-b-circle" fill="white" r="45"/></g><g class="svg-40-b-g" transform="rotate(240) translate(0, -24.115427318801043) scale(0.4641016151377546)"><circle class="svg-40-b-circle" fill="white" r="45"/></g></g></g><g class="svg-40-b-g" transform="rotate(240) translate(0, -24.115427318801043) scale(0.4641016151377546)"><circle class="svg-40-b-circle" fill="black" r="45"/><g class="svg-40-b-g svg-40-b-animation-group"><g class="svg-40-b-g" transform="rotate(0) translate(0, -24.115427318801043) scale(0.4641016151377546)"><circle class="svg-40-b-circle" fill="white" r="45"/></g><g class="svg-40-b-g" transform="rotate(120) translate(0, -24.115427318801043) scale(0.4641016151377546)"><circle class="svg-40-b-circle" fill="white" r="45"/></g><g class="svg-40-b-g" transform="rotate(240) translate(0, -24.115427318801043) scale(0.4641016151377546)"><circle class="svg-40-b-circle" fill="white" r="45"/></g></g></g></g></g></g><title>ANIMATION 40 - VARIATION B</title><desc><p>Created by <a href="http://andrew.wang-hoyer.com" target="_blank" rel="noopener">Andrew Wang-Hoyer</a>.</p></desc></svg>
