<?xml version="1.0" encoding="UTF-8"?>
<!DOCTYPE svg><svg data-animation-duration="5s" preserveAspectRatio="xMidYMid meet" version="1.1" viewBox="-50 -50 100 100" xmlns:xlink="http://www.w3.org/1999/xlink" xmlns="http://www.w3.org/2000/svg"><style>/* <![CDATA[ */ @keyframes svg-40-c-main-anim{0%{transform:rotate(0)}to{transform:rotate(72deg)}}.svg-40-c-animation-group{animation:svg-40-c-main-anim 5s linear infinite} /* ]]> */</style><circle class="svg-40-c-circle" fill="black" r="45"/><g class="svg-40-c-g svg-40-c-animation-group"><g class="svg-40-c-g" transform="rotate(0) translate(0, -28.341364132856242) scale(0.37019190815875014)"><circle class="svg-40-c-circle" fill="white" r="45"/><g class="svg-40-c-g svg-40-c-animation-group"><g class="svg-40-c-g" transform="rotate(0) translate(0, -28.341364132856242) scale(0.37019190815875014)"><circle class="svg-40-c-circle" fill="black" r="45"/><g class="svg-40-c-g svg-40-c-animation-group"><g class="svg-40-c-g" transform="rotate(0) translate(0, -28.341364132856242) scale(0.37019190815875014)"><circle class="svg-40-c-circle" fill="white" r="45"/></g><g class="svg-40-c-g" transform="rotate(72) translate(0, -28.341364132856242) scale(0.37019190815875014)"><circle class="svg-40-c-circle" fill="white" r="45"/></g><g class="svg-40-c-g" transform="rotate(144) translate(0, -28.341364132856242) scale(0.37019190815875014)"><circle class="svg-40-c-circle" fill="white" r="45"/></g><g class="svg-40-c-g" transform="rotate(216) translate(0, -28.341364132856242) scale(0.37019190815875014)"><circle class="svg-40-c-circle" fill="white" r="45"/></g><g class="svg-40-c-g" transform="rotate(288) translate(0, -28.341364132856242) scale(0.37019190815875014)"><circle class="svg-40-c-circle" fill="white" r="45"/></g></g></g><g class="svg-40-c-g" transform="rotate(72) translate(0, -28.341364132856242) scale(0.37019190815875014)"><circle class="svg-40-c-circle" fill="black" r="45"/><g class="svg-40-c-g svg-40-c-animation-group"><g class="svg-40-c-g" transform="rotate(0) translate(0, -28.341364132856242) scale(0.37019190815875014)"><circle class="svg-40-c-circle" fill="white" r="45"/></g><g class="svg-40-c-g" transform="rotate(72) translate(0, -28.341364132856242) scale(0.37019190815875014)"><circle class="svg-40-c-circle" fill="white" r="45"/></g><g class="svg-40-c-g" transform="rotate(144) translate(0, -28.341364132856242) scale(0.37019190815875014)"><circle class="svg-40-c-circle" fill="white" r="45"/></g><g class="svg-40-c-g" transform="rotate(216) translate(0, -28.341364132856242) scale(0.37019190815875014)"><circle class="svg-40-c-circle" fill="white" r="45"/></g><g class="svg-40-c-g" transform="rotate(288) translate(0, -28.341364132856242) scale(0.37019190815875014)"><circle class="svg-40-c-circle" fill="white" r="45"/></g></g></g><g class="svg-40-c-g" transform="rotate(144) translate(0, -28.341364132856242) scale(0.37019190815875014)"><circle class="svg-40-c-circle" fill="black" r="45"/><g class="svg-40-c-g svg-40-c-animation-group"><g class="svg-40-c-g" transform="rotate(0) translate(0, -28.341364132856242) scale(0.37019190815875014)"><circle class="svg-40-c-circle" fill="white" r="45"/></g><g class="svg-40-c-g" transform="rotate(72) translate(0, -28.341364132856242) scale(0.37019190815875014)"><circle class="svg-40-c-circle" fill="white" r="45"/></g><g class="svg-40-c-g" transform="rotate(144) translate(0, -28.341364132856242) scale(0.37019190815875014)"><circle class="svg-40-c-circle" fill="white" r="45"/></g><g class="svg-40-c-g" transform="rotate(216) translate(0, -28.341364132856242) scale(0.37019190815875014)"><circle class="svg-40-c-circle" fill="white" r="45"/></g><g class="svg-40-c-g" transform="rotate(288) translate(0, -28.341364132856242) scale(0.37019190815875014)"><circle class="svg-40-c-circle" fill="white" r="45"/></g></g></g><g class="svg-40-c-g" transform="rotate(216) translate(0, -28.341364132856242) scale(0.37019190815875014)"><circle class="svg-40-c-circle" fill="black" r="45"/><g class="svg-40-c-g svg-40-c-animation-group"><g class="svg-40-c-g" transform="rotate(0) translate(0, -28.341364132856242) scale(0.37019190815875014)"><circle class="svg-40-c-circle" fill="white" r="45"/></g><g class="svg-40-c-g" transform="rotate(72) translate(0, -28.341364132856242) scale(0.37019190815875014)"><circle class="svg-40-c-circle" fill="white" r="45"/></g><g class="svg-40-c-g" transform="rotate(144) translate(0, -28.341364132856242) scale(0.37019190815875014)"><circle class="svg-40-c-circle" fill="white" r="45"/></g><g class="svg-40-c-g" transform="rotate(216) translate(0, -28.341364132856242) scale(0.37019190815875014)"><circle class="svg-40-c-circle" fill="white" r="45"/></g><g class="svg-40-c-g" transform="rotate(288) translate(0, -28.341364132856242) scale(0.37019190815875014)"><circle class="svg-40-c-circle" fill="white" r="45"/></g></g></g><g class="svg-40-c-g" transform="rotate(288) translate(0, -28.341364132856242) scale(0.37019190815875014)"><circle class="svg-40-c-circle" fill="black" r="45"/><g class="svg-40-c-g svg-40-c-animation-group"><g class="svg-40-c-g" transform="rotate(0) translate(0, -28.341364132856242) scale(0.37019190815875014)"><circle class="svg-40-c-circle" fill="white" r="45"/></g><g class="svg-40-c-g" transform="rotate(72) translate(0, -28.341364132856242) scale(0.37019190815875014)"><circle class="svg-40-c-circle" fill="white" r="45"/></g><g class="svg-40-c-g" transform="rotate(144) translate(0, -28.341364132856242) scale(0.37019190815875014)"><circle class="svg-40-c-circle" fill="white" r="45"/></g><g class="svg-40-c-g" transform="rotate(216) translate(0, -28.341364132856242) scale(0.37019190815875014)"><circle class="svg-40-c-circle" fill="white" r="45"/></g><g class="svg-40-c-g" transform="rotate(288) translate(0, -28.341364132856242) scale(0.37019190815875014)"><circle class="svg-40-c-circle" fill="white" r="45"/></g></g></g></g></g><g class="svg-40-c-g" transform="rotate(72) translate(0, -28.341364132856242) scale(0.37019190815875014)"><circle class="svg-40-c-circle" fill="white" r="45"/><g class="svg-40-c-g svg-40-c-animation-group"><g class="svg-40-c-g" transform="rotate(0) translate(0, -28.341364132856242) scale(0.37019190815875014)"><circle class="svg-40-c-circle" fill="black" r="45"/><g class="svg-40-c-g svg-40-c-animation-group"><g class="svg-40-c-g" transform="rotate(0) translate(0, -28.341364132856242) scale(0.37019190815875014)"><circle class="svg-40-c-circle" fill="white" r="45"/></g><g class="svg-40-c-g" transform="rotate(72) translate(0, -28.341364132856242) scale(0.37019190815875014)"><circle class="svg-40-c-circle" fill="white" r="45"/></g><g class="svg-40-c-g" transform="rotate(144) translate(0, -28.341364132856242) scale(0.37019190815875014)"><circle class="svg-40-c-circle" fill="white" r="45"/></g><g class="svg-40-c-g" transform="rotate(216) translate(0, -28.341364132856242) scale(0.37019190815875014)"><circle class="svg-40-c-circle" fill="white" r="45"/></g><g class="svg-40-c-g" transform="rotate(288) translate(0, -28.341364132856242) scale(0.37019190815875014)"><circle class="svg-40-c-circle" fill="white" r="45"/></g></g></g><g class="svg-40-c-g" transform="rotate(72) translate(0, -28.341364132856242) scale(0.37019190815875014)"><circle class="svg-40-c-circle" fill="black" r="45"/><g class="svg-40-c-g svg-40-c-animation-group"><g class="svg-40-c-g" transform="rotate(0) translate(0, -28.341364132856242) scale(0.37019190815875014)"><circle class="svg-40-c-circle" fill="white" r="45"/></g><g class="svg-40-c-g" transform="rotate(72) translate(0, -28.341364132856242) scale(0.37019190815875014)"><circle class="svg-40-c-circle" fill="white" r="45"/></g><g class="svg-40-c-g" transform="rotate(144) translate(0, -28.341364132856242) scale(0.37019190815875014)"><circle class="svg-40-c-circle" fill="white" r="45"/></g><g class="svg-40-c-g" transform="rotate(216) translate(0, -28.341364132856242) scale(0.37019190815875014)"><circle class="svg-40-c-circle" fill="white" r="45"/></g><g class="svg-40-c-g" transform="rotate(288) translate(0, -28.341364132856242) scale(0.37019190815875014)"><circle class="svg-40-c-circle" fill="white" r="45"/></g></g></g><g class="svg-40-c-g" transform="rotate(144) translate(0, -28.341364132856242) scale(0.37019190815875014)"><circle class="svg-40-c-circle" fill="black" r="45"/><g class="svg-40-c-g svg-40-c-animation-group"><g class="svg-40-c-g" transform="rotate(0) translate(0, -28.341364132856242) scale(0.37019190815875014)"><circle class="svg-40-c-circle" fill="white" r="45"/></g><g class="svg-40-c-g" transform="rotate(72) translate(0, -28.341364132856242) scale(0.37019190815875014)"><circle class="svg-40-c-circle" fill="white" r="45"/></g><g class="svg-40-c-g" transform="rotate(144) translate(0, -28.341364132856242) scale(0.37019190815875014)"><circle class="svg-40-c-circle" fill="white" r="45"/></g><g class="svg-40-c-g" transform="rotate(216) translate(0, -28.341364132856242) scale(0.37019190815875014)"><circle class="svg-40-c-circle" fill="white" r="45"/></g><g class="svg-40-c-g" transform="rotate(288) translate(0, -28.341364132856242) scale(0.37019190815875014)"><circle class="svg-40-c-circle" fill="white" r="45"/></g></g></g><g class="svg-40-c-g" transform="rotate(216) translate(0, -28.341364132856242) scale(0.37019190815875014)"><circle class="svg-40-c-circle" fill="black" r="45"/><g class="svg-40-c-g svg-40-c-animation-group"><g class="svg-40-c-g" transform="rotate(0) translate(0, -28.341364132856242) scale(0.37019190815875014)"><circle class="svg-40-c-circle" fill="white" r="45"/></g><g class="svg-40-c-g" transform="rotate(72) translate(0, -28.341364132856242) scale(0.37019190815875014)"><circle class="svg-40-c-circle" fill="white" r="45"/></g><g class="svg-40-c-g" transform="rotate(144) translate(0, -28.341364132856242) scale(0.37019190815875014)"><circle class="svg-40-c-circle" fill="white" r="45"/></g><g class="svg-40-c-g" transform="rotate(216) translate(0, -28.341364132856242) scale(0.37019190815875014)"><circle class="svg-40-c-circle" fill="white" r="45"/></g><g class="svg-40-c-g" transform="rotate(288) translate(0, -28.341364132856242) scale(0.37019190815875014)"><circle class="svg-40-c-circle" fill="white" r="45"/></g></g></g><g class="svg-40-c-g" transform="rotate(288) translate(0, -28.341364132856242) scale(0.37019190815875014)"><circle class="svg-40-c-circle" fill="black" r="45"/><g class="svg-40-c-g svg-40-c-animation-group"><g class="svg-40-c-g" transform="rotate(0) translate(0, -28.341364132856242) scale(0.37019190815875014)"><circle class="svg-40-c-circle" fill="white" r="45"/></g><g class="svg-40-c-g" transform="rotate(72) translate(0, -28.341364132856242) scale(0.37019190815875014)"><circle class="svg-40-c-circle" fill="white" r="45"/></g><g class="svg-40-c-g" transform="rotate(144) translate(0, -28.341364132856242) scale(0.37019190815875014)"><circle class="svg-40-c-circle" fill="white" r="45"/></g><g class="svg-40-c-g" transform="rotate(216) translate(0, -28.341364132856242) scale(0.37019190815875014)"><circle class="svg-40-c-circle" fill="white" r="45"/></g><g class="svg-40-c-g" transform="rotate(288) translate(0, -28.341364132856242) scale(0.37019190815875014)"><circle class="svg-40-c-circle" fill="white" r="45"/></g></g></g></g></g><g class="svg-40-c-g" transform="rotate(144) translate(0, -28.341364132856242) scale(0.37019190815875014)"><circle class="svg-40-c-circle" fill="white" r="45"/><g class="svg-40-c-g svg-40-c-animation-group"><g class="svg-40-c-g" transform="rotate(0) translate(0, -28.341364132856242) scale(0.37019190815875014)"><circle class="svg-40-c-circle" fill="black" r="45"/><g class="svg-40-c-g svg-40-c-animation-group"><g class="svg-40-c-g" transform="rotate(0) translate(0, -28.341364132856242) scale(0.37019190815875014)"><circle class="svg-40-c-circle" fill="white" r="45"/></g><g class="svg-40-c-g" transform="rotate(72) translate(0, -28.341364132856242) scale(0.37019190815875014)"><circle class="svg-40-c-circle" fill="white" r="45"/></g><g class="svg-40-c-g" transform="rotate(144) translate(0, -28.341364132856242) scale(0.37019190815875014)"><circle class="svg-40-c-circle" fill="white" r="45"/></g><g class="svg-40-c-g" transform="rotate(216) translate(0, -28.341364132856242) scale(0.37019190815875014)"><circle class="svg-40-c-circle" fill="white" r="45"/></g><g class="svg-40-c-g" transform="rotate(288) translate(0, -28.341364132856242) scale(0.37019190815875014)"><circle class="svg-40-c-circle" fill="white" r="45"/></g></g></g><g class="svg-40-c-g" transform="rotate(72) translate(0, -28.341364132856242) scale(0.37019190815875014)"><circle class="svg-40-c-circle" fill="black" r="45"/><g class="svg-40-c-g svg-40-c-animation-group"><g class="svg-40-c-g" transform="rotate(0) translate(0, -28.341364132856242) scale(0.37019190815875014)"><circle class="svg-40-c-circle" fill="white" r="45"/></g><g class="svg-40-c-g" transform="rotate(72) translate(0, -28.341364132856242) scale(0.37019190815875014)"><circle class="svg-40-c-circle" fill="white" r="45"/></g><g class="svg-40-c-g" transform="rotate(144) translate(0, -28.341364132856242) scale(0.37019190815875014)"><circle class="svg-40-c-circle" fill="white" r="45"/></g><g class="svg-40-c-g" transform="rotate(216) translate(0, -28.341364132856242) scale(0.37019190815875014)"><circle class="svg-40-c-circle" fill="white" r="45"/></g><g class="svg-40-c-g" transform="rotate(288) translate(0, -28.341364132856242) scale(0.37019190815875014)"><circle class="svg-40-c-circle" fill="white" r="45"/></g></g></g><g class="svg-40-c-g" transform="rotate(144) translate(0, -28.341364132856242) scale(0.37019190815875014)"><circle class="svg-40-c-circle" fill="black" r="45"/><g class="svg-40-c-g svg-40-c-animation-group"><g class="svg-40-c-g" transform="rotate(0) translate(0, -28.341364132856242) scale(0.37019190815875014)"><circle class="svg-40-c-circle" fill="white" r="45"/></g><g class="svg-40-c-g" transform="rotate(72) translate(0, -28.341364132856242) scale(0.37019190815875014)"><circle class="svg-40-c-circle" fill="white" r="45"/></g><g class="svg-40-c-g" transform="rotate(144) translate(0, -28.341364132856242) scale(0.37019190815875014)"><circle class="svg-40-c-circle" fill="white" r="45"/></g><g class="svg-40-c-g" transform="rotate(216) translate(0, -28.341364132856242) scale(0.37019190815875014)"><circle class="svg-40-c-circle" fill="white" r="45"/></g><g class="svg-40-c-g" transform="rotate(288) translate(0, -28.341364132856242) scale(0.37019190815875014)"><circle class="svg-40-c-circle" fill="white" r="45"/></g></g></g><g class="svg-40-c-g" transform="rotate(216) translate(0, -28.341364132856242) scale(0.37019190815875014)"><circle class="svg-40-c-circle" fill="black" r="45"/><g class="svg-40-c-g svg-40-c-animation-group"><g class="svg-40-c-g" transform="rotate(0) translate(0, -28.341364132856242) scale(0.37019190815875014)"><circle class="svg-40-c-circle" fill="white" r="45"/></g><g class="svg-40-c-g" transform="rotate(72) translate(0, -28.341364132856242) scale(0.37019190815875014)"><circle class="svg-40-c-circle" fill="white" r="45"/></g><g class="svg-40-c-g" transform="rotate(144) translate(0, -28.341364132856242) scale(0.37019190815875014)"><circle class="svg-40-c-circle" fill="white" r="45"/></g><g class="svg-40-c-g" transform="rotate(216) translate(0, -28.341364132856242) scale(0.37019190815875014)"><circle class="svg-40-c-circle" fill="white" r="45"/></g><g class="svg-40-c-g" transform="rotate(288) translate(0, -28.341364132856242) scale(0.37019190815875014)"><circle class="svg-40-c-circle" fill="white" r="45"/></g></g></g><g class="svg-40-c-g" transform="rotate(288) translate(0, -28.341364132856242) scale(0.37019190815875014)"><circle class="svg-40-c-circle" fill="black" r="45"/><g class="svg-40-c-g svg-40-c-animation-group"><g class="svg-40-c-g" transform="rotate(0) translate(0, -28.341364132856242) scale(0.37019190815875014)"><circle class="svg-40-c-circle" fill="white" r="45"/></g><g class="svg-40-c-g" transform="rotate(72) translate(0, -28.341364132856242) scale(0.37019190815875014)"><circle class="svg-40-c-circle" fill="white" r="45"/></g><g class="svg-40-c-g" transform="rotate(144) translate(0, -28.341364132856242) scale(0.37019190815875014)"><circle class="svg-40-c-circle" fill="white" r="45"/></g><g class="svg-40-c-g" transform="rotate(216) translate(0, -28.341364132856242) scale(0.37019190815875014)"><circle class="svg-40-c-circle" fill="white" r="45"/></g><g class="svg-40-c-g" transform="rotate(288) translate(0, -28.341364132856242) scale(0.37019190815875014)"><circle class="svg-40-c-circle" fill="white" r="45"/></g></g></g></g></g><g class="svg-40-c-g" transform="rotate(216) translate(0, -28.341364132856242) scale(0.37019190815875014)"><circle class="svg-40-c-circle" fill="white" r="45"/><g class="svg-40-c-g svg-40-c-animation-group"><g class="svg-40-c-g" transform="rotate(0) translate(0, -28.341364132856242) scale(0.37019190815875014)"><circle class="svg-40-c-circle" fill="black" r="45"/><g class="svg-40-c-g svg-40-c-animation-group"><g class="svg-40-c-g" transform="rotate(0) translate(0, -28.341364132856242) scale(0.37019190815875014)"><circle class="svg-40-c-circle" fill="white" r="45"/></g><g class="svg-40-c-g" transform="rotate(72) translate(0, -28.341364132856242) scale(0.37019190815875014)"><circle class="svg-40-c-circle" fill="white" r="45"/></g><g class="svg-40-c-g" transform="rotate(144) translate(0, -28.341364132856242) scale(0.37019190815875014)"><circle class="svg-40-c-circle" fill="white" r="45"/></g><g class="svg-40-c-g" transform="rotate(216) translate(0, -28.341364132856242) scale(0.37019190815875014)"><circle class="svg-40-c-circle" fill="white" r="45"/></g><g class="svg-40-c-g" transform="rotate(288) translate(0, -28.341364132856242) scale(0.37019190815875014)"><circle class="svg-40-c-circle" fill="white" r="45"/></g></g></g><g class="svg-40-c-g" transform="rotate(72) translate(0, -28.341364132856242) scale(0.37019190815875014)"><circle class="svg-40-c-circle" fill="black" r="45"/><g class="svg-40-c-g svg-40-c-animation-group"><g class="svg-40-c-g" transform="rotate(0) translate(0, -28.341364132856242) scale(0.37019190815875014)"><circle class="svg-40-c-circle" fill="white" r="45"/></g><g class="svg-40-c-g" transform="rotate(72) translate(0, -28.341364132856242) scale(0.37019190815875014)"><circle class="svg-40-c-circle" fill="white" r="45"/></g><g class="svg-40-c-g" transform="rotate(144) translate(0, -28.341364132856242) scale(0.37019190815875014)"><circle class="svg-40-c-circle" fill="white" r="45"/></g><g class="svg-40-c-g" transform="rotate(216) translate(0, -28.341364132856242) scale(0.37019190815875014)"><circle class="svg-40-c-circle" fill="white" r="45"/></g><g class="svg-40-c-g" transform="rotate(288) translate(0, -28.341364132856242) scale(0.37019190815875014)"><circle class="svg-40-c-circle" fill="white" r="45"/></g></g></g><g class="svg-40-c-g" transform="rotate(144) translate(0, -28.341364132856242) scale(0.37019190815875014)"><circle class="svg-40-c-circle" fill="black" r="45"/><g class="svg-40-c-g svg-40-c-animation-group"><g class="svg-40-c-g" transform="rotate(0) translate(0, -28.341364132856242) scale(0.37019190815875014)"><circle class="svg-40-c-circle" fill="white" r="45"/></g><g class="svg-40-c-g" transform="rotate(72) translate(0, -28.341364132856242) scale(0.37019190815875014)"><circle class="svg-40-c-circle" fill="white" r="45"/></g><g class="svg-40-c-g" transform="rotate(144) translate(0, -28.341364132856242) scale(0.37019190815875014)"><circle class="svg-40-c-circle" fill="white" r="45"/></g><g class="svg-40-c-g" transform="rotate(216) translate(0, -28.341364132856242) scale(0.37019190815875014)"><circle class="svg-40-c-circle" fill="white" r="45"/></g><g class="svg-40-c-g" transform="rotate(288) translate(0, -28.341364132856242) scale(0.37019190815875014)"><circle class="svg-40-c-circle" fill="white" r="45"/></g></g></g><g class="svg-40-c-g" transform="rotate(216) translate(0, -28.341364132856242) scale(0.37019190815875014)"><circle class="svg-40-c-circle" fill="black" r="45"/><g class="svg-40-c-g svg-40-c-animation-group"><g class="svg-40-c-g" transform="rotate(0) translate(0, -28.341364132856242) scale(0.37019190815875014)"><circle class="svg-40-c-circle" fill="white" r="45"/></g><g class="svg-40-c-g" transform="rotate(72) translate(0, -28.341364132856242) scale(0.37019190815875014)"><circle class="svg-40-c-circle" fill="white" r="45"/></g><g class="svg-40-c-g" transform="rotate(144) translate(0, -28.341364132856242) scale(0.37019190815875014)"><circle class="svg-40-c-circle" fill="white" r="45"/></g><g class="svg-40-c-g" transform="rotate(216) translate(0, -28.341364132856242) scale(0.37019190815875014)"><circle class="svg-40-c-circle" fill="white" r="45"/></g><g class="svg-40-c-g" transform="rotate(288) translate(0, -28.341364132856242) scale(0.37019190815875014)"><circle class="svg-40-c-circle" fill="white" r="45"/></g></g></g><g class="svg-40-c-g" transform="rotate(288) translate(0, -28.341364132856242) scale(0.37019190815875014)"><circle class="svg-40-c-circle" fill="black" r="45"/><g class="svg-40-c-g svg-40-c-animation-group"><g class="svg-40-c-g" transform="rotate(0) translate(0, -28.341364132856242) scale(0.37019190815875014)"><circle class="svg-40-c-circle" fill="white" r="45"/></g><g class="svg-40-c-g" transform="rotate(72) translate(0, -28.341364132856242) scale(0.37019190815875014)"><circle class="svg-40-c-circle" fill="white" r="45"/></g><g class="svg-40-c-g" transform="rotate(144) translate(0, -28.341364132856242) scale(0.37019190815875014)"><circle class="svg-40-c-circle" fill="white" r="45"/></g><g class="svg-40-c-g" transform="rotate(216) translate(0, -28.341364132856242) scale(0.37019190815875014)"><circle class="svg-40-c-circle" fill="white" r="45"/></g><g class="svg-40-c-g" transform="rotate(288) translate(0, -28.341364132856242) scale(0.37019190815875014)"><circle class="svg-40-c-circle" fill="white" r="45"/></g></g></g></g></g><g class="svg-40-c-g" transform="rotate(288) translate(0, -28.341364132856242) scale(0.37019190815875014)"><circle class="svg-40-c-circle" fill="white" r="45"/><g class="svg-40-c-g svg-40-c-animation-group"><g class="svg-40-c-g" transform="rotate(0) translate(0, -28.341364132856242) scale(0.37019190815875014)"><circle class="svg-40-c-circle" fill="black" r="45"/><g class="svg-40-c-g svg-40-c-animation-group"><g class="svg-40-c-g" transform="rotate(0) translate(0, -28.341364132856242) scale(0.37019190815875014)"><circle class="svg-40-c-circle" fill="white" r="45"/></g><g class="svg-40-c-g" transform="rotate(72) translate(0, -28.341364132856242) scale(0.37019190815875014)"><circle class="svg-40-c-circle" fill="white" r="45"/></g><g class="svg-40-c-g" transform="rotate(144) translate(0, -28.341364132856242) scale(0.37019190815875014)"><circle class="svg-40-c-circle" fill="white" r="45"/></g><g class="svg-40-c-g" transform="rotate(216) translate(0, -28.341364132856242) scale(0.37019190815875014)"><circle class="svg-40-c-circle" fill="white" r="45"/></g><g class="svg-40-c-g" transform="rotate(288) translate(0, -28.341364132856242) scale(0.37019190815875014)"><circle class="svg-40-c-circle" fill="white" r="45"/></g></g></g><g class="svg-40-c-g" transform="rotate(72) translate(0, -28.341364132856242) scale(0.37019190815875014)"><circle class="svg-40-c-circle" fill="black" r="45"/><g class="svg-40-c-g svg-40-c-animation-group"><g class="svg-40-c-g" transform="rotate(0) translate(0, -28.341364132856242) scale(0.37019190815875014)"><circle class="svg-40-c-circle" fill="white" r="45"/></g><g class="svg-40-c-g" transform="rotate(72) translate(0, -28.341364132856242) scale(0.37019190815875014)"><circle class="svg-40-c-circle" fill="white" r="45"/></g><g class="svg-40-c-g" transform="rotate(144) translate(0, -28.341364132856242) scale(0.37019190815875014)"><circle class="svg-40-c-circle" fill="white" r="45"/></g><g class="svg-40-c-g" transform="rotate(216) translate(0, -28.341364132856242) scale(0.37019190815875014)"><circle class="svg-40-c-circle" fill="white" r="45"/></g><g class="svg-40-c-g" transform="rotate(288) translate(0, -28.341364132856242) scale(0.37019190815875014)"><circle class="svg-40-c-circle" fill="white" r="45"/></g></g></g><g class="svg-40-c-g" transform="rotate(144) translate(0, -28.341364132856242) scale(0.37019190815875014)"><circle class="svg-40-c-circle" fill="black" r="45"/><g class="svg-40-c-g svg-40-c-animation-group"><g class="svg-40-c-g" transform="rotate(0) translate(0, -28.341364132856242) scale(0.37019190815875014)"><circle class="svg-40-c-circle" fill="white" r="45"/></g><g class="svg-40-c-g" transform="rotate(72) translate(0, -28.341364132856242) scale(0.37019190815875014)"><circle class="svg-40-c-circle" fill="white" r="45"/></g><g class="svg-40-c-g" transform="rotate(144) translate(0, -28.341364132856242) scale(0.37019190815875014)"><circle class="svg-40-c-circle" fill="white" r="45"/></g><g class="svg-40-c-g" transform="rotate(216) translate(0, -28.341364132856242) scale(0.37019190815875014)"><circle class="svg-40-c-circle" fill="white" r="45"/></g><g class="svg-40-c-g" transform="rotate(288) translate(0, -28.341364132856242) scale(0.37019190815875014)"><circle class="svg-40-c-circle" fill="white" r="45"/></g></g></g><g class="svg-40-c-g" transform="rotate(216) translate(0, -28.341364132856242) scale(0.37019190815875014)"><circle class="svg-40-c-circle" fill="black" r="45"/><g class="svg-40-c-g svg-40-c-animation-group"><g class="svg-40-c-g" transform="rotate(0) translate(0, -28.341364132856242) scale(0.37019190815875014)"><circle class="svg-40-c-circle" fill="white" r="45"/></g><g class="svg-40-c-g" transform="rotate(72) translate(0, -28.341364132856242) scale(0.37019190815875014)"><circle class="svg-40-c-circle" fill="white" r="45"/></g><g class="svg-40-c-g" transform="rotate(144) translate(0, -28.341364132856242) scale(0.37019190815875014)"><circle class="svg-40-c-circle" fill="white" r="45"/></g><g class="svg-40-c-g" transform="rotate(216) translate(0, -28.341364132856242) scale(0.37019190815875014)"><circle class="svg-40-c-circle" fill="white" r="45"/></g><g class="svg-40-c-g" transform="rotate(288) translate(0, -28.341364132856242) scale(0.37019190815875014)"><circle class="svg-40-c-circle" fill="white" r="45"/></g></g></g><g class="svg-40-c-g" transform="rotate(288) translate(0, -28.341364132856242) scale(0.37019190815875014)"><circle class="svg-40-c-circle" fill="black" r="45"/><g class="svg-40-c-g svg-40-c-animation-group"><g class="svg-40-c-g" transform="rotate(0) translate(0, -28.341364132856242) scale(0.37019190815875014)"><circle class="svg-40-c-circle" fill="white" r="45"/></g><g class="svg-40-c-g" transform="rotate(72) translate(0, -28.341364132856242) scale(0.37019190815875014)"><circle class="svg-40-c-circle" fill="white" r="45"/></g><g class="svg-40-c-g" transform="rotate(144) translate(0, -28.341364132856242) scale(0.37019190815875014)"><circle class="svg-40-c-circle" fill="white" r="45"/></g><g class="svg-40-c-g" transform="rotate(216) translate(0, -28.341364132856242) scale(0.37019190815875014)"><circle class="svg-40-c-circle" fill="white" r="45"/></g><g class="svg-40-c-g" transform="rotate(288) translate(0, -28.341364132856242) scale(0.37019190815875014)"><circle class="svg-40-c-circle" fill="white" r="45"/></g></g></g></g></g></g><title>ANIMATION 40 - VARIATION C</title><desc><p>Created by <a href="http://andrew.wang-hoyer.com" target="_blank" rel="noopener">Andrew Wang-Hoyer</a>.</p></desc></svg>
